<svg width="35" height="35" viewBox="0 0 35 35" fill="none" xmlns="http://www.w3.org/2000/svg">
<path d="M14.4671 24.4031L21.0631 5.27783C21.2219 4.81746 20.974 4.317 20.5093 4.16015L8.3284 0.0473216C7.86378 -0.109599 7.35841 0.136502 7.1996 0.596862L0.603582 19.7222C0.444772 20.1826 0.692706 20.683 1.1574 20.8398L13.3383 24.9527C13.803 25.1096 14.3083 24.8636 14.4671 24.4031Z" fill="#2457C6"/>
<path d="M18.4497 8.12906L19.4282 5.26403C19.482 5.10639 19.3979 4.93512 19.2404 4.88141L16.3773 3.90512C16.2198 3.85141 16.0486 3.93559 15.9947 4.09323L15.0163 6.95825C14.9625 7.11582 15.0465 7.28716 15.204 7.34087L18.0671 8.31716C18.2246 8.37088 18.396 8.28662 18.4497 8.12906Z" fill="#FCD462"/>
<path d="M3.53655 17.8027C2.94676 17.6014 2.30526 17.9169 2.10371 18.5075C1.90216 19.098 2.2169 19.7399 2.80669 19.9412C3.39648 20.1425 4.03799 19.8269 4.23953 19.2364C4.44108 18.6459 4.12634 18.004 3.53655 17.8027Z" fill="#E56353"/>
<path d="M4.01342 16.409C3.42363 16.2077 2.78212 16.5232 2.58058 17.1138C2.37903 17.7043 2.69377 18.3462 3.28356 18.5475C3.87335 18.7488 4.51486 18.4333 4.7164 17.8427C4.91795 17.2522 4.60321 16.6103 4.01342 16.409Z" fill="#FCD462"/>
<path d="M11.3812 9.22293L13.2235 3.74425L13.8832 3.97273L12.0408 9.45142L11.3812 9.22293Z" fill="white"/>
<path d="M8.19781 4.27086L8.88069 2.24007L9.54031 2.46856L8.85742 4.49934L8.19781 4.27086Z" fill="white"/>
<path d="M6.96651 7.93578L7.6494 5.90499L8.30902 6.13347L7.62613 8.16426L6.96651 7.93578Z" fill="white"/>
<path d="M5.73435 11.5987L6.41724 9.56795L7.07685 9.79644L6.39397 11.8272L5.73435 11.5987Z" fill="white"/>
<path d="M4.50507 15.2619L5.18796 13.2312L5.84758 13.4596L5.16469 15.4904L4.50507 15.2619Z" fill="white"/>
<path d="M8.61476 11.3402L11.3829 3.10819L12.0425 3.33668L9.27437 11.5687L8.61476 11.3402Z" fill="white"/>
<path d="M33.6699 10.4259L13.1874 30.3286L3.05713 19.9032L23.5396 0.000511736L33.6699 10.4259Z" fill="#3EA69B"/>
<path d="M12.148 28.3109L5 20.8731C5.43212 20.4486 5.44206 19.7503 5.02216 19.3134L22.4205 2.22217C22.8404 2.65905 23.531 2.6691 23.9631 2.24457L31.1111 9.68234C30.679 10.1069 30.6691 10.8051 31.089 11.242L13.6906 28.3333C13.2707 27.8964 12.5801 27.8863 12.148 28.3109Z" fill="#44C4A1"/>
<path d="M21.147 12.5285C19.2425 10.5686 16.4433 10.1995 14.8948 11.7042C13.3463 13.2089 13.6349 16.0175 15.5394 17.9774C17.4439 19.9374 20.2431 20.3065 21.7916 18.8018C23.3401 17.2971 23.0515 14.4885 21.147 12.5285Z" fill="#3EA69B"/>
<path d="M26.2988 8.4331C26.788 8.4331 27.1846 8.03782 27.1846 7.55023C27.1846 7.06263 26.788 6.66736 26.2988 6.66736C25.8095 6.66736 25.4129 7.06263 25.4129 7.55023C25.4129 8.03782 25.8095 8.4331 26.2988 8.4331Z" fill="#3EA69B"/>
<path d="M10.3896 23.8389C10.8789 23.8389 11.2755 23.4436 11.2755 22.956C11.2755 22.4684 10.8789 22.0731 10.3896 22.0731C9.90041 22.0731 9.50381 22.4684 9.50381 22.956C9.50381 23.4436 9.90041 23.8389 10.3896 23.8389Z" fill="#3EA69B"/>
<path d="M20.9668 18.4865L20.4728 17.9718C19.7733 18.5322 18.956 18.838 18.022 18.8888L17.9417 17.7753C18.661 17.7349 19.2583 17.5444 19.7354 17.2035L18.4225 15.8355C17.7759 16.225 17.2313 16.436 16.7891 16.4689C16.3468 16.5018 15.9306 16.3149 15.5404 15.9084C15.1502 15.5019 14.971 15.0316 15.0038 14.4963C15.0369 13.9613 15.2672 13.4608 15.6953 12.994L15.3568 12.6414L15.8023 12.2032L16.1474 12.5626C16.6944 12.0982 17.3464 11.7993 18.1039 11.6666L18.2736 12.7608C17.7549 12.8415 17.2926 13.0314 16.8851 13.3313L18.1573 14.6567L18.1782 14.6361C18.8341 14.238 19.3911 14.0238 19.8489 13.9934C20.3076 13.9627 20.7341 14.1534 21.1287 14.5645C21.5236 14.976 21.7012 15.4527 21.6611 15.9941C21.6215 16.5361 21.3765 17.0512 20.9252 17.5407L21.4123 18.0483L20.9668 18.4865ZM16.1073 14.4187C16.0901 14.6408 16.1576 14.8305 16.3088 14.988C16.4599 15.1455 16.6259 15.2243 16.8067 15.2243C16.9872 15.2253 17.2486 15.1394 17.5899 14.9682L16.4191 13.7482C16.2282 13.9729 16.1241 14.1963 16.1073 14.4187ZM20.5409 16.068C20.5672 15.8325 20.5016 15.6321 20.3435 15.4674C20.1858 15.303 20.0095 15.2226 19.8149 15.2266C19.6198 15.2311 19.3426 15.3281 18.9831 15.5172L20.201 16.7862C20.4014 16.5438 20.5143 16.3045 20.5409 16.068Z" fill="#44C4A1"/>
<path d="M33.0826 8.33337H1.3618C0.609785 8.33337 0 8.94738 0 9.70482V33.6286C0 34.386 0.609785 35 1.3618 35H33.0826C33.8347 35 34.4444 34.386 34.4444 33.6286V9.70482C34.4445 8.94738 33.8347 8.33337 33.0826 8.33337Z" fill="#FCD462"/>
<path d="M31.6456 33.275H30.8769V32.6412H31.645C31.7546 32.6409 31.8604 32.6093 31.9521 32.5496L32.2987 33.08C32.1048 33.2072 31.8789 33.2747 31.6456 33.275ZM29.6006 33.275H28.3237V32.6412H29.6006V33.275ZM27.0474 33.275H25.7711V32.6412H27.0474V33.275ZM24.4942 33.275H23.2179V32.6412H24.4942V33.275ZM21.9416 33.275H20.6647V32.6412H21.9416V33.275ZM19.3884 33.275H18.1121V32.6412H19.3884V33.275ZM16.8358 33.275H15.5589V32.6412H16.8358V33.275ZM14.2826 33.275H13.0063V32.6412H14.2826V33.275ZM11.7294 33.275H10.4531V32.6412H11.7294V33.275ZM9.17688 33.275H7.9V32.6412H9.17688V33.275ZM6.62369 33.275H5.34738V32.6412H6.62369V33.275ZM4.0705 33.275H2.88454C2.84305 33.275 2.80163 33.2728 2.76135 33.2685L2.82695 32.6384L4.07043 32.6412L4.0705 33.275ZM1.69121 32.0922V30.8054H2.32504V32.082L1.69121 32.0922ZM32.8383 31.674H32.2045V30.3974H32.8383V31.674ZM2.32504 29.5291H1.69121V28.2525H2.32504V29.5291ZM32.8383 29.1212H32.2045V27.8446H32.8383V29.1212ZM2.32504 26.9759H1.69121V25.6996H2.32504V26.9759ZM32.8383 26.568H32.2045V25.2917H32.8383V26.568ZM2.32504 24.423H1.69121V23.1464H2.32504V24.423ZM32.8383 24.0151H32.2045V22.7388H32.8383V24.0151ZM2.32504 21.8701H1.69121V20.5935H2.32504V21.8701ZM32.8383 21.4623H32.2045V20.1857H32.8383V21.4623ZM2.32504 19.3169H1.69121V18.0406H2.32504V19.3169ZM32.8383 18.9093H32.2045V17.6328H32.8383V18.9093ZM2.32504 16.764H1.69121V15.4874H2.32504V16.764ZM32.8383 16.3562H32.2045V15.0798H32.8383V16.3562ZM2.32504 14.2112H1.69121V12.9346H2.32504V14.2112ZM32.8383 13.8032H32.2045V12.5267H32.8383V13.8032ZM2.32504 11.6583H1.69121V11.2554C1.69121 10.8496 1.89482 10.4752 2.23589 10.2536L2.58128 10.7853C2.421 10.8893 2.32504 11.0651 2.32504 11.2554V11.6583ZM32.2045 11.2523C32.2026 10.9675 31.9884 10.7302 31.7062 10.6996L31.7743 10.0695C32.3778 10.1348 32.8353 10.6417 32.8383 11.2486L32.2045 11.2523ZM30.464 10.6961H29.1877V10.0623H30.464V10.6961ZM27.9108 10.6961H26.6345V10.0623H27.9108V10.6961ZM25.3582 10.6961H24.0814V10.0623H25.3582V10.6961ZM22.805 10.6961H21.5287V10.0623H22.805V10.6961ZM20.2518 10.6961H18.9755V10.0623H20.2518V10.6961ZM17.6993 10.6961H16.4224V10.0623H17.6993V10.6961ZM15.1461 10.6961H13.8698V10.0623H15.1461V10.6961ZM12.5929 10.6961H11.3166V10.0623H12.5929V10.6961ZM10.0403 10.6961H8.76341V10.0623H10.0403V10.6961ZM7.48709 10.6961H6.21085V10.0623H7.48717L7.48709 10.6961ZM4.9339 10.6961H3.65766V10.0623H4.93397L4.9339 10.6961Z" fill="#DC8744"/>
<path d="M34.6987 19.1996H29.0045C27.6038 19.1996 26.4755 20.3659 26.5379 21.7804C26.5973 23.1282 27.8165 24.1377 29.1656 24.1377H34.6987C34.8463 24.1377 34.966 24.018 34.966 23.8704V19.4669C34.966 19.3192 34.8463 19.1996 34.6987 19.1996Z" fill="#DC8744"/>
<path d="M29.1667 23.8889C30.2406 23.8889 31.1111 23.0183 31.1111 21.9444C31.1111 20.8706 30.2406 20 29.1667 20C28.0928 20 27.2222 20.8706 27.2222 21.9444C27.2222 23.0183 28.0928 23.8889 29.1667 23.8889Z" fill="#64798A"/>
<path d="M30.0163 20.5555C30.1266 20.7757 30.1951 21.0232 30.1951 21.2903C30.1951 22.1588 29.5332 22.8628 28.7168 22.8628C28.3581 22.8628 28.0338 22.7214 27.7778 22.4954C28.0264 22.9916 28.5119 23.3333 29.0774 23.3333C29.8938 23.3333 30.5555 22.6292 30.5555 21.7608C30.5555 21.2738 30.3431 20.844 30.0163 20.5555Z" fill="#3A556A"/>
</svg>
