<svg height="464pt" viewBox="0 0 464 464" width="464pt" xmlns="http://www.w3.org/2000/svg"><path d="m256 0h192c8.835938 0 16 7.164062 16 16v128c0 8.835938-7.164062 16-16 16h-192c-8.835938 0-16-7.164062-16-16v-128c0-8.835938 7.164062-16 16-16zm0 0" fill="#00ccb3"/><path d="m464 16v128c-.027344 8.824219-7.175781 15.972656-16 16h-150.800781c49.859375-46.582031 92.273437-100.546875 125.761719-160h25.039062c8.824219.0273438 15.972656 7.175781 16 16zm0 0" fill="#00b8a1"/><path d="m416 32c-4.613281 0-8.996094 2.015625-12 5.519531 5.332031 5.96875 5.332031 14.992188 0 20.960938 3.003906 3.503906 7.386719 5.519531 12 5.519531 8.835938 0 16-7.164062 16-16s-7.164062-16-16-16zm0 0" fill="#ffa733"/><path d="m272 32h48v32h-48zm0 0" fill="#ffb655"/><path d="m272 208v48h-272v-48l136-32zm0 0" fill="#ff9811"/><path d="m152 216c0 8.835938-7.164062 16-16 16s-16-7.164062-16-16 7.164062-16 16-16 16 7.164062 16 16zm0 0" fill="#ff6243"/><path d="m56 256h160v144h-160zm0 0" fill="#ffb655"/><path d="m24 256h32v144h-32zm0 0" fill="#ffa733"/><path d="m216 256h32v144h-32zm0 0" fill="#ffa733"/><path d="m256 400h-240v32h240zm0 0" fill="#ff9811"/><path d="m272 432h-272v32h272zm0 0" fill="#ee8700"/><path d="m404 37.519531c-4.375-5.046875-11.425781-6.84375-17.683594-4.511719-6.257812 2.335938-10.40625 8.3125-10.40625 14.992188s4.148438 12.65625 10.40625 14.992188c6.257813 2.332031 13.308594.535156 17.683594-4.511719 5.332031-5.96875 5.332031-14.992188 0-20.960938zm0 0" fill="#ff6243"/><path d="m216 256h32v16h-32zm0 0" fill="#f29010"/><path d="m24 256h32v16h-32zm0 0" fill="#f29010"/><path d="m56 256h160v16h-160zm0 0" fill="#ffa733"/><path d="m280 88h16v16h-16zm0 0" fill="#acabb1"/><path d="m312 88h16v16h-16zm0 0" fill="#acabb1"/><path d="m344 88h16v16h-16zm0 0" fill="#acabb1"/><path d="m376 88h16v16h-16zm0 0" fill="#acabb1"/><path d="m408 88h16v16h-16zm0 0" fill="#acabb1"/><path d="m280 120h64v16h-64zm0 0" fill="#898890"/><path d="m360 120h64v16h-64zm0 0" fill="#898890"/><g fill="#ff6243"><path d="m144 320h-16c-4.417969 0-8-3.582031-8-8s3.582031-8 8-8h16c4.417969 0 8 3.582031 8 8h16c0-13.253906-10.746094-24-24-24v-8h-16v8c-13.253906 0-24 10.746094-24 24s10.746094 24 24 24h16c4.417969 0 8 3.582031 8 8s-3.582031 8-8 8h-16c-4.417969 0-8-3.582031-8-8h-16c0 13.253906 10.746094 24 24 24v8h16v-8c13.253906 0 24-10.746094 24-24s-10.746094-24-24-24zm0 0"/><path d="m296 344h16v16h-16zm0 0"/><path d="m328 344h16v16h-16zm0 0"/><path d="m360 344h16v16h-16zm0 0"/><path d="m360 312h16v16h-16zm0 0"/><path d="m360 280h16v16h-16zm0 0"/><path d="m360 248h16v16h-16zm0 0"/><path d="m360 216h16v16h-16zm0 0"/><path d="m360 184h16v16h-16zm0 0"/><path d="m200 40h16v16h-16zm0 0"/><path d="m168 40h16v16h-16zm0 0"/><path d="m136 40h16v16h-16zm0 0"/><path d="m136 72h16v16h-16zm0 0"/><path d="m136 104h16v16h-16zm0 0"/><path d="m136 136h16v16h-16zm0 0"/></g></svg>
