<svg width="30" height="30" viewBox="0 0 30 30" fill="none" xmlns="http://www.w3.org/2000/svg">
<g clip-path="url(#clip0_117_4623)">
<path d="M26.5 3.5H3.5V26.5H26.5V3.5Z" fill="#FEDA38"/>
<path d="M26.5 27H3.49995C3.22368 27 3 26.7763 3 26.5V3.49995C3 3.22368 3.22368 3 3.49995 3H26.4999C26.7762 3 26.9999 3.22368 26.9999 3.49995V26.4999C27 26.7763 26.7763 27 26.5 27ZM4.00005 26H26.0001V4.00005H4.00005V26Z" fill="black"/>
<path d="M3.49995 2.50005C3.22368 2.50005 3 2.27637 3 2.0001V0.499951C3 0.223682 3.22368 0 3.49995 0C3.77622 0 3.9999 0.223682 3.9999 0.499951V1.99995C4.00005 2.27622 3.77622 2.50005 3.49995 2.50005Z" fill="black"/>
<path d="M1.99995 4.00005H0.499951C0.223682 4.00005 0 3.77622 0 3.49995C0 3.22368 0.223682 3 0.499951 3H1.99995C2.27622 3 2.4999 3.22368 2.4999 3.49995C2.50005 3.77622 2.27622 4.00005 1.99995 4.00005Z" fill="black"/>
<path d="M1.99995 27H0.499951C0.223682 27 0 26.7763 0 26.5001C0 26.2238 0.223682 26.0001 0.499951 26.0001H1.99995C2.27622 26.0001 2.4999 26.2238 2.4999 26.5001C2.50005 26.7763 2.27622 27 1.99995 27Z" fill="black"/>
<path d="M3.49995 30C3.22368 30 3 29.7763 3 29.5001V28.0001C3 27.7238 3.22368 27.5001 3.49995 27.5001C3.77622 27.5001 3.9999 27.7238 3.9999 28.0001V29.5001C4.00005 29.7763 3.77622 30 3.49995 30Z" fill="black"/>
<path d="M26.5 30C26.2237 30 26 29.7763 26 29.5001V28.0001C26 27.7238 26.2237 27.5001 26.5 27.5001C26.7762 27.5001 26.9999 27.7238 26.9999 28.0001V29.5001C26.9999 29.7763 26.7762 30 26.5 30Z" fill="black"/>
<path d="M29.5 27H28C27.7237 27 27.5 26.7763 27.5 26.5001C27.5 26.2238 27.7237 26.0001 28 26.0001H29.5C29.7762 26.0001 29.9999 26.2238 29.9999 26.5001C29.9999 26.7763 29.7762 27 29.5 27Z" fill="black"/>
<path d="M29.5 4.00002H28C27.7237 4.00002 27.5 3.77634 27.5 3.50007C27.5 3.2238 27.7237 3.00012 28 3.00012H29.5C29.7762 3.00012 29.9999 3.2238 29.9999 3.50007C29.9999 3.7762 29.7762 4.00002 29.5 4.00002Z" fill="black"/>
<path d="M26.5 2.50005C26.2237 2.50005 26 2.27637 26 2.0001V0.499951C26 0.223682 26.2237 0 26.5 0C26.7762 0 26.9999 0.223682 26.9999 0.499951V1.99995C26.9999 2.27622 26.7762 2.50005 26.5 2.50005Z" fill="black"/>
</g>
<defs>
<clipPath id="clip0_117_4623">
<rect width="30" height="30" fill="white"/>
</clipPath>
</defs>
</svg>
