<svg width="60" height="50" viewBox="0 0 60 50" fill="none" xmlns="http://www.w3.org/2000/svg">
<g clip-path="url(#clip0_44_1317)">
<path d="M47.2222 0H11.6667V50H47.2222V0Z" fill="#B8BBC8"/>
<path d="M42.2222 4.44446H17.2222V50H42.2222V4.44446Z" fill="#E2E2E2"/>
<path d="M28.3333 7.77777H20V20.5555H28.3333V7.77777Z" fill="#346AE5"/>
<path d="M39.4444 7.77777H31.1111V20.5555H39.4444V7.77777Z" fill="#346AE5"/>
<path d="M28.3333 22.2222H20V49.9999H28.3333V22.2222Z" fill="#346AE5"/>
<path d="M39.4444 22.2222H31.1111V49.9999H39.4444V22.2222Z" fill="#346AE5"/>
<path d="M60 29.4445H0V32.2222H60V29.4445Z" fill="#9B9EAA"/>
<path d="M-6.67572e-06 50H2.77777L2.77777 32.2222H-6.67572e-06L-6.67572e-06 50Z" fill="#9B9EAA"/>
<path d="M57.2222 50H60V32.2222H57.2222V50Z" fill="#9B9EAA"/>
<path d="M51.1111 50H53.8889V32.2222H51.1111V50Z" fill="#9B9EAA"/>
<path d="M46.1111 50H48.8889V32.2222H46.1111V50Z" fill="#9B9EAA"/>
<path d="M40.5555 50H43.3333V32.2222H40.5555V50Z" fill="#9B9EAA"/>
<path d="M35.5555 50H38.3333V32.2222H35.5555V50Z" fill="#9B9EAA"/>
<path d="M31.1111 50H33.8889V32.2222H31.1111L31.1111 50Z" fill="#9B9EAA"/>
<path d="M26.1111 50H28.8889L28.8889 32.2222H26.1111L26.1111 50Z" fill="#9B9EAA"/>
<path d="M20.5555 50H23.3333L23.3333 32.2222H20.5555L20.5555 50Z" fill="#9B9EAA"/>
<path d="M15.5555 50H18.3333L18.3333 32.2222H15.5555L15.5555 50Z" fill="#9B9EAA"/>
<path d="M9.99999 50H12.7778L12.7778 32.2222H9.99999L9.99999 50Z" fill="#9B9EAA"/>
<path d="M5.55554 50H8.33331L8.33331 32.2222H5.55554L5.55554 50Z" fill="#9B9EAA"/>
<path d="M60 47.2222H0V49.9999H60V47.2222Z" fill="#9B9EAA"/>
</g>
<defs>
<clipPath id="clip0_44_1317">
<rect width="60" height="50" fill="white"/>
</clipPath>
</defs>
</svg>
