<svg width="50" height="50" viewBox="0 0 50 50" fill="none" xmlns="http://www.w3.org/2000/svg">
<g clip-path="url(#clip0_142_59083)">
<path d="M44.8278 28.4483H43.1037V22.4138C43.1037 18.1288 39.63 14.6552 35.3451 14.6552C31.0601 14.6552 27.5864 18.1288 27.5864 22.4138V27.5862H25.8623V22.4138C25.8623 17.1766 30.1079 12.931 35.3451 12.931C40.5822 12.931 44.8278 17.1766 44.8278 22.4138V28.4483Z" fill="#59B78B"/>
<path d="M22.4141 26.7241H46.552V30.1724H22.4141V26.7241Z" fill="#224DAB"/>
<path d="M43.965 46.5517H24.9995L23.2754 30.1724H45.6892L43.965 46.5517Z" fill="#2457C6"/>
<path d="M46.5519 26.5086V32.7101C46.5519 33.6379 45.8385 34.4375 44.9107 34.4806C44.4397 34.503 43.9801 34.3316 43.6387 34.0063C43.2973 33.681 43.104 33.2302 43.1036 32.7586C43.1036 33.7108 42.3317 34.4828 41.3795 34.4828C40.4273 34.4828 39.6553 33.7108 39.6553 32.7586C39.6553 33.7108 38.8834 34.4828 37.9312 34.4828C36.979 34.4828 36.2071 33.7108 36.2071 32.7586C36.2075 33.0613 36.1279 33.3587 35.9765 33.6207C35.8245 33.8826 35.6069 34.1002 35.345 34.2522C35.0912 34.3998 34.8035 34.4793 34.5099 34.4828C33.5465 34.4968 32.7588 33.6746 32.7588 32.7112V26.5086C32.7588 25.1993 33.8202 24.1379 35.1295 24.1379H44.1812C45.4905 24.1379 46.5519 25.1993 46.5519 26.5086Z" fill="#FD9226"/>
<path d="M25 46.5518H43.9655V50H25V46.5518Z" fill="#224DAB"/>
<path d="M39.6553 39.6552H41.3794V43.9656H39.6553V39.6552Z" fill="#224DAB"/>
<path d="M39.6553 36.2069H41.3794V37.931H39.6553V36.2069Z" fill="#6CBAE5"/>
<path d="M36.2068 32.7586C36.2072 33.0613 36.1277 33.3587 35.9762 33.6207C35.8242 33.8826 35.6066 34.1002 35.3447 34.2522V29.3104H36.2068V32.7586Z" fill="#E08122"/>
<path d="M39.655 32.7586C39.6553 33.3748 39.3266 33.9442 38.793 34.2522V29.3104H39.655V32.7586Z" fill="#E08122"/>
<path d="M43.1033 32.7586C43.1036 33.3748 42.7749 33.9442 42.2412 34.2522V29.3104H43.1033V32.7586Z" fill="#E08122"/>
<path d="M31.0345 50H3.44824L5.17238 43.1035H29.3103L31.0345 50Z" fill="#FBB540"/>
<path d="M6.03492 39.6552H28.4487C28.9248 39.6552 29.3108 40.0411 29.3108 40.5172V43.1034H5.17285V40.5172C5.17285 40.0411 5.55881 39.6552 6.03492 39.6552Z" fill="#C17450"/>
<path d="M15.5173 43.1035H18.9656L19.8277 50H14.6553L15.5173 43.1035Z" fill="#EA9D2D"/>
<path d="M6.89648 50L8.62062 43.1035H12.0689L10.3448 50H6.89648Z" fill="#EA9D2D"/>
<path d="M17.2417 0C18.1939 0 18.9659 0.771923 18.9659 1.72414V39.6552H15.5176V1.72414C15.5176 0.771923 16.2895 0 17.2417 0Z" fill="#8F563B"/>
<path d="M8.62113 19.8276C8.07839 21.4556 6.80087 22.7331 5.17285 23.2759C6.80087 23.8186 8.07839 25.0961 8.62113 26.7241C9.16387 25.0961 10.4414 23.8186 12.0694 23.2759C10.4414 22.7331 9.16387 21.4556 8.62113 19.8276Z" fill="#FBB540"/>
<path d="M46.5518 9.48279C46.0091 11.1108 44.7315 12.3883 43.1035 12.9311C44.7315 13.4738 46.0091 14.7513 46.5518 16.3793C47.0945 14.7513 48.372 13.4738 50.0001 12.9311C48.372 12.3883 47.0945 11.1108 46.5518 9.48279Z" fill="#FBB540"/>
<path d="M3.44828 30.1724C2.90554 31.8004 1.62802 33.078 0 33.6207C1.62802 34.1634 2.90554 35.441 3.44828 37.069C3.99101 35.441 5.26853 34.1634 6.89655 33.6207C5.26853 33.078 3.99101 31.8004 3.44828 30.1724Z" fill="#FBB540"/>
<path d="M22.4141 43.1035H25.8623L27.5865 50H24.1382L22.4141 43.1035Z" fill="#EA9D2D"/>
</g>
<defs>
<clipPath id="clip0_142_59083">
<rect width="50" height="50" fill="white"/>
</clipPath>
</defs>
</svg>
