<svg width="30" height="30" viewBox="0 0 30 30" fill="none" xmlns="http://www.w3.org/2000/svg">
<path d="M15 13.7393L0 15.4408V19.3895L15 21.4834L30 19.3895V15.4408L15 13.7393Z" fill="#EF4644"/>
<path opacity="0.1" d="M2.41447 19.3895V15.4408L16.2073 13.8762L15 13.7393L0 15.4408V19.3895L15 21.4834L16.2073 21.3148L2.41447 19.3895Z" fill="black"/>
<path d="M17.2441 2.93094C16.8821 2.90867 16.5314 3.03816 16.255 3.27306C15.9402 3.54066 15.4945 3.70765 15 3.70765C14.5055 3.70765 14.0598 3.5406 13.745 3.27306C13.4687 3.03822 13.1179 2.90867 12.7559 2.93094C7.91966 3.22871 4.29224 4.46908 4.29224 5.95426V12.3789C4.29224 13.1302 4.9012 13.7392 5.65249 13.7392H24.3476C25.0989 13.7392 25.7078 13.1302 25.7078 12.3789V5.95426C25.7078 4.46914 22.0804 3.22871 17.2441 2.93094Z" fill="#794E3F"/>
<path d="M5.32865 2.33081H3.95374C3.6497 2.33081 3.4032 2.57731 3.4032 2.88136V14.2327H5.87925V2.88142C5.87925 2.57731 5.63269 2.33081 5.32865 2.33081Z" fill="#5D3A30"/>
<path d="M26.0463 2.33081H24.6714C24.3674 2.33081 24.1208 2.57731 24.1208 2.88136V14.2327H26.5969V2.88142C26.5968 2.57731 26.3504 2.33081 26.0463 2.33081Z" fill="#5D3A30"/>
<path d="M3.8795 20.9529H1.40344V27.6694H3.8795V20.9529Z" fill="#5D3A30"/>
<path d="M28.5965 20.9529H26.1205V27.6694H28.5965V20.9529Z" fill="#5D3A30"/>
<path d="M13.859 8.70979C13.7068 8.20026 13.2805 7.82151 12.7581 7.72202C11.9283 7.56399 10.794 7.46655 9.54311 7.46655C8.29225 7.46655 7.15793 7.56394 6.32813 7.72202C5.80576 7.82151 5.37949 8.20026 5.22727 8.70979C5.0509 9.30019 4.93571 10.183 5.26032 11.2426C5.41612 11.7511 5.83864 12.1336 6.36147 12.2312C7.18823 12.3855 8.30901 12.4804 9.54311 12.4804C10.7773 12.4804 11.898 12.3856 12.7247 12.2312C13.2475 12.1335 13.6702 11.7511 13.8259 11.2426C14.1506 10.1829 14.0354 9.30019 13.859 8.70979Z" fill="#F2F2F2"/>
<path opacity="0.1" d="M8.17237 12.2311C7.64959 12.1335 7.22696 11.751 7.07115 11.2425C6.74655 10.1829 6.86174 9.30019 7.03811 8.70979C7.19028 8.20032 7.6166 7.82151 8.13897 7.72202C8.76317 7.60313 9.55975 7.51858 10.4486 7.48401C10.1558 7.47259 9.85307 7.46655 9.54311 7.46655C8.29231 7.46655 7.15793 7.56399 6.32813 7.72202C5.80582 7.82151 5.37949 8.20026 5.22727 8.70979C5.0509 9.30019 4.93571 10.183 5.26032 11.2425C5.41612 11.751 5.83864 12.1335 6.36153 12.2311C7.18828 12.3854 8.30906 12.4802 9.54322 12.4802C9.85313 12.4802 10.1559 12.4743 10.4487 12.4628C9.57557 12.4289 8.79153 12.3467 8.17237 12.2311Z" fill="black"/>
<path d="M16.141 8.70979C16.2932 8.20026 16.7195 7.82151 17.2419 7.72202C18.0717 7.56399 19.206 7.46655 20.4569 7.46655C21.7077 7.46655 22.8421 7.56394 23.6719 7.72202C24.1943 7.82151 24.6205 8.20026 24.7727 8.70979C24.9491 9.30019 25.0643 10.183 24.7397 11.2426C24.5839 11.7511 24.1614 12.1336 23.6385 12.2312C22.8118 12.3855 21.691 12.4804 20.4568 12.4804C19.2227 12.4804 18.102 12.3856 17.2752 12.2312C16.7524 12.1335 16.3298 11.7511 16.1741 11.2426C15.8494 10.1829 15.9646 9.30019 16.141 8.70979Z" fill="#F2F2F2"/>
<path opacity="0.1" d="M19.0861 12.2311C18.5633 12.1335 18.1407 11.751 17.9849 11.2425C17.6603 10.1829 17.7755 9.30019 17.9519 8.70979C18.104 8.20026 18.5304 7.82151 19.0527 7.72202C19.6769 7.60313 20.4735 7.51858 21.3623 7.48401C21.0696 7.47259 20.7668 7.46655 20.4569 7.46655C19.2061 7.46655 18.0717 7.56399 17.2418 7.72202C16.7195 7.82151 16.2932 8.20026 16.141 8.70979C15.9646 9.30019 15.8494 10.183 16.174 11.2425C16.3298 11.751 16.7523 12.1335 17.2752 12.2311C18.102 12.3854 19.2228 12.4802 20.4569 12.4802C20.7668 12.4802 21.0695 12.4743 21.3623 12.4628C20.4893 12.4289 19.7053 12.3467 19.0861 12.2311Z" fill="black"/>
<path d="M26.5968 12.0376H3.40318C1.52367 12.0376 0 13.5612 0 15.4407H30C30 13.5612 28.4763 12.0376 26.5968 12.0376Z" fill="#D9D9D9"/>
<path opacity="0.1" d="M5.81766 12.0376H3.40318C1.52367 12.0376 0 13.5612 0 15.4407H2.41447C2.41447 13.5612 3.93814 12.0376 5.81766 12.0376Z" fill="black"/>
<path d="M30 19.3894H0V23.5773H30V19.3894Z" fill="#794E3F"/>
<path opacity="0.1" d="M2.41447 19.3894H0V23.5773H2.41447V19.3894Z" fill="black"/>
</svg>
