<svg height="512" viewBox="0 0 58 58" width="512" xmlns="http://www.w3.org/2000/svg"><g id="Page-1" fill="none" fill-rule="evenodd"><g id="047---Bed" fill-rule="nonzero"><path id="Shape" d="m7 36v-33c0-1.65685425 1.34314575-3 3-3h38c1.6568542 0 3 1.34314575 3 3v33z" fill="#ca8152"/><path id="Shape" d="m1 52h8v5c0 .5522847-.44771525 1-1 1h-6c-.55228475 0-1-.4477153-1-1z" fill="#805333"/><path id="Shape" d="m49 52h8v5c0 .5522847-.4477153 1-1 1h-6c-.5522847 0-1-.4477153-1-1z" fill="#805333"/><path id="Shape" d="m58 48-29-4-29 4v5c0 .5522847.44771525 1 1 1h56c.5522847 0 1-.4477153 1-1z" fill="#a46a43"/><path id="Shape" d="m48.09 31h-38.18l3.51-6.01c.3616405-.6120838 1.0190657-.9882982 1.73-.99h27.7c.7109343.0017018 1.3683595.3779162 1.73.99z" fill="#ebeff0"/><path id="Shape" d="m58 48h-58l9.91-17h38.18z" fill="#efc319"/><rect id="Rectangle-path" fill="#efc319" height="9" rx="2" width="10" x="16" y="18"/><rect id="Rectangle-path" fill="#efc319" height="9" rx="2" width="10" x="31" y="18"/><g fill="#a46a43"><path id="Shape" d="m13.707 3.293c-.3904999-.39038194-1.0235001-.39038194-1.414 0l-.293.293-.293-.293c-.3923789-.37897221-1.0160848-.37355237-1.4018186.01218142-.38573377.3857338-.39115361 1.00943969-.0121814 1.40181858l.293.293-.293.293c-.2599566.25107447-.3642126.62287789-.2726972.97250732.0915155.34962944.3645604.6226744.7141899.71418984.3496294.09151544.7214328-.01274058.9725073-.27269716l.293-.293.293.293c.3923789.37897221 1.0160848.37355237 1.4018186-.01218142.3857338-.3857338.3911536-1.00943969.0121814-1.40181858l-.293-.293.293-.293c.3903819-.39049985.3903819-1.02350015 0-1.414z"/><path id="Shape" d="m47.414 5 .293-.293c.2599566-.25107447.3642126-.62287789.2726972-.97250732-.0915155-.34962944-.3645604-.6226744-.7141899-.71418984-.3496294-.09151544-.7214328.01274058-.9725073.27269716l-.293.293-.293-.293c-.3923789-.37897221-1.0160848-.37355237-1.4018186.01218142-.3857338.3857338-.3911536 1.00943969-.0121814 1.40181858l.293.293-.293.293c-.2599566.25107447-.3642126.62287789-.2726972.97250732.0915155.34962944.3645604.6226744.7141899.71418984.3496294.09151544.7214328-.01274058.9725073-.27269716l.293-.293.293.293c.3923789.37897221 1.0160848.37355237 1.4018186-.01218142.3857338-.3857338.3911536-1.00943969.0121814-1.40181858z"/><path id="Shape" d="m36 3h-14c-.5522847 0-1 .44771525-1 1s.4477153 1 1 1h14c.5522847 0 1-.44771525 1-1s-.4477153-1-1-1z"/></g><path id="Shape" d="m48 45h-38c-.55228475 0-1-.4477153-1-1s.44771525-1 1-1h38c.5522847 0 1 .4477153 1 1s-.4477153 1-1 1z" fill="#f2d45b"/></g></g></svg>