<svg width="30" height="30" viewBox="0 0 30 30" fill="none" xmlns="http://www.w3.org/2000/svg">
<path d="M14.062 0.471436H15.9463V2.81511H14.062V0.471436Z" fill="#CCD1D9"/>
<path d="M15.9463 2.81519H16.4057L15.7026 4.69013H14.2964L13.5933 2.81519H15.9463Z" fill="#E6E9ED"/>
<path d="M19.6915 9.84616V10.3149H10.3123V9.84616C10.3123 9.33051 10.7336 8.90869 11.2497 8.90869H18.7495C19.2693 8.90869 19.6915 9.33051 19.6915 9.84616Z" fill="#E6E9ED"/>
<path d="M16.4056 2.81519L17.3525 8.90875H12.6558L13.5932 2.81519L14.2963 4.69013H15.7025L16.4056 2.81519Z" fill="#CCD1D9"/>
<path d="M14.9996 29.5284H8.90601V23.3129C10.6123 24.5644 12.7168 25.305 14.9996 25.305C17.2824 25.305 19.3917 24.5644 21.0977 23.3079V29.5284H14.9996Z" fill="#E6E9ED"/>
<path d="M19.6902 24.1765V29.5285H21.0978V23.3083C20.6544 23.6345 20.1839 23.9238 19.6902 24.1765Z" fill="#CCD1D9"/>
<path d="M4.69189 11.2613C4.69189 10.7457 5.10913 10.3193 5.62937 10.3145H5.63875H24.3747H24.384C24.9043 10.3193 25.3215 10.7457 25.3215 11.2613V12.1942H4.69235V11.2613H4.69189Z" fill="#656D78"/>
<path d="M24.3837 10.3149C24.3788 10.3149 24.3788 10.3149 24.3743 10.3149H22.9761C23.4963 10.3197 23.9135 10.7461 23.9135 11.2618V12.1947H25.3211V11.2618C25.3211 10.7461 24.9039 10.3197 24.3837 10.3149Z" fill="#545C66"/>
<path d="M8.90587 23.3131C6.35598 21.4429 4.69664 18.4238 4.68726 15.0166H4.69183V12.1943H25.321V14.993H25.3116C25.3116 18.4051 23.6523 21.4331 21.0976 23.308C19.3915 24.5646 17.2822 25.3052 14.9994 25.3052C12.7166 25.3052 10.6121 24.5646 8.90587 23.3131Z" fill="#F5F7FA"/>
<path d="M23.9134 12.1946V14.9933H23.9041C23.9041 18.4053 22.2447 21.4333 19.69 23.3083C18.1611 24.4341 16.3072 25.1411 14.2959 25.2768C14.5289 25.2924 14.7623 25.3054 14.9995 25.3054C17.2823 25.3054 19.3916 24.565 21.0976 23.3083C23.6523 21.4333 25.3116 18.4053 25.3116 14.9933H25.321V12.1946H23.9134Z" fill="#E6E9ED"/>
<path d="M15.0005 29.9999C14.7414 29.9999 14.5317 29.7905 14.5317 29.5312V27.1875C14.5317 26.9284 14.7414 26.7188 15.0005 26.7188C15.2598 26.7188 15.4692 26.9284 15.4692 27.1875V29.5312C15.4692 29.7905 15.2598 29.9999 15.0005 29.9999Z" fill="#F5F7FA"/>
<path d="M16.6437 0.937471H13.3552C13.0959 0.937471 12.8865 0.72805 12.8865 0.468735C12.8865 0.20942 13.0959 0 13.3552 0H16.6437C16.903 0 17.1124 0.20942 17.1124 0.468735C17.1124 0.72805 16.903 0.937471 16.6437 0.937471Z" fill="#656D78"/>
<path d="M25.3117 29.9919H4.68822C4.42913 29.9919 4.21948 29.7825 4.21948 29.5232C4.21948 29.2641 4.42913 29.0544 4.68822 29.0544H25.3117C25.5707 29.0544 25.7804 29.2641 25.7804 29.5232C25.7804 29.7825 25.5707 29.9919 25.3117 29.9919Z" fill="#656D78"/>
</svg>
