<svg width="47" height="35" viewBox="0 0 47 35" fill="none" xmlns="http://www.w3.org/2000/svg">
<g clip-path="url(#clip0_123_21985)">
<path d="M42.0945 27.8378H1.82356C1.02918 27.8378 0.385246 27.1913 0.385246 26.3939V1.8488C0.385246 1.05134 1.02918 0.404907 1.82356 0.404907H42.0947C42.889 0.404907 43.533 1.05134 43.533 1.8488V26.3939C43.5328 27.1913 42.8888 27.8378 42.0945 27.8378Z" fill="#2457C6"/>
<path d="M11.7494 9.85008L13.2623 12.9272C13.4501 13.3093 13.8132 13.574 14.2331 13.6353L17.6158 14.1288C18.6733 14.2831 19.0957 15.5878 18.3304 16.3365L15.8823 18.7318C15.5784 19.0292 15.4397 19.4575 15.5115 19.8775L16.0894 23.2595C16.2701 24.3169 15.1644 25.1232 14.2187 24.624L11.1931 23.0271C10.8175 22.8289 10.3687 22.8289 9.99309 23.0271L6.96756 24.624C6.02159 25.1232 4.91612 24.3169 5.0968 23.2595L5.67467 19.8775C5.74633 19.4577 5.60783 19.0292 5.30387 18.7318L2.85621 16.3365C2.09092 15.5876 2.51315 14.2829 3.57084 14.1288L6.9535 13.6353C7.37341 13.574 7.73651 13.3093 7.92432 12.9272L9.43718 9.85008C9.90987 8.88807 11.2763 8.88807 11.7494 9.85008Z" fill="#FFEA92"/>
<path d="M39.6932 7.54145H3.4285C2.89666 7.54145 2.46538 7.1085 2.46538 6.5746V3.89855C2.46538 3.36466 2.89666 2.9317 3.4285 2.9317H39.6932C40.2251 2.9317 40.6563 3.36466 40.6563 3.89855V6.5746C40.6563 7.1085 40.2251 7.54145 39.6932 7.54145Z" fill="#E0EBFC"/>
<path d="M39.308 14.7671H21.8627C21.118 14.7671 20.5143 14.1611 20.5143 13.4135C20.5143 12.6659 21.118 12.0599 21.8627 12.0599H39.308C40.0527 12.0599 40.6563 12.6659 40.6563 13.4135C40.6563 14.1611 40.0527 14.7671 39.308 14.7671Z" fill="#E0EBFC"/>
<path d="M39.308 19.8204H21.8627C21.118 19.8204 20.5143 19.2144 20.5143 18.4668C20.5143 17.7193 21.118 17.1133 21.8627 17.1133H39.308C40.0527 17.1133 40.6563 17.7193 40.6563 18.4668C40.6563 19.2144 40.0527 19.8204 39.308 19.8204Z" fill="#E0EBFC"/>
<path d="M42.0945 28.2245H1.82356C0.81807 28.2245 0 27.4033 0 26.3939V1.84901C0 0.839615 0.81807 0.0183716 1.82356 0.0183716H42.0945C43.1 0.0183716 43.918 0.839615 43.918 1.84901V26.3941C43.918 27.4035 43.1 28.2245 42.0945 28.2245ZM1.82356 0.791852C1.243 0.791852 0.770492 1.26619 0.770492 1.84901V26.3941C0.770492 26.9769 1.243 27.4512 1.82356 27.4512H42.0945C42.675 27.4512 43.1475 26.9769 43.1475 26.3941V1.84901C43.1475 1.26619 42.675 0.791852 42.0945 0.791852H1.82356Z" fill="#1C47A6"/>
<path d="M39.8119 34.5951C43.569 34.5951 46.6148 31.5375 46.6148 27.7658C46.6148 23.9941 43.569 20.9366 39.8119 20.9366C36.0548 20.9366 33.009 23.9941 33.009 27.7658C33.009 31.5375 36.0548 34.5951 39.8119 34.5951Z" fill="#FFEA92"/>
<path d="M39.8119 32.7163C42.5354 32.7163 44.7432 30.4999 44.7432 27.7658C44.7432 25.0318 42.5354 22.8154 39.8119 22.8154C37.0884 22.8154 34.8806 25.0318 34.8806 27.7658C34.8806 30.4999 37.0884 32.7163 39.8119 32.7163Z" fill="#59B78B"/>
<path d="M39.8119 34.9816C35.8485 34.9816 32.624 31.7446 32.624 27.7658C32.624 23.7869 35.8485 20.5498 39.8119 20.5498C43.7755 20.5498 47 23.7869 47 27.7658C47 31.7446 43.7755 34.9816 39.8119 34.9816ZM39.8119 21.3233C36.2732 21.3233 33.3945 24.2134 33.3945 27.7658C33.3945 31.3182 36.2734 34.2081 39.8119 34.2081C43.3506 34.2081 46.2295 31.318 46.2295 27.7658C46.2295 24.2134 43.3506 21.3233 39.8119 21.3233Z" fill="#3762CC"/>
</g>
<defs>
<clipPath id="clip0_123_21985">
<rect width="47" height="35" fill="white"/>
</clipPath>
</defs>
</svg>
