<svg width="52" height="50" viewBox="0 0 52 50" fill="none" xmlns="http://www.w3.org/2000/svg">
<g clip-path="url(#clip0_44_1066)">
<path d="M37.3684 31.0526H14.7368V50H37.3684V31.0526Z" fill="#4398D1"/>
<path d="M37.3684 31.0526H14.7368V50H37.3684V31.0526Z" fill="#346AE5"/>
<path d="M14.8944 31.1262H1.11987V49.9665H14.8944V31.1262Z" fill="#346AE5"/>
<path d="M51.0526 31.1262H37.2781V49.9665H51.0526V31.1262Z" fill="#346AE5"/>
<path d="M34.2106 37.8947H18.4211V46.3158H34.2106V37.8947Z" fill="#87CED9"/>
<path d="M28.5222 33.7617H26.7767V35.4852H28.5222V33.7617Z" fill="#1C4878"/>
<path d="M25.0313 33.7617H23.2858V35.4852H25.0313V33.7617Z" fill="#1C4878"/>
<path d="M21.5403 33.7617H19.7948V35.4852H21.5403V33.7617Z" fill="#1C4878"/>
<path d="M32.0132 33.7617H30.2677V35.4852H32.0132V33.7617Z" fill="#1C4878"/>
<path d="M14.5583 37.2087H0.594482V38.9323H14.5583V37.2087Z" fill="#1C4878"/>
<path d="M9.41824 33.2372H5.86584V35.0018H9.41824V33.2372Z" fill="#DEDEDE"/>
<path d="M9.41824 40.2957H5.86584V42.0604H9.41824V40.2957Z" fill="#DEDEDE"/>
<path d="M51.0526 36.8915H36.8577V38.6348H51.0526V36.8915Z" fill="#1C4878"/>
<path d="M44.8423 37.7631H43.0679V49.966H44.8423V37.7631Z" fill="#1C4878"/>
<path d="M45.8978 33.7598H42.5379V35.4425H45.8978V33.7598Z" fill="#DEDEDE"/>
<path d="M41.698 42.1733H40.018V44.6974H41.698V42.1733Z" fill="#DEDEDE"/>
<path d="M48.4177 42.1733H46.7378V44.6974H48.4177V42.1733Z" fill="#DEDEDE"/>
<path d="M32.8948 10.2632V0H19.2105V10.2632L15.7895 13.6842H36.3158L32.8948 10.2632Z" fill="#E5E5E5"/>
<path d="M49.9347 31.0271H48.2621V21.4391C48.2621 20.476 47.5136 19.6958 46.5896 19.6958C45.6655 19.6958 44.917 20.476 44.917 21.4391V22.3108H43.2444V21.4391C43.2444 19.5136 44.7422 17.9526 46.5896 17.9526C48.4369 17.9526 49.9347 19.5136 49.9347 21.4391V31.0271Z" fill="#87CED9"/>
<path d="M49.0984 26.6689H46.5895V28.4122H49.0984V26.6689Z" fill="#87CED9"/>
<path d="M24.7368 25.7895H16.3158V31.0526H24.7368V25.7895Z" fill="#DE4C3C"/>
<path d="M16.4128 26.8837H13.7702V28.9137H16.4128V26.8837Z" fill="#1C4878"/>
<path d="M27.8638 26.8837H25.2213V28.9137H27.8638V26.8837Z" fill="#1C4878"/>
<path d="M16.3158 30.6156V31.0526H24.7368V25.7895C22.5052 28.6976 18.7917 30.0267 16.3158 30.6156Z" fill="#C94536"/>
<path d="M14.7368 0H0.526306V10.5263H14.7368V0Z" fill="#346AE5"/>
<path d="M12.1053 4.21051H10.5263V7.89472H12.1053V4.21051Z" fill="#E5E5E5"/>
<path d="M51.0526 0H36.8421V10.5263H51.0526V0Z" fill="#346AE5"/>
<path d="M41.5789 4.21051H40V7.89472H41.5789V4.21051Z" fill="#E5E5E5"/>
<path d="M15.7895 16.8421H0V18.421H15.7895V16.8421Z" fill="#DEDEDE"/>
<path d="M3.28946 22.6267V14.7368H1.44736V22.6267C0.880908 22.9286 0.530021 23.4854 0.526306 24.089C0.526306 25.0285 1.35067 25.7894 2.36841 25.7894C3.38615 25.7894 4.21052 25.0285 4.21052 24.089C4.2068 23.4854 3.85591 22.9286 3.28946 22.6267Z" fill="#346AE5"/>
<path d="M6.97367 22.6267V14.7368H5.13156V22.6267C4.56511 22.9286 4.21423 23.4854 4.21051 24.089C4.21051 25.0285 5.03487 25.7894 6.05262 25.7894C7.07036 25.7894 7.89472 25.0285 7.89472 24.089C7.89101 23.4854 7.54012 22.9286 6.97367 22.6267Z" fill="#87CED9"/>
<path d="M10.6579 22.6267V14.7368H8.81577V22.6267C8.24932 22.9286 7.89843 23.4854 7.89471 24.089C7.89471 25.0285 8.71908 25.7894 9.73682 25.7894C10.7546 25.7894 11.5789 25.0285 11.5789 24.089C11.5752 23.4854 11.2243 22.9286 10.6579 22.6267Z" fill="#346AE5"/>
<path d="M15.4904 31.1262H13.7682V49.9665H15.4904V31.1262Z" fill="#1C4878"/>
<path d="M37.8779 31.1262H36.1558V49.9665H37.8779V31.1262Z" fill="#1C4878"/>
<path d="M18.4211 43.4779V46.3158H34.2106V37.8947H27.193L18.4211 43.4779Z" fill="#6CBAC7"/>
<path d="M32.8874 10.3171V2.63159L19.4737 13.6842H36.3158L32.8874 10.3171Z" fill="#DEDEDE"/>
</g>
<defs>
<clipPath id="clip0_44_1066">
<rect width="51.0526" height="50" fill="white"/>
</clipPath>
</defs>
</svg>
