<svg width="30" height="30" viewBox="0 0 30 30" fill="none" xmlns="http://www.w3.org/2000/svg">
<g clip-path="url(#clip0_138_46472)">
<path d="M29.5812 16.2926C29.5372 15.402 29.2062 14.5488 28.6625 13.841C27.4362 12.2444 27.1971 10.9768 27.1971 10.9768C26.2343 8.45399 25.3784 6.77299 24.7493 5.70611C24.0874 4.58575 22.9426 3.83109 21.6517 3.66516C19.0557 3.32955 10.9424 3.32955 8.34641 3.66516C7.05637 3.83205 5.91166 4.58672 5.24975 5.70611C4.62065 6.77299 3.76569 8.45399 2.80189 10.9768C2.80189 10.9768 2.56284 12.2444 1.33656 13.841C0.793747 14.5488 0.461826 15.402 0.418743 16.2926C0.325928 18.2248 0.885655 18.6495 1.38629 23.0221C1.42568 23.3662 1.71627 23.6249 2.06318 23.6249H27.9378C28.2847 23.6249 28.5753 23.3652 28.6147 23.0221C28.7553 21.7958 29.1726 19.3086 29.1726 19.3086C29.5381 18.072 29.6178 17.0642 29.5812 16.2926Z" fill="#E95353"/>
<path d="M26.6524 10.8756C25.893 8.97523 25.1186 7.3158 24.348 5.99296C23.7639 4.9926 22.7336 4.2942 21.5936 4.14138C18.992 3.79634 10.9903 3.79918 8.40735 4.14138C7.26735 4.2942 6.23697 4.99266 5.65289 5.99296C4.87194 7.33266 4.08725 9.01456 3.33911 10.8756C11.098 11.4859 18.8926 11.4859 26.6524 10.8756Z" fill="#168DE2"/>
<path d="M25.5509 13.0732C25.2546 13.166 24.979 13.2963 24.7483 13.4257C24.3283 13.6601 23.8971 13.8785 23.4471 14.0492C22.7008 14.3323 22.5742 14.7551 22.5742 14.7551C22.5517 14.7842 22.5302 14.8133 22.5095 14.8432C21.9432 15.6842 22.6867 16.8036 23.6908 16.6611C25.143 16.4558 26.3392 16.0348 26.9468 15.7911C27.2946 15.6514 27.5664 15.3608 27.6555 14.9961C27.664 14.9614 27.6715 14.9267 27.678 14.8929C27.9012 13.6892 26.7199 12.7085 25.5509 13.0732Z" fill="white"/>
<path d="M27.1024 19.8112H25.4871C25.2443 19.8112 25.1224 20.1046 25.294 20.2771L26.9093 21.8925C27.0809 22.064 27.3753 21.9421 27.3753 21.6994V20.084C27.3752 19.933 27.2533 19.8112 27.1024 19.8112Z" fill="#FFE21F"/>
<path d="M28.6146 23.0202C28.5752 23.3653 28.2836 23.6249 27.9368 23.6249H24.8289V25.4287C24.8289 26.0671 25.3463 26.5856 25.9858 26.5856H27.9377C28.5762 26.5856 29.0946 26.0681 29.0946 25.4287V19.782C28.9662 20.5639 28.7168 22.1268 28.6146 23.0202Z" fill="#454545"/>
<path d="M29.9778 9.61283C29.884 9.19281 29.4893 8.90784 29.059 8.90784H28.279C27.7792 8.90784 27.3743 9.31287 27.3743 9.81254V10.3685H26.9608L27.198 10.9319H28.1074C28.5781 10.9319 29.044 10.8307 29.4715 10.6348C29.8568 10.4585 30.0725 10.0366 29.9778 9.61283Z" fill="#ED6262"/>
<path d="M26.0626 15.6673C26.6907 15.6673 27.1999 15.1581 27.1999 14.53C27.1999 13.902 26.6907 13.3928 26.0626 13.3928C25.4346 13.3928 24.9254 13.902 24.9254 14.53C24.9254 15.1581 25.4346 15.6673 26.0626 15.6673Z" fill="#FFBD49"/>
<path d="M23.7752 16.2626C24.2365 16.2626 24.6105 15.8886 24.6105 15.4273C24.6105 14.9659 24.2365 14.5919 23.7752 14.5919C23.3138 14.5919 22.9398 14.9659 22.9398 15.4273C22.9398 15.8886 23.3138 16.2626 23.7752 16.2626Z" fill="#FFDB6F"/>
<path d="M21.6105 15.4282L20.3045 17.7026H9.69552L8.38953 15.4282H21.6105Z" fill="#6F6F6F"/>
<path d="M7.48947 14.8432C7.46978 14.8132 7.4482 14.7841 7.42476 14.7551C7.42476 14.7551 7.29817 14.3323 6.5519 14.0491C6.10191 13.8785 5.67155 13.66 5.25063 13.4256C5.01907 13.2963 4.74438 13.1659 4.44811 13.0731C3.27995 12.7075 2.09777 13.689 2.31996 14.8928C2.32655 14.9275 2.33404 14.9613 2.34153 14.996C2.4306 15.3607 2.70246 15.6513 3.05027 15.791C3.65779 16.0348 4.85405 16.4557 6.30724 16.661C7.31224 16.8035 8.05573 15.6841 7.48947 14.8432Z" fill="white"/>
<path d="M4.51283 19.8112H2.89746C2.74651 19.8112 2.62463 19.933 2.62463 20.084V21.6994C2.62463 21.9421 2.91903 22.064 3.09058 21.8925L4.70595 20.2771C4.8775 20.1056 4.75562 19.8112 4.51283 19.8112Z" fill="#FFE21F"/>
<path d="M25.7552 22.6302C24.0733 19.7202 22.1391 19.8111 22.1391 19.8111H7.85979C7.85979 19.8111 5.92664 19.7202 4.24377 22.6302H1.33655L1.3722 23.0052C1.40501 23.3578 1.69941 23.625 2.05187 23.625H27.9481C28.3006 23.625 28.595 23.3578 28.6278 23.0053L28.6635 22.6303L25.7552 22.6302Z" fill="#777777"/>
<path d="M2.0631 23.6259C1.71619 23.6259 1.42464 23.3653 1.3853 23.0213C1.28312 22.1278 1.03277 20.564 0.905273 19.7831V25.4298C0.905273 26.0682 1.42276 26.5867 2.06219 26.5867H4.01408C4.65254 26.5867 5.17099 26.0692 5.17099 25.4298V23.626H2.0631V23.6259Z" fill="#454545"/>
<path d="M2.62469 10.3685V9.81254C2.62469 9.31281 2.21965 8.90784 1.7209 8.90784H0.940917C0.510622 8.90784 0.115919 9.19287 0.0221373 9.61283C-0.0725504 10.0356 0.144017 10.4585 0.528387 10.6338C0.956809 10.8298 1.42185 10.931 1.89251 10.931H2.80192L3.03909 10.3675H2.62469V10.3685Z" fill="#ED6262"/>
<path d="M3.93629 15.6673C4.56436 15.6673 5.07351 15.1581 5.07351 14.53C5.07351 13.902 4.56436 13.3928 3.93629 13.3928C3.30822 13.3928 2.79907 13.902 2.79907 14.53C2.79907 15.1581 3.30822 15.6673 3.93629 15.6673Z" fill="#FFBD49"/>
<path d="M6.22571 16.2626C6.68705 16.2626 7.06104 15.8886 7.06104 15.4273C7.06104 14.9659 6.68705 14.5919 6.22571 14.5919C5.76437 14.5919 5.39038 14.9659 5.39038 15.4273C5.39038 15.8886 5.76437 16.2626 6.22571 16.2626Z" fill="#FFDB6F"/>
<path d="M21.0461 20.6071H8.95389C8.76451 20.6071 8.61169 20.7608 8.61169 20.9492C8.61169 21.1386 8.76451 21.2914 8.95389 21.2914H21.0451C21.2345 21.2914 21.3873 21.1377 21.3873 20.9492C21.3883 20.7599 21.2345 20.6071 21.0461 20.6071Z" fill="#6F6F6F"/>
<path d="M21.0461 21.973H8.95389C8.76451 21.973 8.61169 22.1267 8.61169 22.3152C8.61169 22.5046 8.76451 22.6574 8.95389 22.6574H21.0451C21.2345 22.6574 21.3873 22.5037 21.3873 22.3152C21.3883 22.1258 21.2345 21.973 21.0461 21.973Z" fill="#6F6F6F"/>
<path d="M25.3849 7.97684V8.094C25.3849 8.56557 24.9977 8.94341 24.5168 8.92372C24.0733 8.89562 23.7339 8.49904 23.7339 8.04621V6.36431C23.7339 5.96773 23.404 5.66584 23.0074 5.67617C22.998 5.67617 22.998 5.67617 22.9887 5.67617C22.9887 5.67617 22.9887 5.67617 22.9793 5.67617C22.5827 5.66681 22.2527 5.9687 22.2527 6.36431V7.8859C22.2527 8.35746 21.8468 8.73531 21.3752 8.70624C20.9317 8.68751 20.5924 8.28157 20.5924 7.8381V6.51525C20.5924 6.11867 20.2624 5.78869 19.8565 5.78869H19.8002C19.4224 5.78869 19.1111 6.09994 19.1111 6.47779V8.19812C19.1111 8.66968 18.7145 9.04656 18.2336 9.02783C17.7901 8.99973 17.4601 8.60316 17.4601 8.15032V5.84398C17.4601 5.47647 17.1395 5.16521 16.7617 5.19331H16.7054C16.3182 5.19331 16.0079 5.50456 16.0079 5.88241V8.2403C16.0079 8.69313 15.6404 9.07001 15.1782 9.07001C14.7347 9.07001 14.3672 8.71186 14.3579 8.26846V6.28938C14.3579 5.83654 14.0185 5.44093 13.575 5.41187C13.0941 5.39314 12.7069 5.77002 12.7069 6.24158L12.6975 8.06977C12.6975 8.54134 12.3113 8.91822 11.8294 8.89948C11.3944 8.87229 11.0644 8.4898 11.0512 8.05666V5.91147C11.0512 5.46613 10.7165 5.06768 10.2712 5.04146C9.794 5.02085 9.40021 5.39676 9.40021 5.8693V8.11654C9.38709 8.57687 9.00085 8.94341 8.52735 8.92468C8.08388 8.89658 7.7539 8.50001 7.7539 8.04717V6.36431C7.7539 5.96773 7.41454 5.66584 7.01797 5.67617C7.0086 5.67617 7.0086 5.67617 7.0086 5.67617C6.99923 5.67617 6.99923 5.67617 6.99923 5.67617C6.59329 5.66681 6.2633 5.9687 6.2633 6.36431V7.8859C6.2633 8.35746 5.86673 8.73531 5.39516 8.70624C4.98451 8.69029 4.67887 8.34719 4.62642 7.94965C4.19045 8.85247 3.75828 9.83029 3.33826 10.8747C11.0972 11.486 18.8927 11.486 26.6516 10.8747C26.2334 9.82751 25.8096 8.86184 25.3849 7.97684Z" fill="#3AA2EB"/>
</g>
<defs>
<clipPath id="clip0_138_46472">
<rect width="30" height="30" fill="white"/>
</clipPath>
</defs>
</svg>
