
<svg width="469px" height="433px" viewBox="0 0 469 433" version="1.1" xmlns="http://www.w3.org/2000/svg" xmlns:xlink="http://www.w3.org/1999/xlink">
    <g id="Page-1" stroke="none" stroke-width="1" fill="none" fill-rule="evenodd">
        <g id="car-boot" transform="translate(0.832000, 0.995000)" fill-rule="nonzero">
            <path d="M14.984,204.607 L14.984,310.728 L29.967,315.728 L438.202,315.728 L453.185,310.728 L453.185,204.607 C453.185,99.881 368.288,14.983 263.561,14.983 L204.607,14.983 C99.881,14.983 14.984,99.881 14.984,204.607 Z" id="Path" fill="#26457D"></path>
            <path d="M263.561,14.984 L204.607,14.984 C195.14,14.984 185.838,15.688 176.743,17.027 C268.258,30.505 338.503,109.348 338.503,204.608 L338.503,315.729 L438.201,315.729 L453.184,310.729 L453.184,204.607 C453.184,99.881 368.288,14.984 263.561,14.984 Z" id="Path" fill="#21386B"></path>
            <path d="M453.185,315.729 L438.202,315.729 L438.202,204.607 C438.202,108.156 360.013,29.966 263.562,29.966 L204.608,29.966 C108.156,29.966 29.967,108.155 29.967,204.607 L29.967,315.729 L14.983,315.729 C6.708,315.729 -2.84217094e-14,309.02 -2.84217094e-14,300.745 L-2.84217094e-14,204.607 C-2.84217094e-14,91.606 91.605,0 204.607,0 L263.561,0 C376.562,0 468.168,91.606 468.168,204.607 L468.168,300.745 C468.168,309.02 461.46,315.729 453.185,315.729 L453.185,315.729 Z" id="Path" fill="#DDDAEC"></path>
            <path d="M263.561,5.68434189e-14 L245.258,5.68434189e-14 C358.259,5.68434189e-14 449.865,91.605 449.865,204.607 L449.865,300.745 C449.865,307.877 444.877,313.834 438.202,315.346 L438.202,315.728 L453.185,315.728 C461.46,315.728 468.168,309.02 468.168,300.745 L468.168,204.607 C468.168,91.606 376.562,5.68434189e-14 263.561,5.68434189e-14 L263.561,5.68434189e-14 Z" id="Path" fill="#D0CEE7"></path>
            <circle id="Oval" fill="#3B66C1" cx="234.084" cy="267.926" r="163.294"></circle>
            <path d="M330.83,136.376 C350.778,163.455 362.574,196.909 362.574,233.122 C362.574,323.307 289.465,396.416 199.28,396.416 C163.067,396.416 129.613,384.62 102.534,364.672 C132.264,405.03 180.112,431.22 234.084,431.22 C324.269,431.22 397.378,358.111 397.378,267.926 C397.378,213.954 371.188,166.106 330.83,136.376 L330.83,136.376 Z" id="Path" fill="#30579D"></path>
            <circle id="Oval" fill="#F9F6F9" cx="234.084" cy="267.926" r="108.791"></circle>
            <path d="M286.914,172.825 C295.624,188.471 300.604,206.477 300.604,225.655 C300.604,285.739 251.897,334.446 191.813,334.446 C172.636,334.446 154.629,329.466 138.983,320.756 C157.562,354.129 193.177,376.717 234.084,376.717 C294.168,376.717 342.875,328.01 342.875,267.926 C342.875,227.02 320.287,191.404 286.914,172.825 Z" id="Path" fill="#DDDAEC"></path>
            <path d="M234.084,356.589 C185.194,356.589 145.42,316.815 145.42,267.926 C145.42,219.036 185.194,179.262 234.084,179.262 C282.973,179.262 322.747,219.036 322.747,267.926 C322.747,316.815 282.974,356.589 234.084,356.589 Z M234.084,194.245 C193.456,194.245 160.403,227.298 160.403,267.926 C160.403,308.553 193.456,341.606 234.084,341.606 C274.711,341.606 307.764,308.553 307.764,267.926 C307.764,227.298 274.712,194.245 234.084,194.245 Z" id="Shape" fill="#DDDAEC"></path>
            <path d="M299.127,207.739 C300.096,213.567 300.605,219.551 300.605,225.655 C300.605,228.935 300.451,232.178 300.167,235.384 C305.023,245.205 307.765,256.249 307.765,267.926 C307.765,308.553 274.712,341.606 234.085,341.606 C222.408,341.606 211.364,338.864 201.543,334.008 C198.337,334.292 195.094,334.446 191.814,334.446 C185.71,334.446 179.726,333.937 173.898,332.968 C189.719,347.619 210.872,356.589 234.085,356.589 C282.974,356.589 322.748,316.815 322.748,267.926 C322.748,244.714 313.778,223.561 299.127,207.739 L299.127,207.739 Z" id="Path" fill="#D0CEE7"></path>
        </g>
    </g>
</svg>