<svg width="50" height="50" viewBox="0 0 50 50" fill="none" xmlns="http://www.w3.org/2000/svg">
<path d="M40.625 42.9688V35.9375C41.6437 34.4094 42.1875 32.6133 42.1875 30.7766C42.1875 28.4953 41.9234 26.2219 41.4008 24.0016L39.6289 16.4711C39.2969 15.0602 38.0375 14.0625 36.5875 14.0625H35.5039C34.9625 13.132 33.9664 12.5 32.8125 12.5H17.1875C16.0336 12.5 15.0375 13.132 14.4961 14.0625H13.4125C11.9625 14.0625 10.7023 15.0602 10.3703 16.4719L8.59844 24.0023C8.07656 26.2227 7.8125 28.4961 7.8125 30.7766C7.8125 32.6133 8.35625 34.4086 9.375 35.9375V42.9688" fill="#2D4D83"/>
<path d="M35.9375 17.5781C35.9375 16.3289 35.757 15.1148 35.4273 13.9477C34.8727 13.0828 33.9172 12.5 32.8125 12.5H17.1875C16.0336 12.5 15.0375 13.132 14.4961 14.0625H13.4125C11.9625 14.0625 10.7023 15.0602 10.3703 16.4719L8.59844 24.0023C8.07656 26.2227 7.8125 28.4961 7.8125 30.7766C7.8125 31.1867 7.84375 31.5938 7.89687 31.9969C10.4695 33.0195 13.3555 33.5938 16.4062 33.5938C27.193 33.5938 35.9375 26.4234 35.9375 17.5781Z" fill="#4472B2"/>
<path d="M31.25 9.375H18.75C17.8867 9.375 17.1875 8.67578 17.1875 7.8125V3.125C17.1875 2.26172 17.8867 1.5625 18.75 1.5625H31.25C32.1133 1.5625 32.8125 2.26172 32.8125 3.125V7.8125C32.8125 8.67578 32.1133 9.375 31.25 9.375Z" fill="#4D5D7A"/>
<path d="M40.625 5.46875C42.782 5.46875 44.5312 7.21797 44.5312 9.375C44.5312 7.21797 46.2805 5.46875 48.4375 5.46875C46.2805 5.46875 44.5312 3.71953 44.5312 1.5625C44.5312 3.71953 42.782 5.46875 40.625 5.46875Z" fill="#8BD2F5"/>
<path d="M1.5625 12.5C3.71953 12.5 5.46875 14.2492 5.46875 16.4062C5.46875 14.2492 7.21797 12.5 9.375 12.5C7.21797 12.5 5.46875 10.7508 5.46875 8.59375C5.46875 10.7508 3.71953 12.5 1.5625 12.5Z" fill="#8BD2F5"/>
<path d="M18.75 40.625H17.1875V39.8438C17.1875 39.8008 17.1914 39.7578 17.1984 39.7156C17.7094 36.6492 17.9688 33.5164 17.9688 30.4039V14.8438H19.5312V30.4039C19.5312 33.5805 19.2687 36.7781 18.75 39.9078V40.625Z" fill="#4D5D7A"/>
<path d="M32.8125 40.625H31.25V39.9078C30.7313 36.7781 30.4688 33.5805 30.4688 30.4039V14.8438H32.0312V30.4039C32.0312 33.5164 32.2906 36.6492 32.8016 39.7156C32.8086 39.7578 32.8125 39.8008 32.8125 39.8438V40.625Z" fill="#4D5D7A"/>
<path d="M19.5312 9.375H21.0938V12.5H19.5312V9.375Z" fill="#2D4D83"/>
<path d="M28.9062 9.375H30.4688V12.5H28.9062V9.375Z" fill="#2D4D83"/>
<path d="M35.9375 46.875V41.4062C33.9094 39.8852 31.4422 39.0625 28.9062 39.0625H21.0938C18.5578 39.0625 16.0906 39.8852 14.0625 41.4062V46.875" fill="#3D98F7"/>
<path d="M31.25 45.3125H32.8125C34.5383 45.3125 35.9375 43.9133 35.9375 42.1875V40.625C35.9375 37.9883 38.1148 35.8602 40.7695 35.9399C43.3344 36.0164 45.3125 38.2547 45.3125 40.8219V42.8422C45.3125 43.4438 45.2156 44.0414 45.025 44.6117C44.2641 46.8961 42.1258 48.4375 39.7172 48.4375H10.2828C7.87422 48.4375 5.73594 46.8961 4.97422 44.6117C4.78438 44.0406 4.6875 43.4438 4.6875 42.8422V40.8219C4.6875 38.2555 6.66562 36.0172 9.23047 35.9399C11.8852 35.8602 14.0625 37.9883 14.0625 40.625V42.1875C14.0625 43.9133 15.4617 45.3125 17.1875 45.3125H18.75" fill="#4472B2"/>
</svg>
