<svg id="Layer_3" height="512" viewBox="0 0 64 64" width="512" xmlns="http://www.w3.org/2000/svg" data-name="Layer 3"><path d="m56.373 43a5.628 5.628 0 0 0 5.627-5.627 5.6 5.6 0 0 0 -.049-.744l-3.422-25.664a4.569 4.569 0 0 0 -4.529-3.965h-44a4.569 4.569 0 0 0 -4.529 3.965l-3.422 25.664a5.612 5.612 0 0 0 -.049.744 5.627 5.627 0 0 0 5.627 5.627z" fill="#4e97d0"/><path d="m58.529 10.965a4.569 4.569 0 0 0 -4.529-3.965h-44a4.579 4.579 0 0 0 -.807.074 4.543 4.543 0 0 0 -.722 1.891l-3.422 25.664a5.63 5.63 0 0 0 5.578 6.371h48.745a5.619 5.619 0 0 0 1.454-.2 5.612 5.612 0 0 0 1.125-4.175z" fill="#8cbde5"/><path d="m41 23 15 10v24h-48v-34z" fill="#296cb2"/><path d="m10 23a32 32 0 0 0 32 32h14v-22l-15-10z" fill="#4e97d0"/><path d="m41 23a27.968 27.968 0 0 1 2 10.385v2.615l1.485-.636a29.223 29.223 0 0 1 11.515-2.364" fill="#296cb2"/><g fill="#fff"><path d="m10.964 12.5h7.071v2h-7.071z" transform="matrix(.707 -.707 .707 .707 -5.299 14.207)"/><path d="m12.136 14.5h12.728v2h-12.728z" transform="matrix(.707 -.707 .707 .707 -5.542 17.621)"/><path d="m45.414 7h-2.828l-4.293 4.293 1.414 1.414z"/><path d="m53.414 7h-2.828l-11.293 11.293 1.414 1.414z"/></g></svg>