<svg width="50" height="50" viewBox="0 0 50 50" fill="none" xmlns="http://www.w3.org/2000/svg">
<path d="M23.2422 12.3438H21.0938V10.7813H20.193C18.7139 10.7811 17.2385 10.9274 15.7883 11.218C15.3021 11.3149 14.8645 11.5773 14.5499 11.9604C14.2353 12.3435 14.063 12.8238 14.0625 13.3195C14.0621 13.6017 14.1173 13.8812 14.225 14.1419C14.3328 14.4027 14.4908 14.6397 14.6902 14.8393C14.8897 15.039 15.1265 15.1973 15.3871 15.3053C15.6478 15.4133 15.9272 15.4689 16.2094 15.4687H21.3781L24.2867 14.6875L23.2422 12.3438Z" fill="#235743"/>
<path d="M22.091 14.6875L24.0527 14.1609L23.2426 12.3438H21.0941V10.7813H20.1934C18.7143 10.7811 17.2389 10.9274 15.7887 11.218C15.5185 11.2723 15.2615 11.3784 15.0316 11.5305C14.8552 11.857 14.7667 12.2239 14.7749 12.595C14.7831 12.9661 14.8877 13.3286 15.0784 13.6471C15.2691 13.9655 15.5394 14.2289 15.8627 14.4113C16.1859 14.5937 16.5511 14.6889 16.9223 14.6875H22.091Z" fill="#2F6D56"/>
<path d="M16.4062 39.425V46.7188C16.4062 47.1332 16.5709 47.5306 16.8639 47.8237C17.1569 48.1167 17.5543 48.2813 17.9688 48.2813H24.2188C24.6332 48.2813 25.0306 48.1167 25.3236 47.8237C25.6166 47.5306 25.7812 47.1332 25.7812 46.7188V42.9688" fill="#69737A"/>
<path d="M18.0371 45.4132C18.0371 45.8276 18.2017 46.2251 18.4948 46.5181C18.7878 46.8111 19.1852 46.9757 19.5996 46.9757H25.7559C25.7714 46.8909 25.7801 46.8049 25.7816 46.7187V42.9687L18.0371 40.0437V45.4132Z" fill="#43525B"/>
<path d="M49.2188 43.5938H36.1555C30.814 43.5921 25.4841 43.0952 20.2344 42.1094C18.9399 41.8671 17.7708 41.1802 16.9292 40.1674C16.0875 39.1545 15.6262 37.8794 15.625 36.5625V26.4062C15.6251 23.8804 16.499 21.4323 18.0984 19.4773L22.6562 13.9062L25.1492 7.25859C25.7938 5.53954 26.9477 4.05814 28.4566 3.01237C29.9656 1.9666 31.7578 1.40627 33.5938 1.40625H49.2188V43.5938Z" fill="#2F6D56"/>
<path d="M29.959 2.175C28.8901 3.13825 28.0679 4.34385 27.5613 5.69063L25.0684 12.3438L20.5105 17.9148C18.9111 19.8698 18.0372 22.3179 18.0371 24.8438V35C18.0372 36.3177 18.498 37.5939 19.3398 38.6077C20.1815 39.6215 21.3513 40.3092 22.6465 40.5516C27.8964 41.5358 33.2262 42.0311 38.5676 42.0312H49.2191V1.40625H33.5941C32.3421 1.4068 31.104 1.66863 29.959 2.175Z" fill="#377D63"/>
<path d="M30.4688 27.9688L30.4602 27.9031C30.2341 26.0932 29.4539 24.3976 28.2265 23.0484C26.999 21.6993 25.3844 20.7628 23.6039 20.3672C22.9739 20.2272 22.3305 20.1564 21.6852 20.1562H17.5898C16.3117 21.9899 15.6259 24.1711 15.625 26.4062L18.0688 26.8508C22.1602 27.5946 26.3103 27.9687 30.4688 27.9688Z" fill="#F9D161"/>
<path d="M18.0691 26.8477C22.1605 27.5925 26.3105 27.9677 30.4691 27.9688L30.4605 27.9031C30.2345 26.0932 29.4543 24.3976 28.2269 23.0484C26.9994 21.6993 25.3848 20.7628 23.6043 20.3672C22.9743 20.2272 22.3309 20.1564 21.6855 20.1562H19.098C18.4012 21.6208 18.0388 23.2219 18.0371 24.8438V26.8453L18.0691 26.8477Z" fill="#FBE47F"/>
<path d="M18.75 33.4375V37.3438C18.75 37.7664 18.912 38.1729 19.2026 38.4797C19.4933 38.7865 19.8905 38.9702 20.3125 38.993L32.0312 39.6875L30.4688 34.2188L18.75 33.4375Z" fill="#AAB1B7"/>
<path d="M20.3125 37.4273L31.5797 38.0953L30.4688 34.2188L18.75 33.4375V35.7812C18.7508 36.2033 18.9131 36.6091 19.2037 36.9152C19.4943 37.2213 19.891 37.4046 20.3125 37.4273Z" fill="#CACBCD"/>
<path d="M49.2188 21.7188H35.9375C35.3159 21.7188 34.7198 21.9657 34.2802 22.4052C33.8407 22.8448 33.5938 23.4409 33.5938 24.0625V24.8438C33.5938 25.8798 34.0053 26.8733 34.7379 27.6059C35.4704 28.3384 36.464 28.75 37.5 28.75H49.2188" fill="#43525B"/>
<path d="M34.4684 22.2468C34.4557 22.3297 34.4474 22.4131 34.4434 22.4968V23.2781C34.4434 24.3141 34.8549 25.3076 35.5875 26.0402C36.32 26.7728 37.3136 27.1843 38.3496 27.1843H49.2191V21.7156H35.9379C35.4014 21.7179 34.8823 21.9056 34.4684 22.2468Z" fill="#69737A"/>
<path d="M49.2188 34.2188H34.375C34.375 35.8764 35.0335 37.4661 36.2056 38.6382C37.3777 39.8103 38.9674 40.4688 40.625 40.4688H49.2188" fill="#AAB1B7"/>
<path d="M20.3125 25.6218C21.1754 25.6218 21.875 24.9223 21.875 24.0593C21.875 23.1964 21.1754 22.4968 20.3125 22.4968C19.4496 22.4968 18.75 23.1964 18.75 24.0593C18.75 24.9223 19.4496 25.6218 20.3125 25.6218Z" fill="#AAB1B7"/>
<path d="M25 26.4031C25.8629 26.4031 26.5625 25.7035 26.5625 24.8406C26.5625 23.9776 25.8629 23.2781 25 23.2781C24.1371 23.2781 23.4375 23.9776 23.4375 24.8406C23.4375 25.7035 24.1371 26.4031 25 26.4031Z" fill="#AAB1B7"/>
<path d="M40.6254 38.9062H49.2191V34.2188H34.5801C34.9262 35.5593 35.7077 36.747 36.8018 37.5954C37.896 38.4438 39.2409 38.9049 40.6254 38.9062Z" fill="#CACBCD"/>
<path d="M33.5938 1.40625C31.7582 1.40603 29.9663 1.96591 28.4573 3.01109C26.9484 4.05627 25.7943 5.537 25.1492 7.25547L22.6562 13.9062C28.8957 12.8664 35.2104 12.3438 41.5359 12.3438H49.2188V1.40625H33.5938Z" fill="#4E97D0"/>
<path d="M34.443 1.40625C32.6074 1.40603 30.8155 1.96591 29.3065 3.01109C27.7976 4.05627 26.6435 5.537 25.9984 7.25547L23.5586 13.7625C29.5046 12.8192 35.5156 12.3448 41.5359 12.3438H49.2188V1.40625H34.443Z" fill="#8CBDE5"/>
<path d="M49.2188 25.625V24.0625H47.6563V21.7188H46.0938V24.0625H44.5313V21.7188H42.9688V24.0625H41.4063V21.7188H39.8438V24.0625H38.2813V21.7188H36.7188V24.0625H33.5938V24.8438C33.5934 25.1061 33.6196 25.3679 33.6719 25.625H36.7188V28.6719C36.9759 28.7237 37.2376 28.7499 37.5 28.75H38.2813V25.625H39.8438V28.75H41.4063V25.625H42.9688V28.75H44.5313V25.625H46.0938V28.75H47.6563V25.625H49.2188Z" fill="#43525B"/>
<path d="M31.25 19.5312L31.3992 18.7836C31.5883 17.8386 32.0417 16.9667 32.7068 16.2693C33.3719 15.5718 34.2213 15.0775 35.1562 14.8438C34.2213 14.61 33.3719 14.1157 32.7068 13.4182C32.0417 12.7208 31.5883 11.8489 31.3992 10.9039L31.25 10.1562L31.1008 10.9039C30.9117 11.8489 30.4583 12.7208 29.7932 13.4182C29.1281 14.1157 28.2787 14.61 27.3438 14.8438C28.2787 15.0775 29.1281 15.5718 29.7932 16.2693C30.4583 16.9667 30.9117 17.8386 31.1008 18.7836L31.25 19.5312Z" fill="#F9D161"/>
<path d="M18.75 5.46875C19.2052 5.46887 19.6488 5.61232 20.0179 5.87876C20.387 6.1452 20.6628 6.5211 20.8063 6.95312L21.0938 7.8125L21.3812 6.95312C21.5247 6.5211 21.8005 6.1452 22.1696 5.87876C22.5387 5.61232 22.9823 5.46887 23.4375 5.46875C22.9823 5.46863 22.5387 5.32518 22.1696 5.05874C21.8005 4.7923 21.5247 4.4164 21.3812 3.98437L21.0938 3.125L20.8063 3.98437C20.6628 4.4164 20.387 4.7923 20.0179 5.05874C19.6488 5.32518 19.2052 5.46863 18.75 5.46875Z" fill="#F9D161"/>
<path d="M8.59375 28.9062V24.2188H5.46875V28.9062L2.78281 31.0555C2.40205 31.3599 2.09466 31.7462 1.88342 32.1856C1.67218 32.6249 1.5625 33.1062 1.5625 33.5938V46.0938C1.5625 46.7154 1.80943 47.3115 2.24897 47.751C2.68851 48.1906 3.28465 48.4375 3.90625 48.4375H10.1562C10.7779 48.4375 11.374 48.1906 11.8135 47.751C12.2531 47.3115 12.5 46.7154 12.5 46.0938V33.5938C12.5 33.1062 12.3903 32.6249 12.1791 32.1856C11.9678 31.7462 11.6604 31.3599 11.2797 31.0555L8.59375 28.9062Z" fill="#296CB2"/>
<path d="M12.5 46.0938V33.5938C12.5 33.1062 12.3903 32.6249 12.1791 32.1856C11.9678 31.7462 11.6604 31.3599 11.2797 31.0555L8.59375 28.9062V24.2188H7.03125V28.9062L4.34531 31.0555C3.96455 31.3599 3.65716 31.7462 3.44592 32.1856C3.23468 32.6249 3.125 33.1062 3.125 33.5938V46.0938C3.125 46.7154 3.37193 47.3115 3.81147 47.751C4.25101 48.1906 4.84715 48.4375 5.46875 48.4375H10.1562C10.7779 48.4375 11.374 48.1906 11.8135 47.751C12.2531 47.3115 12.5 46.7154 12.5 46.0938Z" fill="#4E97D0"/>
<path d="M1.5625 33.5938H12.5V45.3125H1.5625V33.5938Z" fill="#CACBCD"/>
<path d="M3.125 33.5938H12.5V45.3125H3.125V33.5938Z" fill="#E4E5E7"/>
<path d="M4.6875 39.8438C5.14271 39.8439 5.58633 39.9873 5.95542 40.2538C6.32451 40.5202 6.60033 40.8961 6.74375 41.3281L7.03125 42.1875L7.31875 41.3281C7.46217 40.8961 7.73799 40.5202 8.10708 40.2538C8.47617 39.9873 8.91979 39.8439 9.375 39.8438C8.91979 39.8436 8.47617 39.7002 8.10708 39.4337C7.73799 39.1673 7.46217 38.7914 7.31875 38.3594L7.03125 37.5L6.74375 38.3594C6.60033 38.7914 6.32451 39.1673 5.95542 39.4337C5.58633 39.7002 5.14271 39.8436 4.6875 39.8438Z" fill="#DB9D3A"/>
<path d="M8.59375 35.9375H10.1562V37.5H8.59375V35.9375Z" fill="#F9D161"/>
<path d="M5.46875 24.2188H8.59375V28.9062H5.46875V24.2188Z" fill="#69737A"/>
<path d="M6.25 24.2188H8.59375V28.9062H6.25V24.2188Z" fill="#91989D"/>
</svg>
