<svg width="50" height="50" viewBox="0 0 50 50" fill="none" xmlns="http://www.w3.org/2000/svg">
<path d="M43.75 41.4062L36.7188 48.4375H7.8125C7.3981 48.4375 7.00067 48.2729 6.70765 47.9799C6.41462 47.6868 6.25 47.2894 6.25 46.875V3.125C6.25 2.7106 6.41462 2.31317 6.70765 2.02015C7.00067 1.72712 7.3981 1.5625 7.8125 1.5625H42.1875C42.6019 1.5625 42.9993 1.72712 43.2924 2.02015C43.5854 2.31317 43.75 2.7106 43.75 3.125V41.4062Z" fill="#8CBDE5"/>
<path d="M42.1875 1.5625H7.8125V45.3125C7.8125 45.7269 7.97712 46.1243 8.27015 46.4174C8.56317 46.7104 8.9606 46.875 9.375 46.875H38.2812L43.75 41.4062V3.125C43.75 2.7106 43.5854 2.31317 43.2924 2.02015C42.9993 1.72712 42.6019 1.5625 42.1875 1.5625Z" fill="#BAD9F0"/>
<path d="M35.1562 17.1875H37.5C37.9144 17.1875 38.3118 17.0229 38.6049 16.7299C38.8979 16.4368 39.0625 16.0394 39.0625 15.625V11.7188L33.5938 10.1562L30.5953 5.95859C30.3145 5.56538 29.9438 5.2449 29.5141 5.02382C29.0845 4.80273 28.6082 4.68743 28.125 4.6875H21.0938C20.0879 4.68848 19.1164 5.05402 18.3594 5.71641L13.7633 9.73438C13.4527 10.0062 13.0541 10.1561 12.6414 10.1562C12.4176 10.1561 12.196 10.2002 11.9892 10.2857C11.7825 10.3713 11.5946 10.4968 11.4363 10.6551C11.2781 10.8133 11.1526 11.0012 11.067 11.208C10.9814 11.4148 10.9374 11.6364 10.9375 11.8602V14.8438C10.9375 15.4654 11.1844 16.0615 11.624 16.501C12.0635 16.9406 12.6596 17.1875 13.2813 17.1875" fill="#2F6D56"/>
<path d="M33.5938 10.1562L30.5953 5.95859C30.3145 5.56538 29.9438 5.2449 29.5141 5.02382C29.0845 4.80273 28.6082 4.68743 28.125 4.6875H21.0938C20.0879 4.68848 19.1164 5.05402 18.3594 5.71641L13.7633 9.73438C13.4527 10.0062 13.0541 10.1561 12.6414 10.1562C12.5969 10.1562 12.5563 10.1656 12.5133 10.1695C12.5133 10.2125 12.5 10.2531 12.5 10.2977V13.2812C12.5 13.9029 12.7469 14.499 13.1865 14.9385C13.626 15.3781 14.2221 15.625 14.8438 15.625H39.0625V11.7188L33.5938 10.1562Z" fill="#377D63"/>
<path d="M30.5953 5.95859C30.3145 5.56538 29.9438 5.2449 29.5141 5.02382C29.0845 4.80273 28.6082 4.68743 28.125 4.6875H21.0937C20.0879 4.68848 19.1164 5.05402 18.3594 5.71641L13.7633 9.73438C13.6148 9.8635 13.4451 9.96604 13.2617 10.0375L33.5938 10.15L30.5953 5.95859Z" fill="#4E97D0"/>
<path d="M9.375 25H14.0625V29.6875H9.375V25Z" fill="white"/>
<path d="M9.375 32.8125H14.0625V37.5H9.375V32.8125Z" fill="white"/>
<path d="M9.375 40.625H14.0625V45.3125H9.375V40.625Z" fill="white"/>
<path d="M26.5625 25H31.25V29.6875H26.5625V25Z" fill="white"/>
<path d="M26.5625 32.8125H31.25V37.5H26.5625V32.8125Z" fill="white"/>
<path d="M17.9678 25H24.2186V26.5625H17.9678V25Z" fill="#43525B"/>
<path d="M16.4062 28.125H24.2188V29.6875H16.4062V28.125Z" fill="#43525B"/>
<path d="M17.9678 32.8125H24.2186V34.375H17.9678V32.8125Z" fill="#43525B"/>
<path d="M16.4062 35.9375H24.2188V37.5H16.4062V35.9375Z" fill="#43525B"/>
<path d="M17.9678 40.625H24.2186V42.1875H17.9678V40.625Z" fill="#43525B"/>
<path d="M16.4062 43.75H24.2188V45.3125H16.4062V43.75Z" fill="#43525B"/>
<path d="M35.1553 25H41.4061V26.5625H35.1553V25Z" fill="#43525B"/>
<path d="M33.5938 28.125H41.4062V29.6875H33.5938V28.125Z" fill="#43525B"/>
<path d="M35.1553 32.8125H41.4061V34.375H35.1553V32.8125Z" fill="#43525B"/>
<path d="M33.5938 35.9375H41.4062V37.5H33.5938V35.9375Z" fill="#43525B"/>
<path d="M11.1631 26.7905L15.8497 22.1038L16.9544 23.2085L12.2678 27.8952L11.1631 26.7905Z" fill="#4CAB90"/>
<path d="M11.1621 34.6014L15.8487 29.9148L16.9534 31.0195L12.2668 35.7061L11.1621 34.6014Z" fill="#4CAB90"/>
<path d="M11.1611 42.4131L15.8478 37.7265L16.9525 38.8312L12.2658 43.5178L11.1611 42.4131Z" fill="#4CAB90"/>
<path d="M28.3467 34.6038L33.0333 29.9171L34.138 31.0218L29.4514 35.7084L28.3467 34.6038Z" fill="#4CAB90"/>
<path d="M28.3477 26.7921L33.0343 22.1054L34.139 23.2101L29.4523 27.8967L28.3477 26.7921Z" fill="#4CAB90"/>
<path d="M16.4062 20.3125C18.1321 20.3125 19.5312 18.9134 19.5312 17.1875C19.5312 15.4616 18.1321 14.0625 16.4062 14.0625C14.6804 14.0625 13.2812 15.4616 13.2812 17.1875C13.2812 18.9134 14.6804 20.3125 16.4062 20.3125Z" fill="#69737A"/>
<path d="M39.0625 14.0625H37.8906C37.5798 14.0625 37.2818 13.939 37.062 13.7193C36.8422 13.4995 36.7188 13.2014 36.7188 12.8906C36.7188 12.5798 36.8422 12.2818 37.062 12.062C37.2818 11.8422 37.5798 11.7188 37.8906 11.7188H39.0625" fill="#F5B94C"/>
<path d="M23.4375 4.6875H25V10.1555H23.4375V4.6875Z" fill="#377D63"/>
<path d="M26.5625 11.7188H28.9062V13.2812H26.5625V11.7188Z" fill="#2F6D56"/>
<path d="M17.1875 11.7188H19.5312V13.2812H17.1875V11.7188Z" fill="#2F6D56"/>
<path d="M36.7188 48.4375V42.9688C36.7188 42.5543 36.8834 42.1569 37.1764 41.8639C37.4694 41.5709 37.8668 41.4062 38.2812 41.4062H43.75" fill="#4E97D0"/>
<path d="M16.4058 14.0625C15.7682 14.0625 15.1461 14.2586 14.6237 14.6242C14.204 15.2252 14.0092 15.9547 14.0736 16.6849C14.1379 17.4151 14.4573 18.0993 14.9756 18.6176C15.494 19.1358 16.1783 19.4551 16.9085 19.5193C17.6387 19.5835 18.3682 19.3886 18.9691 18.9688C19.2958 18.5007 19.4878 17.9519 19.5243 17.3823C19.5608 16.8126 19.4403 16.2439 19.176 15.7379C18.9117 15.232 18.5136 14.8082 18.0252 14.5128C17.5367 14.2174 16.9766 14.0617 16.4058 14.0625Z" fill="#91989D"/>
<path d="M15.625 16.4062H17.1875V17.9688H15.625V16.4062Z" fill="#69737A"/>
<path d="M32.0312 20.3125C33.7571 20.3125 35.1562 18.9134 35.1562 17.1875C35.1562 15.4616 33.7571 14.0625 32.0312 14.0625C30.3054 14.0625 28.9062 15.4616 28.9062 17.1875C28.9062 18.9134 30.3054 20.3125 32.0312 20.3125Z" fill="#69737A"/>
<path d="M32.0308 14.0625C31.3932 14.0625 30.7711 14.2586 30.2487 14.6242C29.829 15.2252 29.6342 15.9547 29.6986 16.6849C29.7629 17.4151 30.0823 18.0993 30.6006 18.6176C31.119 19.1358 31.8033 19.4551 32.5335 19.5193C33.2637 19.5835 33.9932 19.3886 34.5941 18.9688C34.9208 18.5007 35.1128 17.9519 35.1493 17.3823C35.1858 16.8126 35.0653 16.2439 34.801 15.7379C34.5367 15.232 34.1386 14.8082 33.6502 14.5128C33.1617 14.2174 32.6016 14.0617 32.0308 14.0625Z" fill="#91989D"/>
<path d="M31.25 16.4062H32.8125V17.9688H31.25V16.4062Z" fill="#69737A"/>
<path d="M13.2813 10.9375V10.0273C13.0784 10.1115 12.861 10.1553 12.6414 10.1562C12.4176 10.1561 12.196 10.2002 11.9892 10.2857C11.7825 10.3713 11.5946 10.4968 11.4363 10.6551C11.2781 10.8133 11.1526 11.0012 11.067 11.208C10.9814 11.4148 10.9374 11.6364 10.9375 11.8602V13.2812C11.5591 13.2812 12.1552 13.0343 12.5948 12.5948C13.0343 12.1552 13.2813 11.5591 13.2813 10.9375Z" fill="#D14947"/>
</svg>
