<svg width="50" height="50" viewBox="0 0 50 50" fill="none" xmlns="http://www.w3.org/2000/svg">
<g clip-path="url(#clip0_142_58753)">
<path d="M2.46554 40.1207C5.64658 38.2672 8.62072 34.7241 8.62072 26.7241C8.62072 19.6121 3.93106 14.2672 2.28451 12.6035C1.97589 12.2862 1.95692 11.7871 2.2414 11.4483L5.73278 7.25863C5.9233 7.03363 6.2164 6.92242 6.50864 6.96552C15.5431 8.14656 18.1811 2.4569 18.8018 0.577592C18.9233 0.230178 19.2526 -0.00258013 19.6207 6.07616e-06H30.3793C30.7474 -0.00258013 31.0768 0.230178 31.1983 0.577592C31.819 2.4569 34.4569 8.14656 43.4914 6.96552C43.7836 6.92242 44.0768 7.03363 44.2673 7.25863L47.7586 11.4483C48.0431 11.7871 48.0242 12.2862 47.7155 12.6035C46.069 14.2672 41.3793 19.6121 41.3793 26.7241C41.3793 34.7241 44.3535 38.2672 47.5345 40.1207C47.938 40.3543 48.0793 40.8681 47.8535 41.2759L44.3449 47.5948C44.1311 47.9733 43.6733 48.1379 43.2673 47.9828C40.5086 46.8621 30.1983 43.319 25 50C24.1164 48.8509 22.9811 47.919 21.6811 47.2759C18.8069 45.9009 16.1724 46.0431 15.9311 46.0431C12.7733 46.1284 9.65606 46.7853 6.73278 47.9828C6.32675 48.1379 5.86899 47.9733 5.6552 47.5948L2.14658 41.2759C1.92072 40.8681 2.0621 40.3543 2.46554 40.1207ZM25 6.89656C24.0474 6.89656 23.2759 7.66811 23.2759 8.6207C23.2759 9.57328 24.0474 10.3448 25 10.3448C25.9526 10.3448 26.7242 9.57328 26.7242 8.6207C26.7216 7.66983 25.9509 6.89914 25 6.89656Z" fill="#805333"/>
<path d="M2.46598 40.1207C5.64702 38.2672 8.62115 34.7241 8.62115 26.7241C8.62115 19.6121 3.9315 14.2672 2.28495 12.6035C1.97633 12.2862 1.95736 11.7871 2.24184 11.4483L5.73322 7.25863C5.92374 7.03363 6.21684 6.92242 6.50908 6.96552C15.5436 8.14656 18.1815 2.4569 18.8022 0.577592C18.9237 0.230178 19.253 -0.00258013 19.6212 6.07616e-06H25.5953C27.3453 4.93966 29.0091 10.1638 27.9056 15.2586C27.1298 18.8276 25.0608 21.9569 23.6384 25.319C20.7332 32.181 20.6039 39.8276 21.6815 47.2759C18.7393 45.8664 16.1729 46.0431 15.9315 46.0431C12.7737 46.1285 9.6565 46.7853 6.73322 47.9828C6.32719 48.1379 5.86943 47.9733 5.65564 47.5948L2.14702 41.2759C1.92116 40.8681 2.06253 40.3543 2.46598 40.1207ZM25.0005 10.3448C25.9531 10.3448 26.7246 9.57328 26.7246 8.6207C26.7246 7.66811 25.9531 6.89656 25.0005 6.89656C24.0479 6.89656 23.2763 7.66811 23.2763 8.6207C23.2789 9.57156 24.0496 10.3422 25.0005 10.3448Z" fill="#603E26"/>
<path d="M24.9998 46.1207C25.18 46.1207 25.3559 46.0638 25.5024 45.9595C25.9386 45.6466 26.3955 45.3621 26.8696 45.1095C27.1412 44.9647 27.3153 44.6854 27.3257 44.3776C27.336 44.0698 27.1817 43.7793 26.9205 43.6164C26.6593 43.4535 26.3309 43.4423 26.0584 43.5871C25.6972 43.7802 25.3429 43.9897 24.9998 44.2138C24.655 43.9897 24.3024 43.7828 23.9412 43.5871C23.6696 43.4423 23.3412 43.4535 23.0791 43.6164C22.8179 43.7793 22.6628 44.069 22.674 44.3776C22.6843 44.6854 22.8584 44.9647 23.13 45.1095C23.6041 45.3621 24.061 45.6466 24.4972 45.9595C24.6438 46.0638 24.8196 46.1207 24.9998 46.1207Z" fill="#CF976A"/>
<path d="M29.1726 44.1147C29.2545 44.1147 29.3356 44.1026 29.414 44.0793C30.3028 43.8241 31.2132 43.6474 32.133 43.5526C32.6063 43.5026 32.9494 43.0785 32.8994 42.6052C32.8494 42.1319 32.4252 41.7888 31.9511 41.8388C30.9304 41.9448 29.9201 42.1414 28.9338 42.425C28.5209 42.544 28.258 42.9491 28.3183 43.3741C28.3787 43.8 28.7433 44.1155 29.1735 44.1155L29.1726 44.1147ZM37.8795 43.7698C38.3278 43.7681 38.7002 43.4224 38.7356 42.9759C38.7709 42.5293 38.4571 42.1293 38.0149 42.0569C37.0183 41.8957 36.0123 41.7931 35.0037 41.7491C34.6959 41.7362 34.4045 41.8888 34.239 42.1491C34.0735 42.4095 34.0606 42.7379 34.2037 43.0112C34.3468 43.2845 34.6244 43.4604 34.933 43.4733C35.8744 43.5147 36.8114 43.6104 37.7416 43.7612C37.7864 43.7681 37.8313 43.7707 37.8769 43.7698H37.8795Z" fill="#CF976A"/>
<path d="M42.3955 44.8629C42.7084 44.8629 42.9972 44.6931 43.149 44.4198L44.4619 42.0578C44.6628 41.6957 44.5783 41.2422 44.2602 40.9767C43.8455 40.631 43.4533 40.2603 43.0834 39.8672C42.7567 39.5224 42.2136 39.5069 41.8671 39.8319C41.5214 40.1569 41.5024 40.7 41.8266 41.0474C42.0791 41.3164 42.3421 41.5767 42.6171 41.8284L41.9817 42.9707C41.6559 42.8733 41.3162 42.7784 40.9636 42.6845C40.6628 42.5957 40.3369 42.6776 40.1136 42.8983C39.8903 43.119 39.805 43.444 39.8903 43.7457C39.9757 44.0483 40.2188 44.2793 40.5248 44.3509C41.0981 44.5026 41.6369 44.6621 42.1326 44.8216C42.2171 44.8491 42.3059 44.8629 42.3955 44.8629Z" fill="#CF976A"/>
<path d="M40.5171 38.7181C40.6688 38.7173 40.8179 38.6767 40.9481 38.5992C41.3585 38.3586 41.4964 37.8302 41.2559 37.4198C40.7395 36.531 40.3102 35.594 39.9748 34.6216C39.8731 34.331 39.6248 34.1155 39.3223 34.0586C39.0197 34.0017 38.7093 34.1086 38.5085 34.3423C38.3076 34.5759 38.2455 34.8983 38.3473 35.1888C38.7197 36.2673 39.1955 37.306 39.7697 38.2923C39.9248 38.5578 40.2093 38.7198 40.5171 38.7181ZM38.3498 32.6224C38.4016 32.6224 38.4524 32.6181 38.5033 32.6095C38.7283 32.569 38.9283 32.4414 39.0593 32.2535C39.1904 32.0655 39.2404 31.8336 39.1998 31.6086C39.0171 30.5759 38.8981 29.5319 38.8421 28.4845C38.8102 28.0112 38.405 27.65 37.9309 27.6724C37.4559 27.6991 37.0921 28.106 37.1188 28.581C37.1783 29.6983 37.3059 30.8112 37.5007 31.9138C37.5748 32.3242 37.9317 32.6224 38.349 32.6224H38.3498ZM37.9852 26.1466C38.4378 26.1474 38.8145 25.7983 38.8473 25.3466C38.9231 24.3104 39.0809 23.2828 39.3188 22.2716C39.4274 21.8078 39.1404 21.344 38.6774 21.2354C38.2136 21.1267 37.7498 21.4138 37.6404 21.8776C37.3817 22.9776 37.2102 24.0957 37.1274 25.2224C37.111 25.4509 37.1852 25.6759 37.3352 25.8492C37.4843 26.0224 37.6973 26.1285 37.9248 26.1448L37.9852 26.1466ZM39.4507 19.8388C39.8041 19.8388 40.1223 19.6233 40.2524 19.294C40.6404 18.3224 41.0912 17.3776 41.6033 16.4655C41.83 16.0509 41.68 15.531 41.2679 15.3C40.8559 15.069 40.3343 15.2129 40.099 15.6233C39.5498 16.6026 39.0654 17.6164 38.6498 18.6595C38.5447 18.925 38.5774 19.2259 38.7378 19.4621C38.8981 19.6983 39.1654 19.8397 39.4516 19.8397L39.4507 19.8388Z" fill="#CF976A"/>
<path d="M42.619 14.1552C42.8949 14.156 43.1535 14.0241 43.3164 13.8017C43.6664 13.3224 44.0113 12.8828 44.3406 12.4854C44.6052 12.1664 44.6052 11.7035 44.3406 11.3845L43.1638 9.97415C42.9871 9.76208 42.7199 9.64743 42.4449 9.66553C42.0009 9.6957 41.5647 9.71036 41.1388 9.71036H40.794C40.3182 9.70174 39.9251 10.081 39.9173 10.5578C39.9087 11.0336 40.288 11.4267 40.7647 11.4345H41.1414C41.4621 11.4345 41.7888 11.4267 42.119 11.4112L42.5638 11.944C42.3544 12.2104 42.1414 12.4905 41.9259 12.7845C41.7345 13.0466 41.7061 13.394 41.8535 13.6836C42.0001 13.9733 42.2975 14.1552 42.6216 14.1552H42.619Z" fill="#CF976A"/>
<path d="M36.4739 10.8026C36.9032 10.8035 37.2678 10.4879 37.329 10.0629C37.3902 9.63794 37.129 9.23276 36.717 9.11294C35.4126 8.73535 34.1825 8.13794 33.079 7.34569C32.6928 7.06638 32.154 7.15345 31.8756 7.5388C31.5963 7.925 31.6833 8.4638 32.0695 8.74311C33.3316 9.64914 34.7385 10.3336 36.2307 10.7672C36.3092 10.7905 36.3911 10.8026 36.4739 10.8026Z" fill="#CF976A"/>
<path d="M29.5553 5.7888C29.8743 5.78794 30.1674 5.61121 30.3165 5.32845C30.4657 5.0457 30.4458 4.70432 30.2657 4.44052C29.9622 3.99656 29.6881 3.53363 29.4433 3.05518C29.2958 2.76725 28.9993 2.58621 28.676 2.58621H26.9519C26.476 2.58621 26.0898 2.97242 26.0898 3.44828C26.0898 3.92414 26.476 4.31035 26.9519 4.31035H28.1588C28.3708 4.68966 28.5993 5.05949 28.8424 5.4138C29.0036 5.64914 29.27 5.78966 29.5553 5.7888Z" fill="#CF976A"/>
<path d="M20.8218 44.1129C21.2519 44.1138 21.6166 43.7983 21.6769 43.3724C21.7373 42.9466 21.4752 42.5414 21.0623 42.4224C20.0761 42.1397 19.0657 41.944 18.045 41.8379C17.5718 41.7879 17.1468 42.131 17.0976 42.6043C17.0485 43.0776 17.3907 43.5026 17.864 43.5517C18.7847 43.6466 19.6942 43.8224 20.5838 44.0776C20.6614 44.1009 20.7416 44.1129 20.8218 44.1129Z" fill="#CF976A"/>
<path d="M26.0865 3.44829C26.0865 3.92415 26.4728 4.31036 26.9486 4.31036H27.0176C26.8624 3.77587 26.69 3.24139 26.5176 2.70691C26.2503 2.85777 26.0857 3.14139 26.0865 3.44829Z" fill="#A56A43"/>
<path d="M19.9572 5.63794C20.102 5.73794 20.2727 5.79225 20.4485 5.79311C20.7322 5.79139 20.9968 5.64915 21.1554 5.4138C21.3968 5.06035 21.6296 4.68966 21.8365 4.31035H23.052C23.5279 4.31035 23.9141 3.92415 23.9141 3.44828C23.9141 2.97242 23.5279 2.58622 23.052 2.58622H21.3279C21.0054 2.58535 20.7089 2.76553 20.5606 3.05173C20.3132 3.53104 20.0373 3.99484 19.733 4.43966C19.4666 4.83277 19.5666 5.36725 19.9572 5.63794Z" fill="#A56A43"/>
<path d="M12.707 10.181C12.8087 10.5492 13.1441 10.8035 13.526 10.8017C13.6105 10.8026 13.6949 10.7914 13.776 10.7673C15.2673 10.3362 16.6725 9.65088 17.9311 8.74139C18.1949 8.56639 18.3423 8.26208 18.3139 7.94657C18.2863 7.63105 18.088 7.35691 17.7975 7.23105C17.507 7.10519 17.1708 7.14915 16.9225 7.34484C15.8173 8.13364 14.588 8.73105 13.2846 9.11208C13.0656 9.17674 12.882 9.32588 12.7734 9.52674C12.6648 9.72674 12.6406 9.96295 12.707 10.181Z" fill="#A56A43"/>
<path d="M5.66441 12.4828C5.99199 12.8793 6.33682 13.319 6.68165 13.8017C6.84458 14.0242 7.10406 14.156 7.37993 14.1552C7.56269 14.1569 7.74113 14.0992 7.88855 13.9914C8.07389 13.8569 8.19889 13.6535 8.23423 13.4276C8.26958 13.2009 8.21355 12.9698 8.0782 12.7845C7.86268 12.4914 7.64717 12.2069 7.44027 11.9397L7.87993 11.4138C8.21613 11.431 8.54372 11.431 8.86268 11.431H9.242C9.54975 11.4276 9.83251 11.2612 9.98424 10.9923C10.136 10.7242 10.1325 10.3957 9.97561 10.1302C9.81872 9.86467 9.53251 9.70346 9.22475 9.70691H8.86268C8.44027 9.70691 8.00062 9.69829 7.56096 9.66381C7.28424 9.6457 7.01527 9.76122 6.83682 9.97415L5.66441 11.3879C5.39717 11.7043 5.39717 12.1664 5.66441 12.4828Z" fill="#A56A43"/>
<path d="M8.38862 16.4483C8.89897 17.3612 9.35069 18.306 9.74207 19.2759C9.8731 19.6043 10.1903 19.819 10.5438 19.819C10.83 19.819 11.0972 19.6776 11.2576 19.4414C11.4179 19.2052 11.4507 18.9043 11.3455 18.6379C10.9283 17.5948 10.4421 16.581 9.88862 15.6035C9.64207 15.2172 9.13776 15.0914 8.73862 15.3155C8.33949 15.5405 8.18604 16.0379 8.38862 16.4483Z" fill="#A56A43"/>
<path d="M10.6814 22.25C10.9202 23.2621 11.0788 24.2905 11.1555 25.3276C11.1917 25.7776 11.5658 26.1259 12.0176 26.1293C12.0348 26.1293 12.0607 26.1207 12.0779 26.1207C12.3064 26.1052 12.5202 25.9991 12.6702 25.8259C12.8202 25.6526 12.896 25.4267 12.8796 25.1983C12.7917 24.0716 12.6184 22.9535 12.3624 21.8535C12.2529 21.3897 11.7874 21.1017 11.3236 21.2112C10.8598 21.3207 10.5719 21.7862 10.6814 22.25Z" fill="#A56A43"/>
<path d="M10.8018 31.5862C10.7613 31.8112 10.813 32.0431 10.9441 32.231C11.0751 32.419 11.2751 32.5466 11.5001 32.5862C11.551 32.5966 11.6036 32.6017 11.6553 32.6035C12.0699 32.6017 12.4251 32.3052 12.5001 31.8966C12.6967 30.794 12.8234 29.6793 12.8794 28.5604C12.9242 28.2379 12.7846 27.9181 12.5174 27.7328C12.2501 27.5474 11.9018 27.5285 11.6156 27.6828C11.3294 27.8379 11.1553 28.1405 11.1639 28.4655C11.1087 29.5121 10.988 30.5543 10.8018 31.5862Z" fill="#A56A43"/>
<path d="M9.06027 38.5862C9.4732 38.8173 9.99562 38.6802 10.2413 38.2759C10.812 37.2871 11.2853 36.2448 11.6551 35.1638C11.7689 34.869 11.712 34.5362 11.5077 34.2957C11.3034 34.0552 10.9844 33.9457 10.6749 34.0095C10.3654 34.0733 10.1163 34.3017 10.0249 34.6035C9.69131 35.5759 9.26372 36.5147 8.74907 37.4052C8.63355 37.6026 8.60079 37.8388 8.65941 38.0604C8.71803 38.2819 8.862 38.4707 9.06027 38.5862Z" fill="#A56A43"/>
<path d="M5.53441 42.0604L6.85338 44.4224C7.00597 44.6931 7.29217 44.8612 7.60338 44.8621C7.69476 44.8647 7.78528 44.85 7.87062 44.819C8.362 44.6638 8.90511 44.5 9.47407 44.3535C9.93614 44.2319 10.212 43.7595 10.0905 43.2974C9.9689 42.8354 9.49648 42.5595 9.03442 42.681C8.68097 42.7759 8.34476 42.8707 8.01717 42.9741L7.37924 41.8276C7.65511 41.5776 7.92235 41.319 8.17235 41.0431C8.40769 40.8233 8.50079 40.4905 8.41286 40.1802C8.32493 39.8698 8.07235 39.6345 7.75683 39.5698C7.44131 39.5052 7.11631 39.6207 6.91286 39.8716C6.54562 40.2629 6.15338 40.6319 5.74045 40.975C5.42235 41.2405 5.33614 41.6948 5.53441 42.0604Z" fill="#A56A43"/>
<path d="M11.2674 43.0431C11.3355 43.4612 11.6967 43.7681 12.1209 43.7673C12.1674 43.7681 12.2131 43.7655 12.2588 43.7586C13.1864 43.6069 14.1217 43.5121 15.0605 43.4741C15.3683 43.4621 15.6467 43.2862 15.7898 43.0129C15.9329 42.7397 15.92 42.4112 15.7553 42.1509C15.5907 41.8905 15.2993 41.7371 14.9915 41.75C13.9838 41.7966 12.9795 41.9 11.9829 42.0604C11.7571 42.094 11.5536 42.2173 11.4191 42.4017C11.2846 42.5862 11.2303 42.8173 11.2674 43.0431Z" fill="#A56A43"/>
<path d="M17.0955 42.6035C17.0714 42.831 17.1386 43.0586 17.2826 43.2362C17.4265 43.4138 17.6352 43.5276 17.8627 43.5517C18.7817 43.6474 19.6903 43.8233 20.5783 44.0776C20.6567 44.1009 20.7377 44.1129 20.8196 44.1121C20.9834 44.1129 21.1446 44.0681 21.2852 43.9828V43.9741C21.2421 43.4741 21.1989 42.9655 21.1731 42.4655C21.1369 42.4474 21.0998 42.4328 21.061 42.4224C20.0739 42.1405 19.0645 41.944 18.0438 41.8362C17.5714 41.7897 17.1481 42.131 17.0955 42.6035Z" fill="#A56A43"/>
</g>
<defs>
<clipPath id="clip0_142_58753">
<rect width="50" height="50" fill="white" transform="matrix(-1 0 0 1 50 0)"/>
</clipPath>
</defs>
</svg>
