<svg width="50" height="50" viewBox="0 0 50 50" fill="none" xmlns="http://www.w3.org/2000/svg">
<path d="M1.5625 28.125H48.4375V17.9688L37.5 14.8438L30.7531 4.41719C29.6016 2.6375 27.6258 1.5625 25.5062 1.5625H12.7797C10.2469 1.5625 7.96484 3.09063 7.00078 5.43281L3.125 14.8438H1.5625" fill="#2B74CA"/>
<path d="M35.1562 23.4375C21.7805 23.4375 10.9375 16.0922 10.9375 7.03125C10.9375 5.12656 11.4219 3.29922 12.3031 1.59844C12.4617 1.58594 12.618 1.5625 12.7797 1.5625H25.5062C27.6266 1.5625 29.6016 2.6375 30.7539 4.41719L37.5 14.8438L48.4375 17.9688V20.7484C44.6234 22.4469 40.0617 23.4375 35.1562 23.4375Z" fill="#3D98F7"/>
<path d="M10.1672 6.69063L7.03125 14.8438H32.8125L27.4773 6.175C26.9086 5.25078 25.9016 4.6875 24.8164 4.6875H13.0836C11.7906 4.6875 10.6312 5.48359 10.1672 6.69063Z" fill="#C7E2FC"/>
<path d="M27.7346 12.5C19.3361 12.5 12.4604 9.1875 11.7861 4.975C12.1854 4.79219 12.6252 4.6875 13.0838 4.6875H24.8166C25.9018 4.6875 26.9096 5.25078 27.4783 6.175L31.2455 12.2961C30.1135 12.4258 28.9424 12.5 27.7346 12.5Z" fill="#EBF7FE"/>
<path d="M45.3125 21.875V17.0758L48.4375 17.9688V21.875H45.3125Z" fill="#F9D18B"/>
<path d="M37.5 34.375C40.9518 34.375 43.75 31.5768 43.75 28.125C43.75 24.6732 40.9518 21.875 37.5 21.875C34.0482 21.875 31.25 24.6732 31.25 28.125C31.25 31.5768 34.0482 34.375 37.5 34.375Z" fill="#4D5D7A"/>
<path d="M37.5 31.25C39.2259 31.25 40.625 29.8509 40.625 28.125C40.625 26.3991 39.2259 25 37.5 25C35.7741 25 34.375 26.3991 34.375 28.125C34.375 29.8509 35.7741 31.25 37.5 31.25Z" fill="#8892A0"/>
<path d="M18.75 4.6875H20.3125V14.8438H18.75V4.6875Z" fill="#8892A0"/>
<path d="M18.75 17.1875H21.875V18.75H18.75V17.1875Z" fill="white"/>
<path d="M6.25 17.1875H9.375V18.75H6.25V17.1875Z" fill="white"/>
<path d="M4.6875 24.2188H23.4375C25.1633 24.2188 26.5625 25.618 26.5625 27.3438V31.25H7.8125V27.3438C7.8125 25.618 6.41328 24.2188 4.6875 24.2188C2.96172 24.2188 1.5625 25.618 1.5625 27.3438V48.4375H23.4375V24.2188" fill="#F5B953"/>
<path d="M4.6875 24.2188H23.4375C25.1633 24.2188 26.5625 25.618 26.5625 27.3438V31.25H7.8125V27.3438C7.8125 25.618 6.41328 24.2188 4.6875 24.2188Z" fill="#F9D18B"/>
<path d="M39.0625 44.5312C36.9055 44.5312 35.1562 46.2805 35.1562 48.4375C35.1562 46.2805 33.407 44.5312 31.25 44.5312C33.407 44.5312 35.1562 42.782 35.1562 40.625C35.1562 42.782 36.9055 44.5312 39.0625 44.5312Z" fill="#8BD2F5"/>
<path d="M48.4375 39.0625C46.2805 39.0625 44.5312 40.8117 44.5312 42.9688C44.5312 40.8117 42.782 39.0625 40.625 39.0625C42.782 39.0625 44.5312 37.3133 44.5312 35.1562C44.5312 37.3133 46.2805 39.0625 48.4375 39.0625Z" fill="#8BD2F5"/>
<path d="M48.4375 5.46875C46.2805 5.46875 44.5312 7.21797 44.5312 9.375C44.5312 7.21797 42.782 5.46875 40.625 5.46875C42.782 5.46875 44.5312 3.71953 44.5312 1.5625C44.5312 3.71953 46.2805 5.46875 48.4375 5.46875Z" fill="#8BD2F5"/>
<path d="M6.25 48.4375V45.3125L4.6875 43.75V35.1562C4.6875 34.293 5.38672 33.5938 6.25 33.5938C7.11328 33.5938 7.8125 34.293 7.8125 35.1562V32.0312C7.8125 31.168 8.51172 30.4688 9.375 30.4688C10.2383 30.4688 10.9375 31.168 10.9375 32.0312V30.4688C10.9375 29.6055 11.6367 28.9062 12.5 28.9062C13.3633 28.9062 14.0625 29.6055 14.0625 30.4688V32.0312C14.0625 31.168 14.7617 30.4688 15.625 30.4688C16.4883 30.4688 17.1875 31.168 17.1875 32.0312V39.8438C17.1875 38.9805 17.8867 38.2812 18.75 38.2812C19.6133 38.2812 20.3125 38.9805 20.3125 39.8438V42.9688L15.625 46.0938V48.4375" fill="#DB9B7C"/>
<path d="M16.4062 39.8438H17.9688V41.4062H16.4062V39.8438Z" fill="#EFBE9A"/>
<path d="M13.2812 32.0312H14.8438V37.5H13.2812V32.0312Z" fill="#EFBE9A"/>
<path d="M10.1562 32.0312H11.7188V37.5H10.1562V32.0312Z" fill="#EFBE9A"/>
<path d="M7.03125 35.1562H8.59375V37.5H7.03125V35.1562Z" fill="#EFBE9A"/>
</svg>
