<svg id="Layer_1" enable-background="new 0 0 74 74" height="512" viewBox="0 0 74 74" width="512" xmlns="http://www.w3.org/2000/svg"><g><g><g><path d="m62.03 24.4 6.91 23.42c.24.8-.32 1.62-1.15 1.69-20.53 1.71-41.06 1.71-61.59 0-.83-.07-1.39-.89-1.15-1.69l6.91-23.42c.14-.47.53-.83 1.01-.93 16.02-3.19 32.03-3.19 48.05 0 .48.1.88.46 1.01.93z" fill="#34495e"/><path d="m37 48.83c-9.9 0-19.93-.41-29.83-1.21l6.58-22.29c7.72-1.51 15.54-2.28 23.26-2.28s15.54.77 23.26 2.28l6.58 22.29c-9.92.8-19.95 1.21-29.85 1.21z" fill="#485f72"/><path d="m66.83 47.62c-9.91.8-19.94 1.21-29.83 1.21-9.9 0-19.94-.41-29.83-1.21l.67-2.28c.21-.04.43-.08.64-.1 2.83-.37 5.7.2 8.47.88 2.78.67 5.56 1.44 8.4 1.51 6.76.14 13.61-3.75 20.04-1.63 1.94.64 3.95 1.82 5.9 1.19 1.95-.64 2.91-2.84 4.59-4.04 2.52-1.78 5.98-.93 8.93-.01.26.08.52.17.79.25z" opacity=".1"/><g fill="#fff"><path d="m45.48 32.75-11.36 11.37-19.04-19.04c6.88-1.28 13.83-1.95 20.71-2.02z" opacity=".15"/><path d="m23.07 28.46h16.07v2.57h-16.07z" opacity=".15" transform="matrix(.707 -.707 .707 .707 -11.92 30.706)"/><path d="m27.45 33.25h16.07v1.74h-16.07z" opacity=".15" transform="matrix(.707 -.707 .707 .707 -13.732 35.081)"/></g></g><g fill="#fff"><path d="m23.28 24.41c0 .54.21 1.09.62 1.51-.83-.83-2.18-.83-3.01 0 .41-.42.62-.96.62-1.51 0-.54-.21-1.09-.62-1.51.42.42.96.62 1.51.62s1.09-.21 1.51-.62c-.42.42-.63.97-.63 1.51z"/><path d="m21.86 28.42c0 .33.13.66.38.91-.51-.5-1.32-.5-1.82 0 .25-.25.38-.58.38-.91s-.13-.66-.38-.91c.25.25.58.38.91.38s.66-.12.91-.38c-.25.25-.38.58-.38.91z"/><path d="m19.08 24.67c0 .33.13.66.38.91-.51-.5-1.32-.5-1.82 0 .25-.25.38-.58.38-.91s-.13-.66-.38-.91c.25.25.58.38.91.38s.66-.12.91-.38c-.25.25-.38.58-.38.91z"/></g></g><g><path d="m32.67 38.7h16.07v1.29h-16.07z" fill="#23a7f1" transform="matrix(.707 -.707 .707 .707 -15.897 40.308)"/><path d="m31.31 37.34h16.07v1.29h-16.07z" fill="#283a49" transform="matrix(.707 -.707 .707 .707 -15.333 38.946)"/><path d="m31.76 37.79h16.07v1.29h-16.07z" fill="#c8e9fa" transform="matrix(.707 -.707 .707 .707 -15.521 39.4)"/><path d="m45.38 38.26h1.6v12.8h-1.6z" fill="#0096d8" transform="matrix(.707 -.707 .707 .707 -18.058 45.735)"/><path d="m50.57 47.15h2.08v5.89h-2.08z" fill="#283a49" transform="matrix(.707 -.707 .707 .707 -20.307 51.167)"/><path d="m36.95 38.96h8.56v1.53h-8.56z" fill="#374c5b" transform="matrix(.707 -.707 .707 .707 -16.011 40.794)"/></g></g></svg>