<svg width="50" height="50" viewBox="0 0 50 50" fill="none" xmlns="http://www.w3.org/2000/svg">
<path d="M31.2227 13.9625V6.97266C31.2227 5.52225 30.6465 4.13126 29.6209 3.10567C28.5953 2.08008 27.2043 1.50391 25.7539 1.50391H8.56641C7.116 1.50391 5.72501 2.08008 4.69942 3.10567C3.67383 4.13126 3.09766 5.52225 3.09766 6.97266V42.9102C3.09766 44.3606 3.67383 45.7516 4.69942 46.7771C5.72501 47.8027 7.116 48.3789 8.56641 48.3789H36.6914C38.1418 48.3789 39.5328 47.8027 40.5584 46.7771C41.584 45.7516 42.1602 44.3606 42.1602 42.9102V28.8883C42.1601 28.1361 42.0048 27.392 41.7041 26.7025C41.4034 26.0131 40.9637 25.3931 40.4125 24.8813L32.9688 17.9688C32.4179 17.4569 31.9786 16.8369 31.6781 16.1476C31.3777 15.4583 31.2226 14.7144 31.2227 13.9625Z" fill="#43525B"/>
<path d="M32.9688 17.9688C32.4174 17.4569 31.9777 16.8367 31.677 16.1471C31.3763 15.4575 31.2211 14.7133 31.2211 13.9609V6.97266C31.2211 5.52225 30.6449 4.13126 29.6193 3.10567C28.5937 2.08008 27.2028 1.50391 25.7523 1.50391H8.56485C7.49702 1.50316 6.45258 1.81671 5.56172 2.40547C4.97254 3.29671 4.65897 4.34177 4.66016 5.41016V41.3477C4.66016 42.7981 5.23633 44.1891 6.26192 45.2146C7.28751 46.2402 8.67851 46.8164 10.1289 46.8164H38.2539C39.3223 46.8172 40.3674 46.5034 41.2586 45.9141C41.8476 45.023 42.1612 43.9783 42.1602 42.9102V28.8883C42.1601 28.1361 42.0048 27.392 41.7041 26.7025C41.4034 26.0131 40.9637 25.3931 40.4125 24.8813L32.9688 17.9688Z" fill="#69737A"/>
<path d="M30.9602 20.568C30.0575 19.7297 29.3374 18.7142 28.8449 17.5851C28.3524 16.456 28.098 15.2374 28.0977 14.0055V6.97424C28.0977 6.35264 27.8507 5.7565 27.4112 5.31696C26.9716 4.87742 26.3755 4.63049 25.7539 4.63049H8.56641C7.94481 4.63049 7.34866 4.87742 6.90912 5.31696C6.46959 5.7565 6.22266 6.35264 6.22266 6.97424V42.9117C6.22266 43.5333 6.46959 44.1295 6.90912 44.569C7.34866 45.0086 7.94481 45.2555 8.56641 45.2555H36.6914C37.313 45.2555 37.9091 45.0086 38.3487 44.569C38.7882 44.1295 39.0352 43.5333 39.0352 42.9117V29.0883C39.0353 28.7657 38.9688 28.4465 38.8399 28.1507C38.711 27.855 38.5224 27.5891 38.2859 27.3696L30.9602 20.568Z" fill="#91989D"/>
<path d="M6.22266 38.489L12.9875 45.2539H15.1969L6.22266 36.2797V38.489Z" fill="#43525B"/>
<path d="M6.22266 33.0766L18.3992 45.2539H20.6094L6.22266 30.8672V33.0766Z" fill="#43525B"/>
<path d="M6.22266 27.6078L23.868 45.2539H26.0781L6.22266 25.3984V27.6078Z" fill="#43525B"/>
<path d="M6.22266 22.1399L29.3367 45.2539H31.5461L6.22266 19.9305V22.1399Z" fill="#43525B"/>
<path d="M6.22266 16.6703L34.8055 45.2539H36.6914C36.7898 45.25 36.8879 45.2401 36.9852 45.2242L6.22266 14.4609V16.6703Z" fill="#43525B"/>
<path d="M6.22266 11.2016L38.8477 43.8281C38.9716 43.538 39.0354 43.2257 39.0352 42.9102V41.8055L6.22266 8.99298V11.2016Z" fill="#43525B"/>
<path d="M39.0352 36.3367L7.56172 4.86249C7.07799 5.09354 6.68809 5.48345 6.45703 5.96718L39.0352 38.5453V36.3367Z" fill="#43525B"/>
<path d="M39.0354 30.868L12.7963 4.62891H10.5869L39.0354 33.0773V30.868Z" fill="#43525B"/>
<path d="M28.1252 14.4867L18.265 4.62891H16.0557L28.7439 17.3172C28.3852 16.4136 28.1763 15.4576 28.1252 14.4867Z" fill="#43525B"/>
<path d="M28.0979 8.99297L23.7338 4.62891H21.5244L28.0979 11.2023V8.99297Z" fill="#43525B"/>
<path d="M42.9688 17.9688L43.118 17.2211C43.3071 16.2761 43.7605 15.4042 44.4256 14.7068C45.0907 14.0093 45.9401 13.515 46.875 13.2812C45.9401 13.0475 45.0907 12.5532 44.4256 11.8557C43.7605 11.1583 43.3071 10.2864 43.118 9.34141L42.9688 8.59375L42.8195 9.34141C42.6304 10.2864 42.177 11.1583 41.5119 11.8557C40.8468 12.5532 39.9974 13.0475 39.0625 13.2812C39.9974 13.515 40.8468 14.0093 41.5119 14.7068C42.177 15.4042 42.6304 16.2761 42.8195 17.2211L42.9688 17.9688Z" fill="#F9D161"/>
<path d="M33.5938 6.25C34.049 6.25012 34.4926 6.39357 34.8617 6.66001C35.2308 6.92645 35.5066 7.30235 35.65 7.73437L35.9375 8.59375L36.225 7.73437C36.3684 7.30235 36.6442 6.92645 37.0133 6.66001C37.3824 6.39357 37.826 6.25012 38.2812 6.25C37.826 6.24988 37.3824 6.10643 37.0133 5.83999C36.6442 5.57355 36.3684 5.19765 36.225 4.76562L35.9375 3.90625L35.65 4.76562C35.5066 5.19765 35.2308 5.57355 34.8617 5.83999C34.4926 6.10643 34.049 6.24988 33.5938 6.25Z" fill="#F9D161"/>
<path d="M43.75 22.6562C43.75 22.0346 43.5031 21.4385 43.0635 20.999C42.624 20.5594 42.0279 20.3125 41.4062 20.3125H39.0625V34.375H41.4062C42.0279 34.375 42.624 34.1281 43.0635 33.6885C43.5031 33.249 43.75 32.6529 43.75 32.0312V22.6562Z" fill="#2F6D56"/>
<path d="M39.0623 21.0937L34.374 21.093L34.3748 33.5937H39.0623" fill="#F5B94C"/>
<path d="M34.375 26.5625H36.7188V28.125H34.375V26.5625Z" fill="#DB9D3A"/>
<path d="M34.375 23.4375H36.7188V25H34.375V23.4375Z" fill="#DB9D3A"/>
<path d="M34.375 29.6875H36.7188V31.25H34.375V29.6875Z" fill="#DB9D3A"/>
<path d="M36.7188 21.0938H39.0625V33.5938H36.7188V21.0938Z" fill="#DB9D3A"/>
<path d="M39.0625 20.3125V32.8125H39.8438C40.4654 32.8125 41.0615 32.5656 41.501 32.126C41.9406 31.6865 42.1875 31.0904 42.1875 30.4688V21.0938C42.1841 20.8656 42.1473 20.6393 42.0781 20.4219C41.8607 20.3527 41.6344 20.3159 41.4062 20.3125H39.0625Z" fill="#377D63"/>
</svg>
