<svg width="50" height="50" viewBox="0 0 50 50" fill="none" xmlns="http://www.w3.org/2000/svg">
<path d="M1.5625 6.24921H48.4375V43.7492H1.5625V6.24921Z" fill="#43525B"/>
<path d="M3.125 6.24921H48.4375V42.1875H3.125V6.24921Z" fill="#69737A"/>
<path d="M1.5625 6.25V27.2969C1.56244 26.4367 1.86749 25.6045 2.4234 24.9482C2.97931 24.2918 3.75003 23.854 4.59844 23.7125L6.26328 23.4375C19.1068 21.2971 32.2211 21.3595 45.0437 23.6219L45.4211 23.6891C46.2658 23.8381 47.031 24.2798 47.5825 24.9366C48.1341 25.5935 48.4368 26.4235 48.4375 27.2812V6.25H1.5625Z" fill="#8CBDE5"/>
<path d="M3.125 24.3273C3.56391 24.0147 4.06745 23.8045 4.59844 23.7125L6.26328 23.4375C19.1068 21.2971 32.2211 21.3595 45.0437 23.6219L45.4211 23.6891C46.2658 23.8381 47.031 24.2798 47.5825 24.9366C48.1341 25.5935 48.4368 26.4235 48.4375 27.2812V6.25H3.125V24.3273Z" fill="#BAD9F0"/>
<path d="M21.875 43.75L20.3125 35.1562L18.75 32.8125L4.70469 30.8961C3.8343 30.7775 3.03637 30.3475 2.45866 29.6857C1.88094 29.024 1.56258 28.1753 1.5625 27.2969C1.56244 26.4368 1.86749 25.6045 2.4234 24.9482C2.97931 24.2918 3.75003 23.854 4.59844 23.7125L6.26328 23.4375C12.4936 22.3984 18.7992 21.8758 25.1156 21.875C31.7965 21.8749 38.4645 22.4586 45.0437 23.6195L45.4211 23.6867C46.2662 23.8358 47.0317 24.2778 47.5833 24.9352C48.1349 25.5925 48.4373 26.4231 48.4375 27.2812C48.4375 28.164 48.1177 29.0168 47.5372 29.6818C46.9568 30.3468 46.1551 30.7791 45.2805 30.8984L31.25 32.8125L29.6875 35.1562L28.125 43.75" fill="#BC822F"/>
<path d="M45.4208 23.6867L45.0434 23.6195C32.2207 21.3579 19.1064 21.2963 6.26296 23.4375L5.4278 23.5766C4.8357 23.998 4.38408 24.5879 4.13168 25.2694C3.87927 25.951 3.83776 26.6927 4.01252 27.3982C4.18729 28.1036 4.57025 28.7402 5.11162 29.2251C5.653 29.71 6.32774 30.0209 7.04812 30.1172L21.0934 32.0312L22.6559 34.375L24.2184 42.9687H28.2669L29.6872 35.1562L31.2497 32.8125L45.2801 30.8984C46.1429 30.7813 46.9354 30.3595 47.5146 29.7093C48.0937 29.0591 48.4213 28.2233 48.4383 27.3528C48.4553 26.4822 48.1605 25.6343 47.6072 24.962C47.0538 24.2897 46.2784 23.8374 45.4208 23.6867Z" fill="#DB9D3A"/>
<path d="M48.1012 25.7812C47.859 25.2402 47.4882 24.7665 47.0212 24.4015C46.5542 24.0364 46.005 23.7911 45.4215 23.6867L45.0441 23.6195C32.2214 21.3579 19.1071 21.2963 6.26367 23.4375L4.59883 23.7148C4.01575 23.8135 3.46568 24.0534 2.99667 24.4136C2.52766 24.7738 2.15396 25.2434 1.9082 25.7812H48.1012Z" fill="#A06C27"/>
<path d="M1.90799 25.7812C1.66515 26.2952 1.5473 26.8593 1.56407 27.4275C1.58083 27.9957 1.73174 28.5519 2.00446 29.0506C2.27718 29.5494 2.66399 29.9765 3.1333 30.2973C3.60261 30.618 4.14112 30.8232 4.70486 30.8961L5.46892 31.0008V25.7812H1.90799Z" fill="#205A96"/>
<path d="M25 33.5938C23.4707 33.5931 21.9755 34.0454 20.7031 34.8938L20.3125 35.1563L21.875 43.75H28.125L29.6875 35.1563L29.2969 34.8938C28.0245 34.0454 26.5293 33.5931 25 33.5938Z" fill="#161D23"/>
<path d="M29.6875 35.1562L29.2969 34.8937C28.3034 34.2254 27.1667 33.8001 25.9785 33.6522C24.7903 33.5043 23.584 33.6379 22.457 34.0422L24.2187 43.75H28.125L29.6875 35.1562Z" fill="#43525B"/>
<path d="M17.1875 43.75L15.625 38.2812H6.25L4.6875 43.75" fill="#A06C27"/>
<path d="M22.6562 25.7812V30.4688H33.5938V25.7812" fill="#BAD9F0"/>
<path d="M22.6562 25.7812H26.5625V30.4688H22.6562V25.7812Z" fill="#205A96"/>
<path d="M22.6562 27.3438H26.5625V28.9062H22.6562V27.3438Z" fill="#0D2D54"/>
<path d="M25 43.75H23.4375V40.625C23.4375 40.4178 23.5198 40.2191 23.6663 40.0726C23.8128 39.9261 24.0115 39.8438 24.2188 39.8438H25.7812V39.0625H23.4375V37.5H26.5625C26.7697 37.5 26.9684 37.5823 27.1149 37.7288C27.2614 37.8753 27.3438 38.074 27.3438 38.2812V40.625C27.3438 40.8322 27.2614 41.0309 27.1149 41.1774C26.9684 41.3239 26.7697 41.4062 26.5625 41.4062H25V43.75Z" fill="white"/>
<path d="M19.5312 9.375H30.4688C30.8832 9.375 31.2806 9.53962 31.5736 9.83265C31.8666 10.1257 32.0312 10.5231 32.0312 10.9375V12.5C32.0312 12.9144 31.8666 13.3118 31.5736 13.6049C31.2806 13.8979 30.8832 14.0625 30.4688 14.0625H19.5312C19.1168 14.0625 18.7194 13.8979 18.4264 13.6049C18.1334 13.3118 17.9688 12.9144 17.9688 12.5V10.9375C17.9688 10.5231 18.1334 10.1257 18.4264 9.83265C18.7194 9.53962 19.1168 9.375 19.5312 9.375Z" fill="#69737A"/>
<path d="M24.2188 6.25H25.7812V9.375H24.2188V6.25Z" fill="#43525B"/>
<path d="M7.03125 11.7188C7.48646 11.7189 7.93008 11.8623 8.29917 12.1288C8.66826 12.3952 8.94408 12.7711 9.0875 13.2031L9.375 14.0625L9.6625 13.2031C9.80592 12.7711 10.0817 12.3952 10.4508 12.1288C10.8199 11.8623 11.2635 11.7189 11.7188 11.7188C11.2635 11.7186 10.8199 11.5752 10.4508 11.3087C10.0817 11.0423 9.80592 10.6664 9.6625 10.2344L9.375 9.375L9.0875 10.2344C8.94408 10.6664 8.66826 11.0423 8.29917 11.3087C7.93008 11.5752 7.48646 11.7186 7.03125 11.7188Z" fill="#FBE47F"/>
<path d="M36.7188 17.9688C37.174 17.9689 37.6176 18.1123 37.9867 18.3788C38.3558 18.6452 38.6316 19.0211 38.775 19.4531L39.0625 20.3125L39.35 19.4531C39.4934 19.0211 39.7692 18.6452 40.1383 18.3788C40.5074 18.1123 40.951 17.9689 41.4062 17.9688C40.951 17.9686 40.5074 17.8252 40.1383 17.5587C39.7692 17.2923 39.4934 16.9164 39.35 16.4844L39.0625 15.625L38.775 16.4844C38.6316 16.9164 38.3558 17.2923 37.9867 17.5587C37.6176 17.8252 37.174 17.9686 36.7188 17.9688Z" fill="#FBE47F"/>
<path d="M14.0625 33.5938C17.5143 33.5938 20.3125 30.7955 20.3125 27.3438C20.3125 23.892 17.5143 21.0938 14.0625 21.0938C10.6107 21.0938 7.8125 23.892 7.8125 27.3438C7.8125 30.7955 10.6107 33.5938 14.0625 33.5938Z" fill="#161D23"/>
<path d="M14.0625 31.25C16.2199 31.25 17.9688 29.5011 17.9688 27.3438C17.9688 25.1864 16.2199 23.4375 14.0625 23.4375C11.9051 23.4375 10.1562 25.1864 10.1562 27.3438C10.1562 29.5011 11.9051 31.25 14.0625 31.25Z" fill="#69737A"/>
<path d="M6.2502 38.2812L5.13379 42.1875H16.7416L15.6252 38.2812H6.2502Z" fill="#DB9D3A"/>
<path d="M15.625 40.6476H12.5V35.9601H15.625V40.6476Z" fill="#43525B"/>
<path d="M9.375 40.6476H6.25V35.9601H9.375V40.6476Z" fill="#43525B"/>
<path d="M1.95332 28.9062H5.46895V27.3438H1.56738C1.57625 27.8871 1.7082 28.4213 1.95332 28.9062Z" fill="#0D2D54"/>
<path d="M48.0922 25.7812C48.335 26.2952 48.4529 26.8593 48.4361 27.4275C48.4193 27.9957 48.2684 28.5519 47.9957 29.0506C47.723 29.5494 47.3362 29.9765 46.8669 30.2973C46.3976 30.618 45.8591 30.8232 45.2953 30.8961L44.5312 31.0008V25.7812H48.0922Z" fill="#205A96"/>
<path d="M48.0469 28.9062H44.5312V27.3438H48.4328C48.4239 27.8871 48.292 28.4213 48.0469 28.9062Z" fill="#0D2D54"/>
<path d="M45.3125 43.75L43.75 38.2812H34.375L32.8125 43.75" fill="#A06C27"/>
<path d="M34.3752 38.2812L33.2588 42.1875H44.8666L43.7502 38.2812H34.3752Z" fill="#DB9D3A"/>
<path d="M20.1391 10.1562H29.8609C30.625 10.1562 31.25 10.625 31.25 11.1977V12.2398C31.25 12.8125 30.625 13.2812 29.8609 13.2812H20.1391C19.375 13.2812 18.75 12.8125 18.75 12.2398V11.1977C18.75 10.625 19.375 10.1562 20.1391 10.1562Z" fill="white"/>
</svg>
