<svg id="Capa_1" enable-background="new 0 0 512 512" height="512" viewBox="0 0 512 512" width="512" xmlns="http://www.w3.org/2000/svg"><g><path d="m503.708 363.084-241-120.5c-4.223-2.111-9.193-2.111-13.416 0l-241 120.5c-5.082 2.54-8.292 7.734-8.292 13.416s3.21 10.876 8.292 13.416l241 120.5c2.111 1.056 4.41 1.584 6.708 1.584s4.597-.528 6.708-1.584l241-120.5c5.082-2.54 8.292-7.734 8.292-13.416s-3.21-10.876-8.292-13.416z" fill="#385a81"/><path d="m503.708 363.084-241-120.5c-2.222-1.111-4.65-1.621-7.068-1.563v270.958c.12.003.24.021.36.021 2.298 0 4.597-.528 6.708-1.584l241-120.5c5.082-2.54 8.292-7.734 8.292-13.416s-3.21-10.876-8.292-13.416z" fill="#274265"/><path d="m503.708 242.584-241-120.5c-4.223-2.111-9.193-2.111-13.416 0l-241 120.5c-5.082 2.54-8.292 7.734-8.292 13.416s3.21 10.876 8.292 13.416l241 120.5c2.111 1.056 4.41 1.584 6.708 1.584s4.597-.528 6.708-1.584l241-120.5c5.082-2.54 8.292-7.735 8.292-13.416s-3.21-10.876-8.292-13.416z" fill="#edf6fc"/><path d="m503.708 242.584-241-120.5c-2.222-1.111-4.65-1.621-7.068-1.563v270.958c.12.003.24.021.36.021 2.298 0 4.597-.528 6.708-1.584l241-120.5c5.082-2.54 8.292-7.735 8.292-13.416s-3.21-10.876-8.292-13.416z" fill="#d2e1fe"/><path d="m503.708 122.084-241-120.5c-4.223-2.111-9.193-2.111-13.416 0l-241 120.5c-5.082 2.54-8.292 7.734-8.292 13.416s3.21 10.876 8.292 13.416l241 120.5c2.111 1.056 4.41 1.584 6.708 1.584s4.597-.528 6.708-1.584l241-120.5c5.082-2.54 8.292-7.734 8.292-13.416s-3.21-10.876-8.292-13.416z" fill="#ff6378"/><path d="m503.708 122.084-241-120.5c-2.222-1.111-4.65-1.621-7.068-1.563v270.958c.12.003.24.021.36.021 2.298 0 4.597-.528 6.708-1.584l241-120.5c5.082-2.54 8.292-7.734 8.292-13.416s-3.21-10.876-8.292-13.416z" fill="#ff1f3d"/></g></svg>