<svg width="50" height="50" viewBox="0 0 50 50" fill="none" xmlns="http://www.w3.org/2000/svg">
<g clip-path="url(#clip0_142_58857)">
<path d="M40.456 36.8911C44.1153 36.8911 47.0818 33.9246 47.0818 30.2652C47.0818 26.6058 44.1153 23.6393 40.456 23.6393C36.7966 23.6393 33.8301 26.6058 33.8301 30.2652C33.8301 33.9246 36.7966 36.8911 40.456 36.8911Z" fill="url(#paint0_linear_142_58857)"/>
<path d="M40.456 36.8911C44.1153 36.8911 47.0818 33.9246 47.0818 30.2652C47.0818 26.6058 44.1153 23.6393 40.456 23.6393C36.7966 23.6393 33.8301 26.6058 33.8301 30.2652C33.8301 33.9246 36.7966 36.8911 40.456 36.8911Z" fill="url(#paint1_linear_142_58857)"/>
<path d="M14.3661 13.2518C18.0255 13.2518 20.992 10.2853 20.992 6.62588C20.992 2.96651 18.0255 0 14.3661 0C10.7067 0 7.74023 2.96651 7.74023 6.62588C7.74023 10.2853 10.7067 13.2518 14.3661 13.2518Z" fill="url(#paint2_linear_142_58857)"/>
<path d="M38.2034 26.6792C43.653 26.6792 48.0708 22.2614 48.0708 16.8118C48.0708 11.3621 43.653 6.94431 38.2034 6.94431C32.7537 6.94431 28.3359 11.3621 28.3359 16.8118C28.3359 22.2614 32.7537 26.6792 38.2034 26.6792Z" fill="url(#paint3_linear_142_58857)"/>
<path d="M38.2034 26.6792C43.653 26.6792 48.0708 22.2614 48.0708 16.8118C48.0708 11.3621 43.653 6.94431 38.2034 6.94431C32.7537 6.94431 28.3359 11.3621 28.3359 16.8118C28.3359 22.2614 32.7537 26.6792 38.2034 26.6792Z" fill="url(#paint4_linear_142_58857)"/>
<path d="M47.7893 19.1604L37.2777 8.64883H32.6592C31.7543 9.26462 30.9571 10.0268 30.3018 10.9016V22.7223C32.1015 25.1247 34.9711 26.6793 38.2039 26.6793C42.8441 26.6792 46.7356 23.476 47.7893 19.1604Z" fill="url(#paint5_linear_142_58857)"/>
<path d="M14.8831 50C20.3327 50 24.7505 45.5822 24.7505 40.1326C24.7505 34.6829 20.3327 30.2651 14.8831 30.2651C9.43343 30.2651 5.01562 34.6829 5.01562 40.1326C5.01562 45.5822 9.43343 50 14.8831 50Z" fill="url(#paint6_linear_142_58857)"/>
<path d="M14.8831 50C20.3327 50 24.7505 45.5822 24.7505 40.1326C24.7505 34.6829 20.3327 30.2651 14.8831 30.2651C9.43343 30.2651 5.01562 34.6829 5.01562 40.1326C5.01562 45.5822 9.43343 50 14.8831 50Z" fill="url(#paint7_linear_142_58857)"/>
<path d="M24.048 47.2106C33.019 47.2106 40.2914 39.9382 40.2914 30.9673C40.2914 21.9963 33.019 14.7239 24.048 14.7239C15.0771 14.7239 7.80469 21.9963 7.80469 30.9673C7.80469 39.9382 15.0771 47.2106 24.048 47.2106Z" fill="url(#paint8_linear_142_58857)"/>
<path d="M33.1882 44.3961C32.5411 44.8372 31.8607 45.2333 31.1509 45.5794C29.0048 46.6245 26.595 47.2108 24.048 47.2108C23.3196 47.2108 22.6029 47.1618 21.8999 47.0686C20.1107 48.8784 17.6274 50 14.8823 50C10.4803 50 6.7519 47.1176 5.48131 43.1363C5.17837 42.1892 5.01465 41.1794 5.01465 40.1323C5.01465 37.3872 6.13622 34.9039 7.94602 33.1157C7.85288 32.4127 7.80484 31.6951 7.80484 30.9676C7.80484 28.649 8.29014 26.4441 9.16563 24.448H13.2401L33.1882 44.3961Z" fill="url(#paint9_linear_142_58857)"/>
<path d="M8.55557 35.7595C12.2149 35.7595 15.1815 32.793 15.1815 29.1336C15.1815 25.4743 12.2149 22.5078 8.55557 22.5078C4.8962 22.5078 1.92969 25.4743 1.92969 29.1336C1.92969 32.793 4.8962 35.7595 8.55557 35.7595Z" fill="url(#paint10_linear_142_58857)"/>
<path d="M32.8295 36.2656C33.3198 36.0402 33.5845 35.3734 33.5845 34.6578C33.5845 33.3341 32.6433 32.8831 31.3981 32.8831C29.7117 32.8831 29.1626 33.8734 29.1626 34.6382C29.1626 35.1086 29.2508 35.2558 29.9568 35.2558C30.5255 35.2558 30.6726 35.0303 30.6726 34.697C30.6726 34.3146 30.9177 34.1969 31.3981 34.1969C31.8001 34.1969 32.1236 34.334 32.1236 34.9028C32.1236 35.697 31.7314 35.746 31.3588 35.746C31.0255 35.746 30.9176 36.0402 30.9176 36.3343C30.9176 36.6284 31.0255 36.9226 31.3588 36.9226C31.8981 36.9226 32.3 37.05 32.3 37.7069V37.8932C32.3 38.5304 32.0648 38.7755 31.3981 38.7755C30.9569 38.7755 30.5255 38.6677 30.5255 38.2069C30.5255 37.8343 30.3686 37.6971 29.7411 37.6971C29.2019 37.6971 29.0156 37.8147 29.0156 38.2559C29.0156 39.0795 29.6628 40.1089 31.3492 40.1089C32.7218 40.1089 33.8297 39.501 33.8297 37.8931V37.7068C33.8296 36.9128 33.408 36.4814 32.8295 36.2656Z" fill="url(#paint11_linear_142_58857)"/>
<path d="M22.7724 21.8256C19.8301 21.8256 17.5488 23.1901 17.5488 26.8572V32.5072C17.5488 36.1742 19.8301 37.5387 22.7724 37.5387C25.7145 37.5387 28.0171 36.1742 28.0171 32.5072V26.8572C28.0171 23.1901 25.7145 21.8256 22.7724 21.8256ZM24.6912 32.5072C24.6912 33.9782 23.9662 34.6392 22.7724 34.6392C21.5783 34.6392 20.8748 33.9782 20.8748 32.5072V26.8572C20.8748 25.3861 21.5783 24.7252 22.7724 24.7252C23.9663 24.7252 24.6912 25.3861 24.6912 26.8572V32.5072Z" fill="url(#paint12_linear_142_58857)"/>
<path d="M29.9393 15.709C28.5233 12.9205 26.1852 10.6792 23.3255 9.38825C23.0087 9.24521 23.0087 8.79188 23.3255 8.64884C26.1852 7.35786 28.5233 5.11658 29.9393 2.32805C30.09 2.03119 30.5129 2.03119 30.6637 2.32805C32.0797 5.11658 34.4177 7.35786 37.2774 8.64884C37.5943 8.79188 37.5943 9.24531 37.2774 9.38825C34.4177 10.6792 32.0797 12.9205 30.6637 15.709C30.5129 16.0059 30.09 16.0059 29.9393 15.709Z" fill="url(#paint13_linear_142_58857)"/>
<path d="M4.6865 47.8404C3.71797 45.9329 2.11875 44.4 0.162574 43.5169C-0.0541912 43.419 -0.0541912 43.1089 0.162574 43.0111C2.11865 42.128 3.71787 40.595 4.6865 38.6876C4.78963 38.4845 5.07885 38.4845 5.18199 38.6876C6.15052 40.595 7.74983 42.128 9.70591 43.0111C9.92267 43.1089 9.92267 43.419 9.70591 43.5169C7.74983 44.3999 6.15061 45.9329 5.18199 47.8404C5.07885 48.0434 4.78953 48.0434 4.6865 47.8404Z" fill="url(#paint14_linear_142_58857)"/>
<path d="M44.8183 46.4677C43.8497 44.5602 42.2504 43.0273 40.2943 42.1441C40.0777 42.0463 40.0777 41.7362 40.2943 41.6383C42.2504 40.7553 43.8496 39.2223 44.8183 37.3148C44.9214 37.1118 45.2106 37.1118 45.3137 37.3148C46.2823 39.2223 47.8816 40.7552 49.8377 41.6383C50.0544 41.7362 50.0544 42.0463 49.8377 42.1441C47.8816 43.0272 46.2824 44.5602 45.3137 46.4677C45.2106 46.6707 44.9213 46.6707 44.8183 46.4677Z" fill="url(#paint15_linear_142_58857)"/>
<path d="M25.7119 36.9199L23.3659 34.5739C23.1838 34.6171 22.9859 34.6392 22.7724 34.6392C21.5783 34.6392 20.8748 33.9782 20.8748 32.5072V32.0828L17.5488 28.7569V32.5072C17.5488 36.1742 19.8301 37.5387 22.7724 37.5387C23.8701 37.5387 24.8785 37.3485 25.7119 36.9199Z" fill="url(#paint16_linear_142_58857)"/>
</g>
<defs>
<linearGradient id="paint0_linear_142_58857" x1="37.1851" y1="26.9942" x2="44.1429" y2="33.9522" gradientUnits="userSpaceOnUse">
<stop stop-color="#EAF6FF"/>
<stop offset="1" stop-color="#B3DAFE"/>
</linearGradient>
<linearGradient id="paint1_linear_142_58857" x1="43.1022" y1="32.9115" x2="36.8223" y2="26.6315" gradientUnits="userSpaceOnUse">
<stop stop-color="#D8ECFE" stop-opacity="0"/>
<stop offset="1" stop-color="#678D98"/>
</linearGradient>
<linearGradient id="paint2_linear_142_58857" x1="11.0951" y1="3.355" x2="18.053" y2="10.3128" gradientUnits="userSpaceOnUse">
<stop stop-color="#EAF6FF"/>
<stop offset="1" stop-color="#B3DAFE"/>
</linearGradient>
<linearGradient id="paint3_linear_142_58857" x1="33.3323" y1="11.9407" x2="43.6941" y2="22.3024" gradientUnits="userSpaceOnUse">
<stop stop-color="#EAF6FF"/>
<stop offset="1" stop-color="#B3DAFE"/>
</linearGradient>
<linearGradient id="paint4_linear_142_58857" x1="38.2609" y1="16.638" x2="35.0583" y2="26.3113" gradientUnits="userSpaceOnUse">
<stop stop-color="#D8ECFE" stop-opacity="0"/>
<stop offset="1" stop-color="#678D98"/>
</linearGradient>
<linearGradient id="paint5_linear_142_58857" x1="35.9777" y1="17.9444" x2="30.2665" y2="12.2331" gradientUnits="userSpaceOnUse">
<stop stop-color="#D8ECFE" stop-opacity="0"/>
<stop offset="1" stop-color="#678D98"/>
</linearGradient>
<linearGradient id="paint6_linear_142_58857" x1="10.012" y1="35.2615" x2="20.3738" y2="45.6232" gradientUnits="userSpaceOnUse">
<stop stop-color="#EAF6FF"/>
<stop offset="1" stop-color="#B3DAFE"/>
</linearGradient>
<linearGradient id="paint7_linear_142_58857" x1="8.93876" y1="40.673" x2="23.5314" y2="39.3464" gradientUnits="userSpaceOnUse">
<stop stop-color="#D8ECFE" stop-opacity="0"/>
<stop offset="1" stop-color="#678D98"/>
</linearGradient>
<linearGradient id="paint8_linear_142_58857" x1="16.0294" y1="22.9486" x2="33.0865" y2="40.0058" gradientUnits="userSpaceOnUse">
<stop stop-color="#EAF6FF"/>
<stop offset="1" stop-color="#B3DAFE"/>
</linearGradient>
<linearGradient id="paint9_linear_142_58857" x1="16.8439" y1="38.499" x2="5.20994" y2="13.4663" gradientUnits="userSpaceOnUse">
<stop stop-color="#D8ECFE" stop-opacity="0"/>
<stop offset="1" stop-color="#678D98"/>
</linearGradient>
<linearGradient id="paint10_linear_142_58857" x1="5.10332" y1="25.6814" x2="12.2956" y2="32.8736" gradientUnits="userSpaceOnUse">
<stop stop-color="#EAF6FF"/>
<stop offset="1" stop-color="#B3DAFE"/>
</linearGradient>
<linearGradient id="paint11_linear_142_58857" x1="28.6118" y1="33.7261" x2="35.3248" y2="40.439" gradientUnits="userSpaceOnUse">
<stop stop-color="#26A6FE"/>
<stop offset="0.1852" stop-color="#27A0FB"/>
<stop offset="0.4202" stop-color="#2990F1"/>
<stop offset="0.6819" stop-color="#2C76E2"/>
<stop offset="0.9614" stop-color="#3052CC"/>
<stop offset="1" stop-color="#314DC9"/>
</linearGradient>
<linearGradient id="paint12_linear_142_58857" x1="18.2151" y1="25.119" x2="28.8534" y2="35.7573" gradientUnits="userSpaceOnUse">
<stop stop-color="#26A6FE"/>
<stop offset="0.1852" stop-color="#27A0FB"/>
<stop offset="0.4202" stop-color="#2990F1"/>
<stop offset="0.6819" stop-color="#2C76E2"/>
<stop offset="0.9614" stop-color="#3052CC"/>
<stop offset="1" stop-color="#314DC9"/>
</linearGradient>
<linearGradient id="paint13_linear_142_58857" x1="27.05" y1="5.76707" x2="34.8673" y2="13.5843" gradientUnits="userSpaceOnUse">
<stop stop-color="#FEDF30"/>
<stop offset="1" stop-color="#FE7701"/>
</linearGradient>
<linearGradient id="paint14_linear_142_58857" x1="3.95885" y1="42.2887" x2="9.30355" y2="47.6333" gradientUnits="userSpaceOnUse">
<stop stop-color="#FEDF30"/>
<stop offset="1" stop-color="#FE7701"/>
</linearGradient>
<linearGradient id="paint15_linear_142_58857" x1="44.1595" y1="40.9848" x2="49.1201" y2="45.9455" gradientUnits="userSpaceOnUse">
<stop stop-color="#FEDF30"/>
<stop offset="1" stop-color="#FE7701"/>
</linearGradient>
<linearGradient id="paint16_linear_142_58857" x1="28.9368" y1="43.2199" x2="5.5052" y2="19.7883" gradientUnits="userSpaceOnUse">
<stop stop-color="#314DC9" stop-opacity="0"/>
<stop offset="0.4908" stop-color="#2D48BF" stop-opacity="0.491"/>
<stop offset="1" stop-color="#2740B0"/>
</linearGradient>
<clipPath id="clip0_142_58857">
<rect width="50" height="50" fill="white"/>
</clipPath>
</defs>
</svg>
