<svg id="Layer_3" height="512" viewBox="0 0 64 64" width="512" xmlns="http://www.w3.org/2000/svg" data-name="Layer 3"><path d="m30 62a4.162 4.162 0 0 1 -3.949-2.846l-1.858-5.576a3.745 3.745 0 0 1 -.193-1.187 3.751 3.751 0 0 1 4.337-3.706l11.663 2.315h6v-13a11.391 11.391 0 0 1 2.5-7.123l1.5-1.877v-5a4 4 0 0 1 4-4h4a4 4 0 0 1 4 4v2l-2.617 31.015a5.4 5.4 0 0 1 -5.383 4.985z" fill="#43525b"/><path d="m59 24v-2a3.959 3.959 0 0 0 -.529-1.953 4.061 4.061 0 0 0 -.471-.047h-4a4 4 0 0 0 -4 4v5l-1.5 1.877a11.391 11.391 0 0 0 -2.5 7.123v13h-6l-11.663-2.315a3.744 3.744 0 0 0 -4.193 2.723l18.856 3.592 13.233.882a5.271 5.271 0 0 0 .15-.867z" fill="#69737a"/><path d="m61 5a3 3 0 0 0 -3-3h-4a3 3 0 0 0 -3 3v8a3 3 0 0 0 3 3h4a3 3 0 0 0 3-3z" fill="#69737a"/><path d="m54 2a3 3 0 0 0 -3 3v8c0 .083.018.16.024.242a2.98 2.98 0 0 0 1.976.758h4a3 3 0 0 0 3-3v-8c0-.083-.018-.16-.024-.242a2.98 2.98 0 0 0 -1.976-.758z" fill="#91989d"/><path d="m54 16h4v4h-4z" fill="#43525b"/><path d="m11 48h-6a3 3 0 0 0 -3 3v11h16a2 2 0 0 0 2-2v-3a9 9 0 0 0 -9-9z" fill="#377d63"/><path d="m11 48h-6a2.983 2.983 0 0 0 -.86.14 2.983 2.983 0 0 0 -.14.86v11h16v-3a9 9 0 0 0 -9-9z" fill="#409272"/><circle cx="8" cy="59" fill="#43525b" r="3"/><path d="m4 50h2v4h-2z" fill="#91989d"/><path d="m7 50h2v4h-2z" fill="#91989d"/><path d="m5 48v-4h6v4" fill="#2f6d56"/><path d="m30 42.32a2.774 2.774 0 0 1 2.632 1.9l.368 1.1.368-1.1a2.774 2.774 0 0 1 2.632-1.9 2.774 2.774 0 0 1 -2.632-1.9l-.368-1.1-.368 1.1a2.774 2.774 0 0 1 -2.632 1.9z" fill="#fbe47f"/><path d="m17 16 .272-1.088a3.843 3.843 0 0 1 3.728-2.912 3.843 3.843 0 0 1 -3.729-2.912l-.271-1.088-.272 1.088a3.843 3.843 0 0 1 -3.728 2.912 3.843 3.843 0 0 1 3.729 2.912z" fill="#fbe47f"/><path d="m37 58h22v-1a6 6 0 0 0 -6-6h-13l-11.663-2.315a3.751 3.751 0 0 0 -4.144 4.893l.14.422h8.667z" fill="#91989d"/><path d="m13 55a6.826 6.826 0 0 0 4.828 2h2.172a9 9 0 0 0 -9-9v2.172a6.826 6.826 0 0 0 2 4.828z" fill="#bad9f0"/><path d="m5 44h6v3h-6z" fill="#377d63"/><path d="m9 44h-2v-19a3 3 0 0 1 6 0v13a1 1 0 0 0 2 0v-3.343a14.569 14.569 0 0 1 2.809-8.629l1.075-1.315 1.547 1.266-1.04 1.271a12.55 12.55 0 0 0 -2.391 7.407v3.343a3 3 0 0 1 -6 0v-13a1 1 0 0 0 -2 0z" fill="#aab1b7"/><path d="m40.472 9.472 2.528 2.528-6 6-2.529-2.529" fill="#296cb2"/><path d="m33.5 8.5-2.5-2.5-6.5 6.5a3.535 3.535 0 0 1 0 5l-7.5 7.5 3 3 11.3-11.3z" fill="#377d63"/><path d="m37 5-5.834 5.834a3.979 3.979 0 0 0 -1.166 2.814 3.978 3.978 0 0 0 .823 2.424l1.349 1.756 8.828-8.828z" fill="#235743"/><path d="m30 13.648a3.978 3.978 0 0 0 .823 2.424l.48.625 8.697-8.697-3-3-5.834 5.834a3.979 3.979 0 0 0 -1.166 2.814z" fill="#2f6d56"/><path d="m33.993 12.155h8.485v2.162h-8.485z" fill="#1b4b81" transform="matrix(.707 -.707 .707 .707 1.838 30.91)"/><circle cx="8" cy="59" fill="#69737a" r="1"/></svg>