<svg width="61" height="61" viewBox="0 0 61 61" fill="none" xmlns="http://www.w3.org/2000/svg">
<path d="M57.3696 41.3457L60.9456 18.5125C61.3174 16.1955 59.7408 14.0153 57.4237 13.6424L9.17049 5.89758C6.85345 5.52574 4.67342 7.10233 4.30158 9.41937L2.58691 20.0976V41.2128L57.3696 41.3457Z" fill="#146AA8"/>
<path d="M57.4236 13.6424L43.7186 11.4433C34.514 25.5275 19.6339 35.2825 8.22266 41.2266L57.3694 41.3456L60.9454 18.5125C61.3172 16.1953 59.7406 14.0153 57.4236 13.6424Z" fill="#126099"/>
<path d="M4.24962 19.0352H53.1201C55.4669 19.0352 57.3697 20.9379 57.3697 23.2848V50.9072C57.3697 53.2541 55.4669 55.1569 53.1201 55.1569H4.24962C1.90279 55.1567 0 53.2541 0 50.9072V23.2848C0 20.9379 1.90279 19.0352 4.24962 19.0352Z" fill="#4398D1"/>
<path d="M53.1202 19.0352H52.2702C42.2411 36.84 23.5015 49.0533 12.0615 55.1567H53.1202C55.467 55.1567 57.3698 53.2539 57.3698 50.9071V23.2848C57.3698 20.9379 55.467 19.0352 53.1202 19.0352Z" fill="#3E8CC7"/>
<path d="M15.9355 24.3472H5.31152V32.8464H15.9355V24.3472Z" fill="#FDB62F"/>
<path d="M8.49877 27.5344H5.31152V29.6592H8.49877V27.5344Z" fill="#FD7B2F"/>
<path d="M15.9353 27.5344H12.748V29.6592H15.9353V27.5344Z" fill="#FD7B2F"/>
<path d="M10.6244 40.2831H4.25V42.4079H10.6244V40.2831Z" fill="#87CED9"/>
<path d="M21.2484 40.2831H14.874V42.4079H21.2484V40.2831Z" fill="#87CED9"/>
<path d="M31.8724 40.2831H25.498V42.4079H31.8724V40.2831Z" fill="#87CED9"/>
<path d="M31.8725 46.6577H4.25V48.7824H31.8725V46.6577Z" fill="#87CED9"/>
<path d="M39.3093 24.3472H37.1846V28.5968H39.3093V24.3472Z" fill="#87CED9"/>
<path d="M43.5583 24.3472H41.4336V28.5968H43.5583V24.3472Z" fill="#87CED9"/>
<path d="M47.8083 24.3472H45.6836V28.5968H47.8083V24.3472Z" fill="#87CED9"/>
<path d="M52.0583 24.3472H49.9336V28.5968H52.0583V24.3472Z" fill="#87CED9"/>
</svg>
