<svg width="27" height="25" viewBox="0 0 27 25" fill="none" xmlns="http://www.w3.org/2000/svg">
<g clip-path="url(#clip0_117_4877)">
<path d="M12.1136 21.0059C11.4523 21.0059 10.8817 20.5248 10.8041 19.8721L10.2466 15.1824L5.66545 14.3766C4.94822 14.2504 4.47219 13.5841 4.6022 12.8883C4.73227 12.1926 5.41931 11.7308 6.13639 11.8569L11.6811 12.8322C12.2533 12.9328 12.6901 13.3849 12.7568 13.9453L13.4264 19.5788C13.5099 20.2812 12.9906 20.9164 12.2665 20.9974C12.2152 21.0031 12.1641 21.0059 12.1136 21.0059Z" fill="#55696E"/>
<path d="M16.5552 9.25784C16.4244 8.68242 15.8376 8.3187 15.2443 8.4457L11.95 9.15042L11.82 8.73184C11.82 8.73184 10.272 8.72704 9.50464 8.67429L10.1379 10.7132C10.3045 11.2495 10.8684 11.567 11.4279 11.4473L15.718 10.5295C16.3112 10.4026 16.686 9.83325 16.5552 9.25784Z" fill="#A5593F"/>
<path d="M11.8201 8.73207L11.0896 6.3803C10.9143 5.81606 10.3007 5.49646 9.71915 5.66652C9.13749 5.83653 8.80809 6.43173 8.98334 6.99593L9.86033 9.81951L11.8201 8.73207Z" fill="#F2C41B"/>
<path d="M20.273 11.1974L24.9039 11.4659L25.0492 10.6726C25.0855 10.4746 24.9495 10.2857 24.7455 10.2505L16.3014 8.79498C16.0973 8.75981 15.9026 8.89177 15.8663 9.08964L15.5657 10.731L20.273 11.1974Z" fill="#A5C8CD"/>
<path d="M24.8636 11.6857L24.9129 11.4163L15.5921 10.5864L15.4891 11.1488C15.4563 11.3275 15.5274 11.5092 15.6741 11.6219L15.8602 11.7649C15.9411 11.827 16.0544 11.8306 16.1393 11.7735L16.5646 11.4879C16.6494 11.4309 16.7627 11.4345 16.8437 11.4967L17.2492 11.8082C17.3301 11.8703 17.4434 11.8739 17.5283 11.8169L17.9537 11.5313C18.0386 11.4743 18.1519 11.4779 18.2328 11.54L18.6385 11.8516C18.7194 11.9138 18.8327 11.9173 18.9176 11.8603L19.3431 11.5747C19.4279 11.5177 19.5412 11.5213 19.6222 11.5834L20.0279 11.895C20.1088 11.9572 20.2221 11.9607 20.307 11.9037L20.7325 11.6181C20.8174 11.5611 20.9307 11.5646 21.0116 11.6268L21.4174 11.9384C21.4983 12.0006 21.6116 12.0041 21.6965 11.9471L22.1219 11.6615C22.2068 11.6045 22.3201 11.608 22.401 11.6702L22.8069 11.9818C22.8878 12.044 23.0011 12.0475 23.0859 11.9905L23.5117 11.7048C23.5966 11.6478 23.7098 11.6513 23.7908 11.7135L24.2036 12.0136C24.2903 12.0766 24.4089 12.0788 24.498 12.019L24.7589 11.8439C24.8141 11.8069 24.8518 11.7499 24.8636 11.6857Z" fill="#C8E6EB"/>
<path d="M16.4392 11.5007L16.8748 9.1225C16.9546 8.68629 16.6554 8.27045 16.2056 8.19292L14.3714 7.8767C13.9228 7.79936 13.4929 8.09055 13.4132 8.52578L12.9775 10.904C12.8976 11.3402 13.1968 11.756 13.6466 11.8336L15.4808 12.1497C15.9306 12.2273 16.3592 11.9371 16.4392 11.5007ZM15.6036 11.4798L14.2972 11.2545L14.7765 8.63785L16.0829 8.86306C16.1272 8.8707 16.1524 8.89759 16.1634 8.91297C16.1745 8.92835 16.1919 8.96053 16.184 9.00348L15.7483 11.3817C15.7405 11.4247 15.7127 11.4491 15.6969 11.4598C15.6811 11.4705 15.6479 11.4873 15.6036 11.4798Z" fill="#E64937"/>
<path d="M23.5578 24.9999C23.3668 24.9999 23.1757 24.9303 23.0284 24.7905L11.3749 13.7383C11.0758 13.4546 11.0704 12.9895 11.3628 12.6993C11.6552 12.4092 12.1348 12.4039 12.4338 12.6876L24.0873 23.7399C24.3864 24.0236 24.3917 24.4887 24.0993 24.7788C23.951 24.926 23.7544 24.9999 23.5578 24.9999Z" fill="#783C28"/>
<path d="M11.9044 24.9999C11.7077 24.9999 11.5112 24.9261 11.3628 24.7788C11.0704 24.4887 11.0758 24.0236 11.3749 23.7399L23.0284 12.6876C23.3275 12.4039 23.807 12.4092 24.0994 12.6993C24.3918 12.9895 24.3864 13.4546 24.0873 13.7383L12.4338 24.7906C12.2865 24.9303 12.0954 24.9999 11.9044 24.9999Z" fill="#A55A3C"/>
<path d="M1.53093 24.9586C0.82541 24.7807 0.40214 24.0817 0.585475 23.3973L3.33322 13.1403C3.51661 12.4559 4.23717 12.0453 4.94264 12.2231C5.64815 12.4009 6.07142 13.0999 5.88814 13.7843L3.14039 24.0414C2.95701 24.7257 2.23665 25.1364 1.53093 24.9586Z" fill="#748488"/>
<path d="M6.70452 13.9459L3.35254 13.0396L5.47389 5.65682C5.70226 4.86213 6.55148 4.39745 7.3707 4.61894L10.016 5.33419C10.8352 5.55573 11.3142 6.37952 11.0859 7.17421L9.5945 12.3646C9.24656 13.5754 7.95272 14.2834 6.70452 13.9459Z" fill="#FFDA52"/>
<path d="M9.50024 4.42307C10.7592 4.42307 11.7798 3.43304 11.7798 2.21178C11.7798 0.990516 10.7592 0.000488281 9.50024 0.000488281C8.24129 0.000488281 7.2207 0.990516 7.2207 2.21178C7.2207 3.43304 8.24129 4.42307 9.50024 4.42307Z" fill="#BA6746"/>
<path d="M24.0204 21.9757H11.4422C11.0239 21.9757 10.6848 21.6468 10.6848 21.241C10.6848 20.8353 11.0239 20.5063 11.4422 20.5063H24.0204C24.4386 20.5063 24.7777 20.8353 24.7777 21.241C24.7777 21.6468 24.4386 21.9757 24.0204 21.9757Z" fill="#A55A3C"/>
<path d="M25.6796 14.0901H9.78253C9.486 14.0901 9.24561 13.8569 9.24561 13.5692V12.6517C9.24561 12.3641 9.486 12.1309 9.78253 12.1309H25.6797C25.9762 12.1309 26.2166 12.3641 26.2166 12.6517V13.5692C26.2165 13.8569 25.9762 14.0901 25.6796 14.0901Z" fill="#783C28"/>
<path d="M13.6408 10.1961L9.89901 9.52791L9.41843 8.42347L8.10959 8.16113L7.396 9.25852L8.10873 10.8936C8.25375 11.2221 8.55851 11.4584 8.92079 11.5231L13.2426 12.2947C13.8405 12.4016 14.4136 12.0174 14.5234 11.4386C14.6333 10.859 14.2382 10.3028 13.6408 10.1961Z" fill="#BA6746"/>
<path d="M9.41841 8.42365L8.30351 5.86138C8.06443 5.31966 7.41784 5.06815 6.8595 5.30036C6.30107 5.53228 6.0421 6.15942 6.28118 6.70113L7.39603 9.25866L9.41841 8.42365Z" fill="#F2C41B"/>
</g>
<defs>
<clipPath id="clip0_117_4877">
<rect width="25.7716" height="25" fill="white" transform="translate(0.493896)"/>
</clipPath>
</defs>
</svg>
