<svg version="1.1" id="Capa_1" xmlns="http://www.w3.org/2000/svg" xmlns:xlink="http://www.w3.org/1999/xlink" x="0px" y="0px" viewBox="0 0 512 512" style="enable-background:new 0 0 512 512;" xml:space="preserve"><g><g><path style="fill:#687492;" d="M102.4,512c-4.719,0-8.533-3.823-8.533-8.533v-25.6c0-4.71,3.814-8.533,8.533-8.533c4.719,0,8.533,3.823,8.533,8.533v25.6C110.933,508.177,107.119,512,102.4,512"></path><path style="fill:#687492;" d="M136.533,512c-4.719,0-8.533-3.823-8.533-8.533v-25.6c0-4.71,3.814-8.533,8.533-8.533s8.533,3.823,8.533,8.533v25.6C145.067,508.177,141.252,512,136.533,512"></path><path style="fill:#687492;" d="M170.667,512c-4.719,0-8.533-3.823-8.533-8.533v-25.6c0-4.71,3.814-8.533,8.533-8.533c4.719,0,8.533,3.823,8.533,8.533v25.6C179.2,508.177,175.386,512,170.667,512"></path><path style="fill:#687492;" d="M204.8,512c-4.719,0-8.533-3.823-8.533-8.533v-25.6c0-4.71,3.814-8.533,8.533-8.533c4.719,0,8.533,3.823,8.533,8.533v25.6C213.333,508.177,209.519,512,204.8,512"></path><path style="fill:#687492;" d="M238.933,512c-4.719,0-8.533-3.823-8.533-8.533v-25.6c0-4.71,3.814-8.533,8.533-8.533c4.719,0,8.533,3.823,8.533,8.533v25.6C247.467,508.177,243.652,512,238.933,512"></path><path style="fill:#687492;" d="M273.067,512c-4.719,0-8.533-3.823-8.533-8.533v-25.6c0-4.71,3.814-8.533,8.533-8.533s8.533,3.823,8.533,8.533v25.6C281.6,508.177,277.786,512,273.067,512"></path><path style="fill:#687492;" d="M307.2,512c-4.719,0-8.533-3.823-8.533-8.533v-25.6c0-4.71,3.814-8.533,8.533-8.533s8.533,3.823,8.533,8.533v25.6C315.733,508.177,311.919,512,307.2,512"></path><path style="fill:#687492;" d="M341.333,512c-4.719,0-8.533-3.823-8.533-8.533v-25.6c0-4.71,3.814-8.533,8.533-8.533s8.533,3.823,8.533,8.533v25.6C349.867,508.177,346.052,512,341.333,512"></path><path style="fill:#687492;" d="M375.467,512c-4.719,0-8.533-3.823-8.533-8.533v-25.6c0-4.71,3.814-8.533,8.533-8.533c4.719,0,8.533,3.823,8.533,8.533v25.6C384,508.177,380.186,512,375.467,512"></path><path style="fill:#687492;" d="M409.6,512c-4.719,0-8.533-3.823-8.533-8.533v-25.6c0-4.71,3.814-8.533,8.533-8.533c4.719,0,8.533,3.823,8.533,8.533v25.6C418.133,508.177,414.319,512,409.6,512"></path><path style="fill:#687492;" d="M102.4,42.667c-4.719,0-8.533-3.823-8.533-8.533v-25.6C93.867,3.823,97.681,0,102.4,0c4.719,0,8.533,3.823,8.533,8.533v25.6C110.933,38.844,107.119,42.667,102.4,42.667"></path><path style="fill:#687492;" d="M136.533,42.667c-4.719,0-8.533-3.823-8.533-8.533v-25.6C128,3.823,131.814,0,136.533,0s8.533,3.823,8.533,8.533v25.6C145.067,38.844,141.252,42.667,136.533,42.667"></path><path style="fill:#687492;" d="M170.667,42.667c-4.719,0-8.533-3.823-8.533-8.533v-25.6c0-4.71,3.814-8.533,8.533-8.533c4.719,0,8.533,3.823,8.533,8.533v25.6C179.2,38.844,175.386,42.667,170.667,42.667"></path><path style="fill:#687492;" d="M204.8,42.667c-4.719,0-8.533-3.823-8.533-8.533v-25.6c0-4.71,3.814-8.533,8.533-8.533c4.719,0,8.533,3.823,8.533,8.533v25.6C213.333,38.844,209.519,42.667,204.8,42.667"></path><path style="fill:#687492;" d="M238.933,42.667c-4.719,0-8.533-3.823-8.533-8.533v-25.6c0-4.71,3.814-8.533,8.533-8.533c4.719,0,8.533,3.823,8.533,8.533v25.6C247.467,38.844,243.652,42.667,238.933,42.667"></path><path style="fill:#687492;" d="M273.067,42.667c-4.719,0-8.533-3.823-8.533-8.533v-25.6c0-4.71,3.814-8.533,8.533-8.533s8.533,3.823,8.533,8.533v25.6C281.6,38.844,277.786,42.667,273.067,42.667"></path><path style="fill:#687492;" d="M307.2,42.667c-4.719,0-8.533-3.823-8.533-8.533v-25.6c0-4.71,3.814-8.533,8.533-8.533s8.533,3.823,8.533,8.533v25.6C315.733,38.844,311.919,42.667,307.2,42.667"></path><path style="fill:#687492;" d="M341.333,42.667c-4.719,0-8.533-3.823-8.533-8.533v-25.6c0-4.71,3.814-8.533,8.533-8.533s8.533,3.823,8.533,8.533v25.6C349.867,38.844,346.052,42.667,341.333,42.667"></path><path style="fill:#687492;" d="M375.467,42.667c-4.719,0-8.533-3.823-8.533-8.533v-25.6c0-4.71,3.814-8.533,8.533-8.533C380.186,0,384,3.823,384,8.533v25.6C384,38.844,380.186,42.667,375.467,42.667"></path><path style="fill:#687492;" d="M409.6,42.667c-4.719,0-8.533-3.823-8.533-8.533v-25.6c0-4.71,3.814-8.533,8.533-8.533c4.719,0,8.533,3.823,8.533,8.533v25.6C418.133,38.844,414.319,42.667,409.6,42.667"></path></g><path style="fill:#BEC1D1;" d="M409.6,486.4H102.4c-4.719,0-8.533-3.823-8.533-8.533V34.133c0-4.71,3.814-8.533,8.533-8.533h307.2c4.719,0,8.533,3.823,8.533,8.533v443.733C418.133,482.577,414.319,486.4,409.6,486.4"></path><polygon style="fill:#687492;" points="136.533,443.733 375.467,443.733 375.467,68.267 136.533,68.267 "></polygon><g><polygon style="fill:#49556D;" points="136.533,119.946 136.533,144.079 212.352,68.268 188.22,68.268 "></polygon><polygon style="fill:#49556D;" points="136.533,186.255 136.533,210.259 280.081,68.264 255.821,68.264 "></polygon><polygon style="fill:#49556D;" points="136.533,273.596 343.962,68.267 319.71,68.267 136.533,249.591 "></polygon><polygon style="fill:#49556D;" points="136.533,332.3 375.467,93.367 375.467,69.234 136.533,308.168 "></polygon><polygon style="fill:#49556D;" points="136.533,392.633 375.467,153.7 375.467,129.568 136.533,368.501 "></polygon><polygon style="fill:#49556D;" points="375.467,191.9 136.533,427.565 136.533,443.736 144.444,443.736 375.467,215.87 "></polygon><polygon style="fill:#49556D;" points="204.3,443.733 375.47,272.563 375.47,248.431 180.168,443.733 "></polygon><polygon style="fill:#49556D;" points="264.633,443.733 375.464,332.902 375.464,308.77 240.501,443.733 "></polygon><polygon style="fill:#49556D;" points="324.367,443.733 375.464,392.636 375.464,368.503 300.234,443.733 "></polygon></g></g><g></g><g></g><g></g><g></g><g></g><g></g><g></g><g></g><g></g><g></g><g></g><g></g><g></g><g></g><g></g></svg>