<svg width="56" height="40" viewBox="0 0 56 40" fill="none" xmlns="http://www.w3.org/2000/svg">
<g clip-path="url(#clip0_44_1737)">
<path d="M56 8H0V40H56V8Z" fill="#56B46F"/>
<path d="M52 8H1.59998V4L52 8Z" fill="#74BE86"/>
<path d="M41.6 24.4C41.6 31.6904 35.6905 37.6 28.4 37.6C21.1096 37.6 15.2 31.6904 15.2 24.4C15.2 17.1095 21.1096 11.2 28.4 11.2C35.6905 11.2 41.6 17.1095 41.6 24.4Z" fill="#4D8157"/>
<path d="M20.8 35.2001C17.1653 32.8572 14.7416 28.7234 14.7416 24C14.7416 19.2767 17.1653 15.1429 20.8 12.8H10.7401C10.755 12.968 10.7649 13.1371 10.7649 13.3091C10.7649 16.4024 8.31633 18.9091 5.29707 18.9091C5.12905 18.9091 4.96402 18.899 4.79999 18.8837V29.1164C4.96402 29.1011 5.12905 29.091 5.29707 29.091C8.31633 29.091 10.7649 31.5977 10.7649 34.691C10.7649 34.863 10.755 35.0321 10.7401 35.2001H20.8Z" fill="#EAEAD7"/>
<path d="M50.7029 18.9091C47.6827 18.9091 45.2351 16.4024 45.2351 13.3091C45.2351 13.1371 45.245 12.968 45.2599 12.8H35.2C38.8347 15.1429 41.2584 19.2767 41.2584 24C41.2584 28.7234 38.8347 32.8572 35.2 35.2001H45.2599C45.245 35.0321 45.2351 34.863 45.2351 34.691C45.2351 31.5977 47.6827 29.091 50.7029 29.091C50.8709 29.091 51.036 29.1011 51.2 29.1164V18.8837C51.036 18.899 50.8709 18.9091 50.7029 18.9091Z" fill="#EAEAD7"/>
<path d="M5.60001 16C4.27617 16 3.20001 14.9238 3.20001 13.6C3.20001 12.2761 4.27617 11.2 5.60001 11.2C6.92385 11.2 8.00001 12.2761 8.00001 13.6C8.00001 14.9238 6.92385 16 5.60001 16Z" fill="#EAEAD7"/>
<path d="M50.4 16C49.0762 16 48 14.9238 48 13.6C48 12.2761 49.0762 11.2 50.4 11.2C51.7238 11.2 52.8 12.2761 52.8 13.6C52.8 14.9238 51.7238 16 50.4 16Z" fill="#EAEAD7"/>
<path d="M5.60001 36.8C4.27617 36.8 3.20001 35.7238 3.20001 34.4C3.20001 33.0762 4.27617 32 5.60001 32C6.92385 32 8.00001 33.0762 8.00001 34.4C8.00001 35.7238 6.92385 36.8 5.60001 36.8Z" fill="#EAEAD7"/>
<path d="M50.4 36.8C49.0762 36.8 48 35.7238 48 34.4C48 33.0762 49.0762 32 50.4 32C51.7238 32 52.8 33.0762 52.8 34.4C52.8 35.7238 51.7238 36.8 50.4 36.8Z" fill="#EAEAD7"/>
<path d="M4.79999 0V4.24L52.176 8H55.2L4.79999 0Z" fill="#83C38E"/>
<path d="M33.7381 26.9975C34.4544 26.7813 34.9811 26.1367 34.9811 25.3702V24.5152C34.9811 23.8597 34.5936 23.2937 34.0347 23.0067C33.6473 19.7893 31.464 18.4872 27.9541 18.4872C27.7886 18.4872 27.6252 18.4931 27.4658 18.5059C26.2723 18.5983 25.0656 18.3801 24.0739 17.7286C23.6612 17.4574 23.3142 17.1704 23.07 16.8677C22.958 16.7302 22.7351 16.8176 22.7562 16.9925C22.7916 17.2913 22.843 17.6411 22.9217 18.0224C23.2113 19.4424 23.0377 19.2351 22.4737 20.5755C22.162 21.3165 21.9612 22.139 21.8674 23.0097C21.3125 23.2986 20.9271 23.8617 20.9271 24.5152V25.3702C20.9271 26.1367 21.4548 26.7813 22.1701 26.9975C22.6453 28.7291 23.6209 30.1137 25.3188 30.8262V31.8059C25.3188 32.0565 25.1726 32.2845 24.9425 32.3955L21.5516 34.0229C21.258 34.1782 21.0159 34.3914 20.8 34.6263C22.8904 35.9982 25.4096 36.8 28.1206 36.8C30.7306 36.8 33.157 36.0483 35.2 34.7678C34.9488 34.471 34.633 34.2234 34.2657 34.0445L30.9576 32.3975C30.7316 32.2855 30.5893 32.0595 30.5893 31.8128V30.8262C32.2873 30.1137 33.2629 28.7291 33.7381 26.9975Z" fill="#EAEAD7"/>
</g>
<defs>
<clipPath id="clip0_44_1737">
<rect width="56" height="40" fill="white"/>
</clipPath>
</defs>
</svg>
