<svg width="30" height="30" viewBox="0 0 30 30" fill="none" xmlns="http://www.w3.org/2000/svg">
<path d="M15.0002 24.602C13.2445 24.602 11.8213 23.1787 11.8213 21.4231V18.9197H18.1791V21.4231C18.1791 23.1787 16.7558 24.602 15.0002 24.602Z" fill="#FEC165"/>
<path d="M15 15.5962C14.7573 15.5962 14.5605 15.3994 14.5605 15.1567V0.439453C14.5605 0.196758 14.7573 0 15 0C15.2427 0 15.4395 0.196758 15.4395 0.439453V15.1567C15.4395 15.3994 15.2427 15.5962 15 15.5962Z" fill="#465A61"/>
<path d="M17.1018 13.1779H12.8984V8.94655C12.8984 8.3506 13.3815 7.86743 13.9776 7.86743H16.0228C16.6187 7.86743 17.1019 8.35054 17.1019 8.94655V13.1779H17.1018Z" fill="#596C76"/>
<path d="M17.1018 10.4305V10.5225L13.84 10.2478C9.6862 10.8137 6.48511 14.3746 6.48511 18.6838V21.1749C6.48511 21.4985 6.74743 21.7608 7.07104 21.7608H22.929C23.2526 21.7608 23.515 21.4985 23.515 21.1749V18.6838C23.515 14.7065 20.788 11.3664 17.1018 10.4305Z" fill="#7A8C98"/>
<path d="M15 30C14.7573 30 14.5605 29.8032 14.5605 29.5605V26.9211C14.5605 26.6784 14.7573 26.4817 15 26.4817C15.2427 26.4817 15.4395 26.6784 15.4395 26.9211V29.5605C15.4395 29.8032 15.2427 30 15 30Z" fill="#FDB441"/>
<path d="M21.603 27.4757C21.4904 27.4757 21.3779 27.4327 21.2921 27.3468L19.4276 25.4805C19.2561 25.3088 19.2562 25.0306 19.4279 24.859C19.5997 24.6875 19.8779 24.6876 20.0494 24.8593L21.9139 26.7256C22.0854 26.8974 22.0853 27.1756 21.9136 27.3471C21.8277 27.4329 21.7154 27.4757 21.603 27.4757Z" fill="#FDB441"/>
<path d="M8.39699 27.4757C8.2846 27.4757 8.17222 27.4329 8.08638 27.3471C7.9147 27.1756 7.91453 26.8974 8.08609 26.7256L9.95054 24.8593C10.1221 24.6876 10.4004 24.6875 10.572 24.859C10.7437 25.0306 10.7439 25.3088 10.5723 25.4805L8.70789 27.3468C8.62205 27.4327 8.50949 27.4757 8.39699 27.4757Z" fill="#FDB441"/>
<path d="M15.0001 10.1689C14.6056 10.1689 14.2176 10.1964 13.8374 10.2483C17.9899 10.8154 21.1897 14.3756 21.1897 18.6838V21.175C21.1897 21.4986 20.9274 21.7609 20.6037 21.7609H22.929C23.2527 21.7609 23.515 21.4986 23.515 21.175V18.6838C23.515 13.9812 19.7028 10.1689 15.0001 10.1689Z" fill="#596C76"/>
</svg>
