<svg width="78" height="48" viewBox="0 0 78 48" fill="none" xmlns="http://www.w3.org/2000/svg">
<path d="M22.3826 28.4689L8.13909 28.4689V23.6083H22.3826V28.4689Z" fill="#FFD500"/>
<path d="M22.3826 23.6085L8.13909 23.6085V18.748H22.3826V23.6085Z" fill="#005BBB"/>
<path d="M14.0938 0L16.2455 7.47988L0 10.2299L16.4607 13.0899L24.96 33.3295H69.0702L75.3103 31.6795L78 20.0198L70.5766 10.3399L53.5778 10.2299L30.6621 21.7797L14.0938 0Z" fill="#346AE5"/>
<path d="M39.3391 33.3295H69.0444L75.2869 31.7353L67.6453 22.9141L39.3391 33.3295Z" fill="#2457C6"/>
<path d="M24.9664 33.3296H39.3392L25.2881 14.8346L16.2783 13.193L24.9664 33.3296Z" fill="#2B4D98"/>
<path d="M13.954 0L25.0957 14.5816L0 10.0866L16.0093 7.34564L13.954 0Z" fill="#346AE5"/>
<path d="M11.015 48C10.2119 48 9.48847 47.8278 8.84457 47.4834C8.20067 47.139 7.69605 46.6575 7.33069 46.0391C6.96533 45.4206 6.78265 44.7189 6.78265 43.9338C6.78265 43.1487 6.96533 42.4469 7.33069 41.8285C7.69605 41.21 8.20067 40.7286 8.84457 40.3842C9.48847 40.0398 10.2119 39.8676 11.015 39.8676C11.753 39.8676 12.4113 40.0009 12.9901 40.2675C13.5689 40.5342 14.0464 40.9193 14.4226 41.423L12.8056 42.9006C12.3353 42.2932 11.7819 41.9896 11.1452 41.9896C10.6099 41.9896 10.1794 42.1655 9.85382 42.5173C9.52825 42.8691 9.36547 43.3413 9.36547 43.9338C9.36547 44.5263 9.52825 44.9985 9.85382 45.3503C10.1794 45.7021 10.6099 45.878 11.1452 45.878C11.7819 45.878 12.3353 45.5743 12.8056 44.967L14.4226 46.4446C14.0464 46.9483 13.5689 47.3334 12.9901 47.6C12.4113 47.8667 11.753 48 11.015 48ZM15.0846 39.5787H17.5372V47.8222H15.0846V39.5787ZM24.9383 44.7781C24.9383 44.8152 24.9275 45.0114 24.9058 45.367H20.782C20.8688 45.5966 21.0135 45.7725 21.216 45.8947C21.4186 46.0169 21.6718 46.078 21.9757 46.078C22.2362 46.078 22.455 46.0447 22.6323 45.978C22.8095 45.9113 23.003 45.7965 23.2128 45.6336L24.4934 46.9557C23.9146 47.6074 23.0501 47.9333 21.8997 47.9333C21.1835 47.9333 20.5541 47.7982 20.0115 47.5278C19.4688 47.2575 19.0492 46.8816 18.7526 46.4002C18.456 45.9187 18.3077 45.3781 18.3077 44.7781C18.3077 44.1708 18.4542 43.6283 18.7472 43.1505C19.0402 42.6728 19.4417 42.3006 19.9518 42.034C20.4618 41.7674 21.0352 41.6341 21.6718 41.6341C22.2723 41.6341 22.8204 41.7563 23.3159 42.0007C23.8115 42.2451 24.2058 42.6043 24.4988 43.0783C24.7918 43.5524 24.9383 44.1189 24.9383 44.7781ZM21.6935 43.345C21.4403 43.345 21.2305 43.4153 21.0641 43.5561C20.8977 43.6968 20.7892 43.8968 20.7386 44.156H22.6485C22.5979 43.9042 22.4894 43.706 22.323 43.5616C22.1566 43.4172 21.9468 43.345 21.6935 43.345ZM28.3676 41.6341C29.4094 41.6341 30.2053 41.8729 30.7551 42.3506C31.305 42.8284 31.5799 43.5635 31.5799 44.5559V47.8222H29.3009V47.0223C29.0188 47.6297 28.4581 47.9333 27.6188 47.9333C27.1486 47.9333 26.7488 47.85 26.4197 47.6834C26.0905 47.5167 25.8409 47.2908 25.6709 47.0057C25.5008 46.7205 25.4158 46.4002 25.4158 46.0447C25.4158 45.4447 25.6401 44.9892 26.0887 44.6781C26.5372 44.3671 27.2173 44.2115 28.1289 44.2115H29.1164C29.0368 43.7375 28.6643 43.5005 27.9987 43.5005C27.731 43.5005 27.4597 43.5431 27.1847 43.6283C26.9098 43.7134 26.6747 43.8301 26.4794 43.9782L25.698 42.3229C26.038 42.1081 26.4486 41.9396 26.9297 41.8174C27.4108 41.6952 27.8901 41.6341 28.3676 41.6341ZM28.3568 46.4224C28.5304 46.4224 28.686 46.3742 28.8234 46.278C28.9609 46.1817 29.0622 46.0372 29.1273 45.8447V45.4225H28.5196C28.0204 45.4225 27.7708 45.5929 27.7708 45.9336C27.7708 46.0743 27.8232 46.1909 27.9281 46.2835C28.033 46.3761 28.1759 46.4224 28.3568 46.4224ZM36.7672 41.6341C37.4979 41.6341 38.0857 41.86 38.5307 42.3118C38.9756 42.7636 39.1981 43.445 39.1981 44.356V47.8222H36.7455V44.7892C36.7455 44.093 36.5031 43.7449 36.0184 43.7449C35.7435 43.7449 35.521 43.8431 35.351 44.0393C35.181 44.2356 35.096 44.5448 35.096 44.967V47.8222H32.6434V41.7452H34.9766V42.3451C35.2081 42.1081 35.4758 41.9303 35.7797 41.8118C36.0835 41.6933 36.4127 41.6341 36.7672 41.6341ZM52.6982 40.0453L50.2673 47.8222H47.5217L46.2954 43.6672L45.004 47.8222H42.2584L39.8275 40.0453H42.4646L43.7886 44.4671L45.1885 40.0453H47.5434L48.8674 44.5226L50.2673 40.0453H52.6982ZM57.4732 41.6341C58.2039 41.6341 58.7917 41.86 59.2366 42.3118C59.6816 42.7636 59.904 43.445 59.904 44.356V47.8222H57.4515V44.7892C57.4515 44.093 57.2091 43.7449 56.7244 43.7449C56.4494 43.7449 56.227 43.8431 56.057 44.0393C55.8869 44.2356 55.8019 44.5448 55.8019 44.967V47.8222H53.3493V39.5787H55.8019V42.234C56.2577 41.834 56.8148 41.6341 57.4732 41.6341ZM63.6263 41.6341C64.6682 41.6341 65.464 41.8729 66.0138 42.3506C66.5637 42.8284 66.8386 43.5635 66.8386 44.5559V47.8222H64.5596V47.0223C64.2775 47.6297 63.7168 47.9333 62.8775 47.9333C62.4073 47.9333 62.0076 47.85 61.6784 47.6834C61.3492 47.5167 61.0996 47.2908 60.9296 47.0057C60.7596 46.7205 60.6746 46.4002 60.6746 46.0447C60.6746 45.4447 60.8988 44.9892 61.3474 44.6781C61.7959 44.3671 62.476 44.2115 63.3876 44.2115H64.3751C64.2956 43.7375 63.923 43.5005 63.2574 43.5005C62.9897 43.5005 62.7184 43.5431 62.4435 43.6283C62.1685 43.7134 61.9334 43.8301 61.7381 43.9782L60.9567 42.3229C61.2967 42.1081 61.7073 41.9396 62.1884 41.8174C62.6695 41.6952 63.1488 41.6341 63.6263 41.6341ZM63.6155 46.4224C63.7891 46.4224 63.9447 46.3742 64.0821 46.278C64.2196 46.1817 64.3209 46.0372 64.386 45.8447V45.4225H63.7783C63.2791 45.4225 63.0295 45.5929 63.0295 45.9336C63.0295 46.0743 63.0819 46.1909 63.1868 46.2835C63.2917 46.3761 63.4346 46.4224 63.6155 46.4224ZM67.9021 39.5787H70.3547V47.8222H67.9021V39.5787ZM77.7559 44.7781C77.7559 44.8152 77.745 45.0114 77.7233 45.367H73.5995C73.6863 45.5966 73.831 45.7725 74.0336 45.8947C74.2362 46.0169 74.4894 46.078 74.7932 46.078C75.0537 46.078 75.2725 46.0447 75.4498 45.978C75.627 45.9113 75.8206 45.7965 76.0304 45.6336L77.3109 46.9557C76.7322 47.6074 75.8676 47.9333 74.7173 47.9333C74.001 47.9333 73.3716 47.7982 72.829 47.5278C72.2864 47.2575 71.8668 46.8816 71.5701 46.4002C71.2735 45.9187 71.1252 45.3781 71.1252 44.7781C71.1252 44.1708 71.2717 43.6283 71.5647 43.1505C71.8577 42.6728 72.2592 42.3006 72.7693 42.034C73.2794 41.7674 73.8527 41.6341 74.4894 41.6341C75.0899 41.6341 75.6379 41.7563 76.1335 42.0007C76.6291 42.2451 77.0234 42.6043 77.3164 43.0783C77.6094 43.5524 77.7559 44.1189 77.7559 44.7781ZM74.5111 43.345C74.2579 43.345 74.048 43.4153 73.8817 43.5561C73.7152 43.6968 73.6067 43.8968 73.5561 44.156H75.4661C75.4154 43.9042 75.3069 43.706 75.1405 43.5616C74.9741 43.4172 74.7643 43.345 74.5111 43.345Z" fill="#2457C6"/>
</svg>
