<svg width="29" height="30" viewBox="0 0 29 30" fill="none" xmlns="http://www.w3.org/2000/svg">
<g clip-path="url(#clip0_95_355)">
<path d="M18.2209 28.3406H3.67501L1.59705 12.5941H20.2989L18.2209 28.3406Z" fill="#4398D1"/>
<path d="M21.8575 10.5624H0.0385742V12.5942H21.8575V10.5624Z" fill="#4398D1"/>
<path d="M1.62158 12.973L1.88888 15.4055H20.0029L20.2702 12.973H1.62158Z" fill="#398CC4"/>
<path d="M10.5405 10.5406H3.24316V5.84947L5.32809 3.24329H8.45554L10.5405 5.84947V10.5406Z" fill="#726891"/>
<path d="M8.10811 0H4.86487V3.24324H8.10811V0Z" fill="#E8594A"/>
<path d="M10.5405 5.67566H3.24316V10.5405H10.5405V5.67566Z" fill="#7A709C"/>
<path d="M17.3455 2.20422L18.2832 1.74315L20.4223 5.96436L19.4846 6.42543L17.3455 2.20422Z" fill="#E66712"/>
<path d="M21.0562 0H18.9089V2.01618H21.0562V0Z" fill="#F77219"/>
<path d="M16.2246 4.03241H11.3933C11.3933 1.80548 13.3161 0 15.6878 0H18.9087V2.01618L16.2246 4.03241Z" fill="#F77219"/>
<path d="M17.0269 4.05408H13.7837V6.48651H17.0269V4.05408Z" fill="#D4D4D4"/>
<path d="M13.7258 5.67566H16.8532L19.4594 8.37838V10.5405H12.1621V7.2973L13.7258 5.67566Z" fill="#EBEBEB"/>
<path d="M25.8446 21.8918H25.051C24.5732 21.8918 24.1019 22.0033 23.6742 22.2166C22.8076 22.6504 21.787 22.6504 20.9204 22.2166C20.4928 22.0033 20.0215 21.8918 19.5436 21.8918H18.75C17.3508 21.8918 16.2162 23.0265 16.2162 24.4256V27.4662C16.2162 28.8653 17.3508 30 18.75 30H19.5436C20.0214 30 20.4927 29.8885 20.9204 29.6752C21.787 29.2414 22.8076 29.2414 23.6742 29.6752C24.1018 29.8885 24.5731 30 25.051 30H25.8446C27.2437 30 28.3783 28.8653 28.3783 27.4662V24.4256C28.3784 23.0265 27.2438 21.8918 25.8446 21.8918Z" fill="#F5A338"/>
<path d="M25.8446 27.5675H25.051C24.5732 27.5675 24.1019 27.4427 23.6742 27.2037C22.8076 26.7179 21.787 26.7179 20.9204 27.2037C20.4928 27.4427 20.0215 27.5675 19.5436 27.5675H18.75C17.3508 27.5675 16.2162 26.2967 16.2162 24.7297C16.2162 23.1626 17.3508 21.8918 18.75 21.8918H19.5436C20.0214 21.8918 20.4927 22.0167 20.9204 22.2556C21.787 22.7414 22.8076 22.7414 23.6742 22.2556C24.1018 22.0167 24.5731 21.8918 25.051 21.8918H25.8446C27.2437 21.8918 28.3783 23.1626 28.3783 24.7297C28.3784 26.2968 27.2438 27.5675 25.8446 27.5675Z" fill="#F9B44D"/>
<path d="M25.8913 22.7172H24.8903V23.7775H25.8913V22.7172Z" fill="#F5A338"/>
<path d="M20.8858 22.7172H19.8848V23.7775H20.8858V22.7172Z" fill="#F5A338"/>
<path d="M18.8837 23.2474H17.8827V24.3078H18.8837V23.2474Z" fill="#F5A338"/>
<path d="M23.8892 23.2474H22.8882V24.3078H23.8892V23.2474Z" fill="#F5A338"/>
<path d="M14.0493 14.7817V10.5405H5.67566V22.7339C5.67566 23.6123 6.3785 24.3243 7.24574 24.3243H12.4793C13.3465 24.3243 14.0494 23.6124 14.0494 22.7339V17.4324L16.1742 18.5086C16.7347 18.7928 17.4162 18.5626 17.6966 17.9954C17.6966 17.9949 17.6972 17.9949 17.6972 17.9943L17.7103 17.9678C18.0033 17.3852 17.7741 16.6721 17.1995 16.3758C17.1974 16.3748 17.1948 16.3732 17.1921 16.3721L14.0493 14.7817Z" fill="#97D3E6"/>
<path d="M17.1909 16.3722L14.0425 14.7817V10.5405H13.6451C11.7419 16.8678 8.40202 20.7347 5.67566 22.9677C5.78839 23.7465 6.44849 24.3238 7.22655 24.3243H12.4696C13.3384 24.3243 14.0425 23.6124 14.0425 22.7339V17.4324L16.1712 18.5086C16.7327 18.7928 17.4154 18.5626 17.6964 17.9954C17.6964 17.9949 17.6969 17.9949 17.6969 17.9943L17.71 17.9678C18.0036 17.3852 17.774 16.6721 17.1983 16.3758C17.1957 16.3748 17.1936 16.3732 17.1909 16.3722Z" fill="#8AC9DE"/>
<path d="M8.44937 18.6882H7.32349V24.318H8.44937V18.6882Z" fill="#7DBDD1"/>
<path d="M10.7012 18.6882H9.57532V24.318H10.7012V18.6882Z" fill="#7DBDD1"/>
<path d="M12.9529 18.6882H11.827V24.318H12.9529V18.6882Z" fill="#7DBDD1"/>
</g>
<defs>
<clipPath id="clip0_95_355">
<rect width="28.3784" height="30" fill="white"/>
</clipPath>
</defs>
</svg>
