<svg width="221" height="150" viewBox="0 0 221 150" fill="none" xmlns="http://www.w3.org/2000/svg">
<g clip-path="url(#clip0_123_22400)">
<path d="M76.6044 28.7337L76.6067 28.7225C76.3885 28.217 76.2124 27.7339 76.2015 27.146C76.1861 26.1986 76.1037 25.3261 75.8308 24.4125C75.6569 23.8283 76.4496 23.4089 76.8582 23.8358C77.4733 24.4799 77.7712 25.2662 77.7139 26.1425C78.0524 25.6894 78.6581 25.0977 79.2694 24.7233C79.8283 24.2477 80.5861 23.8695 81.2942 24.2327C81.6578 24.4162 81.7961 24.6559 81.8081 24.9142C82.1473 24.918 82.4647 25.0191 82.6754 25.3149C82.8962 25.622 82.8639 25.8878 82.747 26.135C82.9618 26.2211 83.1319 26.3746 83.1964 26.6592C83.262 26.9513 83.1795 27.2471 83.0352 27.5242C83.1702 27.6703 83.2549 27.865 83.244 28.1309C83.2238 28.6139 82.9318 28.9809 82.5659 29.2767C82.1379 29.7972 80.0891 30.6547 79.5674 30.8644C75.7914 36.6386 74.4961 32.7405 76.6044 28.7337Z" fill="#FF6B79"/>
<path d="M13.0483 140.558L13.9209 145.557H16.2914L17.4223 140.028L13.0483 140.558Z" fill="#FF6B79"/>
<path d="M42.4645 140.558L41.5918 145.557H39.2214L38.0904 140.028L42.4645 140.558Z" fill="#FF6B79"/>
<path d="M30.8146 68.0946C30.8146 68.0946 34.2076 90.8215 35.2566 104.076V104.111C35.3054 104.661 35.3424 105.198 35.378 105.71C35.5259 107.868 35.6832 110.206 35.8664 112.646V112.656C36.7699 125.593 37.9403 141.747 37.9403 141.747L42.7657 141.402C42.7657 141.402 48.7046 115.901 50.1576 106.902C53.6719 85.1895 53.8436 65.6933 53.8436 65.6933L49.1445 66.1812L47.9849 66.3032L44.128 66.704L42.8958 66.8399L39.2597 67.2163L38.3443 67.3139H38.3314L30.8146 68.0946Z" fill="#2457C6"/>
<path d="M41.8735 143.939C41.8735 143.939 52.1683 143.939 54.1813 149.186H41.8507L40.5028 147.969L39.4099 149.186H37.3864C37.3864 149.186 36.0132 145.498 38.9295 144.095C38.9295 144.095 40.1132 145.108 41.8735 143.939Z" fill="#060673"/>
<path d="M12.9983 141.786L17.4221 142.026L20.185 130.41L25.2609 112.768V112.754L26.9577 106.829L26.9699 106.805L38.0883 68.0946L31.5092 67.4115L30.936 67.3522H30.9242L15.0708 65.6933C15.0708 65.6933 12.3857 81.3592 10.8971 103.306C10.0547 115.706 12.9983 141.786 12.9983 141.786Z" fill="#2457C6"/>
<path d="M13.6397 143.939C13.6397 143.939 3.34611 143.939 1.33192 149.186H13.5777L15.2354 147.866L16.426 149.186H18.128C18.128 149.186 19.4996 145.498 16.5833 144.095C16.5833 144.095 15.4 145.108 13.6397 143.939Z" fill="#060673"/>
<path d="M71.332 55.981C78.6975 54.0913 81.3992 36.3494 79.5672 30.8646L76.5738 28.5306C76.5738 28.5306 75.4984 31.3728 73.8955 34.6253L73.8921 34.6328C72.0808 38.2881 69.5991 42.4553 67.2369 43.6223C65.7078 44.379 63.9428 42.9485 61.9443 40.8441C58.1291 36.835 47.5747 20.1735 40.4881 23.6594C25.4335 31.0716 60.4189 58.778 71.332 55.981Z" fill="#060673"/>
<path d="M55.3191 66.4462C55.3191 66.4462 40.9628 73.6515 12.1235 68.5092C12.1235 68.5092 12.1235 17.9136 38.7935 21.5673C58.2845 24.2423 46.1017 48.1705 55.3191 66.4462Z" fill="#060673"/>
<path d="M41.3917 22.1022C41.3917 22.1022 41.6062 24.3778 40.2832 26.5889C38.4777 24.1237 36.2872 22.6446 34.3716 21.4765C34.3716 21.4765 35.356 18.6775 34.4646 15.5827L40.1378 16.9632C40.1378 16.9632 39.3535 19.3981 41.3917 22.1022Z" fill="#FF5464"/>
<path d="M37.0509 4.19941C34.1147 4.59363 32.1827 8.24594 32.7367 12.3582C33.2899 16.4665 36.1194 19.4811 39.0556 19.0831C41.9923 18.6888 43.9231 15.0404 43.3699 10.9282C42.8159 6.81594 39.9864 3.8052 37.0509 4.19941Z" fill="#FF6B79"/>
<path d="M41.9079 10.5875C41.9079 10.5875 43.6476 13.1759 44.1566 14.6478C44.2343 14.8734 44.0973 15.1104 43.8635 15.1563C43.1605 15.3016 41.7384 15.5616 41.1464 15.4698C40.3454 15.3513 41.9079 10.5875 41.9079 10.5875Z" fill="#FF6B79"/>
<path d="M42.1723 7.41634C42.1723 7.41634 42.9315 8.77503 43.0482 9.4042C43.0482 9.4042 41.1272 9.82493 39.263 8.36974C36.5291 6.23521 33.4185 8.10341 33.4185 8.10341L33.988 5.69482L41.7852 4.61404L42.1723 7.41634Z" fill="#FF3D53"/>
<path d="M12.4389 13.8033C12.8575 14.1689 13.463 14.309 13.8551 14.663C15.496 16.1334 15.1171 17.2655 15.7355 18.8215C16.1315 19.8135 16.8024 20.6732 17.6734 21.2995C19.7208 22.7778 22.1857 22.6922 23.2132 20.2375C23.7183 19.0316 23.8004 17.5456 23.6899 16.2579C23.6217 15.4643 23.1833 14.593 23.1618 13.8344C23.1178 12.2822 24.2856 11.8504 25.5383 11.2124C26.743 10.6017 27.9264 9.99483 28.9656 9.25959C28.8418 10.8662 28.9765 12.3834 29.3258 13.0408C29.8406 14.0055 29.9679 15.7172 32.036 15.8417C35.3418 16.0362 32.8642 11.0763 33.8392 9.4541C33.8392 9.4541 35.1347 9.59414 35.7234 8.1548C36.311 6.71156 38.2346 6.97998 39.5706 7.83192C40.9066 8.68774 42.2558 9.26737 43.899 8.50102C45.154 7.91361 41.618 2.57636 39.9911 2.23403C35.658 1.33152 32.9931 2.49466 31.478 3.64614C30.2315 1.49101 28.241 -0.310116 25.5418 0.125578C24.5551 0.285072 23.6431 0.724657 22.9843 1.48712C21.9618 2.66583 22.5408 3.44385 20.2777 3.91067C19.4958 4.07016 18.5745 3.78619 17.7642 3.82509C13.1531 4.05849 7.84495 9.73808 12.4389 13.8033Z" fill="#FFD400"/>
<path d="M34.3324 11.0093C34.3324 11.0093 33.3303 9.72675 32.409 10.6073C31.4866 11.4879 32.527 14.6235 34.05 13.7391C35.5733 12.8585 34.3324 11.0093 34.3324 11.0093Z" fill="#FF6B79"/>
<path d="M38.9784 2.06178C38.9784 2.06178 45.1174 2.5036 45.1174 9.28973C45.1174 9.28973 35.2814 10.7159 32.8266 9.28198L32.4057 5.00334L38.9784 2.06178Z" fill="#FFD400"/>
<path d="M40.7814 3.38127C41.494 4.01192 42.3201 4.61163 42.8839 5.38544C43.4071 6.10122 43.5752 6.97176 43.698 7.83457C43.7518 8.2176 43.1639 8.38397 43.1089 7.99707C42.9889 7.14587 42.8359 6.30241 42.2844 5.61372C41.7399 4.93276 41.001 4.38722 40.3504 3.81073C40.0556 3.55151 40.4882 3.12204 40.7814 3.38127Z" fill="#FFB000"/>
<path d="M41.3953 5.72535C41.8592 6.36143 42.0903 7.08232 42.1034 7.86489C42.1104 8.25811 41.5003 8.25811 41.4933 7.86489C41.481 7.18255 41.2703 6.58502 40.8686 6.0299C40.6375 5.71378 41.1665 5.40924 41.3953 5.72535Z" fill="#FFB000"/>
<path d="M215.968 149.821C217.004 149.518 217.616 148.451 217.354 147.403L209.18 108.144L202.498 110.099L213.495 148.531C213.839 149.553 214.931 150.124 215.968 149.821Z" fill="#FFB000"/>
<path d="M203.214 148.733C204.278 148.545 205.006 147.552 204.862 146.484L200.714 106.453L193.856 107.656L200.9 147.177C201.128 148.231 202.15 148.917 203.214 148.733Z" fill="#FFB000"/>
<path d="M158.927 149.821C157.891 149.518 157.278 148.451 157.54 147.403L167.289 108.144L173.973 110.099L161.401 148.531C161.057 149.553 159.964 150.124 158.927 149.821Z" fill="#FFB000"/>
<path d="M171.68 148.733C170.614 148.545 169.889 147.552 170.032 146.484L175.754 106.453L182.612 107.656L173.994 147.177C173.766 148.231 172.744 148.917 171.68 148.733Z" fill="#FFB000"/>
<path d="M158.312 104.152C158.061 108.351 160.645 112.553 163.994 115.436C175.806 125.528 205.754 122.981 215.01 110.68C228.724 92.4543 215.935 63.506 203.189 62.4853C197.611 62.0398 194.263 64.3899 191.342 67.5397L191.323 67.5573C185.532 73.7517 181.275 84.7165 164.387 95.306C160.235 97.9051 158.489 101.037 158.312 104.152Z" fill="#FFD400"/>
<path d="M124.515 132.632L122.02 137.2L119.707 136.419L120.422 130.675L124.515 132.632Z" fill="#FF6B79"/>
<path d="M119.533 135.663C119.533 135.663 109.782 132.369 106.192 136.697L122.102 142.071C122.102 142.071 124.584 139.016 122.271 136.752C122.271 136.752 120.827 137.334 119.533 135.663Z" fill="#0F00A7"/>
<path d="M147.428 136.301L146.53 141.428L143.486 141.584L142.924 135.757L147.428 136.301Z" fill="#FF6B79"/>
<path d="M166.636 78.8398C166.636 78.8398 143.814 82.6631 135.763 90.834C126.065 100.677 119.264 131.348 119.264 131.348L124.515 133.939C124.515 133.939 139.874 110.097 145.537 104.343C151.201 98.593 167.951 103.635 176.768 99.1786C194.397 90.2587 166.636 78.8398 166.636 78.8398Z" fill="#060673"/>
<path d="M192.588 78.8399C192.588 78.8399 157.843 83.2011 149.791 91.372C140.094 101.211 142.54 137.201 142.54 137.201L147.808 137.82C147.808 137.82 155.129 112.296 160.793 106.543C163.929 103.359 169.601 103.642 175.603 103.928C180.439 104.156 185.49 104.384 189.605 102.798C204.895 96.9044 192.588 78.8399 192.588 78.8399Z" fill="#060673"/>
<path d="M143.646 140.785C143.646 140.785 133.351 140.785 131.338 146.033H148.133C148.133 146.033 149.506 142.346 146.59 140.943C146.59 140.943 145.407 141.956 143.646 140.785Z" fill="#0F00A7"/>
<path d="M142.348 138.635C143.427 138.331 144.008 139.964 144.124 140.739C144.231 141.447 143.248 141.772 143.002 141.213C142.959 141.183 142.915 141.158 142.873 141.107C142.445 140.584 140.897 139.04 142.348 138.635Z" fill="#060673"/>
<path d="M117.205 133.957C118.116 133.017 119.212 134.629 119.743 135.324C119.761 135.333 119.776 135.342 119.794 135.351C120.362 135.594 120.093 136.285 119.607 136.424C119.415 136.531 119.185 136.525 118.997 136.322C118.148 135.941 116.245 134.94 117.205 133.957Z" fill="#060673"/>
<path d="M152.756 69.962C146.861 71.4722 138.172 71.4139 128.938 69.962V66.3178C128.938 66.3178 145.821 61.8894 151.592 59.2994C153.201 58.5771 156.487 54.5389 158.552 52.1642C162.494 47.6299 169.329 39.1815 174.784 41.2717C190.964 47.4621 163.784 67.1423 152.756 69.962Z" fill="#2457C6"/>
<path d="M154.151 81.7943C154.151 81.7943 168.726 92.559 198.559 88.0999C198.559 88.0999 202.521 38.9875 176.67 39.3707C160.908 39.6042 157.554 68.6578 154.151 81.7943Z" fill="#2457C6"/>
<path d="M173.264 39.6756C173.264 39.6756 175.008 42.9854 180.673 39.7382C180.673 39.7382 179.618 36.7376 180.596 33.6671L174.887 34.8931C174.887 34.8931 175.375 37.0285 173.264 39.6756Z" fill="#FF5464"/>
<path d="M178.324 22.2151C181.247 22.692 183.078 26.398 182.412 30.4908C181.746 34.5836 178.836 37.5161 175.911 37.043C172.986 36.5661 171.156 32.8638 171.823 28.7673C172.49 24.6746 175.399 21.742 178.324 22.2151Z" fill="#FF6B79"/>
<path d="M173.291 28.4697C173.291 28.4697 171.483 31.0135 170.934 32.4692C170.848 32.692 170.979 32.9297 171.211 32.9854C171.91 33.1451 173.325 33.4459 173.919 33.3753C174.723 33.2751 173.291 28.4697 173.291 28.4697Z" fill="#FF6B79"/>
<path d="M173.115 25.2956C173.115 25.2956 172.32 26.6306 172.186 27.2569C172.186 27.2569 174.094 27.7294 175.997 26.3269C178.789 24.2643 181.846 26.2219 181.846 26.2219L181.345 23.7993L173.58 22.5017L173.115 25.2956Z" fill="#FF3D53"/>
<path d="M169.941 20.8681C171.767 19.3397 179.75 18.6378 182.98 21.0229C183.064 20.5587 183.005 20.0681 182.948 19.5964C182.854 18.8189 184.076 18.8265 184.17 19.5964C184.249 20.2606 184.28 20.9172 184.113 21.5399C184.747 21.721 185.311 22.0531 185.878 22.4419C186.524 22.8796 185.915 23.9401 185.264 23.4948C185.032 23.3363 184.794 23.1778 184.549 23.0344C185.643 25.2685 186.299 28.7065 185.769 31.1067C185.532 32.1747 185.088 33.9258 183.015 33.9937C179.706 34.0994 182.319 29.2047 181.389 27.5592C181.389 27.5592 180.09 27.6649 179.541 26.2082C178.993 24.7515 177.063 24.9666 175.705 25.7817C174.345 26.5969 172.98 27.1441 171.359 26.329C170.121 25.7063 167.804 22.6607 169.941 20.8681Z" fill="#070040"/>
<path d="M180.855 29.0967C180.855 29.0967 181.892 27.8439 182.788 28.751C183.685 29.6543 182.56 32.7583 181.061 31.8364C179.563 30.9145 180.855 29.0967 180.855 29.0967Z" fill="#FF6B79"/>
<path d="M173.265 39.6734C173.265 39.6734 174.581 41.1277 175.498 41.1459L172.164 42.6695L172.339 39.8593C172.339 39.8593 172.924 39.6625 173.265 39.6734Z" fill="#D4DEFF"/>
<path d="M175.498 41.1457C175.498 41.1457 178.188 41.2478 180.673 39.739L181.348 39.8957C181.348 39.8957 178.219 42.9388 176.058 43.8681L175.498 41.1457Z" fill="#D4DEFF"/>
<path d="M184.237 40.944C204.045 41.806 204.714 72.7026 201.4 77.2816C194.428 86.9161 178.026 79.1765 164.394 72.3753V67.4362C164.394 67.4362 188.055 71.5897 189.605 68.1418C192.523 61.6497 177.612 49.1383 184.237 40.944Z" fill="#2457C6"/>
<path d="M160.835 71.8966C160.962 71.8272 161.106 71.7787 161.243 71.7197C160.935 72.2018 161.474 72.9544 162.051 72.5833C162.345 72.396 162.662 72.2608 162.988 72.1463C162.847 72.5694 163.154 73.1278 163.689 72.9405C164.721 72.5833 165.762 72.4515 166.812 72.5486C167.953 73.1867 169.43 73.5682 170.477 73.0029C171.495 72.4515 171.853 70.7383 171.224 69.7741C170.39 68.4979 168.65 68.4805 167.25 68.5776C166.97 68.5672 166.7 68.588 166.423 68.6366C164.389 68.7753 162.43 68.6609 160.684 69.9129C160.388 70.1244 160.37 70.4643 160.492 70.7244C160.4 70.7625 160.305 70.7972 160.217 70.8458C159.524 71.2169 160.142 72.2677 160.835 71.8966Z" fill="#FF6B79"/>
<path d="M181.888 149.907H179.491C178.707 149.907 178.071 149.273 178.071 148.488V72.3745H183.311V148.488C183.311 149.273 182.674 149.907 181.888 149.907Z" fill="#D4DEFF"/>
<path d="M127.662 69.0134V70.9087H155.194V69.0134H127.662Z" fill="#9EB0FF"/>
<path d="M152.757 69.2695H154.351V68.1417H152.757V69.2695Z" fill="#9EB0FF"/>
<path d="M150.444 69.2695H152.04V68.1417H150.444V69.2695Z" fill="#9EB0FF"/>
<path d="M148.134 69.2695H149.73V68.1417H148.134V69.2695Z" fill="#9EB0FF"/>
<path d="M145.822 68.1417V69.2695H147.419V68.1417H145.822Z" fill="#9EB0FF"/>
<path d="M143.511 68.1417V69.2695H145.104V68.1417H143.511Z" fill="#9EB0FF"/>
<path d="M141.2 68.1417V69.2695H142.793V68.1417H141.2Z" fill="#9EB0FF"/>
<path d="M138.892 68.1417V69.2695H140.484V68.1417H138.892Z" fill="#9EB0FF"/>
<path d="M136.581 68.1417V69.2695H138.173V68.1417H136.581Z" fill="#9EB0FF"/>
<path d="M134.269 68.1417V69.2695H135.861V68.1417H134.269Z" fill="#9EB0FF"/>
<path d="M131.955 68.1417V69.2695H133.552V68.1417H131.955Z" fill="#9EB0FF"/>
<path d="M129.642 68.1417V69.2695H131.241V68.1417H129.642Z" fill="#9EB0FF"/>
<path d="M160.481 149.907H158.084C157.298 149.907 156.66 149.273 156.66 148.488V72.3745H161.903V148.488C161.903 149.273 161.267 149.907 160.481 149.907Z" fill="#D4DEFF"/>
<path d="M104.718 149.907H102.321C101.535 149.907 100.899 149.273 100.899 148.488L100.899 72.3745H106.141L106.141 148.488C106.141 149.273 105.503 149.907 104.718 149.907Z" fill="#9EB0FF"/>
<path d="M83.31 149.907H80.9123C80.127 149.907 79.4905 149.273 79.4905 148.488L79.4905 72.3745H84.7318L84.7318 148.488C84.7318 149.273 84.0954 149.907 83.31 149.907Z" fill="#D4DEFF"/>
<path d="M96.9877 61.5499L146.187 61.5499C146.969 61.5499 147.603 60.9173 147.603 60.1367V32.1565C147.603 31.3759 146.969 30.7432 146.187 30.7432L96.9877 30.7432C96.206 30.7432 95.572 31.3759 95.572 32.1565V60.1367C95.572 60.9173 96.206 61.5499 96.9877 61.5499Z" fill="#D4DEFF"/>
<path d="M152.792 75.5477L73.6445 75.5477V70.8962L152.792 70.8962V75.5477Z" fill="#9EB0FF"/>
<path d="M193.24 75.5477H152.792V70.8962H193.24V75.5477Z" fill="#D4DEFF"/>
<path d="M118.364 67.4592H125.239V46.9484C125.239 45.0545 123.7 43.5154 121.8 43.5154C119.902 43.5154 118.364 45.0545 118.364 46.9484V67.4592Z" fill="#9EB0FF"/>
<path d="M111.133 70.8946H132.47V70.4803C132.47 68.1475 130.575 66.2535 128.239 66.2535H115.363C113.026 66.2535 111.133 68.1475 111.133 70.4803V70.8946Z" fill="#D4DEFF"/>
<path d="M28.4676 9.07619C29.1066 7.08631 29.9719 5.19709 31.0705 3.41627C31.4816 2.7504 32.5387 3.36208 32.1241 4.03182C31.0778 5.72747 30.252 7.50442 29.644 9.40138C29.4046 10.1447 28.2269 9.82723 28.4676 9.07619Z" fill="#060673"/>
<path d="M34.3724 21.4739C34.3724 21.4739 38.9201 23.8264 40.2836 26.5884L38.0884 29.2452C38.0884 29.2452 35.6998 23.2777 33.4354 21.5904C33.4354 21.5904 33.9549 21.2447 34.3724 21.4739Z" fill="#D4DEFF"/>
<path d="M41.3918 22.1C41.3918 22.1 41.219 25.4549 40.2833 26.5882L42.5479 29.245C42.5479 29.245 42.9946 24.6518 41.8125 22.2764L41.3918 22.1Z" fill="#D4DEFF"/>
<path d="M40.0023 33.1587C40.0023 32.6531 40.412 32.2434 40.9173 32.2434C41.423 32.2434 41.8327 32.6531 41.8327 33.1587C41.8327 33.6642 41.423 34.0739 40.9173 34.0739C40.412 34.0739 40.0023 33.6642 40.0023 33.1587Z" fill="#D4DEFF"/>
<path d="M40.4881 39.4059C40.4881 38.9019 40.8983 38.4929 41.4035 38.4929C41.9098 38.4929 42.3189 38.9019 42.3189 39.4059C42.3189 39.9136 41.9098 40.3226 41.4035 40.3226C40.8983 40.3226 40.4881 39.9136 40.4881 39.4059Z" fill="#D4DEFF"/>
<path d="M40.4886 50.4494C40.4886 49.944 40.8986 49.5354 41.4038 49.5354C41.9104 49.5354 42.319 49.944 42.319 50.4494C42.319 50.9548 41.9104 51.3634 41.4038 51.3634C40.8986 51.3634 40.4886 50.9548 40.4886 50.4494Z" fill="#D4DEFF"/>
<path d="M40.4883 44.5626C40.4883 44.0557 40.8985 43.6466 41.4037 43.6466C41.9103 43.6466 42.3191 44.0557 42.3191 44.5626C42.3191 45.0658 41.9103 45.4749 41.4037 45.4749C40.8985 45.4749 40.4883 45.0658 40.4883 44.5626Z" fill="#D4DEFF"/>
<path d="M40.4884 56.5524C40.4884 56.0452 40.8985 55.6373 41.4037 55.6373C41.9103 55.6373 42.3189 56.0452 42.3189 56.5524C42.3189 57.056 41.9103 57.4675 41.4037 57.4675C40.8985 57.4675 40.4884 57.056 40.4884 56.5524Z" fill="#D4DEFF"/>
<path d="M76.2511 28.0516L75.698 29.5938L80.8464 32.8157L81.0562 30.7755L76.2511 28.0516Z" fill="#D4DEFF"/>
<path d="M29.6348 64.8348C29.9732 65.7345 30.7932 65.5272 31.6192 65.9208C32.6285 66.4023 35.575 69.8745 36.7654 69.4704C38.4005 68.9186 34.6188 67.0806 35.5936 66.7502C35.9419 66.6307 39.3897 70.1873 39.6162 68.6796C39.714 68.0224 37.1014 65.3655 38.1539 65.5272C39.1765 66.1774 41.4275 68.7394 42.0854 67.8994C42.3953 67.5058 41.0666 65.6256 40.4742 65.1371C38.4279 63.4607 39.3228 63.0812 41.3681 64.5607C42.4287 65.3304 43.2283 64.9754 42.5121 63.8227C41.0297 61.4294 36.8882 60.9338 34.2196 60.9303C33.0907 60.9303 28.8792 62.8246 29.6348 64.8348Z" fill="#FF6B79"/>
<path d="M32.0767 61.9493C31.6132 62.4795 32.3268 63.1476 32.8516 62.8507C33.6105 62.7234 34.2958 62.5043 34.8715 61.9599C35.1981 61.6524 35.4425 61.2636 35.7928 60.9772C36.3278 60.5389 36.9487 60.447 37.6008 60.3092C37.9999 60.2243 38.3873 59.7295 38.0406 59.3407C36.4937 57.6157 33.0645 60.8146 32.0767 61.9493Z" fill="#FF6B79"/>
<path d="M0.113547 51.3071C1.44121 58.4934 23.703 64.43 30.9348 65.8208L31.5321 61.5189C31.5321 61.5189 26.655 58.12 23.2537 56.2225L23.2476 56.2186C19.4244 54.081 15.1077 51.2499 14.0672 48.8799C13.3902 47.3443 15.1397 45.843 17.644 44.1969C22.423 41.061 33.6866 34.1299 32.4055 28.723C28.6132 12.6889 -1.85297 40.6609 0.113547 51.3071Z" fill="#060673"/>
<path d="M31.2732 60.3374L29.5453 65.822L31.5092 67.4122L33.2061 60.946L31.2732 60.3374Z" fill="#D4DEFF"/>
</g>
<defs>
<clipPath id="clip0_123_22400">
<rect width="221" height="150" fill="white"/>
</clipPath>
</defs>
</svg>
