<svg width="50" height="50" viewBox="0 0 50 50" fill="none" xmlns="http://www.w3.org/2000/svg">
<g clip-path="url(#clip0_44_1542)">
<path d="M44.7104 49.8701H4.35058C3.98243 49.8701 3.6839 49.5715 3.6839 49.2034V45.0702H45.377V49.2034C45.377 49.5716 45.0786 49.8701 44.7104 49.8701Z" fill="#64798A"/>
<path d="M46.3161 0.129883H26.842H23.158H3.68391H0V3.8139V43.2283V46.9122H3.68391H23.158H26.842H46.3161H50V43.2283V3.8139V0.129883H46.3161ZM3.68391 43.2283V3.8139H23.158V43.2283H3.68391ZM46.3161 43.2283H26.842V3.8139H46.3161V43.2283Z" fill="#D5D6DB"/>
<path d="M23.16 3.81396H3.68671V43.2272H23.16V3.81396Z" fill="#DC8744"/>
<path d="M46.3153 3.81396H26.842V43.2272H46.3153V3.81396Z" fill="#DC8744"/>
<path d="M34.2557 22.8407C34.2557 23.5741 33.9557 24.2406 33.4757 24.7273C32.9891 25.2072 32.3224 25.5073 31.5891 25.5073C30.3958 25.5073 29.3757 24.7072 29.0358 23.6206C28.9624 23.374 28.9225 23.114 28.9225 22.8407C28.9225 22.1074 29.2225 21.4407 29.7024 20.954C30.1891 20.4741 30.8558 20.1741 31.5891 20.1741C32.1491 20.1741 32.6758 20.3541 33.1091 20.6474C33.2424 20.7407 33.3624 20.8407 33.4757 20.954C33.9557 21.4407 34.2557 22.1074 34.2557 22.8407Z" fill="#FCD462"/>
<path d="M33.2223 21.4273C33.2223 22.1608 32.9223 22.8273 32.4357 23.314C31.9556 23.7939 31.2889 24.0939 30.5556 24.0939C29.9889 24.0939 29.4623 23.9139 29.0356 23.6206C28.9623 23.374 28.9224 23.114 28.9224 22.8407C28.9224 22.1074 29.2224 21.4407 29.7023 20.954C30.189 20.4741 30.8557 20.1741 31.589 20.1741C32.149 20.1741 32.6757 20.3541 33.109 20.6474C33.1824 20.894 33.2223 21.154 33.2223 21.4273Z" fill="#F6C358"/>
<path d="M21.0776 22.8407C21.0776 23.5741 20.7776 24.2406 20.2977 24.7273C19.811 25.2072 19.1443 25.5073 18.411 25.5073C17.2178 25.5073 16.1977 24.7072 15.8577 23.6206C15.7844 23.374 15.7444 23.114 15.7444 22.8407C15.7444 22.1074 16.0445 21.4407 16.5244 20.954C17.0111 20.4741 17.6777 20.1741 18.411 20.1741C18.9711 20.1741 19.4978 20.3541 19.931 20.6474C20.0644 20.7407 20.1844 20.8407 20.2977 20.954C20.7776 21.4407 21.0776 22.1074 21.0776 22.8407Z" fill="#FCD462"/>
<path d="M20.0443 21.4273C20.0443 22.1608 19.7443 22.8273 19.2576 23.314C18.7776 23.7939 18.1109 24.0939 17.3776 24.0939C16.8109 24.0939 16.2843 23.9139 15.8576 23.6206C15.7843 23.374 15.7443 23.114 15.7443 22.8407C15.7443 22.1074 16.0444 21.4407 16.5243 20.954C17.0109 20.4741 17.6776 20.1741 18.4109 20.1741C18.9709 20.1741 19.4976 20.3541 19.9309 20.6474C20.0043 20.894 20.0443 21.154 20.0443 21.4273Z" fill="#F6C358"/>
</g>
<defs>
<clipPath id="clip0_44_1542">
<rect width="50" height="50" fill="white"/>
</clipPath>
</defs>
</svg>
