<svg width="50" height="50" viewBox="0 0 50 50" fill="none" xmlns="http://www.w3.org/2000/svg">
<path d="M44.8275 30.1724H5.17236V37.931H44.8275V30.1724Z" fill="#556080"/>
<path d="M41.8129 9.48279H36.9207C35.3595 9.48279 33.8621 10.1026 32.7586 11.2069C31.6543 10.1026 30.1577 9.48279 28.5965 9.48279H21.4043C19.8431 9.48279 18.3457 10.1026 17.2422 11.2069C16.1379 10.1026 14.6414 9.48279 13.0802 9.48279H8.18705C4.61722 9.48279 1.72412 12.3759 1.72412 15.9457V19.1242C2.28791 18.9242 2.9224 18.8716 3.63016 19.2181C4.59998 19.694 5.1724 20.7293 5.1724 21.8104V30.1724H44.8276V21.8104C44.8276 20.7302 45.4 19.694 46.3698 19.2181C47.0776 18.8707 47.7121 18.9233 48.2758 19.1242V15.9457C48.2758 12.3759 45.3827 9.48279 41.8129 9.48279Z" fill="#CDD4D9"/>
<path d="M17.2415 23.2758C16.7647 23.2758 16.3794 22.8896 16.3794 22.4138V21.5517C16.3794 21.0758 16.7647 20.6896 17.2415 20.6896C17.7182 20.6896 18.1035 21.0758 18.1035 21.5517V22.4138C18.1035 22.8896 17.7182 23.2758 17.2415 23.2758ZM17.2415 19.8276C16.7647 19.8276 16.3794 19.4414 16.3794 18.9655V18.1034C16.3794 17.6276 16.7647 17.2414 17.2415 17.2414C17.7182 17.2414 18.1035 17.6276 18.1035 18.1034V18.9655C18.1035 19.4414 17.7182 19.8276 17.2415 19.8276ZM17.2415 16.3793C16.7647 16.3793 16.3794 15.9931 16.3794 15.5172V14.6552C16.3794 14.1793 16.7647 13.7931 17.2415 13.7931C17.7182 13.7931 18.1035 14.1793 18.1035 14.6552V15.5172C18.1035 15.9931 17.7182 16.3793 17.2415 16.3793Z" fill="#A6B2BC"/>
<path d="M32.7586 23.2758C32.2818 23.2758 31.8965 22.8896 31.8965 22.4138V21.5517C31.8965 21.0758 32.2818 20.6896 32.7586 20.6896C33.2353 20.6896 33.6206 21.0758 33.6206 21.5517V22.4138C33.6206 22.8896 33.2353 23.2758 32.7586 23.2758ZM32.7586 19.8276C32.2818 19.8276 31.8965 19.4414 31.8965 18.9655V18.1034C31.8965 17.6276 32.2818 17.2414 32.7586 17.2414C33.2353 17.2414 33.6206 17.6276 33.6206 18.1034V18.9655C33.6206 19.4414 33.2353 19.8276 32.7586 19.8276ZM32.7586 16.3793C32.2818 16.3793 31.8965 15.9931 31.8965 15.5172V14.6552C31.8965 14.1793 32.2818 13.7931 32.7586 13.7931C33.2353 13.7931 33.6206 14.1793 33.6206 14.6552V15.5172C33.6206 15.9931 33.2353 16.3793 32.7586 16.3793Z" fill="#A6B2BC"/>
<path d="M6.89674 32.7586C7.37284 32.7586 7.75881 32.3726 7.75881 31.8965C7.75881 31.4204 7.37284 31.0344 6.89674 31.0344C6.42063 31.0344 6.03467 31.4204 6.03467 31.8965C6.03467 32.3726 6.42063 32.7586 6.89674 32.7586Z" fill="#7383BF"/>
<path d="M6.89674 37.9309C7.37284 37.9309 7.75881 37.545 7.75881 37.0689C7.75881 36.5927 7.37284 36.2068 6.89674 36.2068C6.42063 36.2068 6.03467 36.5927 6.03467 37.0689C6.03467 37.545 6.42063 37.9309 6.89674 37.9309Z" fill="#7383BF"/>
<path d="M9.48316 35.3447C9.95927 35.3447 10.3452 34.9588 10.3452 34.4827C10.3452 34.0066 9.95927 33.6206 9.48316 33.6206C9.00706 33.6206 8.62109 34.0066 8.62109 34.4827C8.62109 34.9588 9.00706 35.3447 9.48316 35.3447Z" fill="#7383BF"/>
<path d="M14.6555 35.3447C15.1316 35.3447 15.5176 34.9588 15.5176 34.4827C15.5176 34.0066 15.1316 33.6206 14.6555 33.6206C14.1794 33.6206 13.7935 34.0066 13.7935 34.4827C13.7935 34.9588 14.1794 35.3447 14.6555 35.3447Z" fill="#7383BF"/>
<path d="M12.0691 32.7586C12.5452 32.7586 12.9312 32.3726 12.9312 31.8965C12.9312 31.4204 12.5452 31.0344 12.0691 31.0344C11.593 31.0344 11.207 31.4204 11.207 31.8965C11.207 32.3726 11.593 32.7586 12.0691 32.7586Z" fill="#7383BF"/>
<path d="M17.2415 32.7586C17.7176 32.7586 18.1035 32.3726 18.1035 31.8965C18.1035 31.4204 17.7176 31.0344 17.2415 31.0344C16.7654 31.0344 16.3794 31.4204 16.3794 31.8965C16.3794 32.3726 16.7654 32.7586 17.2415 32.7586Z" fill="#7383BF"/>
<path d="M12.0691 37.9309C12.5452 37.9309 12.9312 37.545 12.9312 37.0689C12.9312 36.5927 12.5452 36.2068 12.0691 36.2068C11.593 36.2068 11.207 36.5927 11.207 37.0689C11.207 37.545 11.593 37.9309 12.0691 37.9309Z" fill="#7383BF"/>
<path d="M17.2415 37.9309C17.7176 37.9309 18.1035 37.545 18.1035 37.0689C18.1035 36.5927 17.7176 36.2068 17.2415 36.2068C16.7654 36.2068 16.3794 36.5927 16.3794 37.0689C16.3794 37.545 16.7654 37.9309 17.2415 37.9309Z" fill="#7383BF"/>
<path d="M19.8279 35.3447C20.304 35.3447 20.69 34.9588 20.69 34.4827C20.69 34.0066 20.304 33.6206 19.8279 33.6206C19.3518 33.6206 18.9658 34.0066 18.9658 34.4827C18.9658 34.9588 19.3518 35.3447 19.8279 35.3447Z" fill="#7383BF"/>
<path d="M25.0003 35.3447C25.4764 35.3447 25.8623 34.9588 25.8623 34.4827C25.8623 34.0066 25.4764 33.6206 25.0003 33.6206C24.5241 33.6206 24.1382 34.0066 24.1382 34.4827C24.1382 34.9588 24.5241 35.3447 25.0003 35.3447Z" fill="#7383BF"/>
<path d="M22.4138 32.7586C22.8899 32.7586 23.2759 32.3726 23.2759 31.8965C23.2759 31.4204 22.8899 31.0344 22.4138 31.0344C21.9377 31.0344 21.5518 31.4204 21.5518 31.8965C21.5518 32.3726 21.9377 32.7586 22.4138 32.7586Z" fill="#7383BF"/>
<path d="M27.5862 32.7586C28.0623 32.7586 28.4483 32.3726 28.4483 31.8965C28.4483 31.4204 28.0623 31.0344 27.5862 31.0344C27.1101 31.0344 26.7241 31.4204 26.7241 31.8965C26.7241 32.3726 27.1101 32.7586 27.5862 32.7586Z" fill="#7383BF"/>
<path d="M22.4138 37.9309C22.8899 37.9309 23.2759 37.545 23.2759 37.0689C23.2759 36.5927 22.8899 36.2068 22.4138 36.2068C21.9377 36.2068 21.5518 36.5927 21.5518 37.0689C21.5518 37.545 21.9377 37.9309 22.4138 37.9309Z" fill="#7383BF"/>
<path d="M27.5862 37.9309C28.0623 37.9309 28.4483 37.545 28.4483 37.0689C28.4483 36.5927 28.0623 36.2068 27.5862 36.2068C27.1101 36.2068 26.7241 36.5927 26.7241 37.0689C26.7241 37.545 27.1101 37.9309 27.5862 37.9309Z" fill="#7383BF"/>
<path d="M30.1726 35.3447C30.6487 35.3447 31.0347 34.9588 31.0347 34.4827C31.0347 34.0066 30.6487 33.6206 30.1726 33.6206C29.6965 33.6206 29.3105 34.0066 29.3105 34.4827C29.3105 34.9588 29.6965 35.3447 30.1726 35.3447Z" fill="#7383BF"/>
<path d="M35.345 35.3447C35.8211 35.3447 36.207 34.9588 36.207 34.4827C36.207 34.0066 35.8211 33.6206 35.345 33.6206C34.8689 33.6206 34.4829 34.0066 34.4829 34.4827C34.4829 34.9588 34.8689 35.3447 35.345 35.3447Z" fill="#7383BF"/>
<path d="M32.759 32.7586C33.2351 32.7586 33.6211 32.3726 33.6211 31.8965C33.6211 31.4204 33.2351 31.0344 32.759 31.0344C32.2829 31.0344 31.897 31.4204 31.897 31.8965C31.897 32.3726 32.2829 32.7586 32.759 32.7586Z" fill="#7383BF"/>
<path d="M37.9314 32.7586C38.4075 32.7586 38.7935 32.3726 38.7935 31.8965C38.7935 31.4204 38.4075 31.0344 37.9314 31.0344C37.4553 31.0344 37.0693 31.4204 37.0693 31.8965C37.0693 32.3726 37.4553 32.7586 37.9314 32.7586Z" fill="#7383BF"/>
<path d="M32.759 37.9309C33.2351 37.9309 33.6211 37.545 33.6211 37.0689C33.6211 36.5927 33.2351 36.2068 32.759 36.2068C32.2829 36.2068 31.897 36.5927 31.897 37.0689C31.897 37.545 32.2829 37.9309 32.759 37.9309Z" fill="#7383BF"/>
<path d="M37.9314 37.9309C38.4075 37.9309 38.7935 37.545 38.7935 37.0689C38.7935 36.5927 38.4075 36.2068 37.9314 36.2068C37.4553 36.2068 37.0693 36.5927 37.0693 37.0689C37.0693 37.545 37.4553 37.9309 37.9314 37.9309Z" fill="#7383BF"/>
<path d="M40.5173 35.3447C40.9934 35.3447 41.3794 34.9588 41.3794 34.4827C41.3794 34.0066 40.9934 33.6206 40.5173 33.6206C40.0412 33.6206 39.6553 34.0066 39.6553 34.4827C39.6553 34.9588 40.0412 35.3447 40.5173 35.3447Z" fill="#7383BF"/>
<path d="M43.1038 32.7586C43.5799 32.7586 43.9658 32.3726 43.9658 31.8965C43.9658 31.4204 43.5799 31.0344 43.1038 31.0344C42.6277 31.0344 42.2417 31.4204 42.2417 31.8965C42.2417 32.3726 42.6277 32.7586 43.1038 32.7586Z" fill="#7383BF"/>
<path d="M43.1038 37.9309C43.5799 37.9309 43.9658 37.545 43.9658 37.0689C43.9658 36.5927 43.5799 36.2068 43.1038 36.2068C42.6277 36.2068 42.2417 36.5927 42.2417 37.0689C42.2417 37.545 42.6277 37.9309 43.1038 37.9309Z" fill="#7383BF"/>
<path d="M5.17241 37.9311H0V21.5518C0 20.1233 1.15776 18.9656 2.58621 18.9656C4.01466 18.9656 5.17241 20.1233 5.17241 21.5518V37.9311Z" fill="#7383BF"/>
<path d="M50.0001 37.9311H44.8276V21.5518C44.8276 20.1233 45.9854 18.9656 47.4138 18.9656C48.8423 18.9656 50.0001 20.1233 50.0001 21.5518V37.9311Z" fill="#7383BF"/>
<path d="M33.9775 26.3672C33.3043 27.0405 32.2129 27.0405 31.5396 26.3672C31.2163 26.044 30.7775 25.8621 30.3206 25.8621H19.6793C19.2224 25.8621 18.7836 26.044 18.4603 26.3672C17.787 27.0405 16.6956 27.0405 16.0224 26.3672C15.6991 26.044 15.2603 25.8621 14.8034 25.8621H5.17236V30.1724H44.8275V25.8621H35.1965C34.7396 25.8621 34.3008 26.044 33.9775 26.3672Z" fill="#A6B2BC"/>
<path d="M4.31058 37.931H0.862305V40.5172H4.31058V37.931Z" fill="#9E6C53"/>
<path d="M49.1377 37.931H45.6895V40.5172H49.1377V37.931Z" fill="#9E6C53"/>
</svg>
