
<svg width="641px" height="512px" viewBox="0 0 641 512" version="1.1" xmlns="http://www.w3.org/2000/svg" xmlns:xlink="http://www.w3.org/1999/xlink">
	<g id="Page-1" stroke="none" stroke-width="1" fill="none" fill-rule="evenodd">
		<g id="corner-sofa-6-more" transform="translate(-0.000000, 0.000000)">
			<path d="M478.919,366.83 C470.862,366.83 464.332,373.562 464.332,381.868 C464.332,394.385 464.332,476.754 464.332,489.468 C464.332,497.773 470.862,504.507 478.919,504.507 L482.01,504.507 L584.278,504.507 L587.369,504.507 C587.369,499.618 587.369,372.221 587.369,366.83 C577.003,366.83 489.318,366.83 478.919,366.83 Z" id="Path" fill="#E8B469" fill-rule="nonzero"></path>
			<path d="M484.467,489.468 C484.467,476.756 484.467,394.386 484.467,381.868 C484.467,373.562 490.997,366.83 499.054,366.83 C491.367,366.83 486.614,366.83 478.92,366.83 C470.863,366.83 464.333,373.562 464.333,381.868 L464.333,395.925 C464.333,407.218 464.333,478.202 464.333,489.469 C464.333,497.774 470.863,504.508 478.92,504.508 L482.011,504.508 L499.054,504.508 C490.996,504.506 484.467,497.772 484.467,489.468 Z" id="Path" fill="#D6A15B" fill-rule="nonzero"></path>
			<path d="M548.099,55.41 L527.563,55.41 L497.205,55.41 L404.51,55.41 L404.51,167.128 C404.51,175.435 411.041,182.168 419.096,182.168 L447.923,182.168 C451.576,182.283 464.347,183.817 464.347,199.702 L464.347,220.297 C464.347,228.602 470.877,235.335 478.934,235.335 L587.359,235.335 C587.359,218.325 587.359,112.85 587.359,95.886 C587.357,73.567 569.745,55.41 548.099,55.41 Z" id="Path" fill="#E8B469" fill-rule="nonzero"></path>
			<g id="Group" transform="translate(404.508000, 55.410000)" fill="#D6A15B" fill-rule="nonzero">
				<path d="M20.605,111.718 L20.605,0 L0,0 L0,111.718 C0,120.025 6.531,126.758 14.586,126.758 L35.191,126.758 C27.136,126.758 20.605,120.024 20.605,111.718 Z" id="Path"></path>
				<path d="M80.442,164.888 L80.442,144.293 C80.442,128.407 67.671,126.874 64.018,126.759 L43.413,126.759 C47.066,126.874 59.837,128.408 59.837,144.293 L59.837,164.888 C59.837,173.193 66.367,179.926 74.424,179.926 L95.029,179.926 C86.971,179.925 80.442,173.192 80.442,164.888 Z" id="Path"></path>
			</g>
			<path d="M143.499,55.41 C143.499,67.078 143.499,155.538 143.499,167.128 C143.499,175.435 150.03,182.168 158.085,182.168 C169.897,182.168 250.764,182.168 262.51,182.168 C270.565,182.168 277.096,175.435 277.096,167.128 L277.096,164.037 C277.096,148.358 277.096,65.012 277.096,55.41 C251.018,55.41 170.63,55.41 143.499,55.41 Z" id="Path" fill="#E8B469" fill-rule="nonzero"></path>
			<path d="M9.499,55.41 C9.499,67.078 9.499,155.538 9.499,167.128 C9.499,175.435 16.03,182.168 24.085,182.168 C35.897,182.168 116.764,182.168 128.51,182.168 C136.565,182.168 143.096,175.435 143.096,167.128 L143.096,164.037 C143.096,148.358 143.096,65.012 143.096,55.41 C117.018,55.41 36.63,55.41 9.499,55.41 Z" id="Path" fill="#E8B469" fill-rule="nonzero"></path>
			<g id="Group" transform="translate(143.499000, 55.410000)" fill="#D6A15B" fill-rule="nonzero">
				<path d="M20.605,111.718 C20.605,98.852 20.605,11.684 20.605,-1.42108547e-14 C7.854,-1.42108547e-14 11.645,-1.42108547e-14 3.55271368e-15,-1.42108547e-14 C3.55271368e-15,11.668 3.55271368e-15,100.128 3.55271368e-15,111.718 C3.55271368e-15,120.025 6.531,126.758 14.586,126.758 C27.255,126.758 23.481,126.758 35.191,126.758 C27.136,126.758 20.605,120.024 20.605,111.718 Z" id="Path"></path>
				<path d="M249.436,0 C143.035,0 143.158,0 131.535,0 C131.535,11.668 131.535,100.128 131.535,111.718 C131.535,120.025 138.065,126.758 146.121,126.758 C158.166,126.758 236.569,126.758 248.485,126.758 C256.54,126.758 263.071,120.025 263.071,111.718 C263.071,103.218 263.071,31.672 263.071,3.091 L263.071,0 C263.071,0 249.436,0 249.436,0 Z" id="Path"></path>
			</g>
			<path d="M295.639,167.128 C295.639,154.262 295.639,67.094 295.639,55.41 C282.888,55.41 286.679,55.41 275.034,55.41 C275.034,67.078 275.034,155.538 275.034,167.128 C275.034,175.435 281.564,182.168 289.62,182.168 L303.254,182.168 L310.225,182.168 C302.169,182.168 295.639,175.434 295.639,167.128 Z" id="Path" fill="#C18A48" fill-rule="nonzero"></path>
			<path d="M478.919,233.274 C470.862,233.274 464.332,240.007 464.332,248.312 C464.332,257.109 464.332,336.485 464.332,353.852 C464.332,362.158 470.862,368.891 478.919,368.891 C488.688,368.891 567.115,368.891 584.278,368.891 L587.369,368.891 C587.369,362.316 587.369,239.841 587.369,233.274 C577.003,233.274 489.318,233.274 478.919,233.274 Z" id="Path" fill="#D6A15B" fill-rule="nonzero"></path>
			<path d="M484.467,353.852 C484.467,345.053 484.467,265.679 484.467,248.312 C484.467,240.007 490.997,233.274 499.054,233.274 C491.367,233.274 486.614,233.274 478.92,233.274 C470.863,233.274 464.333,240.007 464.333,248.312 C464.333,257.109 464.333,336.485 464.333,353.852 C464.333,362.158 470.863,368.891 478.92,368.891 L482.011,368.891 L499.054,368.891 C490.996,368.891 484.467,362.157 484.467,353.852 Z" id="Path" fill="#C18A48" fill-rule="nonzero"></path>
			<path d="M545.008,0.007 C535.326,0.007 158.356,0.007 141.364,0.007 C134.536,0.007 129,5.713 129,12.753 L129,45.754 C129,52.793 134.536,58.5 141.363,58.5 L182.43,58.5 C188.657,58.5 538.529,58.5 545.006,58.5 C566.653,58.5 584.264,76.656 584.264,98.976 C584.264,111.777 584.276,408.184 584.276,499.243 C584.276,506.283 589.812,511.99 596.639,511.99 L628.635,511.99 C635.465,511.99 640.998,506.283 640.998,499.243 C640.998,492.11 640.998,106.049 640.998,98.976 C640.998,44.405 597.938,0.007 545.008,0.007 Z" id="Path" fill="#585A60" fill-rule="nonzero"></path>
			<g id="Group" transform="translate(171.441000, 58.501000)" fill="#E5E5E5" fill-rule="nonzero">
				<path d="M70.725,26.194 C70.725,34.094 64.32,40.498 56.421,40.498 L14.304,40.498 C6.404,40.498 2.13162821e-14,34.094 2.13162821e-14,26.194 L2.13162821e-14,14.304 C2.13162821e-14,6.404 6.404,-1.42108547e-14 14.304,-1.42108547e-14 L56.421,-1.42108547e-14 C64.321,-1.42108547e-14 70.725,6.404 70.725,14.304 C70.725,14.304 70.725,26.194 70.725,26.194 Z" id="Path"></path>
				<path d="M204.723,26.194 C204.723,34.094 198.318,40.498 190.419,40.498 L148.302,40.498 C140.402,40.498 133.998,34.094 133.998,26.194 L133.998,14.304 C133.998,6.404 140.402,-1.42108547e-14 148.302,-1.42108547e-14 L190.419,-1.42108547e-14 C198.319,-1.42108547e-14 204.723,6.404 204.723,14.304 L204.723,26.194 Z" id="Path"></path>
			</g>
			<g id="Group" transform="translate(171.426094, 68.625000)" fill="#C6CBCC" fill-rule="nonzero">
				<path d="M56.4359063,10.125 L14.3189063,10.125 C7.87290629,10.125 2.42690629,5.861 0.638906292,0 C-0.153093708,2.592 0.0149062924,3.1 0.0149062924,16.07 C0.0149062924,23.97 6.41890629,30.374 14.3189063,30.374 L56.4359063,30.374 C64.3359063,30.374 70.7399063,23.97 70.7399063,16.07 L70.7399063,4.18 C70.7399063,2.726 70.5199063,1.323 70.1159063,0.001 C68.3279063,5.86 62.8819063,10.125 56.4359063,10.125 Z" id="Path"></path>
				<path d="M190.433906,10.125 L148.316906,10.125 C141.870906,10.125 136.424906,5.861 134.636906,0 C133.844906,2.592 134.012906,3.1 134.012906,16.07 C134.012906,23.97 140.416906,30.374 148.316906,30.374 L190.433906,30.374 C198.333906,30.374 204.737906,23.97 204.737906,16.07 L204.737906,4.18 C204.737906,2.726 204.517906,1.323 204.113906,0.001 C202.324906,5.86 196.878906,10.125 190.433906,10.125 Z" id="Path"></path>
			</g>
			<g id="Group" transform="translate(41.439000, 58.501000)" fill="#E5E5E5" fill-rule="nonzero">
				<path d="M70.725,26.194 C70.725,34.094 64.32,40.498 56.421,40.498 L14.304,40.498 C6.404,40.498 2.84217094e-14,34.094 2.84217094e-14,26.194 L2.84217094e-14,14.304 C2.84217094e-14,6.404 6.404,0 14.304,0 L56.421,0 C64.321,0 70.725,6.404 70.725,14.304 L70.725,26.194 Z" id="Path"></path>
			</g>
			<g id="Group" transform="translate(41.424094, 68.625000)" fill="#C6CBCC" fill-rule="nonzero">
				<path d="M56.4359063,10.125 L14.3189063,10.125 C7.87290629,10.125 2.42690629,5.861 0.638906292,0 C-0.153093708,2.592 0.0149062924,3.1 0.0149062924,16.07 C0.0149062924,23.97 6.41890629,30.374 14.3189063,30.374 L56.4359063,30.374 C64.3359063,30.374 70.7399063,23.97 70.7399063,16.07 L70.7399063,4.18 C70.7399063,2.726 70.5199063,1.323 70.1159063,0.001 C68.3269063,5.86 62.8809063,10.125 56.4359063,10.125 Z" id="Path"></path>
			</g>
			<g id="Group" transform="translate(504.451500, 71.781500)" fill="#E5E5E5" fill-rule="nonzero">
				<path d="M53.6195,265.4725 C45.7195,265.4725 39.3155,259.0675 39.3155,251.1685 L39.3155,209.0515 C39.3155,201.1515 45.7195,194.7475 53.6195,194.7475 L65.5095,194.7475 C73.4095,194.7475 79.8135,201.1515 79.8135,209.0515 L79.8135,251.1685 C79.8135,259.0685 73.4095,265.4725 65.5095,265.4725 L53.6195,265.4725 Z" id="Path"></path>
				<path d="M54.1985,62.6065 C48.6125,68.1935 39.5555,68.1925 33.9705,62.6065 L4.1895,32.8255 C-1.3965,27.2395 -1.3965,18.1825 4.1895,12.5975 L12.5975,4.1895 C18.1835,-1.3965 27.2405,-1.3965 32.8255,4.1895 L62.6055,33.9715 C68.1915,39.5575 68.1925,48.6145 62.6055,54.1995 L54.1985,62.6065 Z" id="Path"></path>
			</g>
			<path d="M553.613,119.621 L523.831,89.84 C519.287,85.296 518.44,78.457 521.288,73.056 C519.752,73.748 518.309,74.709 517.047,75.97 L508.639,84.378 C503.053,89.964 503.053,99.021 508.639,104.606 L538.42,134.387 C544.006,139.973 553.063,139.974 558.648,134.387 C567.719,125.316 568.301,124.994 569.598,122.534 C564.336,124.907 557.936,123.945 553.613,119.621 Z" id="Path" fill="#C6CBCC" fill-rule="nonzero"></path>
			<path d="M558.071,471.252 C550.171,471.252 543.767,464.847 543.767,456.948 L543.767,414.831 C543.767,406.931 550.171,400.527 558.071,400.527 L569.961,400.527 C577.861,400.527 584.265,406.931 584.265,414.831 L584.265,456.948 C584.265,464.848 577.861,471.252 569.961,471.252 L558.071,471.252 Z" id="Path" fill="#E5E5E5" fill-rule="nonzero"></path>
			<g id="Group" transform="translate(543.768000, 266.515094)" fill="#C6CBCC" fill-rule="nonzero">
				<path d="M20.249,56.4359063 L20.249,14.3189063 C20.249,7.87290629 24.513,2.42690629 30.374,0.638906292 C27.782,-0.153093708 27.274,0.0149062924 14.304,0.0149062924 C6.404,0.0149062924 0,6.41890629 0,14.3189063 L0,56.4359063 C0,64.3359063 6.404,70.7399063 14.304,70.7399063 C27.255,70.7399063 27.766,70.9119063 30.374,70.1159063 C24.513,68.3269063 20.249,62.8799063 20.249,56.4359063 Z" id="Path"></path>
				<path d="M20.249,190.433906 L20.249,148.316906 C20.249,141.870906 24.513,136.424906 30.374,134.636906 C27.782,133.844906 27.274,134.012906 14.304,134.012906 C6.404,134.012906 0,140.416906 0,148.316906 L0,190.433906 C0,198.333906 6.404,204.737906 14.304,204.737906 C27.255,204.737906 27.766,204.909906 30.374,204.113906 C24.513,202.323906 20.249,196.877906 20.249,190.433906 Z" id="Path"></path>
			</g>
			<rect id="Rectangle" fill="#585A60" x="2.84217094e-14" y="0" width="150" height="59" rx="14"></rect>
		</g>
	</g>
</svg>