<?xml version="1.0" encoding="iso-8859-1"?>
<!-- Generator: Adobe Illustrator 19.0.0, SVG Export Plug-In . SVG Version: 6.00 Build 0)  -->
<svg version="1.1" id="Capa_1" xmlns="http://www.w3.org/2000/svg" xmlns:xlink="http://www.w3.org/1999/xlink" x="0px" y="0px"
	 viewBox="0 0 512 512" style="enable-background:new 0 0 512 512;" xml:space="preserve">
<path style="fill:#CD916E;" d="M503.742,0H115.613C51.762,0,0,51.762,0,115.613v388.129C0,508.302,3.697,512,8.258,512h24.774
	h123.871c4.561,0,8.258-3.698,8.258-8.258v-16.516c0-4.561-3.697-8.258-8.258-8.258h8.258c9.121,0,16.516-7.395,16.516-16.516
	V346.839c0-9.122-7.395-16.516-16.516-16.516c9.121,0,16.516-7.395,16.516-16.516V198.194c0-9.122-7.395-16.516-16.516-16.516
	c9.121,0,16.516-7.395,16.516-16.516c0,9.121,7.395,16.516,16.516,16.516h115.613c9.121,0,16.516-7.395,16.516-16.516
	c0,9.121,7.395,16.516,16.516,16.516h115.613c9.121,0,16.516-7.395,16.516-16.516h0.002l-0.002-8.258
	c0,4.56,3.697,8.258,8.258,8.258h16.516c4.561,0,8.258-3.698,8.258-8.258V8.258C512,3.697,508.303,0,503.742,0z"/>
<g>
	<path style="fill:#E3A578;" d="M123.871,82.581h57.806v82.581H82.581v-41.29C82.581,101.067,101.067,82.581,123.871,82.581z"/>
	<path style="fill:#E3A578;" d="M198.194,181.677h115.613c9.122,0,16.516-7.395,16.516-16.516v-82.58H222.968
		c-13.682,0-24.774,11.092-24.774,24.774V181.677z"/>
	<path style="fill:#E3A578;" d="M198.194,66.065h115.613c9.122,0,16.516-7.395,16.516-16.516l0,0H214.71
		C205.588,49.548,198.194,56.943,198.194,66.065L198.194,66.065z"/>
	<path style="fill:#E3A578;" d="M181.677,462.452V346.839c0-9.122-7.395-16.516-16.516-16.516h-82.58v107.355
		c0,13.682,11.092,24.774,24.774,24.774H181.677z"/>
	<path style="fill:#E3A578;" d="M66.065,462.452V346.839c0-9.122-7.395-16.516-16.516-16.516l0,0v115.613
		C49.548,455.057,56.943,462.452,66.065,462.452L66.065,462.452z"/>
	<path style="fill:#E3A578;" d="M181.677,313.806V198.194c0-9.122-7.395-16.516-16.516-16.516h-82.58v107.355
		c0,13.682,11.092,24.774,24.774,24.774L181.677,313.806L181.677,313.806z"/>
	<path style="fill:#E3A578;" d="M66.065,313.806V198.194c0-9.122-7.395-16.516-16.516-16.516l0,0V297.29
		C49.548,306.412,56.943,313.806,66.065,313.806L66.065,313.806z"/>
	<path style="fill:#E3A578;" d="M346.839,181.677h115.613c9.122,0,16.516-7.395,16.516-16.516v-82.58H371.613
		c-13.682,0-24.774,11.092-24.774,24.774L346.839,181.677L346.839,181.677z"/>
	<path style="fill:#E3A578;" d="M346.839,66.065h115.613c9.122,0,16.516-7.395,16.516-16.516l0,0H363.355
		C354.233,49.548,346.839,56.943,346.839,66.065L346.839,66.065z"/>
</g>
<path style="fill:#B67F5F;" d="M115.613,33.032H512V16.516H115.613c-54.642,0-99.097,44.455-99.097,99.097V512h16.516V115.613
	C33.032,70.005,70.005,33.032,115.613,33.032z"/>
<path style="fill:#E3A578;" d="M181.677,49.548h-66.065c-36.486,0-66.065,29.578-66.065,66.065v33.032
	c0,9.122,7.395,16.516,16.516,16.516l0,0v-49.548c0-27.365,22.184-49.548,49.548-49.548h49.548
	C174.283,66.065,181.677,58.67,181.677,49.548L181.677,49.548z"/>
<path style="fill:#CD916E;" d="M123.871,445.935v16.516c0,9.122-7.395,16.516-16.516,16.516H82.581
	c-9.122,0-16.516-7.395-16.516-16.516v-16.516c0-9.122,7.395-16.516,16.516-16.516h24.774
	C116.476,429.419,123.871,436.814,123.871,445.935z"/>
<path style="fill:#B67F5F;" d="M82.581,437.677v-8.258c-9.121,0-16.516,7.394-16.516,16.516v16.516
	c0,9.122,7.395,16.516,16.516,16.516h24.774c9.121,0,16.516-7.395,16.516-16.516h-16.516
	C93.672,462.452,82.581,451.36,82.581,437.677z"/>
<path style="fill:#CD916E;" d="M462.452,123.871h-16.516c-9.122,0-16.516-7.395-16.516-16.516V82.581
	c0-9.122,7.395-16.516,16.516-16.516h16.516c9.122,0,16.516,7.395,16.516,16.516v24.774
	C478.968,116.476,471.573,123.871,462.452,123.871z"/>
<path style="fill:#B67F5F;" d="M470.71,82.581h8.258c0-9.121-7.394-16.516-16.516-16.516h-16.516
	c-9.122,0-16.516,7.395-16.516,16.516v24.774c0,9.121,7.395,16.516,16.516,16.516v-16.516
	C445.935,93.672,457.027,82.581,470.71,82.581z"/>
<path style="fill:#CD916E;" d="M129.503,84.498L117.824,72.82c-6.45-6.45-16.907-6.45-23.357,0L76.949,90.338
	c-6.45,6.45-6.45,16.907,0,23.357l11.679,11.679c6.45,6.45,16.907,6.45,23.357,0l17.518-17.518
	C135.953,101.406,135.953,90.948,129.503,84.498z"/>
<path style="fill:#B67F5F;" d="M106.145,119.534l5.839,5.839c-6.45,6.45-16.907,6.45-23.357,0l-11.679-11.679
	c-6.45-6.45-6.45-16.907,0-23.357L94.467,72.82c6.45-6.45,16.907-6.45,23.357,0l-11.679,11.679
	C96.471,94.173,96.471,109.86,106.145,119.534z"/>
<g>
	<path style="fill:#E3A578;" d="M165.161,495.484H66.064c-9.122,0-16.516-7.395-16.516-16.516l0,0h107.355
		c4.561,0,8.258,3.697,8.258,8.258L165.161,495.484L165.161,495.484z"/>
	<path style="fill:#E3A578;" d="M495.484,165.161V66.064c0-9.122,7.395-16.516,16.516-16.516l0,0v107.355
		c0,4.561-3.697,8.258-8.258,8.258L495.484,165.161L495.484,165.161z"/>
</g>
<g>
</g>
<g>
</g>
<g>
</g>
<g>
</g>
<g>
</g>
<g>
</g>
<g>
</g>
<g>
</g>
<g>
</g>
<g>
</g>
<g>
</g>
<g>
</g>
<g>
</g>
<g>
</g>
<g>
</g>
</svg>
