<svg width="50" height="50" viewBox="0 0 50 50" fill="none" xmlns="http://www.w3.org/2000/svg">
<path d="M4.43324 32.777C3.48277 26.5989 2.5323 20.4209 1.58183 14.2428C1.37105 12.8732 2.92933 11.9392 4.03777 12.7706C6.99902 14.9915 9.96011 17.2123 12.9214 19.4332C13.8964 20.1645 15.2854 19.9265 15.9614 18.9125L23.3571 7.81871C24.1387 6.64637 25.8612 6.64637 26.6428 7.81871L34.0386 18.9125C34.7145 19.9265 36.1036 20.1643 37.0786 19.4332C40.0398 17.2123 43.0009 14.9915 45.9621 12.7706C47.0706 11.9392 48.6289 12.8732 48.4182 14.2428C47.4678 20.4209 46.5173 26.5989 45.5668 32.777H4.43324Z" fill="#FFB743"/>
<path d="M43.4225 43.0603H6.57812C5.39375 43.0603 4.43359 42.1001 4.43359 40.9158V36.2048H45.5672V40.9158C45.567 42.1001 44.6069 43.0603 43.4225 43.0603Z" fill="#FFB743"/>
</svg>
