<svg width="30" height="30" viewBox="0 0 30 30" fill="none" xmlns="http://www.w3.org/2000/svg">
<g clip-path="url(#clip0_117_11377)">
<path d="M27.5807 30H2.41941C2.15217 30 1.93555 29.7834 1.93555 29.5161V0.483867C1.93555 0.216621 2.15223 0 2.41941 0H27.5807C27.848 0 28.0646 0.216621 28.0646 0.483867V29.5161C28.0646 29.7834 27.8479 30 27.5807 30Z" fill="#F5B97D"/>
<path d="M16.9354 26.613H13.0644C12.7972 26.613 12.5806 26.3964 12.5806 26.1291V1.93553C12.5806 1.66828 12.7972 1.45166 13.0644 1.45166H16.9354C17.2027 1.45166 17.4193 1.66828 17.4193 1.93553V26.1291C17.4193 26.3963 17.2027 26.613 16.9354 26.613Z" fill="#A5CDFF"/>
<path d="M16.4518 2.41943H13.5486V25.6454H16.4518V2.41943Z" fill="#C4DEFF"/>
<path d="M8.22588 26.613H3.87107C3.60383 26.613 3.38721 26.3964 3.38721 26.1291V1.93553C3.38721 1.66828 3.60383 1.45166 3.87107 1.45166H8.22594C8.49318 1.45166 8.7098 1.66828 8.7098 1.93553V26.1291C8.70975 26.3963 8.49312 26.613 8.22588 26.613Z" fill="#F7D291"/>
<path d="M26.129 26.613H21.7742C21.5069 26.613 21.2903 26.3964 21.2903 26.1291V1.93553C21.2903 1.66828 21.5069 1.45166 21.7742 1.45166H26.129C26.3963 1.45166 26.6129 1.66828 26.6129 1.93553V26.1291C26.6129 26.3963 26.3963 26.613 26.129 26.613Z" fill="#F7D291"/>
<path d="M1.93555 28.0645V29.5161C1.93555 29.7832 2.15217 29.9999 2.41941 29.9999H27.5807C27.848 29.9999 28.0646 29.7832 28.0646 29.5161V28.0645H1.93555Z" fill="#E3AA75"/>
<path d="M10.1613 14.0322H9.67747C9.41022 14.0322 9.1936 13.8156 9.1936 13.5483C9.1936 13.2811 9.41022 13.0645 9.67747 13.0645H10.1613V14.0322Z" fill="#6F6571"/>
<path d="M11.1292 13.0645H11.613C11.8803 13.0645 12.0969 13.2811 12.0969 13.5483C12.0969 13.8156 11.8803 14.0322 11.613 14.0322H11.1292V13.0645Z" fill="#6F6571"/>
<path d="M19.8389 13.0645H20.3227C20.59 13.0645 20.8066 13.2811 20.8066 13.5483C20.8066 13.8156 20.59 14.0322 20.3227 14.0322H19.8389V13.0645Z" fill="#6F6571"/>
<path d="M28.0646 28.0647H1.9353V29.0324H28.0646V28.0647Z" fill="#CD916E"/>
<path d="M11.1291 0H10.1614V28.0646H11.1291V0Z" fill="#E3AA75"/>
<path d="M19.8386 0H18.8708V28.0646H19.8386V0Z" fill="#E3AA75"/>
<path d="M12.5806 12.7811L17.4192 7.94237V6.57397L12.5806 11.4126V12.7811Z" fill="white"/>
<path d="M17.4193 9.47705L14.174 12.7224C13.985 12.9114 13.985 13.2176 14.174 13.4066C14.2685 13.5011 14.3923 13.5483 14.5161 13.5483C14.6399 13.5483 14.7637 13.5011 14.8583 13.4066L17.4194 10.8454L17.4193 9.47705Z" fill="#E2EFFF"/>
</g>
<defs>
<clipPath id="clip0_117_11377">
<rect width="30" height="30" fill="white"/>
</clipPath>
</defs>
</svg>
