<svg width="30" height="30" viewBox="0 0 30 30" fill="none" xmlns="http://www.w3.org/2000/svg">
<path d="M27.6562 2.8125H2.34375C2.08487 2.8125 1.875 3.02237 1.875 3.28125C1.875 3.54013 2.08487 3.75 2.34375 3.75H27.6562C27.9151 3.75 28.125 3.54013 28.125 3.28125C28.125 3.02237 27.9151 2.8125 27.6562 2.8125Z" fill="#D2E6E6"/>
<path d="M26.25 3.75V28.125L22.5 26.7188V3.75C22.7183 4.04108 23.0014 4.27734 23.3268 4.44006C23.6523 4.60278 24.0111 4.6875 24.375 4.6875C24.7389 4.6875 25.0977 4.60278 25.4232 4.44006C25.7486 4.27734 26.0317 4.04108 26.25 3.75Z" fill="#F5DD7E"/>
<path d="M18.75 3.75V28.125L15 26.7188V3.75C15.2183 4.04108 15.5014 4.27734 15.8268 4.44006C16.1523 4.60278 16.5111 4.6875 16.875 4.6875C17.2389 4.6875 17.5977 4.60278 17.9232 4.44006C18.2486 4.27734 18.5317 4.04108 18.75 3.75Z" fill="#F5DD7E"/>
<path d="M22.5 3.75V26.7188L18.75 28.125V3.75C18.9683 4.04108 19.2514 4.27734 19.5768 4.44006C19.9023 4.60278 20.2611 4.6875 20.625 4.6875C20.9889 4.6875 21.3477 4.60278 21.6732 4.44006C21.9986 4.27734 22.2817 4.04108 22.5 3.75Z" fill="#F0C939"/>
<path d="M11.25 3.75V28.125L7.5 26.7188V3.75C7.71831 4.04108 8.0014 4.27734 8.32684 4.44006C8.65229 4.60278 9.01114 4.6875 9.375 4.6875C9.73886 4.6875 10.0977 4.60278 10.4232 4.44006C10.7486 4.27734 11.0317 4.04108 11.25 3.75Z" fill="#F5DD7E"/>
<path d="M15 3.75V26.7188L11.25 28.125V3.75C11.4683 4.04108 11.7514 4.27734 12.0768 4.44006C12.4023 4.60278 12.7611 4.6875 13.125 4.6875C13.4889 4.6875 13.8477 4.60278 14.1732 4.44006C14.4986 4.27734 14.7817 4.04108 15 3.75Z" fill="#F0C939"/>
<path d="M7.5 3.75V26.7188L3.75 28.125V3.75C3.96831 4.04108 4.2514 4.27734 4.57684 4.44006C4.90229 4.60278 5.26114 4.6875 5.625 4.6875C5.98886 4.6875 6.34771 4.60278 6.67316 4.44006C6.9986 4.27734 7.28169 4.04108 7.5 3.75Z" fill="#F0C939"/>
<path d="M26.25 4.6875C26.1257 4.6875 26.0065 4.63811 25.9185 4.55021C25.8306 4.4623 25.7812 4.34307 25.7812 4.21875V2.34375C25.7812 2.21943 25.8306 2.1002 25.9185 2.01229C26.0065 1.92439 26.1257 1.875 26.25 1.875C26.3743 1.875 26.4935 1.92439 26.5815 2.01229C26.6694 2.1002 26.7188 2.21943 26.7188 2.34375V4.21875C26.7188 4.34307 26.6694 4.4623 26.5815 4.55021C26.4935 4.63811 26.3743 4.6875 26.25 4.6875Z" fill="#E1F0F0"/>
<path d="M22.5 4.6875C22.3757 4.6875 22.2565 4.63811 22.1685 4.55021C22.0806 4.4623 22.0312 4.34307 22.0312 4.21875V2.34375C22.0312 2.21943 22.0806 2.1002 22.1685 2.01229C22.2565 1.92439 22.3757 1.875 22.5 1.875C22.6243 1.875 22.7435 1.92439 22.8315 2.01229C22.9194 2.1002 22.9688 2.21943 22.9688 2.34375V4.21875C22.9688 4.34307 22.9194 4.4623 22.8315 4.55021C22.7435 4.63811 22.6243 4.6875 22.5 4.6875Z" fill="#E1F0F0"/>
<path d="M18.75 4.6875C18.6257 4.6875 18.5065 4.63811 18.4185 4.55021C18.3306 4.4623 18.2812 4.34307 18.2812 4.21875V2.34375C18.2812 2.21943 18.3306 2.1002 18.4185 2.01229C18.5065 1.92439 18.6257 1.875 18.75 1.875C18.8743 1.875 18.9935 1.92439 19.0815 2.01229C19.1694 2.1002 19.2188 2.21943 19.2188 2.34375V4.21875C19.2188 4.34307 19.1694 4.4623 19.0815 4.55021C18.9935 4.63811 18.8743 4.6875 18.75 4.6875Z" fill="#E1F0F0"/>
<path d="M15 4.6875C14.8757 4.6875 14.7565 4.63811 14.6685 4.55021C14.5806 4.4623 14.5312 4.34307 14.5312 4.21875V2.34375C14.5312 2.21943 14.5806 2.1002 14.6685 2.01229C14.7565 1.92439 14.8757 1.875 15 1.875C15.1243 1.875 15.2435 1.92439 15.3315 2.01229C15.4194 2.1002 15.4688 2.21943 15.4688 2.34375V4.21875C15.4688 4.34307 15.4194 4.4623 15.3315 4.55021C15.2435 4.63811 15.1243 4.6875 15 4.6875Z" fill="#E1F0F0"/>
<path d="M11.25 4.6875C11.1257 4.6875 11.0065 4.63811 10.9185 4.55021C10.8306 4.4623 10.7812 4.34307 10.7812 4.21875V2.34375C10.7812 2.21943 10.8306 2.1002 10.9185 2.01229C11.0065 1.92439 11.1257 1.875 11.25 1.875C11.3743 1.875 11.4935 1.92439 11.5815 2.01229C11.6694 2.1002 11.7188 2.21943 11.7188 2.34375V4.21875C11.7188 4.34307 11.6694 4.4623 11.5815 4.55021C11.4935 4.63811 11.3743 4.6875 11.25 4.6875Z" fill="#E1F0F0"/>
<path d="M7.5 4.6875C7.37568 4.6875 7.25645 4.63811 7.16854 4.55021C7.08064 4.4623 7.03125 4.34307 7.03125 4.21875V2.34375C7.03125 2.21943 7.08064 2.1002 7.16854 2.01229C7.25645 1.92439 7.37568 1.875 7.5 1.875C7.62432 1.875 7.74355 1.92439 7.83146 2.01229C7.91936 2.1002 7.96875 2.21943 7.96875 2.34375V4.21875C7.96875 4.34307 7.91936 4.4623 7.83146 4.55021C7.74355 4.63811 7.62432 4.6875 7.5 4.6875Z" fill="#E1F0F0"/>
<path d="M3.75 4.6875C3.62568 4.6875 3.50645 4.63811 3.41854 4.55021C3.33064 4.4623 3.28125 4.34307 3.28125 4.21875V2.34375C3.28125 2.21943 3.33064 2.1002 3.41854 2.01229C3.50645 1.92439 3.62568 1.875 3.75 1.875C3.87432 1.875 3.99355 1.92439 4.08146 2.01229C4.16936 2.1002 4.21875 2.21943 4.21875 2.34375V4.21875C4.21875 4.34307 4.16936 4.4623 4.08146 4.55021C3.99355 4.63811 3.87432 4.6875 3.75 4.6875Z" fill="#E1F0F0"/>
</svg>
