<svg width="36" height="35" viewBox="0 0 36 35" fill="none" xmlns="http://www.w3.org/2000/svg">
<g clip-path="url(#clip0_123_21815)">
<path d="M0 9.0741V32.182C0 33.7358 1.26176 35 2.8125 35H33.1875C34.7382 35 36 33.7358 36 32.182V9.0741H0Z" fill="#D8DCE1"/>
<path d="M33.1875 0.648132H2.8125C1.26176 0.648132 0 1.89431 0 3.42591V8.42591H36V3.42591C36 1.89431 34.7382 0.648132 33.1875 0.648132ZM4.5 6.20369C3.56801 6.20369 2.8125 5.45751 2.8125 4.53702C2.8125 3.61653 3.56801 2.87035 4.5 2.87035C5.43199 2.87035 6.1875 3.61653 6.1875 4.53702C6.1875 5.45751 5.43199 6.20369 4.5 6.20369ZM31.5 6.20369C30.568 6.20369 29.8125 5.45751 29.8125 4.53702C29.8125 3.61653 30.568 2.87035 31.5 2.87035C32.432 2.87035 33.1875 3.61653 33.1875 4.53702C33.1875 5.45751 32.432 6.20369 31.5 6.20369Z" fill="#2557C5"/>
<path d="M18 13.6111C16.7591 13.6111 15.75 14.6493 15.75 15.9259C15.75 17.2025 16.7591 18.2407 18 18.2407C19.2409 18.2407 20.25 17.2025 20.25 15.9259C20.25 14.6493 19.2409 13.6111 18 13.6111Z" fill="white"/>
<path d="M12.375 13.6111C11.1341 13.6111 10.125 14.6493 10.125 15.9259C10.125 17.2025 11.1341 18.2407 12.375 18.2407C13.6159 18.2407 14.625 17.2025 14.625 15.9259C14.625 14.6493 13.6159 13.6111 12.375 13.6111Z" fill="white"/>
<path d="M6.75 13.6111C5.50912 13.6111 4.5 14.6493 4.5 15.9259C4.5 17.2025 5.50912 18.2407 6.75 18.2407C7.99088 18.2407 9 17.2025 9 15.9259C9 14.6493 7.99088 13.6111 6.75 13.6111Z" fill="white"/>
<path d="M23.625 13.6111C22.3841 13.6111 21.375 14.6493 21.375 15.9259C21.375 17.2025 22.3841 18.2407 23.625 18.2407C24.8659 18.2407 25.875 17.2025 25.875 15.9259C25.875 14.6493 24.8659 13.6111 23.625 13.6111Z" fill="white"/>
<path d="M29.25 18.2407C30.4909 18.2407 31.5 17.2025 31.5 15.9259C31.5 14.6493 30.4909 13.6111 29.25 13.6111C28.0091 13.6111 27 14.6493 27 15.9259C27 17.2025 28.0091 18.2407 29.25 18.2407Z" fill="white"/>
<path d="M18 19.3981C16.7591 19.3981 15.75 20.4363 15.75 21.7129C15.75 22.9896 16.7591 24.0278 18 24.0278C19.2409 24.0278 20.25 22.9896 20.25 21.7129C20.25 20.4363 19.2409 19.3981 18 19.3981Z" fill="white"/>
<path d="M12.375 19.3981C11.1341 19.3981 10.125 20.4363 10.125 21.7129C10.125 22.9896 11.1341 24.0278 12.375 24.0278C13.6159 24.0278 14.625 22.9896 14.625 21.7129C14.625 20.4363 13.6159 19.3981 12.375 19.3981Z" fill="white"/>
<path d="M6.75 19.3981C5.50912 19.3981 4.5 20.4363 4.5 21.7129C4.5 22.9896 5.50912 24.0278 6.75 24.0278C7.99088 24.0278 9 22.9896 9 21.7129C9 20.4363 7.99088 19.3981 6.75 19.3981Z" fill="white"/>
<path d="M23.625 19.3981C22.3841 19.3981 21.375 20.4363 21.375 21.7129C21.375 22.9896 22.3841 24.0278 23.625 24.0278C24.8659 24.0278 25.875 22.9896 25.875 21.7129C25.875 20.4363 24.8659 19.3981 23.625 19.3981Z" fill="white"/>
<path d="M29.25 19.3981C28.0091 19.3981 27 20.4363 27 21.7129C27 22.9896 28.0091 24.0278 29.25 24.0278C30.4909 24.0278 31.5 22.9896 31.5 21.7129C31.5 20.4363 30.4909 19.3981 29.25 19.3981Z" fill="white"/>
<path d="M18 25.1852C16.7591 25.1852 15.75 26.2234 15.75 27.5C15.75 28.7766 16.7591 29.8148 18 29.8148C19.2409 29.8148 20.25 28.7766 20.25 27.5C20.25 26.2233 19.2409 25.1852 18 25.1852Z" fill="white"/>
<path d="M12.375 25.1852C11.1341 25.1852 10.125 26.2234 10.125 27.5C10.125 28.7766 11.1341 29.8148 12.375 29.8148C13.6159 29.8148 14.625 28.7766 14.625 27.5C14.625 26.2233 13.6159 25.1852 12.375 25.1852Z" fill="white"/>
<path d="M6.75 25.1852C5.50912 25.1852 4.5 26.2234 4.5 27.5C4.5 28.7766 5.50912 29.8148 6.75 29.8148C7.99088 29.8148 9 28.7766 9 27.5C9 26.2233 7.99088 25.1852 6.75 25.1852Z" fill="white"/>
<path d="M23.625 25.1852C22.3841 25.1852 21.375 26.2234 21.375 27.5C21.375 28.7766 22.3841 29.8148 23.625 29.8148C24.8659 29.8148 25.875 28.7766 25.875 27.5C25.875 26.2233 24.8659 25.1852 23.625 25.1852Z" fill="white"/>
<path d="M29.25 25.1852C28.0091 25.1852 27 26.2234 27 27.5C27 28.7766 28.0091 29.8148 29.25 29.8148C30.4909 29.8148 31.5 28.7766 31.5 27.5C31.5 26.2233 30.4909 25.1852 29.25 25.1852Z" fill="white"/>
<path d="M4.82143 5.83333C4.28906 5.83333 3.85714 5.4417 3.85714 4.95833V0.875C3.85714 0.391635 4.28906 0 4.82143 0C5.3538 0 5.78571 0.391635 5.78571 0.875V4.95833C5.78571 5.4417 5.3538 5.83333 4.82143 5.83333Z" fill="#5C546A"/>
<path d="M31.8214 5.83333C31.2891 5.83333 30.8571 5.4417 30.8571 4.95833V0.875C30.8571 0.391635 31.2891 0 31.8214 0C32.3538 0 32.7857 0.391635 32.7857 0.875V4.95833C32.7857 5.4417 32.3538 5.83333 31.8214 5.83333Z" fill="#5C546A"/>
<path d="M18.3214 29.8148C19.5641 29.8148 20.5714 28.7992 20.5714 27.5463C20.5714 26.2934 19.5641 25.2778 18.3214 25.2778C17.0788 25.2778 16.0714 26.2934 16.0714 27.5463C16.0714 28.7992 17.0788 29.8148 18.3214 29.8148Z" fill="#4EA47C"/>
<path d="M23.4643 23.9815C24.7069 23.9815 25.7143 22.9658 25.7143 21.713C25.7143 20.4601 24.7069 19.4445 23.4643 19.4445C22.2216 19.4445 21.2143 20.4601 21.2143 21.713C21.2143 22.9658 22.2216 23.9815 23.4643 23.9815Z" fill="#2557C5"/>
</g>
<defs>
<clipPath id="clip0_123_21815">
<rect width="36" height="35" fill="white"/>
</clipPath>
</defs>
</svg>
