<svg width="34" height="30" viewBox="0 0 34 30" fill="none" xmlns="http://www.w3.org/2000/svg">
<path d="M15.6129 18C15.2452 18 15 17.7919 15 17.4796V13.8367C15 12.6918 16.1032 11.7551 17.4516 11.7551C22.5387 11.3908 30.3225 10.8184 30.8129 10.7143C31.9161 10.5061 32.7741 9.62144 32.7741 8.63269V6.55107C32.7741 5.40615 31.6709 4.46946 30.3225 4.46946C29.9548 4.46946 29.7096 4.26129 29.7096 3.94902C29.7096 3.63675 29.9548 3.42859 30.3225 3.42859C32.3451 3.42859 34 4.83367 34 6.55107V8.63269C34 10.1419 32.7742 11.4429 31.0581 11.7552C30.5065 11.8593 19.6581 12.6399 17.5129 12.796C16.7774 12.796 16.2258 13.2644 16.2258 13.8368V17.4796C16.2258 17.7919 15.9806 18 15.6129 18Z" fill="#A3AAAF"/>
<path d="M19 17.1428H11L11.5715 19.7143H12.7143V27.9428C12.7143 29.0743 13.7429 30 15 30C16.2571 30 17.2857 29.0742 17.2857 27.9428V19.7143H18.4285L19 17.1428Z" fill="#C17C3E"/>
<path d="M1 3.91839V5.87756C1 6.41632 1.55533 6.85714 2.23403 6.85714H28.766C29.4447 6.85714 30 6.41632 30 5.87756V0.979584C30 0.440827 29.4447 0 28.766 0H2.2341C1.55533 0 1 0.440827 1 0.979584V2.93875V3.91839Z" fill="#ECE8D8"/>
<path d="M0.666692 3.42859C0.266662 3.42859 0 3.77143 0 4.28573C0 4.80004 0.266662 5.14287 0.666692 5.14287H2V3.42859H0.666692Z" fill="#A3AAAF"/>
<path d="M4.59373 5.94659C4.4721 5.94659 4.28973 5.89403 4.22892 5.84147C3.98574 5.63129 3.92493 5.31599 4.16811 5.10581L7.20792 1.95308C7.4511 1.7429 7.8159 1.69034 8.05909 1.90052C8.30227 2.1107 8.36308 2.42599 8.1199 2.63617L5.08009 5.78897C4.95847 5.89409 4.7761 5.94659 4.59373 5.94659Z" fill="#C9C3A7"/>
<path d="M8.84947 5.94659C8.72784 5.94659 8.54547 5.89403 8.48466 5.84147C8.24148 5.63129 8.18066 5.31599 8.42385 5.10581L11.4637 1.95308C11.7068 1.7429 12.0716 1.69034 12.3148 1.90052C12.558 2.1107 12.6188 2.42599 12.3756 2.63617L9.33583 5.78891C9.2142 5.89409 9.03183 5.94659 8.84947 5.94659Z" fill="#C9C3A7"/>
<path d="M13.1051 5.94659C12.9835 5.94659 12.8011 5.89403 12.7403 5.84147C12.4972 5.63129 12.4363 5.31599 12.6795 5.10581L15.7193 1.95308C15.9625 1.7429 16.3273 1.69034 16.5705 1.90052C16.8137 2.1107 16.8745 2.42599 16.6313 2.63617L13.5915 5.78891C13.4699 5.89409 13.2875 5.94659 13.1051 5.94659Z" fill="#C9C3A7"/>
<path d="M17.3609 5.94659C17.2393 5.94659 17.0569 5.89403 16.9961 5.84147C16.7529 5.63129 16.6921 5.31599 16.9353 5.10581L19.9751 1.95308C20.2182 1.7429 20.5831 1.69034 20.8262 1.90052C21.0694 2.1107 21.1302 2.42599 20.887 2.63617L17.8472 5.78891C17.7257 5.89409 17.5432 5.94659 17.3609 5.94659Z" fill="#C9C3A7"/>
<path d="M21.6166 5.94659C21.495 5.94659 21.3126 5.89403 21.2518 5.84147C21.0086 5.63129 20.9478 5.31599 21.191 5.10581L24.2308 1.95308C24.474 1.7429 24.8388 1.69034 25.082 1.90052C25.3252 2.1107 25.386 2.42599 25.1428 2.63617L22.103 5.78891C21.9814 5.89409 21.799 5.94659 21.6166 5.94659Z" fill="#C9C3A7"/>
<path d="M25.2644 5.94659C25.1428 5.94659 24.9604 5.89403 24.8996 5.84147C24.6564 5.63129 24.5956 5.31599 24.8388 5.10581L27.8786 1.95308C28.1218 1.7429 28.4866 1.69034 28.7297 1.90052C28.9729 2.1107 29.0337 2.42599 28.7906 2.63617L25.7507 5.78891C25.6291 5.89409 25.4468 5.94659 25.2644 5.94659Z" fill="#C9C3A7"/>
<path d="M10.7646 6.85718H3V10.5238C3 11.4143 3.84118 12.0953 4.94118 12.0953C6.04118 12.0953 6.88236 11.4143 6.88236 10.5238V14.7143C6.88236 15.6048 7.72354 16.2857 8.82354 16.2857C9.92354 16.2857 10.7647 15.6048 10.7647 14.7143V9.21431C10.7647 9.94766 11.4765 10.5238 12.3824 10.5238C13.2883 10.5238 14 9.94766 14 9.21431V6.85718H10.7646Z" fill="#368CD6"/>
<path d="M15.4732 24.9031H14.0019V26.024H15.4732C15.7674 26.024 15.9636 25.7998 15.9636 25.4635C15.9636 25.1272 15.7674 24.9031 15.4732 24.9031Z" fill="#9E5A23"/>
<path d="M15.9636 27.7055C15.9636 27.3692 15.7674 27.145 15.4732 27.145H14.0019V28.266H15.4732C15.7674 28.266 15.9636 28.0418 15.9636 27.7055Z" fill="#9E5A23"/>
</svg>
