<svg width="29" height="30" viewBox="0 0 29 30" fill="none" xmlns="http://www.w3.org/2000/svg">
<g clip-path="url(#clip0_136_42650)">
<path d="M18.2211 28.3406H3.67513L1.59717 12.5941H20.299L18.2211 28.3406Z" fill="#4398D1"/>
<path d="M21.8575 10.5624H0.0385742V12.5942H21.8575V10.5624Z" fill="#4398D1"/>
<path d="M1.62158 12.973L1.88888 15.4055H20.0029L20.2702 12.973H1.62158Z" fill="#398CC4"/>
<path d="M10.5405 10.5406H3.24316V5.84947L5.32809 3.24329H8.45554L10.5405 5.84947V10.5406Z" fill="#726891"/>
<path d="M8.10799 0H4.86475V3.24324H8.10799V0Z" fill="#E8594A"/>
<path d="M10.5405 5.67566H3.24316V10.5405H10.5405V5.67566Z" fill="#7A709C"/>
<path d="M17.3457 2.20422L18.2834 1.74315L20.4226 5.96436L19.4848 6.42543L17.3457 2.20422Z" fill="#E66712"/>
<path d="M21.0564 0H18.9092V2.01618H21.0564V0Z" fill="#F77219"/>
<path d="M16.2249 4.03241H11.3936C11.3936 1.80548 13.3164 0 15.688 0H18.9089V2.01618L16.2249 4.03241Z" fill="#F77219"/>
<path d="M17.0269 4.05408H13.7837V6.48651H17.0269V4.05408Z" fill="#D4D4D4"/>
<path d="M13.7258 5.67566H16.8532L19.4594 8.37838V10.5405H12.1621V7.2973L13.7258 5.67566Z" fill="#EBEBEB"/>
<path d="M25.8447 21.8918H25.0512C24.5733 21.8918 24.102 22.0033 23.6743 22.2166C22.8077 22.6504 21.7871 22.6504 20.9206 22.2166C20.4929 22.0033 20.0216 21.8918 19.5437 21.8918H18.7501C17.3509 21.8918 16.2163 23.0265 16.2163 24.4256V27.4662C16.2163 28.8653 17.3509 30 18.7501 30H19.5437C20.0215 30 20.4928 29.8885 20.9206 29.6752C21.7871 29.2414 22.8077 29.2414 23.6743 29.6752C24.1019 29.8885 24.5733 30 25.0511 30H25.8447C27.2438 30 28.3785 28.8653 28.3785 27.4662V24.4256C28.3785 23.0265 27.2439 21.8918 25.8447 21.8918Z" fill="#F5A338"/>
<path d="M25.8447 27.5675H25.0512C24.5733 27.5675 24.102 27.4427 23.6743 27.2037C22.8077 26.7179 21.7871 26.7179 20.9206 27.2037C20.4929 27.4427 20.0216 27.5675 19.5437 27.5675H18.7501C17.3509 27.5675 16.2163 26.2967 16.2163 24.7297C16.2163 23.1626 17.3509 21.8918 18.7501 21.8918H19.5437C20.0215 21.8918 20.4928 22.0167 20.9206 22.2556C21.7871 22.7414 22.8077 22.7414 23.6743 22.2556C24.1019 22.0167 24.5733 21.8918 25.0511 21.8918H25.8447C27.2438 21.8918 28.3785 23.1626 28.3785 24.7297C28.3785 26.2968 27.2439 27.5675 25.8447 27.5675Z" fill="#F9B44D"/>
<path d="M25.8912 22.7172H24.8901V23.7775H25.8912V22.7172Z" fill="#F5A338"/>
<path d="M20.8858 22.7172H19.8848V23.7775H20.8858V22.7172Z" fill="#F5A338"/>
<path d="M18.8839 23.2474H17.8828V24.3078H18.8839V23.2474Z" fill="#F5A338"/>
<path d="M23.8892 23.2474H22.8882V24.3078H23.8892V23.2474Z" fill="#F5A338"/>
<path d="M14.0495 14.7817V10.5405H5.67578V22.7339C5.67578 23.6123 6.37862 24.3243 7.24586 24.3243H12.4794C13.3466 24.3243 14.0495 23.6124 14.0495 22.7339V17.4324L16.1743 18.5086C16.7348 18.7928 17.4163 18.5626 17.6968 17.9954C17.6968 17.9949 17.6973 17.9949 17.6973 17.9943L17.7104 17.9678C18.0035 17.3852 17.7743 16.6721 17.1996 16.3758C17.1975 16.3748 17.1949 16.3732 17.1922 16.3721L14.0495 14.7817Z" fill="#97D3E6"/>
<path d="M17.1911 16.3722L14.0426 14.7817V10.5405H13.6452C11.742 16.8678 8.40214 20.7347 5.67578 22.9677C5.78851 23.7465 6.44861 24.3238 7.22667 24.3243H12.4697C13.3385 24.3243 14.0427 23.6124 14.0427 22.7339V17.4324L16.1713 18.5086C16.7328 18.7928 17.4155 18.5626 17.6965 17.9954C17.6965 17.9949 17.697 17.9949 17.697 17.9943L17.7102 17.9678C18.0038 17.3852 17.7741 16.6721 17.1984 16.3758C17.1958 16.3748 17.1937 16.3732 17.1911 16.3722Z" fill="#8AC9DE"/>
<path d="M8.44913 18.6882H7.32324V24.318H8.44913V18.6882Z" fill="#7DBDD1"/>
<path d="M10.7011 18.6882H9.5752V24.318H10.7011V18.6882Z" fill="#7DBDD1"/>
<path d="M12.9525 18.6882H11.8267V24.318H12.9525V18.6882Z" fill="#7DBDD1"/>
</g>
<defs>
<clipPath id="clip0_136_42650">
<rect width="28.3784" height="30" fill="white"/>
</clipPath>
</defs>
</svg>
