<svg width="52" height="51" viewBox="0 0 52 51" fill="none" xmlns="http://www.w3.org/2000/svg">
<g clip-path="url(#clip0_44_1812)">
<path d="M37.2564 10.4038L36.2609 8.94056C37.6924 8.00759 38.5521 6.43359 38.5517 4.74795V2.6377H40.3448V4.74795C40.3457 7.02137 39.186 9.14451 37.2564 10.4038Z" fill="#E3584B"/>
<path d="M47.5172 43.9655H37.6552C35.6747 43.9655 34.069 42.3907 34.069 40.4483V30.7759L41.2414 19.3449L43.931 10.5518H49.3103L51.1035 20.2242V40.4483C51.1035 42.3907 49.4977 43.9655 47.5172 43.9655Z" fill="#4398D1"/>
<path d="M52 7.03448H41.2414C40.6937 4.88644 38.9335 3.24031 36.7201 2.80581L35.8621 2.63793V0H44.8276C48.789 0 52 3.14929 52 7.03448Z" fill="#D6D9DB"/>
<path d="M43.931 7.03467H49.3103V10.5519H43.931V7.03467Z" fill="#E3584B"/>
<path d="M34.069 38.3473V40.4481C34.069 42.3905 35.6747 43.9653 37.6552 43.9653H47.5172C49.4977 43.9653 51.1035 42.3905 51.1035 40.4481V20.2239L51.0522 19.9487C46.4434 26.9424 40.7077 33.156 34.069 38.3473Z" fill="#3E8DC2"/>
<path d="M16.1379 43.9653H3.58621C1.60574 43.9653 1.02925e-06 42.3904 1.02925e-06 40.4481V27.8573C-0.00043674 26.8758 0.138774 25.8991 0.414131 24.9554L1.7931 20.2239L0.218886 15.5917C0.0735463 15.1653 1.02925e-06 14.7188 1.02925e-06 14.2693C-0.00043674 13.028 0.562097 11.8503 1.53482 11.0564L5.37931 7.91357H14.3448L18.1893 11.0564C19.162 11.8503 19.7246 13.028 19.7241 14.2693C19.7237 14.7175 19.6502 15.1627 19.5053 15.5882L17.931 20.2239L19.31 24.9579C19.5854 25.9017 19.7246 26.8784 19.7241 27.8599V40.4481C19.7241 42.3904 18.1184 43.9653 16.1379 43.9653Z" fill="#FFC24F"/>
<path d="M17.931 20.2241L19.5053 15.5919C20.0603 13.9586 19.5381 12.1584 18.1893 11.0566L16.8173 9.93604C13.7298 24.5159 6.22289 32.7736 0 37.2827V40.4483C0 42.3907 1.60574 43.9655 3.58621 43.9655H16.1379C18.1184 43.9655 19.7241 42.3907 19.7241 40.4483V27.8576C19.7246 26.8761 19.5854 25.8993 19.31 24.9556L17.931 20.2241Z" fill="#FFB64F"/>
<path d="M14.3448 7.91364H5.37933V5.27571L7.17244 3.51709H12.5517L14.3448 5.27571V7.91364Z" fill="#4398D1"/>
<path d="M7.17242 0H12.5517V3.51724H7.17242V0Z" fill="#4398D1"/>
<path d="M14.3448 14.0691C14.3448 12.6123 12.3377 11.4312 9.86209 11.4312C7.38651 11.4312 5.37933 12.6123 5.37933 14.0691C5.37933 15.5259 7.38651 16.707 9.86209 16.707C12.3377 16.707 14.3448 15.5259 14.3448 14.0691Z" fill="#FF7230"/>
<path d="M12.5517 39.569H7.17239C5.19192 39.569 3.58618 37.9941 3.58618 36.0517V25.5L13.7578 29.0628C15.1849 29.5629 16.1379 30.8888 16.1379 32.3752V36.0517C16.1379 37.9941 14.5322 39.569 12.5517 39.569Z" fill="#FF7230"/>
<path d="M7.17239 39.5691H12.5517C14.5322 39.5691 16.1379 37.9943 16.1379 36.0519V32.3754C16.1379 30.8889 15.1849 29.5631 13.7578 29.0629L9.46017 27.5576C7.76338 30.0247 5.79341 32.3002 3.58618 34.3426V36.0519C3.58618 37.9943 5.19192 39.5691 7.17239 39.5691Z" fill="#FC641C"/>
<path d="M22.4138 5.27588H29.5862C30.0813 5.27588 30.4827 5.66959 30.4827 6.15519V10.5517H21.5172V6.15519C21.5172 5.66959 21.9186 5.27588 22.4138 5.27588Z" fill="#4398D1"/>
<path d="M36.2289 17.1148L32.2759 14.069V10.5518H19.7242V14.069L18.3119 15.6842C9.60294 25.6494 8.7147 40.0795 16.138 51H37.6552L39.8966 48.2513C43.6443 43.6547 45.3652 37.7803 44.6761 31.9334C43.9875 26.0865 40.9459 20.7518 36.2281 17.1148H36.2289ZM39.4006 40.1705C39.0832 41.0481 38.114 41.5217 37.2087 41.2409C36.3029 40.9601 35.7868 40.0267 36.0416 39.1293C37.2494 34.9805 36.3918 30.5157 33.7267 27.0826L33.2648 26.4884C32.6318 25.6374 32.8052 24.4468 33.6553 23.8032C34.5059 23.1596 35.7242 23.2979 36.4027 24.1141L36.7613 24.5645C40.2984 28.9838 41.2935 34.8676 39.4006 40.1705Z" fill="#FF7230"/>
<path d="M22.4138 13.1895H32.2759V14.9481H22.4138V13.1895Z" fill="#DE5718"/>
<path d="M40.5733 21.5581C39.8952 23.3111 39.0972 25.0174 38.1849 26.6652C40.5497 30.7866 40.9927 35.7065 39.4005 40.1705C39.0832 41.0481 38.1139 41.5216 37.2086 41.2408C36.3029 40.96 35.7868 40.0266 36.0415 39.1293C36.8484 36.3291 36.7227 33.3489 35.6826 30.6238C29.2679 39.6175 20.3103 44.8315 14.1531 47.5682C14.7353 48.7545 15.3985 49.9013 16.1379 51H37.6552L39.8965 48.2513C46.2101 40.5127 46.4863 29.5947 40.5725 21.5581H40.5733Z" fill="#FA6823"/>
<path d="M25.5132 25.5421C25.2299 25.5176 24.9449 25.5 24.6551 25.5C20.1584 25.4983 16.2885 28.6162 15.4165 32.9432C14.5449 37.2698 16.9149 41.5968 21.0746 43.273C25.2339 44.9487 30.0213 43.5057 32.5026 39.8274C31.2545 32.5521 28.3258 28.1641 25.5132 25.5421Z" fill="#FFA217"/>
<path d="M43.931 7.03467H49.3103V8.79329H43.931V7.03467Z" fill="#CF4E42"/>
</g>
<defs>
<clipPath id="clip0_44_1812">
<rect width="52" height="51" fill="white"/>
</clipPath>
</defs>
</svg>
