<svg width="52" height="50" viewBox="0 0 52 50" fill="none" xmlns="http://www.w3.org/2000/svg">
<g clip-path="url(#clip0_44_1115)">
<path d="M12.353 0H51.1765C51.1765 3.89819 48.016 7.05882 44.1176 7.05882H19.4118C15.5136 7.05882 12.353 3.89829 12.353 0Z" fill="#346AE5"/>
<path d="M12.353 7.05884H51.1765C51.1765 10.957 48.016 14.1177 44.1176 14.1177H19.4118C15.5136 14.1177 12.353 10.957 12.353 7.05884Z" fill="#87CED9"/>
<path d="M43.323 7.05884C35.3816 12.1147 24.6849 13.5794 18.2353 13.9853C18.6802 14.0745 19.133 14.1185 19.5866 14.1176H44.1565C48.0332 14.1176 51.1765 10.9571 51.1765 7.05884H43.323Z" fill="#71C4D1"/>
<path d="M12.353 14.1177H51.1765C51.1765 18.0159 48.016 21.1765 44.1176 21.1765H19.4118C15.5136 21.1764 12.353 18.0159 12.353 14.1177Z" fill="#E5E5E5"/>
<path d="M43.323 14.1177C35.3816 19.1735 24.6849 20.6382 18.2353 21.0441C18.6802 21.1333 19.133 21.1774 19.5866 21.1765H44.1565C48.0332 21.1765 51.1765 18.016 51.1765 14.1177H43.323Z" fill="#DEDEDE"/>
<path d="M12.353 21.1765H51.1765C51.1765 25.0746 48.016 28.2353 44.1176 28.2353H19.4118C15.5136 28.2353 12.353 25.0747 12.353 21.1765Z" fill="#87CED9"/>
<path d="M43.323 21.1765C35.3816 26.2323 24.6849 27.697 18.2353 28.1029C18.6802 28.1921 19.133 28.2362 19.5866 28.2353H44.1565C48.0332 28.2353 51.1765 25.0747 51.1765 21.1765H43.323Z" fill="#71C4D1"/>
<path d="M51.1765 28.2353C51.1765 32.1335 48.016 35.2941 44.1176 35.2941H19.4118C15.5136 35.2941 12.353 32.1335 12.353 28.2353H51.1765Z" fill="#4398D1"/>
<path d="M43.323 28.2353C35.3816 33.2911 24.6849 34.7559 18.2353 35.1618C18.6802 35.2509 19.133 35.295 19.5866 35.2941H44.1565C48.0332 35.2941 51.1765 32.1336 51.1765 28.2353H43.323Z" fill="#346AE5"/>
<path d="M51.1765 42.353C51.1765 46.2512 48.016 49.4118 44.1176 49.4118H19.4118C15.5136 49.4118 12.353 46.2513 12.353 42.353H51.1765Z" fill="#346AE5"/>
<path d="M43.323 42.353C35.3816 47.4088 24.6849 48.8735 18.2353 49.2794C18.6802 49.3686 19.133 49.4127 19.5866 49.4118H44.1565C48.0332 49.4118 51.1765 46.2512 51.1765 42.353H43.323Z" fill="#346AE5"/>
<path d="M12.353 35.2941H51.1765C51.1765 39.1923 48.016 42.353 44.1176 42.353H19.4118C15.5136 42.3529 12.353 39.1923 12.353 35.2941Z" fill="#E5E5E5"/>
<path d="M43.323 35.2941C35.3816 40.35 24.6849 41.8147 18.2353 42.2206C18.6802 42.3098 19.133 42.3538 19.5866 42.3529H44.1565C48.0332 42.3529 51.1765 39.1924 51.1765 35.2941H43.323Z" fill="#DEDEDE"/>
<path d="M18.5294 49.4118C28.7629 49.4118 37.0588 41.1159 37.0588 30.8824C37.0588 20.6489 28.7629 12.353 18.5294 12.353C8.2959 12.353 0 20.6489 0 30.8824C0 41.1159 8.2959 49.4118 18.5294 49.4118Z" fill="#E5E5E5"/>
<path d="M32.12 18.2353C26.496 32.3466 14.8192 39.7903 5.29413 43.4858C11.8707 51.2735 23.4634 52.2119 31.1867 45.5805C38.91 38.9491 39.8406 27.2596 33.2641 19.4719C32.902 19.0414 32.5197 18.6295 32.12 18.2353Z" fill="#DEDEDE"/>
<path d="M18.5174 19.5073C12.2228 19.5073 7.12042 24.6097 7.12042 30.9043H8.87378C8.87378 25.5784 13.1915 21.2608 18.5173 21.2608L18.5174 19.5073Z" fill="#CFCFCF"/>
<path d="M28.1611 30.9043C28.1611 36.2303 23.8433 40.5479 18.5175 40.5479V42.3012C24.8121 42.3012 29.9145 37.1989 29.9145 30.9042H28.1611V30.9043Z" fill="#CFCFCF"/>
</g>
<defs>
<clipPath id="clip0_44_1115">
<rect width="51.1765" height="50" fill="white"/>
</clipPath>
</defs>
</svg>
