<svg width="30" height="30" viewBox="0 0 30 30" fill="none" xmlns="http://www.w3.org/2000/svg">
<g clip-path="url(#clip0_117_11142)">
<path d="M27.6562 6.5625V24.5761L25.7812 21.0938V6.5625H27.6562Z" fill="#758190"/>
<path d="M2.34375 6.5625V24.5761L4.21875 21.0938V6.5625H2.34375Z" fill="#758190"/>
<path d="M4.21875 6.5625H25.7812V9.375H4.21875V6.5625Z" fill="#D5CEC2"/>
<path d="M4.21875 9.375H25.7812V21.0938H4.21875V9.375Z" fill="#E8EFF4"/>
<path d="M25.7812 21.0938H4.21875L0.9375 27.1875H29.0625L25.7812 21.0938Z" fill="#8892A0"/>
<path d="M11.25 19.2188C13.0622 19.2188 14.5312 17.7497 14.5312 15.9375C14.5312 14.1253 13.0622 12.6562 11.25 12.6562C9.43782 12.6562 7.96875 14.1253 7.96875 15.9375C7.96875 17.7497 9.43782 19.2188 11.25 19.2188Z" fill="#758190"/>
<path d="M10.7812 20.625C12.5934 20.625 14.0625 19.1559 14.0625 17.3438C14.0625 15.5316 12.5934 14.0625 10.7812 14.0625C8.96907 14.0625 7.5 15.5316 7.5 17.3438C7.5 19.1559 8.96907 20.625 10.7812 20.625Z" fill="#A8B0BC"/>
<path d="M18.75 19.2188C20.5622 19.2188 22.0312 17.7497 22.0312 15.9375C22.0312 14.1253 20.5622 12.6562 18.75 12.6562C16.9378 12.6562 15.4688 14.1253 15.4688 15.9375C15.4688 17.7497 16.9378 19.2188 18.75 19.2188Z" fill="#758190"/>
<path d="M19.2188 20.625C21.0309 20.625 22.5 19.1559 22.5 17.3438C22.5 15.5316 21.0309 14.0625 19.2188 14.0625C17.4066 14.0625 15.9375 15.5316 15.9375 17.3438C15.9375 19.1559 17.4066 20.625 19.2188 20.625Z" fill="#A8B0BC"/>
<path d="M10.3125 22.5C12.1247 22.5 13.5938 21.0309 13.5938 19.2188C13.5938 17.4066 12.1247 15.9375 10.3125 15.9375C8.50032 15.9375 7.03125 17.4066 7.03125 19.2188C7.03125 21.0309 8.50032 22.5 10.3125 22.5Z" fill="#C1C8D1"/>
<path d="M19.6875 22.5C21.4997 22.5 22.9688 21.0309 22.9688 19.2188C22.9688 17.4066 21.4997 15.9375 19.6875 15.9375C17.8753 15.9375 16.4062 17.4066 16.4062 19.2188C16.4062 21.0309 17.8753 22.5 19.6875 22.5Z" fill="#C1C8D1"/>
<path d="M10.3125 20.625C11.0892 20.625 11.7188 19.9954 11.7188 19.2188C11.7188 18.4421 11.0892 17.8125 10.3125 17.8125C9.53585 17.8125 8.90625 18.4421 8.90625 19.2188C8.90625 19.9954 9.53585 20.625 10.3125 20.625Z" fill="#758190"/>
<path d="M19.6875 20.625C20.4642 20.625 21.0938 19.9954 21.0938 19.2188C21.0938 18.4421 20.4642 17.8125 19.6875 17.8125C18.9108 17.8125 18.2812 18.4421 18.2812 19.2188C18.2812 19.9954 18.9108 20.625 19.6875 20.625Z" fill="#758190"/>
<path d="M27.6562 6.5625H2.34375V1.875C2.34375 1.35703 2.76328 0.9375 3.28125 0.9375H26.7188C27.2367 0.9375 27.6562 1.35703 27.6562 1.875V6.5625Z" fill="#758190"/>
<path d="M19.6875 5.15625C20.4642 5.15625 21.0938 4.52665 21.0938 3.75C21.0938 2.97335 20.4642 2.34375 19.6875 2.34375C18.9108 2.34375 18.2812 2.97335 18.2812 3.75C18.2812 4.52665 18.9108 5.15625 19.6875 5.15625Z" fill="#243242"/>
<path d="M10.3125 5.15625C11.0892 5.15625 11.7188 4.52665 11.7188 3.75C11.7188 2.97335 11.0892 2.34375 10.3125 2.34375C9.53585 2.34375 8.90625 2.97335 8.90625 3.75C8.90625 4.52665 9.53585 5.15625 10.3125 5.15625Z" fill="#243242"/>
<path d="M24.8438 5.15625H23.9062C23.3883 5.15625 22.9688 4.73672 22.9688 4.21875C22.9688 3.70078 23.3883 3.28125 23.9062 3.28125H24.8438C25.3617 3.28125 25.7812 3.70078 25.7812 4.21875C25.7812 4.73672 25.3617 5.15625 24.8438 5.15625Z" fill="#E7E4DD"/>
<path d="M6.09375 5.15625H5.15625C4.63828 5.15625 4.21875 4.73672 4.21875 4.21875C4.21875 3.70078 4.63828 3.28125 5.15625 3.28125H6.09375C6.61172 3.28125 7.03125 3.70078 7.03125 4.21875C7.03125 4.73672 6.61172 5.15625 6.09375 5.15625Z" fill="#E7E4DD"/>
<path d="M9.98071 3.41812L10.644 4.08141L11.5782 3.14719C11.4395 2.85656 11.2056 2.62313 10.9149 2.48438L9.98071 3.41812Z" fill="#F7D881"/>
<path d="M18.4219 3.14719L19.3556 4.08094L20.0189 3.41766L19.0847 2.48438C18.7945 2.62312 18.5606 2.85703 18.4219 3.14719Z" fill="#F7D881"/>
<path d="M24.8283 19.1428L24.8377 19.1414L23.5373 11.34C23.4375 10.7442 22.927 10.3125 22.3237 10.3125C21.6455 10.3125 21.0938 10.8642 21.0938 11.5425V12.1875H22.0312V11.5425C22.0312 11.3808 22.162 11.25 22.3237 11.25C22.4677 11.25 22.5886 11.3527 22.6125 11.4942L23.8219 18.7495H6.17813L7.38703 11.4942C7.41094 11.3527 7.53234 11.25 7.67578 11.25C7.83703 11.25 7.96828 11.3812 7.96828 11.543V12.1875H8.90578V11.543C8.90578 10.8647 8.35406 10.3125 7.67578 10.3125C7.07203 10.3125 6.56203 10.7447 6.46219 11.3405L5.16188 19.1414L5.17078 19.1428C5.16703 19.1681 5.15625 19.1916 5.15625 19.2183V24.8428C5.15625 25.102 5.36578 25.3116 5.625 25.3116H24.375C24.6342 25.3116 24.8438 25.102 24.8438 24.8428V19.2183C24.8433 19.1916 24.8325 19.1686 24.8283 19.1428ZM9.84328 19.687H12.6562V21.562H9.84328V19.687ZM8.90625 21.562H6.09375V19.687H8.90625V21.562ZM13.5938 19.687H16.4062V21.562H13.5938V19.687ZM12.6562 22.4991V24.3741H9.84328V22.4991H12.6562ZM13.5938 22.4991H16.4062V24.3741H13.5938V22.4991ZM17.3438 22.4991H20.1562V24.3741H17.3438V22.4991ZM17.3438 21.562V19.687H20.1562V21.562H17.3438ZM21.0938 19.687H23.9062V21.562H21.0938V19.687ZM6.09375 22.4991H8.90625V24.3741H6.09375V22.4991ZM21.0938 24.3741V22.4991H23.9062V24.3741H21.0938Z" fill="#243242"/>
<path d="M0.9375 27.1875V28.125C0.9375 28.643 1.35703 29.0625 1.875 29.0625H28.125C28.643 29.0625 29.0625 28.643 29.0625 28.125V27.1875" fill="#758190"/>
<path d="M5.625 7.5H7.5V8.4375H5.625V7.5Z" fill="#E47C6E"/>
<path d="M22.5 7.5H24.375V8.4375H22.5V7.5Z" fill="#E47C6E"/>
<path d="M13.5938 6.5625V4.21875C13.5938 3.44203 14.2233 2.8125 15 2.8125C15.7767 2.8125 16.4062 3.44203 16.4062 4.21875V6.5625" fill="#F7D881"/>
<path d="M14.5312 4.21875H15.4688V5.15625H14.5312V4.21875Z" fill="#243242"/>
</g>
<defs>
<clipPath id="clip0_117_11142">
<rect width="30" height="30" fill="white"/>
</clipPath>
</defs>
</svg>
