<svg width="50" height="50" viewBox="0 0 50 50" fill="none" xmlns="http://www.w3.org/2000/svg">
<path d="M45.6898 0H4.31055V50H45.6898V0Z" fill="#4398D1"/>
<path d="M4.31055 45.3362V50H45.6898V10.9827C35.4313 27.4482 17.1898 38.8621 4.31055 45.3362Z" fill="#3E8CC7"/>
<path d="M45.6898 7.75859H4.31055V9.48271H45.6898V7.75859Z" fill="#126099"/>
<path d="M9.48291 12.0689H40.5174C41.4699 12.0689 42.2415 12.8405 42.2415 13.7931V44.8275C42.2415 45.7801 41.4699 46.5517 40.5174 46.5517H9.48291C8.53037 46.5517 7.75879 45.7801 7.75879 44.8275V13.7931C7.75879 12.8405 8.53037 12.0689 9.48291 12.0689Z" fill="#87CED9"/>
<path d="M31.0347 6.03447C31.9869 6.03447 32.7588 5.26255 32.7588 4.31035C32.7588 3.35814 31.9869 2.58623 31.0347 2.58623C30.0825 2.58623 29.3105 3.35814 29.3105 4.31035C29.3105 5.26255 30.0825 6.03447 31.0347 6.03447Z" fill="#E5E5E5"/>
<path d="M8.62061 3.44824H6.89648V5.17236H8.62061V3.44824Z" fill="#E5E5E5"/>
<path d="M43.103 3.44824H41.3789V5.17236H43.103V3.44824Z" fill="#E5E5E5"/>
<path d="M39.6548 3.44824H37.9307V5.17236H39.6548V3.44824Z" fill="#E5E5E5"/>
<path d="M36.2065 3.44824H34.4824V5.17236H36.2065V3.44824Z" fill="#E5E5E5"/>
<path d="M27.5864 3.44824H25.8623V5.17236H27.5864V3.44824Z" fill="#E5E5E5"/>
<path d="M31.0345 25.8621H25L25.8621 17.2414H30.1725L31.0345 25.8621Z" fill="white"/>
<path d="M39.6556 25.8621H33.6211L34.4831 17.2414H38.7935L39.6556 25.8621Z" fill="white"/>
<path d="M22.4139 25.8621C20.0337 25.8621 18.1035 23.9319 18.1035 21.5518V19.8276C18.1035 17.4475 20.0337 15.5173 22.4139 15.5173V25.8621Z" fill="white"/>
<path d="M18.9656 25.8621C16.5854 25.8621 14.6553 23.9319 14.6553 21.5518V19.8276C14.6553 17.4475 16.5854 15.5173 18.9656 15.5173V25.8621Z" fill="#E5E5E5"/>
<path d="M15.5174 25.8621C13.1372 25.8621 11.207 23.9319 11.207 21.5518V19.8276C11.207 17.4475 13.1372 15.5173 15.5174 15.5173V25.8621Z" fill="white"/>
<path d="M35.3448 43.1035C39.1537 43.1035 42.2414 40.0158 42.2414 36.2069C42.2414 32.3981 39.1537 29.3103 35.3448 29.3103C31.5359 29.3103 28.4482 32.3981 28.4482 36.2069C28.4482 40.0158 31.5359 43.1035 35.3448 43.1035Z" fill="white"/>
<path d="M32.7583 36.2069H31.0342C31.0342 33.8268 32.9644 31.8966 35.3445 31.8966V33.6207C33.9161 33.6207 32.7583 34.7784 32.7583 36.2069Z" fill="#E5E5E5"/>
<path d="M35.3447 40.5173V38.7932C36.7731 38.7932 37.931 37.6355 37.931 36.2069H39.6551C39.6551 38.5871 37.7249 40.5173 35.3447 40.5173Z" fill="#E5E5E5"/>
<path d="M24.9996 43.1034C22.1427 43.1034 19.8271 40.7879 19.8271 37.931V34.4827C19.8271 31.6258 22.1427 29.3103 24.9996 29.3103V43.1034Z" fill="#E5E5E5"/>
<path d="M20.69 43.1034C17.8331 43.1034 15.5176 40.7879 15.5176 37.931V34.4827C15.5176 31.6258 17.8331 29.3103 20.69 29.3103V43.1034Z" fill="white"/>
<path d="M16.3795 43.1034C13.5226 43.1034 11.207 40.7879 11.207 37.931V34.4827C11.207 31.6258 13.5226 29.3103 16.3795 29.3103V43.1034Z" fill="#E5E5E5"/>
<path d="M42.2415 25H7.75879V26.7241H42.2415V25Z" fill="#ABE2EB"/>
<path d="M42.2415 42.2414H7.75879V43.9655H42.2415V42.2414Z" fill="#ABE2EB"/>
<path d="M42.2415 21.5518H7.75879V23.2759H42.2415V21.5518Z" fill="#ABE2EB"/>
<path d="M42.2415 38.7931H7.75879V40.5172H42.2415V38.7931Z" fill="#ABE2EB"/>
</svg>
