<svg width="30" height="30" viewBox="0 0 30 30" fill="none" xmlns="http://www.w3.org/2000/svg">
<path d="M5.95239 0.476191V29.5238H24.0476V0.476191C24.0476 0.213223 23.8344 0 23.5714 0H6.42858C6.16562 0 5.95239 0.213223 5.95239 0.476191Z" fill="#F7D291"/>
<path d="M19.762 17.1429H10.2382C9.97519 17.1429 9.76196 16.9296 9.76196 16.6667V4.28576C9.76196 4.02279 9.97519 3.80957 10.2382 3.80957H19.762C20.025 3.80957 20.2382 4.02279 20.2382 4.28576V16.6667C20.2382 16.9297 20.025 17.1429 19.762 17.1429Z" fill="#A5CDFF"/>
<path d="M19.286 4.76196H10.7144V16.1907H19.286V4.76196Z" fill="#C4DEFF"/>
<path d="M12.619 13.3335C12.7408 13.3335 12.8627 13.2869 12.9557 13.1939L17.7176 8.43203C17.9037 8.24599 17.9037 7.9447 17.7176 7.75867C17.5316 7.57263 17.2303 7.57263 17.0443 7.75867L12.2823 12.5206C12.0963 12.7066 12.0963 13.0079 12.2823 13.1939C12.3753 13.2869 12.4972 13.3335 12.619 13.3335Z" fill="white"/>
<path d="M12.619 10.4763C12.7408 10.4763 12.8627 10.4298 12.9557 10.3368L14.8605 8.43203C15.0465 8.24599 15.0465 7.9447 14.8605 7.75867C14.6744 7.57263 14.3731 7.57263 14.1871 7.75867L12.2823 9.66343C12.0963 9.84947 12.0963 10.1508 12.2823 10.3368C12.3753 10.4298 12.4972 10.4763 12.619 10.4763Z" fill="#E2EFFF"/>
<path d="M24.0477 0.476191C24.0477 0.213164 23.8345 0 23.5715 0H23.3743L21.9457 1.42857H8.05433L6.62575 0H6.42858C6.16556 0 5.95239 0.213164 5.95239 0.476191V0.673359L7.38097 2.10193V29.5238H8.33335V2.38096H21.6667V29.5238H22.6191V2.10193L24.0477 0.673359V0.476191Z" fill="#F5B97D"/>
<path d="M24.9999 30H4.99987C4.73667 30 4.52368 29.7868 4.52368 29.5238C4.52368 29.2608 4.73667 29.0476 4.99987 29.0476H24.9999C25.2631 29.0476 25.476 29.2608 25.476 29.5238C25.476 29.7868 25.2631 30 24.9999 30Z" fill="#CD916E"/>
<path d="M20.714 17.3807C21.1085 17.3807 21.4283 17.0609 21.4283 16.6664C21.4283 16.2719 21.1085 15.9521 20.714 15.9521C20.3195 15.9521 19.9998 16.2719 19.9998 16.6664C19.9998 17.0609 20.3195 17.3807 20.714 17.3807Z" fill="#6F6571"/>
<path d="M19.762 27.6189H10.2382C9.97495 27.6189 9.76196 27.4057 9.76196 27.1427V19.0475C9.76196 18.7845 9.97495 18.5713 10.2382 18.5713H19.762C20.0252 18.5713 20.2382 18.7845 20.2382 19.0475V27.1427C20.2382 27.4057 20.0252 27.6189 19.762 27.6189ZM10.7143 26.6665H19.2858V19.5237H10.7143V26.6665Z" fill="#F5B97D"/>
</svg>
