<svg width="30" height="30" viewBox="0 0 30 30" fill="none" xmlns="http://www.w3.org/2000/svg">
<g clip-path="url(#clip0_117_10393)">
<path d="M18.4086 10.8035V27.6966C18.4139 28.1148 18.1639 28.4938 17.7776 28.6535C13.538 30.3708 8.7967 30.3708 4.55689 28.6535C4.17077 28.4938 3.9206 28.1148 3.92586 27.6966V2.18634C3.9206 1.76817 4.17077 1.38914 4.55689 1.22938C8.7967 -0.487919 13.538 -0.487919 17.7776 1.22938C18.1639 1.38914 18.4139 1.76817 18.4086 2.18634V7.7001" fill="#95A5A5"/>
<path d="M12.697 19.3284C12.791 19.8562 12.6033 20.395 12.2017 20.7499V22.7C12.2017 23.2713 11.7386 23.7346 11.1671 23.7346C10.5958 23.7346 10.1328 23.2713 10.1328 22.7V20.7499C9.80114 20.4588 9.61231 20.0379 9.61552 19.5966C9.61529 18.7912 10.231 18.1192 11.0332 18.0494C11.8357 17.9796 12.5583 18.5351 12.697 19.3284Z" fill="#2C2F38"/>
<path d="M26.1671 9.25177C26.1659 10.108 25.472 10.802 24.6155 10.8034H11.1671C10.3101 10.8034 9.61548 10.1087 9.61548 9.25177C9.61548 8.39461 10.3101 7.69995 11.1671 7.69995H24.6155C25.0272 7.69949 25.4221 7.86269 25.7132 8.15382C26.0043 8.44496 26.1678 8.84001 26.1671 9.25177Z" fill="#BDC3C7"/>
<path d="M11.1672 10.8036H14.4363C13.7105 12.3334 12.0216 13.156 10.3695 12.7841C8.71767 12.4122 7.54419 10.945 7.54419 9.25198C7.54419 7.55871 8.71767 6.09158 10.3695 5.71965C12.0216 5.34771 13.7105 6.17031 14.4363 7.70016H11.1672C10.3102 7.70016 9.61557 8.39482 9.61557 9.25198C9.61557 10.1089 10.3102 10.8036 11.1672 10.8036Z" fill="#7F8C8D"/>
<path d="M6.51208 3.04486C6.51208 3.33051 6.28046 3.56213 5.99481 3.56213C5.70917 3.56213 5.47754 3.33051 5.47754 3.04486C5.47754 2.75922 5.70917 2.52759 5.99481 2.52759C6.28046 2.52759 6.51208 2.75922 6.51208 3.04486Z" fill="#BDC3C7"/>
<path d="M8.06372 3.04498C7.80966 3.04544 7.59291 2.86142 7.5524 2.61079C7.51166 2.35994 7.65906 2.11687 7.90007 2.03676C8.95727 1.69916 10.0577 1.51605 11.1671 1.49316C11.3521 1.49294 11.5228 1.59158 11.6153 1.75157C11.7077 1.91156 11.708 2.10863 11.6155 2.26862C11.5233 2.42883 11.3525 2.52748 11.1678 2.52748C10.1694 2.55243 9.17975 2.71745 8.22737 3.0182C8.17473 3.03606 8.11934 3.04498 8.06372 3.04498Z" fill="#BDC3C7"/>
</g>
<defs>
<clipPath id="clip0_117_10393">
<rect width="30" height="30" fill="white"/>
</clipPath>
</defs>
</svg>
