<svg width="400px" height="512px" viewBox="0 0 400 512" version="1.1" xmlns="http://www.w3.org/2000/svg" xmlns:xlink="http://www.w3.org/1999/xlink">
    <g id="Page-1" stroke="none" stroke-width="1" fill="none" fill-rule="evenodd">
        <g id="mattress-(1)" transform="translate(0.113000, 0.000000)" fill-rule="nonzero">
            <path d="M368.226,504.5 L31.548,504.5 C18.266,504.5 7.5,493.733 7.5,480.452 L7.5,31.548 C7.5,18.267 18.267,7.5 31.548,7.5 L368.225,7.5 C381.507,7.5 392.273,18.267 392.273,31.548 L392.273,480.451 C392.273,493.733 381.507,504.5 368.226,504.5 Z" id="Path" fill="#EDEBED"></path>
            <path d="M368.226,0 L31.548,0 C14.152,0 0,14.152 0,31.549 L0,472.433 C0,476.576 3.358,480.451 7.5,480.451 C11.642,480.451 15,476.576 15,472.433 L15,31.549 C15,22.424 22.423,15 31.548,15 L368.226,15 C377.35,15 384.774,22.424 384.774,31.549 L384.774,86.9122579 C384.774,91.0552579 388.13,223.9355 392.273,223.9355 C396.416,223.9355 399.774,91.0552579 399.774,86.9122579 L399.774,31.549 C399.774,14.152 385.622,0 368.226,0 Z" id="Path" fill="#000000"></path>
            <path d="M392.274,64.129 C388.131,64.129 384.774,67.486 384.774,71.629 L384.774,480.451 C384.774,489.576 377.35,497 368.226,497 L31.548,497 C22.423,497 15,489.576 15,480.451 L15,472.433 C15,468.29 11.642,464.933 7.5,464.933 C3.358,464.933 0,468.29 0,472.433 L0,480.451 C0,497.847 14.152,512 31.548,512 L368.226,512 C385.622,512 399.774,497.848 399.774,480.451 L399.774,71.629 C399.774,67.486 396.417,64.129 392.274,64.129 Z" id="Path" fill="#000000"></path>
            <path d="M71.714,71.113 C75.856,71.113 79.214,67.756 79.214,63.613 C79.214,59.47 75.856,56.113 71.714,56.113 L71.629,56.113 C67.487,56.113 64.171,59.47 64.171,63.613 C64.171,67.756 67.572,71.113 71.714,71.113 Z" id="Path" fill="#000000"></path>
            <path d="M135.843,71.113 C139.985,71.113 143.343,67.756 143.343,63.613 C143.343,59.47 139.985,56.113 135.843,56.113 L135.758,56.113 C131.616,56.113 128.3,59.47 128.3,63.613 C128.3,67.756 131.701,71.113 135.843,71.113 Z" id="Path" fill="#000000"></path>
            <path d="M264.101,71.113 C268.244,71.113 271.601,67.756 271.601,63.613 C271.601,59.47 268.244,56.113 264.101,56.113 L264.016,56.113 C259.873,56.113 256.559,59.47 256.559,63.613 C256.559,67.756 259.959,71.113 264.101,71.113 Z" id="Path" fill="#000000"></path>
            <path d="M199.972,71.113 C204.115,71.113 207.472,67.756 207.472,63.613 C207.472,59.47 204.115,56.113 199.972,56.113 L199.887,56.113 C195.745,56.113 192.429,59.47 192.429,63.613 C192.429,67.756 195.83,71.113 199.972,71.113 Z" id="Path" fill="#000000"></path>
            <path d="M328.145,71.113 C332.288,71.113 335.645,67.756 335.645,63.613 C335.645,59.47 332.288,56.113 328.145,56.113 L328.06,56.113 C323.917,56.113 320.602,59.47 320.602,63.613 C320.602,67.756 324.002,71.113 328.145,71.113 Z" id="Path" fill="#000000"></path>
            <path d="M71.714,135.242 C75.856,135.242 79.214,131.885 79.214,127.742 C79.214,123.599 75.856,120.242 71.714,120.242 L71.629,120.242 C67.487,120.242 64.171,123.599 64.171,127.742 C64.171,131.885 67.572,135.242 71.714,135.242 Z" id="Path" fill="#000000"></path>
            <path d="M135.843,135.242 C139.985,135.242 143.343,131.885 143.343,127.742 C143.343,123.599 139.985,120.242 135.843,120.242 L135.758,120.242 C131.616,120.242 128.3,123.599 128.3,127.742 C128.3,131.885 131.701,135.242 135.843,135.242 Z" id="Path" fill="#000000"></path>
            <path d="M264.101,135.242 C268.244,135.242 271.601,131.885 271.601,127.742 C271.601,123.599 268.244,120.242 264.101,120.242 L264.016,120.242 C259.873,120.242 256.559,123.599 256.559,127.742 C256.559,131.885 259.959,135.242 264.101,135.242 Z" id="Path" fill="#000000"></path>
            <path d="M199.972,135.242 C204.115,135.242 207.472,131.885 207.472,127.742 C207.472,123.599 204.115,120.242 199.972,120.242 L199.887,120.242 C195.745,120.242 192.429,123.599 192.429,127.742 C192.429,131.885 195.83,135.242 199.972,135.242 Z" id="Path" fill="#000000"></path>
            <path d="M328.145,135.242 C332.288,135.242 335.645,131.885 335.645,127.742 C335.645,123.599 332.288,120.242 328.145,120.242 L328.06,120.242 C323.917,120.242 320.602,123.599 320.602,127.742 C320.602,131.885 324.002,135.242 328.145,135.242 Z" id="Path" fill="#000000"></path>
            <path d="M71.714,199.371 C75.856,199.371 79.214,196.014 79.214,191.871 C79.214,187.728 75.856,184.371 71.714,184.371 L71.629,184.371 C67.487,184.371 64.171,187.728 64.171,191.871 C64.171,196.014 67.572,199.371 71.714,199.371 Z" id="Path" fill="#000000"></path>
            <path d="M135.843,199.371 C139.985,199.371 143.343,196.014 143.343,191.871 C143.343,187.728 139.985,184.371 135.843,184.371 L135.758,184.371 C131.616,184.371 128.3,187.728 128.3,191.871 C128.3,196.014 131.701,199.371 135.843,199.371 Z" id="Path" fill="#000000"></path>
            <path d="M264.101,199.371 C268.244,199.371 271.601,196.014 271.601,191.871 C271.601,187.728 268.244,184.371 264.101,184.371 L264.016,184.371 C259.873,184.371 256.559,187.728 256.559,191.871 C256.559,196.014 259.959,199.371 264.101,199.371 Z" id="Path" fill="#000000"></path>
            <path d="M199.972,199.371 C204.115,199.371 207.472,196.014 207.472,191.871 C207.472,187.728 204.115,184.371 199.972,184.371 L199.887,184.371 C195.745,184.371 192.429,187.728 192.429,191.871 C192.429,196.014 195.83,199.371 199.972,199.371 Z" id="Path" fill="#000000"></path>
            <path d="M328.145,199.371 C332.288,199.371 335.645,196.014 335.645,191.871 C335.645,187.728 332.288,184.371 328.145,184.371 L328.06,184.371 C323.917,184.371 320.602,187.728 320.602,191.871 C320.602,196.014 324.002,199.371 328.145,199.371 Z" id="Path" fill="#000000"></path>
            <path d="M71.714,263.5 C75.856,263.5 79.214,260.143 79.214,256 C79.214,251.857 75.856,248.5 71.714,248.5 L71.629,248.5 C67.487,248.5 64.171,251.857 64.171,256 C64.171,260.143 67.572,263.5 71.714,263.5 Z" id="Path" fill="#000000"></path>
            <path d="M135.843,263.5 C139.985,263.5 143.343,260.143 143.343,256 C143.343,251.857 139.985,248.5 135.843,248.5 L135.758,248.5 C131.616,248.5 128.3,251.857 128.3,256 C128.3,260.143 131.701,263.5 135.843,263.5 Z" id="Path" fill="#000000"></path>
            <path d="M264.101,263.5 C268.244,263.5 271.601,260.143 271.601,256 C271.601,251.857 268.244,248.5 264.101,248.5 L264.016,248.5 C259.873,248.5 256.559,251.857 256.559,256 C256.559,260.143 259.959,263.5 264.101,263.5 Z" id="Path" fill="#000000"></path>
            <path d="M199.972,263.5 C204.115,263.5 207.472,260.143 207.472,256 C207.472,251.857 204.115,248.5 199.972,248.5 L199.887,248.5 C195.745,248.5 192.429,251.857 192.429,256 C192.429,260.143 195.83,263.5 199.972,263.5 Z" id="Path" fill="#000000"></path>
            <path d="M328.145,263.5 C332.288,263.5 335.645,260.143 335.645,256 C335.645,251.857 332.288,248.5 328.145,248.5 L328.06,248.5 C323.917,248.5 320.602,251.857 320.602,256 C320.602,260.143 324.002,263.5 328.145,263.5 Z" id="Path" fill="#000000"></path>
            <path d="M71.714,327.629 C75.856,327.629 79.214,324.272 79.214,320.129 C79.214,315.986 75.856,312.629 71.714,312.629 L71.629,312.629 C67.487,312.629 64.171,315.986 64.171,320.129 C64.171,324.272 67.572,327.629 71.714,327.629 Z" id="Path" fill="#000000"></path>
            <path d="M135.843,327.629 C139.985,327.629 143.343,324.272 143.343,320.129 C143.343,315.986 139.985,312.629 135.843,312.629 L135.758,312.629 C131.616,312.629 128.3,315.986 128.3,320.129 C128.3,324.272 131.701,327.629 135.843,327.629 Z" id="Path" fill="#000000"></path>
            <path d="M264.101,327.629 C268.244,327.629 271.601,324.272 271.601,320.129 C271.601,315.986 268.244,312.629 264.101,312.629 L264.016,312.629 C259.873,312.629 256.559,315.986 256.559,320.129 C256.559,324.272 259.959,327.629 264.101,327.629 Z" id="Path" fill="#000000"></path>
            <path d="M199.972,327.629 C204.115,327.629 207.472,324.272 207.472,320.129 C207.472,315.986 204.115,312.629 199.972,312.629 L199.887,312.629 C195.745,312.629 192.429,315.986 192.429,320.129 C192.429,324.272 195.83,327.629 199.972,327.629 Z" id="Path" fill="#000000"></path>
            <path d="M328.145,327.629 C332.288,327.629 335.645,324.272 335.645,320.129 C335.645,315.986 332.288,312.629 328.145,312.629 L328.06,312.629 C323.917,312.629 320.602,315.986 320.602,320.129 C320.602,324.272 324.002,327.629 328.145,327.629 Z" id="Path" fill="#000000"></path>
            <path d="M71.714,391.758 C75.856,391.758 79.214,388.401 79.214,384.258 C79.214,380.115 75.856,376.758 71.714,376.758 L71.629,376.758 C67.487,376.758 64.171,380.115 64.171,384.258 C64.171,388.401 67.572,391.758 71.714,391.758 Z" id="Path" fill="#000000"></path>
            <path d="M135.843,391.758 C139.985,391.758 143.343,388.401 143.343,384.258 C143.343,380.115 139.985,376.758 135.843,376.758 L135.758,376.758 C131.616,376.758 128.3,380.115 128.3,384.258 C128.3,388.401 131.701,391.758 135.843,391.758 Z" id="Path" fill="#000000"></path>
            <path d="M264.101,391.758 C268.244,391.758 271.601,388.401 271.601,384.258 C271.601,380.115 268.244,376.758 264.101,376.758 L264.016,376.758 C259.873,376.758 256.559,380.115 256.559,384.258 C256.559,388.401 259.959,391.758 264.101,391.758 Z" id="Path" fill="#000000"></path>
            <path d="M199.972,391.758 C204.115,391.758 207.472,388.401 207.472,384.258 C207.472,380.115 204.115,376.758 199.972,376.758 L199.887,376.758 C195.745,376.758 192.429,380.115 192.429,384.258 C192.429,388.401 195.83,391.758 199.972,391.758 Z" id="Path" fill="#000000"></path>
            <path d="M328.145,391.758 C332.288,391.758 335.645,388.401 335.645,384.258 C335.645,380.115 332.288,376.758 328.145,376.758 L328.06,376.758 C323.917,376.758 320.602,380.115 320.602,384.258 C320.602,388.401 324.002,391.758 328.145,391.758 Z" id="Path" fill="#000000"></path>
            <path d="M71.714,455.887 C75.856,455.887 79.214,452.53 79.214,448.387 C79.214,444.244 75.856,440.887 71.714,440.887 L71.629,440.887 C67.487,440.887 64.171,444.244 64.171,448.387 C64.171,452.53 67.572,455.887 71.714,455.887 Z" id="Path" fill="#000000"></path>
            <path d="M135.843,455.887 C139.985,455.887 143.343,452.53 143.343,448.387 C143.343,444.244 139.985,440.887 135.843,440.887 L135.758,440.887 C131.616,440.887 128.3,444.244 128.3,448.387 C128.3,452.53 131.701,455.887 135.843,455.887 Z" id="Path" fill="#000000"></path>
            <path d="M264.101,455.887 C268.244,455.887 271.601,452.53 271.601,448.387 C271.601,444.244 268.244,440.887 264.101,440.887 L264.016,440.887 C259.873,440.887 256.559,444.244 256.559,448.387 C256.559,452.53 259.959,455.887 264.101,455.887 Z" id="Path" fill="#000000"></path>
            <path d="M199.972,455.887 C204.115,455.887 207.472,452.53 207.472,448.387 C207.472,444.244 204.115,440.887 199.972,440.887 L199.887,440.887 C195.745,440.887 192.429,444.244 192.429,448.387 C192.429,452.53 195.83,455.887 199.972,455.887 Z" id="Path" fill="#000000"></path>
            <path d="M328.145,455.887 C332.288,455.887 335.645,452.53 335.645,448.387 C335.645,444.244 332.288,440.887 328.145,440.887 L328.06,440.887 C323.917,440.887 320.602,444.244 320.602,448.387 C320.602,452.53 324.002,455.887 328.145,455.887 Z" id="Path" fill="#000000"></path>
        </g>
    </g>
</svg>