<svg width="51" height="28" viewBox="0 0 51 28" fill="none" xmlns="http://www.w3.org/2000/svg">
<g clip-path="url(#clip0_44_1589)">
<path d="M6.24487 17.6296V3.52593C6.24487 1.57861 7.81229 0 9.7458 0H41.2542C43.1877 0 44.7551 1.57861 44.7551 3.52593V17.6296H6.24487Z" fill="#DE9400"/>
<path d="M44.0176 22.8149C45.556 22.8149 46.9159 21.8127 47.3747 20.3407L50.8619 9.15435C50.9534 8.86064 51 8.5547 51 8.24697V8.22738C51 6.54729 49.6414 5.1853 47.9654 5.1853C46.6332 5.1853 45.4568 6.05632 45.065 7.33275L42.2069 16.6446H8.7931L5.93499 7.33275C5.54321 6.05632 4.36679 5.1853 3.03459 5.1853C2.22977 5.1853 1.45791 5.50581 0.888812 6.07631C0.319715 6.64681 0 7.42057 0 8.22738V8.24697C0 8.5547 0.046575 8.86064 0.138134 9.15435L3.62526 20.3407C4.08412 21.8127 5.44401 22.8149 6.9824 22.8149H44.0176Z" fill="#FAC623"/>
<path d="M10.956 12.4443H22.3502C23.8024 12.4443 24.9796 13.5586 24.9796 14.9332V16.5925H8.32654V14.9332C8.32654 13.5586 9.50377 12.4443 10.956 12.4443Z" fill="#F6BB00"/>
<path d="M27.609 12.4443H39.0032C40.4554 12.4443 41.6327 13.5586 41.6327 14.9332V16.5925H24.9796V14.9332C24.9796 13.5586 26.1569 12.4443 27.609 12.4443Z" fill="#EDA600"/>
<path d="M12.4898 5.1853H14.2939V6.22234H12.4898V5.1853Z" fill="#CF8300"/>
<path d="M18.8041 5.1853H20.6082V6.22234H18.8041V5.1853Z" fill="#CF8300"/>
<path d="M25.1184 5.1853H26.9225V6.22234H25.1184V5.1853Z" fill="#CF8300"/>
<path d="M31.4327 5.1853H33.2368V6.22234H31.4327V5.1853Z" fill="#CF8300"/>
<path d="M37.7469 5.1853H39.551V6.22234H37.7469V5.1853Z" fill="#CF8300"/>
<path d="M8.15305 22.8147L7.28571 27.9999H9.0204L12.4898 22.8147H8.15305Z" fill="#B1712C"/>
<path d="M42.8469 22.8147L43.7143 27.9999H41.9796L38.5102 22.8147H42.8469Z" fill="#B1712C"/>
</g>
<defs>
<clipPath id="clip0_44_1589">
<rect width="51" height="28" fill="white"/>
</clipPath>
</defs>
</svg>
