<svg width="30" height="30" viewBox="0 0 30 30" fill="none" xmlns="http://www.w3.org/2000/svg">
<path d="M27.1829 3.28125H5.62974H5.62036L2.80786 0.46875H24.3704L27.1829 3.28125Z" fill="#CCD1D9"/>
<path d="M5.62974 3.28125V29.5312H5.62036L2.80786 26.7188V0.46875L5.62036 3.28125H5.62974Z" fill="#AAB2BD"/>
<path d="M27.1922 9.84375V22.9688H27.1875H25.7812V9.84375H27.1875H27.1922Z" fill="#E6E9ED"/>
<path d="M16.875 8.90625L21.5672 17.3531H12.1829L16.875 8.90625Z" fill="#FFCE54"/>
<path d="M8.43745 16.6408C8.43745 17.0299 8.75151 17.3439 9.14058 17.3439C9.52964 17.3439 9.8437 17.0299 9.8437 16.6408C9.8437 16.2518 9.52964 15.9377 9.14058 15.9377C8.75151 15.9377 8.43745 16.2518 8.43745 16.6408ZM25.7812 9.84395V22.9689V24.8439V28.1252H7.03589V4.69238H25.7812V7.96895V9.84395ZM21.5671 17.3533L16.875 8.90645L12.1828 17.3533H21.5671Z" fill="#E6E9ED"/>
<path d="M9.14062 17.3438C9.52895 17.3438 9.84375 17.029 9.84375 16.6406C9.84375 16.2523 9.52895 15.9375 9.14062 15.9375C8.7523 15.9375 8.4375 16.2523 8.4375 16.6406C8.4375 17.029 8.7523 17.3438 9.14062 17.3438Z" fill="#CCD1D9"/>
<path d="M27.1921 3.28125V7.96875H27.1875H25.7812V4.69219H7.03589V28.125H25.7812V24.8438H27.1875H27.1921V29.5312H5.62964V3.28125H27.1828H27.1921Z" fill="#E6E9ED"/>
<path d="M25.785 28.3595H7.03784C6.90847 28.3595 6.80347 28.2545 6.80347 28.1251V4.69092C6.80347 4.56154 6.90847 4.45654 7.03784 4.45654H25.785C25.9144 4.45654 26.0194 4.56154 26.0194 4.69092C26.0194 4.82029 25.9144 4.92529 25.785 4.92529H7.27222V27.8908H25.785C25.9144 27.8908 26.0194 27.9958 26.0194 28.1251C26.0194 28.2545 25.9144 28.3595 25.785 28.3595Z" fill="#CCD1D9"/>
<path d="M21.5798 17.8213C21.5775 17.8213 21.5737 17.8213 21.5704 17.8213H12.1861C12.0201 17.8213 11.8659 17.7332 11.782 17.5902C11.6976 17.4473 11.6958 17.2701 11.7764 17.1252L16.4686 8.6793C16.6336 8.38164 17.1229 8.38164 17.2879 8.6793L21.9398 17.0526C22.0078 17.1337 22.0481 17.2382 22.0481 17.3526C22.0486 17.6113 21.839 17.8213 21.5798 17.8213Z" fill="#FFCE54"/>
<path d="M16.1752 15.0012C16.0862 15.0012 15.9957 14.9755 15.9155 14.9225C15.6999 14.7786 15.6418 14.488 15.7857 14.2723L16.7232 12.8661C16.8662 12.6505 17.1568 12.5923 17.3733 12.7362C17.589 12.8802 17.6471 13.1708 17.5032 13.3864L16.5657 14.7927C16.4752 14.9281 16.3266 15.0012 16.1752 15.0012Z" fill="#EDAB37"/>
<path d="M17.5819 15.0015H16.1757C15.9164 15.0015 15.7069 14.7919 15.7069 14.5327C15.7069 14.2735 15.9164 14.064 16.1757 14.064H17.5819C17.8411 14.064 18.0507 14.2735 18.0507 14.5327C18.0507 14.7919 17.8411 15.0015 17.5819 15.0015Z" fill="#EDAB37"/>
<path d="M16.644 16.4078C16.5549 16.4078 16.4644 16.382 16.3843 16.329C16.1687 16.1851 16.1105 15.8945 16.2544 15.6789L17.1919 14.2726C17.3354 14.057 17.6255 13.9993 17.8421 14.1428C18.0577 14.2867 18.1158 14.5773 17.9719 14.7929L17.0344 16.1992C16.944 16.3347 16.7954 16.4078 16.644 16.4078Z" fill="#EDAB37"/>
<path d="M21.5709 20.6284H12.1865C11.9273 20.6284 11.7178 20.4189 11.7178 20.1597C11.7178 19.9004 11.9273 19.6909 12.1865 19.6909H21.5709C21.8301 19.6909 22.0396 19.9004 22.0396 20.1597C22.0396 20.4189 21.8296 20.6284 21.5709 20.6284Z" fill="#CCD1D9"/>
<path d="M21.5709 22.0342H12.1865C11.9273 22.0342 11.7178 21.8246 11.7178 21.5654C11.7178 21.3062 11.9273 21.0967 12.1865 21.0967H21.5709C21.8301 21.0967 22.0396 21.3062 22.0396 21.5654C22.0396 21.8246 21.8296 22.0342 21.5709 22.0342Z" fill="#CCD1D9"/>
<path d="M21.5709 23.4399H12.1865C11.9273 23.4399 11.7178 23.2304 11.7178 22.9712C11.7178 22.712 11.9273 22.5024 12.1865 22.5024H21.5709C21.8301 22.5024 22.0396 22.712 22.0396 22.9712C22.0396 23.2304 21.8296 23.4399 21.5709 23.4399Z" fill="#CCD1D9"/>
<path d="M25.7849 8.20467C25.6555 8.20467 25.5505 8.09967 25.5505 7.97029V4.69092C25.5505 4.56154 25.6555 4.45654 25.7849 4.45654C25.9143 4.45654 26.0193 4.56154 26.0193 4.69092V7.97029C26.0193 8.09967 25.9143 8.20467 25.7849 8.20467Z" fill="#CCD1D9"/>
<path d="M25.7849 28.3595C25.6555 28.3595 25.5505 28.2545 25.5505 28.1251V24.8457C25.5505 24.7163 25.6555 24.6113 25.7849 24.6113C25.9143 24.6113 26.0193 24.7163 26.0193 24.8457V28.1251C26.0193 28.2545 25.9143 28.3595 25.7849 28.3595Z" fill="#CCD1D9"/>
<path d="M25.7849 23.2051C25.6555 23.2051 25.5505 23.1001 25.5505 22.9707V9.84521C25.5505 9.71584 25.6555 9.61084 25.7849 9.61084C25.9143 9.61084 26.0193 9.71584 26.0193 9.84521V22.9707C26.0193 23.1001 25.9143 23.2051 25.7849 23.2051Z" fill="#CCD1D9"/>
<path d="M27.1898 7.96875C27.1913 7.96875 27.1922 8.17969 27.1922 8.4375V9.375C27.1922 9.63281 27.1913 9.84375 27.1898 9.84375C27.1884 9.84375 26.9766 9.84375 26.7188 9.84375H26.25C25.9922 9.84375 25.5703 9.84375 25.3125 9.84375C25.0547 9.84375 24.8438 9.63281 24.8438 9.375V8.4375C24.8438 8.17969 25.0547 7.96875 25.3125 7.96875H26.25H26.7188H27.1898Z" fill="#F5F7FA"/>
<path d="M27.1898 22.9688C27.1913 22.9688 27.1922 23.1797 27.1922 23.4375V24.375C27.1922 24.6328 27.1913 24.8438 27.1898 24.8438C27.1884 24.8438 26.9766 24.8438 26.7188 24.8438H26.25C25.9922 24.8438 25.5703 24.8438 25.3125 24.8438C25.0547 24.8438 24.8438 24.6328 24.8438 24.375V23.4375C24.8438 23.1797 25.0547 22.9688 25.3125 22.9688H26.25H26.7188H27.1898Z" fill="#F5F7FA"/>
</svg>
