<svg width="25" height="25" viewBox="0 0 25 25" fill="none" xmlns="http://www.w3.org/2000/svg">
<g clip-path="url(#clip0_117_4780)">
<path d="M7.8125 15.2344L4.30391 16.0156C3.83757 16.1316 3.41532 16.3813 3.08912 16.7342C2.76292 17.087 2.54701 17.5276 2.46797 18.0016L0.78125 24.2188H18.3594L17.0629 18.0016C16.9839 17.5276 16.768 17.0871 16.4419 16.7343C16.1158 16.3814 15.6936 16.1316 15.2273 16.0156L11.7188 15.2344H7.8125Z" fill="#9B6621"/>
<path d="M17.0629 18.0016C16.9838 17.5276 16.768 17.0871 16.4419 16.7343C16.1157 16.3814 15.6936 16.1316 15.2273 16.0156L11.7187 15.2344H7.81247L4.30387 16.0156C4.05422 16.0785 3.81602 16.1803 3.59801 16.3172C3.42311 16.5921 3.30466 16.8991 3.24958 17.2203C3.05132 17.9509 3.02411 18.7174 3.17004 19.4603C3.31598 20.2032 3.63114 20.9024 4.09106 21.5037C4.55098 22.1051 5.14328 22.5923 5.822 22.9277C6.50072 23.2631 7.2476 23.4375 8.00465 23.4375H18.1965L17.0629 18.0016Z" fill="#FBB03B"/>
<path d="M6.64062 10.9375H6.05469C5.79569 10.9375 5.54729 10.8346 5.36415 10.6515C5.18101 10.4683 5.07812 10.2199 5.07812 9.96094C5.07812 9.70194 5.18101 9.45354 5.36415 9.2704C5.54729 9.08726 5.79569 8.98438 6.05469 8.98438H6.64062" fill="#EAA496"/>
<path d="M12.8906 10.9375H13.4766C13.7356 10.9375 13.984 10.8346 14.1671 10.6515C14.3502 10.4683 14.4531 10.2199 14.4531 9.96094C14.4531 9.70194 14.3502 9.45354 14.1671 9.2704C13.984 9.08726 13.7356 8.98438 13.4766 8.98438H12.8906" fill="#EAA496"/>
<path d="M6.25 7.8125C6.25 7.08791 6.5376 6.39294 7.04964 5.88025C7.56167 5.36755 8.25627 5.07906 8.98086 5.07812H10.3516C12.0703 5.08984 13.2812 6.3082 13.2812 7.80938V7.8125H6.25Z" fill="#FBB03B"/>
<path d="M9.17971 5.07812H8.98088C8.32427 5.079 7.68995 5.31639 7.19409 5.74682C6.69824 6.17725 6.37404 6.7719 6.28088 7.42188H13.2504C13.0614 6.10469 11.9196 5.08906 10.3516 5.07812H9.17971Z" fill="#F9D023"/>
<path d="M5.85938 7.8125H13.6719V8.98438H5.85938V7.8125Z" fill="#F9D023"/>
<path d="M10.1562 5.85898L9.375 5.85938L8.98438 4.29688H10.5469L10.1562 5.85898Z" fill="#FBB03B"/>
<path d="M6.36304 5.35449L6.91546 4.80207L8.08744 5.97404L7.53501 6.52647L6.36304 5.35449Z" fill="#FBB03B"/>
<path d="M11.4408 5.97437L12.6128 4.80239L13.1652 5.35482L11.9932 6.52679L11.4408 5.97437Z" fill="#FBB03B"/>
<path d="M7.8125 13.3766V15.1422C7.8125 15.6602 8.01828 16.157 8.38456 16.5233C8.75084 16.8896 9.24762 17.0954 9.76562 17.0954C10.2836 17.0954 10.7804 16.8896 11.1467 16.5233C11.513 16.157 11.7188 15.6602 11.7188 15.1422V13.3762L7.8125 13.3766Z" fill="#EEB8AB"/>
<path d="M12.8906 8.98438V10.9375C12.8906 11.7663 12.5614 12.5612 11.9753 13.1472C11.3893 13.7333 10.5944 14.0625 9.76562 14.0625C8.93682 14.0625 8.14197 13.7333 7.55592 13.1472C6.96986 12.5612 6.64063 11.7663 6.64062 10.9375V8.98438H12.8906Z" fill="#EEB8AB"/>
<path d="M9.76562 14.0625C10.5944 14.0625 11.3893 13.7333 11.9753 13.1472C12.5614 12.5612 12.8906 11.7663 12.8906 10.9375V9.375H6.64062V10.9375C6.64063 11.7663 6.96986 12.5612 7.55592 13.1472C8.14197 13.7333 8.93682 14.0625 9.76562 14.0625Z" fill="#FFE1D3"/>
<path d="M6.25 24.2188V22.2656L8.20312 21.4844H11.3281L13.2812 22.2656V24.2188H6.25Z" fill="#114996"/>
<path d="M24.2188 14.8438H20.3125V16.4062C20.3125 16.9243 20.5183 17.421 20.8846 17.7873C21.2508 18.1536 21.7476 18.3594 22.2656 18.3594C22.7836 18.3594 23.2804 18.1536 23.6467 17.7873C24.013 17.421 24.2188 16.9243 24.2188 16.4062V14.8438Z" fill="#F9D023"/>
<path d="M20.3125 12.5H21.0938V14.8438H20.3125V12.5Z" fill="#808080"/>
<path d="M23.4375 12.5H24.2188V14.8438H23.4375V12.5Z" fill="#4D4D4D"/>
<path d="M21.875 12.5H22.6562V14.8438H21.875V12.5Z" fill="#4D4D4D"/>
<path d="M22.2656 24.6094C21.5739 24.6099 20.9077 24.3483 20.4012 23.8773C19.8948 23.4062 19.5856 22.7607 19.5361 22.0708C19.4865 21.3809 19.7003 20.6979 20.1343 20.1593C20.5683 19.6207 21.1903 19.2666 21.875 19.1684V18.3594H22.6562V19.5312C22.6562 19.6349 22.6151 19.7342 22.5418 19.8075C22.4686 19.8807 22.3692 19.9219 22.2656 19.9219C21.7476 19.9219 21.2508 20.1276 20.8845 20.4939C20.5183 20.8602 20.3125 21.357 20.3125 21.875C20.3125 22.393 20.5183 22.8898 20.8845 23.2561C21.2508 23.6223 21.7476 23.8281 22.2656 23.8281V24.6094Z" fill="#808080"/>
<path d="M21.0934 0.78125L15.625 4.6875L19.9219 7.03125L17.9688 11.3281L24.2188 6.24961L19.9215 4.6875L21.0934 0.78125Z" fill="#F9D023"/>
<path d="M7.8125 15.1422C7.8125 15.6602 8.01828 16.157 8.38456 16.5233C8.75084 16.8895 9.24762 17.0953 9.76562 17.0953C10.2836 17.0953 10.7804 16.8895 11.1467 16.5233C11.513 16.157 11.7188 15.6602 11.7188 15.1422V14.4531H7.8125V15.1422Z" fill="#FFE1D3"/>
<path d="M6.25 23.1156C6.81035 23.3291 7.40505 23.4382 8.00469 23.4375H13.2812V22.2656L11.3281 21.4844H8.20312L6.25 22.2656V23.1156Z" fill="#1861B7"/>
<path d="M21.875 6.64062L17.9688 11.3281L24.2188 6.24961L19.9215 4.6875L21.0934 0.78125L17.9688 4.6875L21.875 6.64062Z" fill="#FBB03B"/>
<path d="M22.2656 18.3594C22.7836 18.3594 23.2804 18.1536 23.6467 17.7873C24.013 17.421 24.2188 16.9243 24.2188 16.4062V14.8438H22.2656" fill="#FBB03B"/>
<path d="M21.875 12.5H22.2656V14.8438H21.875V12.5Z" fill="#808080"/>
<path d="M14.8438 15.9297V24.2188H13.2812V22.2656L11.3281 21.4844H8.20312L6.25 22.2656V24.2188H4.6875V15.9297L6.25 15.582V19.9219H13.2812V15.582L14.8438 15.9297Z" fill="#E5C47A"/>
<path d="M14.8438 23.4376V15.9302L13.2812 15.5825V19.922H6.25V15.5825L4.6875 15.9302V22.145C5.14213 22.5647 5.67237 22.8941 6.25 23.1157V22.2657L8.20312 21.4845H11.3281L13.2812 22.2657V23.4376H14.8438Z" fill="#FFDB80"/>
</g>
<defs>
<clipPath id="clip0_117_4780">
<rect width="25" height="25" fill="white"/>
</clipPath>
</defs>
</svg>
