<svg width="24" height="24" viewBox="0 0 24 24" fill="none" xmlns="http://www.w3.org/2000/svg">
<path d="M22.8 2.79999H1.2C0.537281 2.79999 0 3.33722 0 3.99999V20C0 20.6627 0.537234 21.2 1.2 21.2H22.8C23.4627 21.2 24 20.6627 24 20V3.99999C24 3.33727 23.4628 2.79999 22.8 2.79999ZM23.2 20C23.2 20.2209 23.0209 20.4 22.8 20.4H1.2C0.979078 20.4 0.800016 20.2209 0.800016 20V3.99999C0.800016 3.77907 0.979078 3.6 1.2 3.6H22.8C23.0209 3.6 23.2 3.77907 23.2 3.99999V20Z" fill="black"/>
<path d="M22.0344 4.40148C21.9287 4.39224 21.8237 4.42538 21.7425 4.49363L12.5144 12.2456C12.2168 12.4958 11.7824 12.4958 11.4848 12.2456L2.25685 4.49359C2.1474 4.40171 1.99721 4.37518 1.86291 4.42402C1.72862 4.47287 1.63055 4.58968 1.60571 4.73045C1.58087 4.87121 1.63299 5.01451 1.74244 5.10638L10.9704 12.858C11.5652 13.3587 12.4341 13.3587 13.0289 12.858L22.2568 5.10643C22.3381 5.03823 22.3889 4.94054 22.3981 4.83484C22.4074 4.72913 22.3742 4.62409 22.306 4.54285C22.2378 4.46152 22.1401 4.41071 22.0344 4.40148Z" fill="black"/>
<path d="M7.69331 12.803C7.5517 12.7714 7.40414 12.8189 7.30758 12.9272L1.70756 18.9272C1.60622 19.031 1.569 19.1815 1.61034 19.3206C1.65168 19.4597 1.76508 19.5654 1.90664 19.597C2.04825 19.6286 2.19581 19.5811 2.29237 19.4728L7.89239 13.4728C7.99373 13.369 8.03095 13.2184 7.98961 13.0794C7.94826 12.9404 7.83492 12.8346 7.69331 12.803Z" fill="black"/>
<path d="M16.6928 12.9272C16.5962 12.8189 16.4486 12.7714 16.307 12.803C16.1654 12.8346 16.0521 12.9404 16.0107 13.0794C15.9694 13.2185 16.0066 13.369 16.108 13.4728L21.708 19.4728C21.8598 19.6283 22.1081 19.6341 22.267 19.4858C22.426 19.3375 22.4374 19.0894 22.2928 18.9271L16.6928 12.9272Z" fill="black"/>
</svg>
