<svg width="20" height="21" viewBox="0 0 20 21" fill="none" xmlns="http://www.w3.org/2000/svg">
<path d="M20 10.1158C20 4.58992 15.5259 0.115845 10 0.115845C4.47407 0.115845 0 4.58992 0 10.1158C0 15.1084 3.65926 19.2418 8.44444 19.9973V13.0047H5.8963V10.1158H8.44444V7.90844C8.44444 5.40473 9.92593 4.02696 12.2074 4.02696C13.3037 4.02696 14.4444 4.21955 14.4444 4.21955V6.67881H13.1852C11.9407 6.67881 11.5556 7.44918 11.5556 8.23436V10.1158H14.3259L13.8815 13.0047H11.5556V19.9973C16.3407 19.2418 20 15.1084 20 10.1158Z" fill="#4676ED"/>
<path d="M13.8965 13.0048L14.3409 10.1159H11.5557V8.23439C11.5557 7.4492 11.9409 6.67883 13.1854 6.67883H14.4446V4.21957C14.4446 4.21957 13.3039 4.02698 12.2076 4.02698C9.92611 4.02698 8.44463 5.40476 8.44463 7.90846V10.1159H5.89648V13.0048H8.44463V19.9973C8.94834 20.0714 9.48167 20.1159 10.0002 20.1159C10.5335 20.1159 11.052 20.0714 11.5557 19.9973V13.0048H13.8965Z" fill="white"/>
</svg>
