<svg width="30" height="30" viewBox="0 0 30 30" fill="none" xmlns="http://www.w3.org/2000/svg">
<g clip-path="url(#clip0_117_11364)">
<path d="M12.255 13.0345C13.3148 11.9827 13.979 10.5972 14.1352 9.11228C14.252 8.19225 13.9392 7.26961 13.2869 6.61038C12.8165 6.1387 12.2527 5.77049 11.6317 5.52935C10.5261 5.02933 9.25373 5.05575 8.16982 5.60124C7.55196 5.86694 7.0672 6.37035 6.825 6.99779C6.52582 7.68513 6.68409 8.48594 7.22224 9.00779C7.64645 9.42488 7.99631 9.91136 8.25672 10.4462C8.57867 10.9718 8.6523 11.6127 8.45793 12.1976L12.255 13.0345Z" fill="#BDC3C7"/>
<path d="M11.2004 17.8045C11.0078 18.3887 11.0836 19.0281 11.4073 19.5512C11.6655 20.0856 12.0129 20.572 12.4346 20.9896C12.9726 21.5115 13.131 22.3122 12.8323 22.9996C12.5902 23.6256 12.1076 24.1285 11.4921 24.3962C10.408 24.9414 9.13546 24.9677 8.02972 24.4676C7.40672 24.2268 6.84085 23.8586 6.36834 23.3865C5.71869 22.7258 5.40745 21.8039 5.52369 20.8846C5.67818 19.3979 6.34273 18.0105 7.40438 16.9583L11.2004 17.8045Z" fill="#BDC3C7"/>
<path d="M12.6346 13.6277C13.2187 13.8203 13.858 13.7445 14.3808 13.4208C14.9166 13.1618 15.4033 12.8117 15.8193 12.3863C16.3412 11.8474 17.1434 11.6906 17.8298 11.9932C18.4559 12.235 18.959 12.7177 19.2264 13.3334C19.7716 14.4174 19.7978 15.6897 19.2977 16.7953C19.0573 17.4186 18.6891 17.9847 18.2167 18.4572C17.5556 19.1058 16.6343 19.4167 15.7153 19.3013C14.2312 19.1493 12.8454 18.4885 11.7931 17.431L12.6346 13.6277Z" fill="#BDC3C7"/>
<path d="M7.86208 12.5735C6.81116 11.51 5.42307 10.8452 3.9357 10.6929C3.01792 10.5767 2.09755 10.8878 1.43846 11.537C0.966322 12.0096 0.598114 12.5757 0.357427 13.1989C-0.144133 14.3037 -0.11961 15.5761 0.424151 16.6608C0.694497 17.2769 1.20022 17.7591 1.82846 17.9999C2.51491 18.3021 3.31689 18.1453 3.83898 17.6068C4.25483 17.1814 4.74136 16.8314 5.27691 16.5723C5.80191 16.2486 6.44367 16.1751 7.02829 16.3716L7.86208 12.5735Z" fill="#BDC3C7"/>
<path d="M25.8621 9.31035V8.27587H16.5518C16.2661 8.27587 16.0345 8.04429 16.0345 7.75863V5.68966C16.0345 5.404 16.2661 5.17242 16.5518 5.17242H25.8621V4.13794C25.8622 3.94041 25.9748 3.76016 26.1522 3.67341C26.3297 3.58665 26.541 3.60855 26.697 3.72983L29.8004 6.31604C29.9265 6.41403 30.0002 6.56474 30.0002 6.7244C30.0002 6.88406 29.9265 7.03477 29.8004 7.13276L26.697 9.71897C26.541 9.84031 26.3295 9.86217 26.152 9.77528C25.9745 9.6884 25.862 9.50797 25.8621 9.31035Z" fill="#FF5364"/>
<path d="M25.8621 25.8621V24.8277H16.5518C16.2661 24.8277 16.0345 24.5961 16.0345 24.3104V22.2414C16.0345 21.9558 16.2661 21.7242 16.5518 21.7242H25.8621V20.6897C25.862 20.4921 25.9745 20.3117 26.152 20.2248C26.3295 20.1379 26.541 20.1598 26.697 20.2811L29.8004 22.8673C29.9265 22.9653 30.0002 23.116 30.0002 23.2757C30.0002 23.4353 29.9265 23.586 29.8004 23.684L26.697 26.2702C26.541 26.3915 26.3297 26.4134 26.1522 26.3267C25.9748 26.2399 25.8622 26.0597 25.8621 25.8621Z" fill="#FF5364"/>
<path d="M25.8621 17.5862V16.5517H22.2414C21.9557 16.5517 21.7241 16.3202 21.7241 16.0345V13.9655C21.7241 13.6799 21.9557 13.4483 22.2414 13.4483H25.8621V12.4138C25.8621 12.2163 25.9747 12.036 26.1521 11.9493C26.3296 11.8625 26.541 11.8844 26.6969 12.0057L29.8003 14.5919C29.9264 14.6899 30.0001 14.8406 30.0001 15.0003C30.0001 15.1599 29.9264 15.3107 29.8003 15.4086L26.6969 17.9949C26.5409 18.1162 26.3294 18.138 26.1519 18.0512C25.9744 17.9643 25.8619 17.7839 25.8621 17.5862Z" fill="#FF5364"/>
<path d="M9.83275 11.8965C11.0882 11.8986 12.2187 12.6569 12.697 13.8177C13.1753 14.9785 12.9071 16.3131 12.0175 17.199C11.1279 18.0849 9.79216 18.3475 8.63336 17.8644C7.47457 17.3813 6.72099 16.2476 6.72413 14.9922C6.7304 13.28 8.12059 11.8956 9.83275 11.8965Z" fill="#547580"/>
<path d="M9.82292 16.0345C9.2522 16.032 8.79139 15.5677 8.7931 14.997C8.79481 14.4262 9.2584 13.9647 9.82912 13.9656C10.3998 13.9664 10.8621 14.4293 10.8621 15C10.8621 15.2754 10.7523 15.5394 10.5571 15.7336C10.3618 15.9277 10.0972 16.036 9.82188 16.0345H9.82292Z" fill="#84B5CB"/>
</g>
<defs>
<clipPath id="clip0_117_11364">
<rect width="30" height="30" fill="white"/>
</clipPath>
</defs>
</svg>
