<svg width="54" height="54" viewBox="0 0 54 54" fill="none" xmlns="http://www.w3.org/2000/svg">
<path d="M27 54C41.271 54 52.8398 42.4311 52.8398 28.1602C52.8398 13.8892 41.271 2.32031 27 2.32031C12.729 2.32031 1.16016 13.8892 1.16016 28.1602C1.16016 42.4311 12.729 54 27 54Z" fill="#1A2B63"/>
<path d="M22.8653 39.9648C24.1994 39.9648 25.4286 40.6358 26.1533 41.7599C26.1711 41.7876 26.201 41.8054 26.2339 41.8079C26.2366 41.8081 26.2393 41.8082 26.242 41.8082C26.2721 41.8082 26.3009 41.7953 26.3209 41.7725C27.4073 40.5437 28.9691 39.839 30.6058 39.839C31.1635 39.839 31.7023 39.9206 32.2122 40.0703L30.33 35.2456H23.6701L21.7673 40.1229C22.1159 40.0206 22.4841 39.9648 22.8653 39.9648Z" fill="#D9EAFC"/>
<path d="M24.5381 35.2455H23.6699L21.7671 40.1228C22.0632 40.036 22.3742 39.985 22.6946 39.9709L24.5381 35.2455Z" fill="#AEC1ED"/>
<path d="M20.8391 44.95C20.8433 44.9778 20.8584 45.0028 20.881 45.0195C20.8992 45.0329 20.9211 45.04 20.9434 45.04C20.9489 45.04 20.9545 45.0395 20.9599 45.0387C21.3365 44.9788 21.7146 44.9484 22.0837 44.9484C23.8871 44.9484 25.6074 45.626 26.928 46.8564C26.9482 46.8753 26.9741 46.8847 26.9999 46.8847C27.0258 46.8847 27.0516 46.8753 27.0719 46.8564C28.3923 45.626 30.1127 44.9484 31.9161 44.9484C32.2852 44.9484 32.6634 44.9788 33.0399 45.0387C33.0455 45.0395 33.051 45.04 33.0565 45.04C33.0787 45.04 33.1007 45.0329 33.1188 45.0195C33.1415 45.0028 33.1566 44.9778 33.1608 44.95C33.3557 43.6382 33.8494 42.3957 34.5901 41.3114C33.5483 40.3335 32.1475 39.7334 30.6057 39.7334C28.8679 39.7334 27.3088 40.4955 26.2418 41.7026C25.5272 40.594 24.2824 39.8592 22.8652 39.8592C21.5058 39.8592 20.3052 40.5354 19.5786 41.5691C20.2251 42.591 20.6595 43.7408 20.8391 44.95Z" fill="#AEC1ED"/>
<path d="M20.9435 44.9344C20.3088 40.6619 16.6262 37.3838 12.1771 37.3838C9.08844 37.3838 6.36987 38.9641 4.7832 41.3596C7.21257 45.4399 10.7343 48.7926 14.9445 51.0175C15.3947 47.8992 17.8394 45.4276 20.9435 44.9344Z" fill="#445EA0"/>
<path d="M13.0622 38.4736C15.3226 38.4736 17.3946 39.2754 19.0133 40.608C17.3877 38.6394 14.9296 37.3838 12.1771 37.3838C9.08844 37.3838 6.36987 38.9641 4.7832 41.3596C4.99277 41.7116 5.21109 42.0578 5.43669 42.3987C7.13674 40.0229 9.91784 38.4736 13.0622 38.4736Z" fill="#293D7C"/>
<path d="M41.8229 37.3838C37.3738 37.3838 33.6911 40.662 33.0564 44.9344C36.1606 45.4276 38.6052 47.8992 39.0555 51.0175C43.2656 48.7926 46.7874 45.4398 49.2167 41.3596C47.6301 38.9641 44.9115 37.3838 41.8229 37.3838Z" fill="#445EA0"/>
<path d="M42.3591 37.4002C42.1817 37.3897 42.003 37.3838 41.8229 37.3838C37.3738 37.3838 33.6911 40.662 33.0564 44.9344C33.3871 44.9869 33.7099 45.0633 34.024 45.1592C34.9059 41.1219 38.2223 37.9957 42.3591 37.4002Z" fill="#293D7C"/>
<path d="M31.916 44.8429C30.0159 44.8429 28.2884 45.5786 26.9999 46.7792C25.7114 45.5785 23.9839 44.8429 22.0838 44.8429C18.452 44.8429 15.4477 47.5267 14.9441 51.0189C18.5435 52.9213 22.6454 54 26.9999 54C31.3544 54 35.4563 52.9213 39.0557 51.0189C38.5521 47.5267 35.5478 44.8429 31.916 44.8429Z" fill="#293D7C"/>
<path d="M23.5919 45.7398C24.587 45.7398 25.5366 45.9333 26.4058 46.2842C25.201 45.3805 23.7058 44.8429 22.0838 44.8429C18.452 44.8429 15.4477 47.5267 14.9441 51.0189C15.3684 51.2432 15.7999 51.4556 16.2377 51.6564C16.9767 48.2735 19.9872 45.7398 23.5919 45.7398Z" fill="#1A2B63"/>
<path d="M29.3761 35.2455H27.7815L27.9849 36.855C28.0397 37.2885 28.436 37.5951 28.8689 37.5406C29.3022 37.4857 29.6093 37.09 29.5544 36.6567L29.3761 35.2455Z" fill="#AEC1ED"/>
<path d="M24.6241 35.2455L24.2058 38.5551C24.151 38.9884 24.458 39.3843 24.8914 39.439C24.9251 39.4432 24.9585 39.4453 24.9916 39.4453C25.3843 39.4452 25.725 39.1531 25.7755 38.7534L26.2189 35.2454H24.6241V35.2455Z" fill="#AEC1ED"/>
<path d="M18.8902 20.6421C18.8902 19.782 18.9225 18.9242 18.9828 18.0726C16.4453 19.5016 14.697 22.6851 14.697 26.3707C14.697 28.3172 15.181 30.1736 16.0966 31.7391C16.1825 31.8861 16.3381 31.9701 16.4997 31.9701C16.5588 31.9701 16.6186 31.959 16.676 31.9354C17.8793 31.4435 19.1652 31.1908 20.4986 31.1803C19.4458 27.9394 18.8902 24.3202 18.8902 20.6421Z" fill="#FE3745"/>
<path d="M15.8931 26.3707C15.8931 23.3266 17.0864 20.6261 18.9314 18.9728C18.9455 18.6721 18.9619 18.372 18.9831 18.0726C16.4455 19.5016 14.6973 22.6851 14.6973 26.3707C14.6973 28.3172 15.1813 30.1736 16.0968 31.7391C16.1828 31.8861 16.3384 31.9701 16.4999 31.9701C16.559 31.9701 16.6188 31.959 16.6763 31.9354C16.8746 31.8543 17.076 31.7822 17.2786 31.7142C16.3723 30.1539 15.8931 28.307 15.8931 26.3707Z" fill="#B7092B"/>
<path d="M35.0171 18.0726C35.0774 18.9243 35.1097 19.7821 35.1097 20.6421C35.1097 24.3201 34.5542 27.9393 33.5012 31.1803C34.8348 31.1908 36.1205 31.4435 37.3238 31.9354C37.3813 31.959 37.4412 31.9701 37.5002 31.9701C37.6619 31.9701 37.8173 31.886 37.9033 31.7391C38.819 30.1736 39.3028 28.3172 39.3028 26.3707C39.303 22.6851 37.5547 19.5016 35.0171 18.0726Z" fill="#FE3745"/>
<path d="M22.9614 32.3921V34.8236C22.9614 35.1136 23.1987 35.3509 23.4888 35.3509H30.5112C30.8012 35.3509 31.0385 35.1136 31.0385 34.8236V32.3921H22.9614Z" fill="#FE3745"/>
<path d="M24.7551 34.8236V32.3921H22.9614V34.8236C22.9614 35.1136 23.1987 35.3509 23.4888 35.3509H25.2825C24.9924 35.3509 24.7551 35.1136 24.7551 34.8236Z" fill="#B7092B"/>
<path d="M33.4183 9.52576H20.5818C19.4054 12.9169 18.7849 16.7338 18.7849 20.6421C18.7849 24.7049 19.4588 28.6985 20.7334 32.1909C20.8007 32.375 20.9758 32.4976 21.1719 32.4976H32.8282C33.0242 32.4976 33.1994 32.375 33.2666 32.1909C34.5413 28.6985 35.2151 24.7049 35.2151 20.6421C35.2153 16.7338 34.5948 12.917 33.4183 9.52576Z" fill="#EEF6FF"/>
<path d="M22.2282 32.1909C20.9534 28.6985 20.2796 24.7049 20.2796 20.6421C20.2796 16.7338 20.9001 12.9169 22.0765 9.52576H20.5818C19.4054 12.9169 18.7849 16.7338 18.7849 20.6421C18.7849 24.7049 19.4588 28.6985 20.7334 32.1909C20.8007 32.375 20.9758 32.4976 21.1719 32.4976H22.6666C22.4705 32.4976 22.2954 32.375 22.2282 32.1909Z" fill="#D9EAFC"/>
<path d="M23.9602 9.52576V11.2759C23.9602 11.5659 24.1975 11.8032 24.4875 11.8032H29.5123C29.8023 11.8032 30.0396 11.5659 30.0396 11.2759V9.52576H23.9602Z" fill="#EA2A3D"/>
<path d="M25.156 11.2759V9.52576H23.9602V11.2759C23.9602 11.5659 24.1975 11.8032 24.4875 11.8032H25.6834C25.3933 11.8032 25.156 11.5659 25.156 11.2759Z" fill="#B7092B"/>
<path d="M27.0001 0C26.896 0 26.792 0.0346992 26.7063 0.103992C24.3504 2.01182 22.3659 4.90588 20.9677 8.47336C20.819 8.85294 20.6792 9.24001 20.5452 9.6312H33.4549C33.3208 9.24001 33.1811 8.85294 33.0323 8.47336C31.6342 4.90588 29.6498 2.01182 27.2937 0.103992C27.2082 0.0346992 27.1042 0 27.0001 0Z" fill="#FE3745"/>
<path d="M27.7474 0.488109C27.5978 0.356168 27.4466 0.227813 27.2938 0.103992C27.2082 0.0346992 27.1042 0 27.0001 0C26.896 0 26.792 0.0346992 26.7063 0.103992C24.3504 2.01182 22.3659 4.90588 20.9677 8.47336C20.819 8.85294 20.6792 9.24001 20.5452 9.6312H22.0399C22.1739 9.24001 22.3137 8.85294 22.4624 8.47336C23.77 5.13728 25.5902 2.39066 27.7474 0.488109Z" fill="#B7092B"/>
<path d="M26.9999 24.4634C29.9718 24.4634 32.3809 22.0543 32.3809 19.0824C32.3809 16.1106 29.9718 13.7014 26.9999 13.7014C24.0281 13.7014 21.6189 16.1106 21.6189 19.0824C21.6189 22.0543 24.0281 24.4634 26.9999 24.4634Z" fill="#445EA0"/>
<path d="M26.9999 22.5346C28.9065 22.5346 30.452 20.989 30.452 19.0825C30.452 17.1759 28.9065 15.6304 26.9999 15.6304C25.0934 15.6304 23.5479 17.1759 23.5479 19.0825C23.5479 20.989 25.0934 22.5346 26.9999 22.5346Z" fill="#69CDFF"/>
<path d="M24.8134 19.0827C24.8134 20.7731 26.0285 22.1787 27.6328 22.4761C27.4275 22.514 27.2163 22.5349 26.9999 22.5349C25.0933 22.5349 23.5479 20.9893 23.5479 19.0827C23.5479 17.1762 25.0934 15.6306 26.9999 15.6306C27.2162 15.6306 27.4275 15.6515 27.6328 15.6895C26.0285 15.9868 24.8134 17.3924 24.8134 19.0827Z" fill="#52BBEF"/>
<path d="M11.6159 18.8512C11.4949 18.8512 11.3859 18.7783 11.3396 18.6665C10.7507 17.2449 10.3166 16.8109 8.89502 16.222C8.78322 16.1757 8.71045 16.0667 8.71045 15.9457C8.71045 15.8247 8.78333 15.7157 8.89502 15.6694C10.3167 15.0803 10.7507 14.6462 11.3396 13.2247C11.3859 13.1129 11.4949 13.04 11.6159 13.04C11.7369 13.04 11.8459 13.1129 11.8922 13.2247C12.4812 14.6462 12.9153 15.0803 14.3369 15.6694C14.4487 15.7157 14.5216 15.8247 14.5216 15.9457C14.5216 16.0667 14.4487 16.1758 14.3369 16.222C12.9153 16.8108 12.4812 17.2449 11.8922 18.6665C11.8459 18.7783 11.7369 18.8512 11.6159 18.8512Z" fill="#FFD00D"/>
<path d="M11.9375 18.0686C11.3486 16.647 10.9145 16.213 9.49292 15.6241C9.42268 15.5951 9.36794 15.5411 9.33683 15.4751C9.20035 15.539 9.0548 15.6031 8.89502 15.6694C8.78322 15.7157 8.71045 15.8247 8.71045 15.9457C8.71045 16.0667 8.78333 16.1758 8.89502 16.222C10.3166 16.8109 10.7507 17.2449 11.3396 18.6665C11.3859 18.7783 11.4949 18.8512 11.6159 18.8512C11.7369 18.8512 11.8459 18.7783 11.8922 18.6665C11.9584 18.5067 12.0226 18.3611 12.0864 18.2248C12.0205 18.1937 11.9666 18.1388 11.9375 18.0686Z" fill="#FFAF10"/>
<path d="M43.3972 21.2419C43.2909 21.2419 43.195 21.1779 43.1543 21.0796C42.6368 19.83 42.2552 19.4485 41.0056 18.931C40.9074 18.8904 40.8433 18.7944 40.8433 18.6881C40.8433 18.5816 40.9073 18.4859 41.0056 18.4452C42.2553 17.9274 42.6368 17.5458 43.1543 16.2963C43.195 16.1981 43.2909 16.134 43.3972 16.134C43.5035 16.134 43.5994 16.1981 43.6401 16.2963C44.1577 17.5459 44.5393 17.9274 45.789 18.4452C45.8872 18.4859 45.9512 18.5816 45.9512 18.6881C45.9512 18.7944 45.8872 18.8902 45.7889 18.931C44.5393 19.4485 44.1577 19.83 43.6401 21.0796C43.5995 21.1778 43.5036 21.2419 43.3972 21.2419Z" fill="white"/>
<path d="M43.6797 20.554C43.1621 19.3044 42.7806 18.9229 41.5309 18.4053C41.4692 18.3798 41.421 18.3324 41.3937 18.2743C41.2738 18.3304 41.1457 18.3868 41.0053 18.445C40.9071 18.4858 40.843 18.5815 40.843 18.6879C40.843 18.7943 40.907 18.8901 41.0053 18.9308C42.255 19.4484 42.6365 19.8299 43.1541 21.0794C43.1948 21.1777 43.2906 21.2418 43.3969 21.2418C43.5033 21.2418 43.5991 21.1777 43.6398 21.0794C43.698 20.9391 43.7544 20.811 43.8106 20.6911C43.7527 20.6639 43.7053 20.6157 43.6797 20.554Z" fill="#D9EAFC"/>
<path d="M40.655 10.1325C40.5311 10.1325 40.4194 10.0578 40.3719 9.94339C39.7689 8.48729 39.3243 8.04274 37.8682 7.43977C37.7538 7.39242 37.6792 7.28062 37.6792 7.1568C37.6792 7.03277 37.7539 6.92118 37.8682 6.87372C39.3244 6.27044 39.769 5.82589 40.3719 4.37C40.4194 4.25546 40.5311 4.18079 40.655 4.18079C40.7789 4.18079 40.8906 4.25546 40.9381 4.37C41.5413 5.82599 41.9858 6.27054 43.4419 6.87372C43.5563 6.92118 43.6309 7.03277 43.6309 7.1568C43.6309 7.28062 43.5562 7.39242 43.4418 7.43977C41.9857 8.04274 41.5413 8.48739 40.938 9.94339C40.8906 10.0578 40.7789 10.1325 40.655 10.1325Z" fill="#FF9518"/>
<path d="M40.9842 9.33104C40.3811 7.87504 39.9365 7.43049 38.4804 6.82742C38.4085 6.79768 38.3525 6.74241 38.3205 6.6748C38.1809 6.7403 38.0316 6.80601 37.868 6.87372C37.7535 6.92118 37.679 7.03277 37.679 7.1568C37.679 7.28062 37.7536 7.39241 37.868 7.43977C39.3241 8.04284 39.7687 8.48739 40.3717 9.94339C40.4191 10.0578 40.5308 10.1325 40.6548 10.1325C40.7787 10.1325 40.8904 10.0578 40.9378 9.94339C41.0057 9.7797 41.0714 9.63057 41.1367 9.49093C41.0691 9.45907 41.014 9.40297 40.9842 9.33104Z" fill="#EF8318"/>
</svg>
