<svg width="40" height="35" viewBox="0 0 40 35" fill="none" xmlns="http://www.w3.org/2000/svg">
<g clip-path="url(#clip0_122_20864)">
<path d="M20.1324 30.2885C10.3975 30.2885 2.50531 28.2948 2.50531 26.25V30.9588C2.51073 33.0023 10.4002 35 20.1324 35C29.8646 35 37.7541 33.0023 37.7595 30.9588V26.25C37.7595 28.2948 29.8673 30.2885 20.1324 30.2885Z" fill="#E4AF18"/>
<path d="M18.0985 22.8847C8.36361 22.8847 0.471405 20.891 0.471405 18.8462V23.555C0.476829 25.5985 8.36632 27.5962 18.0985 27.5962C27.8307 27.5962 35.7202 25.5985 35.7256 23.555V18.8462C35.7256 20.891 27.8334 22.8847 18.0985 22.8847Z" fill="#F4BF1A"/>
<path d="M22.1663 15.4807C12.4314 15.4807 4.5392 13.4871 4.5392 11.4423V16.1511C4.54462 18.1946 12.4341 20.1923 22.1663 20.1923C31.8985 20.1923 39.788 18.1946 39.7934 16.1511V11.4423C39.7934 13.4871 31.9012 15.4807 22.1663 15.4807Z" fill="#E4AF18"/>
<path d="M35.7256 3.45288C35.7256 5.49702 27.8334 7.40385 18.0985 7.40385C8.36361 7.40385 0.471405 5.49702 0.471405 3.45288C0.471405 1.40808 8.36361 0 18.0985 0C27.8334 0 35.7256 1.40808 35.7256 3.45288Z" fill="#FFD949"/>
<path d="M18.0985 7.40382C8.36361 7.40382 0.471405 5.41016 0.471405 3.36536V8.0742C0.476829 10.1177 8.36632 12.1154 18.0985 12.1154C27.8307 12.1154 35.7202 10.1177 35.7256 8.0742V3.36536C35.7256 5.41016 27.8334 7.40382 18.0985 7.40382Z" fill="#F4BF1A"/>
<path d="M3.18327 5.43445V10.1426C3.59548 10.2934 4.047 10.4388 4.53921 10.5774V5.86858C4.047 5.72993 3.59548 5.58454 3.18327 5.43445Z" fill="#DCA815"/>
<path d="M31.6579 5.86858V10.5774C32.1501 10.4388 32.6016 10.2934 33.0138 10.1426V5.43445C32.6016 5.58522 32.1501 5.72993 31.6579 5.86858Z" fill="#DCA815"/>
<path d="M6.5731 6.35718V11.0667C7.007 11.1562 7.45921 11.241 7.92904 11.3211V6.6116C7.45921 6.5315 7.007 6.4467 6.5731 6.35718Z" fill="#DCA815"/>
<path d="M28.268 6.6116V11.3218C28.7379 11.241 29.1901 11.1562 29.624 11.0667V6.35718C29.1901 6.4467 28.7379 6.5315 28.268 6.6116Z" fill="#DCA815"/>
<path d="M9.96294 6.91187V11.6221C10.405 11.6786 10.8558 11.7311 11.3189 11.7782V7.06802C10.8558 7.0209 10.405 6.96773 9.96294 6.91187Z" fill="#DCA815"/>
<path d="M24.8782 7.06869V11.7789C25.3412 11.7311 25.7921 11.6786 26.2341 11.6227V6.91187C25.7921 6.96908 25.3412 7.02158 24.8782 7.06869Z" fill="#DCA815"/>
<path d="M13.3528 7.24158V11.9524C13.7982 11.9834 14.2497 12.011 14.7087 12.0332V7.32167C14.2497 7.29946 13.7982 7.27254 13.3528 7.24158Z" fill="#DCA815"/>
<path d="M21.4884 7.32167V12.0332C21.9473 12.011 22.3989 11.9834 22.8443 11.9524V7.24158C22.3989 7.27254 21.9473 7.29946 21.4884 7.32167Z" fill="#DCA815"/>
<path d="M18.0985 7.40382C17.8714 7.40382 17.6456 7.4018 17.4206 7.39978V12.1113C17.6456 12.1133 17.8714 12.1154 18.0985 12.1154C18.3256 12.1154 18.5514 12.1133 18.7765 12.1113V7.39978C18.5514 7.4018 18.3256 7.40382 18.0985 7.40382Z" fill="#DCA815"/>
<path d="M7.25107 13.5114V18.2195C7.66327 18.3703 8.1148 18.5157 8.607 18.6543V13.9455C8.1148 13.8068 7.66327 13.6614 7.25107 13.5114Z" fill="#C49214"/>
<path d="M35.7256 13.9455V18.6543C36.2179 18.5157 36.6694 18.3703 37.0816 18.2195V13.5114C36.6694 13.6621 36.2179 13.8068 35.7256 13.9455Z" fill="#C49214"/>
<path d="M10.6409 14.4341V19.1436C11.0748 19.2331 11.527 19.3179 11.9968 19.398V14.6885C11.527 14.6084 11.0748 14.5236 10.6409 14.4341Z" fill="#C49214"/>
<path d="M32.3358 14.6885V19.3987C32.8056 19.3179 33.2578 19.2331 33.6917 19.1436V14.4341C33.2578 14.5236 32.8056 14.6084 32.3358 14.6885Z" fill="#C49214"/>
<path d="M14.0307 14.9894V19.6996C14.4728 19.7561 14.9236 19.8086 15.3867 19.8557V15.1455C14.9236 15.0977 14.4728 15.0452 14.0307 14.9894Z" fill="#C49214"/>
<path d="M28.946 15.1449V19.8557C29.409 19.8079 29.8599 19.7554 30.3019 19.6996V14.9894C29.8599 15.0459 29.409 15.0984 28.946 15.1449Z" fill="#C49214"/>
<path d="M17.4206 15.3186V20.0295C17.866 20.0604 18.3175 20.088 18.7765 20.1102V15.3987C18.3175 15.3765 17.866 15.3496 17.4206 15.3186Z" fill="#C49214"/>
<path d="M25.5562 15.3987V20.1102C26.0151 20.088 26.4667 20.0604 26.9121 20.0295V15.3186C26.4667 15.3496 26.0151 15.3765 25.5562 15.3987Z" fill="#C49214"/>
<path d="M22.1663 15.4807C21.9392 15.4807 21.7134 15.4787 21.4884 15.4767V20.1882C21.7134 20.1902 21.9392 20.1923 22.1663 20.1923C22.3934 20.1923 22.6192 20.1902 22.8443 20.1882V15.4767C22.6192 15.4787 22.3934 15.4807 22.1663 15.4807Z" fill="#C49214"/>
<path d="M3.18327 20.9152V25.6233C3.59548 25.7741 4.047 25.9188 4.53921 26.0581V21.3493C4.047 21.2106 3.59548 21.0653 3.18327 20.9152Z" fill="#DCA815"/>
<path d="M31.6579 21.3493V26.0581C32.1501 25.9195 32.6016 25.7741 33.0138 25.6233V20.9152C32.6016 21.0659 32.1501 21.2106 31.6579 21.3493Z" fill="#DCA815"/>
<path d="M6.5731 21.838V26.5475C7.007 26.6371 7.45921 26.7219 7.92904 26.802V22.0924C7.45921 22.0123 7.007 21.9275 6.5731 21.838Z" fill="#DCA815"/>
<path d="M28.268 22.0924V26.8026C28.7379 26.7219 29.1901 26.6371 29.624 26.5475V21.838C29.1901 21.9275 28.7379 22.0123 28.268 22.0924Z" fill="#DCA815"/>
<path d="M9.96294 22.3933V27.1035C10.405 27.16 10.8558 27.2125 11.3189 27.2597V22.5495C10.8558 22.5017 10.405 22.4492 9.96294 22.3933Z" fill="#DCA815"/>
<path d="M24.8782 22.5488V27.2597C25.3412 27.2119 25.7921 27.1594 26.2341 27.1035V22.3933C25.7921 22.4498 25.3412 22.5023 24.8782 22.5488Z" fill="#DCA815"/>
<path d="M13.3528 22.7224V27.4333C13.7982 27.4642 14.2497 27.4918 14.7087 27.514V22.8025C14.2497 22.7803 13.7982 22.7534 13.3528 22.7224Z" fill="#DCA815"/>
<path d="M21.4884 22.8025V27.514C21.9473 27.4918 22.3989 27.4642 22.8443 27.4333V22.7224C22.3989 22.7534 21.9473 22.7803 21.4884 22.8025Z" fill="#DCA815"/>
<path d="M18.0985 22.8847C17.8714 22.8847 17.6456 22.8826 17.4206 22.8806V27.5922C17.6456 27.5942 17.8714 27.5962 18.0985 27.5962C18.3256 27.5962 18.5514 27.5942 18.7765 27.5922V22.8806C18.5514 22.8826 18.3256 22.8847 18.0985 22.8847Z" fill="#DCA815"/>
<path d="M5.21716 28.3191V33.0273C5.62937 33.178 6.08089 33.3227 6.5731 33.4621V28.7532C6.08089 28.6146 5.62937 28.4692 5.21716 28.3191Z" fill="#C49214"/>
<path d="M33.6917 28.7532V33.4621C34.1839 33.3234 34.6355 33.178 35.0477 33.0273V28.3191C34.6355 28.4699 34.1839 28.6146 33.6917 28.7532Z" fill="#C49214"/>
<path d="M8.60699 29.2418V33.9513C9.04089 34.0409 9.4931 34.1257 9.96293 34.2058V29.4962C9.4931 29.4161 9.04089 29.3313 8.60699 29.2418Z" fill="#C49214"/>
<path d="M30.3019 29.4962V34.2064C30.7717 34.1257 31.2239 34.0409 31.6578 33.9513V29.2418C31.2239 29.3313 30.7717 29.4161 30.3019 29.4962Z" fill="#C49214"/>
<path d="M11.9968 29.7971V34.5073C12.4389 34.5639 12.8897 34.6163 13.3528 34.6635V29.9533C12.8897 29.9055 12.4389 29.853 11.9968 29.7971Z" fill="#C49214"/>
<path d="M26.9121 29.9526V34.6635C27.3751 34.6157 27.826 34.5632 28.268 34.5073V29.7971C27.826 29.8537 27.3751 29.9062 26.9121 29.9526Z" fill="#C49214"/>
<path d="M15.3867 30.1262V34.8371C15.8321 34.868 16.2836 34.8956 16.7426 34.9179V30.2063C16.2836 30.1841 15.8321 30.1572 15.3867 30.1262Z" fill="#C49214"/>
<path d="M23.5222 30.2063V34.9179C23.9812 34.8956 24.4328 34.868 24.8782 34.8371V30.1262C24.4328 30.1572 23.9812 30.1841 23.5222 30.2063Z" fill="#C49214"/>
<path d="M20.1324 30.2885C19.9053 30.2885 19.6795 30.2864 19.4545 30.2844V34.996C19.6795 34.998 19.9053 35 20.1324 35C20.3595 35 20.5853 34.998 20.8104 34.996V30.2844C20.5853 30.2864 20.3595 30.2885 20.1324 30.2885Z" fill="#C49214"/>
<path d="M35.1914 24.4812C33.266 26.1625 26.3446 27.5962 18.0985 27.5962C11.6511 27.5962 6.01514 26.7192 2.94192 25.5332C2.65921 25.7876 2.50531 26.0569 2.50531 26.3375C2.50531 28.3824 10.3975 30.2885 20.1324 30.2885C29.868 30.2885 37.7595 28.3824 37.7595 26.3375C37.7595 25.6328 36.8206 25.0028 35.1914 24.4812Z" fill="#FCC62D"/>
<path d="M22.1663 20.1923C13.2084 20.1923 5.81649 18.4996 4.69242 16.6365C2.06259 17.2281 0.471405 18.0163 0.471405 18.9337C0.471405 20.9778 8.36361 22.8846 18.0985 22.8846C27.8334 22.8846 35.7256 20.9778 35.7256 18.9337C35.7256 18.8435 35.7053 18.7553 35.6748 18.6678C32.4416 19.5711 27.5914 20.1923 22.1663 20.1923Z" fill="#FFD949"/>
<path d="M35.0429 9.11951C32.9338 10.7484 26.1487 12.1154 18.0985 12.1154C12.8999 12.1154 8.22801 11.5446 5.00157 10.7019C4.70259 10.9644 4.5392 11.2404 4.5392 11.5298C4.5392 13.5746 12.4314 15.4808 22.1663 15.4808C31.9012 15.4808 39.7934 13.5746 39.7934 11.5298C39.7934 10.5525 37.988 9.72124 35.0429 9.11951Z" fill="#FCC62D"/>
</g>
<defs>
<clipPath id="clip0_122_20864">
<rect width="40" height="35" fill="white"/>
</clipPath>
</defs>
</svg>
