<svg width="30" height="30" viewBox="0 0 30 30" fill="none" xmlns="http://www.w3.org/2000/svg">
<path d="M29.174 12.711L25.029 16.276C24.8938 16.3907 24.7285 16.4642 24.5528 16.488C24.3771 16.5117 24.1983 16.4847 24.0375 16.41C23.8767 16.3353 23.7406 16.2161 23.6453 16.0666C23.5501 15.917 23.4997 15.7433 23.5 15.566V13.5H14C13.8674 13.5 13.7402 13.5527 13.6465 13.6465C13.5527 13.7402 13.5 13.8674 13.5 14V22.255C13.4997 22.3834 13.4662 22.5096 13.4027 22.6212C13.3392 22.7329 13.2479 22.8262 13.1377 22.8921C13.0275 22.958 12.9021 22.9943 12.7737 22.9975C12.6453 23.0006 12.5183 22.9705 12.405 22.91L1.02952 16.876C0.832772 16.7717 0.676647 16.6045 0.586086 16.4011C0.495524 16.1976 0.475749 15.9697 0.529921 15.7537C0.584092 15.5377 0.709084 15.3461 0.884932 15.2095C1.06078 15.0729 1.27734 14.9991 1.50002 15H8.00002C8.13263 15 8.25981 14.9473 8.35358 14.8536C8.44735 14.7598 8.50002 14.6326 8.50002 14.5V7.16102C8.5003 6.97431 8.54556 6.79041 8.63198 6.62491C8.7184 6.4594 8.84343 6.31715 8.99648 6.21021C9.14953 6.10327 9.3261 6.03479 9.51123 6.01056C9.69636 5.98633 9.88461 6.00707 10.06 6.07102L23.5 11V8.43502C23.4995 8.25753 23.5499 8.08361 23.6452 7.93386C23.7405 7.78412 23.8767 7.66482 24.0377 7.59011C24.1987 7.5154 24.3777 7.48839 24.5536 7.51231C24.7295 7.53622 24.8948 7.61003 25.03 7.72502L29.175 11.29C29.2773 11.378 29.3594 11.4871 29.4157 11.6097C29.4719 11.7324 29.501 11.8658 29.5009 12.0007C29.5008 12.1357 29.4716 12.269 29.4151 12.3916C29.3587 12.5142 29.2765 12.6232 29.174 12.711Z" fill="#FBB35A"/>
</svg>
