<svg width="30" height="30" viewBox="0 0 30 30" fill="none" xmlns="http://www.w3.org/2000/svg">
<path d="M4.00659 27.8441L2.15596 25.9934C1.97292 25.8104 1.97292 25.5135 2.15596 25.3305L25.3304 2.15608C25.5134 1.97304 25.8103 1.97304 25.9933 2.15608L27.8439 4.00671C28.027 4.18976 28.027 4.48659 27.8439 4.66964L4.66952 27.8441C4.48647 28.0271 4.18975 28.0271 4.00659 27.8441Z" fill="#58595B"/>
<path d="M26.4283 2.59125L26.9406 2.07902C27.0588 1.96078 27.0588 1.76906 26.9406 1.65094C26.8223 1.5327 26.6306 1.5327 26.5125 1.65094L26.0002 2.16316L26.4283 2.59125Z" fill="#E59076"/>
<path d="M2.16292 26.0002L1.65069 26.5125C1.53245 26.6307 1.53245 26.8224 1.65069 26.9406C1.76894 27.0588 1.96065 27.0588 2.07878 26.9406L2.59101 26.4283L2.16292 26.0002Z" fill="#E59076"/>
<path d="M27.837 3.99994L28.3492 3.48771C28.4675 3.36947 28.4675 3.17775 28.3492 3.05963C28.231 2.94139 28.0393 2.94139 27.9212 3.05963L27.4089 3.57186L27.837 3.99994Z" fill="#E59076"/>
<path d="M3.57161 27.4089L3.05938 27.9212C2.94114 28.0394 2.94114 28.2311 3.05938 28.3492C3.17763 28.4675 3.36935 28.4675 3.48747 28.3492L3.9997 27.837L3.57161 27.4089Z" fill="#E59076"/>
<path d="M2.21134 24.8333C2.11982 24.9249 2.11982 25.0732 2.21134 25.1648L4.83541 27.7888C4.92693 27.8803 5.07529 27.8803 5.16681 27.7888L6.58244 26.3732L3.62697 23.4177L2.21134 24.8333Z" fill="#939598"/>
<path d="M6.16806 25.9589L5.33251 26.7944C5.14947 26.9775 4.85263 26.9775 4.66958 26.7944L2.4599 24.5847L2.21134 24.8333C2.11982 24.9248 2.11982 25.0732 2.21134 25.1647L4.83541 27.7887C4.92693 27.8803 5.07529 27.8803 5.16681 27.7887L6.58244 26.3731L6.16806 25.9589Z" fill="#808285"/>
<path d="M27.7887 4.83553L25.1646 2.21146C25.0731 2.11994 24.9248 2.11994 24.8332 2.21146L23.4176 3.62709L26.3731 6.58256L27.7887 5.16693C27.8802 5.07541 27.8802 4.92705 27.7887 4.83553Z" fill="#939598"/>
<path d="M27.7887 4.83559L27.5401 4.58703L26.7046 5.42258C26.5215 5.60562 26.2247 5.60562 26.0417 5.42258L23.832 3.21289L23.4176 3.62727L26.3731 6.58273L27.7887 5.16711C27.8802 5.07547 27.8802 4.92711 27.7887 4.83559Z" fill="#808285"/>
<path d="M23.4164 3.62549L26.3714 6.58055L6.58376 26.3682L3.62869 23.4132L23.4164 3.62549Z" fill="#F1F2F2"/>
<path d="M17.8934 10.3799C17.8334 10.3799 17.7734 10.3571 17.7277 10.3112C17.6362 10.2197 17.6362 10.0713 17.7277 9.97982L22.5338 5.17373C22.6252 5.08221 22.7738 5.08221 22.8652 5.17373C22.9567 5.26525 22.9567 5.41361 22.8652 5.50514L18.0591 10.3112C18.0134 10.3571 17.9534 10.3799 17.8934 10.3799ZM23.3624 4.91088C23.3024 4.91088 23.2424 4.88803 23.1967 4.84221C23.1052 4.75068 23.1052 4.60232 23.1967 4.5108L23.2519 4.45561C23.3433 4.36408 23.4919 4.36408 23.5833 4.45561C23.6748 4.54713 23.6748 4.69549 23.5833 4.78701L23.5281 4.84221C23.4824 4.88803 23.4224 4.91088 23.3624 4.91088Z" fill="white"/>
<path d="M25.5444 5.75391L6.91382 24.3845C6.73078 24.5675 6.43394 24.5675 6.25089 24.3845L4.45546 22.5891L3.62683 23.4177L6.5823 26.3732L26.373 6.58254L25.5444 5.75391Z" fill="#E6E7E8"/>
<path d="M19.8971 20.1319C19.8371 20.1319 19.7771 20.109 19.7314 20.0632L17.975 18.3068C17.8835 18.2153 17.8835 18.0669 17.975 17.9754C18.0664 17.8839 18.215 17.8839 18.3064 17.9754L20.0628 19.7318C20.1544 19.8233 20.1544 19.9717 20.0628 20.0632C20.017 20.1089 19.957 20.1319 19.8971 20.1319Z" fill="#D1D3D4"/>
<path d="M17.7597 22.2693C17.66 22.2693 17.5676 22.2054 17.5362 22.1053L16.6958 19.4328C16.6569 19.3093 16.7256 19.1777 16.8491 19.1389C16.9725 19.0998 17.1042 19.1687 17.143 19.2922L17.9834 21.9646C18.0223 22.0882 17.9536 22.2198 17.8301 22.2586C17.8066 22.2658 17.783 22.2693 17.7597 22.2693Z" fill="#D1D3D4"/>
<path d="M22.0347 17.9944C22.0114 17.9944 21.9877 17.9909 21.9643 17.9835L19.2918 17.1432C19.1683 17.1044 19.0997 16.9728 19.1385 16.8493C19.1773 16.7258 19.3089 16.657 19.4324 16.696L22.1049 17.5363C22.2284 17.5751 22.297 17.7067 22.2582 17.8302C22.2267 17.9303 22.1343 17.9944 22.0347 17.9944Z" fill="#D1D3D4"/>
<path d="M11.8593 12.0938C11.7993 12.0938 11.7393 12.0709 11.6936 12.0251L9.93717 10.2687C9.84565 10.1772 9.84565 10.0288 9.93717 9.93729C10.0286 9.84577 10.1772 9.84577 10.2686 9.93729L12.025 11.6937C12.1165 11.7852 12.1165 11.9336 12.025 12.0251C11.9793 12.0709 11.9193 12.0938 11.8593 12.0938Z" fill="#D1D3D4"/>
<path d="M10.638 13.3155C10.6147 13.3155 10.591 13.312 10.5675 13.3046L7.89508 12.4642C7.77157 12.4254 7.70301 12.2938 7.7418 12.1703C7.78059 12.0468 7.91207 11.978 8.03571 12.017L10.7082 12.8574C10.8317 12.8962 10.9002 13.0278 10.8614 13.1513C10.83 13.2514 10.7376 13.3155 10.638 13.3155Z" fill="#D1D3D4"/>
<path d="M13.0807 10.8725C12.9811 10.8725 12.8886 10.8085 12.8572 10.7085L12.0169 8.03599C11.978 7.91248 12.0466 7.78088 12.1702 7.74209C12.2935 7.70318 12.4252 7.77185 12.4641 7.89537L13.3044 10.5678C13.3433 10.6913 13.2746 10.8229 13.1511 10.8617C13.1276 10.8691 13.1039 10.8725 13.0807 10.8725Z" fill="#D1D3D4"/>
<path d="M25.9588 6.16821L6.91382 25.2132C6.73078 25.3962 6.43394 25.3962 6.25089 25.2132L4.04121 23.0035L3.62683 23.4179L6.5823 26.3733L26.373 6.58259L25.9588 6.16821Z" fill="#D1D3D4"/>
</svg>
