<svg width="30" height="30" viewBox="0 0 30 30" fill="none" xmlns="http://www.w3.org/2000/svg">
<g clip-path="url(#clip0_117_10163)">
<path d="M30 0H0V30H30V0Z" fill="#FFCC3E"/>
<path d="M30 0H0L30 30V0Z" fill="#E0AC2B"/>
<path d="M28.2838 1.71606H1.71606V28.2838H28.2838V1.71606Z" fill="#F2B827"/>
<path d="M28.284 1.71606H1.71606L28.284 28.284V1.71606Z" fill="#D69C1A"/>
<path d="M26.4276 3.57251H3.57251V26.4276H26.4276V3.57251Z" fill="#A0D7E8"/>
<path d="M3.57263 10.4757C3.99205 10.2388 4.47691 10.1035 4.99306 10.1035C5.7706 10.1035 6.47589 10.4108 6.99574 10.9098C7.34408 10.4133 7.92146 10.0881 8.57472 10.0881C9.46189 10.0881 10.2088 10.6875 10.4335 11.5036C10.9607 10.9514 11.7027 10.6067 12.5262 10.6067C13.837 10.6067 14.9433 11.4785 15.299 12.6742C15.5194 12.586 15.7607 12.5371 16.0129 12.5371C16.4212 12.5371 16.8002 12.6644 17.1119 12.8811C17.647 11.3916 19.0717 10.3256 20.7456 10.3256C22.0288 10.3256 23.1646 10.9519 23.8668 11.915C24.138 11.1791 24.8464 10.6538 25.6766 10.6538C25.9429 10.6538 26.197 10.7077 26.4272 10.8056V21.6282L3.57269 23.0975L3.57263 10.4757Z" fill="#FFFCFF"/>
<path d="M26.4271 19.5162V26.4272H3.57263V15.3835C7.33857 15.3835 13.3692 17.9084 20.3665 19.0111C22.3208 19.319 24.3504 19.5162 26.4271 19.5162Z" fill="#93CE12"/>
<path d="M3.57263 22.1005C4.76958 22.1525 6.07119 22.1813 7.43162 22.1813C13.3373 22.1813 18.1244 21.6462 18.1244 20.9862C18.1244 20.3268 13.3373 19.7917 7.43162 19.7917C6.07119 19.7917 4.76958 19.8199 3.57263 19.872" fill="#A0D7E8"/>
<path d="M26.4274 15.5439V19.5161C18.1431 19.5161 10.6088 16.382 5.61902 15.5726C6.15228 14.0806 7.5788 13.0134 9.25453 13.0134C10.7674 13.0134 12.0763 13.884 12.7094 15.1514C13.0499 14.8496 13.4968 14.6665 13.9872 14.6665C14.6129 14.6665 15.1689 14.9647 15.5215 15.4263C16.0358 14.9555 16.7215 14.6677 17.4739 14.6677C19.029 14.6677 20.297 15.8952 20.3631 17.4344C20.6681 17.233 21.0329 17.1155 21.4254 17.1155C21.7094 17.1155 21.9782 17.1767 22.2213 17.2869C22.5605 16.0667 23.6791 15.1716 25.007 15.1716C25.5231 15.1716 26.008 15.3069 26.4274 15.5439Z" fill="#EDEDED"/>
<path d="M26.4271 19.5161V26.4271H10.6532C23.2654 25.0648 24.245 20.8103 20.3665 19.011C22.3208 19.3188 24.3504 19.5161 26.4271 19.5161Z" fill="#86B20D"/>
</g>
<defs>
<clipPath id="clip0_117_10163">
<rect width="30" height="30" fill="white"/>
</clipPath>
</defs>
</svg>
