<svg width="30" height="30" viewBox="0 0 30 30" fill="none" xmlns="http://www.w3.org/2000/svg">
<g clip-path="url(#clip0_117_11174)">
<path d="M12.0469 24.4893H30V29.6865H12.0469V24.4893Z" fill="#A87140"/>
<path d="M12.0469 0.0380859H30V18.8818H12.0469V0.0380859Z" fill="#BB844C"/>
<path d="M12.0469 0.0380859H30V2.99707H12.0469V0.0380859Z" fill="#A87140"/>
<path d="M12.0469 18.8818H30V24.4893H12.0469V18.8818Z" fill="#A87140"/>
<path d="M20.6719 2.99707H21.375V18.8818H20.6719V2.99707Z" fill="#915D33"/>
<path d="M23.0273 8.8623H23.7305V11.417H23.0273V8.8623Z" fill="#915D33"/>
<path d="M18.4863 8.8623H19.1895V11.417H18.4863V8.8623Z" fill="#915D33"/>
<path d="M18.8379 20.3408H22.875V21.0439H18.8379V20.3408Z" fill="#915D33"/>
<path d="M18.8379 26.3467H22.875V27.0498H18.8379V26.3467Z" fill="#915D33"/>
<path d="M12.0469 24.1377H30V24.8408H12.0469V24.1377Z" fill="#915D33"/>
<path d="M8.90039 7.26855H2.5957L3.29883 2.42285H8.19726L8.90039 7.26855Z" fill="#B8BCBA"/>
<path d="M5.74805 29.2588H6.09961V7.26855H5.39648V29.2588H5.74805Z" fill="#915D33"/>
<path d="M5.74805 29.6104H7.34766V29.2588H6.09961V29.6104H5.74805Z" fill="#915D33"/>
<path d="M5.74805 29.6104H4.2832V29.9619H7.34766V29.6104H5.74805Z" fill="#915D33"/>
<path d="M5.74805 29.6104H5.39648V29.2588H4.2832V29.6104H5.74805Z" fill="#915D33"/>
<path d="M5.74805 29.2588H6.09961V29.6104H5.74805V29.2588Z" fill="#915D33"/>
<path d="M5.39648 29.2588H5.74805V29.6104H5.39648V29.2588Z" fill="#915D33"/>
<path d="M17.6953 29.6104H16.1719L15.498 27.4658H17.6953V29.6104Z" fill="#915D33"/>
<path d="M1.37695 29.6104H2.90625L3.58008 27.4658H1.37695V29.6104Z" fill="#915D33"/>
<path d="M0.755859 23.5693H18.082C18.498 23.5693 18.8379 23.9092 18.8379 24.3252V26.7158C18.8379 27.1318 18.498 27.4717 18.082 27.4717H0.755859C0.339844 27.4717 0 27.1318 0 26.7158V24.3252C0 23.9092 0.339844 23.5693 0.755859 23.5693Z" fill="#BB844C"/>
<path d="M2.29688 19.667H16.5352C17.8008 19.667 18.832 20.6982 18.832 21.9639V22.8076C18.832 23.2236 18.4922 23.5635 18.0762 23.5635H0.755859C0.339844 23.5635 0.00585938 23.2295 0 22.8135V21.9639C0 20.6982 1.03125 19.667 2.29688 19.667Z" fill="#C6CDC9"/>
<path d="M3.04676 13.6201H15.6913C16.7225 13.6201 17.5253 14.376 17.4315 15.249L16.9393 19.667H1.79871L1.30652 15.249C1.21277 14.376 2.01551 13.6201 3.04676 13.6201Z" fill="#B8BCBA"/>
</g>
<defs>
<clipPath id="clip0_117_11174">
<rect width="30" height="30" fill="white"/>
</clipPath>
</defs>
</svg>
