<svg width="31" height="30" viewBox="0 0 31 30" fill="none" xmlns="http://www.w3.org/2000/svg">
<g clip-path="url(#clip0_117_11749)">
<path d="M20.3677 2.07886H19.1667C18.9996 2.07886 18.8643 2.21427 18.8643 2.38126V8.18925H20.6702V2.38126C20.6702 2.21427 20.5348 2.07886 20.3677 2.07886Z" fill="#545454"/>
<path d="M16.4986 2.07886H15.2975C15.1305 2.07886 14.9951 2.21427 14.9951 2.38126V8.18925H16.801V2.38126C16.801 2.21427 16.6656 2.07886 16.4986 2.07886Z" fill="#545454"/>
<path d="M12.6292 2.07886H11.4281C11.2611 2.07886 11.1257 2.21427 11.1257 2.38126V8.18925H12.9317V2.38126C12.9316 2.21427 12.7962 2.07886 12.6292 2.07886Z" fill="#545454"/>
<path d="M18.8643 7.10059H20.6702V8.18932H18.8643V7.10059Z" fill="#494949"/>
<path d="M14.9949 7.10059H16.8008V8.18932H14.9949V7.10059Z" fill="#494949"/>
<path d="M11.1257 7.10059H12.9317V8.18932H11.1257V7.10059Z" fill="#494949"/>
<path d="M0.897949 26.7115V9.39888C0.897949 8.73079 1.43953 8.18921 2.10762 8.18921H29.6883C30.3564 8.18921 30.8979 8.73079 30.8979 9.39888V26.7115C30.8979 27.3795 30.3564 27.9211 29.6883 27.9211H2.10762C1.43953 27.9211 0.897949 27.3795 0.897949 26.7115Z" fill="#E6E2E6"/>
<path d="M29.6883 26.8325H2.10762C1.43953 26.8325 0.897949 26.2909 0.897949 25.6228V26.7115C0.897949 27.3796 1.43953 27.9212 2.10762 27.9212H29.6883C30.3564 27.9212 30.8979 27.3796 30.8979 26.7115V25.6228C30.8979 26.2909 30.3564 26.8325 29.6883 26.8325Z" fill="#D8D1D7"/>
<path d="M28.4416 23.8282H3.3544C3.18735 23.8282 3.052 23.6928 3.052 23.5258V12.5844C3.052 12.4173 3.18741 12.282 3.3544 12.282H28.4416C28.6085 12.282 28.744 12.4174 28.744 12.5844V23.5258C28.744 23.6928 28.6085 23.8282 28.4416 23.8282Z" fill="#FCFCFC"/>
<path d="M3.3544 23.8284H28.4416C28.6085 23.8284 28.744 23.693 28.744 23.526V22.7397H3.052V23.526C3.052 23.693 3.18741 23.8284 3.3544 23.8284Z" fill="#EDEDED"/>
<path d="M7.66752 16.4674H5.03971C4.87271 16.4674 4.7373 16.332 4.7373 16.165V15.1679C4.7373 15.0009 4.87271 14.8655 5.03971 14.8655H7.66752C7.83457 14.8655 7.96992 15.0009 7.96992 15.1679V16.165C7.96992 16.3321 7.83451 16.4674 7.66752 16.4674Z" fill="#A8A7A8"/>
<path d="M12.4397 16.4674H9.81192C9.64493 16.4674 9.50952 16.332 9.50952 16.165V15.1679C9.50952 15.0009 9.64493 14.8655 9.81192 14.8655H12.4397C12.6067 14.8655 12.7421 15.0009 12.7421 15.1679V16.165C12.7421 16.3321 12.6068 16.4674 12.4397 16.4674Z" fill="#A8A7A8"/>
<path d="M17.212 16.4674H14.5841C14.4171 16.4674 14.2817 16.332 14.2817 16.165V15.1679C14.2817 15.0009 14.4171 14.8655 14.5841 14.8655H17.212C17.3789 14.8655 17.5144 15.0009 17.5144 15.1679V16.165C17.5144 16.3321 17.3789 16.4674 17.212 16.4674Z" fill="#A8A7A8"/>
<path d="M21.9842 16.4674H19.3564C19.1894 16.4674 19.054 16.332 19.054 16.165V15.1679C19.054 15.0009 19.1894 14.8655 19.3564 14.8655H21.9842C22.1512 14.8655 22.2866 15.0009 22.2866 15.1679V16.165C22.2866 16.3321 22.1512 16.4674 21.9842 16.4674Z" fill="#A8A7A8"/>
<path d="M24.1286 17.9783H26.7564C26.9234 17.9783 27.0588 18.1137 27.0588 18.2807V19.2778C27.0588 19.4448 26.9234 19.5802 26.7564 19.5802H24.1286C23.9616 19.5802 23.8262 19.4448 23.8262 19.2778V18.2807C23.8262 18.1137 23.9616 17.9783 24.1286 17.9783Z" fill="#A8A7A8"/>
<path d="M24.6946 17.9782H26.1901V15.6132C26.1901 15.2002 25.8553 14.8655 25.4424 14.8655C25.0294 14.8655 24.6946 15.2002 24.6946 15.6132V17.9782Z" fill="#DD636E"/>
<path d="M24.6946 16.8896H26.1901V17.9784H24.6946V16.8896Z" fill="#C63D4F"/>
<path d="M7.1012 16.4675H5.60571V18.8325C5.60571 19.2455 5.94052 19.5803 6.35343 19.5803C6.7664 19.5803 7.10114 19.2455 7.10114 18.8325L7.1012 16.4675Z" fill="#545454"/>
<path d="M5.60571 16.4675H7.1012V17.5563H5.60571V16.4675Z" fill="#494949"/>
<path d="M11.8734 16.4675H10.3779V18.8325C10.3779 19.2455 10.7127 19.5803 11.1256 19.5803C11.5386 19.5803 11.8734 19.2455 11.8734 18.8325L11.8734 16.4675Z" fill="#545454"/>
<path d="M10.3779 16.4675H11.8734V17.5563H10.3779V16.4675Z" fill="#494949"/>
<path d="M16.6456 16.4675H15.1501V18.8325C15.1501 19.2455 15.4849 19.5803 15.8979 19.5803C16.3108 19.5803 16.6456 19.2455 16.6456 18.8325L16.6456 16.4675Z" fill="#545454"/>
<path d="M15.1501 16.4675H16.6456V17.5563H15.1501V16.4675Z" fill="#494949"/>
<path d="M21.4179 16.4675H19.9224V18.8325C19.9224 19.2455 20.2571 19.5803 20.6701 19.5803C21.083 19.5803 21.4178 19.2455 21.4178 18.8325V16.4675H21.4179Z" fill="#545454"/>
<path d="M19.9224 16.4675H21.4179V17.5563H19.9224V16.4675Z" fill="#494949"/>
<path d="M7.57616 20.8025H5.09343C4.84241 20.8025 4.63892 21.006 4.63892 21.257C4.63892 21.508 4.84241 21.7115 5.09343 21.7115H7.57616C7.82718 21.7115 8.03067 21.5081 8.03067 21.257C8.03067 21.0059 7.82718 20.8025 7.57616 20.8025Z" fill="#F6E266"/>
<path d="M12.3576 20.8025H9.87492C9.62391 20.8025 9.42041 21.006 9.42041 21.257C9.42041 21.508 9.62391 21.7115 9.87492 21.7115H12.3576C12.6086 21.7115 12.8121 21.5081 12.8121 21.257C12.8121 21.0059 12.6086 20.8025 12.3576 20.8025Z" fill="#F6E266"/>
<path d="M17.1391 20.8025H14.6564C14.4054 20.8025 14.2019 21.006 14.2019 21.257C14.2019 21.508 14.4054 21.7115 14.6564 21.7115H17.1391C17.3901 21.7115 17.5936 21.5081 17.5936 21.257C17.5936 21.0059 17.3902 20.8025 17.1391 20.8025Z" fill="#F6E266"/>
<path d="M21.9208 20.8025H19.4382C19.1871 20.8025 18.9836 21.006 18.9836 21.257C18.9836 21.508 19.1871 21.7115 19.4382 21.7115H21.9208C22.1718 21.7115 22.3753 21.5081 22.3753 21.257C22.3753 21.0059 22.1719 20.8025 21.9208 20.8025Z" fill="#F6E266"/>
<path d="M26.7024 20.8025H24.2196C23.9686 20.8025 23.7651 21.006 23.7651 21.257C23.7651 21.508 23.9686 21.7115 24.2196 21.7115H26.7024C26.9534 21.7115 27.1569 21.5081 27.1569 21.257C27.1569 21.0059 26.9534 20.8025 26.7024 20.8025Z" fill="#F6E266"/>
</g>
<defs>
<clipPath id="clip0_117_11749">
<rect width="30" height="30" fill="white" transform="translate(0.897949)"/>
</clipPath>
</defs>
</svg>
