<svg width="254px" height="315px" viewBox="0 0 254 315" version="1.1" xmlns="http://www.w3.org/2000/svg" xmlns:xlink="http://www.w3.org/1999/xlink"> <g id="Page-1" stroke="none" stroke-width="1" fill="none" fill-rule="evenodd"> <g id="garbage" transform="translate(0.000000, -155.000000)" fill-rule="nonzero"> <g id="Group" transform="translate(82.000000, 155.000000)" fill="#4398D1"> <path d="M85.683,4.26325641e-14 L3.343,4.26325641e-14 C0.51,4.26325641e-14 -0.649,2.007 0.767,4.46 L30.647,56.213 L58.377,56.213 L88.258,4.46 C89.675,2.007 88.516,4.26325641e-14 85.683,4.26325641e-14 Z" id="Path"></path> </g> <g id="Group" transform="translate(0.000000, 155.000000)"> <path d="M124.039,56.213 L118.777,5.123 C118.486,2.306 115.931,4.26325641e-14 113.098,4.26325641e-14 L85.343,4.26325641e-14 C82.51,4.26325641e-14 81.351,2.007 82.767,4.46 L112.647,56.213 L124.039,56.213 L124.039,56.213 Z" id="Path" fill="#2D72A0"></path> <path d="M22.015,314.017 C17.098,314.017 12.64,311.111 10.66,306.607 C3.588,290.52 0,273.399 0,255.722 L0,216.031 C0,146.271 56.754,89.518 126.51,89.518 C196.271,89.518 253.025,146.271 253.025,216.031 L253.025,255.722 C253.025,273.4 249.437,290.52 242.361,306.607 C240.384,311.111 235.926,314.017 231.01,314.017 L22.015,314.017 L22.015,314.017 Z" id="Path" fill="#4398D1"></path> </g> <path d="M38.989,461.606 C31.919,445.519 28.33,428.399 28.33,410.721 L28.33,371.03 C28.33,306.059 77.562,252.38 140.676,245.315 C136.024,244.793 131.299,244.517 126.51,244.517 C56.754,244.519 0,301.272 0,371.032 L0,410.723 C0,428.401 3.588,445.521 10.659,461.608 C12.639,466.112 17.098,469.018 22.014,469.018 L50.344,469.018 C45.428,469.017 40.97,466.11 38.989,461.606 Z" id="Path" fill="#231F20" opacity="0.1"></path> <path d="M159.567,226 L159.567,210.772 C159.567,207.939 157.249,205.622 154.416,205.622 L98.606,205.622 C95.773,205.622 93.455,207.939 93.455,210.772 L93.455,226 L159.567,226 Z" id="Path" fill="#2D72A0"></path> <path d="M176.147,250.564 C176.876,253.301 175.154,255.54 172.321,255.54 L80.704,255.54 C77.871,255.54 76.176,253.308 76.938,250.579 L82.628,230.201 C83.39,227.472 86.331,225.24 89.164,225.24 L164.255,225.24 C167.088,225.24 170.002,227.48 170.731,230.218 L176.147,250.564 Z" id="Path" fill="#4398D1"></path> <path d="M105.115,250.579 L110.804,230.201 C111.566,227.472 114.507,225.24 117.34,225.24 L89.164,225.24 C86.331,225.24 83.39,227.472 82.628,230.201 L76.938,250.579 C76.176,253.308 77.871,255.54 80.704,255.54 L108.881,255.54 C106.048,255.54 104.353,253.308 105.115,250.579 Z" id="Path" fill="#231F20" opacity="0.1"></path> </g> </g></svg>
