<svg width="30" height="30" viewBox="0 0 30 30" fill="none" xmlns="http://www.w3.org/2000/svg">
<path d="M23.7494 5.67725H22.4988V11.3872H23.7494V5.67725Z" fill="#CCD1D9"/>
<path d="M7.49899 5.67725H6.25024V11.3872H7.49899V5.67725Z" fill="#CCD1D9"/>
<path d="M24.7183 5.00063H20.4538H19.3662H19.0549L17.3337 8.45033L13.1187 0L10.6229 5.00063H5.28174V6.24937H10.8701H11.3975L13.1187 2.79967L17.3337 11.25L19.8295 6.24937H24.7183V5.00063Z" fill="#FC6E51"/>
<path d="M25.0003 11.8744C25.0003 11.5301 24.7202 11.25 24.3741 11.25H21.8765C21.5304 11.25 21.2502 11.5301 21.2502 11.8744V18.0469C21.2502 18.3921 21.5304 18.6713 21.8765 18.6713H24.3741C24.7201 18.6713 25.0003 18.392 25.0003 18.0469V11.8744Z" fill="#434A54"/>
<path d="M25.0002 5.625C25.0002 6.66047 24.1598 7.5 23.1252 7.5C22.0888 7.5 21.2502 6.66047 21.2502 5.625C21.2502 4.58953 22.0888 3.75 23.1252 3.75C24.1598 3.75 25.0002 4.58953 25.0002 5.625Z" fill="#E6E9ED"/>
<path d="M8.74959 11.8744C8.74959 11.5301 8.46945 11.25 8.12521 11.25H5.62584C5.2816 11.25 5.00146 11.5301 5.00146 11.8744V18.0469C5.00146 18.3921 5.2816 18.6713 5.62584 18.6713H8.12521C8.46945 18.6713 8.74959 18.392 8.74959 18.0469V11.8744Z" fill="#434A54"/>
<path d="M27.4996 15.6244C27.4996 15.2801 27.2195 15 26.8752 15H3.12462C2.78038 15 2.50024 15.2801 2.50024 15.6244V29.3756C2.50024 29.7199 2.78038 30 3.12462 30H26.8752C27.2195 30 27.4996 29.7199 27.4996 29.3756V15.6244Z" fill="#FFCE54"/>
<path d="M8.15283 25.6255C8.46959 22.1264 11.4194 19.3743 14.9992 19.3743C18.5807 19.3743 21.5305 22.1264 21.8473 25.6255H8.15283Z" fill="#F5F7FA"/>
<path d="M14.999 18.75C10.8571 18.75 7.49902 22.1081 7.49902 26.25H22.499C22.499 22.1081 19.1427 18.75 14.999 18.75ZM10.5807 21.8307C11.7599 20.6506 13.331 20.0006 14.999 20.0006C16.6689 20.0006 18.2381 20.6507 19.4192 21.8307C20.2999 22.7106 20.8841 23.8073 21.1258 24.9994H8.87416C9.11404 23.8073 9.69998 22.7106 10.5807 21.8307Z" fill="#F6BB42"/>
<path d="M14.9991 22.5C14.6549 22.5 14.3748 22.7801 14.3748 23.1244V24.9994H15.6254V23.1244C15.6254 22.7801 15.3452 22.5 14.9991 22.5Z" fill="#434A54"/>
<path d="M8.74976 5.625C8.74976 6.66047 7.91116 7.5 6.87476 7.5C5.84022 7.5 4.99976 6.66047 4.99976 5.625C4.99976 4.58953 5.84022 3.75 6.87476 3.75C7.91116 3.75 8.74976 4.58953 8.74976 5.625Z" fill="#E6E9ED"/>
</svg>
