<svg width="20" height="20" viewBox="0 0 20 20" fill="none" xmlns="http://www.w3.org/2000/svg">
<g clip-path="url(#clip0_115_728)">
<path d="M17.1118 20H1.80694C1.40601 20 1.08109 19.675 1.08109 19.274V7.56757H17.8378V19.274C17.8378 19.675 17.5128 20 17.1118 20Z" fill="#FFC73B"/>
<path d="M1.08109 7.56757H17.8378V10.2703H1.08109V7.56757Z" fill="#EFB025"/>
<path d="M20 4.46207V7.97042C20 8.34512 19.7333 8.64868 19.4046 8.64868H0.59494C0.266266 8.64868 0 8.34512 0 7.97042V4.46207C0 4.08737 0.266266 3.78381 0.59494 3.78381H19.4046C19.7333 3.78381 20 4.08737 20 4.46207Z" fill="#FFC73B"/>
<path d="M9.1892 5.15646C9.06161 5.31293 8.93641 5.47162 8.81422 5.63204C8.35886 6.22873 7.94205 6.854 7.56526 7.50295C7.44936 7.70253 7.33751 7.90416 7.22896 8.10816H3.24326C3.4761 7.55174 3.73144 7.00558 4.00807 6.47173C4.50975 5.5032 5.0822 4.57382 5.72182 3.69245C5.8746 3.48197 6.03098 3.27403 6.19126 3.06923C6.28722 2.94576 6.38483 2.82402 6.48379 2.70276C6.84753 3.03276 7.21097 3.36245 7.57486 3.69245C7.63123 3.74329 7.68761 3.79477 7.74383 3.84577C8.17325 4.23514 8.60266 4.62435 9.03192 5.0142C9.08455 5.06125 9.13672 5.10909 9.1892 5.15646Z" fill="#EFB025"/>
<path d="M15.1351 8.10816H11.1497C11.0416 7.90416 10.9294 7.70253 10.8135 7.50295C10.4367 6.854 10.0195 6.22873 9.56471 5.63204C9.44208 5.47162 9.3169 5.31293 9.18918 5.15646C9.2418 5.10909 9.29397 5.06156 9.34659 5.0142C9.77623 4.62435 10.2056 4.23466 10.6348 3.84577C10.6911 3.79477 10.7475 3.74329 10.8039 3.69245C11.1676 3.36245 11.5314 3.03276 11.8948 2.70276C11.9937 2.82371 12.0913 2.94576 12.1873 3.06892C12.3478 3.27403 12.5043 3.48197 12.6566 3.69245C13.2962 4.57382 13.8685 5.5032 14.3704 6.47173C14.647 7.00558 14.9023 7.55174 15.1351 8.10816Z" fill="#EFB025"/>
<path d="M10.27 5.64875C10.1408 5.8017 10.0142 5.95698 9.89068 6.11395C9.43044 6.6978 9.00886 7.30961 8.6279 7.94476C7.41849 9.95958 6.61519 12.2103 6.27638 14.5661C5.76718 13.8778 5.29724 13.1331 4.87444 12.3369C4.13072 12.8313 3.40383 13.3967 2.70392 14.0329C3.06335 11.5341 3.85527 9.13224 5.03149 6.93557C5.6597 5.76169 6.39796 4.64636 7.2387 3.60627C7.33572 3.48545 7.43441 3.36649 7.53446 3.24768C7.95922 3.62049 8.38369 3.99329 8.8086 4.3661C9.24262 4.74709 9.67678 5.12793 10.1109 5.50939C10.164 5.55543 10.2168 5.60225 10.27 5.64875Z" fill="#FF4440"/>
<path d="M17.8363 14.0329C17.1364 13.3967 16.4095 12.8313 15.6658 12.3369C15.243 13.1331 14.7731 13.8778 14.2639 14.5661C13.925 12.2103 13.1219 9.95958 11.9123 7.94476C11.5314 7.30961 11.1095 6.6978 10.6495 6.11395C10.5255 5.95698 10.399 5.8017 10.27 5.64875C10.323 5.60225 10.3758 5.55574 10.429 5.50939C10.8634 5.12793 11.2976 4.74663 11.7318 4.3661C12.1565 3.99283 12.5815 3.62049 13.0058 3.24768C13.1058 3.36603 13.2045 3.48545 13.3015 3.60596C14.1424 4.64605 14.8807 5.76138 15.5092 6.93557C16.6851 9.13224 17.4769 11.5341 17.8363 14.0329Z" fill="#FF4440"/>
<path d="M8.68823 5.6488H11.8521V8.5367H8.68823V5.6488Z" fill="#FF4440"/>
<path d="M15.1351 6.9766L11.4242 8.10815C11.0312 7.396 10.5959 6.71 10.1214 6.05536L9.8938 5.3775L9.72974 4.88864L11.2379 4.09559L12.8575 3.24329C13.725 4.40948 14.4867 5.66004 15.1351 6.9766Z" fill="#EA2F2F"/>
<path d="M10.2703 4.88841L10.1062 5.37731L9.8789 6.05521C9.40399 6.7099 8.96898 7.39595 8.57588 8.10815L4.86487 6.97652C5.51309 5.66021 6.27488 4.40956 7.14241 3.24329L8.76234 4.0953L10.2703 4.88841Z" fill="#EA2F2F"/>
<path d="M15.3571 0.127471L9.72974 2.65539L10.8107 5.40541L16.8171 3.84154C17.6027 3.637 18.0342 2.83954 17.7502 2.11713L17.2545 0.856198C16.9707 0.133796 16.0931 -0.203156 15.3571 0.127471Z" fill="#FF4440"/>
<path d="M4.64284 0.127471L10.2703 2.65539L9.18928 5.40541L3.18289 3.84154C2.39734 3.637 1.96577 2.83954 2.24977 2.11713L2.74538 0.856198C3.02938 0.133796 3.90677 -0.203156 4.64284 0.127471Z" fill="#FF4440"/>
<path d="M11.6433 4.32427C11.5471 4.32427 11.4528 4.27455 11.3974 4.18345C11.3106 4.04146 11.3501 3.85282 11.4858 3.76201C11.5259 3.73525 12.4788 3.1006 13.5729 2.63749C15.1501 1.96979 16.2034 2.00562 16.703 2.74394C16.7962 2.88155 16.7651 3.07209 16.6336 3.16948C16.5021 3.26687 16.3202 3.23441 16.2271 3.0968C15.5497 2.09599 12.7333 3.65219 11.8 4.27631C11.7514 4.30877 11.6971 4.32427 11.6433 4.32427Z" fill="#EA2F2F"/>
<path d="M8.3567 4.32427C8.30291 4.32427 8.24855 4.30877 8.19993 4.27631C7.26671 3.65219 4.45027 2.09599 3.77289 3.0968C3.67969 3.23441 3.49777 3.26687 3.36629 3.16948C3.23495 3.07194 3.20379 2.88155 3.29699 2.74394C3.79664 2.00562 4.84975 1.96979 6.4271 2.63749C7.52115 3.10046 8.47407 3.73525 8.51417 3.76201C8.64984 3.85282 8.68938 4.04146 8.60276 4.18345C8.547 4.27455 8.45283 4.32427 8.3567 4.32427Z" fill="#EA2F2F"/>
<path d="M11.0847 1.08105H9.45583C9.01006 1.08105 8.64865 1.52271 8.64865 2.0676V4.95937C8.64865 5.50427 9.01006 5.94592 9.45583 5.94592H11.0847C11.5305 5.94592 11.8919 5.50427 11.8919 4.95937V2.0676C11.8919 1.52271 11.5305 1.08105 11.0847 1.08105Z" fill="#EA2F2F"/>
<path d="M8.10809 8.64862H11.3513V20H8.10809V8.64862Z" fill="#FF4440"/>
<path d="M8.10809 8.64862H11.3513V9.7297H8.10809V8.64862Z" fill="#EA2F2F"/>
</g>
<defs>
<clipPath id="clip0_115_728">
<rect width="20" height="20" fill="white"/>
</clipPath>
</defs>
</svg>
