<svg width="35" height="35" viewBox="0 0 35 35" fill="none" xmlns="http://www.w3.org/2000/svg">
<g clip-path="url(#clip0_123_21620)">
<path d="M32.6581 8.75031L28.2247 6.77814L26.2509 2.34304L21.4261 2.8469L17.5009 0.000305176L13.5733 2.8469L8.75085 2.34304L6.7784 6.77614L2.3433 8.75031L2.84745 13.5751L0.000854492 17.5003L2.84745 21.4278L2.3433 26.2503L6.77669 28.2225L8.75085 32.6576L13.5756 32.1537L17.5009 35.0003L21.4284 32.1537L26.2509 32.6576L28.223 28.2242L32.6581 26.2503L32.154 21.4256L35.0009 17.5003L32.154 13.5728L32.6581 8.75031ZM14.0009 24.5003L9.04822 19.5477L10.6991 17.9028L14.0009 21.1985L23.8999 11.2995L25.5507 12.9501L14.0009 24.5003Z" fill="#2457C6"/>
<path d="M24.3123 10.8871C24.0844 10.6592 23.7153 10.6592 23.4874 10.8871L14.0008 20.3737L11.1115 17.4897C10.8839 17.2627 10.5154 17.2627 10.2878 17.4897L8.63407 19.1335C8.52441 19.2429 8.4626 19.3916 8.4626 19.5465C8.4626 19.7015 8.52441 19.8501 8.63407 19.9595L13.5867 24.9122C13.8143 25.1397 14.1837 25.1397 14.4116 24.9122L25.9615 13.362C26.189 13.1344 26.189 12.765 25.9615 12.5371L24.3123 10.8871Z" fill="white"/>
</g>
<defs>
<clipPath id="clip0_123_21620">
<rect width="35" height="35" fill="white"/>
</clipPath>
</defs>
</svg>
