<svg width="167" height="130" viewBox="0 0 167 130" fill="none" xmlns="http://www.w3.org/2000/svg">
<rect width="167" height="130" rx="4" fill="#4869AD"/>
<g clip-path="url(#clip0_128_32703)">
<path d="M32.5268 48.5355H28.0846V37.4561H25.0588V33.8488H28.0846V31.2821C28.0846 28.2404 29.4229 26.059 33.8528 26.059C34.7898 26.059 36.2607 26.2479 36.2607 26.2479V29.5975H34.7156C33.1415 29.5975 32.5268 30.0765 32.5268 31.4011V33.8488H36.2016L35.8744 37.4561H32.5268V48.5355Z" fill="white"/>
<path d="M42.7188 33.5606C42.6542 33.5606 42.5875 33.5629 42.5216 33.5646C38.4027 33.5646 36.5183 36.6645 36.5183 41.0649C36.5183 46.6083 38.9627 48.8269 42.5538 48.8269C44.6083 48.8269 45.9582 47.9617 46.7786 46.3469V48.537H51.0035V33.8504H46.7786V36.109C46.1088 34.6558 44.7212 33.5777 42.7188 33.5606ZM43.7931 37.0309C45.5231 37.0309 46.5614 38.2383 46.5614 40.2919L46.5654 42.3894C46.5654 43.7735 45.7078 45.3928 43.7931 45.3928C40.8495 45.3928 40.9282 42.2127 40.9282 41.1535C40.9282 37.5906 42.4965 37.0309 43.7931 37.0309Z" fill="white"/>
<path d="M52.7098 41.1945C52.7098 39.4098 52.6243 33.5702 60.2283 33.5702C63.2806 33.5702 64.5551 34.5413 64.5551 34.5413L63.5307 37.7203C63.5307 37.7203 62.2578 37.0191 60.5992 37.0191C58.4748 37.0191 57.1193 38.2512 57.1193 40.4192L57.1218 41.9738C57.1218 44.0571 58.4295 45.4476 60.6036 45.4476C62.1145 45.4476 63.5073 44.7397 63.5073 44.7397L64.5291 47.8524C64.5291 47.8524 63.3637 48.8296 60.2495 48.8296C53.0095 48.8296 52.7098 43.5902 52.7098 41.1945Z" fill="white"/>
<path d="M89.3273 33.5647C93.4462 33.5647 95.3603 36.6646 95.3603 41.065C95.3603 46.6084 92.9159 48.827 89.3248 48.827C87.2703 48.827 85.7515 47.9618 84.931 46.347V48.5371L80.7593 48.5354V26.5055L85.1885 26.119V35.9101C85.8278 34.1971 87.9287 33.5647 89.3273 33.5647ZM88.0856 37.031C86.3556 37.031 85.1885 38.2384 85.1885 40.292L85.1845 42.3895C85.1819 43.7736 85.9927 45.3929 88.0856 45.3929C91.0292 45.3929 90.9504 42.2127 90.9504 41.1535C90.9504 37.5907 89.3822 37.031 88.0856 37.031Z" fill="white"/>
<path d="M72.2403 33.5768C67.5686 33.5768 65.1023 36.1253 65.1023 40.6544V41.4958C65.1023 47.374 68.5658 48.8874 72.6949 48.8874C76.7085 48.8874 78.5252 47.7642 78.5252 47.7642L77.6964 44.7729C77.6964 44.7729 75.5594 45.6828 73.2261 45.6828C70.8071 45.6828 69.7668 45.0658 69.5002 42.7398H78.8793V40.3404C78.8793 35.4276 76.1113 33.5768 72.2403 33.5768ZM72.3529 36.5721C73.97 36.5721 75.0178 37.5642 74.9603 39.8653H69.5082C69.6028 37.4434 70.7328 36.5721 72.3529 36.5721Z" fill="white"/>
<path d="M104.192 33.5566C99.3948 33.5566 96.8691 36.2616 96.8691 41.1093C96.8691 47.7604 101.223 48.831 104.2 48.831C108.559 48.831 111.459 46.483 111.459 41.1697C111.459 35.6394 108.198 33.5566 104.192 33.5566ZM104.132 37.0431C106.241 37.0431 107.077 38.6227 107.077 40.4209V41.9668C107.077 44.1452 105.908 45.405 104.124 45.405C102.456 45.405 101.283 44.2265 101.283 41.9668V40.4209C101.283 38.0109 102.678 37.0431 104.132 37.0431Z" fill="white"/>
<path d="M120.283 33.5566C115.485 33.5566 112.96 36.2616 112.96 41.1093C112.96 47.7604 117.313 48.831 120.291 48.831C124.65 48.831 127.55 46.483 127.55 41.1697C127.55 35.6394 124.289 33.5566 120.283 33.5566ZM120.222 37.0431C122.332 37.0431 123.168 38.6227 123.168 40.4209V41.9668C123.168 44.1452 121.998 45.405 120.214 45.405C118.546 45.405 117.374 44.2265 117.374 41.9668V40.4209C117.374 38.0109 118.769 37.0431 120.222 37.0431Z" fill="white"/>
<path d="M129.223 48.5354V26.5055L133.666 26.119V40.8848L138.073 33.8488H142.764L138.166 41.1361L142.941 48.5354H138.236L133.666 41.3507V48.5354H129.223Z" fill="white"/>
</g>
<path d="M78.1005 98.66H73.5805L68.4405 107.26V109.48H74.9005V112H78.1005V109.48H79.7205V106.82H78.1005V98.66ZM71.7605 106.82L74.9005 101.38V106.82H71.7605ZM83.0127 112.38C83.5327 112.38 84.0527 112.18 84.4727 111.76C84.8327 111.4 85.0727 110.96 85.0727 110.3C85.0727 109.64 84.8327 109.2 84.4927 108.86C84.0527 108.42 83.5127 108.22 83.0127 108.22C82.5727 108.22 82.0327 108.36 81.5527 108.84C81.2927 109.1 80.9327 109.58 80.9327 110.3C80.9327 111.02 81.2927 111.5 81.5527 111.76C82.0327 112.24 82.5727 112.38 83.0127 112.38ZM94.1473 104.98C94.6673 104.8 95.1873 104.48 95.5073 104.16C95.9673 103.7 96.3273 103.04 96.3273 102.08C96.3273 100.94 95.8473 100.14 95.3473 99.64C94.5673 98.84 93.3473 98.36 91.9073 98.36C90.4473 98.36 89.1673 98.82 88.3473 99.58C87.6873 100.2 87.2473 101.1 87.2473 102.1C87.2473 103.12 87.7273 103.8 88.1473 104.22C88.4473 104.52 88.8873 104.8 89.3473 104.98C88.7673 105.16 88.0873 105.54 87.6673 105.96C87.1073 106.52 86.6873 107.48 86.6873 108.36C86.6873 109.22 87.0673 110.18 87.7873 110.9C88.3073 111.42 89.4873 112.3 91.7673 112.3C94.1473 112.3 95.3473 111.34 95.8073 110.88C96.5073 110.18 96.8873 109.26 96.8873 108.36C96.8873 107.7 96.6873 106.8 95.8673 106C95.4473 105.58 94.8673 105.2 94.1473 104.98ZM91.8273 100.68C92.2073 100.68 92.5073 100.82 92.7873 101.08C93.0873 101.36 93.2473 101.78 93.2473 102.14C93.2473 102.48 93.0873 102.86 92.7873 103.16C92.4673 103.48 92.1073 103.56 91.8073 103.56C91.4473 103.56 91.0473 103.44 90.7473 103.12C90.5073 102.86 90.3273 102.5 90.3273 102.16C90.3273 101.8 90.4673 101.42 90.7273 101.14C90.9673 100.88 91.3273 100.68 91.8273 100.68ZM91.7873 106.38C92.1273 106.38 92.5473 106.5 92.9073 106.84C93.2273 107.14 93.3873 107.5 93.3873 107.94C93.3873 108.4 93.2273 108.76 92.9073 109.08C92.6073 109.38 92.2673 109.54 91.7873 109.54C91.3273 109.54 90.9273 109.34 90.6473 109.06C90.3073 108.72 90.1873 108.3 90.1873 107.94C90.1873 107.56 90.3473 107.16 90.6673 106.84C90.9873 106.54 91.4073 106.38 91.7873 106.38Z" fill="white"/>
<path d="M18.7045 71.432C17.5845 70.578 16.5065 70.508 15.9465 70.508C13.1465 70.508 11.0605 72.58 11.0605 75.366C11.0605 78.068 13.1185 80.168 15.8905 80.168C16.5905 80.168 17.6685 80 18.7045 79.258V77.97C18.5365 78.138 18.1585 78.488 17.6265 78.754C17.1365 79.006 16.5205 79.188 15.8905 79.188C14.1825 79.188 12.1245 77.914 12.1245 75.38C12.1245 73.224 13.7205 71.488 15.8765 71.488C16.4225 71.488 16.9965 71.628 17.4865 71.852C17.9625 72.076 18.4105 72.426 18.7045 72.72V71.432ZM24.4352 78.054C24.3092 78.334 24.0992 78.628 23.8332 78.852C23.4972 79.132 23.1192 79.272 22.6432 79.272C21.6352 79.272 20.8092 78.502 20.7952 77.298H25.3172C25.3452 76.528 25.1352 75.632 24.7712 75.114C24.4212 74.61 23.7072 74.05 22.5732 74.05C20.8232 74.05 19.7592 75.394 19.7592 77.13C19.7592 79.286 21.2292 80.168 22.6292 80.168C23.3712 80.168 24.0292 79.93 24.5612 79.454C24.8552 79.188 25.1072 78.838 25.2752 78.516L24.4352 78.054ZM20.8652 76.458C21.0192 75.59 21.7192 74.946 22.5732 74.946C23.4272 74.946 24.1132 75.548 24.2812 76.458H20.8652ZM27.6315 79.188C28.0655 79.748 28.7235 80.168 29.6615 80.168C31.4255 80.168 32.4475 78.726 32.4475 77.13C32.4475 75.562 31.4395 74.05 29.6195 74.05C29.1995 74.05 28.3175 74.148 27.6315 75.002V74.19H26.6235V83.22H27.6315V79.188ZM29.5215 79.272C28.3315 79.272 27.5755 78.306 27.5755 77.116C27.5755 75.716 28.5695 74.946 29.5075 74.946C30.4455 74.946 31.4115 75.702 31.4115 77.13C31.4115 78.292 30.6975 79.272 29.5215 79.272ZM38.0646 78.054C37.9386 78.334 37.7286 78.628 37.4626 78.852C37.1266 79.132 36.7486 79.272 36.2726 79.272C35.2646 79.272 34.4386 78.502 34.4246 77.298H38.9466C38.9746 76.528 38.7646 75.632 38.4006 75.114C38.0506 74.61 37.3366 74.05 36.2026 74.05C34.4526 74.05 33.3886 75.394 33.3886 77.13C33.3886 79.286 34.8586 80.168 36.2586 80.168C37.0006 80.168 37.6586 79.93 38.1906 79.454C38.4846 79.188 38.7366 78.838 38.9046 78.516L38.0646 78.054ZM34.4946 76.458C34.6486 75.59 35.3486 74.946 36.2026 74.946C37.0566 74.946 37.7426 75.548 37.9106 76.458H34.4946ZM40.6729 74.19V76.78C40.6729 77.368 40.6309 77.914 40.4349 78.32C40.2389 78.726 39.8609 79.062 39.3569 79.076V81.54H40.2809V80H44.7049V81.54H45.6289V79.076H44.7609V74.19H40.6729ZM43.7529 79.076H40.9809C41.5269 78.6 41.6809 77.97 41.6809 77.298V75.114H43.7529V79.076ZM46.4523 80H47.4603V77.494H50.2043V80H51.2123V74.19H50.2043V76.57H47.4603V74.19H46.4523V80ZM52.1985 80H53.4025L55.0545 77.662H55.6705V80H56.6785V74.19H54.6485C54.0745 74.19 53.4445 74.204 52.9405 74.68C52.6185 74.974 52.4225 75.436 52.4225 75.982C52.4225 76.528 52.6465 76.92 52.8845 77.144C53.3045 77.55 53.9345 77.606 54.0045 77.606L52.1985 80ZM55.6705 76.822H54.7185C54.4805 76.822 54.1165 76.836 53.8225 76.654C53.5705 76.5 53.4585 76.262 53.4585 75.954C53.4585 75.576 53.6545 75.352 53.8225 75.24C54.0325 75.114 54.3265 75.086 54.7325 75.086H55.6705V76.822ZM64.0889 80.168C65.8529 80.168 67.1689 78.88 67.1689 77.116C67.1689 75.352 65.8669 74.05 64.0889 74.05C62.3109 74.05 61.0089 75.352 61.0089 77.116C61.0089 78.88 62.3249 80.168 64.0889 80.168ZM64.0889 74.946C65.1529 74.946 66.1329 75.688 66.1329 77.116C66.1329 78.53 65.1389 79.272 64.0889 79.272C63.0529 79.272 62.0449 78.544 62.0449 77.116C62.0449 75.702 63.0249 74.946 64.0889 74.946ZM68.4747 80H73.1227V81.54H74.0467V79.076H73.0947V74.19H72.0867V79.076H69.4827V74.19H68.4747V80ZM74.8656 74.19V80H75.8736V74.19H74.8656ZM74.6556 71.992C74.6556 72.384 74.9776 72.706 75.3696 72.706C75.7616 72.706 76.0836 72.384 76.0836 71.992C76.0836 71.6 75.7616 71.278 75.3696 71.278C74.9776 71.278 74.6556 71.6 74.6556 71.992ZM77.5377 80H78.5457V77.494H81.2897V80H82.2977V74.19H81.2897V76.57H78.5457V74.19H77.5377V80ZM83.9559 74.19V80H84.9639V77.746L85.2719 77.452L87.5399 80H88.8559L86.0279 76.78L88.5479 74.19H87.3159L84.9639 76.57V74.19H83.9559ZM94.0742 75.016C93.8082 74.666 93.2062 74.05 92.0862 74.05C90.6022 74.05 89.2582 75.086 89.2582 77.088C89.2582 79.132 90.6162 80.168 92.0862 80.168C93.1082 80.168 93.7382 79.622 94.0742 79.188V80H95.0822V74.19H94.0742V75.016ZM92.1982 74.946C93.0942 74.946 94.1302 75.604 94.1302 77.102C94.1302 78.25 93.4302 79.272 92.1982 79.272C90.9942 79.272 90.2942 78.334 90.2942 77.088C90.2942 75.674 91.2042 74.946 92.1982 74.946ZM99.7789 74.19V80H102.285C102.747 80 103.307 79.874 103.657 79.608C103.979 79.356 104.259 78.908 104.259 78.292C104.259 77.844 104.119 77.48 103.797 77.172C103.517 76.906 103.237 76.822 103.069 76.78C103.419 76.556 103.699 76.192 103.699 75.618C103.699 75.03 103.405 74.694 103.195 74.526C102.789 74.204 102.285 74.19 101.977 74.19H99.7789ZM100.787 76.556V75.086H101.683C101.991 75.086 102.257 75.072 102.495 75.226C102.649 75.338 102.775 75.506 102.775 75.786C102.775 76.136 102.607 76.304 102.495 76.388C102.271 76.542 101.949 76.556 101.851 76.556H100.787ZM100.787 79.104V77.396H102.075C102.355 77.396 102.733 77.41 102.985 77.606C103.181 77.76 103.279 77.998 103.279 78.264C103.279 78.53 103.125 78.768 102.943 78.908C102.691 79.09 102.313 79.104 102.033 79.104H100.787ZM113.09 70.662H108.834V80H109.87V75.38H112.978V74.4H109.87V71.642H113.09V70.662ZM118.276 75.016C118.01 74.666 117.408 74.05 116.288 74.05C114.804 74.05 113.46 75.086 113.46 77.088C113.46 79.132 114.818 80.168 116.288 80.168C117.31 80.168 117.94 79.622 118.276 79.188V80H119.284V74.19H118.276V75.016ZM116.4 74.946C117.296 74.946 118.332 75.604 118.332 77.102C118.332 78.25 117.632 79.272 116.4 79.272C115.196 79.272 114.496 78.334 114.496 77.088C114.496 75.674 115.406 74.946 116.4 74.946ZM125.504 74.61C125.224 74.414 124.622 74.05 123.698 74.05C121.906 74.05 120.59 75.352 120.59 77.13C120.59 78.88 121.892 80.168 123.698 80.168C124.244 80.168 124.916 80.028 125.546 79.566V78.362C125.014 79.006 124.272 79.272 123.67 79.272C122.634 79.272 121.626 78.53 121.626 77.116C121.626 75.702 122.606 74.946 123.684 74.946C124.202 74.946 124.972 75.142 125.504 75.814V74.61ZM131.164 78.054C131.038 78.334 130.828 78.628 130.562 78.852C130.226 79.132 129.848 79.272 129.372 79.272C128.364 79.272 127.538 78.502 127.524 77.298H132.046C132.074 76.528 131.864 75.632 131.5 75.114C131.15 74.61 130.436 74.05 129.302 74.05C127.552 74.05 126.488 75.394 126.488 77.13C126.488 79.286 127.958 80.168 129.358 80.168C130.1 80.168 130.758 79.93 131.29 79.454C131.584 79.188 131.836 78.838 132.004 78.516L131.164 78.054ZM127.594 76.458C127.748 75.59 128.448 74.946 129.302 74.946C130.156 74.946 130.842 75.548 131.01 76.458H127.594ZM134.361 79.188C134.795 79.748 135.453 80.168 136.391 80.168C138.155 80.168 139.177 78.726 139.177 77.13C139.177 75.562 138.169 74.05 136.349 74.05C135.929 74.05 135.047 74.148 134.361 75.002V69.794H133.353V80H134.361V79.188ZM136.251 79.272C135.061 79.272 134.305 78.306 134.305 77.116C134.305 75.716 135.299 74.946 136.237 74.946C137.175 74.946 138.141 75.702 138.141 77.13C138.141 78.292 137.427 79.272 136.251 79.272ZM143.198 80.168C144.962 80.168 146.278 78.88 146.278 77.116C146.278 75.352 144.976 74.05 143.198 74.05C141.42 74.05 140.118 75.352 140.118 77.116C140.118 78.88 141.434 80.168 143.198 80.168ZM143.198 74.946C144.262 74.946 145.242 75.688 145.242 77.116C145.242 78.53 144.248 79.272 143.198 79.272C142.162 79.272 141.154 78.544 141.154 77.116C141.154 75.702 142.134 74.946 143.198 74.946ZM150.299 80.168C152.063 80.168 153.379 78.88 153.379 77.116C153.379 75.352 152.077 74.05 150.299 74.05C148.521 74.05 147.219 75.352 147.219 77.116C147.219 78.88 148.535 80.168 150.299 80.168ZM150.299 74.946C151.363 74.946 152.343 75.688 152.343 77.116C152.343 78.53 151.349 79.272 150.299 79.272C149.263 79.272 148.255 78.544 148.255 77.116C148.255 75.702 149.235 74.946 150.299 74.946ZM154.685 69.794V80H155.693V77.606L155.945 77.354L158.269 80H159.585L156.645 76.682L159.137 74.19H157.821L155.693 76.346V69.794H154.685Z" fill="white"/>
<defs>
<clipPath id="clip0_128_32703">
<rect width="118" height="23" fill="white" transform="translate(25 26)"/>
</clipPath>
</defs>
</svg>
