<svg width="167" height="130" viewBox="0 0 167 130" fill="none" xmlns="http://www.w3.org/2000/svg">
<rect width="167" height="130" rx="4" fill="#4285F4"/>
<path d="M78.1005 98.66H73.5805L68.4405 107.26V109.48H74.9005V112H78.1005V109.48H79.7205V106.82H78.1005V98.66ZM71.7605 106.82L74.9005 101.38V106.82H71.7605ZM83.0127 112.38C83.5327 112.38 84.0527 112.18 84.4727 111.76C84.8327 111.4 85.0727 110.96 85.0727 110.3C85.0727 109.64 84.8327 109.2 84.4927 108.86C84.0527 108.42 83.5127 108.22 83.0127 108.22C82.5727 108.22 82.0327 108.36 81.5527 108.84C81.2927 109.1 80.9327 109.58 80.9327 110.3C80.9327 111.02 81.2927 111.5 81.5527 111.76C82.0327 112.24 82.5727 112.38 83.0127 112.38ZM91.1273 98.66L88.1473 102.58C87.0873 103.98 86.1673 105.74 86.1673 107.56C86.1673 109 86.7473 110.02 87.3873 110.68C88.1273 111.44 89.4673 112.3 91.7673 112.3C93.0473 112.3 94.7073 112.04 96.0273 110.72C97.0673 109.68 97.4073 108.48 97.4073 107.24C97.4073 106.1 97.0873 105 96.1473 104.06C95.2673 103.18 94.1273 102.78 93.1273 102.78C92.4673 102.78 91.8073 102.96 91.2673 103.2L95.0673 98.66H91.1273ZM91.7073 109.56C91.2673 109.56 90.6473 109.42 90.1273 108.88C89.7473 108.48 89.5473 107.92 89.5473 107.36C89.5473 106.9 89.7873 106.36 90.2073 105.98C90.6073 105.62 91.1873 105.4 91.7073 105.4C92.1073 105.4 92.7073 105.5 93.2473 106.02C93.7273 106.48 93.8673 107 93.8673 107.42C93.8673 108.02 93.6273 108.56 93.2473 108.94C92.9473 109.24 92.4473 109.56 91.7073 109.56Z" fill="white"/>
<path d="M22.652 71.432C21.532 70.578 20.454 70.508 19.894 70.508C17.094 70.508 15.008 72.58 15.008 75.366C15.008 78.068 17.066 80.168 19.838 80.168C20.538 80.168 21.616 80 22.652 79.258V77.97C22.484 78.138 22.106 78.488 21.574 78.754C21.084 79.006 20.468 79.188 19.838 79.188C18.13 79.188 16.072 77.914 16.072 75.38C16.072 73.224 17.668 71.488 19.824 71.488C20.37 71.488 20.944 71.628 21.434 71.852C21.91 72.076 22.358 72.426 22.652 72.72V71.432ZM28.3827 78.054C28.2567 78.334 28.0468 78.628 27.7807 78.852C27.4447 79.132 27.0667 79.272 26.5907 79.272C25.5827 79.272 24.7567 78.502 24.7427 77.298H29.2647C29.2927 76.528 29.0828 75.632 28.7187 75.114C28.3688 74.61 27.6547 74.05 26.5207 74.05C24.7707 74.05 23.7067 75.394 23.7067 77.13C23.7067 79.286 25.1767 80.168 26.5767 80.168C27.3187 80.168 27.9767 79.93 28.5087 79.454C28.8027 79.188 29.0547 78.838 29.2227 78.516L28.3827 78.054ZM24.8127 76.458C24.9667 75.59 25.6667 74.946 26.5207 74.946C27.3747 74.946 28.0607 75.548 28.2287 76.458H24.8127ZM31.579 79.188C32.013 79.748 32.671 80.168 33.609 80.168C35.373 80.168 36.395 78.726 36.395 77.13C36.395 75.562 35.387 74.05 33.567 74.05C33.147 74.05 32.265 74.148 31.579 75.002V74.19H30.571V83.22H31.579V79.188ZM33.469 79.272C32.279 79.272 31.523 78.306 31.523 77.116C31.523 75.716 32.517 74.946 33.455 74.946C34.393 74.946 35.359 75.702 35.359 77.13C35.359 78.292 34.645 79.272 33.469 79.272ZM42.0121 78.054C41.8861 78.334 41.6761 78.628 41.4101 78.852C41.0741 79.132 40.6961 79.272 40.2201 79.272C39.2121 79.272 38.3861 78.502 38.3721 77.298H42.8941C42.9221 76.528 42.7121 75.632 42.3481 75.114C41.9981 74.61 41.2841 74.05 40.1501 74.05C38.4001 74.05 37.3361 75.394 37.3361 77.13C37.3361 79.286 38.8061 80.168 40.2061 80.168C40.9481 80.168 41.6061 79.93 42.1381 79.454C42.4321 79.188 42.6841 78.838 42.8521 78.516L42.0121 78.054ZM38.4421 76.458C38.5961 75.59 39.2961 74.946 40.1501 74.946C41.0041 74.946 41.6901 75.548 41.8581 76.458H38.4421ZM44.6204 74.19V76.78C44.6204 77.368 44.5784 77.914 44.3824 78.32C44.1864 78.726 43.8084 79.062 43.3044 79.076V81.54H44.2284V80H48.6524V81.54H49.5764V79.076H48.7084V74.19H44.6204ZM47.7004 79.076H44.9284C45.4744 78.6 45.6284 77.97 45.6284 77.298V75.114H47.7004V79.076ZM50.3998 80H51.4078V77.494H54.1518V80H55.1598V74.19H54.1518V76.57H51.4078V74.19H50.3998V80ZM56.146 80H57.35L59.002 77.662H59.618V80H60.626V74.19H58.596C58.022 74.19 57.392 74.204 56.888 74.68C56.566 74.974 56.37 75.436 56.37 75.982C56.37 76.528 56.594 76.92 56.832 77.144C57.252 77.55 57.882 77.606 57.952 77.606L56.146 80ZM59.618 76.822H58.666C58.428 76.822 58.064 76.836 57.77 76.654C57.518 76.5 57.406 76.262 57.406 75.954C57.406 75.576 57.602 75.352 57.77 75.24C57.98 75.114 58.274 75.086 58.68 75.086H59.618V76.822ZM68.0364 80.168C69.8004 80.168 71.1164 78.88 71.1164 77.116C71.1164 75.352 69.8144 74.05 68.0364 74.05C66.2584 74.05 64.9564 75.352 64.9564 77.116C64.9564 78.88 66.2724 80.168 68.0364 80.168ZM68.0364 74.946C69.1004 74.946 70.0804 75.688 70.0804 77.116C70.0804 78.53 69.0864 79.272 68.0364 79.272C67.0004 79.272 65.9924 78.544 65.9924 77.116C65.9924 75.702 66.9724 74.946 68.0364 74.946ZM72.4222 80H77.0702V81.54H77.9942V79.076H77.0422V74.19H76.0342V79.076H73.4302V74.19H72.4222V80ZM78.8131 74.19V80H79.8211V74.19H78.8131ZM78.6031 71.992C78.6031 72.384 78.9251 72.706 79.3171 72.706C79.7091 72.706 80.0311 72.384 80.0311 71.992C80.0311 71.6 79.7091 71.278 79.3171 71.278C78.9251 71.278 78.6031 71.6 78.6031 71.992ZM81.4852 80H82.4932V77.494H85.2372V80H86.2452V74.19H85.2372V76.57H82.4932V74.19H81.4852V80ZM87.9034 74.19V80H88.9114V77.746L89.2194 77.452L91.4874 80H92.8034L89.9754 76.78L92.4954 74.19H91.2634L88.9114 76.57V74.19H87.9034ZM98.0217 75.016C97.7557 74.666 97.1537 74.05 96.0337 74.05C94.5497 74.05 93.2057 75.086 93.2057 77.088C93.2057 79.132 94.5637 80.168 96.0337 80.168C97.0557 80.168 97.6857 79.622 98.0217 79.188V80H99.0297V74.19H98.0217V75.016ZM96.1457 74.946C97.0417 74.946 98.0777 75.604 98.0777 77.102C98.0777 78.25 97.3777 79.272 96.1457 79.272C94.9417 79.272 94.2417 78.334 94.2417 77.088C94.2417 75.674 95.1517 74.946 96.1457 74.946ZM103.726 74.19V80H106.232C106.694 80 107.254 79.874 107.604 79.608C107.926 79.356 108.206 78.908 108.206 78.292C108.206 77.844 108.066 77.48 107.744 77.172C107.464 76.906 107.184 76.822 107.016 76.78C107.366 76.556 107.646 76.192 107.646 75.618C107.646 75.03 107.352 74.694 107.142 74.526C106.736 74.204 106.232 74.19 105.924 74.19H103.726ZM104.734 76.556V75.086H105.63C105.938 75.086 106.204 75.072 106.442 75.226C106.596 75.338 106.722 75.506 106.722 75.786C106.722 76.136 106.554 76.304 106.442 76.388C106.218 76.542 105.896 76.556 105.798 76.556H104.734ZM104.734 79.104V77.396H106.022C106.302 77.396 106.68 77.41 106.932 77.606C107.128 77.76 107.226 77.998 107.226 78.264C107.226 78.53 107.072 78.768 106.89 78.908C106.638 79.09 106.26 79.104 105.98 79.104H104.734ZM117.598 76.29H120.37C120.342 76.878 120.16 77.326 119.992 77.62C119.46 78.558 118.382 79.188 117.136 79.188C115.372 79.188 113.342 77.9 113.342 75.352C113.342 73.182 114.91 71.488 117.164 71.488C118.284 71.488 118.984 71.908 119.432 72.272C119.74 72.524 120.048 72.86 120.314 73.238L121.084 72.538C120.818 72.174 120.426 71.754 120.006 71.432C119.096 70.732 118.046 70.508 117.15 70.508C114.364 70.508 112.278 72.622 112.278 75.338C112.278 78.054 114.35 80.168 117.122 80.168C119.264 80.168 120.314 78.866 120.594 78.488C121.182 77.69 121.49 76.57 121.49 75.534V75.31H117.598V76.29ZM125.615 80.168C127.379 80.168 128.695 78.88 128.695 77.116C128.695 75.352 127.393 74.05 125.615 74.05C123.837 74.05 122.535 75.352 122.535 77.116C122.535 78.88 123.851 80.168 125.615 80.168ZM125.615 74.946C126.679 74.946 127.659 75.688 127.659 77.116C127.659 78.53 126.665 79.272 125.615 79.272C124.579 79.272 123.571 78.544 123.571 77.116C123.571 75.702 124.551 74.946 125.615 74.946ZM132.717 80.168C134.481 80.168 135.797 78.88 135.797 77.116C135.797 75.352 134.495 74.05 132.717 74.05C130.939 74.05 129.637 75.352 129.637 77.116C129.637 78.88 130.953 80.168 132.717 80.168ZM132.717 74.946C133.781 74.946 134.761 75.688 134.761 77.116C134.761 78.53 133.767 79.272 132.717 79.272C131.681 79.272 130.673 78.544 130.673 77.116C130.673 75.702 131.653 74.946 132.717 74.946ZM141.555 75.016C141.093 74.414 140.421 74.05 139.567 74.05C138.783 74.05 138.069 74.358 137.579 74.834C137.159 75.254 136.739 75.954 136.739 77.088C136.739 78.264 137.187 78.992 137.579 79.384C138.027 79.832 138.713 80.168 139.567 80.168C140.589 80.168 141.219 79.622 141.555 79.188V80.028C141.555 80.518 141.527 81.036 141.233 81.512C140.897 82.072 140.407 82.324 139.693 82.324C139.245 82.324 138.713 82.226 138.293 81.764C138.041 81.484 137.845 81.05 137.845 80.56H136.851C136.851 81.414 137.215 82.044 137.607 82.436C137.999 82.828 138.685 83.22 139.679 83.22C140.771 83.22 141.569 82.73 142.003 82.142C142.563 81.386 142.563 80.49 142.563 79.86V74.19H141.555V75.016ZM139.679 74.946C140.197 74.946 140.673 75.142 140.995 75.464C141.359 75.814 141.611 76.416 141.611 77.102C141.611 77.788 141.345 78.404 140.953 78.782C140.631 79.104 140.211 79.272 139.679 79.272C139.147 79.272 138.755 79.09 138.433 78.796C137.873 78.278 137.775 77.592 137.775 77.088C137.775 76.612 137.873 75.996 138.363 75.492C138.643 75.212 139.063 74.946 139.679 74.946ZM144.232 69.794V80H145.24V69.794H144.232ZM151.216 78.054C151.09 78.334 150.88 78.628 150.614 78.852C150.278 79.132 149.9 79.272 149.424 79.272C148.416 79.272 147.59 78.502 147.576 77.298H152.098C152.126 76.528 151.916 75.632 151.552 75.114C151.202 74.61 150.488 74.05 149.354 74.05C147.604 74.05 146.54 75.394 146.54 77.13C146.54 79.286 148.01 80.168 149.41 80.168C150.152 80.168 150.81 79.93 151.342 79.454C151.636 79.188 151.888 78.838 152.056 78.516L151.216 78.054ZM147.646 76.458C147.8 75.59 148.5 74.946 149.354 74.946C150.208 74.946 150.894 75.548 151.062 76.458H147.646Z" fill="white"/>
<g clip-path="url(#clip0_128_32702)">
<path d="M79.5807 38.0571C79.5807 41.3206 77.0277 43.7254 73.8946 43.7254C70.7615 43.7254 68.2085 41.3206 68.2085 38.0571C68.2085 34.7707 70.7615 32.3889 73.8946 32.3889C77.0277 32.3889 79.5807 34.7707 79.5807 38.0571ZM77.0916 38.0571C77.0916 36.0178 75.6119 34.6225 73.8946 34.6225C72.1773 34.6225 70.6976 36.0178 70.6976 38.0571C70.6976 40.076 72.1773 41.4918 73.8946 41.4918C75.6119 41.4918 77.0916 40.0735 77.0916 38.0571Z" fill="white"/>
<path d="M91.8473 38.0571C91.8473 41.3206 89.2943 43.7254 86.1612 43.7254C83.0281 43.7254 80.4751 41.3206 80.4751 38.0571C80.4751 34.7732 83.0281 32.3889 86.1612 32.3889C89.2943 32.3889 91.8473 34.7707 91.8473 38.0571ZM89.3582 38.0571C89.3582 36.0178 87.8785 34.6225 86.1612 34.6225C84.4439 34.6225 82.9642 36.0178 82.9642 38.0571C82.9642 40.076 84.4439 41.4918 86.1612 41.4918C87.8785 41.4918 89.3582 40.0735 89.3582 38.0571Z" fill="white"/>
<path d="M103.603 32.7314V42.9076C103.603 47.0936 101.134 48.8032 98.2157 48.8032C95.4685 48.8032 93.815 46.9658 93.1915 45.4631L95.3586 44.561C95.7445 45.4836 96.69 46.5722 98.2131 46.5722C100.081 46.5722 101.239 45.4197 101.239 43.25V42.4348H101.152C100.595 43.1222 99.5216 43.7228 98.1671 43.7228C95.333 43.7228 92.7366 41.2541 92.7366 38.0776C92.7366 34.878 95.333 32.3889 98.1671 32.3889C99.519 32.3889 100.592 32.9895 101.152 33.6565H101.239V32.7339H103.603V32.7314ZM101.415 38.0776C101.415 36.0817 100.084 34.6225 98.3895 34.6225C96.6721 34.6225 95.2334 36.0817 95.2334 38.0776C95.2334 40.053 96.6721 41.4918 98.3895 41.4918C100.084 41.4918 101.415 40.053 101.415 38.0776Z" fill="white"/>
<path d="M107.5 26.7667V43.3778H105.072V26.7667H107.5Z" fill="white"/>
<path d="M116.961 39.9227L118.893 41.2107C118.269 42.1332 116.766 43.7228 114.17 43.7228C110.95 43.7228 108.545 41.2337 108.545 38.0546C108.545 34.6838 110.97 32.3864 113.891 32.3864C116.833 32.3864 118.272 34.7272 118.742 35.9922L119 36.6362L111.423 39.7745C112.003 40.9117 112.905 41.4918 114.17 41.4918C115.438 41.4918 116.317 40.8682 116.961 39.9227ZM111.014 37.8834L116.079 35.7801C115.8 35.0722 114.962 34.579 113.976 34.579C112.711 34.579 110.95 35.6958 111.014 37.8834Z" fill="white"/>
<path d="M59.0186 36.5826V34.1778H67.1223C67.2015 34.5969 67.2424 35.0927 67.2424 35.6293C67.2424 37.4336 66.7492 39.6646 65.1596 41.2541C63.6135 42.8641 61.638 43.7228 59.0212 43.7228C54.1707 43.7228 50.092 39.7719 50.092 34.9215C50.092 30.071 54.1707 26.1201 59.0212 26.1201C61.7045 26.1201 63.616 27.173 65.0523 28.5453L63.3554 30.2422C62.3255 29.2762 60.9302 28.5249 59.0186 28.5249C55.4766 28.5249 52.7064 31.3795 52.7064 34.9215C52.7064 38.4635 55.4766 41.318 59.0186 41.318C61.316 41.318 62.6245 40.3955 63.4627 39.5572C64.1425 38.8775 64.5897 37.9063 64.766 36.58L59.0186 36.5826Z" fill="white"/>
</g>
<defs>
<clipPath id="clip0_128_32702">
<rect width="69" height="23" fill="white" transform="translate(50 26)"/>
</clipPath>
</defs>
</svg>
