<svg width="30" height="30" viewBox="0 0 30 30" fill="none" xmlns="http://www.w3.org/2000/svg">
<path d="M28.0782 23.7328L27.2007 21.1003C27.0293 20.5859 26.7423 20.1177 26.3618 19.7315C25.9812 19.3453 25.5173 19.0515 25.0055 18.8726C24.4937 18.6936 23.9477 18.6344 23.4095 18.6993C22.8712 18.7643 22.355 18.9517 21.9005 19.2473L10.7527 8.10089C11.1958 7.41918 11.3913 6.60601 11.3067 5.79739C11.2221 4.98876 10.8623 4.23371 10.2877 3.65854C9.89784 3.26879 9.42266 2.97511 8.89971 2.80073L6.26721 1.92182C6.10203 1.86673 5.92476 1.85872 5.75528 1.89871C5.58581 1.9387 5.43081 2.0251 5.30768 2.14823L5.05456 2.40135L7.70628 5.05307C7.88203 5.22888 7.98076 5.46729 7.98076 5.71589C7.98076 5.96448 7.88203 6.20289 7.70628 6.3787L6.38018 7.7062C6.20437 7.88195 5.96596 7.98069 5.71737 7.98069C5.46878 7.98069 5.23036 7.88195 5.05456 7.7062L2.40284 5.05448L2.14971 5.3076C2.02634 5.43059 1.93968 5.58551 1.89944 5.75499C1.8592 5.92448 1.86698 6.10182 1.9219 6.26714L2.7994 8.89964C2.97077 9.414 3.25774 9.88224 3.63827 10.2684C4.01881 10.6546 4.48278 10.9484 4.99456 11.1273C5.50634 11.3063 6.05233 11.3655 6.59058 11.3006C7.12883 11.2356 7.64504 11.0481 8.09956 10.7526L19.2474 21.899C18.8043 22.5807 18.6087 23.3939 18.6934 24.2025C18.778 25.0111 19.1377 25.7662 19.7124 26.3414C20.1022 26.7311 20.5774 27.0248 21.1003 27.1992L23.7328 28.0781C23.898 28.1332 24.0753 28.1412 24.2448 28.1012C24.4142 28.0612 24.5692 27.9748 24.6924 27.8517L24.9455 27.5985L22.2938 24.9454C22.118 24.7696 22.0193 24.5312 22.0193 24.2826C22.0193 24.034 22.118 23.7956 22.2938 23.6198L23.6199 22.2937C23.7957 22.1179 24.0341 22.0192 24.2827 22.0192C24.5313 22.0192 24.7697 22.1179 24.9455 22.2937L27.5972 24.9454L27.8503 24.6923C27.9737 24.5693 28.0604 24.4144 28.1006 24.2449C28.1409 24.0754 28.1331 23.8981 28.0782 23.7328Z" fill="url(#paint0_linear_92_767)"/>
<path d="M13.6711 11.0231C12.939 10.291 11.752 10.291 11.0198 11.0231C10.2877 11.7553 10.2877 12.9423 11.0198 13.6744L16.3223 18.9769C17.0545 19.709 18.2415 19.709 18.9736 18.9769C19.7057 18.2448 19.7057 17.0578 18.9736 16.3256L13.6711 11.0231Z" fill="url(#paint1_linear_92_767)"/>
<path d="M25.1969 2.14731L27.8482 4.79856C28.024 4.97435 28.1227 5.21277 28.1227 5.46137C28.1227 5.70998 28.024 5.9484 27.8482 6.12418L21.2201 12.7523L17.2432 8.77543L23.8713 2.14731C24.0471 1.97152 24.2855 1.87276 24.5341 1.87276C24.7827 1.87276 25.0211 1.97152 25.1969 2.14731Z" fill="url(#paint2_linear_92_767)"/>
<path d="M19.2323 13.4189L20.5584 12.0932L17.9067 9.44153L16.5811 10.7676L15.9178 10.1043L15.255 10.7676L19.2323 14.745L19.8956 14.0822L19.2323 13.4189Z" fill="url(#paint3_linear_92_767)"/>
<path d="M6.63703 24.6886L17.9067 13.4189L16.5811 12.0933L5.31141 23.3629L3.91312 23.2903L1.875 26.25L3.75 28.125L6.68859 26.0658L6.63703 24.6886Z" fill="url(#paint4_linear_92_767)"/>
<path d="M26.5226 6.12399L27.1854 6.78681L21.2201 12.7521L19.8944 11.4265L25.1969 6.12399C25.3727 5.94821 25.6111 5.84945 25.8597 5.84945C26.1083 5.84945 26.3468 5.94821 26.5226 6.12399Z" fill="url(#paint5_linear_92_767)"/>
<path d="M23.208 2.80994L23.8708 3.47275C24.0466 3.64854 24.1454 3.88696 24.1454 4.13556C24.1454 4.38416 24.0466 4.62259 23.8708 4.79837L18.5683 10.1009L17.2427 8.77525L23.208 2.80994Z" fill="url(#paint6_linear_92_767)"/>
<defs>
<linearGradient id="paint0_linear_92_767" x1="11.6855" y1="18.3145" x2="18.3146" y2="11.6854" gradientUnits="userSpaceOnUse">
<stop stop-color="#617093"/>
<stop offset="1" stop-color="#3D4860"/>
</linearGradient>
<linearGradient id="paint1_linear_92_767" x1="13.6692" y1="16.3229" x2="16.3196" y2="13.6725" gradientUnits="userSpaceOnUse">
<stop stop-color="#FFCE62"/>
<stop offset="1" stop-color="#F4A519"/>
</linearGradient>
<linearGradient id="paint2_linear_92_767" x1="19.2283" y1="10.7625" x2="26.5184" y2="3.4724" gradientUnits="userSpaceOnUse">
<stop stop-color="#F95555"/>
<stop offset="1" stop-color="#D81D1D"/>
</linearGradient>
<linearGradient id="paint3_linear_92_767" x1="17.2439" y1="12.7561" x2="19.2323" y2="10.7676" gradientUnits="userSpaceOnUse">
<stop stop-color="#617093"/>
<stop offset="1" stop-color="#3D4860"/>
</linearGradient>
<linearGradient id="paint4_linear_92_767" x1="2.80219" y1="27.1772" x2="17.2331" y2="12.7458" gradientUnits="userSpaceOnUse">
<stop stop-color="#769BD3"/>
<stop offset="1" stop-color="#E3F2FD"/>
</linearGradient>
<linearGradient id="paint5_linear_92_767" x1="20.554" y1="12.0876" x2="26.5184" y2="6.12313" gradientUnits="userSpaceOnUse">
<stop stop-color="#FFCE62"/>
<stop offset="1" stop-color="#F4A519"/>
</linearGradient>
<linearGradient id="paint6_linear_92_767" x1="17.9026" y1="9.43667" x2="23.867" y2="3.47222" gradientUnits="userSpaceOnUse">
<stop stop-color="#FFCE62"/>
<stop offset="1" stop-color="#F4A519"/>
</linearGradient>
</defs>
</svg>
