<svg width="30" height="30" viewBox="0 0 30 30" fill="none" xmlns="http://www.w3.org/2000/svg">
<path d="M25.3125 4.6875C25.3125 2.61643 23.6336 0.9375 21.5625 0.9375C19.4914 0.9375 17.8125 2.61643 17.8125 4.6875V25.3125C17.8125 27.3836 19.4914 29.0625 21.5625 29.0625C23.6336 29.0625 25.3125 27.3836 25.3125 25.3125V4.6875Z" fill="#43525B"/>
<path d="M21.5625 0.9375C20.5679 0.9375 19.6141 1.33259 18.9109 2.03585C18.2076 2.73911 17.8125 3.69294 17.8125 4.6875V25.3125C17.8132 25.7639 17.8958 26.2115 18.0563 26.6334C18.5885 27.1362 19.2564 27.472 19.9775 27.5993C20.6985 27.7266 21.441 27.6398 22.1133 27.3496C22.7855 27.0595 23.358 26.5787 23.76 25.9668C24.1619 25.3548 24.3758 24.6384 24.375 23.9062V3.28125C24.3743 2.82982 24.2917 2.38227 24.1312 1.96031C23.4374 1.30325 22.5181 0.937195 21.5625 0.9375Z" fill="#576870"/>
<path d="M17.8125 25.3125C17.8125 26.3071 18.2076 27.2609 18.9109 27.9641C19.6141 28.6674 20.5679 29.0625 21.5625 29.0625C22.5571 29.0625 23.5109 28.6674 24.2141 27.9641C24.9174 27.2609 25.3125 26.3071 25.3125 25.3125V21.5625H17.8125V25.3125Z" fill="#93A0A5"/>
<path d="M21.5625 0.9375C20.5679 0.9375 19.6141 1.33259 18.9109 2.03585C18.2076 2.73911 17.8125 3.69294 17.8125 4.6875V8.4375H25.3125V4.6875C25.3125 3.69294 24.9174 2.73911 24.2141 2.03585C23.5109 1.33259 22.5571 0.9375 21.5625 0.9375Z" fill="#93A0A5"/>
<path d="M17.8125 4.68759V8.43759H24.375V3.28134C24.3743 2.82992 24.2917 2.38236 24.1313 1.9604C23.599 1.45762 22.9311 1.12184 22.21 0.994548C21.489 0.86726 20.7465 0.95405 20.0742 1.24419C19.402 1.53433 18.8295 2.0151 18.4275 2.62708C18.0256 3.23906 17.8118 3.95541 17.8125 4.68759Z" fill="#A9B3B7"/>
<path d="M21.5625 26.7188C22.0803 26.7188 22.5 26.299 22.5 25.7812C22.5 25.2635 22.0803 24.8438 21.5625 24.8438C21.0447 24.8438 20.625 25.2635 20.625 25.7812C20.625 26.299 21.0447 26.7188 21.5625 26.7188Z" fill="#334047"/>
<path d="M21.5625 5.15625C22.0803 5.15625 22.5 4.73652 22.5 4.21875C22.5 3.70098 22.0803 3.28125 21.5625 3.28125C21.0447 3.28125 20.625 3.70098 20.625 4.21875C20.625 4.73652 21.0447 5.15625 21.5625 5.15625Z" fill="#334047"/>
<path d="M4.6875 25.3125C4.68824 25.7639 4.77082 26.2115 4.93125 26.6334C5.46351 27.1362 6.13144 27.472 6.85247 27.5993C7.5735 27.7266 8.31603 27.6398 8.98827 27.3497C9.66052 27.0595 10.233 26.5787 10.635 25.9668C11.0369 25.3548 11.2508 24.6384 11.25 23.9062V21.5625H4.6875V25.3125Z" fill="#A9B3B7"/>
<path d="M12.1875 4.6875C12.1875 2.61643 10.5086 0.9375 8.4375 0.9375C6.36643 0.9375 4.6875 2.61643 4.6875 4.6875V25.3125C4.6875 27.3836 6.36643 29.0625 8.4375 29.0625C10.5086 29.0625 12.1875 27.3836 12.1875 25.3125V4.6875Z" fill="#43525B"/>
<path d="M8.4375 0.9375C7.44294 0.9375 6.48911 1.33259 5.78585 2.03585C5.08259 2.73911 4.6875 3.69294 4.6875 4.6875V25.3125C4.68824 25.7639 4.77082 26.2115 4.93125 26.6334C5.46351 27.1362 6.13144 27.472 6.85247 27.5993C7.5735 27.7266 8.31603 27.6398 8.98827 27.3496C9.66052 27.0595 10.233 26.5787 10.635 25.9668C11.0369 25.3548 11.2508 24.6384 11.25 23.9062V3.28125C11.2493 2.82982 11.1667 2.38227 11.0062 1.96031C10.3124 1.30325 9.39308 0.937195 8.4375 0.9375Z" fill="#576870"/>
<path d="M4.6875 25.3125C4.6875 26.3071 5.08259 27.2609 5.78585 27.9641C6.48911 28.6674 7.44294 29.0625 8.4375 29.0625C9.43206 29.0625 10.3859 28.6674 11.0892 27.9641C11.7924 27.2609 12.1875 26.3071 12.1875 25.3125V21.5625H4.6875V25.3125Z" fill="#93A0A5"/>
<path d="M8.4375 0.9375C7.44294 0.9375 6.48911 1.33259 5.78585 2.03585C5.08259 2.73911 4.6875 3.69294 4.6875 4.6875V8.4375H12.1875V4.6875C12.1875 3.69294 11.7924 2.73911 11.0892 2.03585C10.3859 1.33259 9.43206 0.9375 8.4375 0.9375Z" fill="#93A0A5"/>
<path d="M4.6875 4.68759V8.43759H11.25V3.28134C11.2493 2.82992 11.1667 2.38236 11.0063 1.9604C10.474 1.45762 9.80606 1.12184 9.08503 0.994548C8.364 0.86726 7.62147 0.95405 6.94923 1.24419C6.27699 1.53433 5.7045 2.0151 5.30254 2.62708C4.90057 3.23906 4.68675 3.95541 4.6875 4.68759Z" fill="#A9B3B7"/>
<path d="M8.4375 26.7188C8.95527 26.7188 9.375 26.299 9.375 25.7812C9.375 25.2635 8.95527 24.8438 8.4375 24.8438C7.91973 24.8438 7.5 25.2635 7.5 25.7812C7.5 26.299 7.91973 26.7188 8.4375 26.7188Z" fill="#334047"/>
<path d="M8.4375 5.15625C8.95527 5.15625 9.375 4.73652 9.375 4.21875C9.375 3.70098 8.95527 3.28125 8.4375 3.28125C7.91973 3.28125 7.5 3.70098 7.5 4.21875C7.5 4.73652 7.91973 5.15625 8.4375 5.15625Z" fill="#334047"/>
<path d="M7.5 10.3125H22.5V19.6875H7.5V10.3125Z" fill="#A9B3B7"/>
<path d="M8.4375 10.3125H22.5V18.75H8.4375V10.3125Z" fill="#C0CBCE"/>
<path d="M19.2188 16.875V13.125H10.7812V10.3125H7.5V19.6875H10.7812V16.875H19.2188Z" fill="#76868C"/>
<path d="M10.7812 18.75V16.875H19.2188V13.125H10.7812V10.3125H8.4375V18.75H10.7812Z" fill="#93A0A5"/>
<path d="M15.4688 16.875H16.4062V19.6875H15.4688V16.875Z" fill="#A9B3B7"/>
<path d="M15.4688 10.3125H16.4062V13.125H15.4688V10.3125Z" fill="#A9B3B7"/>
<path d="M13.125 13.125H14.0625V16.875H13.125V13.125Z" fill="#76868C"/>
</svg>
