<svg width="30" height="30" viewBox="0 0 30 30" fill="none" xmlns="http://www.w3.org/2000/svg">
<g clip-path="url(#clip0_117_10234)">
<path d="M29.1908 4.54395V25.4551C29.1908 27.8189 27.2744 29.7353 24.9106 29.7353H5.08936C2.72551 29.7353 0.809082 27.8189 0.809082 25.4551V4.54395C0.809082 2.18016 2.72551 0.263672 5.08936 0.263672H24.9106C27.2744 0.263672 29.1908 2.18016 29.1908 4.54395Z" fill="#CCE0F1"/>
<path opacity="0.1" d="M6.40372 29.7363H5.08999C2.72603 29.7363 0.810303 27.8175 0.810303 25.4566V4.54428C0.810303 2.18031 2.72597 0.264648 5.08999 0.264648H6.40366C4.0397 0.264648 2.12397 2.18025 2.12397 4.54428V25.4566C2.12403 27.8174 4.03964 29.7363 6.40372 29.7363Z" fill="black"/>
<path d="M7.58813 10.9463C9.72647 10.9463 11.4599 9.2128 11.4599 7.07445C11.4599 4.93611 9.72647 3.20264 7.58813 3.20264C5.44978 3.20264 3.71631 4.93611 3.71631 7.07445C3.71631 9.2128 5.44978 10.9463 7.58813 10.9463Z" fill="#36474F"/>
<path d="M23.4254 10.4301C25.278 8.57752 25.278 5.57384 23.4254 3.72123C21.5728 1.86862 18.5691 1.86862 16.7165 3.72123C14.8639 5.57384 14.8639 8.57752 16.7165 10.4301C18.5691 12.2827 21.5728 12.2827 23.4254 10.4301Z" fill="#36474F"/>
<path d="M25.1462 19.8895C26.658 18.3777 26.658 15.9265 25.1462 14.4147C23.6344 12.9029 21.1833 12.9029 19.6715 14.4147C18.1596 15.9265 18.1596 18.3777 19.6715 19.8895C21.1833 21.4013 23.6344 21.4013 25.1462 19.8895Z" fill="#36474F"/>
<path d="M13.2787 20.5056C15.1313 18.653 15.1313 15.6493 13.2787 13.7967C11.4261 11.9441 8.4224 11.9441 6.56978 13.7967C4.71717 15.6493 4.71717 18.653 6.56978 20.5056C8.4224 22.3582 11.4261 22.3582 13.2787 20.5056Z" fill="#36474F"/>
<path d="M19.412 24.5691V26.8187C19.412 27.2882 19.028 27.669 18.5584 27.669H11.4416C10.9721 27.669 10.5913 27.2882 10.5913 26.8187V24.5691C10.5913 24.0995 10.9721 23.7188 11.4416 23.7188H18.5585C19.0281 23.7187 19.412 24.0994 19.412 24.5691Z" fill="white"/>
<path d="M8.13529 25.9391C8.13529 26.8951 7.36115 27.6692 6.4052 27.6692C5.44918 27.6692 4.67041 26.8951 4.67041 25.9391C4.67041 24.9784 5.44924 24.2043 6.4052 24.2043C7.36121 24.2043 8.13529 24.9784 8.13529 25.9391Z" fill="#D81A60"/>
<path d="M25.3294 25.9391C25.3294 26.8951 24.5552 27.6692 23.5993 27.6692C22.6433 27.6692 21.8645 26.8951 21.8645 25.9391C21.8645 24.9784 22.6433 24.2043 23.5993 24.2043C24.5552 24.2043 25.3294 24.9784 25.3294 25.9391Z" fill="#D81A60"/>
<path d="M6.40527 27.9826C6.23195 27.9826 6.0918 27.8422 6.0918 27.6691V26.4077C6.0918 26.2346 6.23207 26.0942 6.40527 26.0942C6.57859 26.0942 6.71875 26.2346 6.71875 26.4077V27.6691C6.71887 27.8423 6.57859 27.9826 6.40527 27.9826Z" fill="white"/>
<path d="M23.5991 27.9826C23.4258 27.9826 23.2856 27.8422 23.2856 27.6691V26.4077C23.2856 26.2346 23.4259 26.0942 23.5991 26.0942C23.7724 26.0942 23.9126 26.2346 23.9126 26.4077V27.6691C23.9126 27.8423 23.7724 27.9826 23.5991 27.9826Z" fill="white"/>
</g>
<defs>
<clipPath id="clip0_117_10234">
<rect width="30" height="30" fill="white"/>
</clipPath>
</defs>
</svg>
