<svg width="52" height="50" viewBox="0 0 52 50" fill="none" xmlns="http://www.w3.org/2000/svg">
<g clip-path="url(#clip0_44_982)">
<path d="M49.4905 23.9131H1.59647C0.714818 23.9131 0 24.643 0 25.5435V30.4348C0 31.3352 0.714818 32.0652 1.59647 32.0652H49.4905C50.3722 32.0652 51.087 31.3352 51.087 30.4348V25.5435C51.087 24.643 50.3722 23.9131 49.4905 23.9131ZM32.7276 29.6196H18.3594V26.3587H32.7276V29.6196Z" fill="#346AE5"/>
<path d="M34.2974 9.78183V1.5942C34.2974 0.713705 33.5848 0 32.7057 0H18.3812C17.5021 0 16.7896 0.713705 16.7896 1.5942V9.78183C16.7896 10.6609 16.4272 11.5011 15.7881 12.1036L3.26086 23.913H47.8261L35.299 12.1036C34.6597 11.5011 34.2974 10.6609 34.2974 9.78183Z" fill="#B1C3D0"/>
<path d="M19.6834 37.2036C19.3291 36.949 18.835 37.0277 18.5795 37.3778C18.3231 37.7279 18.4019 38.2172 18.7554 38.471C19.5644 39.052 20.0099 39.7996 20.0099 40.5771C20.0099 41.3545 19.5644 42.1022 18.7554 42.6831C17.5249 43.5661 16.8478 44.764 16.8478 46.0567C16.8478 47.3494 17.5249 48.5473 18.7554 49.4303C18.896 49.5312 19.0581 49.5793 19.2187 49.5793C19.4635 49.5793 19.7051 49.467 19.8594 49.2559C20.1157 48.9058 20.037 48.4166 19.6834 48.1627C18.8743 47.5818 18.4289 46.8341 18.4289 46.0567C18.4289 45.2793 18.8743 44.5316 19.6833 43.9507C20.9139 43.0677 21.5909 41.8698 21.5909 40.5771C21.5909 39.2844 20.9139 38.0865 19.6834 37.2036Z" fill="#D0D7DA"/>
<path d="M26.0074 37.2035C25.6523 36.9489 25.159 37.0276 24.9035 37.3777C24.6471 37.7279 24.7259 38.2171 25.0794 38.4709C25.8885 39.0519 26.334 39.7995 26.334 40.577C26.334 41.3544 25.8885 42.1021 25.0795 42.683C23.849 43.566 23.1719 44.7639 23.1719 46.0566C23.1719 47.3493 23.849 48.5472 25.0795 49.4302C25.2201 49.5311 25.3822 49.5792 25.5428 49.5792C25.7875 49.5792 26.0291 49.4669 26.1835 49.2558C26.4398 48.9057 26.3611 48.4165 26.0075 48.1626C25.1984 47.5817 24.753 46.834 24.753 46.0566C24.753 45.2792 25.1984 44.5315 26.0074 43.9506C27.238 43.0676 27.915 41.8697 27.915 40.577C27.915 39.2843 27.238 38.0864 26.0074 37.2035Z" fill="#D0D7DA"/>
<path d="M32.3315 43.9506C33.5621 43.0676 34.2391 41.8697 34.2391 40.577C34.2391 39.2843 33.562 38.0864 32.3315 37.2034C31.9764 36.9488 31.4823 37.0275 31.2276 37.3777C30.9712 37.7278 31.05 38.217 31.4035 38.4708C32.2126 39.0519 32.6581 39.7996 32.6581 40.577C32.6581 41.3544 32.2126 42.1021 31.4036 42.683C30.1731 43.566 29.496 44.7639 29.496 46.0566C29.496 47.3493 30.1731 48.5472 31.4036 49.4302C31.5442 49.5311 31.7063 49.5792 31.8669 49.5792C32.1116 49.5792 32.3532 49.4669 32.5076 49.2558C32.7639 48.9057 32.6852 48.4165 32.3316 48.1626C31.5225 47.5817 31.0771 46.834 31.0771 46.0566C31.0771 45.2792 31.5225 44.5315 32.3315 43.9506Z" fill="#D0D7DA"/>
<path d="M4.8913 29.5652C4.13243 29.5652 3.50023 29.0101 3.31844 28.2609C3.28461 28.4006 3.26086 28.5446 3.26086 28.6956C3.26086 29.657 3.99089 30.4348 4.8913 30.4348C5.79171 30.4348 6.52173 29.657 6.52173 28.6956C6.52173 28.5446 6.49799 28.4006 6.46416 28.2609C6.28237 29.0101 5.65016 29.5652 4.8913 29.5652Z" fill="#3F556B"/>
<path d="M6.52173 28.2609C6.52173 29.1621 5.79171 29.8913 4.8913 29.8913C3.99089 29.8913 3.26086 29.1621 3.26086 28.2609C3.26086 27.3597 3.99089 26.6304 4.8913 26.6304C5.79171 26.6304 6.52173 27.3597 6.52173 28.2609Z" fill="#B1C3D0"/>
<path d="M9.7826 29.5652C9.02373 29.5652 8.39153 29.0101 8.20974 28.2609C8.1759 28.4006 8.15216 28.5446 8.15216 28.6956C8.15216 29.657 8.88219 30.4348 9.7826 30.4348C10.683 30.4348 11.413 29.657 11.413 28.6956C11.413 28.5446 11.3893 28.4006 11.3555 28.2609C11.1737 29.0101 10.5415 29.5652 9.7826 29.5652Z" fill="#3F556B"/>
<path d="M11.413 28.2609C11.413 29.1621 10.683 29.8913 9.7826 29.8913C8.88219 29.8913 8.15216 29.1621 8.15216 28.2609C8.15216 27.3597 8.88219 26.6304 9.7826 26.6304C10.683 26.6304 11.413 27.3597 11.413 28.2609Z" fill="#B1C3D0"/>
<path d="M33.1522 26.6304H18.4783V29.3478H33.1522V26.6304Z" fill="#3CB44A"/>
<path d="M34.2974 9.78183V1.5942C34.2974 0.713705 33.5848 0 32.7057 0H31.1141V10.4068C31.1141 10.9018 31.2292 11.3899 31.4502 11.8327L34.9572 18.8581C35.7509 20.4481 34.5966 22.3188 32.8218 22.3188H4.95196L3.26086 23.913H37.4806H39.868H47.8261L35.299 12.1036C34.6597 11.5011 34.2974 10.6609 34.2974 9.78183Z" fill="#8EADBE"/>
<path d="M49.4916 32.0652C50.3727 32.0652 51.087 31.3353 51.087 30.4348V25.5435C50.6464 25.5435 50.2893 25.9085 50.2893 26.3587V29.6196C50.2893 30.5201 49.575 31.25 48.6939 31.25H2.42812C1.9876 31.25 1.63043 31.615 1.63043 32.0652H49.4916Z" fill="#3F556B"/>
<path d="M33.1522 26.6304H18.4783V27.7174H33.1522V26.6304Z" fill="#0E9247"/>
</g>
<defs>
<clipPath id="clip0_44_982">
<rect width="51.087" height="50" fill="white"/>
</clipPath>
</defs>
</svg>
