<svg width="30" height="30" viewBox="0 0 30 30" fill="none" xmlns="http://www.w3.org/2000/svg">
<path d="M22.931 8.04785L22.3183 21.3471H22.3169C22.3169 23.754 20.9785 25.0924 18.5715 25.0924C16.1645 25.0924 14.8261 23.754 14.8261 21.3471L14.8261 14.2054C14.8261 11.7984 12.2622 9.23455 9.85532 9.23455C7.44841 9.23455 4.88452 11.7984 4.88452 14.2054C4.88452 14.2054 5.49724 25.6672 5.49724 30.0001H7.07628V14.2054C7.07628 12.6729 8.32298 11.4263 9.85538 11.4263C11.3878 11.4263 12.6345 12.6729 12.6345 14.2054V21.347C12.6345 24.6207 15.2979 27.2841 18.5716 27.2841C21.8454 27.2841 24.5087 24.6207 24.5087 21.347V8.04785H22.931Z" fill="#FF8E00"/>
<path d="M9.85546 9.84727C12.2624 9.84727 14.2135 11.7984 14.2135 14.2054H14.2135V21.347H14.2135C14.2135 23.7539 16.1647 25.7051 18.5716 25.7051C20.9785 25.7051 22.9297 23.7539 22.9297 21.347H22.9312V8.04785H21.3507V21.347C21.3507 22.8794 20.104 24.1261 18.5716 24.1261C17.0392 24.1261 15.7925 22.8794 15.7925 21.347V14.2054C15.7925 10.9317 13.1291 8.26828 9.85534 8.26828C6.58159 8.26828 3.91821 10.9317 3.91821 14.2054V30.0001H5.4972C5.4972 25.6673 5.4972 14.2054 5.4972 14.2054C5.49731 11.7985 7.44855 9.84727 9.85546 9.84727Z" fill="#FFBA00"/>
<path d="M24.2185 0H22.9298L21.7043 8.04779H25.0788L24.2185 0Z" fill="#B4B4B4"/>
<path d="M21.641 0L20.7808 8.04779H22.9297V0H21.641Z" fill="#E0E0E0"/>
<path d="M26.0819 7.12939H22.9298L21.7043 8.04779L22.9298 8.96613H26.0819V7.12939Z" fill="#707070"/>
<path d="M22.9292 7.12964H19.7773V8.96638H22.9292V7.12964Z" fill="#B4B4B4"/>
</svg>
