<svg width="50" height="50" viewBox="0 0 50 50" fill="none" xmlns="http://www.w3.org/2000/svg">
<g clip-path="url(#clip0_93_1517)">
<path d="M25 50C38.8071 50 50 38.8071 50 25C50 11.1929 38.8071 0 25 0C11.1929 0 0 11.1929 0 25C0 38.8071 11.1929 50 25 50Z" fill="#E7ECED"/>
<path d="M25 3.44828C36.8836 3.44828 46.5517 13.1164 46.5517 25C46.5517 36.8836 36.8836 46.5517 25 46.5517C13.1164 46.5517 3.44828 36.8836 3.44828 25C3.44828 13.1164 13.1164 3.44828 25 3.44828ZM25 0C11.1931 0 0 11.1931 0 25C0 38.8069 11.1931 50 25 50C38.8069 50 50 38.8069 50 25C50 11.1931 38.8069 0 25 0Z" fill="#424A60"/>
<path d="M25 5.06812C24.5241 5.06812 24.1379 5.45346 24.1379 5.93018V6.79225C24.1379 7.26898 24.5241 7.65432 25 7.65432C25.4759 7.65432 25.8621 7.26898 25.8621 6.79225V5.93018C25.8621 5.45346 25.4759 5.06812 25 5.06812Z" fill="#7383BF"/>
<path d="M25 42.1371C24.5241 42.1371 24.1379 42.5224 24.1379 42.9992V43.8612C24.1379 44.3379 24.5241 44.7233 25 44.7233C25.4759 44.7233 25.8621 44.3379 25.8621 43.8612V42.9992C25.8621 42.5224 25.4759 42.1371 25 42.1371Z" fill="#7383BF"/>
<path d="M43.9655 24.0337H43.1035C42.6276 24.0337 42.2414 24.419 42.2414 24.8958C42.2414 25.3725 42.6276 25.7578 43.1035 25.7578H43.9655C44.4414 25.7578 44.8276 25.3725 44.8276 24.8958C44.8276 24.419 44.4414 24.0337 43.9655 24.0337Z" fill="#7383BF"/>
<path d="M6.89656 24.0337H6.03449C5.55863 24.0337 5.17242 24.419 5.17242 24.8958C5.17242 25.3725 5.55863 25.7578 6.03449 25.7578H6.89656C7.37242 25.7578 7.75863 25.3725 7.75863 24.8958C7.75863 24.419 7.37242 24.0337 6.89656 24.0337Z" fill="#7383BF"/>
<path d="M37.8009 10.875L37.1914 11.4845C36.8543 11.8215 36.8543 12.3664 37.1914 12.7034C37.3595 12.8715 37.5802 12.956 37.8009 12.956C38.0216 12.956 38.2423 12.8715 38.4104 12.7034L39.0199 12.094C39.3569 11.7569 39.3569 11.2121 39.0199 10.875C38.6828 10.5379 38.138 10.5379 37.8009 10.875Z" fill="#7383BF"/>
<path d="M11.5896 37.0871L10.9802 37.6966C10.6431 38.0336 10.6431 38.5785 10.9802 38.9155C11.1483 39.0836 11.369 39.1681 11.5896 39.1681C11.8103 39.1681 12.031 39.0836 12.1991 38.9155L12.8086 38.306C13.1457 37.969 13.1457 37.4241 12.8086 37.0871C12.4715 36.75 11.9258 36.7509 11.5896 37.0871Z" fill="#7383BF"/>
<path d="M38.4104 37.087C38.0733 36.75 37.5285 36.75 37.1914 37.087C36.8543 37.4241 36.8543 37.9689 37.1914 38.306L37.8009 38.9155C37.969 39.0836 38.1897 39.1681 38.4104 39.1681C38.6311 39.1681 38.8517 39.0836 39.0199 38.9155C39.3569 38.5784 39.3569 38.0336 39.0199 37.6965L38.4104 37.087Z" fill="#7383BF"/>
<path d="M12.1991 10.875C11.8621 10.5379 11.3172 10.5379 10.9802 10.875C10.6431 11.2121 10.6431 11.7569 10.9802 12.094L11.5896 12.7034C11.7577 12.8715 11.9784 12.956 12.1991 12.956C12.4198 12.956 12.6405 12.8715 12.8086 12.7034C13.1457 12.3664 13.1457 11.8215 12.8086 11.4845L12.1991 10.875Z" fill="#7383BF"/>
<path d="M22.4138 24.8956H15.5172" stroke="#424A60" stroke-width="2" stroke-miterlimit="10" stroke-linecap="round" stroke-linejoin="round"/>
<path d="M25 22.3095V12.8268" stroke="#424A60" stroke-width="2" stroke-miterlimit="10" stroke-linecap="round" stroke-linejoin="round"/>
<path d="M25 27.4819C26.4283 27.4819 27.5862 26.324 27.5862 24.8957C27.5862 23.4673 26.4283 22.3094 25 22.3094C23.5717 22.3094 22.4138 23.4673 22.4138 24.8957C22.4138 26.324 23.5717 27.4819 25 27.4819Z" stroke="#424A60" stroke-width="2" stroke-miterlimit="10" stroke-linecap="round" stroke-linejoin="round"/>
</g>
<defs>
<clipPath id="clip0_93_1517">
<rect width="50" height="50" fill="white"/>
</clipPath>
</defs>
</svg>
