<svg width="45" height="70" viewBox="0 0 45 70" fill="none" xmlns="http://www.w3.org/2000/svg">
<path fill-rule="evenodd" clip-rule="evenodd" d="M34.2312 9.87304C34.241 10.0979 34.0774 10.2815 33.9181 10.3642C33.5749 10.542 33.3405 10.3852 33.1133 10.9673C33.0482 11.134 33.0166 11.3146 32.9438 11.4789C32.7282 11.9636 32.2867 12.8016 32.1309 13.2129C31.8009 12.195 32.0768 10.6276 32.2882 10.1276C32.3922 9.87997 32.534 9.69411 32.7592 9.60265C33.0763 9.47451 33.5061 9.4984 33.835 9.52805C34.0252 9.54551 34.2196 9.60498 34.2312 9.87304Z" fill="#FF4F5C"/>
<mask id="mask0_129_35017" style="mask-type:luminance" maskUnits="userSpaceOnUse" x="37" y="17" width="8" height="9">
<path d="M37.0632 17.5736H44.9846V25.8402H37.0632V17.5736Z" fill="#00CCEB"/>
</mask>
<g mask="url(#mask0_129_35017)">
<path fill-rule="evenodd" clip-rule="evenodd" d="M37.9413 25.4701C38.0431 24.8431 38.1108 24.2161 38.1579 23.588C38.108 23.535 38.0759 23.4628 38.0799 23.3696C38.1128 22.6266 38.1464 21.8831 38.1785 21.1402C38.1789 21.132 38.1789 21.1239 38.1791 21.1163C38.1765 21.111 38.1737 21.1064 38.1711 21.1017C37.9742 21.685 37.7712 22.2699 37.6254 22.8719C37.535 23.2448 36.9834 23.0368 37.073 22.668C37.2644 21.8778 37.5749 21.1081 37.8256 20.3274C37.7146 20.2079 37.6065 20.0862 37.4931 19.969C37.3835 19.8554 37.4005 19.726 37.4724 19.6299C37.4052 19.5443 37.3332 19.4638 37.2676 19.3759C37.0435 19.0758 37.4753 18.704 37.7074 18.9837C37.5915 18.7879 37.7852 18.5117 38.0156 18.5456C38.0569 18.4721 38.1266 18.4226 38.2069 18.4039C38.2161 18.2413 38.2287 18.0794 38.219 17.9133C38.1966 17.534 38.7762 17.432 38.7989 17.816C38.8215 18.2006 38.7929 18.573 38.7403 18.9394C38.7412 18.9394 38.7423 18.9406 38.7432 18.9406C38.8205 18.9114 38.9094 18.9109 38.9983 18.9662C39.1033 19.0321 39.2144 19.1002 39.3228 19.1679C39.656 19.0717 39.9856 18.8165 40.245 18.6539C40.6886 18.3753 41.1322 18.0974 41.5758 17.8195C41.8962 17.6185 42.1357 18.1638 41.8173 18.3637C41.4905 18.5683 41.1654 18.7786 40.839 18.9855C41.4669 18.806 42.0693 18.5275 42.6307 18.1423C42.9411 17.9291 43.3196 18.3859 43.006 18.6015C42.3446 19.0554 41.6331 19.374 40.8911 19.5745C42.1407 19.6002 43.5219 19.0986 44.6338 18.8287C45.0016 18.7396 45.0966 19.3287 44.7296 19.4178C44.1824 19.5506 43.5882 19.7255 42.98 19.8741C43.5395 19.8449 44.1009 19.7715 44.6584 19.6229C45.024 19.5256 45.1183 20.1147 44.7545 20.212C43.7385 20.4824 42.7079 20.5534 41.6979 20.4497C42.5093 20.7859 43.3518 21.0009 44.1933 20.9287C44.5675 20.8966 44.6673 21.4852 44.2895 21.5172C43.8878 21.5516 43.4892 21.5259 43.0942 21.4635C43.1358 21.6238 43.0275 21.8283 42.8431 21.8545C43.0298 21.9122 43.2172 21.9687 43.4043 22.0247C43.7678 22.1337 43.5645 22.6936 43.2032 22.5859C42.2178 22.2909 41.2443 21.9792 40.3274 21.5614C41.3476 22.2968 42.483 22.8654 43.7331 23.2529C44.0958 23.3655 43.8926 23.9254 43.532 23.8135C42.3318 23.4417 41.2257 22.9022 40.22 22.2152C40.7838 22.9372 41.3232 23.6795 41.8294 24.4516C42.0368 24.7686 41.5869 25.1531 41.3772 24.8332C40.8911 24.0914 40.373 23.3782 39.8338 22.6831C39.9244 23.0053 40.0082 23.3305 40.0823 23.6591C40.084 23.6679 40.0815 23.6742 40.0825 23.6824C40.2866 24.2644 40.4358 24.8652 40.4831 25.5003C40.5112 25.8802 39.9316 25.9816 39.9033 25.5976C39.8126 24.3775 39.35 23.2844 38.794 22.2303C38.7857 23.3299 38.7045 24.4294 38.526 25.5254C38.4649 25.903 37.8793 25.85 37.9413 25.4701Z" fill="#00CCEB"/>
</g>
<path fill-rule="evenodd" clip-rule="evenodd" d="M36.7178 18.8707L37.976 17.8103L28.148 5.78905C27.8593 5.43596 27.344 5.38759 26.9965 5.68012C26.649 5.97324 26.6014 6.4964 26.8898 6.84949L36.7178 18.8707Z" fill="#693ED9"/>
<path fill-rule="evenodd" clip-rule="evenodd" d="M37.8718 20.505L39.346 19.2628C39.5703 19.0734 39.6013 18.7355 39.4152 18.5077L38.1915 17.0108C38.005 16.7829 37.6721 16.7514 37.4478 16.9409L35.9735 18.1831C35.7491 18.3725 35.7181 18.7104 35.9047 18.9382L37.1281 20.4351C37.3147 20.663 37.6474 20.6945 37.8718 20.505Z" fill="#7761E3"/>
<path fill-rule="evenodd" clip-rule="evenodd" d="M34.5231 14.1941C34.3796 14.2221 34.097 14.1854 34.0571 13.9687C34.0522 13.9424 34.0528 13.9174 34.0569 13.8934C33.9702 13.9442 33.8764 13.9814 33.7734 13.9961C33.557 14.0257 33.192 13.9448 33.2512 13.6033C33.2747 13.4692 33.3382 13.3493 33.4202 13.2386C33.2294 13.2688 33.0326 13.2187 32.8638 13.0276C32.617 12.7485 32.7628 12.5137 32.9666 12.3313C32.7069 12.3721 32.3067 12.3657 32.3563 11.9788C32.3841 11.7615 32.5689 11.5511 32.6853 11.399C32.8546 11.1783 33.0475 10.9901 33.2592 10.8245C33.2669 10.8187 33.2762 10.8152 33.2853 10.8117C33.2997 10.778 33.332 10.7505 33.3792 10.7505C33.668 10.7505 34.0502 10.9574 33.9412 11.3519C33.9137 11.4515 33.8721 11.5517 33.821 11.6484C34.038 11.5377 34.2565 11.5127 34.4017 11.744C34.5556 11.9887 34.458 12.2842 34.2993 12.5347C34.3053 12.5347 34.3111 12.5335 34.3171 12.5353C34.4457 12.5662 34.6158 12.6046 34.6766 12.7684C34.7237 12.8954 34.676 13.0381 34.6181 13.1627C34.6474 13.157 34.6772 13.1599 34.6996 13.1785C35.0818 13.5036 34.9509 14.1125 34.5231 14.1941Z" fill="#FF4F5C"/>
<path fill-rule="evenodd" clip-rule="evenodd" d="M32.3818 12.3598C32.3818 12.3598 33.5851 13.9325 33.6833 14.0747C33.6833 14.0747 33.5729 14.7826 33.3022 15.8804C32.6191 18.6429 29.8982 24.0751 26.6941 26.6616C23.5632 29.1852 18.2832 23.6317 17.3777 18.8031C17.3676 18.7873 17.3697 18.7658 17.3633 18.7454C16.6365 14.9161 22.8748 16.4129 22.9285 17.0947C22.9501 17.3429 23.0146 17.6412 23.1027 17.9669C23.5571 19.6533 24.7494 22.0462 25.0759 21.9303C25.3739 21.8224 26.2858 21.0673 26.7466 20.5558C27.5744 19.6316 28.5838 18.2047 29.5194 16.7934C30.9925 14.5957 32.2739 12.4479 32.3818 12.3598Z" fill="#FF4F5C"/>
<path fill-rule="evenodd" clip-rule="evenodd" d="M29.5193 16.7934C28.5837 18.2047 27.5743 19.6317 26.7465 20.5558C26.2856 21.0673 25.3738 21.8225 25.0757 21.9303C24.7492 22.0462 23.557 19.6532 23.1026 17.9669C22.8073 18.0619 22.5192 18.2245 22.2584 18.4092C22.1646 18.4319 22.0754 18.4966 22.026 18.5869C22.0069 18.6015 21.9835 18.6207 21.9643 18.6359C21.7448 18.8159 21.9092 19.1125 22.1218 19.1492C22.6785 20.8506 23.3591 24.2732 25.6373 23.2367C27.6715 22.3067 29.4977 19.2862 29.7472 17.0959C29.762 16.9164 29.6553 16.8126 29.5193 16.7934Z" fill="#FF394B"/>
<path fill-rule="evenodd" clip-rule="evenodd" d="M16.6132 19.342C17.8106 19.673 18.9675 19.7989 20.0973 19.6492C20.3274 19.6258 20.5533 19.585 20.7764 19.5326C21.7854 19.3013 22.7895 18.8387 23.7959 18.0934C23.7436 17.4687 23.2903 13.288 21.4229 11.1852C21.0259 10.74 20.3648 10.0629 19.6374 9.57235C18.9359 9.08812 18.1658 8.77938 17.5383 9.04326C17.4336 9.08645 17.3372 9.13999 17.2402 9.21751C15.2173 10.8204 15.9312 15.7726 16.6132 19.342Z" fill="#CBE8ED"/>
<path fill-rule="evenodd" clip-rule="evenodd" d="M15.9124 16.646C16.2843 16.8214 18.1799 19.7318 18.328 19.8257C18.3306 19.6783 20.7926 19.7318 20.7765 19.5326C20.6417 17.8638 23.5064 15.194 21.4229 11.1852C20.2744 9.45112 18.1659 8.77935 17.5384 9.04323C18.0103 9.52638 18.8797 10.5588 19.3158 10.9649C20.0297 12.2422 19.0725 13.961 18.8871 15.395C18.8068 15.677 15.9556 16.3599 15.9124 16.646Z" fill="#ABDBE2"/>
<path fill-rule="evenodd" clip-rule="evenodd" d="M17.2242 3.94078C17.2084 3.87145 17.1737 3.82835 17.133 3.79577C17.2287 2.33554 16.0742 1.02334 14.7959 0.461081C14.7262 0.430258 14.6625 0.433683 14.6048 0.449971C13.2204 0.0520238 11.795 0.464005 10.9511 1.71615C10.5273 2.3449 10.3663 3.10872 9.853 3.68793C9.32912 4.27934 8.70126 4.524 8.00035 4.79908C7.25418 5.09219 6.70407 5.34329 6.28434 6.07453C5.81262 6.89782 5.77527 7.48873 4.95581 8.11564C4.57681 8.40525 4.18917 8.60046 3.92632 9.01712C3.59874 9.53677 3.50824 10.2133 3.67673 10.8065C3.93899 11.7277 4.81407 12.0726 5.34197 12.8021C5.80941 13.4478 5.90616 13.9185 6.7127 14.1195C7.61567 14.3456 8.67526 14.1096 9.55922 13.9226C10.4458 13.735 11.1488 13.594 12.0624 13.735C12.6868 13.8311 13.293 14.0491 13.9287 14.0729C14.3064 14.0875 14.6191 14.0834 14.968 13.9168C15.0935 13.8561 15.2073 13.7764 15.3098 13.6779C15.6013 13.3563 15.9778 13.1891 16.4397 13.1774C16.9743 12.9163 17.13 12.7614 17.1806 12.1373C17.216 11.6957 17.1461 11.2126 17.0339 10.7202C17.9684 8.4501 17.7788 6.36414 17.2242 3.94078Z" fill="#36117F"/>
<path fill-rule="evenodd" clip-rule="evenodd" d="M17.753 64.8396C17.5416 64.5494 15.2582 64.7918 15.2352 64.9427C15.1652 65.4049 15.0568 67.1762 15.2748 67.4103C15.486 67.6376 17.458 68.1311 17.5025 67.683C17.5409 67.2955 17.9567 65.1199 17.753 64.8396Z" fill="#FF4F5C"/>
<mask id="mask1_129_35017" style="mask-type:luminance" maskUnits="userSpaceOnUse" x="14" y="66" width="8" height="4">
<path d="M14.5408 66.8702H21.971V69.961H14.5408V66.8702Z" fill="#1D0B53"/>
</mask>
<g mask="url(#mask1_129_35017)">
<path fill-rule="evenodd" clip-rule="evenodd" d="M15.1134 66.8702C15.1134 66.8702 14.0581 68.5303 14.8127 69.8343C14.8127 69.8343 20.3108 70.1193 21.9708 69.8343C21.9708 69.8343 22.014 67.6056 20.5908 67.4156C19.1679 67.2257 17.5649 67.2525 17.5649 67.2525C17.5649 67.2525 16.1472 68.1032 15.1134 66.8702Z" fill="#1D0B53"/>
</g>
<path fill-rule="evenodd" clip-rule="evenodd" d="M5.26719 64.8495C5.05577 64.5588 3.09806 64.7918 3.07536 64.9427C3.0051 65.4048 2.89692 67.1762 3.11501 67.4103C3.32619 67.6376 5.04392 68.3747 5.08843 67.926C5.12693 67.5385 5.47097 65.1297 5.26719 64.8495Z" fill="#FF4F5C"/>
<path fill-rule="evenodd" clip-rule="evenodd" d="M15.1744 43.3425C15.4332 46.8997 15.1957 54.0712 14.9368 57.6284C14.9213 57.8674 14.9207 66.1303 14.9207 66.1303L17.9607 66.4501C19.6154 61.0196 22.7755 48.84 22.7755 43.4333C22.7755 38.0266 22.3515 29.0173 20.5456 24.7428C18.8274 20.6792 12.0521 26.2922 11.255 27.288C10.8878 27.7488 11.5833 31.8631 12.5459 34.5889C13.6635 37.7475 15.0347 41.4301 15.1744 43.3425Z" fill="#7761E3"/>
<path fill-rule="evenodd" clip-rule="evenodd" d="M14.9207 66.1303L16.7964 66.3277C16.6257 65.0301 16.794 62.1354 16.8612 60.8144C16.9855 58.5153 17.5031 56.2673 17.9894 54.0362C18.7551 50.4965 19.4848 46.7458 18.5741 43.149C18.1033 41.299 17.0735 40.013 16.2351 38.3798C15.6763 37.2756 15.397 36.0345 15.4797 34.7713C15.5261 34.0825 15.9144 33.2115 15.7023 32.5233C15.4384 31.6522 13.071 28.7097 12.4658 29.1537C11.7362 29.6944 12.1043 31.7845 11.8093 32.7575C12.9272 35.9162 15.0347 41.4301 15.1744 43.3424C15.4332 46.8996 14.8984 54.0415 14.7213 57.6046C14.5449 61.1524 14.9207 66.1303 14.9207 66.1303Z" fill="#37146F"/>
<path fill-rule="evenodd" clip-rule="evenodd" d="M2.84142 66.1303L5.54052 66.4501C6.94868 61.3278 10.7126 52.5767 11.2663 47.2038C12.1254 38.8605 13.1626 29.9257 13.209 27.7291C13.2142 27.376 13.2194 27.1884 13.2194 27.1884C11.3618 24.7009 8.21345 23.6871 6.81096 23.5053C6.25722 23.4313 5.85379 23.5507 5.67765 23.8694C5.1087 24.9165 4.66363 25.8843 4.31704 26.7951C2.05544 32.7022 3.95984 36.2711 3.91846 43.9542C3.91846 44.3982 3.91328 44.8533 3.90291 45.3031C3.83035 48.4787 4.60942 52.3902 3.77926 55.7074C2.15104 62.2147 2.84142 66.1303 2.84142 66.1303Z" fill="#7761E3"/>
<path fill-rule="evenodd" clip-rule="evenodd" d="M2.84155 66.1303L3.45641 66.1955C3.44086 64.4539 3.47879 61.9897 3.64941 60.2598C3.91859 57.5276 4.6121 54.9668 5.47088 52.3943C6.84721 48.2509 7.77345 44.1588 7.50978 39.7024C7.36483 37.2786 6.66622 35.0301 6.36084 32.6509C6.16439 31.1145 6.45414 29.6402 6.67683 28.1493C6.79554 27.3014 6.8992 26.4477 6.87847 25.5715C6.85749 24.8542 4.31832 25.428 4.31832 26.6092C2.05705 32.5169 3.95997 36.2711 3.91859 43.9542C3.91859 44.3982 3.9134 44.8533 3.90304 45.3031C3.83574 48.4787 3.73126 52.0913 3.26177 55.4941C2.13372 63.6754 2.84155 66.1303 2.84155 66.1303Z" fill="#37146F"/>
<mask id="mask2_129_35017" style="mask-type:luminance" maskUnits="userSpaceOnUse" x="2" y="66" width="8" height="4">
<path d="M2.38086 66.8702H9.81104V69.961H2.38086V66.8702Z" fill="#1D0B53"/>
</mask>
<g mask="url(#mask2_129_35017)">
<path fill-rule="evenodd" clip-rule="evenodd" d="M2.95363 66.8702C2.95363 66.8702 1.89831 68.5303 2.65261 69.8343C2.65261 69.8343 8.15068 70.1193 9.8109 69.8343C9.8109 69.8343 9.85385 67.6056 8.43104 67.4156C7.00782 67.2257 5.18306 67.1405 5.18306 67.1405C5.18306 67.1405 3.98715 68.1032 2.95363 66.8702Z" fill="#1D0B53"/>
</g>
<path fill-rule="evenodd" clip-rule="evenodd" d="M21.629 14.5764C20.9592 17.4163 18.7556 17.9297 19.6194 21.3663C19.6315 21.4315 19.649 21.4973 19.6665 21.5633C19.6665 21.569 19.6722 21.5807 19.6722 21.5871C19.8838 22.3504 20.0896 23.1201 20.2718 23.8601C20.9179 26.4856 21.3472 28.687 21.3472 28.6934C21.3472 28.6934 15.4825 29.755 8.97764 28.3053C6.86214 27.8339 4.92879 27.0643 3.52466 25.8529C3.52466 25.8529 4.75842 25.0115 6.063 23.6154C6.12758 23.5502 6.1864 23.4843 6.25098 23.4126C6.9505 22.6429 7.65553 21.7182 8.19602 20.6798C8.19602 20.6741 8.20211 20.6741 8.20211 20.6682C8.61353 19.8863 8.92482 19.0274 9.05999 18.1324C9.08919 17.9413 9.11272 17.7444 9.12457 17.5474C9.1541 17.1536 9.15986 16.748 9.15986 16.3302C9.13633 11.8197 8.06661 6.06168 16.5464 8.06086C16.94 8.15592 17.3042 8.33535 17.6275 8.57366C18.9262 9.54614 22.1756 12.2492 21.629 14.5764Z" fill="#CBE8ED"/>
<path fill-rule="evenodd" clip-rule="evenodd" d="M20.8066 23.747C20.4363 22.9593 20.0543 22.2251 19.6722 21.5872C18.6498 21.6704 17.6275 21.7124 16.6049 21.7059C16.2933 21.7059 15.982 21.7001 15.6706 21.6885H15.6472C13.3908 21.6226 11.1459 21.3424 8.93057 20.8471C8.83671 20.829 8.74835 20.8051 8.65424 20.7877C8.50164 20.7516 8.34895 20.716 8.19601 20.6798C7.65552 21.7182 6.95049 22.6429 6.25098 23.4126C6.49202 23.4546 6.75058 23.4604 6.94449 23.4901C7.56132 23.5857 8.17857 23.6871 8.80109 23.7826C8.84823 23.7942 8.88952 23.7884 8.92482 23.7826C8.93057 23.8659 8.93658 23.9556 8.94226 24.039C9.04213 25.4532 9.04213 26.8795 8.97763 28.3053C8.81894 31.933 6.8461 46.0437 6.95765 46.0798C10.0955 47.064 22.5451 46.109 24.1611 45.8403C25.0133 45.697 22.7867 27.9173 20.8066 23.747Z" fill="#B7A8FF"/>
<path fill-rule="evenodd" clip-rule="evenodd" d="M19.6722 21.5871C19.6722 21.5807 19.6665 21.569 19.6665 21.5632C19.649 21.4974 16.221 21.7031 13.6083 21.4316C12.0695 21.2719 8.35478 20.7096 8.20209 20.6682C8.20209 20.674 8.196 20.674 8.196 20.6799C7.65551 21.7182 6.12757 23.5501 6.06299 23.6154C15.5002 24.4877 20.6127 23.7943 20.7828 23.7587C20.7888 23.7587 20.8006 23.7529 20.8066 23.747C20.4363 22.9593 20.0544 22.2251 19.6722 21.5871Z" fill="#7761E3"/>
<path fill-rule="evenodd" clip-rule="evenodd" d="M15.0226 14.7757C15.0226 17.6832 10.4066 20.3233 8.20215 20.6682C9.21889 19.5198 9.09384 15.18 9.84329 14.7092C11.8254 13.4378 12.4589 8.40524 12.4589 8.40524C15.3115 9.03917 15.0226 13.3767 15.0226 14.7757Z" fill="#ABDBE2"/>
<path fill-rule="evenodd" clip-rule="evenodd" d="M16.4093 6.41893V8.10169C16.4093 8.10169 16.8546 8.93141 16.4093 9.02171C15.4298 9.22043 14.0164 7.66932 14.0164 7.66932V5.41203L16.4093 6.41893Z" fill="#FF4F5C"/>
<path fill-rule="evenodd" clip-rule="evenodd" d="M14.0164 6.84482V5.56126C14.0164 5.56126 15.2341 6.74116 16.4093 6.80865C16.4093 6.80865 14.993 7.50681 14.0164 6.84482Z" fill="#FF394B"/>
<path fill-rule="evenodd" clip-rule="evenodd" d="M17.7567 1.92712C17.7567 1.92712 18.0777 3.92446 17.8023 5.60671C17.6066 6.80123 15.0814 7.67405 13.8815 5.53446C12.6816 3.39478 13.8935 1.06766 13.8935 1.06766L17.7567 1.92712Z" fill="#FF4F5C"/>
<path fill-rule="evenodd" clip-rule="evenodd" d="M18.5884 2.11881C18.4952 2.01039 18.3463 1.95977 18.2582 1.85368C17.9816 1.52264 18.1563 1.46091 18.0241 1.17724C17.9098 0.931904 17.7856 0.755901 17.5741 0.592178C17.029 0.169756 16.2928 0.0397797 15.6271 0.00018544C15.4182 -0.0126785 13.8728 0.646975 13.4897 0.969159C12.7292 1.60952 12.2594 2.93158 12.5414 3.91459C12.763 4.68601 13.3847 5.45342 14.0592 4.73145C14.5747 4.17972 14.7049 3.5574 14.863 2.84479C14.921 2.58375 14.9783 2.36465 15.0644 2.17703C15.5344 1.82044 16.0833 1.63809 16.5917 1.79187C16.6808 1.96144 16.7305 2.1904 16.8109 2.35713C16.9317 2.60706 17.1013 2.8285 17.3127 3.00676C17.6402 3.28183 18.1511 3.47763 18.5267 3.17341C18.8647 2.89959 18.8564 2.42997 18.5884 2.11881Z" fill="#36117F"/>
<path fill-rule="evenodd" clip-rule="evenodd" d="M14.9739 3.07257C14.9739 3.07257 14.3923 2.54122 14.091 3.05219C13.7897 3.56324 14.1866 4.0433 14.4786 4.02359C14.7707 4.00371 15.0623 3.35341 14.9739 3.07257Z" fill="#FF4F5C"/>
<path fill-rule="evenodd" clip-rule="evenodd" d="M17.7036 40.552C18.4597 40.552 18.4611 41.7453 17.7036 41.7453C16.9473 41.7453 16.9462 40.552 17.7036 40.552Z" fill="#7761E3"/>
<path fill-rule="evenodd" clip-rule="evenodd" d="M18.1809 43.5726C18.937 43.5726 18.9384 44.7659 18.1809 44.7659C17.4246 44.7659 17.4235 43.5726 18.1809 43.5726Z" fill="#7761E3"/>
<path fill-rule="evenodd" clip-rule="evenodd" d="M19.9807 28.1713C20.7368 28.1713 20.7382 29.3647 19.9807 29.3647C19.2244 29.3647 19.2233 28.1713 19.9807 28.1713Z" fill="#7761E3"/>
<path fill-rule="evenodd" clip-rule="evenodd" d="M17.0059 29.1409C17.7619 29.1409 17.7634 30.3342 17.0059 30.3342C16.2496 30.3342 16.2484 29.1409 17.0059 29.1409Z" fill="#7761E3"/>
<path fill-rule="evenodd" clip-rule="evenodd" d="M18.585 31.6394C19.341 31.6394 19.3424 32.8327 18.585 32.8327C17.8287 32.8327 17.8275 31.6394 18.585 31.6394Z" fill="#7761E3"/>
<path fill-rule="evenodd" clip-rule="evenodd" d="M21.1558 34.66C21.9118 34.66 21.9132 35.8532 21.1558 35.8532C20.3995 35.8532 20.3983 34.66 21.1558 34.66Z" fill="#7761E3"/>
<path fill-rule="evenodd" clip-rule="evenodd" d="M16.7854 36.4127C17.5415 36.4127 17.5429 37.606 16.7854 37.606C16.0292 37.606 16.0279 36.4127 16.7854 36.4127Z" fill="#7761E3"/>
<path fill-rule="evenodd" clip-rule="evenodd" d="M15.0225 33.2802C15.7785 33.2802 15.7799 34.4735 15.0225 34.4735C14.2662 34.4735 14.265 33.2802 15.0225 33.2802Z" fill="#7761E3"/>
<path fill-rule="evenodd" clip-rule="evenodd" d="M11.4968 29.3647C12.2529 29.3647 12.2543 30.5579 11.4968 30.5579C10.7406 30.5579 10.7394 29.3647 11.4968 29.3647Z" fill="#7761E3"/>
<path fill-rule="evenodd" clip-rule="evenodd" d="M10.7256 35.8906C11.4816 35.8906 11.483 37.0839 10.7256 37.0839C9.96932 37.0839 9.96817 35.8906 10.7256 35.8906Z" fill="#7761E3"/>
<path fill-rule="evenodd" clip-rule="evenodd" d="M10.2114 41.4097C10.9675 41.4097 10.9689 42.603 10.2114 42.603C9.45516 42.603 9.45401 41.4097 10.2114 41.4097Z" fill="#7761E3"/>
<path fill-rule="evenodd" clip-rule="evenodd" d="M14.1045 41.8571C14.8605 41.8571 14.862 43.0505 14.1045 43.0505C13.3482 43.0505 13.3471 41.8571 14.1045 41.8571Z" fill="#7761E3"/>
<path fill-rule="evenodd" clip-rule="evenodd" d="M13.5535 37.8297C14.3095 37.8297 14.3109 39.0231 13.5535 39.0231C12.7972 39.0231 12.7961 37.8297 13.5535 37.8297Z" fill="#7761E3"/>
<path fill-rule="evenodd" clip-rule="evenodd" d="M20.752 41.708C21.508 41.708 21.5094 42.9013 20.752 42.9013C19.9957 42.9013 19.9945 41.708 20.752 41.708Z" fill="#7761E3"/>
<path fill-rule="evenodd" clip-rule="evenodd" d="M20.054 38.4637C20.81 38.4637 20.8115 39.657 20.054 39.657C19.2977 39.657 19.2965 38.4637 20.054 38.4637Z" fill="#7761E3"/>
<mask id="mask3_129_35017" style="mask-type:luminance" maskUnits="userSpaceOnUse" x="0" y="12" width="17" height="17">
<path d="M0 12.2864H16.7168V28.3601H0V12.2864Z" fill="#FF4F5C"/>
</mask>
<g mask="url(#mask3_129_35017)">
<path fill-rule="evenodd" clip-rule="evenodd" d="M14.6307 28.3601C14.6307 28.3601 4.79465 27.5473 1.48785 24.7924C-1.59692 22.2112 0.483037 15.7836 4.35674 12.84C4.36974 12.8284 4.39121 12.8161 4.40413 12.8039C7.47285 10.4616 8.88882 16.8098 8.30975 17.1577C8.09684 17.2846 7.86073 17.4734 7.61081 17.6995C7.5162 17.7805 7.42521 17.8737 7.33818 17.9716C6.15041 19.2161 5.08472 21.4915 5.33267 22.1686C5.56129 22.8067 8.59266 23.7727 11.5247 24.832C13.6981 25.6122 15.8157 26.4443 16.7166 27.2239C16.7166 27.2239 14.7113 28.2116 14.6307 28.3601Z" fill="#FF4F5C"/>
</g>
<path fill-rule="evenodd" clip-rule="evenodd" d="M11.5724 24.9987C11.558 24.9393 11.5439 24.8792 11.525 24.832C8.59292 23.7727 5.56154 22.8067 5.33284 22.1686C5.08497 21.4916 6.15066 19.2161 7.33843 17.9716C7.36722 17.4495 7.24547 17.0516 6.9187 16.6839C7.07386 16.4328 6.69115 16.1176 6.43259 16.3517C4.96651 17.6948 2.21344 20.6921 4.0744 22.7723C4.93886 23.7402 6.52242 23.8712 7.66099 24.314C8.86958 24.7889 11.6033 25.1647 11.5724 24.9987Z" fill="#FF394B"/>
<path fill-rule="evenodd" clip-rule="evenodd" d="M7.80041 18.3882C8.3349 18.0654 11.8363 15.8192 12.8778 13.1919C13.3517 11.9957 14.2232 9.22394 12.7836 8.51074C10.478 7.36744 6.40763 10.1953 3.54614 12.3796C4.04114 14.9819 5.2341 16.9997 7.80041 18.3882Z" fill="#CBE8ED"/>
<path fill-rule="evenodd" clip-rule="evenodd" d="M16.5489 26.5317C17.5833 26.7426 18.9949 27.5007 19.2606 28.6776C19.3886 29.2451 19.0328 29.3402 18.721 28.916C18.1198 28.0985 17.461 27.7262 18.4296 28.8892C18.6254 29.124 18.916 29.7078 18.7447 29.8588C18.3815 30.1792 17.7918 29.2486 17.4797 28.8787C17.0932 28.7249 17.6854 29.7154 17.6751 29.9502C17.6275 31.013 16.4792 29.1962 16.3288 29.2213C15.9085 29.2913 16.8723 30.3913 16.1951 30.2841C15.6875 30.2037 15.2247 28.8338 14.896 28.5414C14.6262 28.3018 14.2814 28.3298 14.267 27.9033C14.2343 26.9523 16.1119 26.4426 16.5489 26.5317Z" fill="#FF4F5C"/>
<path fill-rule="evenodd" clip-rule="evenodd" d="M16.0879 26.5579C16.4733 26.4204 17.4195 26.09 17.8307 26.2024C18.0553 26.2637 18.2933 26.467 18.0117 26.6517C17.8408 26.7636 17.5903 26.7892 17.3946 26.7963C17.2173 26.802 17.0278 26.8626 16.8537 26.8539C16.675 26.8457 16.0368 26.576 16.0879 26.5579Z" fill="#FF4F5C"/>
</svg>
