<svg width="50" height="50" viewBox="0 0 50 50" fill="none" xmlns="http://www.w3.org/2000/svg">
<path d="M50 39.6551H0L0.674138 38.6439C1.33017 37.6603 2.43448 36.0577 3.61724 36.2069H50V39.6551Z" fill="#556080"/>
<path d="M47.644 22.3854C46.6802 22.4897 45.6457 22.3405 44.4431 21.4259C43.1647 20.4535 42.2983 18.9759 42.3992 17.3724C42.5354 15.1948 44.1431 13.4181 46.2388 13.0181L45.838 10.3448L32.5862 12.4155C23.6224 13.8164 14.1526 19.8992 12.0742 30.1724L12.069 30.1828C12.069 30.1828 12.0828 30.2448 12.0699 30.3483C8.75003 31.3931 6.42848 32.0845 4.1302 35.1492L3.4483 36.2069H48.2759L48.8802 33.1854C49.6087 29.5448 49.1759 25.7673 47.644 22.3854ZM18.3328 26.7242L19.7742 25.2578C21.9474 20.6897 28.0086 16.6198 33.119 15.8224L39.3431 14.85L39.1009 16.0612C39.0293 16.419 38.9811 16.7888 38.9578 17.1578C38.8345 19.1285 39.5061 21.1061 40.8466 22.7259L42.0147 24.138L18.3328 26.7242Z" fill="#7383BF"/>
<path d="M32.5862 12.4155L32.7586 12.3888V10.3448H28.4483V13.4095C29.7905 12.9785 31.1699 12.6362 32.5862 12.4155Z" fill="#C7CAC7"/>
<path d="M26.8724 25.7914L36.3552 24.7561V21.5518H26.8724V25.7914Z" fill="#556080"/>
<path d="M21.5517 16.6733V14.7767C21.5517 14.2336 21.1112 13.7931 20.5681 13.7931H18.2242C17.6819 13.7931 17.2414 14.2336 17.2414 14.7767V19.8276H17.694C18.869 18.6431 20.1647 17.5888 21.5517 16.6733Z" fill="#C7CAC7"/>
<path d="M4.12934 35.1491L3.4483 36.2069H48.2759L48.8802 33.1853C49.3414 30.8793 49.3336 28.5181 48.8793 26.2379L12.0699 30.3491C8.74917 31.394 6.42848 32.0845 4.12934 35.1491Z" fill="#EFCE4A"/>
</svg>
