<svg width="42" height="42" viewBox="0 0 42 42" fill="none" xmlns="http://www.w3.org/2000/svg">
<g clip-path="url(#clip0_44_1619)">
<path d="M38.4527 21.0061C41.5523 18.3781 42.7585 14.1388 41.5065 10.2728C40.2545 6.40683 36.7923 3.67929 32.7406 3.36716C28.689 3.05503 24.8498 5.22016 23.0205 8.84881C21.4987 8.66802 19.9576 8.73512 18.4573 9.04749C17.2825 9.28489 16.155 9.71449 15.12 10.3188C13.4173 11.3404 12.5603 12.6515 12.5546 13.9343V16.3123C12.5546 16.3861 12.5546 16.4543 12.5602 16.528H12.5546L10.7724 17.6007L10.2673 18.9402L7.56566 19.0083L7.53728 19.6723L7.49757 20.694L4.34191 20.7677L4.26817 22.6293L0.925231 22.7145L0 23.2707L0.0737461 26.188V28.5604L5.01728 28.708H5.02294L18.27 20.762C20.4083 21.0841 22.5924 20.8954 24.6437 20.2115C25.4235 21.051 26.3434 21.7481 27.3624 22.2718L27.3568 22.2832C26.8448 22.9826 26.5721 23.8285 26.5792 24.6953V37.0967C26.5327 37.9104 27.1507 38.6096 27.964 38.6632H38.7876C39.603 38.6122 40.2243 37.9124 40.1781 37.0967V24.6953C40.1824 23.829 39.91 22.9839 39.4005 22.2832L38.4527 21.0061ZM26.6813 19.258C28.2705 18.2704 29.0934 17.0104 29.1218 15.7845V13.4064C29.1615 12.1691 28.4067 10.9488 26.8346 10.0407C26.3086 9.7368 25.7509 9.49128 25.1716 9.3086C26.7715 6.62667 29.7988 5.13624 32.8999 5.50374C36.001 5.87124 38.5961 8.02793 39.5249 11.0094C40.4536 13.9909 39.5423 17.2399 37.1984 19.3034L35.2289 16.6359C34.8094 16.0256 34.1163 15.661 33.3758 15.661C32.6353 15.661 31.9422 16.0256 31.5227 16.6359L28.6395 20.5464C27.9257 20.2179 27.2655 19.7836 26.6813 19.258Z" fill="#DC6C33"/>
<path d="M18.2643 18.3838L5.01728 26.3355L0.0738281 26.1879L0 23.2706L0.925148 22.7143L4.26809 22.6292L4.34183 20.7676L7.49749 20.6938L7.5372 19.6722L7.56558 19.0082L10.2672 18.9401L10.7723 17.6006L12.5545 16.5279H12.5601L13.3717 16.0398C13.7873 16.5225 14.2849 16.928 14.8417 17.2374C15.9007 17.8309 17.0617 18.2198 18.2643 18.3838Z" fill="#EACA6F"/>
<path d="M4.18197 25.3281C3.92677 25.3283 3.70274 25.1583 3.63449 24.9124C3.56624 24.6664 3.67051 24.4052 3.88928 24.2739L16.5188 16.696C16.7875 16.5347 17.1363 16.6218 17.2975 16.8906C17.4589 17.1593 17.3718 17.5081 17.103 17.6693L4.47351 25.2471C4.38557 25.3001 4.28476 25.3281 4.18197 25.3281Z" fill="#FAEDBD"/>
<path d="M18.2702 18.384V20.7621L5.02318 28.7081H5.01752V26.3357L18.2645 18.384H18.2702Z" fill="#BFA057"/>
<path d="M5.01751 26.3356V28.708L0.0739746 28.5604V26.188L5.01751 26.3356Z" fill="#BFA057"/>
<path d="M29.1219 13.4064V13.4518C29.0765 14.7005 28.2138 15.9662 26.5622 16.9594C26.1519 17.2025 25.7252 17.4167 25.2851 17.6007C24.6122 17.8718 23.9173 18.0845 23.2079 18.2364C21.5842 18.5817 19.9119 18.6337 18.27 18.3896V18.384H18.2643C17.0617 18.22 15.9007 17.831 14.8419 17.2375C14.2851 16.9281 13.7875 16.5227 13.3719 16.0399C12.8581 15.464 12.5681 14.7229 12.5546 13.9512V13.9342C12.5603 12.6514 13.4173 11.3404 15.1201 10.3187C16.1551 9.71431 17.2826 9.2848 18.4573 9.0474C19.9577 8.73511 21.4987 8.66801 23.0206 8.84872C22.9582 8.96791 22.8957 9.09276 22.8446 9.21761L25.1717 9.30842C25.7511 9.49119 26.3086 9.73663 26.8346 10.0406C28.4068 10.9488 29.1616 12.1691 29.1219 13.4064Z" fill="#F6DB6D"/>
<path d="M24.1925 11.8713C24.7731 12.2883 24.7256 12.9323 24.05 13.3545L24.0025 13.3862C23.3753 13.7268 22.6476 13.8334 21.9492 13.6871C21.7191 13.6482 21.4977 13.5696 21.2946 13.4549C20.5662 13.0273 20.5979 12.3147 21.358 11.8555C21.5913 11.7206 21.8442 11.6226 22.1075 11.5652" fill="#BFA057"/>
<path d="M29.1219 13.4517V15.7844C29.0935 17.0103 28.2706 18.2703 26.6814 19.2579C26.6417 19.2863 26.6019 19.309 26.5622 19.3374C25.9547 19.6942 25.3118 19.9872 24.6438 20.2114C22.5925 20.8953 20.4083 21.084 18.2701 20.762V18.3895C19.912 18.6336 21.5843 18.5816 23.208 18.2363C23.9174 18.0845 24.6123 17.8718 25.2852 17.6006C25.7252 17.4166 26.1519 17.2023 26.5623 16.9593C28.2138 15.966 29.0765 14.7003 29.1219 13.4517Z" fill="#BFA057"/>
<path d="M13.3719 16.0399L12.5603 16.5279C12.5546 16.4542 12.5546 16.386 12.5546 16.3123V13.9512C12.5681 14.7228 12.8581 15.464 13.3719 16.0399Z" fill="#BFA057"/>
<path d="M34.3112 20.929C33.6813 20.4686 32.8098 20.5359 32.2579 21.0874C32.1995 21.1459 32.1465 21.2094 32.0996 21.2774C31.6391 21.9055 31.7064 22.7757 32.2579 23.3254C32.2796 23.3478 32.3024 23.369 32.3265 23.3888C32.952 23.9462 33.9039 23.9183 34.4959 23.3254C34.5904 23.229 34.672 23.1208 34.7387 23.0035" fill="#926F66"/>
<path d="M34.0962 36.3656H29.3457C29.0322 36.3656 28.7781 36.1115 28.7781 35.798C28.7781 35.4846 29.0322 35.2305 29.3457 35.2305H34.0962C34.4097 35.2305 34.6638 35.4846 34.6638 35.798C34.6638 36.1115 34.4097 36.3656 34.0962 36.3656Z" fill="#3A3E48"/>
<path d="M32.5127 34.2545H29.3456C29.0321 34.2545 28.778 34.0004 28.778 33.687C28.778 33.3735 29.0321 33.1194 29.3456 33.1194H32.5127C32.8261 33.1194 33.0802 33.3735 33.0802 33.687C33.0802 34.0005 32.8261 34.2545 32.5127 34.2545Z" fill="#3A3E48"/>
<path d="M34.0965 32.1427H29.346C29.0325 32.1427 28.7784 31.8886 28.7784 31.5751C28.7784 31.2617 29.0325 31.0076 29.346 31.0076H34.0965C34.41 31.0076 34.6641 31.2617 34.6641 31.5751C34.664 31.8886 34.41 32.1427 34.0965 32.1427Z" fill="#3A3E48"/>
<path d="M28.6395 20.5464L27.3624 22.2719C26.3434 21.7482 25.4234 21.051 24.6437 20.2116C25.3116 19.9873 25.9546 19.6944 26.5621 19.3375C26.6018 19.3092 26.6416 19.2864 26.6813 19.2581C27.2655 19.7836 27.9256 20.218 28.6395 20.5464Z" fill="#928170"/>
<path d="M42 13.3667C42.0066 16.3127 40.7076 19.1102 38.4527 21.0062C37.3747 21.933 36.1082 22.6147 34.7408 23.004C33.9556 23.2312 33.1455 23.3608 32.3287 23.39C32.3048 23.3705 32.2821 23.3496 32.2606 23.3276C31.7078 22.778 31.6402 21.9068 32.1017 21.2787C32.8509 21.2697 33.5947 21.1511 34.3096 20.9268C35.3774 20.5984 36.3626 20.0448 37.1985 19.3035C39.9311 16.8943 40.6664 12.931 38.9799 9.70184C37.2935 6.47268 33.6208 4.81147 30.0822 5.67731C26.5435 6.54315 24.0528 9.71242 24.0479 13.3554C24.035 13.3681 24.0195 13.3778 24.0025 13.3838C23.3761 13.7279 22.6467 13.8347 21.9479 13.6846C21.9422 13.5825 21.9422 13.469 21.9422 13.3668C21.9438 11.9352 22.2515 10.5207 22.8446 9.21786L23.0206 8.84896C25.1121 4.70261 29.7772 2.53502 34.295 3.61045C38.8127 4.68571 42.0009 8.72263 42 13.3667Z" fill="#928170"/>
</g>
<defs>
<clipPath id="clip0_44_1619">
<rect width="42" height="42" fill="white"/>
</clipPath>
</defs>
</svg>
