<svg width="30" height="30" viewBox="0 0 30 30" fill="none" xmlns="http://www.w3.org/2000/svg">
<g clip-path="url(#clip0_138_46413)">
<path d="M4.83057 16.7797H5.84752V19.322H4.83057V16.7797Z" fill="#B3B3B3"/>
<path d="M8.38983 19.8305H2.28814C2.00733 19.8305 1.77966 19.6028 1.77966 19.322V17.2881C1.77966 17.0073 2.00733 16.7797 2.28814 16.7797H3.81356V17.7966H2.79661V18.8136H7.88136V17.7966H6.86441V16.7797H8.38983C8.67064 16.7797 8.89831 17.0073 8.89831 17.2881V19.322C8.89831 19.6028 8.67064 19.8305 8.38983 19.8305Z" fill="#808080"/>
<path d="M3.30505 0.508423H7.37285V6.10164H3.30505V0.508423Z" fill="#B3B3B3"/>
<path d="M0.254272 18.8136H10.4238V30H0.254272V18.8136Z" fill="#B3B3B3"/>
<path d="M20.5933 6.61023H29.7458V30.0001H20.5933V6.61023Z" fill="#A1D4DB"/>
<path d="M20.5933 6.61023H29.7458V13.7289H20.5933V6.61023Z" fill="#6CBBC7"/>
<path d="M22.1187 9.15259H23.1356V11.1865H22.1187V9.15259Z" fill="#E6E6E6"/>
<path d="M22.1187 16.2712H23.1356V18.3051H22.1187V16.2712Z" fill="#E6E6E6"/>
<path d="M0.254272 18.8136H10.4238V21.8644H0.254272V18.8136Z" fill="#E6E6E6"/>
<path d="M2.28814 19.8306C2.56894 19.8306 2.79661 20.0582 2.79661 20.339C2.79661 20.6198 2.56894 20.8475 2.28814 20.8475C2.00733 20.8475 1.77966 20.6198 1.77966 20.339C1.77966 20.0582 2.00733 19.8306 2.28814 19.8306Z" fill="#B3B3B3"/>
<path d="M4.32207 19.8306C4.60288 19.8306 4.83055 20.0582 4.83055 20.339C4.83055 20.6198 4.60288 20.8475 4.32207 20.8475C4.04127 20.8475 3.8136 20.6198 3.8136 20.339C3.8136 20.0582 4.04127 19.8306 4.32207 19.8306Z" fill="#B3B3B3"/>
<path d="M6.35589 19.8306C6.63669 19.8306 6.86436 20.0582 6.86436 20.339C6.86436 20.6198 6.63669 20.8475 6.35589 20.8475C6.07508 20.8475 5.84741 20.6198 5.84741 20.339C5.84741 20.0582 6.07508 19.8306 6.35589 19.8306Z" fill="#B3B3B3"/>
<path d="M8.38982 19.8306C8.67063 19.8306 8.8983 20.0582 8.8983 20.339C8.8983 20.6198 8.67063 20.8475 8.38982 20.8475C8.10902 20.8475 7.88135 20.6198 7.88135 20.339C7.88135 20.0582 8.10902 19.8306 8.38982 19.8306Z" fill="#B3B3B3"/>
<path d="M0.254272 9.15258H10.4238V7.62716L8.38987 5.59326H2.28817L0.254272 7.62716V9.15258Z" fill="#E6E6E6"/>
<path d="M2.28809 23.8983H8.38978V27.9661H2.28809V23.8983Z" fill="#FFE9CC"/>
<path d="M10.4237 18.8136H20.5932V22.3729H10.4237V18.8136Z" fill="#FFDAAA"/>
<path d="M10.4237 21.8644H15.5085V30H10.4237V21.8644Z" fill="#E6E6E6"/>
<path d="M15.5084 21.8644H20.5932V30H15.5084V21.8644Z" fill="#B3B3B3"/>
<path d="M14.4915 19.8306H16.5254V20.8475H14.4915V19.8306Z" fill="#808080"/>
<path d="M12.9661 24.9153H13.983V26.9492H12.9661V24.9153Z" fill="#808080"/>
<path d="M17.0338 24.9153H18.0508V26.9492H17.0338V24.9153Z" fill="#808080"/>
<path d="M12.9661 0H13.983V10.678H12.9661V0Z" fill="#808080"/>
<path d="M16.5254 0H17.5423V6.61017H16.5254V0Z" fill="#808080"/>
<path d="M11.9491 12.2033V11.6949C11.9491 10.8524 12.6321 10.1694 13.4745 10.1694C14.3169 10.1694 14.9999 10.8524 14.9999 11.6949V12.2033H11.9491Z" fill="#FF421D"/>
<path d="M15.5084 8.13558V7.62711C15.5084 6.7847 16.1914 6.10168 17.0338 6.10168C17.8763 6.10168 18.5593 6.7847 18.5593 7.62711V8.13558H15.5084Z" fill="#FF421D"/>
</g>
<defs>
<clipPath id="clip0_138_46413">
<rect width="30" height="30" fill="white"/>
</clipPath>
</defs>
</svg>
