<svg width="30" height="30" viewBox="0 0 30 30" fill="none" xmlns="http://www.w3.org/2000/svg">
<g clip-path="url(#clip0_117_10358)">
<path d="M21.7743 11.9834C21.5277 11.9834 21.3279 11.7835 21.3279 11.537V0.446384C21.3279 0.199861 21.5277 0 21.7743 0C22.0208 0 22.2206 0.199861 22.2206 0.446384V11.537C22.2206 11.7835 22.0208 11.9834 21.7743 11.9834Z" fill="#F3EAE6"/>
<path d="M21.4966 25.5948C25.3385 25.5948 28.453 22.4803 28.453 18.6385C28.453 14.7966 25.3385 11.6821 21.4966 11.6821C17.6547 11.6821 14.5403 14.7966 14.5403 18.6385C14.5403 22.4803 17.6547 25.5948 21.4966 25.5948Z" fill="#FEF48B"/>
<path d="M9.33005 14.4023C9.08353 14.4023 8.88367 14.2025 8.88367 13.9559V0.446384C8.88367 0.199861 9.08353 0 9.33005 0C9.57657 0 9.77644 0.199861 9.77644 0.446384V13.9559C9.77644 14.2025 9.57657 14.4023 9.33005 14.4023Z" fill="#F3EAE6"/>
<path d="M15.0758 15.958C14.731 16.783 14.5403 17.6884 14.5403 18.6385C14.5403 21.118 15.8379 23.2943 17.7909 24.5261C17.9484 23.872 18.0325 23.1897 18.0325 22.488C18.0324 19.8896 16.8874 17.5539 15.0758 15.958Z" fill="#FEF056"/>
<path d="M9.33004 29.9999C13.4788 29.9999 16.8421 26.6367 16.8421 22.4879C16.8421 18.3391 13.4788 14.9758 9.33004 14.9758C5.18125 14.9758 1.81799 18.3391 1.81799 22.4879C1.81799 26.6367 5.18125 29.9999 9.33004 29.9999Z" fill="#FEF48B"/>
<path d="M16.8419 22.5456C16.8495 21.5257 16.6534 20.5528 16.2927 19.6642H4.77835C5.74909 17.2732 7.91548 15.4954 10.5357 15.0726C10.1431 15.0093 9.74048 14.9758 9.33005 14.9758C5.18129 14.9758 1.81799 18.3391 1.81799 22.4879C1.81799 26.6366 5.18123 29.9999 9.33005 29.9999C9.74054 29.9999 10.1431 29.9665 10.5357 29.9032C7.69098 29.4442 5.38127 27.388 4.55594 24.684C4.23109 23.6198 5.03779 22.5461 6.15048 22.5461H16.8413C16.8416 22.5459 16.8417 22.5457 16.8419 22.5456Z" fill="#FEF056"/>
<path d="M19.566 20.9767C19.2571 18.728 18.2101 16.646 16.5982 15.0503L14.9942 20.2583L14.7106 20.1709C14.9048 21.0342 15.2589 21.837 15.7411 22.5459H18.1987C18.5975 22.5459 18.9765 22.3735 19.2386 22.0729C19.501 21.7719 19.6204 21.3722 19.566 20.9767Z" fill="#FEF056"/>
<path d="M29.5618 18.2236C29.6633 18.2236 29.7406 18.1336 29.7268 18.0331C29.1896 14.1209 25.8342 11.1072 21.7743 11.1072C17.7145 11.1072 14.3591 14.1209 13.8219 18.0331C13.8081 18.1336 13.8855 18.2236 13.987 18.2236H29.5618Z" fill="#F3EAE6"/>
<path d="M23.1755 11.2287C22.7207 11.1487 22.252 11.1072 21.7743 11.1072C17.7148 11.1072 14.3596 14.1205 13.8219 18.0323C13.8081 18.1332 13.885 18.2236 13.9869 18.2236H14.3335H16.7876H18.7845C18.499 17.5771 18.1471 16.9611 17.7346 16.385C17.4475 15.9841 17.4247 15.4525 17.6773 15.029C18.8496 13.0634 20.8383 11.6399 23.1755 11.2287Z" fill="#EFE2DD"/>
<path d="M18.1987 21.3556C18.3143 21.3556 18.4023 21.2532 18.3866 21.1387C17.7748 16.6834 13.9536 13.2512 9.33009 13.2512C4.70662 13.2512 0.885391 16.6833 0.273547 21.1387C0.257834 21.2532 0.345921 21.3556 0.461445 21.3556H18.1987Z" fill="#F3EAE6"/>
<path d="M18.1941 20.149H6.04791C5.13961 20.149 4.48658 19.2661 4.7631 18.4009C5.46172 16.2153 6.96002 14.3871 8.914 13.2607C4.47902 13.4594 0.866819 16.8178 0.273545 21.1389C0.257832 21.2533 0.346038 21.3556 0.461503 21.3556H18.1987C18.3141 21.3556 18.4024 21.2534 18.3867 21.1391C18.3406 20.8029 18.2758 20.4726 18.1941 20.149Z" fill="#EFE2DD"/>
<path d="M10.4635 13.3188H8.19659C6.3929 13.3188 4.93066 11.8566 4.93066 10.0529V9.39715C4.93066 9.28984 5.01762 9.20288 5.12493 9.20288H13.5351C13.6424 9.20288 13.7294 9.28984 13.7294 9.39715V10.0529C13.7294 11.8565 12.2672 13.3188 10.4635 13.3188Z" fill="#B9ACAC"/>
<path d="M7.24407 10.0529V9.39715C7.24407 9.2899 7.33102 9.20288 7.43833 9.20288H5.12505C5.01774 9.20288 4.93079 9.28984 4.93079 9.39715V10.0529C4.93079 11.8565 6.39296 13.3188 8.19671 13.3188H10.4636C10.4714 13.3188 10.479 13.3182 10.4868 13.3182C8.69381 13.3056 7.24407 11.8487 7.24407 10.0529Z" fill="#9E9797"/>
<path d="M22.6002 11.1235H20.9484C19.1447 11.1235 17.6825 9.66137 17.6825 7.85762V7.48968C17.6825 7.38237 17.7695 7.29541 17.8768 7.29541H25.6718C25.7791 7.29541 25.8661 7.38237 25.8661 7.48968V7.85762C25.8661 9.66137 24.4039 11.1235 22.6002 11.1235Z" fill="#B9ACAC"/>
<path d="M19.8275 7.85762V7.48968C19.8275 7.38237 19.9144 7.29541 20.0217 7.29541H17.8768C17.7695 7.29541 17.6825 7.38237 17.6825 7.48968V7.85762C17.6825 9.66131 19.1447 11.1235 20.9484 11.1235H22.6002C22.6832 11.1235 22.7653 11.1194 22.8467 11.1133C21.1584 10.9871 19.8275 9.57822 19.8275 7.85762Z" fill="#9E9797"/>
</g>
<defs>
<clipPath id="clip0_117_10358">
<rect width="30" height="30" fill="white"/>
</clipPath>
</defs>
</svg>
