<svg width="25" height="25" viewBox="0 0 25 25" fill="none" xmlns="http://www.w3.org/2000/svg">
<g clip-path="url(#clip0_121_14701)">
<path d="M6.89722 11.1328H1.69653C0.761035 11.1328 0 10.3718 0 9.43628V4.2356C0 3.3001 0.761035 2.53906 1.69653 2.53906H6.89722C7.83272 2.53906 8.59375 3.3001 8.59375 4.2356V9.43628C8.59375 10.3718 7.83272 11.1328 6.89722 11.1328ZM1.69653 4.10156C1.62261 4.10156 1.5625 4.16167 1.5625 4.2356V9.43628C1.5625 9.51021 1.62261 9.57031 1.69653 9.57031H6.89722C6.97114 9.57031 7.03125 9.51021 7.03125 9.43628V4.2356C7.03125 4.16167 6.97114 4.10156 6.89722 4.10156H1.69653Z" fill="#777777"/>
<path d="M6.89722 22.4609H1.69653C0.761035 22.4609 0 21.6999 0 20.7644V15.5637C0 14.6282 0.761035 13.8672 1.69653 13.8672H6.89722C7.83272 13.8672 8.59375 14.6282 8.59375 15.5637V20.7644C8.59375 21.6999 7.83272 22.4609 6.89722 22.4609ZM1.69653 15.4297C1.62261 15.4297 1.5625 15.4898 1.5625 15.5637V20.7644C1.5625 20.8383 1.62261 20.8984 1.69653 20.8984H6.89722C6.97114 20.8984 7.03125 20.8383 7.03125 20.7644V15.5637C7.03125 15.4898 6.97114 15.4297 6.89722 15.4297H1.69653Z" fill="#777777"/>
<path d="M24.2188 6.44531H11.7188C11.2873 6.44531 10.9375 6.09551 10.9375 5.66406C10.9375 5.23262 11.2873 4.88281 11.7188 4.88281H24.2188C24.6502 4.88281 25 5.23262 25 5.66406C25 6.09551 24.6502 6.44531 24.2188 6.44531Z" fill="#777777"/>
<path d="M19.9219 9.375H11.7188C11.2873 9.375 10.9375 9.0252 10.9375 8.59375C10.9375 8.1623 11.2873 7.8125 11.7188 7.8125H19.9219C20.3533 7.8125 20.7031 8.1623 20.7031 8.59375C20.7031 9.0252 20.3533 9.375 19.9219 9.375Z" fill="#777777"/>
<path d="M24.2188 17.5781H11.7188C11.2873 17.5781 10.9375 17.2283 10.9375 16.7969C10.9375 16.3654 11.2873 16.0156 11.7188 16.0156H24.2188C24.6502 16.0156 25 16.3654 25 16.7969C25 17.2283 24.6502 17.5781 24.2188 17.5781Z" fill="#777777"/>
<path d="M19.9219 20.7031H11.7188C11.2873 20.7031 10.9375 20.3533 10.9375 19.9219C10.9375 19.4904 11.2873 19.1406 11.7188 19.1406H19.9219C20.3533 19.1406 20.7031 19.4904 20.7031 19.9219C20.7031 20.3533 20.3533 20.7031 19.9219 20.7031Z" fill="#777777"/>
</g>
<defs>
<clipPath id="clip0_121_14701">
<rect width="25" height="25" fill="white"/>
</clipPath>
</defs>
</svg>
