<svg width="27" height="27" viewBox="0 0 27 27" fill="none" xmlns="http://www.w3.org/2000/svg">
<g clip-path="url(#clip0_44_2187)">
<path d="M13.4552 24.7126H3.36377C2.74482 24.7126 2.24253 24.2103 2.24253 23.5914V3.40862C2.24253 2.78968 2.74488 2.28738 3.36377 2.28738H13.4552C14.0752 2.28738 14.5764 1.78619 14.5764 1.16614C14.5764 0.546093 14.0752 0.0447998 13.4552 0.0447998H3.36377C1.50921 0.0447998 0 1.55406 0 3.40862V23.5913C0 25.4459 1.50921 26.9551 3.36377 26.9551H13.4552C14.0752 26.9551 14.5764 26.4539 14.5764 25.8339C14.5764 25.2138 14.0752 24.7126 13.4552 24.7126Z" fill="black"/>
<path d="M26.666 12.7016L19.8487 5.97405C19.4091 5.53899 18.6983 5.54463 18.2632 5.98528C17.8282 6.42593 17.8326 7.13568 18.2745 7.57074L23.1463 12.3787H10.0915C9.4714 12.3787 8.97021 12.8799 8.97021 13.4999C8.97021 14.12 9.4714 14.6212 10.0915 14.6212H23.1463L18.2745 19.4292C17.8327 19.8642 17.8293 20.574 18.2632 21.0146C18.483 21.2366 18.7723 21.3488 19.0616 21.3488C19.3464 21.3488 19.6312 21.2411 19.8487 21.0258L26.666 14.2982C26.879 14.0874 27.0001 13.8004 27.0001 13.4999C27.0001 13.1995 26.8801 12.9136 26.666 12.7016Z" fill="black"/>
</g>
<defs>
<clipPath id="clip0_44_2187">
<rect width="27" height="27" fill="white"/>
</clipPath>
</defs>
</svg>
