<svg width="30" height="30" viewBox="0 0 30 30" fill="none" xmlns="http://www.w3.org/2000/svg">
<path d="M21.432 3.00056H18.1091V0.446045H21.432C21.5803 0.446045 21.7006 0.566279 21.7006 0.714639V2.73202C21.7006 2.88032 21.5803 3.00056 21.432 3.00056Z" fill="#E7A561"/>
<path d="M21.432 0.446045H20.3054C20.4538 0.446045 20.574 0.566279 20.574 0.714639V2.73196C20.574 2.88032 20.4538 3.00056 20.3054 3.00056H21.432C21.5804 3.00056 21.7006 2.88032 21.7006 2.73196V0.714639C21.7006 0.566338 21.5804 0.446045 21.432 0.446045Z" fill="#E49542"/>
<path d="M8.69438 4.55176H21.3054C24.193 4.55176 26.5339 6.89264 26.5339 9.78025V16.702C26.5339 16.9867 26.3031 17.2174 26.0184 17.2174H13.9229L7.30542 9.5358L8.69438 4.55176Z" fill="#9DC6FB"/>
<path d="M21.3054 4.55176H19.772C22.6596 4.55176 25.0005 6.89264 25.0005 9.78025V16.702C25.0005 16.9866 24.7697 17.2174 24.485 17.2174H26.0184C26.3031 17.2174 26.5339 16.9866 26.5339 16.702V9.78031C26.5339 6.89264 24.193 4.55176 21.3054 4.55176Z" fill="#80B4FB"/>
<path d="M13.9229 17.2174H3.98127C3.69656 17.2174 3.46582 16.9866 3.46582 16.702V9.78025C3.46582 6.89264 5.8067 4.55176 8.69438 4.55176C11.582 4.55176 13.9229 6.89264 13.9229 9.78025L13.9229 17.2174Z" fill="#26457D"/>
<path d="M8.69449 4.55176C8.50066 4.55176 8.30941 4.56266 8.12109 4.58316C10.7389 4.86881 12.7762 7.08641 12.7762 9.78025V17.2174H13.923V9.78031C13.923 6.89264 11.5821 4.55176 8.69449 4.55176Z" fill="#21386B"/>
<path d="M18.9676 19.688H14.2303C13.6661 19.688 13.2087 19.2306 13.2087 18.6664V17.2173H19.9892V18.6664C19.9892 19.2306 19.5318 19.688 18.9676 19.688Z" fill="#F9F6F6"/>
<path d="M18.5982 17.2175V18.6666C18.5982 19.2308 18.1409 19.6882 17.5767 19.6882H18.9679C19.532 19.6882 19.9894 19.2308 19.9894 18.6666V17.2175H18.5982Z" fill="#DDDAEC"/>
<path d="M17.8097 29.9999H15.3887C15.2232 29.9999 15.0891 29.8658 15.0891 29.7003V19.688H18.1093V29.7003C18.1093 29.8657 17.9751 29.9999 17.8097 29.9999Z" fill="#DDDAEC"/>
<path d="M15.0891 19.688V20.8375C16.1131 20.8375 16.9433 21.6676 16.9433 22.6917V29.9999H17.8097C17.9752 29.9999 18.1093 29.8658 18.1093 29.7003V19.688H15.0891Z" fill="#D0CEE7"/>
<path d="M18.1091 7.08574C17.8628 7.08574 17.6631 6.88611 17.6631 6.63979V0.445957C17.6631 0.199629 17.8627 0 18.1091 0C18.3555 0 18.5551 0.199629 18.5551 0.445957V6.63973C18.5551 6.88605 18.3554 7.08574 18.1091 7.08574Z" fill="#21386B"/>
<path d="M13.923 17.2175H7.54761V10.9794C7.54761 10.7652 7.72128 10.5916 7.9355 10.5916H13.923V17.2175Z" fill="#FFE07D"/>
<path d="M12.7761 10.5916H13.9229V17.2175H12.7761V10.5916Z" fill="#FFD064"/>
<path d="M7.93536 10.5916C7.83481 10.5916 7.74347 10.6302 7.67456 10.6929L12.5115 13.8007C12.7169 13.9327 12.9853 13.9109 13.1667 13.7475L13.9228 13.0666V10.5916H7.93536Z" fill="#E7A561"/>
<path d="M12.7761 10.5916V13.8855C12.9161 13.8928 13.0573 13.8461 13.1669 13.7475L13.9229 13.0666V10.5916H12.7761Z" fill="#E49542"/>
<path d="M23.0194 14.6642H18.0512C17.7891 14.6642 17.5767 14.4517 17.5767 14.1896V12.7136C17.5767 12.4515 17.7891 12.239 18.0512 12.239H23.0194C23.2815 12.239 23.4939 12.4515 23.4939 12.7136V14.1896C23.4939 14.4517 23.2815 14.6642 23.0194 14.6642Z" fill="#F9F6F6"/>
<path d="M23.0193 12.239H21.6892C21.9513 12.239 22.1638 12.4515 22.1638 12.7136V14.1896C22.1638 14.4517 21.9513 14.6642 21.6892 14.6642H23.0193C23.2814 14.6642 23.4939 14.4517 23.4939 14.1896V12.7136C23.4939 12.4515 23.2814 12.239 23.0193 12.239Z" fill="#DDDAEC"/>
</svg>
