<svg width="49" height="30" viewBox="0 0 49 30" fill="none" xmlns="http://www.w3.org/2000/svg">
<g clip-path="url(#clip0_44_1233)">
<path d="M1.6685 0H46.7186C47.6404 0 48.3871 0.753766 48.3871 1.68431V25.2648C48.3871 26.1954 47.6404 26.9492 46.7186 26.9492H1.6685C0.746692 26.9492 0 26.1956 0 25.2649V1.68441C0 0.753766 0.746692 0 1.6685 0Z" fill="#346AE5"/>
<path d="M36.163 0H34.1256V26.9492H36.163V0Z" fill="#126099"/>
<path d="M31.5789 5.08472H3.05603V21.8644H31.5789V5.08472Z" fill="#87CED9"/>
<path d="M5.91543 26.9988H2.59216V29.9912H5.91543V26.9988Z" fill="#126099"/>
<path d="M45.7949 26.9988H42.4717V29.9912H45.7949V26.9988Z" fill="#126099"/>
<path d="M17.4756 8.87783L12.8708 13.5368L11.6871 12.3391L16.2918 7.68015L17.4756 8.87783Z" fill="#EBEBEB"/>
<path d="M22.5031 8.87729L13.7138 17.7701L12.5301 16.5724L21.3193 7.67961L22.5031 8.87729Z" fill="#EBEBEB"/>
<path d="M22.9171 13.5384L18.7326 17.7722L17.5488 16.5745L21.7333 12.3407L22.9171 13.5384Z" fill="#EBEBEB"/>
<path d="M42.0204 21.8644C43.8488 21.8644 45.331 20.3846 45.331 18.5593C45.331 16.7339 43.8488 15.2542 42.0204 15.2542C40.1919 15.2542 38.7097 16.7339 38.7097 18.5593C38.7097 20.3846 40.1919 21.8644 42.0204 21.8644Z" fill="#CFCFCF"/>
<path d="M42.7844 15.2542H40.747V21.8644H42.7844V15.2542Z" fill="#EBEBEB"/>
<path d="M42.0204 11.6949C43.8488 11.6949 45.331 10.2151 45.331 8.3898C45.331 6.56445 43.8488 5.08472 42.0204 5.08472C40.1919 5.08472 38.7097 6.56445 38.7097 8.3898C38.7097 10.2151 40.1919 11.6949 42.0204 11.6949Z" fill="#CFCFCF"/>
<path d="M42.7844 5.08472H40.747V11.6949H42.7844V5.08472Z" fill="#EBEBEB"/>
</g>
<defs>
<clipPath id="clip0_44_1233">
<rect width="48.3871" height="30" fill="white"/>
</clipPath>
</defs>
</svg>
