<svg width="24" height="24" viewBox="0 0 24 24" fill="none" xmlns="http://www.w3.org/2000/svg">
<g clip-path="url(#clip0_121_14029)">
<path d="M21.115 10.07C21.3599 10.07 21.5963 10.16 21.7794 10.3227C21.9624 10.4855 22.0793 10.7097 22.108 10.953L22.115 11.07V16.07C22.115 17.0962 21.7206 18.0832 21.0133 18.8268C20.306 19.5704 19.34 20.0137 18.315 20.065L18.115 20.07H7.222L7.202 20.485L7.18 20.845L7.168 21.004C7.141 21.349 6.816 21.561 6.537 21.414L6.231 21.25L5.871 21.047L5.673 20.93L5.243 20.667C5.16634 20.6185 5.09001 20.5695 5.014 20.52L4.551 20.21L4.341 20.063L3.964 19.79L3.649 19.55C3.60449 19.5156 3.56015 19.4809 3.516 19.446C3.28 19.258 3.291 18.88 3.539 18.684L3.819 18.467L4.159 18.215L4.559 17.933L5.015 17.628C5.176 17.524 5.33 17.427 5.477 17.337L5.893 17.088L6.258 16.883L6.565 16.718C6.84 16.575 7.137 16.754 7.163 17.078L7.189 17.425L7.212 17.84L7.222 18.07H18.115C18.6196 18.0702 19.1056 17.8796 19.4755 17.5365C19.8455 17.1934 20.0722 16.7231 20.11 16.22L20.115 16.07V11.07C20.115 10.8048 20.2204 10.5504 20.4079 10.3629C20.5954 10.1754 20.8498 10.07 21.115 10.07ZM17.578 3.65499L17.884 3.81999L18.244 4.02299L18.442 4.13999L18.872 4.40299L19.101 4.54999L19.564 4.85999L19.774 5.00699L20.151 5.27999L20.466 5.51999L20.599 5.62399C20.835 5.81199 20.824 6.18999 20.576 6.38599L20.296 6.60299L19.956 6.85499L19.556 7.13699L19.1 7.44199C18.9473 7.54099 18.7933 7.638 18.638 7.73299L18.222 7.98199L17.857 8.187L17.55 8.35199C17.275 8.495 16.978 8.31599 16.952 7.99199L16.927 7.64499L16.903 7.22999C16.8993 7.15334 16.896 7.07668 16.893 6.99999H6C5.46957 6.99999 4.96086 7.21071 4.58579 7.58578C4.21071 7.96085 4 8.46956 4 8.99999V14C4 14.2652 3.89464 14.5196 3.70711 14.7071C3.51957 14.8946 3.26522 15 3 15C2.73478 15 2.48043 14.8946 2.29289 14.7071C2.10536 14.5196 2 14.2652 2 14V8.99999C2 7.93913 2.42143 6.92171 3.17157 6.17157C3.92172 5.42142 4.93913 4.99999 6 4.99999H16.893L16.913 4.58499L16.935 4.22499L16.947 4.06599C16.974 3.71999 17.299 3.50799 17.578 3.65499Z" fill="#2457C6"/>
</g>
<defs>
<clipPath id="clip0_121_14029">
<rect width="24" height="24" fill="white"/>
</clipPath>
</defs>
</svg>
