<svg width="30" height="30" viewBox="0 0 30 30" fill="none" xmlns="http://www.w3.org/2000/svg">
<path d="M15 30C21.8559 30 27.4138 23.2843 27.4138 15C27.4138 6.71573 21.8559 0 15 0C8.14402 0 2.58618 6.71573 2.58618 15C2.58618 23.2843 8.14402 30 15 30Z" fill="#E6C398"/>
<path d="M4.65625 15.0504C4.66299 17.2301 5.10367 19.2841 5.87541 21.0846L21.9259 5.4034C20.7202 4.04256 19.2579 3.03188 17.6421 2.49756L4.65625 15.0504Z" fill="#9ED7F6"/>
<path d="M15.0001 2.06885C9.29596 2.06885 4.65527 7.86969 4.65527 14.9999C4.65527 15.017 4.65633 15.0335 4.65633 15.0506L17.635 2.50437C16.7929 2.22559 15.9115 2.06885 15.0001 2.06885Z" fill="#B7F6FF"/>
<path d="M21.926 5.40332L5.87549 21.0845C7.61959 25.1552 11.0551 27.9307 15.0001 27.9307C20.7043 27.9307 25.345 22.1299 25.345 14.9997C25.345 11.1959 24.0239 7.77174 21.926 5.40332Z" fill="#B7F6FF"/>
</svg>
