<svg width="63" height="63" viewBox="0 0 63 63" fill="none" xmlns="http://www.w3.org/2000/svg">
<g clip-path="url(#clip0_46_3120)">
<mask id="mask0_46_3120" style="mask-type:alpha" maskUnits="userSpaceOnUse" x="0" y="0" width="63" height="63">
<path d="M59.6015 35.1513C61.9 38.4101 61.8377 42.9046 60.4371 46.5006C56.131 57.557 41.9528 54.6599 32.8106 57.5815C30.5209 58.3133 28.6242 59.5784 26.528 60.6957C22.7952 62.6844 19.016 62.9107 14.8992 62.947C10.3743 62.9862 6.02764 60.2373 3.69861 56.4873C2.38135 54.3664 1.67336 51.8845 1.64359 49.3965C1.61679 47.1506 2.14476 44.9557 2.30288 42.7241C2.46214 40.4767 1.79668 38.4044 1.15205 36.2833C-0.0649148 32.2792 -0.383354 27.3895 0.584251 23.2852C1.46893 19.533 3.71251 16.2404 6.59727 13.6081C9.08197 11.3408 12.1786 9.6715 15.5161 9.15065C18.6096 8.66784 20.9428 8.74078 23.3652 6.49051C24.8076 5.15066 25.7751 3.58572 27.4909 2.52189C29.972 0.983356 33.6515 0.0414963 36.5698 0.0533295C40.1583 0.067276 43.7387 1.27635 47.1705 2.21317C49.7209 2.90982 52.2508 3.68443 54.7977 4.36222C57.4314 5.06326 60.2679 6.55716 61.6804 8.96222C63.1358 11.4398 63.2856 14.5309 62.3443 17.2164C62.2933 17.3608 62.2398 17.5043 62.1832 17.6465C60.7794 21.1877 57.9196 24.0319 56.9909 27.78C56.2791 30.6534 57.4735 32.4981 59.2234 34.6525C59.3574 34.8178 59.4832 34.984 59.6015 35.1513Z" fill="url(#paint0_linear_46_3120)"/>
</mask>
<g mask="url(#mask0_46_3120)">
<path d="M59.6015 35.1513C61.9 38.4101 61.8377 42.9046 60.4371 46.5006C56.131 57.557 41.9528 54.6599 32.8106 57.5815C30.5209 58.3133 28.6242 59.5784 26.528 60.6957C22.7952 62.6844 19.016 62.9107 14.8992 62.947C10.3743 62.9862 6.02764 60.2373 3.69861 56.4873C2.38135 54.3664 1.67336 51.8845 1.64359 49.3965C1.61679 47.1506 2.14476 44.9557 2.30288 42.7241C2.46214 40.4767 1.79668 38.4044 1.15205 36.2833C-0.0649148 32.2792 -0.383354 27.3895 0.584251 23.2852C1.46893 19.533 3.71251 16.2404 6.59727 13.6081C9.08197 11.3408 12.1786 9.6715 15.5161 9.15065C18.6096 8.66784 20.9428 8.74078 23.3652 6.49051C24.8076 5.15066 25.7751 3.58572 27.4909 2.52189C29.972 0.983356 33.6515 0.0414963 36.5698 0.0533295C40.1583 0.067276 43.7387 1.27635 47.1705 2.21317C49.7209 2.90982 52.2508 3.68443 54.7977 4.36222C57.4314 5.06326 60.2679 6.55716 61.6804 8.96222C63.1358 11.4398 63.2856 14.5309 62.3443 17.2164C62.2933 17.3608 62.2398 17.5043 62.1832 17.6465C60.7794 21.1877 57.9196 24.0319 56.9909 27.78C56.2791 30.6534 57.4735 32.4981 59.2234 34.6525C59.3574 34.8178 59.4832 34.984 59.6015 35.1513Z" fill="url(#paint1_linear_46_3120)"/>
</g>
<path d="M50.3626 50.0255H30.2522C28.8506 50.0255 27.7144 48.8901 27.7144 47.4895L27.7144 8.25387C27.7144 6.85322 28.8506 5.71777 30.2522 5.71777H50.3626C51.7643 5.71777 52.9006 6.85322 52.9006 8.25387V47.4895C52.9006 48.8901 51.7643 50.0255 50.3626 50.0255Z" fill="#F0F4FF"/>
<path d="M32.0154 7.95251H29.7693C29.7036 7.95251 29.6504 7.89932 29.6504 7.83368V7.82318C29.6504 7.75754 29.7036 7.70435 29.7693 7.70435H32.0154C32.0811 7.70435 32.1343 7.75754 32.1343 7.82318V7.83368C32.1343 7.89932 32.0811 7.95251 32.0154 7.95251Z" fill="#4E77F7"/>
<path d="M32.0154 8.65576H29.7693C29.7036 8.65576 29.6504 8.60251 29.6504 8.53687V8.52637C29.6504 8.46073 29.7036 8.40753 29.7693 8.40753H32.0154C32.0811 8.40753 32.1343 8.46073 32.1343 8.52637V8.53687C32.1343 8.60251 32.0811 8.65576 32.0154 8.65576Z" fill="#4E77F7"/>
<path d="M32.0154 9.35889H29.7693C29.7036 9.35889 29.6504 9.3057 29.6504 9.24005V9.22949C29.6504 9.16385 29.7036 9.11066 29.7693 9.11066H32.0154C32.0811 9.11066 32.1343 9.16385 32.1343 9.22949V9.24005C32.1343 9.3057 32.0811 9.35889 32.0154 9.35889Z" fill="#4E77F7"/>
<path d="M45.1563 22.6499H35.4583C35.3926 22.6499 35.3394 22.5966 35.3394 22.531V22.5205C35.3394 22.4549 35.3926 22.4017 35.4583 22.4017H45.1563C45.222 22.4017 45.2752 22.4549 45.2752 22.5205V22.531C45.2752 22.5966 45.222 22.6499 45.1563 22.6499Z" fill="#4E77F7"/>
<path d="M44.2966 21.5118H36.3182C36.2525 21.5118 36.1992 21.4586 36.1992 21.3929V21.3824C36.1992 21.3168 36.2525 21.2636 36.3182 21.2636H44.2966C44.3623 21.2636 44.4156 21.3168 44.4156 21.3824V21.3929C44.4156 21.4586 44.3623 21.5118 44.2966 21.5118Z" fill="#4E77F7"/>
<path d="M44.4155 15.4306C44.4155 17.761 42.5249 19.6501 40.1927 19.6501C37.8606 19.6501 35.97 17.761 35.97 15.4306C35.97 13.1002 37.8606 11.211 40.1927 11.211C42.5249 11.211 44.4155 13.1002 44.4155 15.4306Z" fill="#4E77F7"/>
<path d="M43.2335 17.8735C43.2937 17.5785 42.9232 17.3469 42.6478 17.2247C42.1572 17.0072 41.1243 16.9971 40.9451 16.4337C40.7414 15.7936 41.5346 15.0549 41.3905 14.3952C41.3001 13.9812 41.0387 13.5792 40.6393 13.4372C40.4952 13.3861 40.3409 13.3707 40.188 13.3649H40.1974C40.0446 13.3707 39.8904 13.3861 39.7463 13.4372C39.3467 13.5792 39.0855 13.9812 38.9951 14.3952C38.851 15.0549 39.6441 15.7936 39.4405 16.4337C39.2612 16.9971 38.2284 17.0072 37.7377 17.2247C37.4622 17.3469 37.0917 17.5785 37.152 17.8735C37.152 17.8735 38.1853 19.3868 40.2636 19.3868C42.2259 19.3868 43.2335 17.8735 43.2335 17.8735Z" fill="white"/>
<path d="M42.7914 46.3968C42.7914 47.7676 41.6793 48.8789 40.3074 48.8789C38.9356 48.8789 37.8235 47.7676 37.8235 46.3968C37.8235 45.0259 38.9356 43.9147 40.3074 43.9147C41.6793 43.9147 42.7914 45.0259 42.7914 46.3968Z" fill="#4E77F7"/>
<path d="M38.8601 45.9022C39.1678 46.1885 39.4755 46.4748 39.7832 46.7611C39.9554 46.9213 40.1678 47.1834 40.4386 47.1345C40.7221 47.0834 40.9655 46.6962 41.149 46.5028C41.4652 46.1694 41.7813 45.8361 42.0975 45.5028C42.1817 45.414 41.9067 45.269 41.836 45.3436C41.3905 45.8132 40.9504 46.2886 40.4994 46.7528C40.4635 46.7917 40.4263 46.8293 40.3876 46.8656C40.2713 46.9425 40.1803 46.9282 40.1148 46.8225C39.9887 46.7502 39.87 46.5947 39.7632 46.4953C39.5288 46.2772 39.2944 46.0591 39.0599 45.8409C38.9743 45.7613 38.7101 45.7626 38.8601 45.9022Z" fill="white"/>
<path d="M47.3019 36.4058H33.0834C31.976 36.4058 31.0781 35.5086 31.0781 34.402V34.2246C31.0781 33.1179 31.976 32.2208 33.0834 32.2208H47.3019C48.4094 32.2208 49.3072 33.1179 49.3072 34.2246V34.402C49.3072 35.5086 48.4094 36.4058 47.3019 36.4058Z" fill="white"/>
<path d="M35.4375 34.3132C35.4375 34.793 35.0483 35.182 34.5681 35.182C34.088 35.182 33.6987 34.793 33.6987 34.3132C33.6987 33.8334 34.088 33.4445 34.5681 33.4445C35.0483 33.4445 35.4375 33.8334 35.4375 34.3132Z" fill="#DDE4FF"/>
<path d="M47.1481 33.8038H37.2298C37.1641 33.8038 37.1108 33.7506 37.1108 33.685V33.6744C37.1108 33.6088 37.1641 33.5556 37.2298 33.5556H47.1481C47.2138 33.5556 47.2671 33.6088 47.2671 33.6744V33.685C47.2671 33.7506 47.2138 33.8038 47.1481 33.8038Z" fill="#DDE4FF"/>
<path d="M47.1481 35.0709H37.2298C37.1641 35.0709 37.1108 35.0177 37.1108 34.9521V34.9415C37.1108 34.8759 37.1641 34.8227 37.2298 34.8227H47.1481C47.2138 34.8227 47.2671 34.8759 47.2671 34.9415V34.9521C47.2671 35.0177 47.2138 35.0709 47.1481 35.0709Z" fill="#DDE4FF"/>
<path d="M47.3019 41.5431H33.0834C31.976 41.5431 31.0781 40.646 31.0781 39.5394V39.3619C31.0781 38.2553 31.976 37.3581 33.0834 37.3581H47.3019C48.4094 37.3581 49.3072 38.2553 49.3072 39.3619V39.5394C49.3072 40.646 48.4094 41.5431 47.3019 41.5431Z" fill="white"/>
<path d="M35.4375 39.4506C35.4375 39.9304 35.0483 40.3193 34.5681 40.3193C34.088 40.3193 33.6987 39.9304 33.6987 39.4506C33.6987 38.9708 34.088 38.5819 34.5681 38.5819C35.0483 38.5819 35.4375 38.9708 35.4375 39.4506Z" fill="#DDE4FF"/>
<path d="M47.1481 38.9412H37.2298C37.1641 38.9412 37.1108 38.888 37.1108 38.8223V38.8118C37.1108 38.7462 37.1641 38.6929 37.2298 38.6929H47.1481C47.2138 38.6929 47.2671 38.7462 47.2671 38.8118V38.8223C47.2671 38.888 47.2138 38.9412 47.1481 38.9412Z" fill="#DDE4FF"/>
<path d="M47.1481 40.2083H37.2298C37.1641 40.2083 37.1108 40.1551 37.1108 40.0894V40.0789C37.1108 40.0132 37.1641 39.96 37.2298 39.96H47.1481C47.2138 39.96 47.2671 40.0132 47.2671 40.0789V40.0894C47.2671 40.1551 47.2138 40.2083 47.1481 40.2083Z" fill="#DDE4FF"/>
<path d="M32.5276 29.8802H25.2114C24.6902 29.8802 24.2676 29.458 24.2676 28.9371V25.8591C24.2676 25.3383 24.6902 24.916 25.2114 24.916H32.5276C33.0489 24.916 33.4714 25.3383 33.4714 25.8591V28.9371C33.4714 29.458 33.0489 29.8802 32.5276 29.8802Z" fill="white"/>
<path d="M29.8902 28.2493C29.8902 28.7291 29.501 29.118 29.0208 29.118C28.5407 29.118 28.1514 28.7291 28.1514 28.2493C28.1514 27.7695 28.5407 27.3806 29.0208 27.3806C29.501 27.3806 29.8902 27.7695 29.8902 28.2493Z" fill="#DDE4FF"/>
<path d="M31.8282 26.5442H25.9107C25.845 26.5442 25.7917 26.491 25.7917 26.4254V26.4149C25.7917 26.3492 25.845 26.296 25.9107 26.296H31.8282C31.8939 26.296 31.9472 26.3492 31.9472 26.4149V26.4254C31.9472 26.491 31.8939 26.5442 31.8282 26.5442Z" fill="#DDE4FF"/>
<path d="M43.9653 29.8802H36.6491C36.1278 29.8802 35.7053 29.458 35.7053 28.9371V25.8591C35.7053 25.3383 36.1278 24.916 36.6491 24.916H43.9653C44.4866 24.916 44.9091 25.3383 44.9091 25.8591V28.9371C44.9091 29.458 44.4866 29.8802 43.9653 29.8802Z" fill="white"/>
<path d="M41.3282 28.2493C41.3282 28.7291 40.9389 29.118 40.4587 29.118C39.9786 29.118 39.5894 28.7291 39.5894 28.2493C39.5894 27.7695 39.9786 27.3806 40.4587 27.3806C40.9389 27.3806 41.3282 27.7695 41.3282 28.2493Z" fill="#4E77F7"/>
<path d="M43.2662 26.5442H37.3487C37.283 26.5442 37.2297 26.491 37.2297 26.4254V26.4149C37.2297 26.3492 37.283 26.296 37.3487 26.296H43.2662C43.3319 26.296 43.3851 26.3492 43.3851 26.4149V26.4254C43.3851 26.491 43.3319 26.5442 43.2662 26.5442Z" fill="#4E77F7"/>
<path d="M55.4034 29.8802H48.0871C47.5659 29.8802 47.1433 29.458 47.1433 28.9371V25.8591C47.1433 25.3383 47.5659 24.916 48.0871 24.916H55.4034C55.9246 24.916 56.3472 25.3383 56.3472 25.8591V28.9371C56.3472 29.458 55.9246 29.8802 55.4034 29.8802Z" fill="white"/>
<path d="M52.7661 28.2493C52.7661 28.7291 52.3769 29.118 51.8967 29.118C51.4166 29.118 51.0273 28.7291 51.0273 28.2493C51.0273 27.7695 51.4166 27.3806 51.8967 27.3806C52.3769 27.3806 52.7661 27.7695 52.7661 28.2493Z" fill="#DDE4FF"/>
<path d="M54.7039 26.5442H48.7864C48.7207 26.5442 48.6675 26.491 48.6675 26.4254V26.4149C48.6675 26.3492 48.7207 26.296 48.7864 26.296H54.7039C54.7696 26.296 54.8229 26.3492 54.8229 26.4149V26.4254C54.8229 26.491 54.7696 26.5442 54.7039 26.5442Z" fill="#DDE4FF"/>
<path d="M47.6675 14.3214C47.8356 14.5055 48.0037 14.6897 48.1718 14.8739C48.3444 15.0629 48.5512 15.2015 48.2996 15.4206C48.0134 15.6698 47.7513 15.9435 47.509 16.2353C47.4403 16.318 47.7383 16.3879 47.8072 16.3048C47.9826 16.0936 48.167 15.891 48.3665 15.7023C48.467 15.6073 48.7457 15.4479 48.7795 15.2996C48.8142 15.147 48.6207 15.0072 48.5337 14.9119C48.3375 14.6971 48.1414 14.4822 47.9453 14.2674C47.8787 14.1944 47.5727 14.2176 47.6675 14.3214Z" fill="#DDE4FF"/>
<path d="M49.5699 7.94863C49.8883 7.77811 50.2848 7.89782 50.4555 8.21603C50.6261 8.53424 50.5063 8.93041 50.1879 9.10092C49.8694 9.27144 49.4729 9.15172 49.3023 8.83352C49.1317 8.51537 49.2515 8.11914 49.5699 7.94863ZM49.6113 9.3836C49.665 9.39983 49.7191 9.41052 49.773 9.41649L49.8668 9.63196L50.1822 9.58669L50.2112 9.356C50.2666 9.33362 50.3196 9.30589 50.3695 9.27313L50.5758 9.37587L50.7883 9.13858L50.6671 8.95084C50.6961 8.89746 50.7202 8.84043 50.7385 8.78001C50.7389 8.77863 50.7392 8.77725 50.7397 8.7758L50.9542 8.72431L50.9644 8.4061L50.7596 8.34285C50.7465 8.27708 50.726 8.21326 50.6989 8.15246L50.8249 7.98208L50.6281 7.73184L50.4366 7.81238C50.3832 7.76975 50.3246 7.73265 50.2612 7.70254L50.2485 7.49656L49.9367 7.43136L49.842 7.61577C49.7726 7.61816 49.7044 7.62853 49.6385 7.64633L49.4946 7.49493L49.2138 7.64526L49.2613 7.85362C49.2129 7.89789 49.1691 7.94762 49.131 8.00226L48.916 7.97786L48.7975 8.27343L48.9755 8.4083C48.9678 8.47092 48.9668 8.53329 48.9721 8.59466L48.7834 8.71946L48.8828 9.02195L49.115 9.01051C49.1471 9.05987 49.1839 9.10627 49.2252 9.14877L49.159 9.37273L49.4297 9.5406L49.6024 9.38065C49.6054 9.38159 49.6083 9.38266 49.6113 9.3836Z" fill="#4E77F7"/>
<path d="M20.9008 15.031C20.2263 15.313 19.9706 16.5026 19.7194 17.0197C19.3137 17.855 18.908 18.6903 18.5023 19.5256C18.3307 19.8788 18.1553 20.2793 18.2815 20.6514C18.3909 20.9739 18.6446 21.055 18.8823 21.2496C19.0681 21.4017 19.1856 21.5855 19.47 21.4762C19.666 21.4008 19.8019 21.2149 19.8759 21.0177C20.0242 20.6223 19.9692 20.2021 20.0889 19.8101C20.242 19.3081 20.452 18.8152 20.6774 18.3381C20.733 18.2202 20.7962 18.0967 20.9125 18.0271C21.1105 17.9088 21.3738 17.9917 21.6041 17.947C21.8223 17.9048 21.999 17.7465 22.1028 17.5627C22.2067 17.3788 22.2476 17.1705 22.2791 16.9648C22.3389 16.5749 22.3684 16.1698 22.2427 15.7937C22.117 15.4177 21.8073 15.0739 21.3943 14.9899C21.208 14.9519 21.0448 14.9708 20.9008 15.031Z" fill="#FFAC98"/>
<path d="M9.83186 42.2838C9.68161 42.2727 9.52248 42.2633 9.38877 42.3325C9.21001 42.425 9.12551 42.6307 9.06498 42.8225C8.86577 43.4538 8.77208 44.1183 8.78907 44.7801C8.79454 44.9927 8.83726 45.2449 9.03075 45.3334C9.17628 45.4 9.35328 45.3391 9.47346 45.2336C9.59371 45.128 9.67255 44.9847 9.76221 44.8522C10.2519 44.1286 11.1435 43.6968 12.0152 43.7611C12.2572 43.779 12.5416 43.8171 12.7043 43.6374C12.8854 43.4376 12.8694 42.9117 12.7499 42.6857C12.6155 42.4318 12.4717 42.4508 12.2105 42.4398C11.4172 42.4059 10.6245 42.3424 9.83186 42.2838Z" fill="#FFAC98"/>
<path d="M17.1588 53.4151C17.1603 53.8422 17.1615 54.2721 17.0851 54.6923C17.0455 54.9099 16.9852 55.1246 16.9707 55.3453C16.9394 55.825 17.126 56.2895 17.3159 56.7314C17.4149 56.9609 17.5172 57.1929 17.6689 57.3922C17.8207 57.5909 18.0287 57.7575 18.2733 57.8122C18.3314 57.8248 18.3925 57.8311 18.45 57.8154C18.6229 57.7682 18.6835 57.5557 18.694 57.3771C18.744 56.5278 18.3324 55.7095 18.3313 54.8588C18.3301 53.9267 18.8176 53.0649 18.962 52.1441C18.9705 52.0902 18.9737 52.0253 18.9309 51.9914C18.9084 51.9735 18.8782 51.9693 18.8496 51.9657C18.5374 51.9265 18.2253 51.8873 17.9132 51.8482C17.7293 51.8251 17.3395 51.7078 17.1957 51.8823C17.0867 52.0145 17.1552 52.3557 17.1557 52.509C17.1567 52.811 17.1578 53.113 17.1588 53.4151Z" fill="#FFAC98"/>
<path d="M18.2824 29.9026C24.1198 34.3952 26.6847 39.3371 25.0369 42.7848C23.4708 46.0614 20.7664 47.5752 18.9779 52.4899C18.9194 52.6506 16.8549 52.3161 16.8549 52.3161C16.9385 50.6959 17.3614 48.0113 17.7396 46.4335C20.7375 33.9262 11.4398 36.3642 10.6646 35.6611C9.53439 34.6359 8.47738 33.2153 8.75197 31.6648C9.02989 30.0961 10.1053 28.7855 11.3886 27.8981C11.7786 27.6283 13.2382 26.7127 13.6387 26.7503C13.7609 26.7618 13.8962 26.7765 13.99 26.8556C15.4258 28.0659 17.8749 29.589 18.2824 29.9026Z" fill="#1423A4"/>
<path d="M13.9899 26.8376C14.7027 27.1347 15.6902 27.3137 16.1931 27.9449C16.4582 28.2775 18.2422 28.6845 18.3874 29.0842C19.5197 32.1994 21.2766 33.2711 22.4622 36.3629C23.5047 39.0819 22.7699 42.6905 20.4005 44.4649C17.9336 46.3124 14.3577 46.1176 12.0156 44.5077C12.1143 43.7057 12.0276 42.974 11.9526 42.1746C13.3273 42.0108 14.7264 41.9269 15.9405 41.2621C16.2408 41.0977 16.5314 40.9044 16.7528 40.6433C16.9741 40.3823 17.1214 40.0455 17.1005 39.704C17.0632 39.0918 16.5798 38.4788 16.0468 38.1749C15.0421 37.6019 13.776 37.3483 12.6935 36.9409C11.4264 36.464 10.0271 35.8221 9.30325 34.6214C8.77805 33.7502 8.57456 32.6482 8.75193 31.6468C9.02986 30.0781 10.1052 28.7675 11.3885 27.88C11.7786 27.6103 13.2382 26.6947 13.6387 26.7323C13.7608 26.7438 13.8767 26.7904 13.9899 26.8376Z" fill="#233FE1"/>
<mask id="mask1_46_3120" style="mask-type:alpha" maskUnits="userSpaceOnUse" x="8" y="26" width="15" height="20">
<path d="M13.9899 26.8555C14.7027 27.1527 15.6902 27.3317 16.1931 27.9628C16.4582 28.2954 18.1699 28.5093 18.3152 28.909C19.4475 32.0242 21.2766 33.289 22.4622 36.3809C23.5047 39.0999 22.7699 42.7084 20.4005 44.4828C17.9336 46.3303 14.3577 46.1355 12.0156 44.5257C12.1143 43.7237 12.0276 42.992 11.9526 42.1926C13.3273 42.0288 14.7264 41.9449 15.9405 41.2801C16.2408 41.1157 16.5314 40.9223 16.7528 40.6613C16.9741 40.4002 17.1214 40.0635 17.1005 39.7219C17.0631 39.1098 16.5798 38.4968 16.0468 38.1928C15.0421 37.6198 13.776 37.3663 12.6935 36.9588C11.4264 36.482 10.0271 35.84 9.30325 34.6393C8.77804 33.7681 8.57456 32.6662 8.75193 31.6648C9.02986 30.0961 10.1052 28.7855 11.3885 27.898C11.7786 27.6283 13.2382 26.7127 13.6387 26.7503C13.7608 26.7617 13.8767 26.8083 13.9899 26.8555Z" fill="#1423A4"/>
</mask>
<g mask="url(#mask1_46_3120)">
<path d="M17.5674 35.1579C17.445 34.6567 17.7337 34.089 18.209 33.8876C19.2236 33.4578 20.0739 34.6203 19.6738 35.5443C19.2728 36.4703 17.7753 36.0093 17.5674 35.1579Z" fill="#1423A4"/>
<path d="M17.1397 31.6506C16.965 31.1611 16.4931 30.8099 15.9827 30.71C15.6113 30.6373 15.2018 30.6926 14.9026 30.9242C14.5429 31.2027 14.398 31.7159 14.5272 32.1519C14.6565 32.5878 15.0374 32.9308 15.477 33.0482C16.4089 33.2972 17.5397 32.7717 17.1397 31.6506Z" fill="#1423A4"/>
<path d="M11.2531 30.4583C10.8538 30.3885 10.4184 30.5424 10.1664 30.8597C9.96863 31.1086 9.8901 31.4354 9.88727 31.7533C9.88438 32.0849 9.98008 32.4492 10.2563 32.633C10.4658 32.7725 10.734 32.7794 10.9858 32.775C11.5054 32.7657 12.1613 32.6036 12.2829 32.0255C12.4283 31.334 11.9544 30.581 11.2531 30.4583Z" fill="#1423A4"/>
<path d="M13.4897 28.9593C13.3125 28.9095 13.1537 28.818 13.0397 28.6824C12.5981 28.1577 12.7407 27.1239 13.4709 27.003C13.99 26.9171 14.7523 27.3225 14.9093 27.8899C15.1391 28.7205 14.1076 29.1329 13.4897 28.9593Z" fill="#1423A4"/>
<path d="M15.3112 36.5913C15.3326 35.9398 14.9259 35.2641 14.1956 35.0659C13.1491 34.782 12.0683 35.9948 12.3439 37.0156C12.5974 37.9545 13.7208 38.1743 14.5153 37.7959C15.0443 37.5439 15.2954 37.0742 15.3112 36.5913Z" fill="#1423A4"/>
<path d="M18.9324 38.5633C18.5523 38.7921 18.3371 39.2719 18.4333 39.7047C18.6621 40.7336 20.062 40.6591 20.5327 39.8615C21.0843 38.9268 19.7343 38.0805 18.9324 38.5633Z" fill="#1423A4"/>
<path d="M19.4239 43.2935C19.4891 43.5999 19.7239 43.8364 19.9866 43.9029C20.2493 43.9694 20.5307 43.879 20.7499 43.6964C20.9079 43.5648 21.0439 43.3685 21.0517 43.1412C21.0596 42.915 20.9366 42.7042 20.7778 42.5762C20.6189 42.4482 20.4281 42.389 20.2403 42.3388C19.7737 42.2141 19.2986 42.7041 19.4239 43.2935Z" fill="#1423A4"/>
<path d="M16.0092 44.3436C16.4435 44.3821 16.8859 44.1606 17.1336 43.8021C17.2641 43.6132 17.3445 43.3761 17.2922 43.1526C17.1371 42.4909 15.7793 41.9633 15.2572 42.4602C14.588 43.097 15.1673 44.2691 16.0092 44.3436Z" fill="#1423A4"/>
<path d="M14.0554 44.6131C14.2931 44.7602 14.446 45.0259 14.4815 45.3029C14.5048 45.4853 14.4774 45.6808 14.3693 45.8294C14.2205 46.0341 13.9486 46.1126 13.6953 46.115C12.1432 46.1302 12.9993 43.9596 14.0554 44.6131Z" fill="#1423A4"/>
<path d="M21.5982 36.5715C21.824 36.285 22.2497 36.1769 22.5849 36.3208C23.1934 36.582 23.2973 37.6126 22.59 37.8139C21.9183 38.0051 21.1048 37.1975 21.5982 36.5715Z" fill="#1423A4"/>
</g>
<path d="M9.90665 44.3337C10.0048 44.2298 10.0865 44.1344 10.2076 44.0526C10.2883 43.9981 10.3748 43.9452 10.4716 43.9337C10.5684 43.9223 10.6781 43.9639 10.7167 44.0533C10.458 44.16 10.2665 44.3802 10.085 44.593C9.87028 44.8447 9.84543 45.2485 9.78547 45.5647C9.67063 46.1696 9.44185 47.0732 8.79647 47.3229C8.717 47.3537 8.42913 47.4907 8.35098 47.4358C8.25547 47.3687 8.24811 46.8478 8.23162 46.7277C8.12466 45.9511 8.1492 42.0246 8.17141 42.0175C8.49061 41.9149 8.82359 41.8774 9.15197 41.9586C9.29921 41.995 9.45626 42.0489 9.5916 42.1164C9.63225 42.1367 10.0286 42.2984 10.0286 42.2984C9.94164 42.4388 9.86619 42.5869 9.78207 42.7277C9.70455 42.8575 9.61193 42.9735 9.54498 43.1108C9.44531 43.3152 9.36754 43.5422 9.3452 43.773C9.32469 43.9845 9.3313 44.2662 9.48577 44.4319C9.62262 44.5787 9.80006 44.4464 9.90665 44.3337Z" fill="white"/>
<path d="M8.58699 42.3316C8.56371 43.0301 8.56591 43.7306 8.57648 44.4293C8.58932 45.271 8.58328 46.1464 8.75411 46.9741C8.76468 47.0251 8.91594 46.9835 8.90443 46.9278C8.72982 46.082 8.73813 45.1867 8.72649 44.3272C8.71743 43.6542 8.71567 42.9797 8.73807 42.3069C8.74014 42.2454 8.58869 42.2805 8.58699 42.3316Z" fill="#52565B"/>
<path d="M18.4216 59.4489C18.5466 59.5816 18.6857 59.6866 18.8158 59.813C18.8292 59.8262 18.846 59.84 18.8642 59.8356C18.8772 59.8331 18.8861 59.8218 18.8939 59.8104C19.5434 58.9069 19.2285 57.5853 18.8537 56.6376C18.7715 56.4299 18.663 56.2245 18.6132 56.0071C18.5811 55.8667 18.5926 55.6653 18.4401 55.5903C18.1276 55.4365 18.2886 56.1646 18.2989 56.2784C18.3225 56.5404 18.2417 56.8334 17.9136 56.7353C17.7935 56.6994 17.7008 56.605 17.6206 56.5087C17.2957 56.1186 17.232 55.5041 17.1644 55.0211C17.1314 54.7853 17.1611 54.6111 17.0159 54.4224C16.6344 55.5346 16.1149 56.0044 16.2253 56.34C16.3404 56.69 16.6016 57.0364 16.7967 57.347C17.0197 57.701 17.259 58.0456 17.5134 58.3782C17.7977 58.7504 18.1009 59.1081 18.4216 59.4489Z" fill="#EEEEEE"/>
<path d="M16.5643 55.8514C17.0494 57.0911 17.9154 58.1078 18.8126 59.071C18.8457 59.1062 18.9955 59.1276 18.9368 59.0647C18.0459 58.1084 17.1863 57.1005 16.7046 55.8697C16.6866 55.8237 16.5383 55.7849 16.5643 55.8514Z" fill="#52565B"/>
<path d="M35.835 12.0704C35.5243 12.2889 35.2268 12.5262 34.9447 12.7807C34.8278 12.8861 34.7389 12.996 34.6389 13.1128C34.5273 13.2432 34.353 13.3407 34.2112 13.4355C34.153 13.4744 34.0762 13.5417 34.0067 13.5582C33.894 13.5849 33.742 13.4508 33.6868 13.3635C33.6056 13.2352 33.6672 13.0957 33.7433 12.973C33.9944 12.5681 34.7009 11.4287 36.2453 10.66C36.3994 10.5833 36.5625 10.5217 36.7303 10.4847C36.7564 10.4789 36.7828 10.4738 36.8094 10.4696C36.9549 10.4463 37.1033 10.4476 37.2503 10.4569C37.5397 10.475 37.8316 10.525 38.0921 10.6522C38.3855 10.7955 38.9316 11.281 38.5982 11.6393C38.4866 11.7592 38.3017 11.7695 38.1385 11.7555C37.8323 11.7292 37.5541 11.6007 37.2521 11.5679C36.7125 11.5093 36.2604 11.7713 35.835 12.0704Z" fill="#FFAC98"/>
<path d="M13.7378 26.3761C13.5892 26.2296 13.8803 25.3812 13.9394 25.2078C14.0735 24.8134 14.2684 24.4415 14.4986 24.095C14.9654 23.3925 15.5693 22.8147 16.2198 22.2844C17.0024 21.6466 17.819 20.9971 18.417 20.1691C18.4701 20.0957 18.5269 20.0171 18.6121 19.9864C18.7482 19.9373 18.8894 20.0281 19.0217 20.0865C19.5835 20.335 20.2506 19.914 20.774 19.7301C23.6455 18.7211 26.2064 18.6834 29.5349 16.5737C31.06 15.607 32.1263 14.5882 33.211 13.1453C33.331 12.9855 33.4777 12.8075 33.6776 12.8047C34.0678 12.7993 34.1854 13.4254 34.5681 13.5015C33.68 15.6619 32.7376 17.901 30.9923 19.4546C28.5371 21.6402 24.8773 22.1203 22.5247 24.4159C21.5197 25.3965 20.8398 26.6009 20.3699 27.9236C20.2192 28.348 20.1634 28.8693 19.8226 29.164C19.4737 29.4657 18.8855 29.47 18.4331 29.3792C17.9809 29.2883 17.57 29.0578 17.1771 28.8161C15.9798 28.0797 14.7388 27.3627 13.7378 26.3761Z" fill="#F97399"/>
<path d="M19.2363 20.6599C19.3326 21.4726 19.4334 22.2989 19.7578 23.058C20.0741 23.7982 20.6142 24.398 21.2143 24.9223C21.2875 24.9862 21.5901 24.9997 21.4604 24.8864C20.8741 24.3741 20.3483 23.7916 20.0407 23.0677C19.7251 22.3251 19.6316 21.5093 19.5375 20.7152C19.5252 20.6116 19.2223 20.5418 19.2363 20.6599Z" fill="#C32361"/>
<path d="M20.0688 20.9619C20.0688 20.9619 20.1226 20.931 20.2235 20.873C20.326 20.8179 20.4784 20.7396 20.6808 20.6593C20.883 20.5787 21.134 20.4943 21.4266 20.4147C21.7188 20.3339 22.0521 20.2575 22.4141 20.1728C22.776 20.0865 23.1651 19.9843 23.5734 19.8637C23.9818 19.7434 24.4086 19.6041 24.8471 19.4515C25.7232 19.1442 26.6386 18.7615 27.523 18.3172C27.9667 18.0981 28.4021 17.8625 28.821 17.6139C29.2399 17.3656 29.6438 17.1069 30.0233 16.8402C30.401 16.5712 30.7593 16.3015 31.0878 16.0314C31.4133 15.7582 31.7163 15.4931 31.9797 15.2315C32.2465 14.9733 32.4792 14.7247 32.6814 14.5006C32.8808 14.2742 33.0508 14.073 33.1829 13.9009C33.319 13.7319 33.4182 13.5933 33.4871 13.4996C33.5559 13.4059 33.5927 13.3559 33.5927 13.3559C33.5927 13.3559 33.5579 13.4072 33.4927 13.5035C33.427 13.5995 33.3345 13.7431 33.2024 13.9157C33.075 14.0919 32.9105 14.2984 32.7168 14.5313C32.5207 14.7621 32.2942 15.0187 32.0296 15.2817C31.7693 15.5493 31.4696 15.8211 31.1468 16.1017C30.8212 16.3791 30.4662 16.6581 30.0863 16.9293C29.706 17.1999 29.3011 17.4625 28.8811 17.7148C28.461 17.9672 28.0244 18.2071 27.5792 18.4296C26.687 18.8714 25.7649 19.2506 24.8829 19.5543C24.0011 19.8585 23.1575 20.0807 22.4298 20.2416C22.0658 20.3217 21.7315 20.3879 21.4383 20.4598C21.1449 20.5307 20.8929 20.6076 20.6895 20.6821C20.4862 20.757 20.3309 20.8274 20.2268 20.879C20.1238 20.9331 20.0688 20.9619 20.0688 20.9619Z" fill="#C32361"/>
<path d="M20.0972 22.1531C20.0972 22.1531 20.1063 22.1398 20.124 22.1141C20.1328 22.1012 20.1439 22.0852 20.1569 22.0662C20.1714 22.0483 20.1882 22.0275 20.2072 22.0039C20.2845 21.911 20.4133 21.7847 20.606 21.664C20.7977 21.5423 21.0494 21.427 21.3444 21.3169C21.6395 21.2071 21.9726 21.0864 22.3369 20.9558C23.0654 20.6951 23.9134 20.3857 24.8254 20.0638C25.0534 19.9835 25.285 19.9017 25.5149 19.811C25.7456 19.7207 25.9763 19.6217 26.2067 19.5174C26.6675 19.3086 27.1258 19.0747 27.5754 18.825C27.8008 18.7013 28.0252 18.5742 28.2454 18.4448C28.3555 18.3789 28.4656 18.3132 28.5753 18.2476C28.6834 18.1804 28.7911 18.1133 28.8985 18.0466C29.3261 17.7754 29.7376 17.4938 30.1268 17.2091C30.5168 16.9255 30.8807 16.634 31.2201 16.351C31.3871 16.2064 31.5515 16.0677 31.7027 15.9249C31.7788 15.8541 31.8556 15.7864 31.9274 15.7164C31.9989 15.6461 32.0691 15.5771 32.1379 15.5095C32.4116 15.2375 32.6499 14.9761 32.8552 14.739C33.0564 14.4988 33.2284 14.2856 33.3577 14.1011C33.4935 13.9211 33.5879 13.7712 33.6543 13.6703C33.7206 13.5692 33.7559 13.5153 33.7559 13.5153C33.7559 13.5153 33.7226 13.5705 33.6601 13.6739C33.5969 13.7769 33.5095 13.9316 33.3777 14.1152C33.2531 14.3038 33.0867 14.5222 32.8912 14.7689C32.7893 14.8888 32.6858 15.021 32.5674 15.152C32.5079 15.2173 32.4469 15.2843 32.3844 15.3529C32.3531 15.3871 32.3213 15.4216 32.2892 15.4566C32.256 15.4904 32.2224 15.5246 32.1884 15.5591C32.1204 15.6282 32.051 15.6988 31.9802 15.7707C31.9092 15.8423 31.8333 15.9115 31.7579 15.984C31.6083 16.1302 31.4455 16.2723 31.28 16.4205C30.9437 16.7107 30.5834 17.0113 30.1916 17.2969C29.8019 17.5853 29.39 17.8705 28.9616 18.1455C28.8537 18.2134 28.7455 18.2816 28.6369 18.3499C28.5276 18.4161 28.4179 18.4825 28.3081 18.549C28.086 18.681 27.8625 18.8097 27.6362 18.935C27.1827 19.1835 26.7201 19.4164 26.2548 19.6241C26.0222 19.728 25.7892 19.8264 25.556 19.9162C25.3225 20.0069 25.0899 20.0875 24.8614 20.1666C23.9478 20.484 23.0921 20.7714 22.3602 21.0223C21.9938 21.1463 21.658 21.2599 21.3603 21.3607C21.0637 21.4623 20.8117 21.5695 20.6187 21.6847C20.5218 21.7414 20.4414 21.8016 20.3728 21.8556C20.3061 21.9117 20.2526 21.9635 20.2124 22.0083C20.1926 22.031 20.1751 22.0512 20.16 22.0685C20.1463 22.087 20.1347 22.1025 20.1254 22.1151C20.1068 22.1401 20.0972 22.1531 20.0972 22.1531Z" fill="#C32361"/>
<path d="M20.5342 23.058C20.5342 23.058 20.5746 23.0067 20.6539 22.9136C20.7338 22.8208 20.8551 22.6877 21.0243 22.5334C21.1929 22.3784 21.4104 22.204 21.6746 22.0245C21.9397 21.8466 22.2498 21.6616 22.6046 21.4917C22.9623 21.3225 23.3672 21.1876 23.7953 21.0522C24.2238 20.9164 24.6737 20.7792 25.1219 20.5861C25.5759 20.4021 26.0386 20.202 26.5069 19.992C26.9715 19.7753 27.4417 19.5507 27.8978 19.2998L28.2414 19.1148C28.3535 19.0492 28.4657 18.9837 28.5775 18.9183C28.6886 18.8517 28.8026 18.7902 28.9106 18.7198C29.0191 18.6502 29.1273 18.5809 29.2352 18.5119C29.4537 18.3779 29.6575 18.226 29.8634 18.0826C30.0719 17.9425 30.2618 17.7827 30.4556 17.6348C30.6518 17.4896 30.8272 17.3257 31.0071 17.175C31.0953 17.0977 31.1866 17.0255 31.2696 16.9464C31.3526 16.8672 31.4345 16.789 31.5154 16.7118C31.5963 16.6346 31.676 16.5584 31.7546 16.4834C31.7948 16.4467 31.8318 16.4076 31.8679 16.3682C31.9044 16.3291 31.9406 16.2903 31.9766 16.2518C32.1194 16.0975 32.2606 15.9509 32.3907 15.8054C32.5154 15.6551 32.6349 15.5111 32.7486 15.3742C32.8057 15.3058 32.8612 15.2392 32.9153 15.1744C32.9654 15.1066 33.014 15.0407 33.0611 14.9769C33.1555 14.8491 33.2438 14.7295 33.3254 14.619C33.3659 14.5634 33.4063 14.5112 33.4421 14.4594C33.4762 14.4064 33.5088 14.356 33.5398 14.3081C33.7889 13.9254 33.9313 13.7068 33.9313 13.7068C33.9313 13.7068 33.7964 13.9303 33.5603 14.3215C33.5306 14.3703 33.4993 14.4217 33.4665 14.4757C33.432 14.5286 33.393 14.582 33.354 14.6387C33.2752 14.7517 33.1899 14.874 33.0989 15.0047C33.0533 15.07 33.0063 15.1375 32.9578 15.2069C32.9054 15.2733 32.8514 15.3417 32.796 15.4118C32.6844 15.5515 32.5669 15.6983 32.4444 15.8516C32.3161 16 32.1767 16.1496 32.0355 16.3072C32 16.3465 31.9643 16.3861 31.9282 16.426C31.8925 16.4663 31.8559 16.5063 31.8162 16.5439C31.7384 16.6207 31.6594 16.6986 31.5793 16.7776C31.4992 16.8566 31.418 16.9367 31.3358 17.0178C31.2535 17.0988 31.163 17.173 31.0754 17.2523C30.8977 17.408 30.72 17.572 30.5238 17.72C30.3294 17.87 30.1389 18.0321 29.9298 18.1743C29.7232 18.3198 29.5186 18.4739 29.2995 18.6101C29.1913 18.6802 29.0827 18.7506 28.9738 18.8213C28.8653 18.8927 28.751 18.9553 28.6395 19.023C28.5273 19.0894 28.4148 19.156 28.3022 19.2226L27.9573 19.4104C27.4971 19.6604 27.0232 19.8836 26.5553 20.0987C26.0845 20.3067 25.6175 20.5057 25.1631 20.6869C24.7111 20.8812 24.2507 21.0111 23.8222 21.1395C23.3929 21.2675 22.9886 21.3951 22.6349 21.5553C22.2811 21.7193 21.9682 21.8942 21.7002 22.0634C21.4332 22.2345 21.2123 22.402 21.0406 22.5516C20.8687 22.7012 20.7416 22.828 20.659 22.918C20.5764 23.0082 20.5342 23.058 20.5342 23.058Z" fill="#C32361"/>
<path d="M20.9651 23.6996C20.9651 23.6996 21.0118 23.6539 21.0993 23.5683C21.1432 23.5256 21.1971 23.4729 21.2607 23.4109C21.328 23.3528 21.4053 23.2861 21.4921 23.2113C21.6676 23.0643 21.8888 22.8954 22.1534 22.7168C22.2181 22.67 22.2888 22.6278 22.3603 22.5823C22.4323 22.5375 22.5054 22.4898 22.5821 22.4437C22.7375 22.3549 22.8994 22.2584 23.0741 22.1687C23.7666 21.7969 24.6099 21.4364 25.5081 21.0487C25.9573 20.8542 26.4167 20.646 26.8745 20.4142C27.3317 20.1828 27.7885 19.9312 28.235 19.6632C28.6828 19.3975 29.1216 19.1163 29.5406 18.8211C29.9601 18.5265 30.3612 18.2201 30.7355 17.907C31.1088 17.5926 31.4584 17.2754 31.775 16.9594C32.0921 16.6438 32.3763 16.3297 32.624 16.0279C32.6876 15.9537 32.7455 15.8777 32.8036 15.8045C32.8617 15.7312 32.9181 15.6595 32.9707 15.5876C33.0238 15.5162 33.0756 15.4467 33.126 15.3791C33.1743 15.31 33.2213 15.2428 33.2667 15.1777C33.3586 15.0482 33.4358 14.9211 33.512 14.8067C33.583 14.6889 33.6481 14.5807 33.707 14.483C33.7626 14.3834 33.8122 14.2944 33.8553 14.217C33.899 14.1397 33.9311 14.0714 33.9597 14.0173C34.0155 13.9084 34.0454 13.8503 34.0454 13.8503C34.0454 13.8503 34.0177 13.9095 33.9658 14.0203C33.9392 14.0754 33.9096 14.145 33.8687 14.2239C33.8278 14.3028 33.781 14.3934 33.7284 14.495C33.6721 14.5945 33.6096 14.7047 33.5417 14.8247C33.4684 14.9415 33.3944 15.0712 33.3057 15.2037C33.1343 15.4727 32.9231 15.7647 32.679 16.0724C32.1908 16.6876 31.5559 17.3554 30.8059 17.9904C30.0555 18.6246 29.1987 19.2336 28.2994 19.7711C27.8487 20.0383 27.3885 20.2885 26.9268 20.519C26.4659 20.7492 26.0019 20.9565 25.5512 21.1487C25.1008 21.342 24.6624 21.5201 24.251 21.6984C23.8395 21.876 23.4539 22.0518 23.1067 22.2312C22.9311 22.3172 22.7695 22.4117 22.6124 22.4957C22.535 22.5396 22.461 22.5849 22.3883 22.6276C22.316 22.6709 22.2444 22.711 22.1788 22.7557C21.9111 22.9263 21.6862 23.0886 21.5075 23.23C21.4189 23.3018 21.3398 23.366 21.2709 23.4217C21.2052 23.4814 21.1493 23.5322 21.104 23.5733C21.0134 23.6556 20.9651 23.6996 20.9651 23.6996Z" fill="#C32361"/>
<path d="M21.2854 24.4449C21.2854 24.4449 21.3247 24.3913 21.3982 24.2905C21.4749 24.1921 21.5886 24.048 21.751 23.8803C21.9128 23.7123 22.1222 23.5201 22.379 23.3201C22.6364 23.1211 22.9417 22.9153 23.2905 22.718C23.6385 22.5204 24.0288 22.3286 24.4463 22.1404C24.8639 21.9517 25.3091 21.765 25.7674 21.5695C26.6834 21.1781 27.6378 20.7088 28.5605 20.1829C29.0226 19.9216 29.481 19.6522 29.9126 19.3604C30.1276 19.2143 30.3378 19.0611 30.5329 18.9008C30.7313 18.736 30.9167 18.5684 31.0914 18.393C31.4416 18.042 31.7565 17.6783 32.0402 17.3217C32.323 16.9642 32.5732 16.6125 32.7968 16.2831C32.852 16.2002 32.9061 16.1191 32.9589 16.0397C33.0104 15.9595 33.0606 15.8811 33.1095 15.8046C33.2093 15.6529 33.2966 15.5044 33.3824 15.367C33.4646 15.2275 33.5415 15.0969 33.6127 14.9762C33.6813 14.854 33.7443 14.7418 33.8013 14.6403C33.9114 14.4355 33.9994 14.2752 34.0553 14.1638C34.1127 14.053 34.1433 13.994 34.1433 13.994C34.1433 13.994 34.1148 14.0541 34.0615 14.1668C34.009 14.28 33.9285 14.4442 33.8229 14.6518C33.7686 14.7549 33.7085 14.8689 33.643 14.9931C33.575 15.1159 33.5015 15.2488 33.4229 15.3907C33.2608 15.6719 33.0759 15.9883 32.8559 16.3221C32.6368 16.6565 32.3913 17.0137 32.1127 17.3781C31.833 17.7414 31.5228 18.1143 31.1687 18.4701C31.0831 18.5615 30.9867 18.6455 30.8948 18.7343C30.8023 18.8232 30.703 18.9018 30.6064 18.9869C30.4057 19.1536 30.1961 19.3078 29.9789 19.4573C29.5439 19.7547 29.0854 20.0277 28.6224 20.2922C27.6927 20.8155 26.7315 21.2818 25.8102 21.6697C25.3505 21.8653 24.9021 22.0424 24.4833 22.2239C24.0639 22.4049 23.6743 22.5887 23.3249 22.7797C22.9763 22.9711 22.668 23.1667 22.407 23.3573C22.1469 23.5491 21.9337 23.7345 21.7683 23.8974C21.6029 24.0606 21.4832 24.1988 21.4036 24.2946C21.3266 24.3926 21.2854 24.4449 21.2854 24.4449Z" fill="#C32361"/>
<path d="M12.7378 27.0676C14.443 28.4821 16.3622 29.2911 18.9646 30.4417C19.1178 30.1864 19.3828 29.5873 19.536 29.332C17.7837 28.167 15.4796 27.118 13.7273 25.9529C13.6846 25.9245 12.7378 27.0676 12.7378 27.0676Z" fill="#C32361"/>
<path d="M19.3578 28.8164C19.3578 28.8164 19.3571 28.8009 19.3559 28.772C19.3555 28.7429 19.3506 28.7007 19.3546 28.6461C19.3555 28.5914 19.3617 28.5252 19.3734 28.4498C19.387 28.3747 19.405 28.2898 19.4363 28.2007C19.4945 28.0207 19.598 27.8244 19.7225 27.6275C19.7849 27.529 19.8503 27.4287 19.918 27.3281C19.9857 27.2278 20.0517 27.1247 20.1188 27.0208C20.1863 26.9178 20.2538 26.8147 20.3202 26.7134C20.385 26.6112 20.4515 26.5123 20.5119 26.4144C20.5728 26.3166 20.6314 26.2222 20.6855 26.1316C20.7385 26.0406 20.7887 25.9544 20.8328 25.8737C20.8766 25.7928 20.9155 25.718 20.9491 25.6511C20.9816 25.5837 21.0101 25.5248 21.0313 25.4753C21.0539 25.4263 21.0692 25.3868 21.0805 25.3601C21.0916 25.3333 21.0976 25.319 21.0976 25.319C21.0976 25.319 21.0939 25.334 21.087 25.3622C21.0796 25.3901 21.0716 25.4323 21.0548 25.4839C21.0399 25.5361 21.0195 25.5989 20.9934 25.67C20.967 25.7409 20.9358 25.8206 20.8976 25.9056C20.8601 25.991 20.8166 26.0821 20.7677 26.177C20.7185 26.2717 20.6658 26.3712 20.607 26.4714C20.5486 26.572 20.4879 26.6756 20.4227 26.7786C20.3572 26.8811 20.2906 26.9853 20.2241 27.0894C20.1561 27.192 20.0878 27.296 20.0184 27.3961C19.9492 27.4955 19.881 27.5934 19.815 27.6881C19.7512 27.7834 19.6889 27.8748 19.6368 27.9652C19.5854 28.0557 19.5382 28.1424 19.5035 28.2263C19.4671 28.3095 19.4411 28.3889 19.4203 28.46C19.4019 28.5318 19.3869 28.5952 19.3794 28.6481C19.3692 28.7007 19.3663 28.7435 19.3627 28.7722C19.3595 28.801 19.3578 28.8164 19.3578 28.8164Z" fill="#C32361"/>
<path d="M18.7793 28.3706C18.7793 28.3706 18.7816 28.3554 18.7858 28.3268C18.7909 28.2983 18.7941 28.256 18.807 28.2032C18.8129 28.1766 18.8194 28.1472 18.8264 28.1152C18.8352 28.0837 18.8448 28.0496 18.855 28.0132C18.8771 27.9409 18.9047 27.8598 18.9405 27.7735C18.9579 27.7302 18.9786 27.6862 18.9987 27.6399C19.0207 27.5947 19.0438 27.548 19.0687 27.5006C19.1194 27.4064 19.1747 27.3078 19.2389 27.2106C19.3026 27.1129 19.3699 27.0129 19.4443 26.9159C19.5177 26.8182 19.5955 26.7217 19.6745 26.6263C19.8357 26.4386 19.9965 26.2551 20.1395 26.0765C20.2108 25.9872 20.2768 25.8991 20.3369 25.8137C20.3963 25.7279 20.4494 25.6447 20.4956 25.566C20.5413 25.4871 20.5799 25.4128 20.6129 25.3461C20.6438 25.2784 20.6713 25.2194 20.6908 25.1694C20.712 25.12 20.7258 25.0801 20.7363 25.0532C20.7466 25.0261 20.752 25.0117 20.752 25.0117C20.752 25.0117 20.7489 25.0268 20.7429 25.0551C20.7363 25.0832 20.7299 25.1255 20.7146 25.1773C20.7014 25.23 20.682 25.2929 20.6574 25.3646C20.6438 25.4 20.6295 25.4376 20.6143 25.4774C20.5972 25.5162 20.5799 25.5576 20.5596 25.5997C20.4799 25.7688 20.3663 25.9567 20.2275 26.1438C20.1578 26.237 20.0853 26.333 20.0069 26.426C19.9291 26.5187 19.8499 26.613 19.7708 26.7073C19.6917 26.8004 19.6139 26.8945 19.5407 26.9896C19.4673 27.0845 19.3957 27.1783 19.3307 27.2721C19.2654 27.3656 19.2049 27.4577 19.1502 27.5468C19.0964 27.6363 19.0476 27.7223 19.0058 27.8035C18.9647 27.885 18.9294 27.961 18.9 28.0294C18.8861 28.0639 18.8731 28.0962 18.861 28.1261C18.8501 28.1564 18.8401 28.1842 18.8311 28.2094C18.8123 28.2596 18.8014 28.3009 18.7924 28.3283C18.7839 28.3559 18.7793 28.3706 18.7793 28.3706Z" fill="#C32361"/>
<path d="M18.2356 28.1028C18.2356 28.1028 18.2384 28.0866 18.2435 28.0563C18.2496 28.0262 18.2533 27.9812 18.2691 27.9256C18.2762 27.8976 18.284 27.8666 18.2926 27.8328C18.3029 27.7995 18.3141 27.7636 18.326 27.7252C18.3517 27.649 18.384 27.5637 18.4259 27.4737C18.4469 27.4286 18.4704 27.3826 18.4943 27.3346C18.5204 27.2879 18.5464 27.2389 18.5763 27.1905C18.6344 27.0926 18.7002 26.9923 18.7731 26.8921C18.8466 26.7925 18.9233 26.69 19.0071 26.5911C19.0899 26.4914 19.1761 26.3922 19.2632 26.2941C19.3507 26.1972 19.4382 26.1002 19.5244 26.0048C19.6093 25.9087 19.6939 25.8155 19.7712 25.7218C19.849 25.6284 19.922 25.5367 19.9876 25.4471C20.0535 25.3576 20.111 25.2698 20.1625 25.1876C20.2126 25.1046 20.2559 25.0267 20.2927 24.9566C20.3277 24.8857 20.3574 24.8231 20.3788 24.7703C20.402 24.718 20.4175 24.6759 20.4291 24.6475C20.4404 24.6189 20.4465 24.6036 20.4465 24.6036C20.4465 24.6036 20.4427 24.6196 20.4356 24.6495C20.4277 24.6791 20.4202 24.724 20.4019 24.7786C20.3861 24.834 20.3632 24.9 20.3355 24.9755C20.3203 25.0129 20.3042 25.0526 20.2871 25.0944C20.2682 25.1354 20.2479 25.1784 20.2256 25.2228C20.1799 25.3109 20.128 25.4055 20.065 25.5003C20.0031 25.5957 19.9343 25.6942 19.8575 25.7911C19.7813 25.8886 19.7012 25.9881 19.6157 26.085C19.5303 26.1816 19.4436 26.2797 19.3569 26.3779C19.1816 26.5712 19.0117 26.7676 18.8615 26.9584C18.7877 27.0547 18.7171 27.1484 18.6552 27.2406C18.5931 27.3326 18.5379 27.422 18.49 27.5063C18.4434 27.5913 18.4028 27.6705 18.3694 27.7423C18.3536 27.7785 18.3389 27.8126 18.3253 27.844C18.3134 27.8761 18.3024 27.9055 18.2925 27.9321C18.272 27.9851 18.2599 28.029 18.2501 28.058C18.2406 28.0872 18.2356 28.1028 18.2356 28.1028Z" fill="#C32361"/>
<path d="M17.5979 27.7529C17.5979 27.7529 17.6017 27.7358 17.6089 27.7038C17.617 27.672 17.6242 27.6244 17.6434 27.5658C17.6598 27.5063 17.684 27.4357 17.7136 27.3549C17.73 27.3151 17.7473 27.2728 17.7657 27.2282C17.7863 27.1846 17.8082 27.1386 17.8327 27.0916C17.8827 26.9982 17.9396 26.8978 18.0092 26.7981C18.0776 26.6976 18.1537 26.5942 18.2389 26.4931C18.3233 26.3913 18.4127 26.2882 18.5076 26.1879C18.6028 26.0883 18.6995 25.987 18.7961 25.8858C18.9917 25.6869 19.1824 25.4852 19.352 25.2888C19.4353 25.1894 19.5152 25.0928 19.5855 24.9972C19.6562 24.9019 19.719 24.809 19.7741 24.7211C19.8276 24.6325 19.8741 24.5495 19.9127 24.4744C19.9309 24.4362 19.9479 24.4005 19.9636 24.3675C19.9776 24.3336 19.9904 24.3025 20.002 24.2744C20.026 24.2183 20.04 24.1725 20.0516 24.1418C20.0627 24.1109 20.0685 24.0944 20.0685 24.0944C20.0685 24.0944 20.0649 24.1115 20.0583 24.1436C20.0504 24.1754 20.0443 24.2239 20.0252 24.2823C20.0164 24.3118 20.0067 24.3444 19.9961 24.38C19.9836 24.4149 19.97 24.4528 19.9556 24.4932C19.9405 24.5335 19.9217 24.5751 19.9033 24.6199C19.8843 24.6644 19.86 24.7089 19.837 24.7567C19.8122 24.8036 19.785 24.8517 19.757 24.9016C19.7267 24.9499 19.6968 25.0011 19.6625 25.0511C19.5957 25.1526 19.52 25.2559 19.4374 25.3592C19.354 25.4617 19.2673 25.5673 19.1731 25.6685C19.0801 25.7707 18.9833 25.8729 18.8863 25.9733C18.789 26.0731 18.6917 26.173 18.5959 26.2712C18.5015 26.3703 18.4083 26.4671 18.3229 26.5647C18.2371 26.662 18.1569 26.7581 18.0852 26.8525C18.0131 26.9467 17.9508 27.0397 17.8951 27.1271C17.8678 27.1711 17.8442 27.2147 17.8196 27.2552C17.7972 27.2969 17.7761 27.3365 17.7562 27.3737C17.7194 27.4498 17.6884 27.5168 17.6665 27.5734C17.6426 27.6293 17.6272 27.6752 17.6154 27.7058C17.604 27.7365 17.5979 27.7529 17.5979 27.7529Z" fill="#C32361"/>
<path d="M17.1377 27.3787C17.1377 27.3787 17.1623 27.3106 17.2081 27.1928C17.2202 27.1636 17.2313 27.1304 17.2476 27.0959C17.2646 27.0615 17.2829 27.0244 17.3025 26.9846C17.3222 26.9447 17.3433 26.9023 17.3654 26.8575C17.3896 26.8141 17.4177 26.77 17.4456 26.7231C17.4744 26.6769 17.5019 26.6267 17.5352 26.5783C17.569 26.5301 17.6038 26.4803 17.6396 26.4291C17.6747 26.3771 17.714 26.3265 17.7543 26.2748C17.7943 26.2229 17.8354 26.1698 17.8786 26.1173C17.9666 26.0137 18.0553 25.9043 18.1515 25.7994C18.247 25.694 18.344 25.5869 18.441 25.4798C18.5383 25.3737 18.6374 25.2689 18.7307 25.1628C18.8257 25.0579 18.9168 24.9533 19.0042 24.8511C19.0483 24.8004 19.0871 24.7472 19.1286 24.6976C19.1692 24.6474 19.2099 24.5989 19.2448 24.5484C19.317 24.4491 19.387 24.3562 19.4424 24.2644C19.4714 24.2192 19.4992 24.1758 19.5257 24.1346C19.5493 24.0918 19.5717 24.0512 19.5928 24.0129C19.6139 23.9747 19.6337 23.9387 19.652 23.9056C19.6699 23.8722 19.6818 23.8394 19.695 23.8109C19.7457 23.6958 19.7767 23.63 19.7767 23.63C19.7767 23.63 19.7565 23.699 19.7177 23.82C19.7073 23.8499 19.6985 23.8843 19.6838 23.9196C19.6687 23.9547 19.6523 23.9928 19.6349 24.0334C19.6174 24.0742 19.5987 24.1176 19.579 24.1634C19.5564 24.2077 19.5305 24.2531 19.5045 24.3012C19.4775 24.3486 19.453 24.4006 19.4207 24.4497C19.3886 24.4991 19.3555 24.5502 19.3215 24.6027C19.2885 24.6561 19.2497 24.7073 19.2111 24.7604C19.1721 24.8132 19.1329 24.8679 19.0903 24.9209C19.0042 25.0264 18.9174 25.1376 18.8217 25.2433C18.7283 25.3514 18.6304 25.4575 18.5336 25.5649C18.3368 25.7762 18.1417 25.9875 17.963 26.1886C17.9194 26.2398 17.8766 26.2901 17.8348 26.3394C17.7925 26.3884 17.7512 26.4364 17.7142 26.4855C17.6763 26.5339 17.6394 26.581 17.6037 26.6266C17.5674 26.6719 17.5374 26.719 17.5058 26.7624C17.4749 26.8064 17.4452 26.8485 17.417 26.8886C17.3913 26.93 17.3668 26.9693 17.3438 27.0062C17.3207 27.0434 17.2991 27.0781 17.2791 27.1103C17.2594 27.1428 17.2452 27.175 17.2303 27.2028C17.1724 27.3152 17.1377 27.3787 17.1377 27.3787Z" fill="#C32361"/>
<path d="M16.6121 27.1621C16.6121 27.1621 16.6177 27.1434 16.6284 27.1082C16.6396 27.0731 16.6528 27.0209 16.6781 26.9568C16.7009 26.8916 16.733 26.8145 16.7709 26.7261C16.7911 26.6826 16.8127 26.6362 16.8355 26.5874C16.86 26.5394 16.8858 26.4889 16.9143 26.437C16.9718 26.3337 17.036 26.2225 17.1113 26.1097C17.1851 25.996 17.2664 25.8784 17.3552 25.7605C17.4435 25.6422 17.5367 25.5216 17.6347 25.402C17.7329 25.2824 17.8322 25.1615 17.9347 25.0425C18.1438 24.8089 18.3527 24.5751 18.5487 24.3561C18.7469 24.1382 18.9351 23.9411 19.0816 23.76C19.2277 23.5788 19.3358 23.4163 19.4036 23.2977C19.4378 23.2385 19.465 23.192 19.482 23.1595C19.4997 23.1272 19.5091 23.1101 19.5091 23.1101C19.5091 23.1101 19.5018 23.1282 19.4882 23.1624C19.4747 23.1966 19.455 23.2469 19.4253 23.3091C19.3668 23.4332 19.277 23.6101 19.1392 23.8035C19.0031 23.998 18.8222 24.207 18.632 24.4291C18.5371 24.5401 18.4409 24.657 18.3382 24.7723C18.2368 24.8883 18.1336 25.0061 18.0306 25.1239C17.9275 25.2412 17.8269 25.3614 17.7284 25.4791C17.6306 25.5976 17.5327 25.7127 17.4429 25.8278C17.3527 25.9425 17.2663 26.054 17.1885 26.1626C17.1098 26.2707 17.0397 26.3757 16.9763 26.4736C16.914 26.5722 16.8593 26.6641 16.8126 26.7469C16.7675 26.8304 16.7289 26.9038 16.7007 26.9658C16.6708 27.0271 16.6496 27.077 16.6347 27.1106C16.6199 27.1442 16.6121 27.1621 16.6121 27.1621Z" fill="#C32361"/>
<path d="M16.1353 26.8657C16.1353 26.8657 16.1405 26.8446 16.1504 26.8049C16.1612 26.7654 16.1726 26.7064 16.1955 26.6335C16.218 26.5603 16.2447 26.4709 16.2825 26.371C16.3186 26.2704 16.3644 26.1584 16.4228 26.0401C16.45 25.9798 16.4848 25.9205 16.5174 25.8571C16.5532 25.7956 16.5897 25.7313 16.6313 25.6682C16.7119 25.5398 16.806 25.4104 16.9087 25.2815C17.0115 25.1527 17.1212 25.0228 17.2356 24.8947C17.3505 24.7669 17.4619 24.6353 17.5828 24.5054C17.7036 24.3777 17.8283 24.2546 17.9514 24.1347C18.0747 24.0157 18.196 23.8986 18.3134 23.7852C18.4297 23.671 18.5392 23.5597 18.6425 23.4508C18.7454 23.3425 18.8421 23.2403 18.9254 23.1414C19.0082 23.042 19.079 22.947 19.1353 22.8582C19.1918 22.7697 19.2338 22.6876 19.2645 22.6184C19.2955 22.5492 19.3182 22.4936 19.3315 22.4552C19.3454 22.4167 19.3527 22.3961 19.3527 22.3961C19.3527 22.3961 19.3476 22.4174 19.3381 22.4571C19.3336 22.4772 19.3273 22.5016 19.3186 22.5301C19.3108 22.5588 19.3007 22.5915 19.2872 22.6275C19.2373 22.7722 19.1419 22.9746 18.9821 23.1861C18.9032 23.2923 18.8112 23.4016 18.7118 23.5142C18.6135 23.6269 18.5069 23.7463 18.3921 23.8632C18.2777 23.9808 18.1588 24.1013 18.0366 24.2213C17.9147 24.3418 17.7925 24.4649 17.6746 24.5913C17.5568 24.7156 17.4416 24.8492 17.3262 24.9756C17.2115 25.103 17.0979 25.2267 16.9943 25.3513C16.8911 25.4761 16.793 25.5979 16.7091 25.7201C16.6245 25.8416 16.5496 25.9602 16.4865 26.0734C16.4551 26.13 16.4251 26.1845 16.3992 26.2376C16.3723 26.2903 16.3465 26.3403 16.3256 26.3888C16.2803 26.4845 16.2469 26.5702 16.2187 26.6409C16.1909 26.7117 16.1714 26.7687 16.1569 26.8069C16.1428 26.8453 16.1353 26.8657 16.1353 26.8657Z" fill="#C32361"/>
<path d="M15.668 26.5609C15.668 26.5609 15.6709 26.538 15.6763 26.4949C15.6808 26.4518 15.6918 26.389 15.7091 26.3092C15.7284 26.2303 15.7537 26.1346 15.791 26.0273C15.8267 25.9194 15.8754 25.8008 15.9342 25.6738C16.0537 25.4211 16.2177 25.1367 16.4308 24.8576C16.4847 24.7882 16.5407 24.7191 16.6007 24.6504C16.659 24.5837 16.7209 24.5153 16.7848 24.4496C16.9119 24.3173 17.0451 24.1875 17.1797 24.06C17.3156 23.9344 17.4514 23.8088 17.5851 23.6852C17.7177 23.5612 17.8495 23.4405 17.9711 23.3191C18.0938 23.1968 18.2083 23.0779 18.3127 22.9593C18.4166 22.8408 18.5105 22.7251 18.5921 22.6144C18.6735 22.5036 18.7425 22.3979 18.8001 22.302C18.8584 22.2063 18.9019 22.1187 18.9372 22.0462C18.9704 21.9729 18.9974 21.9153 19.0126 21.8747C19.0288 21.8345 19.0374 21.813 19.0374 21.813C19.0374 21.813 19.031 21.8352 19.019 21.877C19.0075 21.9188 18.9883 21.9797 18.9597 22.0558C18.9299 22.1314 18.8928 22.2232 18.8413 22.3244C18.7907 22.426 18.729 22.5389 18.6515 22.6555C18.5751 22.7727 18.486 22.8958 18.3845 23.0199C18.2838 23.144 18.171 23.2718 18.0504 23.3965C17.9289 23.5223 17.8015 23.6491 17.6682 23.7738C17.5355 23.8984 17.4007 24.0249 17.2659 24.1514C17.131 24.2772 16.9983 24.4046 16.8721 24.5339C16.809 24.5986 16.7482 24.6628 16.6872 24.7288C16.6283 24.7931 16.5718 24.8596 16.5177 24.9259C16.3028 25.1928 16.1303 25.4648 15.9985 25.7061C15.9349 25.828 15.8778 25.9408 15.8345 26.044C15.7898 26.1467 15.7576 26.239 15.7326 26.3156C15.7104 26.3927 15.6913 26.4534 15.683 26.4961C15.6732 26.5383 15.668 26.5609 15.668 26.5609Z" fill="#C32361"/>
<path d="M15.1826 26.3453C15.1826 26.3453 15.1823 26.3392 15.1817 26.3273C15.1807 26.3153 15.1802 26.2977 15.1813 26.2745C15.1833 26.2281 15.1905 26.1599 15.2115 26.0755C15.232 25.9912 15.2636 25.8904 15.3077 25.7778C15.3506 25.6643 15.4113 25.5414 15.4791 25.4103C15.5468 25.2785 15.6229 25.1366 15.7119 24.9912C15.7569 24.9182 15.8021 24.8445 15.8553 24.7698C15.9069 24.6973 15.9583 24.6231 16.0148 24.5491C16.0734 24.4763 16.1319 24.401 16.1933 24.327C16.2563 24.255 16.3194 24.1813 16.3853 24.1093C16.4525 24.0386 16.5203 23.9674 16.5883 23.8959C16.658 23.8263 16.7279 23.7564 16.7979 23.6865C16.9403 23.5496 17.0842 23.4146 17.2259 23.2824C17.3676 23.1505 17.5069 23.0207 17.6417 22.895C17.7081 22.8313 17.7734 22.7687 17.8372 22.7074C17.8999 22.6451 17.9612 22.584 18.0209 22.5246C18.137 22.4028 18.2478 22.2884 18.3431 22.1768C18.3921 22.1219 18.4381 22.0688 18.4792 22.0159C18.5214 21.9639 18.5615 21.9145 18.5991 21.8681C18.669 21.7714 18.7307 21.6872 18.7791 21.6162C18.8701 21.4706 18.9241 21.3877 18.9241 21.3877C18.9241 21.3877 18.8802 21.4756 18.8 21.629C18.7566 21.7036 18.7008 21.7925 18.6373 21.8952C18.5672 21.9931 18.4939 22.1087 18.3988 22.2228C18.3085 22.341 18.2026 22.4622 18.0892 22.589C18.0312 22.6512 17.9717 22.7151 17.9108 22.7804C17.8481 22.8438 17.7841 22.9086 17.7189 22.9745C17.5867 23.104 17.4506 23.2383 17.3093 23.3709C17.1684 23.504 17.0262 23.6398 16.8856 23.7766C16.8158 23.8453 16.7459 23.9141 16.6763 23.9826C16.6086 24.0527 16.5412 24.1225 16.4743 24.1918C16.4095 24.2629 16.3454 24.3334 16.2819 24.4032C16.2204 24.474 16.1622 24.5456 16.1034 24.6152C16.046 24.6863 15.9931 24.761 15.9385 24.8308C15.886 24.8989 15.8374 24.9717 15.791 25.0411C15.6989 25.1815 15.6163 25.3176 15.5422 25.4448C15.4687 25.5728 15.4005 25.6884 15.3504 25.7963C15.2992 25.9038 15.261 26.0007 15.235 26.0821C15.2093 26.1637 15.1939 26.2295 15.188 26.2749C15.1848 26.2976 15.1835 26.3153 15.1834 26.3273C15.1829 26.3392 15.1826 26.3453 15.1826 26.3453Z" fill="#C32361"/>
<path d="M14.5461 26.0938C14.5461 26.0938 14.5499 26.0663 14.5571 26.0148C14.5652 25.9635 14.5719 25.8876 14.5921 25.7924C14.6089 25.6965 14.6352 25.5814 14.6684 25.4498C14.7046 25.3191 14.7477 25.1715 14.8114 25.0163C14.8714 24.8597 14.9516 24.6955 15.0493 24.5292C15.1469 24.3629 15.2638 24.1948 15.4027 24.0361C15.5409 23.8769 15.6966 23.7233 15.8676 23.5832C16.0367 23.4455 16.2086 23.3058 16.3804 23.166C16.5518 23.0261 16.7223 22.8855 16.8877 22.7441C17.0531 22.6028 17.2161 22.464 17.3708 22.3262C17.5251 22.188 17.6747 22.0548 17.8133 21.925C17.9524 21.7956 18.0825 21.6718 18.2015 21.5562C18.3198 21.4402 18.4287 21.3339 18.5235 21.2379C18.6191 21.1427 18.7001 21.0575 18.7675 20.9878C18.9015 20.8476 18.9781 20.7675 18.9781 20.7675C18.9781 20.7675 18.9607 20.7891 18.9281 20.8296C18.8951 20.8697 18.8487 20.9303 18.7857 21.0041C18.6603 21.1521 18.4812 21.3641 18.2531 21.6068C18.0258 21.8502 17.7509 22.1254 17.4452 22.4082C17.2919 22.5491 17.133 22.6943 16.9669 22.8363C16.8015 22.9793 16.6314 23.1219 16.4601 23.2632C16.2874 23.4019 16.1146 23.5406 15.9445 23.6771C15.7779 23.8129 15.6222 23.9567 15.4857 24.109C15.3488 24.2608 15.2293 24.4193 15.1291 24.5781C15.0295 24.7371 14.9437 24.8936 14.8777 25.0444C14.8092 25.1941 14.7573 25.3363 14.713 25.4631C14.672 25.5909 14.6386 25.7035 14.616 25.7974C14.5907 25.8906 14.5757 25.9656 14.5638 26.0161C14.5522 26.0667 14.5461 26.0938 14.5461 26.0938Z" fill="#C32361"/>
<path d="M34.1249 12.1608C34.1249 12.1608 34.6575 12.4466 34.782 12.5228C34.8803 12.5829 35.0912 12.7368 35.0912 12.7368C35.0912 12.7368 34.6177 13.6817 34.5069 13.6214C34.1204 13.4104 33.859 13.0386 33.4243 12.9081C33.4356 12.723 34.1249 12.1608 34.1249 12.1608Z" fill="#C32361"/>
<path d="M16.9986 54.6486C17.1713 54.7942 17.1439 55.0356 17.1431 55.2392C17.1422 55.4547 17.1667 55.6611 17.2225 55.8704C17.3122 56.2075 17.4925 56.6262 17.8397 56.7723C18.0547 56.8622 18.1935 56.8101 18.2813 56.5982C18.3244 56.4944 18.346 56.3879 18.3445 56.2754C18.3431 56.1708 18.1848 55.6091 18.3087 55.5957C18.414 55.5843 18.3414 55.5114 18.2677 55.5194C17.9753 55.5511 18.1343 55.8771 18.1658 56.0754C18.1845 56.1938 18.1984 56.3149 18.1748 56.4337C18.1658 56.4788 18.1427 56.5899 18.1058 56.6302C17.9629 56.7862 17.7838 56.6221 17.679 56.4927C17.4182 56.1708 17.3035 55.7202 17.2992 55.3118C17.2967 55.0689 17.3414 54.7846 17.1349 54.6104C17.0972 54.5786 16.9459 54.6042 16.9986 54.6486Z" fill="#52565B"/>
<path d="M9.86203 42.4224C9.67792 42.7848 9.47123 43.1481 9.36351 43.5426C9.29668 43.7875 9.20803 44.2069 9.39094 44.4235C9.48444 44.5343 9.64583 44.564 9.78137 44.5285C9.87745 44.5034 9.95157 44.4414 10.0219 44.3735C10.0549 44.3417 10.5625 43.8045 10.5868 43.9952C10.5934 44.0475 10.7429 44.088 10.7357 44.0308C10.7202 43.9093 10.6291 43.8246 10.4992 43.8213C10.2705 43.8154 10.0886 44.0833 9.95195 44.2294C9.91199 44.2721 9.87009 44.3319 9.8195 44.3626C9.48085 44.5683 9.45934 44.3282 9.44549 44.1352C9.43121 43.9371 9.46965 43.7352 9.52628 43.5461C9.63835 43.172 9.83252 42.8261 10.0086 42.4795C10.0321 42.4331 9.88783 42.3716 9.86203 42.4224Z" fill="#52565B"/>
<path d="M8.70566 17.5984C9.87052 16.8806 11.2761 17.4648 12.533 17.471C13.6871 17.4768 14.5118 16.7691 15.1664 15.9018C15.8462 15.0009 16.8538 14.558 17.9051 14.1915C18.7992 13.8799 19.7462 13.5857 20.6785 13.7512C21.6108 13.9168 22.5032 14.6979 22.4606 15.6432C21.9999 15.7837 21.5774 16.0475 21.249 16.3999C20.9676 16.23 20.7402 15.9723 20.607 15.6721C19.9202 18.217 19.1015 20.9608 16.9713 22.5154C16.1623 23.1059 15.1784 23.5106 14.5961 24.3251C14.3242 24.7054 14.0514 25.6952 13.8069 26.0937C12.1082 28.8629 8.28874 29.1205 5.73168 27.1133C4.35949 26.0362 3.54057 24.3225 3.35847 22.6076C3.19865 21.102 3.54774 19.5471 4.3359 18.2541C4.18545 18.8375 4.48024 19.4941 4.99537 19.8073C5.51051 20.1203 6.20107 20.0921 6.71407 19.7756C7.55778 19.2551 7.86169 18.1185 8.70566 17.5984Z" fill="#0E1534"/>
<path d="M8.70566 17.5984C9.87052 16.8806 11.2761 17.4647 12.533 17.4709C13.6871 17.4767 14.5118 16.7691 15.1664 15.9017C15.8462 15.0009 16.8538 14.5579 17.9051 14.1915C18.7992 13.8798 19.7462 13.5856 20.6785 13.7512C21.6108 13.9168 22.5032 14.6979 22.4606 15.6431C21.9999 15.7837 21.5774 16.0475 21.249 16.3998C21.1633 16.4918 20.6458 15.7698 20.6078 15.7033C20.1205 17.9556 18.8387 20.6931 16.6013 21.6464C15.9941 21.9052 15.3397 22.0462 14.7453 22.3329C13.5738 22.8981 13.1555 23.8971 12.4023 24.8535C11.5067 25.991 10.1264 26.6918 8.69861 26.8621C7.39198 27.018 5.61156 26.7205 4.60105 25.8265C3.79943 25.1173 3.46802 23.6391 3.35847 22.6075C3.19865 21.102 3.54774 19.5471 4.3359 18.254C4.18545 18.8375 4.48024 19.4941 4.99537 19.8072C5.51051 20.1203 6.20107 20.0921 6.71407 19.7756C7.55778 19.2551 7.86169 18.1185 8.70566 17.5984Z" fill="#283459"/>
<path d="M8.04755 22.0582C8.04755 22.0582 8.04566 22.0717 8.04214 22.0969C8.0378 22.1221 8.03553 22.1594 8.02351 22.2059C8.0142 22.2532 7.99866 22.3095 7.97783 22.3732C7.966 22.4047 7.95342 22.4381 7.94008 22.4734C7.92548 22.5082 7.90761 22.5436 7.89024 22.5814C7.85123 22.6545 7.80694 22.7335 7.74911 22.8098C7.69387 22.8879 7.62642 22.9637 7.55129 23.0367C7.47521 23.1087 7.39046 23.1772 7.29784 23.2376C7.20321 23.2966 7.10574 23.3468 6.99714 23.3904C6.89804 23.4265 6.78258 23.4573 6.67511 23.4755C6.56581 23.4925 6.45696 23.4977 6.35219 23.4949C6.24749 23.4905 6.14663 23.4791 6.05332 23.4576C5.95931 23.4393 5.87355 23.4101 5.79572 23.3815C5.75753 23.365 5.72053 23.3504 5.68642 23.3343C5.65301 23.3169 5.6213 23.3003 5.59148 23.2848C5.53334 23.2511 5.48438 23.2196 5.44606 23.1907C5.40624 23.1641 5.37912 23.1375 5.35917 23.1216C5.33973 23.1052 5.32935 23.0964 5.32935 23.0964C5.32935 23.0964 5.34111 23.1033 5.3632 23.1161C5.38541 23.1286 5.41674 23.1486 5.45922 23.1694C5.50055 23.1922 5.55297 23.2152 5.61255 23.2415C5.64307 23.253 5.67548 23.2652 5.70964 23.2781C5.74431 23.2893 5.78074 23.3009 5.81875 23.3131C5.89602 23.333 5.97976 23.3531 6.0698 23.3652C6.15947 23.3797 6.25523 23.3829 6.35352 23.3841C6.45218 23.3838 6.5531 23.3715 6.65478 23.3558C6.75747 23.3363 6.85179 23.3104 6.95624 23.2715C7.04936 23.2352 7.14601 23.188 7.23316 23.1349C7.31955 23.0791 7.40286 23.0207 7.4766 22.9553C7.54902 22.8889 7.6183 22.8227 7.67543 22.7521C7.73439 22.6831 7.78347 22.6123 7.82764 22.5459C7.84784 22.5115 7.86722 22.4786 7.88565 22.4472C7.90245 22.4148 7.9185 22.3841 7.93347 22.3552C7.96034 22.2958 7.98393 22.2438 7.99948 22.1995C8.01722 22.1559 8.02729 22.1194 8.03547 22.0954C8.04333 22.0712 8.04755 22.0582 8.04755 22.0582Z" fill="white"/>
<path d="M12.7683 19.3974C12.7683 19.3974 12.7904 19.4041 12.8319 19.4166C12.8733 19.4299 12.9346 19.4451 13.0131 19.4619C13.1697 19.4959 13.3999 19.522 13.6713 19.496C13.8068 19.4825 13.9519 19.4542 14.0999 19.4082C14.248 19.3631 14.3965 19.2932 14.5461 19.2107C14.6935 19.1294 14.8402 19.03 14.9834 18.9226C15.1265 18.8145 15.2662 18.6962 15.4045 18.575C15.544 18.454 15.6835 18.333 15.8208 18.2139C15.9593 18.0951 16.1017 17.9837 16.245 17.883C16.3867 17.7817 16.5328 17.6913 16.6816 17.6245C16.83 17.5571 16.9841 17.5175 17.1283 17.5144C17.2727 17.51 17.4054 17.5481 17.507 17.6017C17.6104 17.6548 17.6867 17.7242 17.7358 17.7904C17.7858 17.8565 17.8082 17.9183 17.8195 17.9601C17.8296 18.0025 17.8325 18.0254 17.8325 18.0254C17.8325 18.0254 17.8272 18.0027 17.813 17.9622C17.7981 17.9219 17.7686 17.8655 17.7168 17.8059C17.6652 17.7463 17.5878 17.6863 17.487 17.644C17.3862 17.6012 17.2649 17.5764 17.1323 17.5865C16.9995 17.5971 16.8596 17.6411 16.7217 17.7095C16.5834 17.7783 16.4476 17.8706 16.3098 17.9728C16.1719 18.0737 16.0369 18.1885 15.8998 18.3062C15.7636 18.4261 15.6253 18.548 15.487 18.6699C15.3468 18.7908 15.2037 18.91 15.056 19.0197C14.9082 19.1299 14.7544 19.2258 14.5972 19.3086C14.5173 19.3521 14.4438 19.3841 14.3629 19.4187C14.2836 19.4503 14.2046 19.4776 14.126 19.4979C13.9695 19.5409 13.817 19.5616 13.6764 19.5677C13.5356 19.5745 13.4066 19.5645 13.2941 19.5478C13.1816 19.5309 13.0849 19.5093 13.0072 19.4855C12.968 19.475 12.9336 19.4629 12.904 19.4519C12.8742 19.4416 12.8494 19.4318 12.8295 19.4231C12.7896 19.4063 12.7683 19.3974 12.7683 19.3974Z" fill="white"/>
<path d="M8.06738 25.864C8.06738 25.864 8.09387 25.8696 8.14358 25.8801C8.19335 25.8908 8.26653 25.9029 8.3599 25.9167C8.54647 25.9425 8.81778 25.959 9.13541 25.9128C9.29403 25.8898 9.46323 25.8496 9.63664 25.7909C9.81005 25.7319 9.98623 25.6515 10.1611 25.555C10.5098 25.3597 10.8469 25.0911 11.1467 24.7858C11.449 24.4823 11.7141 24.1429 11.9454 23.8126C12.0613 23.6467 12.168 23.4843 12.2717 23.3287C12.375 23.1734 12.4782 23.0282 12.5868 22.904C12.6942 22.7791 12.8084 22.6772 12.9192 22.6017C13.03 22.5257 13.1361 22.4757 13.2255 22.4422C13.315 22.4082 13.3885 22.3924 13.438 22.3814C13.4881 22.3723 13.5147 22.3674 13.5147 22.3674C13.5147 22.3674 13.4886 22.3746 13.4397 22.3881C13.3913 22.403 13.3208 22.4267 13.2351 22.4651C13.1495 22.5039 13.0495 22.5596 12.9475 22.6401C12.8456 22.7207 12.7423 22.8252 12.6432 22.9507C12.5442 23.0765 12.4495 23.2228 12.3516 23.3801C12.2546 23.5378 12.1515 23.7068 12.0376 23.8755C11.9241 24.0449 11.8023 24.2179 11.6677 24.3854C11.5335 24.5533 11.3899 24.7184 11.236 24.8741C11.0815 25.0291 10.9177 25.1754 10.7466 25.3072C10.5756 25.4393 10.3957 25.5546 10.2138 25.6517C10.0318 25.7487 9.84611 25.8244 9.66527 25.8794C9.48443 25.935 9.30794 25.9678 9.14409 25.9838C8.81552 26.0167 8.54175 25.9771 8.35588 25.9406C8.26263 25.9215 8.19052 25.9009 8.14194 25.8867C8.09331 25.8719 8.06738 25.864 8.06738 25.864Z" fill="white"/>
</g>
<defs>
<linearGradient id="paint0_linear_46_3120" x1="31.4763" y1="61.2883" x2="31.4763" y2="1.74668" gradientUnits="userSpaceOnUse">
<stop stop-color="white"/>
<stop offset="0.453562" stop-color="#DDE4FF"/>
<stop offset="1" stop-color="#DDE4FF"/>
</linearGradient>
<linearGradient id="paint1_linear_46_3120" x1="31.4763" y1="61.2883" x2="31.4763" y2="1.74668" gradientUnits="userSpaceOnUse">
<stop stop-color="white"/>
<stop offset="0.453562" stop-color="#DDE4FF"/>
<stop offset="1" stop-color="#DDE4FF"/>
</linearGradient>
<clipPath id="clip0_46_3120">
<rect width="63" height="63" fill="white"/>
</clipPath>
</defs>
</svg>
