<svg width="34" height="35" viewBox="0 0 34 35" fill="none" xmlns="http://www.w3.org/2000/svg">
<g clip-path="url(#clip0_42_625)">
<path d="M23.0333 28.558H14.2493C13.3385 28.5567 12.439 28.3564 11.6153 27.9715C10.9473 27.6593 10.2215 27.4866 9.483 27.4636C9.27314 27.4576 9.108 27.284 9.11431 27.0764C9.12062 26.8687 9.29586 26.7053 9.5059 26.7116C10.3495 26.7371 11.1788 26.9344 11.9421 27.2908C12.6631 27.6299 13.4511 27.8058 14.2493 27.8059H23.0333C23.4683 27.7824 23.8604 27.5389 24.0714 27.1618C24.2823 26.7845 24.2823 26.3265 24.0714 25.9494C23.8604 25.5721 23.4683 25.3288 23.0333 25.3051C22.8232 25.3051 22.653 25.1367 22.653 24.929C22.653 24.7214 22.8232 24.553 23.0333 24.553H23.9758C24.4267 24.553 24.8432 24.3151 25.0687 23.9287C25.2941 23.5423 25.2941 23.0664 25.0687 22.6802C24.8432 22.2938 24.4267 22.0558 23.9758 22.0558C23.766 22.0558 23.5958 21.8874 23.5958 21.6798C23.5958 21.472 23.766 21.3038 23.9758 21.3038H24.4586C24.8937 21.2801 25.2858 21.0367 25.4967 20.6595C25.7077 20.2824 25.7077 19.8243 25.4967 19.447C25.2858 19.0698 24.8937 18.8264 24.4586 18.8029C24.2486 18.8029 24.0784 18.6345 24.0784 18.4269C24.0784 18.2191 24.2486 18.0507 24.4586 18.0507H25.4163C25.8699 18.0507 26.2891 17.8113 26.5157 17.4228C26.7425 17.0341 26.7425 16.5553 26.5157 16.1666C26.2891 15.7779 25.8699 15.5385 25.4163 15.5385H17.4917C17.3655 15.5387 17.2476 15.477 17.1768 15.3737C17.1061 15.2706 17.0915 15.1393 17.1382 15.0234C18.1036 12.5828 18.1949 10.7287 17.4575 8.63021C17.3733 8.35283 17.2128 8.10382 16.9939 7.91134C16.7752 7.71869 16.5066 7.59008 16.2183 7.5396C15.7909 7.47592 15.3567 7.60257 15.0324 7.88565C14.7043 8.17 14.5182 8.58224 14.5231 9.01373V9.6156C14.5247 11.3191 14.0879 12.9952 13.2537 14.4854C12.4936 15.8129 11.034 16.7417 9.68848 17.4675V17.4677C9.50476 17.5715 9.27075 17.5084 9.16583 17.3266C9.0609 17.1449 9.12472 16.9133 9.30826 16.8095C10.5587 16.1326 11.9233 15.2827 12.5733 14.1206C13.3489 12.7401 13.7569 11.1873 13.7592 9.60775V9.00606C13.7549 8.36159 14.0345 7.74725 14.5251 7.32338C15.0156 6.89937 15.6684 6.70781 16.3133 6.79859C16.7468 6.86245 17.1533 7.04583 17.4859 7.32804C17.8187 7.61006 18.0645 7.97914 18.1948 8.39314C18.9549 10.533 18.9093 12.4245 18.058 14.7863H25.4163C26.0722 14.7881 26.6866 15.1045 27.0641 15.6352C27.4416 16.1659 27.5358 16.8448 27.3162 17.4563C27.0967 18.068 26.591 18.5362 25.9598 18.7125C26.377 19.1782 26.5513 19.8097 26.4313 20.4206C26.3114 21.0316 25.911 21.5526 25.3479 21.83C25.6995 22.1525 25.9236 22.5883 25.9802 23.0592C26.0366 23.5303 25.9218 24.0059 25.6562 24.4008C25.3906 24.7958 24.9917 25.0842 24.5307 25.2146C24.8788 25.6024 25.0616 26.1085 25.0403 26.6267C25.0192 27.1449 24.796 27.6349 24.4174 27.9936C24.0388 28.3523 23.5346 28.552 23.0103 28.5503L23.0333 28.558Z" fill="#2B2B2B"/>
<path d="M7.79925 29.5658H3.23814C3.02811 29.5658 2.85809 29.3974 2.85809 29.1896V15.3128C2.85809 15.1052 3.02811 14.9368 3.23814 14.9368H7.79925C8.34894 14.9378 8.87574 15.1546 9.26427 15.5395C9.65261 15.9245 9.87077 16.4462 9.87077 16.9901V27.5201C9.86861 28.0628 9.64974 28.5826 9.26159 28.9659C8.87343 29.3492 8.3477 29.5649 7.79925 29.566V29.5658ZM3.61817 28.8138H7.79925V28.8136C8.14739 28.8125 8.48094 28.675 8.72667 28.4311C8.9724 28.1873 9.1105 27.8569 9.1105 27.5125V16.9825C9.1096 16.6384 8.97114 16.3085 8.72559 16.0649C8.48003 15.821 8.14705 15.6833 7.79928 15.6812H3.6182L3.61817 28.8138Z" fill="#2B2B2B"/>
<path d="M24.4585 18.8029H20.8553C20.6452 18.8029 20.475 18.6345 20.475 18.4269C20.475 18.219 20.6452 18.0507 20.8553 18.0507H24.4547C24.6646 18.0507 24.8348 18.219 24.8348 18.4269C24.8348 18.6345 24.6646 18.8029 24.4547 18.8029H24.4585Z" fill="#2B2B2B"/>
<path d="M24.4585 22.0556H20.8553C20.6452 22.0556 20.475 21.8873 20.475 21.6796C20.475 21.4718 20.6452 21.3036 20.8553 21.3036H24.4547C24.6646 21.3036 24.8348 21.4718 24.8348 21.6796C24.8348 21.8873 24.6646 22.0556 24.4547 22.0556H24.4585Z" fill="#2B2B2B"/>
<path d="M24.4585 25.3161H20.8553C20.6452 25.3161 20.475 25.1479 20.475 24.9401C20.475 24.7325 20.6452 24.5641 20.8553 24.5641H24.4547C24.6646 24.5641 24.8348 24.7325 24.8348 24.9401C24.8348 25.1479 24.6646 25.3161 24.4547 25.3161H24.4585Z" fill="#2B2B2B"/>
<path d="M6.93618 28.0766C6.59832 28.0766 6.27415 27.9437 6.03526 27.7072C5.79655 27.4707 5.6626 27.1499 5.66278 26.8155C5.66314 26.4812 5.79782 26.1607 6.03706 25.9247C6.27648 25.6885 6.60083 25.5563 6.93868 25.557C7.27654 25.5575 7.60034 25.6912 7.83868 25.9282C8.07702 26.1651 8.21043 26.4862 8.20953 26.8205C8.20737 27.1537 8.07251 27.4726 7.83399 27.7079C7.59565 27.943 7.27295 28.0756 6.93616 28.0767L6.93618 28.0766ZM6.93618 26.3091C6.72903 26.3091 6.54207 26.4323 6.46255 26.6216C6.38286 26.8108 6.42595 27.029 6.57198 27.1744C6.71802 27.3199 6.93797 27.3643 7.12998 27.2869C7.32181 27.2095 7.44783 27.0256 7.44928 26.8204C7.45126 26.6849 7.39807 26.5543 7.30144 26.458C7.20499 26.3616 7.0732 26.308 6.93618 26.309L6.93618 26.3091Z" fill="#2B2B2B"/>
</g>
<line x1="0.5" y1="-0.5" x2="3.07935" y2="-0.5" transform="matrix(0.705048 0.709159 -0.705048 0.709159 10.6986 2.69226)" stroke="black" stroke-linecap="round"/>
<line x1="17.4443" y1="0.5" x2="17.4443" y2="3.98718" stroke="black" stroke-linecap="round"/>
<line x1="0.5" y1="-0.5" x2="3.07935" y2="-0.5" transform="matrix(-0.705048 0.709159 0.705048 0.709159 24.0821 2.69226)" stroke="black" stroke-linecap="round"/>
<defs>
<clipPath id="clip0_42_625">
<rect width="32.1204" height="29.6154" fill="white" transform="translate(0.884033 5.38464)"/>
</clipPath>
</defs>
</svg>
