<svg width="30" height="30" viewBox="0 0 30 30" fill="none" xmlns="http://www.w3.org/2000/svg">
<path d="M3.84554 28.3634V25.8048C3.84554 25.421 3.57351 25.1652 3.16557 25.1652C2.75762 25.1652 2.4856 25.421 2.4856 25.8048V28.3634H3.84554Z" fill="#DA8C36"/>
<path d="M28.3253 28.3634V25.8048C28.3253 25.421 28.0533 25.1652 27.6453 25.1652C27.2374 25.1652 26.9653 25.421 26.9653 25.8048V28.3634H28.3253Z" fill="#DA8C36"/>
<path d="M26.9653 25.165V26.4444H27.6454V28.3633H28.3253V26.4444V25.165H26.9653Z" fill="#C97629"/>
<path d="M2.4856 25.165V26.4444H3.16557V28.3633H3.8456V26.4444V25.165H2.4856Z" fill="#C97629"/>
<path d="M15.4054 4.05405C14.9189 4.05405 14.5946 3.78376 14.5946 3.3784V0.675656C14.5946 0.270297 14.9189 0 15.4054 0C15.8919 0 16.2162 0.270297 16.2162 0.675656V3.37834C16.2162 3.78381 15.8919 4.05405 15.4054 4.05405Z" fill="#B0C4D9"/>
<path d="M7.29724 28.3784V6.63994C7.29724 6.23233 7.56754 5.96063 7.9729 5.96063H11.3513C11.7567 5.96063 12.027 5.68887 12.027 5.28133V3.92259C12.027 3.51499 12.2972 3.24329 12.7026 3.24329H18.108C18.5135 3.24329 18.7837 3.51504 18.7837 3.92259V5.28127C18.7837 5.68887 19.054 5.96057 19.4593 5.96057H22.8378C23.2432 5.96057 23.5135 6.23233 23.5135 6.63988V28.3784H7.29724Z" fill="#D5E3EF"/>
<path d="M20.4055 10.5406H9.5946C9.18918 10.5406 8.91895 10.2973 8.91895 9.93249V8.71625C8.91895 8.35137 9.18924 8.10815 9.5946 8.10815H20.4055C20.8109 8.10815 21.0811 8.35142 21.0811 8.71625V9.93249C21.0811 10.2973 20.8109 10.5406 20.4055 10.5406Z" fill="#4C9CD6"/>
<path d="M14.2683 10.4991H12.978L14.9134 8.14038H16.2036L14.2683 10.4991Z" fill="#70B7E5"/>
<path d="M17.4938 10.4991H14.9133L16.8487 8.14038H19.4292L17.4938 10.4991Z" fill="#70B7E5"/>
<path d="M20.4055 14.5945H9.5946C9.18918 14.5945 8.91895 14.3513 8.91895 13.9864V12.7702C8.91895 12.4053 9.18924 12.1621 9.5946 12.1621H20.4055C20.8109 12.1621 21.0811 12.4054 21.0811 12.7702V13.9864C21.0811 14.3513 20.8109 14.5945 20.4055 14.5945Z" fill="#4C9CD6"/>
<path d="M14.2683 14.5946H12.978L14.9134 12.1857H16.2036L14.2683 14.5946Z" fill="#70B7E5"/>
<path d="M17.4938 14.5946H14.9133L16.8487 12.1857H19.4292L17.4938 14.5946Z" fill="#70B7E5"/>
<path d="M20.4055 18.6486H9.5946C9.18918 18.6486 8.91895 18.4053 8.91895 18.0405V16.8243C8.91895 16.4594 9.18924 16.2162 9.5946 16.2162H20.4055C20.8109 16.2162 21.0811 16.4595 21.0811 16.8243V18.0405C21.0811 18.4054 20.8109 18.6486 20.4055 18.6486Z" fill="#4C9CD6"/>
<path d="M14.2683 18.6392H12.978L14.9134 16.2303H16.2036L14.2683 18.6392Z" fill="#70B7E5"/>
<path d="M17.4938 18.6392H14.9133L16.8487 16.2303H19.4292L17.4938 18.6392Z" fill="#70B7E5"/>
<path d="M20.4055 22.7027H9.5946C9.18918 22.7027 8.91895 22.4594 8.91895 22.0946V20.8784C8.91895 20.5135 9.18924 20.2703 9.5946 20.2703H20.4055C20.8109 20.2703 21.0811 20.5135 21.0811 20.8784V22.0946C21.0811 22.4595 20.8109 22.7027 20.4055 22.7027Z" fill="#4C9CD6"/>
<path d="M14.2683 22.6839H12.978L14.9134 20.275H16.2036L14.2683 22.6839Z" fill="#70B7E5"/>
<path d="M17.4938 22.6839H14.9133L16.8487 20.275H19.4292L17.4938 22.6839Z" fill="#70B7E5"/>
<path d="M29.3183 30H0.681798C0.272754 30 0 29.6757 0 29.1892C0 28.7028 0.272754 28.3784 0.681798 28.3784H29.3182C29.7273 28.3784 30 28.7028 30 29.1892C30 29.6757 29.7273 30 29.3183 30Z" fill="#595A66"/>
<path d="M29.1892 23.8176C29.1892 25.0237 28.3108 25.9459 27.1622 25.9459C26.0135 25.9459 25.1351 25.0237 25.1351 23.8176C25.1351 22.6115 27.1622 20.2703 27.1622 20.2703C27.1622 20.2703 29.1892 22.6115 29.1892 23.8176Z" fill="#89C763"/>
<path d="M28.1033 21.8918C28.3204 22.3495 28.4652 22.7419 28.4652 23.0688C28.4652 24.3112 27.5241 25.292 26.2934 25.292C25.859 25.292 25.4971 25.1612 25.1351 24.9651C25.4971 25.5536 26.2211 25.9459 27.0174 25.9459C28.2481 25.9459 29.1892 25.0959 29.1892 23.9843C29.1892 23.4612 28.61 22.6111 28.1033 21.8918Z" fill="#71B956"/>
<path d="M4.86485 23.8176C4.86485 25.0237 3.98648 25.9459 2.83782 25.9459C1.68916 25.9459 0.810791 25.0237 0.810791 23.8176C0.810791 22.6115 2.83782 20.2703 2.83782 20.2703C2.83782 20.2703 4.86485 22.6115 4.86485 23.8176Z" fill="#89C763"/>
<path d="M17.0217 24.3762H12.9781V28.3628H17.0217V24.3762Z" fill="#4C9CD6"/>
<path d="M20.3914 27.0339H19.0435C18.6392 27.0339 18.3696 26.7681 18.3696 26.3695V25.0406C18.3696 24.642 18.6392 24.3762 19.0435 24.3762H20.3914C20.7957 24.3762 21.0653 24.642 21.0653 25.0406V26.3695C21.0653 26.7681 20.7957 27.0339 20.3914 27.0339Z" fill="#4C9CD6"/>
<path d="M10.9564 27.034H9.60859C9.20423 27.034 8.93469 26.7682 8.93469 26.3696V25.0408C8.93469 24.6421 9.20429 24.3763 9.60859 24.3763H10.9564C11.3608 24.3763 11.6303 24.6421 11.6303 25.0408V26.3696C11.6303 26.7682 11.3608 27.034 10.9564 27.034Z" fill="#4C9CD6"/>
<path d="M3.77892 21.8918C3.9961 22.3495 4.14087 22.7419 4.14087 23.0688C4.14087 24.3112 3.19977 25.292 1.96907 25.292C1.5347 25.292 1.17275 25.1612 0.810791 24.9651C1.17275 25.5536 1.89672 25.9459 2.69305 25.9459C3.92375 25.9459 4.86485 25.0959 4.86485 23.9843C4.86485 23.4612 4.28564 22.6111 3.77892 21.8918Z" fill="#71B956"/>
<path d="M18.1081 3.24329H12.7026C12.2972 3.24329 12.027 3.48656 12.027 3.85138V5.06762C12.027 5.4325 11.7567 5.67572 11.3513 5.67572H19.4594C19.054 5.67572 18.7838 5.43245 18.7838 5.06762V3.85138C18.7838 3.4865 18.5135 3.24329 18.1081 3.24329Z" fill="#C9D5E3"/>
<path d="M18 5.06762V3.85138C18 3.4865 17.7405 3.24329 17.3514 3.24329H15.4054C15.7946 3.24329 16.054 3.48656 16.054 3.85138V5.06762C16.054 5.4325 16.3135 5.67572 16.7027 5.67572H18.6486C18.2594 5.67572 18 5.4325 18 5.06762Z" fill="#B0C4D9"/>
<path d="M21.0811 8.91897H8.91895C8.91895 8.43245 9.18924 8.10815 9.5946 8.10815H20.4055C20.8109 8.10808 21.0811 8.43245 21.0811 8.91897Z" fill="#3689C9"/>
<path d="M16.073 8.87363L16.6473 8.14783H15.2115L14.6372 8.87363H16.073Z" fill="#4C9CD6"/>
<path d="M19.6622 8.87363L20.2366 8.14783H17.3651L16.7908 8.87363H19.6622Z" fill="#4C9CD6"/>
<path d="M21.0811 12.9729H8.91895C8.91895 12.4864 9.18924 12.1621 9.5946 12.1621H20.4055C20.8109 12.1621 21.0811 12.4864 21.0811 12.9729Z" fill="#3689C9"/>
<path d="M16.073 12.9163L16.6473 12.1906H15.2115L14.6372 12.9163H16.073Z" fill="#4C9CD6"/>
<path d="M19.6622 12.9163L20.2366 12.1906H17.3651L16.7908 12.9163H19.6622Z" fill="#4C9CD6"/>
<path d="M21.0811 17.027H8.91895C8.91895 16.5405 9.18924 16.2162 9.5946 16.2162H20.4055C20.8109 16.2162 21.0811 16.5405 21.0811 17.027Z" fill="#3689C9"/>
<path d="M16.073 17.0208L16.6473 16.2346H15.2115L14.6372 17.0208H16.073Z" fill="#4C9CD6"/>
<path d="M19.6622 17.0208L20.2366 16.2346H17.3651L16.7908 17.0208H19.6622Z" fill="#4C9CD6"/>
<path d="M21.0652 20.966H8.93469C8.93469 20.5517 9.20429 20.2756 9.60859 20.2756H20.3913C20.7957 20.2756 21.0652 20.5517 21.0652 20.966Z" fill="#3689C9"/>
<path d="M21.0653 25.1081H18.3696C18.3696 24.6938 18.6392 24.4177 19.0435 24.4177H20.3914C20.7957 24.4177 21.0653 24.6939 21.0653 25.1081Z" fill="#3689C9"/>
<path d="M11.6303 25.1081H8.93469C8.93469 24.6938 9.20429 24.4177 9.60859 24.4177H10.9564C11.3608 24.4177 11.6303 24.6939 11.6303 25.1081Z" fill="#3689C9"/>
<path d="M16.073 21.0626L16.6473 20.2764H15.2115L14.6372 21.0626H16.073Z" fill="#4C9CD6"/>
<path d="M19.6622 21.0626L20.2366 20.2764H17.3651L16.7908 21.0626H19.6622Z" fill="#4C9CD6"/>
<path d="M15 24.3762L12.9783 26.7682V28.3628L16.3479 24.3762H15Z" fill="#70B7E5"/>
<path d="M17.0218 24.3762L13.6522 28.3628H16.3479L17.0218 27.5655V24.3762Z" fill="#70B7E5"/>
<path d="M15.7986 27.9815C16.2464 27.9815 16.6094 27.6185 16.6094 27.1707C16.6094 26.7229 16.2464 26.3599 15.7986 26.3599C15.3508 26.3599 14.9878 26.7229 14.9878 27.1707C14.9878 27.6185 15.3508 27.9815 15.7986 27.9815Z" fill="#1470B8"/>
<path d="M15.0123 27.9815C15.4601 27.9815 15.8232 27.6185 15.8232 27.1707C15.8232 26.7229 15.4601 26.3599 15.0123 26.3599C14.5646 26.3599 14.2015 26.7229 14.2015 27.1707C14.2015 27.6185 14.5646 27.9815 15.0123 27.9815Z" fill="#1470B8"/>
</svg>
