<svg width="40" height="50" viewBox="0 0 40 50" fill="none" xmlns="http://www.w3.org/2000/svg">
<g clip-path="url(#clip0_138_44275)">
<path d="M21.7719 37.3626H17.2389C16.8217 37.3626 16.4834 36.9526 16.4834 36.4469V34.6154H22.5274V36.4469C22.5274 36.9526 22.1891 37.3626 21.7719 37.3626Z" fill="#566E7F"/>
<path d="M9.26755 25.2747H29.7436C30.1813 25.2747 30.5981 25.0923 30.8965 24.7714C31.1941 24.4505 31.3456 24.0197 31.3149 23.5824L30.0536 5.86867C29.819 2.57782 27.0579 0 23.7686 0H15.2425C11.9532 0 9.19215 2.57782 8.95756 5.86867L7.69631 23.5825C7.6655 24.0199 7.817 24.4506 8.11469 24.7715C8.41307 25.0923 8.82988 25.2747 9.26755 25.2747Z" fill="#346AE5"/>
<path d="M30.4185 28.0228C30.407 28.0224 30.3407 28.022 30.3301 28.022H8.68116C8.67355 28.022 8.60956 28.0224 8.60185 28.0224C6.81694 28.0513 5.48175 29.4615 5.49472 31.3026C5.50848 33.1912 6.89625 34.6154 8.72233 34.6154H30.2889C32.115 34.6154 33.5029 33.1912 33.5165 31.303C33.5295 29.4615 32.1934 28.0513 30.4185 28.0228Z" fill="#346AE5"/>
<path d="M27.8158 36.9231H25.8622L23.5956 34.6154H22.5273V35.7031L25.0152 38.2362C25.1568 38.3804 25.3486 38.4615 25.5493 38.4615H27.8158C28.2333 38.4615 28.5713 38.117 28.5713 37.6923C28.5713 37.2676 28.2333 36.9231 27.8158 36.9231Z" fill="#B1C3D0"/>
<path d="M6.04396 22.9396C6.04396 23.3173 5.70398 23.6264 5.28846 23.6264H0.755495C0.339973 23.6264 0 23.3173 0 22.9396V21.5659C0 21.1882 0.339973 20.8791 0.755495 20.8791H5.28846C5.70398 20.8791 6.04396 21.1882 6.04396 21.5659V22.9396Z" fill="#566E7F"/>
<path d="M39.0108 22.9396C39.0108 23.3173 38.6708 23.6264 38.2553 23.6264H33.7223C33.3068 23.6264 32.9668 23.3173 32.9668 22.9396V21.5659C32.9668 21.1882 33.3068 20.8791 33.7223 20.8791H38.2553C38.6708 20.8791 39.0108 21.1882 39.0108 21.5659V22.9396Z" fill="#566E7F"/>
<path d="M19.7803 50C20.9941 50 21.9781 49.016 21.9781 47.8022C21.9781 46.5884 20.9941 45.6044 19.7803 45.6044C18.5665 45.6044 17.5825 46.5884 17.5825 47.8022C17.5825 49.016 18.5665 50 19.7803 50Z" fill="#35495C"/>
<path d="M29.6705 50C30.8843 50 31.8683 49.016 31.8683 47.8022C31.8683 46.5884 30.8843 45.6044 29.6705 45.6044C28.4566 45.6044 27.4727 46.5884 27.4727 47.8022C27.4727 49.016 28.4566 50 29.6705 50Z" fill="#35495C"/>
<path d="M9.34087 50C10.5547 50 11.5387 49.016 11.5387 47.8022C11.5387 46.5884 10.5547 45.6044 9.34087 45.6044C8.12706 45.6044 7.14307 46.5884 7.14307 47.8022C7.14307 49.016 8.12706 50 9.34087 50Z" fill="#35495C"/>
<path d="M9.06588 48.3516C9.52105 48.3516 9.89005 47.9826 9.89005 47.5275C9.89005 47.0723 9.52105 46.7033 9.06588 46.7033C8.6107 46.7033 8.2417 47.0723 8.2417 47.5275C8.2417 47.9826 8.6107 48.3516 9.06588 48.3516Z" fill="#566E7F"/>
<path d="M19.5053 48.3516C19.9605 48.3516 20.3295 47.9826 20.3295 47.5275C20.3295 47.0723 19.9605 46.7033 19.5053 46.7033C19.0501 46.7033 18.6812 47.0723 18.6812 47.5275C18.6812 47.9826 19.0501 48.3516 19.5053 48.3516Z" fill="#566E7F"/>
<path d="M29.9453 48.3516C30.4004 48.3516 30.7694 47.9826 30.7694 47.5275C30.7694 47.0723 30.4004 46.7033 29.9453 46.7033C29.4901 46.7033 29.1211 47.0723 29.1211 47.5275C29.1211 47.9826 29.4901 48.3516 29.9453 48.3516Z" fill="#566E7F"/>
<path d="M21.9781 25.2747H17.5825V28.022H21.9781V25.2747Z" fill="#566E7F"/>
<path d="M16.7584 10.989C17.517 10.989 18.132 10.374 18.132 9.61539C18.132 8.85675 17.517 8.24176 16.7584 8.24176C15.9998 8.24176 15.3848 8.85675 15.3848 9.61539C15.3848 10.374 15.9998 10.989 16.7584 10.989Z" fill="#7C9ADD"/>
<path d="M22.2525 10.989C23.0112 10.989 23.6262 10.374 23.6262 9.61539C23.6262 8.85675 23.0112 8.24176 22.2525 8.24176C21.4939 8.24176 20.8789 8.85675 20.8789 9.61539C20.8789 10.374 21.4939 10.989 22.2525 10.989Z" fill="#7C9ADD"/>
<path d="M16.7584 17.033C17.517 17.033 18.132 16.418 18.132 15.6593C18.132 14.9007 17.517 14.2857 16.7584 14.2857C15.9998 14.2857 15.3848 14.9007 15.3848 15.6593C15.3848 16.418 15.9998 17.033 16.7584 17.033Z" fill="#7C9ADD"/>
<path d="M22.2525 17.033C23.0112 17.033 23.6262 16.418 23.6262 15.6593C23.6262 14.9007 23.0112 14.2857 22.2525 14.2857C21.4939 14.2857 20.8789 14.9007 20.8789 15.6593C20.8789 16.418 21.4939 17.033 22.2525 17.033Z" fill="#7C9ADD"/>
<path d="M35.241 23.6264V28.8711C35.241 29.6976 34.5354 30.3696 33.6686 30.3696H33.5346C33.5933 30.6048 33.633 30.8478 33.631 31.1046C33.6288 31.3721 33.5824 31.6244 33.5166 31.8681H33.6686C35.403 31.8681 36.8133 30.5237 36.8133 28.8711V23.6264H35.241Z" fill="#B1C3D0"/>
<path d="M5.37992 31.1043C5.37786 30.8477 5.41767 30.6047 5.47627 30.3696H5.34384C4.4767 30.3696 3.7708 29.6976 3.7708 28.8711V23.6264H2.19775V28.8711C2.19775 30.5237 3.60867 31.8681 5.34384 31.8681H5.49446C5.42849 31.6243 5.38208 31.3719 5.37992 31.1043Z" fill="#B1C3D0"/>
<path d="M30.7538 43.9972C30.7541 43.6613 30.5237 43.3557 30.1604 43.2768L20.565 41.1979V37.3626H18.9951V41.1979L9.39963 43.2768C9.03699 43.3556 8.80681 43.6601 8.80613 43.9954C8.80024 43.9953 8.797 43.9952 8.79102 43.995V45.6043C9.03768 45.522 9.29926 45.4689 9.57595 45.4689C9.85263 45.4689 10.1142 45.522 10.3609 45.6043V44.5814L18.9951 42.7107V45.6044C19.2418 45.522 19.5033 45.469 19.78 45.469C20.0567 45.469 20.3183 45.522 20.565 45.6044V42.7107L29.1992 44.5814V45.6043C29.4458 45.522 29.7074 45.4689 29.9841 45.4689C30.2608 45.4689 30.5224 45.522 30.769 45.6043V43.995C30.7633 43.9959 30.7594 43.9964 30.7538 43.9972Z" fill="#B1C3D0"/>
<path d="M20.3295 36.8132H18.6812V38.4615H20.3295V36.8132Z" fill="#8EADBE"/>
<path d="M21.9781 24.7253H17.5825V25.8242H21.9781V24.7253Z" fill="#35495C"/>
<path d="M22.5274 34.6154H16.4834V35.7143H22.5274V34.6154Z" fill="#35495C"/>
</g>
<defs>
<clipPath id="clip0_138_44275">
<rect width="39.011" height="50" fill="white"/>
</clipPath>
</defs>
</svg>
