<svg width="41" height="50" viewBox="0 0 41 50" fill="none" xmlns="http://www.w3.org/2000/svg">
<g clip-path="url(#clip0_44_904)">
<path d="M40.7216 0H0V47.4227H40.7216V0Z" fill="#346AE5"/>
<path d="M36.5979 22.6804H4.12372V42.7835H36.5979V22.6804Z" fill="#87CED9"/>
<path d="M4.12372 35.7307V42.7835H36.5979V22.6804H20.3437L4.12372 35.7307Z" fill="#71C4D1"/>
<path d="M3.45267 46.5841H1.76184V50H3.45267V46.5841Z" fill="#126099"/>
<path d="M38.9598 47.4381H37.269V50H38.9598V47.4381Z" fill="#126099"/>
<path d="M40.6507 17.5491H0.0710449V19.2571H40.6507V17.5491Z" fill="#126099"/>
<path d="M16.1583 15.3864C17.5509 15.3864 18.6798 14.2528 18.6798 12.8544C18.6798 11.456 17.5509 10.3224 16.1583 10.3224C14.7657 10.3224 13.6368 11.456 13.6368 12.8544C13.6368 14.2528 14.7657 15.3864 16.1583 15.3864Z" fill="#CFCFCF"/>
<path d="M7.75333 15.3864C9.14592 15.3864 10.2748 14.2528 10.2748 12.8544C10.2748 11.456 9.14592 10.3224 7.75333 10.3224C6.36073 10.3224 5.23181 11.456 5.23181 12.8544C5.23181 14.2528 6.36073 15.3864 7.75333 15.3864Z" fill="#CFCFCF"/>
<path d="M32.9683 15.3864C34.3609 15.3864 35.4898 14.2528 35.4898 12.8544C35.4898 11.456 34.3609 10.3224 32.9683 10.3224C31.5757 10.3224 30.4468 11.456 30.4468 12.8544C30.4468 14.2528 31.5757 15.3864 32.9683 15.3864Z" fill="#CFCFCF"/>
<path d="M24.5633 15.3864C25.9559 15.3864 27.0848 14.2528 27.0848 12.8544C27.0848 11.456 25.9559 10.3224 24.5633 10.3224C23.1707 10.3224 22.0418 11.456 22.0418 12.8544C22.0418 14.2528 23.1707 15.3864 24.5633 15.3864Z" fill="#CFCFCF"/>
<path d="M8.93711 10.3225H7.23151V15.3865H8.93711V10.3225Z" fill="#EBEBEB"/>
<path d="M17.4651 10.3225H15.7595V15.3865H17.4651V10.3225Z" fill="#EBEBEB"/>
<path d="M25.9931 10.3225H24.2875V15.3865H25.9931V10.3225Z" fill="#EBEBEB"/>
<path d="M34.5211 10.3225H32.8155V15.3865H34.5211V10.3225Z" fill="#EBEBEB"/>
<path d="M5.83722 7.15576H4.1662V3.49587C4.1662 2.99084 4.54053 2.5809 5.00171 2.5809H7.50824V4.41085H5.83722V7.15576Z" fill="#CFCFCF"/>
<path d="M17.5343 7.15576H15.8633V4.41085H14.1923V2.5809H16.6988C17.16 2.5809 17.5343 2.99084 17.5343 3.49587V7.15576Z" fill="#CFCFCF"/>
<path d="M11.6857 2.5809H10.0146V7.15576H11.6857V2.5809Z" fill="#CFCFCF"/>
<path d="M25.8894 7.15576H24.2184V3.49587C24.2184 2.99084 24.5927 2.5809 25.0539 2.5809H27.5604V4.41085H25.8894V7.15576Z" fill="#CFCFCF"/>
<path d="M37.5864 7.15576H35.9154V4.41085H34.2444V2.5809H36.7509C37.2121 2.5809 37.5864 2.99084 37.5864 3.49587V7.15576Z" fill="#CFCFCF"/>
<path d="M31.738 2.5809H30.067V7.15576H31.738V2.5809Z" fill="#CFCFCF"/>
<path d="M21.0577 28.5576L16.2612 33.2899L15.0282 32.0733L19.8246 27.341L21.0577 28.5576Z" fill="#EBEBEB"/>
<path d="M26.2931 28.5561L17.1379 37.5888L15.9049 36.3723L25.0601 27.3396L26.2931 28.5561Z" fill="#EBEBEB"/>
<path d="M26.7225 33.2964L22.3638 37.5969L21.1308 36.3803L25.4895 32.0799L26.7225 33.2964Z" fill="#EBEBEB"/>
<path d="M40.7216 5.6701H0V7.73196H40.7216V5.6701Z" fill="#CFCFCF"/>
</g>
<defs>
<clipPath id="clip0_44_904">
<rect width="40.7216" height="50" fill="white"/>
</clipPath>
</defs>
</svg>
