<svg width="30" height="30" viewBox="0 0 30 30" fill="none" xmlns="http://www.w3.org/2000/svg">
<path d="M23.6569 13.4969V8.65741C23.6569 3.87601 19.7809 0 15.0002 0C10.2188 0 6.34277 3.87601 6.34277 8.65741V13.4969M9.46463 13.4969V8.65741C9.46463 5.60469 11.9481 3.12192 15.0001 3.12192C18.0522 3.12192 20.535 5.60475 20.535 8.65741V13.4969" fill="#D3DAE0"/>
<path d="M15.5051 0.0150585C15.338 0.00544919 15.1698 0 15.0002 0C10.2188 0 6.34277 3.87601 6.34277 8.65741V13.4969H7.35275V8.65741C7.35275 4.04558 10.9589 0.276619 15.5051 0.0150585Z" fill="#899EA8"/>
<path d="M16.0101 3.12183C15.8399 3.12183 15.6715 3.12997 15.5051 3.14509C18.3214 3.40102 20.535 5.77488 20.535 8.65732V13.4968H21.545V8.65732C21.5451 5.60466 19.0623 3.12183 16.0101 3.12183Z" fill="#899EA8"/>
<path d="M26.5228 13.4968H3.47729V29.9999H26.5228V13.4968Z" fill="#F79F00"/>
<path d="M5.49719 13.4968H3.47729V29.9999H5.49719V13.4968Z" fill="#E48900"/>
<path d="M17.4791 20.1992C17.4791 18.8301 16.3691 17.7202 15 17.7202C13.6309 17.7202 12.521 18.8301 12.521 20.1992C12.521 21.1422 13.0476 21.9622 13.8227 22.3813L13.4238 25.4327H16.5763L16.1774 22.3813C16.9525 21.9622 17.4791 21.1423 17.4791 20.1992Z" fill="#3E3D4C"/>
</svg>
