<svg width="31" height="22" viewBox="0 0 31 22" fill="none" xmlns="http://www.w3.org/2000/svg">
<path d="M30.3155 8.04261L30.3165 8.04199C30.3176 8.04097 30.3187 8.03995 30.3198 8.03852C30.4076 7.97595 30.4806 7.89303 30.5447 7.80257C30.5648 7.77494 30.58 7.74791 30.5965 7.71905C30.6379 7.64756 30.671 7.57122 30.6953 7.48903C30.7048 7.45901 30.7164 7.43115 30.723 7.39958C30.7267 7.38348 30.7341 7.36992 30.737 7.35404C30.7537 7.25659 30.756 7.15921 30.7465 7.06506C30.7462 7.05525 30.7414 7.04653 30.7404 7.03654C30.7272 6.93224 30.6962 6.83531 30.6542 6.74349C30.6483 6.73068 30.6488 6.71555 30.6424 6.70266L27.6155 0.863251C27.384 0.416183 26.8623 0.28934 26.4495 0.581087C26.0376 0.872616 25.8916 1.47156 26.1238 1.91962L27.7552 5.06802C24.5745 3.88506 21.1882 3.83542 21.028 3.8344C10.6494 3.35558 1.46573 10.9026 0.555662 20.658C0.510687 21.1411 0.784153 21.5545 1.18462 21.646C1.22745 21.6558 1.27113 21.662 1.31646 21.6647C1.78648 21.6861 2.20758 21.2712 2.25803 20.7373C3.06847 12.0479 11.4077 5.33264 20.8748 5.76884C20.9186 5.7687 24.4177 5.81826 27.4415 7.02638L23.4976 8.28349C23.0354 8.43129 22.7431 8.96716 22.8435 9.48044C22.9432 9.99444 23.399 10.2889 23.8618 10.1442L30.0785 8.16264C30.1629 8.13487 30.2422 8.09409 30.3155 8.04261Z" fill="#1D1D1B"/>
</svg>
