<?xml version="1.0" encoding="UTF-8"?>
<svg width="1278px" height="1500px" viewBox="0 0 1278 1500" version="1.1" xmlns="http://www.w3.org/2000/svg" xmlns:xlink="http://www.w3.org/1999/xlink">
    <title>Page 1</title>
    <g id="Page-1" stroke="none" stroke-width="1" fill="none" fill-rule="evenodd">
        <path d="M535.664,151.096 C592.787,121.601 574.493,270.416 743.12,329.817 C795,348.093 915.66,267.988 929.02,282.558 C951.46,307.046 856.17,461.185 723.69,461.161 C597.418,461.139 478.103,180.815 535.664,151.096" id="Fill-3" fill="#F27C79"></path>
        <path d="M535.663,151.096 C583.299,126.5 594.48,224.619 681.34,293.404 C677.13,313.883 653.11,380.687 613.346,406.594 C508.931,332.489 490.308,174.514 535.663,151.096" id="Fill-4" fill="#CE9D84"></path>
        <path d="M71.468,1485.3 C98.34,1487.46 108.193,1485.72 135.092,1485.32 C191.513,1484.48 248.002,1485.63 304.444,1485.49 C350.896,1485.38 397.355,1485.11 443.816,1485.49 C444.811,1485.44 445.803,1485.4 446.797,1485.34 C471.173,1483.95 495.198,1485.16 519.588,1486.22 C542.346,1487.21 583.174,1486.7 606.322,1493.27 C613.125,1495.2 556.552,1498.12 536.501,1497.66 C510.26,1497.06 484.037,1496.1 457.792,1495.83 C453.782,1495.79 449.773,1495.79 445.764,1495.75 C442.635,1495.89 439.516,1495.98 436.373,1496.16 C385.159,1499.07 334.226,1498.67 282.908,1498.73 C230.829,1498.79 178.766,1499.66 126.68,1499.3 C101.671,1499.13 76.67,1498.52 51.665,1497.85 C30.739,1497.28 12.152,1498.41 0.643,1490.87 C-2.358,1488.9 50.2,1483.59 71.468,1485.3" id="Fill-5" fill="#B1D5DE"></path>
        <path d="M497.563,1472.79 C486.953,1468.2 485.563,1458.78 481.014,1449.86 C480.707,1449.26 478.905,1436.43 478.889,1435.4 C478.813,1430.97 465.952,1419.27 460.03,1428.52 C448.358,1446.76 433.484,1418.93 434.202,1426.52 C436.34,1449.1 427.992,1485.06 436.42,1487.49 C454.374,1492.67 538.086,1498.4 539.631,1489.6 C540.558,1484.32 515.912,1480.72 497.563,1472.79" id="Fill-6" fill="#404859"></path>
        <path d="M74.432,1297.65 C74.704,1297.03 113.261,1265.07 114.045,1264.41 C117.432,1261.55 120.577,1239.82 109.663,1241.08 C88.147,1243.56 99.165,1220.45 93.738,1225.8 C77.582,1241.73 32.505,1271.14 31.809,1279.89 C29.435,1309.71 23.142,1339.65 33.707,1369.6 C52.281,1378.51 70.392,1306.81 74.432,1297.65" id="Fill-7" fill="#404859"></path>
        <path d="M80.127,1272.47 C96.166,1301.21 109.826,1300.84 109.826,1300.84 C109.826,1300.84 337.244,1150.32 394.063,1022.07 C416.067,972.4 421.864,932.91 438.737,862.41 C458.334,780.53 472.234,709.85 475.243,709.04 C477.895,734.23 474.411,836.72 475.77,893.02 C477.528,965.93 472.019,1038.81 459.296,1110.62 L424.546,1425.05 C424.546,1425.05 457.886,1443.02 469.21,1445.61 C484.369,1449.03 507.191,1446.85 507.191,1446.85 C507.191,1446.85 609.938,1142.87 620.215,947.62 C627.525,809.01 626.222,760.32 614.692,654.663 C612.265,632.295 609.58,611.051 606.717,591.086 C606.717,590.983 606.691,590.907 606.691,590.805 C606.64,590.396 606.563,589.986 606.513,589.577 C593.525,498.955 577.063,434.79 564.204,412.192 C551.448,383.229 320.072,475.462 320.404,487.758 C320.967,508.132 320.686,529.656 319.663,552.024 C319.612,553.099 319.562,554.197 319.484,555.297 C317.848,589.016 314.525,624.702 309.975,661.411 C309.616,664.274 309.259,667.138 308.901,670 C296.643,765.11 255.988,985.53 255.988,985.53 L68.501,1238.48 C68.501,1238.48 69.908,1254.16 80.127,1272.47" id="Fill-8" fill="#7F635D"></path>
        <path d="M618.473,691.2 C599.032,691.03 536.909,691.66 470.95,705.02 C419.332,715.47 338.534,768.31 288.026,804.23 C281.345,843.79 274.37,883.47 268.639,915.59 C308.8,890.15 378.533,857.79 446.696,828.5 C462.046,761.94 472.66,709.74 475.243,709.04 C476.895,724.73 476.167,770.37 475.711,816.17 C539.207,789.48 597.258,766.85 623.41,756.79 C622.378,735.84 620.739,714.74 618.473,691.2" id="Fill-9" fill="#56423F"></path>
        <path d="M308.9,670 C309.259,667.138 309.616,664.274 309.975,661.411 C312.139,643.954 314.015,626.74 315.573,609.848 L606.886,654.04 C606.886,654.04 496.357,710.57 307.714,679 C308.117,675.99 308.516,672.99 308.9,670" id="Fill-10" fill="#725651"></path>
        <path d="M466.689,723.04 C474.05,692.66 480.901,662.071 482.108,630.729 C482.298,625.81 489.967,625.785 489.777,630.729 C488.544,662.749 481.604,694.04 474.085,725.08 C472.923,729.88 465.526,727.84 466.689,723.04" id="Fill-11" fill="#725651"></path>
        <path d="M305.189,204.346 C316.283,168.625 353.591,140.152 390.303,131.258 C390.315,131.302 390.331,131.352 390.345,131.396 C442.751,116.209 523.772,133.687 549.799,143.502 C622.409,170.888 591.67,386.042 607.182,443.851 C609.12,448.523 622.187,635.104 624.752,640.795 C603.929,678.63 367.637,691.98 277.115,637.457 C281.645,588.499 320.276,504.573 318.679,406.594 C317.33,323.833 296.154,233.441 305.189,204.346" id="Fill-12" fill="#F2C3A7"></path>
        <path d="M417.112,116.027 C428.935,111.231 442.748,111.2 457.87,116.021 C472.992,120.841 480.609,135.738 485.345,142.639 L463.95,157.228 C463.95,157.228 433.41,157.972 424.481,163.641 C415.552,169.309 403.934,171.126 403.934,171.126 C403.934,171.126 374.345,133.379 417.112,116.027" id="Fill-13" fill="#FFDCCA"></path>
        <path d="M432.72,40.545 C432.72,40.545 438.507,35.482 440.977,25.425 C446.605,2.5 425.308,0.273 425.308,0.273 C425.308,0.273 416.354,8.469 400.115,17.423 C393.111,21.285 384.573,25.543 380.386,31.386 C375.861,37.697 378.86,52.229 381.903,61.256 C394.03,97.24 403.734,99.767 421.721,96.266 C457.308,89.338 432.657,40.953 432.72,40.545" id="Fill-14" fill="#434A59"></path>
        <path d="M410.869,137.51 C413.103,145.086 468.578,161.063 452.333,127.756 L429.781,73.391 L404.953,67.961 L410.869,137.51" id="Fill-15" fill="#FF867A"></path>
        <path d="M1277.48,450.288 C970.54,710.2 519.86,657.185 213.332,917.84 C151.469,777.22 89.626,636.584 27.782,495.965 C70.555,459.746 116.133,429.59 163.731,403.828 C199.46,384.481 236.347,367.608 274.037,352.501 C546.132,243.275 860.21,225.46 1091.93,28.433 C1153.77,169.051 1215.64,309.67 1277.48,450.288" id="Fill-16" fill="#74C6A9"></path>
        <path d="M237.534,824.39 C383.602,720.56 556.083,673.74 723.01,628.422 C889.19,583.306 1060.96,536.671 1204.86,433.671 L1067.72,121.87 C921.66,225.698 749.17,272.519 582.248,317.836 C416.063,362.953 244.294,409.587 100.401,512.588 L237.534,824.39 Z M1224.22,440.663 C1223.59,441.963 1222.65,443.125 1221.42,444.022 C1073.63,551.979 897.79,599.716 727.75,645.884 C558.935,691.72 384.37,739.11 239.104,845.56 C236.89,847.19 234.062,847.72 231.411,847.01 C228.764,846.3 226.578,844.42 225.477,841.91 L80.896,513.183 C79.181,509.295 80.408,504.731 83.839,502.236 C231.627,394.28 407.463,346.542 577.509,300.374 C746.33,254.548 920.88,207.154 1066.15,100.697 C1068.37,99.075 1071.19,98.544 1073.84,99.253 C1076.49,99.965 1078.68,101.838 1079.78,104.348 L1224.36,433.075 C1225.46,435.57 1225.35,438.337 1224.22,440.663 L1224.22,440.663 Z" id="Fill-17" fill="#388E75"></path>
        <path d="M1006.6,151.621 C1022.25,190.025 1069.43,203.597 1102.53,178.543 C1092.19,155.025 1081.84,131.508 1071.5,107.99 C1050.42,123.471 1028.87,137.933 1006.6,151.621" id="Fill-18" fill="#388E75"></path>
        <path d="M1151.13,480.241 C1132.85,440.751 1151.71,391.186 1185.05,366.166 C1195.39,389.684 1205.74,413.201 1216.08,436.718 C1194.99,452.162 1173.42,466.589 1151.13,480.241" id="Fill-19" fill="#388E75"></path>
        <path d="M154.126,466.019 C171.387,505.475 154.482,555.315 120.206,580.094 C109.863,556.576 99.52,533.059 89.176,509.542 C110.268,494.101 131.832,479.674 154.126,466.019" id="Fill-20" fill="#388E75"></path>
        <path d="M298.659,794.64 C282.477,757.55 235.875,741.22 202.727,767.72 C213.07,791.23 223.414,814.75 233.757,838.27 C254.83,822.79 276.38,808.33 298.659,794.64" id="Fill-21" fill="#388E75"></path>
        <path d="M801.03,431.969 C834.1,507.026 793.49,591.927 713.93,612.515 C633.23,633.399 538.628,591.086 504.227,514.291 C470.553,439.122 512.256,354.72 591.325,333.745 C672.39,312.239 766.89,354.482 801.03,431.969" id="Fill-22" fill="#388E75"></path>
        <path d="M688.03,582.513 C683.72,571.94 681.57,566.654 677.25,556.083 C660.64,558.669 644.45,560.034 628.025,555.263 C627.955,547.571 627.921,543.726 627.852,536.037 C642.92,540.276 659.24,540.868 674.36,537.245 C688.47,533.867 706.05,520.049 698.56,503.324 C691.19,486.873 669.42,481.458 652.95,480.039 C628.353,477.921 597.042,472.052 586.442,446.274 C576.999,423.309 591.743,402.077 613.214,393.604 C608.901,383.032 606.745,377.746 602.433,367.174 C609.654,365.452 613.266,364.593 620.487,362.868 C624.629,373.022 626.7,378.099 630.842,388.252 C644.51,385.357 658.79,385.124 672.42,388.327 C672.33,395.941 672.28,399.747 672.19,407.358 C658.41,404.093 645.67,405.144 631.88,407.245 C617.517,409.433 604.397,422.763 610.188,437.116 C617.314,454.778 642.17,456.396 658.47,458.334 C683.81,461.345 712.5,469.271 723.12,495.392 C732.83,519.269 717.81,542.03 695.28,550.923 C699.72,561.809 701.94,567.252 706.38,578.138 C699.04,579.888 695.37,580.762 688.03,582.513" id="Fill-23" fill="#FFFFFF"></path>
        <path d="M280.671,600.323 C287.26,615.541 279.459,634.663 265.747,643.104 C251.459,651.898 232.437,644.28 226.393,630.329 C220.174,615.975 225.397,594.357 240.866,586.533 C255.024,579.37 274.192,585.36 280.671,600.323" id="Fill-24" fill="#FFFFFF"></path>
        <path d="M1024.58,345.937 C1030.62,359.776 1049.82,368.727 1064.39,359.728 C1078.4,351.077 1085.38,331.206 1078.86,315.932 C1072.45,300.894 1053.43,296.092 1039.51,303.156 C1024.21,310.922 1018.32,331.585 1024.58,345.937" id="Fill-25" fill="#FFFFFF"></path>
        <path d="M705.880347,599.827 C705.82,613.857 695.95,626.266 683.02,631.348 C316.086,688.44 165.831,406.967 163.731,403.828 C199.46,384.481 236.347,367.608 274.037,352.501 C296.359,410.834 291.118,409.063 332.231,455.096 C348.634,473.449 371.53,485.466 392.524,498.014 C456.346,536.188 461.833,529.056 497.454,536.62 C539.107,545.556 550.524,545.113 567.459,550.086 C579.447,553.6 590.905,558.547 603.463,560.23 C637.77,564.826 660.43,560.557 679.69,567.762 C692.21,572.409 705.96,585.402 705.880347,599.827" id="Fill-26" fill="#388E75"></path>
        <path d="M414.846,80.358 C414.846,80.358 425.58,108.246 440.227,114.687 C445.396,116.96 446.471,118.594 448.68,118.954 L431.765,78.172 C423.487,79.229 414.846,80.358 414.846,80.358" id="Fill-27" fill="#C66C67"></path>
        <path d="M404.953,49.753 L405.77,75.723 C406.643,86.55 415.001,93.978 423.25,96.851 C431.981,99.891 439.854,98.928 449.633,94.348 C457.78,90.531 459.456,80.958 455.8,69.836 C451.058,55.409 442.588,43.469 437.699,37.334 C433.172,31.654 427.177,29.101 421.55,29.507 C417.405,38.493 405.871,37.024 404.953,49.753" id="Fill-28" fill="#FF867A"></path>
        <path d="M426.876,65.027 C426.876,65.027 427.104,62.041 434.528,60.094 C441.951,58.147 445.392,57.917 447.415,57.88 C449.438,57.843 451.158,55.618 452.271,57.337 C453.385,59.058 455.308,61.256 455.308,61.256 C455.308,61.256 457.051,61.592 459.985,66.043 C462.919,70.495 460.973,76.039 461.58,78.172 C462.187,80.305 463.502,84.958 462.996,89.208 C462.49,93.458 448.225,102.766 435.577,101.653 C422.931,100.54 410.991,92.75 409.373,87.286 C407.754,81.822 408.058,73.35 407.349,68.936 C406.641,64.521 401.886,55.01 404.213,55.314 C406.54,55.618 415.949,71.907 418.984,71.502 C422.02,71.098 425.156,67.961 426.876,65.027" id="Fill-29" fill="#434A59"></path>
        <path d="M429.055,65.196 C429.055,65.196 438.405,65.354 450.553,60.95 C450.553,60.95 456.508,70.688 449.732,74.948 C443.663,78.765 434.236,74.246 429.055,65.196" id="Fill-30" fill="#FFFFFF"></path>
        <path d="M405.592,62.668 C404.193,61.185 403.038,59.511 401.982,57.768 C399.977,54.455 396.228,49.996 392.776,55.389 C387.756,63.233 397.395,79.402 406.396,75.79 C413.081,73.107 409.114,66.403 405.592,62.668" id="Fill-31" fill="#FF867A"></path>
        <path d="M437.473,55.825 C438.428,55.647 439.017,54.983 438.933,53.994 C438.748,51.834 442.113,51.756 442.298,53.909 C442.498,56.251 440.782,58.613 438.448,59.047 C437.557,59.213 436.633,58.862 436.349,57.924 C436.108,57.129 436.573,55.992 437.473,55.825" id="Fill-32" fill="#C66C67"></path>
        <polyline id="Fill-33" fill="#FFDCCA" points="457.441 150.938 469.808 216.309 451.171 217.978 440.808 154.277 457.441 150.938"></polyline>
        <path d="M341.604,178.672 C402.159,200.26 321.116,311.753 375.855,459.978 C394.911,511.576 663.09,523.545 668.34,569.32 C672.13,602.323 391.465,671.82 290.527,514.089 C189.589,356.358 280.585,156.919 341.604,178.672" id="Fill-34" fill="#FF867A"></path>
        <path d="M430.368,489.476 C410.694,478.271 389.364,467.895 368.014,460.306 C361.686,458.057 358.963,468.116 365.244,470.35 C385.713,477.626 406.232,487.718 425.111,498.471 C430.945,501.793 436.199,492.797 430.368,489.476" id="Fill-35" fill="#C66C67"></path>
        <path d="M683.88,550.139 C699.74,549.753 718.73,540.252 713.98,551.875 C709.23,563.498 692.8,562.771 688.67,570.557 C684.54,578.342 728.68,609.136 721.12,615.439 C716.11,619.625 695.79,597.602 694.94,599.363 C694.09,601.125 716.3,620.781 709.8,625.725 C701.84,631.786 689.87,632.491 678.83,626.457 C680.81,629.844 681.87,632.998 680.23,634.457 C675.8,638.381 603.662,572.106 646.99,552.701 C656.36,548.504 659.46,550.732 683.88,550.139" id="Fill-36" fill="#FF867A"></path>
        <path d="M346.643,167.62 C398.146,185.981 355.147,287.773 369.819,403.16 C343.832,415.732 277.836,428.135 244.299,403.358 C228.578,278.057 299.593,150.847 346.643,167.62" id="Fill-37" fill="#F2C3A7"></path>
        <path d="M366.859,333.091 C366.857,333.091 366.855,333.091 366.853,333.091 C365.555,333.088 364.507,332.033 364.51,330.734 C364.562,312.806 366.411,297.674 368.368,281.653 C369.943,268.763 371.571,255.432 372.629,238.699 C374.969,201.622 359.011,178.622 358.85,178.394 C358.101,177.336 358.349,175.869 359.405,175.119 C360.463,174.37 361.925,174.617 362.678,175.671 C363.377,176.653 379.771,200.163 377.316,238.995 C376.251,255.863 374.616,269.265 373.032,282.224 C371.008,298.791 369.261,313.101 369.209,330.749 C369.205,332.044 368.155,333.091 366.859,333.091" id="Fill-38" fill="#CE9D84"></path>
    </g>
</svg>