<svg width="60" height="70" viewBox="0 0 60 70" fill="none" xmlns="http://www.w3.org/2000/svg">
<g clip-path="url(#clip0_129_35342)">
<path fill-rule="evenodd" clip-rule="evenodd" d="M25.1485 7.05115C27.8303 5.67471 26.9714 12.6194 34.8882 15.3915C37.3239 16.2443 42.9886 12.5061 43.6159 13.186C44.6694 14.3288 40.1957 21.522 33.976 21.5208C28.0477 21.5198 22.4461 8.43803 25.1485 7.05115Z" fill="#F27C79"/>
<path fill-rule="evenodd" clip-rule="evenodd" d="M25.1483 7.05115C27.3848 5.90333 27.9097 10.4822 31.9876 13.6922C31.79 14.6479 30.6623 17.7654 28.7954 18.9744C23.8933 15.5162 23.019 8.14399 25.1483 7.05115Z" fill="#CE9D84"/>
<path fill-rule="evenodd" clip-rule="evenodd" d="M3.35508 69.314C4.61667 69.4148 5.07926 69.3336 6.34212 69.3149C8.99099 69.2757 11.6431 69.3294 14.2929 69.3229C16.4738 69.3177 18.6549 69.3051 20.8362 69.3229C20.8829 69.3205 20.9295 69.3187 20.9762 69.3159C22.1206 69.251 23.2485 69.3075 24.3936 69.3569C25.462 69.4031 27.3788 69.3793 28.4656 69.6859C28.785 69.776 26.129 69.9123 25.1876 69.8908C23.9556 69.8628 22.7245 69.818 21.4924 69.8054C21.3041 69.8035 21.1159 69.8035 20.9277 69.8017C20.7808 69.8082 20.6343 69.8124 20.4868 69.8208C18.0824 69.9566 15.6911 69.9379 13.2818 69.9407C10.8368 69.9435 8.39254 69.9841 5.94719 69.9673C4.77306 69.9594 3.5993 69.9309 2.42536 69.8997C1.44292 69.8731 0.570289 69.9258 0.0299606 69.5739C-0.110931 69.482 2.35658 69.2342 3.35508 69.314Z" fill="#B1D5DE"/>
<path fill-rule="evenodd" clip-rule="evenodd" d="M23.3596 68.7302C22.8614 68.516 22.7962 68.0764 22.5826 67.6601C22.5682 67.6321 22.4836 67.0334 22.4829 66.9853C22.4793 66.7786 21.8755 66.2326 21.5975 66.6643C21.0495 67.5155 20.3512 66.2167 20.3849 66.5709C20.4852 67.6247 20.0933 69.3028 20.489 69.4162C21.3319 69.6579 25.2621 69.9253 25.3346 69.5147C25.3781 69.2683 24.221 69.1003 23.3596 68.7302Z" fill="#404859"/>
<path fill-rule="evenodd" clip-rule="evenodd" d="M3.49435 60.557C3.50712 60.5281 5.31731 59.0366 5.35412 59.0058C5.51313 58.8723 5.66078 57.8583 5.14839 57.9171C4.13825 58.0328 4.65552 56.9543 4.40074 57.204C3.64224 57.9474 1.52595 59.3199 1.49327 59.7282C1.38182 61.1198 1.08637 62.517 1.58238 63.9147C2.4544 64.3305 3.30468 60.9845 3.49435 60.557Z" fill="#404859"/>
<path fill-rule="evenodd" clip-rule="evenodd" d="M3.76164 59.3819C4.51465 60.7231 5.15596 60.7059 5.15596 60.7059C5.15596 60.7059 15.8329 53.6816 18.5004 47.6966C19.5335 45.3787 19.8056 43.5358 20.5978 40.2458C21.5178 36.4247 22.1704 33.1263 22.3117 33.0885C22.4362 34.2641 22.2726 39.0469 22.3364 41.6743C22.419 45.0767 22.1603 48.4778 21.563 51.8289L19.9315 66.5023C19.9315 66.5023 21.4968 67.3409 22.0285 67.4618C22.7401 67.6214 23.8116 67.5197 23.8116 67.5197C23.8116 67.5197 28.6354 53.3339 29.1179 44.2223C29.4611 37.7538 29.3999 35.4816 28.8586 30.5509C28.7446 29.5071 28.6186 28.5157 28.4842 27.584C28.4842 27.5792 28.483 27.5757 28.483 27.5709C28.4806 27.5518 28.4769 27.5327 28.4746 27.5136C27.8648 23.2846 27.092 20.2902 26.4883 19.2356C25.8894 17.884 15.0267 22.1882 15.0423 22.762C15.0687 23.7128 15.0555 24.7173 15.0075 25.7611C15.0051 25.8113 15.0027 25.8625 14.9991 25.9139C14.9223 27.4874 14.7662 29.1528 14.5526 30.8658C14.5358 30.9995 14.519 31.1331 14.5022 31.2667C13.9267 35.7051 12.018 45.9914 12.018 45.9914L3.21582 57.7957C3.21582 57.7957 3.28188 58.5275 3.76164 59.3819Z" fill="#7F635D"/>
<path fill-rule="evenodd" clip-rule="evenodd" d="M29.0362 32.256C28.1235 32.2481 25.2069 32.2775 22.1102 32.9009C19.6868 33.3886 15.8935 35.8545 13.5222 37.5307C13.2086 39.3769 12.8811 41.2286 12.6121 42.7275C14.4976 41.5403 17.7714 40.0302 20.9715 38.6633C21.6922 35.5572 22.1905 33.1212 22.3118 33.0885C22.3893 33.8207 22.3552 35.9506 22.3337 38.0879C25.3148 36.8424 28.0402 35.7863 29.268 35.3169C29.2195 34.3392 29.1426 33.3545 29.0362 32.256Z" fill="#56423F"/>
<path fill-rule="evenodd" clip-rule="evenodd" d="M14.5022 31.2667C14.5191 31.1331 14.5358 30.9995 14.5527 30.8658C14.6543 30.0512 14.7424 29.2479 14.8155 28.4596L28.4922 30.5219C28.4922 30.5219 23.303 33.1599 14.4465 31.6867C14.4655 31.5462 14.4842 31.4062 14.5022 31.2667Z" fill="#725651"/>
<path fill-rule="evenodd" clip-rule="evenodd" d="M21.9101 33.7419C22.2557 32.3241 22.5773 30.8966 22.634 29.434C22.6429 29.2045 23.003 29.2033 22.994 29.434C22.9362 30.9283 22.6103 32.3885 22.2573 33.8371C22.2028 34.0611 21.8555 33.9659 21.9101 33.7419Z" fill="#725651"/>
<path fill-rule="evenodd" clip-rule="evenodd" d="M14.328 9.53615C14.8489 7.86917 16.6004 6.54043 18.324 6.12537C18.3246 6.12743 18.3253 6.12976 18.326 6.13181C20.7863 5.42309 24.5902 6.23873 25.8121 6.69676C29.221 7.97477 27.7779 18.0153 28.5061 20.713C28.5971 20.9311 29.2106 29.6382 29.331 29.9038C28.3534 31.6694 17.2599 32.2924 13.01 29.748C13.2227 27.4633 15.0363 23.5467 14.9614 18.9744C14.898 15.1122 13.9039 10.8939 14.328 9.53615Z" fill="#F2C3A7"/>
<path fill-rule="evenodd" clip-rule="evenodd" d="M19.5826 5.41459C20.1377 5.19078 20.7862 5.18933 21.4962 5.41431C22.2061 5.63925 22.5637 6.33444 22.7861 6.65649L21.7816 7.33731C21.7816 7.33731 20.3478 7.37203 19.9286 7.63658C19.5094 7.90109 18.964 7.98588 18.964 7.98588C18.964 7.98588 17.5748 6.22435 19.5826 5.41459Z" fill="#FFDCCA"/>
<path fill-rule="evenodd" clip-rule="evenodd" d="M20.3155 1.8921C20.3155 1.8921 20.5872 1.65583 20.7032 1.1865C20.9674 0.116666 19.9675 0.0127392 19.9675 0.0127392C19.9675 0.0127392 19.5472 0.395219 18.7848 0.813072C18.4559 0.993299 18.0551 1.19201 17.8585 1.46468C17.6461 1.75919 17.7869 2.43735 17.9297 2.85861C18.4991 4.53787 18.9547 4.65579 19.7991 4.49241C21.4699 4.16911 20.3126 1.91114 20.3155 1.8921Z" fill="#434A59"/>
<path fill-rule="evenodd" clip-rule="evenodd" d="M19.2895 6.41713C19.3943 6.77068 21.9988 7.51627 21.2361 5.96195L20.1774 3.42491L19.0117 3.17151L19.2895 6.41713Z" fill="#FF867A"/>
<path fill-rule="evenodd" clip-rule="evenodd" d="M59.9755 21.0134C45.5651 33.1427 24.4065 30.6686 10.0155 42.8325C7.1111 36.2703 4.20767 29.7073 1.3042 23.145C3.31232 21.4548 5.45213 20.0475 7.68678 18.8453C9.3642 17.9424 11.096 17.155 12.8655 16.45C25.6399 11.3528 40.3853 10.5215 51.2642 1.32687C54.1675 7.88905 57.0722 14.4513 59.9755 21.0134Z" fill="#74C6A9"/>
<path fill-rule="evenodd" clip-rule="evenodd" d="M11.1517 38.4715C18.0094 33.6261 26.1071 31.4412 33.944 29.3264C41.7459 27.2209 49.8102 25.0446 56.5661 20.238L50.1276 5.68727C43.2703 10.5326 35.1722 12.7176 27.3355 14.8323C19.5334 16.9378 11.4691 19.1141 4.71356 23.9208L11.1517 38.4715ZM57.475 20.5643C57.4454 20.6249 57.4013 20.6792 57.3436 20.721C50.4051 25.759 42.1497 27.9867 34.1666 30.1413C26.241 32.2803 18.0454 34.4918 11.2254 39.4595C11.1215 39.5355 10.9887 39.5603 10.8643 39.5271C10.74 39.494 10.6374 39.4063 10.5857 39.2891L3.79783 23.9485C3.71731 23.7671 3.77492 23.5541 3.936 23.4377C10.8744 18.3997 19.1296 16.172 27.113 14.0175C35.0389 11.8789 43.2337 9.66719 50.0539 4.69919C50.1581 4.6235 50.2905 4.59872 50.4149 4.63181C50.5393 4.66503 50.6422 4.75244 50.6938 4.86957L57.4816 20.2102C57.5332 20.3266 57.5281 20.4557 57.475 20.5643Z" fill="#388E75"/>
<path fill-rule="evenodd" clip-rule="evenodd" d="M47.2581 7.07565C47.9928 8.86783 50.2078 9.50119 51.7618 8.33201C51.2764 7.2345 50.7905 6.13704 50.305 5.03953C49.3153 5.76198 48.3036 6.43687 47.2581 7.07565Z" fill="#388E75"/>
<path fill-rule="evenodd" clip-rule="evenodd" d="M54.0435 22.4112C53.1853 20.5684 54.0707 18.2553 55.636 17.0877C56.1214 18.1853 56.6074 19.2827 57.0928 20.3802C56.1027 21.1009 55.09 21.7742 54.0435 22.4112Z" fill="#388E75"/>
<path fill-rule="evenodd" clip-rule="evenodd" d="M7.23582 21.7476C8.04619 23.5888 7.25253 25.9147 5.64333 27.0711C5.15774 25.9735 4.67216 24.8761 4.18652 23.7786C5.17676 23.058 6.18915 22.3848 7.23582 21.7476Z" fill="#388E75"/>
<path fill-rule="evenodd" clip-rule="evenodd" d="M14.0214 37.0832C13.2617 35.3523 11.0738 34.5903 9.51758 35.8269C10.0032 36.9241 10.4888 38.0217 10.9744 39.1193C11.9637 38.3969 12.9755 37.7221 14.0214 37.0832Z" fill="#388E75"/>
<path fill-rule="evenodd" clip-rule="evenodd" d="M37.607 20.1586C39.1596 23.6612 37.253 27.6233 33.5178 28.584C29.7291 29.5586 25.2877 27.584 23.6726 24.0002C22.0916 20.4924 24.0495 16.5536 27.7617 15.5748C31.5676 14.5712 36.0042 16.5425 37.607 20.1586Z" fill="#388E75"/>
<path fill-rule="evenodd" clip-rule="evenodd" d="M32.3018 27.1839C32.0995 26.6905 31.9985 26.4439 31.7957 25.9505C31.0159 26.0712 30.2558 26.1349 29.4847 25.9123C29.4814 25.5533 29.4798 25.3739 29.4765 25.0151C30.184 25.2129 30.9502 25.2405 31.66 25.0714C32.3225 24.9138 33.1478 24.269 32.7962 23.4885C32.4502 22.7207 31.4281 22.468 30.6549 22.4018C29.5001 22.303 28.0301 22.0291 27.5324 20.8261C27.0891 19.7544 27.7813 18.7636 28.7893 18.3682C28.5868 17.8748 28.4856 17.6281 28.2832 17.1348C28.6222 17.0544 28.7918 17.0143 29.1308 16.9338C29.3252 17.4077 29.4225 17.6446 29.6169 18.1184C30.2586 17.9833 30.929 17.9725 31.5689 18.1219C31.5647 18.4772 31.5624 18.6549 31.5581 19.01C30.9112 18.8577 30.3131 18.9067 29.6657 19.0048C28.9913 19.1069 28.3754 19.7289 28.6473 20.3987C28.9818 21.223 30.1488 21.2985 30.914 21.3889C32.1037 21.5294 33.4506 21.8993 33.9492 23.1183C34.4051 24.2326 33.6999 25.2947 32.6422 25.7097C32.8506 26.2177 32.9549 26.4718 33.1633 26.9798C32.8187 27.0614 32.6464 27.1022 32.3018 27.1839Z" fill="white"/>
<path fill-rule="evenodd" clip-rule="evenodd" d="M13.177 28.0151C13.4863 28.7252 13.1201 29.6176 12.4763 30.0115C11.8055 30.4219 10.9125 30.0664 10.6287 29.4154C10.3367 28.7455 10.582 27.7367 11.3082 27.3715C11.9729 27.0373 12.8728 27.3168 13.177 28.0151Z" fill="white"/>
<path fill-rule="evenodd" clip-rule="evenodd" d="M48.1022 16.1437C48.3858 16.7895 49.2872 17.2073 49.9712 16.7873C50.629 16.3836 50.9567 15.4563 50.6506 14.7435C50.3496 14.0417 49.4567 13.8176 48.8031 14.1473C48.0848 14.5097 47.8083 15.474 48.1022 16.1437Z" fill="white"/>
<path fill-rule="evenodd" clip-rule="evenodd" d="M33.1398 27.9919C33.137 28.6467 32.6736 29.2257 32.0665 29.4629C14.8396 32.1272 7.78536 18.9918 7.68677 18.8453C9.36419 17.9424 11.096 17.155 12.8655 16.45C13.9134 19.1722 13.6674 19.0896 15.5976 21.2378C16.3677 22.0943 17.4426 22.6551 18.4282 23.2406C21.4246 25.0221 21.6822 24.6893 23.3545 25.0423C25.3101 25.4593 25.8461 25.4386 26.6411 25.6707C27.2039 25.8347 27.7419 26.0655 28.3315 26.1441C29.9421 26.3585 31.006 26.1593 31.9102 26.4956C32.498 26.7124 33.1435 27.3188 33.1398 27.9919Z" fill="#388E75"/>
<path fill-rule="evenodd" clip-rule="evenodd" d="M19.4763 3.75004C19.4763 3.75004 19.9803 5.05148 20.6679 5.35206C20.9106 5.45813 20.9611 5.53439 21.0648 5.55119L20.2706 3.64803C19.882 3.69735 19.4763 3.75004 19.4763 3.75004Z" fill="#C66C67"/>
<path fill-rule="evenodd" clip-rule="evenodd" d="M19.0117 2.32181L19.0501 3.53374C19.0911 4.039 19.4835 4.38564 19.8707 4.51971C20.2806 4.66158 20.6503 4.61664 21.1094 4.40291C21.4919 4.22478 21.5705 3.77804 21.3989 3.25901C21.1763 2.58575 20.7786 2.02855 20.5491 1.74225C20.3366 1.47719 20.0551 1.35805 19.7909 1.37699C19.5963 1.79634 19.0548 1.72779 19.0117 2.32181Z" fill="#FF867A"/>
<path fill-rule="evenodd" clip-rule="evenodd" d="M20.0411 3.03459C20.0411 3.03459 20.0518 2.89524 20.4004 2.80438C20.7489 2.71352 20.9104 2.70279 21.0054 2.70106C21.1004 2.69934 21.1811 2.5955 21.2334 2.67572C21.2857 2.75604 21.3759 2.85861 21.3759 2.85861C21.3759 2.85861 21.4578 2.87429 21.5955 3.082C21.7333 3.28976 21.6419 3.54848 21.6704 3.64802C21.6989 3.74756 21.7606 3.9647 21.7369 4.16304C21.7131 4.36137 21.0434 4.79574 20.4496 4.7438C19.8559 4.69186 19.2953 4.32833 19.2194 4.07334C19.1434 3.81836 19.1576 3.423 19.1244 3.21701C19.0911 3.01098 18.8679 2.56713 18.9771 2.58132C19.0864 2.5955 19.5281 3.35566 19.6706 3.33676C19.8131 3.3179 19.9604 3.17151 20.0411 3.03459Z" fill="#434A59"/>
<path fill-rule="evenodd" clip-rule="evenodd" d="M20.1433 3.04248C20.1433 3.04248 20.5823 3.04985 21.1526 2.84433C21.1526 2.84433 21.4322 3.29877 21.1141 3.49757C20.8291 3.6757 20.3866 3.46481 20.1433 3.04248Z" fill="white"/>
<path fill-rule="evenodd" clip-rule="evenodd" d="M19.0419 2.92451C18.9762 2.8553 18.922 2.77718 18.8724 2.69584C18.7783 2.54123 18.6023 2.33315 18.4402 2.58482C18.2045 2.95087 18.6571 3.70543 19.0797 3.53687C19.3935 3.41166 19.2073 3.09881 19.0419 2.92451Z" fill="#FF867A"/>
<path fill-rule="evenodd" clip-rule="evenodd" d="M20.5386 2.60517C20.5835 2.59686 20.6111 2.56587 20.6072 2.51972C20.5985 2.41892 20.7565 2.41528 20.7652 2.51575C20.7746 2.62505 20.694 2.73527 20.5844 2.75553C20.5426 2.76327 20.4992 2.74689 20.4859 2.70312C20.4746 2.66602 20.4964 2.61296 20.5386 2.60517Z" fill="#C66C67"/>
<path fill-rule="evenodd" clip-rule="evenodd" d="M21.476 7.04377L22.0566 10.0944L21.1816 10.1723L20.6951 7.19959L21.476 7.04377Z" fill="#FFDCCA"/>
<path fill-rule="evenodd" clip-rule="evenodd" d="M16.0376 8.33803C18.8805 9.34547 15.0757 14.5485 17.6456 21.4656C18.5402 23.8735 31.1308 24.4321 31.3773 26.5683C31.5552 28.1084 18.3785 31.3516 13.6396 23.9908C8.9007 16.63 13.1728 7.32288 16.0376 8.33803Z" fill="#FF867A"/>
<path fill-rule="evenodd" clip-rule="evenodd" d="M20.2049 22.8422C19.2812 22.3193 18.2798 21.8351 17.2775 21.4809C16.9804 21.376 16.8525 21.8454 17.1474 21.9497C18.1084 22.2892 19.0717 22.7602 19.9581 23.262C20.232 23.417 20.4786 22.9972 20.2049 22.8422Z" fill="#C66C67"/>
<path fill-rule="evenodd" clip-rule="evenodd" d="M32.1069 25.6732C32.8515 25.6551 33.743 25.2118 33.52 25.7542C33.297 26.2966 32.5257 26.2626 32.3318 26.626C32.1379 26.9893 34.2102 28.4263 33.8552 28.7205C33.62 28.9158 32.666 27.8881 32.6261 27.9703C32.5862 28.0525 33.629 28.9698 33.3238 29.2005C32.9501 29.4833 32.3881 29.5162 31.8698 29.2347C31.9628 29.3927 32.0125 29.5399 31.9355 29.608C31.7276 29.7911 28.3408 26.6983 30.375 25.7927C30.8149 25.5969 30.9604 25.7008 32.1069 25.6732Z" fill="#FF867A"/>
<path fill-rule="evenodd" clip-rule="evenodd" d="M16.2742 7.82226C18.6922 8.67911 16.6735 13.4294 17.3623 18.8141C16.1422 19.4008 13.0438 19.9796 11.4693 18.8234C10.7313 12.976 14.0653 7.03952 16.2742 7.82226Z" fill="#F2C3A7"/>
<path fill-rule="evenodd" clip-rule="evenodd" d="M17.2235 15.5442C17.2234 15.5442 17.2233 15.5442 17.2232 15.5442C17.1622 15.5441 17.113 15.4949 17.1132 15.4343C17.1156 14.5976 17.2024 13.8915 17.2943 13.1438C17.3683 12.5423 17.4447 11.9202 17.4944 11.1393C17.6042 9.40902 16.855 8.33569 16.8475 8.32505C16.8123 8.27568 16.8239 8.20722 16.8735 8.17222C16.9232 8.13726 16.9918 8.14879 17.0272 8.19798C17.06 8.2438 17.8297 9.34094 17.7144 11.1531C17.6644 11.9403 17.5876 12.5657 17.5133 13.1705C17.4183 13.9436 17.3362 14.6114 17.3338 15.435C17.3336 15.4954 17.2843 15.5442 17.2235 15.5442Z" fill="#CE9D84"/>
</g>
<defs>
<clipPath id="clip0_129_35342">
<rect width="60" height="70" fill="white"/>
</clipPath>
</defs>
</svg>
