<svg width="15" height="16" viewBox="0 0 15 16" fill="none" xmlns="http://www.w3.org/2000/svg">
<path d="M7.5 0.333374C3.38058 0.333374 0 3.78908 0 8.00004C0 9.38981 0.366554 10.7427 1.06167 11.9264L0 15.6667L3.65902 14.5814C4.81693 15.292 6.14044 15.6667 7.5 15.6667C11.6194 15.6667 15 12.211 15 8.00004C15 3.78908 11.6194 0.333374 7.5 0.333374ZM12.1891 11.2394L11.8402 11.5961C11.3465 12.1008 10.2111 12.0608 9.48154 11.9168C7.05574 11.4379 4.22756 8.63561 3.68214 6.2089C3.41206 5.00677 3.56117 3.96163 3.95119 3.56284L4.30012 3.20615C4.49272 3.00938 4.8056 3.00962 4.99798 3.20615L6.39393 4.63324C6.48708 4.72846 6.53812 4.85469 6.53812 4.98981C6.53812 5.12492 6.48708 5.25127 6.39393 5.34614L6.04511 5.70318C5.66059 6.09718 5.66059 6.7372 6.04511 7.13026L8.3503 9.45567C8.73596 9.84991 9.36012 9.85038 9.74636 9.45567L10.0953 9.09911C10.2754 8.91392 10.6119 8.91333 10.7935 9.09911L12.1891 10.5257C12.3786 10.7186 12.3858 11.0382 12.1891 11.2394Z" fill="white"/>
</svg>
