<svg width="18" height="18" viewBox="0 0 18 18" fill="none" xmlns="http://www.w3.org/2000/svg">
<path d="M15.8063 7.14377L10.8563 2.19377C10.6313 1.96877 10.2938 1.96877 10.0688 2.19377L8.2688 3.99377C7.98755 4.27502 8.10005 4.61252 8.2688 4.78127L8.66255 5.17502L6.97505 6.86252C6.1313 6.69377 3.82505 6.30002 2.58755 7.53752C2.36255 7.76252 2.36255 8.10002 2.58755 8.32502L5.7938 11.5313L2.25005 15.075C2.02505 15.3 2.02505 15.6375 2.25005 15.8625C2.47505 16.0875 2.8688 16.0313 3.03755 15.8625L6.5813 12.3188L9.78755 15.525C10.125 15.8063 10.4625 15.6938 10.575 15.525C11.8125 14.2875 11.4188 11.9813 11.25 11.1375L12.9375 9.45002L13.3313 9.84377C13.5563 10.0688 13.8938 10.0688 14.1188 9.84377L15.9188 8.04377C16.0313 7.70627 16.0313 7.36877 15.8063 7.14377ZM13.6125 8.55002L13.2188 8.15627C12.9938 7.93127 12.6563 7.93127 12.4313 8.15627L10.125 10.5188C9.9563 10.6875 9.90005 10.8563 9.9563 11.0813C10.125 11.7 10.4063 13.2188 9.9563 14.2313L3.7688 8.04377C4.72505 7.59377 6.30005 7.87502 6.9188 8.04377C7.08755 8.10002 7.31255 8.04377 7.4813 7.87502L9.78755 5.56877C10.125 5.23127 9.9563 4.95002 9.78755 4.78127L9.3938 4.38752L10.4625 3.37502L14.625 7.53752L13.6125 8.55002Z" fill="#2B2B2B"/>
</svg>
