<svg width="30" height="30" viewBox="0 0 30 30" fill="none" xmlns="http://www.w3.org/2000/svg">
<g clip-path="url(#clip0_117_12276)">
<path d="M10.3918 16.0809L8.98047 14.6696L12.7072 10.9428C13.0971 10.5529 13.7291 10.5529 14.1185 10.9428C14.5084 11.3328 14.5084 11.9647 14.1185 12.3542L10.3918 16.0809Z" fill="#EBBA16"/>
<path d="M15.402 20.9515L13.9907 19.5402L17.6476 15.8833C18.0375 15.4933 18.6695 15.4933 19.0589 15.8833C19.4489 16.2732 19.4489 16.9052 19.0589 17.2946L15.402 20.9515Z" fill="#EBBA16"/>
<path d="M23.9305 4.65487L25.342 6.06641L29.9964 1.412L28.5849 0.000471549L23.9305 4.65487Z" fill="#6C797A"/>
<path d="M24.8267 8.70388L21.2976 5.17478L22.562 3.91034C22.9659 3.50645 23.6207 3.50645 24.0246 3.91034L26.0912 5.97692C26.495 6.38081 26.495 7.03556 26.0912 7.43944L24.8267 8.70388Z" fill="#AFB6BB"/>
<path d="M22.5881 16.5892L13.4126 7.41363L16.4996 4.32667C17.913 2.91325 20.2045 2.91325 21.618 4.32667L25.6746 8.38333C27.088 9.79675 27.088 12.0883 25.6746 13.5017L22.5881 16.5892Z" fill="#E7ECED"/>
<path d="M21.5295 7.57824C21.3971 7.57824 21.2647 7.52757 21.1638 7.42674L19.752 6.01437C19.3703 5.63269 18.7492 5.63269 18.367 6.01437L16.9552 7.42674C16.7535 7.62898 16.4261 7.62898 16.2239 7.42674C16.0217 7.22451 16.0217 6.89766 16.2239 6.69548L17.6358 5.28312C18.4208 4.49808 19.6977 4.49808 20.4833 5.28312L21.8952 6.69548C22.0974 6.89772 22.0974 7.22457 21.8952 7.42674C21.7937 7.52809 21.6614 7.57824 21.5295 7.57824Z" fill="#AFB6BB"/>
<path d="M6.1398 25.2753L4.72827 23.8638L0.00402614 28.588L1.41556 29.9995L6.1398 25.2753Z" fill="#6C797A"/>
<path d="M5.17453 21.2979L8.70364 24.827L7.4392 26.0914C7.03531 26.4953 6.38057 26.4953 5.97668 26.0914L3.91009 24.0248C3.50621 23.6209 3.50621 22.9662 3.91009 22.5623L5.17453 21.2979Z" fill="#AFB6BB"/>
<path d="M8.1194 12.7075L17.2944 21.8825L13.5015 25.6754C12.0881 27.0889 9.79651 27.0889 8.38309 25.6754L4.32642 21.6188C2.913 20.2054 2.913 17.9138 4.32642 16.5004L8.1194 12.7075Z" fill="#E7ECED"/>
<path d="M5.2987 18.3522L11.6506 24.7041L14.4737 21.881L8.12176 15.5291L5.2987 18.3522Z" fill="#366DB6"/>
<path d="M10.9424 21.6937C10.81 21.6937 10.6776 21.6431 10.5768 21.5422L8.45954 19.4244C8.2573 19.2222 8.2573 18.8954 8.45954 18.6932C8.66177 18.4909 8.98862 18.4909 9.1908 18.6932L11.3081 20.811C11.5103 21.0132 11.5103 21.3401 11.3081 21.5422C11.2072 21.6435 11.0748 21.6937 10.9424 21.6937Z" fill="white"/>
</g>
<defs>
<clipPath id="clip0_117_12276">
<rect width="30" height="30" fill="white"/>
</clipPath>
</defs>
</svg>
