<svg width="30" height="30" viewBox="0 0 30 30" fill="none" xmlns="http://www.w3.org/2000/svg">
<path d="M28.3759 27.5048C28.3759 27.9606 28.0529 28.5202 27.6548 28.7452C27.4413 28.8663 27.251 28.8721 27.1183 28.7798L23.0452 26.4144L21.7298 27.176L20.351 26.3741C19.3125 26.576 18.1587 26.5298 17.1721 26.2356C17.1144 26.2817 17.0509 26.3163 16.9933 26.351C14.6221 27.7183 12.6952 26.6221 12.6837 23.8933C12.6837 23.6106 12.701 23.3221 12.7471 23.0279L4.07017 28.0413L1.67019 26.6452L1.62402 9.26828L15.6779 1.15674L18.0779 2.54711L18.1125 15.9952C19.9298 15.5164 21.274 16.6587 21.2798 18.9317C21.2798 19.024 21.2798 19.1164 21.2682 19.2087C21.274 19.3067 21.2798 19.4048 21.2798 19.5087C21.2798 19.5894 21.2798 19.6644 21.2682 19.7452L22.0067 20.1721C22.8087 20.6394 23.2125 21.251 23.2125 21.8625V22.751L24.3721 23.4202L24.3779 24.8394L28.1625 27.0375C28.1567 27.0317 28.1452 27.026 28.1336 27.026C28.2836 27.0952 28.3759 27.2567 28.3759 27.5048Z" fill="#3D566E"/>
<path d="M4.07091 28.0388L1.67029 26.6437L1.62451 9.26685L4.02513 10.6619L4.07091 28.0388Z" fill="#525566"/>
<path d="M4.02513 10.6619L1.62451 9.26682L15.6767 1.15381L18.0773 2.5489L4.02513 10.6619Z" fill="#5B5E71"/>
<path d="M18.1232 19.9258L4.07169 28.0399L4.02661 10.6622L18.0782 2.5481L18.1232 19.9258Z" fill="#474B59"/>
<path d="M14.7005 9.15527C15.1739 9.76706 15.4475 10.6493 15.4508 11.7602C15.4604 14.9672 13.2065 18.8793 10.4117 20.4925C8.98525 21.3168 7.69409 21.3812 6.77319 20.8177C7.6651 21.9704 9.26538 22.1604 11.0911 21.1075C13.8859 19.4943 16.1398 15.5822 16.1302 12.3752C16.1269 10.8071 15.5828 9.69623 14.7005 9.15527Z" fill="#3F434F"/>
<path d="M10.4117 20.4925C13.2066 18.8793 15.4605 14.9672 15.4508 11.7602C15.4476 10.6493 15.1739 9.76706 14.7006 9.15528C13.7797 8.59502 12.4853 8.65943 11.0589 9.48372C8.26405 11.0937 6.01014 15.0026 6.01981 18.2128C6.02303 19.3237 6.29671 20.2059 6.77324 20.8177C7.69415 21.3812 8.98531 21.3168 10.4117 20.4925Z" fill="#E0E2E2"/>
<path d="M8.11738 15.5843C8.55599 15.331 8.91281 15.5344 8.91424 16.0384C8.91567 16.5424 8.56117 17.158 8.12256 17.4112C7.68535 17.6637 7.32712 17.4595 7.32569 16.9555C7.32427 16.4515 7.68018 15.8367 8.11738 15.5843Z" fill="#5B5E71"/>
<path d="M13.3467 12.5654C13.7853 12.3122 14.1435 12.5147 14.145 13.0187C14.1464 13.5227 13.7905 14.1391 13.3519 14.3924C12.9147 14.6448 12.5578 14.4398 12.5564 13.9358C12.555 13.4318 12.9095 12.8178 13.3467 12.5654Z" fill="#5B5E71"/>
<path d="M20.0668 20.86C19.9576 20.86 19.8469 20.8322 19.7455 20.7736L13.7959 17.3386C13.4879 17.1608 13.3824 16.7669 13.5603 16.459C13.7378 16.1508 14.1316 16.0451 14.4399 16.2233L20.3895 19.6582C20.6975 19.8361 20.803 20.2299 20.6251 20.5379C20.506 20.7445 20.2895 20.86 20.0668 20.86Z" fill="#C4C6C6"/>
<path d="M15.6198 23.4445C15.5106 23.4445 15.3999 23.4167 15.2985 23.358L9.34891 19.9231C9.04092 19.7453 8.93542 19.3514 9.11324 19.0434C9.2909 18.7353 9.68474 18.6296 9.99289 18.8078L15.9424 22.2427C16.2504 22.4205 16.3559 22.8144 16.1781 23.1224C16.0589 23.3289 15.8424 23.4445 15.6198 23.4445Z" fill="#C4C6C6"/>
<path d="M16.9683 16.4741C19.3412 15.104 21.2722 16.2019 21.2799 18.9286C21.2877 21.6605 19.3692 24.9808 16.9963 26.3508C14.6255 27.7196 12.6945 26.6217 12.6868 23.8899C12.6791 21.1631 14.5975 17.8428 16.9683 16.4741Z" fill="#ECF0F1"/>
<path d="M17.5943 17.4085C19.6228 16.2373 21.2735 17.1758 21.2801 19.5067C21.2867 21.842 19.6467 24.6803 17.6182 25.8514C15.5916 27.0215 13.941 26.083 13.9343 23.7477C13.9277 21.4168 15.5677 18.5785 17.5943 17.4085Z" fill="#D4D6D6"/>
<path d="M23.2174 24.0853L23.2111 21.8601C23.2118 22.1179 23.1415 22.3759 23.0002 22.6234L23.0066 24.8486C23.1478 24.6011 23.2181 24.3431 23.2174 24.0853Z" fill="#C4C6C6"/>
<path d="M20.353 26.3754C18.913 26.6552 17.2683 26.4573 16.1287 25.7953L14.4192 24.8024L14.4158 22.5776L16.1219 23.5706C17.2615 24.2326 18.9062 24.4271 20.3462 24.1507L20.353 26.3754Z" fill="#E0E2E2"/>
<path d="M21.7234 24.9504L21.7297 27.1756L24.3788 25.6461L24.3725 23.4209L21.7234 24.9504Z" fill="#C4C6C6"/>
<path d="M20.3469 24.1504L20.3532 26.3756L21.7298 27.1756L21.7235 24.9504L20.3469 24.1504Z" fill="#D4D6D6"/>
<path d="M14.4146 22.5782L16.1223 23.5706C17.2629 24.2335 18.9056 24.4285 20.3469 24.1505L21.7235 24.9505L24.3726 23.421L23.0004 22.6235C23.4763 21.7896 23.1472 20.8362 22.0066 20.1733L20.2989 19.1809L14.4146 22.5782Z" fill="#ECF0F1"/>
<path d="M28.165 27.0393C28.0342 26.9651 27.8533 26.9739 27.6528 27.0894C27.2539 27.3204 26.9313 27.8785 26.9335 28.334C26.9335 28.5629 27.0141 28.722 27.1449 28.7983L22.7234 26.2277C22.5926 26.1514 22.512 25.9923 22.512 25.7656C22.512 25.3078 22.8324 24.7498 23.2313 24.521C23.4318 24.4054 23.6127 24.3945 23.7435 24.4708L28.165 27.0393Z" fill="#474B59"/>
<path d="M27.6521 27.0905C28.0502 26.8607 28.3741 27.0453 28.3754 27.5027C28.3767 27.96 28.0549 28.5174 27.6568 28.7472C27.2588 28.977 26.9349 28.7924 26.9336 28.3351C26.9323 27.8777 27.2541 27.3203 27.6521 27.0905Z" fill="#5B5E71"/>
<path d="M20.3521 22.2137C20.0357 22.4003 19.5205 22.4003 19.2041 22.2177C18.8877 22.0352 18.8877 21.7391 19.2082 21.5524C19.5205 21.3699 20.0316 21.3699 20.348 21.5524C20.6644 21.735 20.6685 22.0352 20.3521 22.2137Z" fill="#D4D6D6"/>
</svg>
