<svg width="35" height="35" viewBox="0 0 35 35" fill="none" xmlns="http://www.w3.org/2000/svg">
<path d="M2.73438 21.1406C2.43236 21.1406 2.1875 20.8958 2.1875 20.5938C2.1875 17.7 3.98672 15.1709 7.39067 13.2798C9.89228 11.89 12.3559 11.3329 12.4595 11.3099C12.7544 11.2442 13.0465 11.4304 13.112 11.7252C13.1775 12.0199 12.9916 12.3121 12.6968 12.3776C12.6601 12.3859 10.2589 12.933 7.90125 14.2474C4.83561 15.9564 3.28125 18.0916 3.28125 20.5938C3.28125 20.8958 3.03639 21.1406 2.73438 21.1406Z" fill="#75452E"/>
<path d="M32.2656 21.1407C31.9636 21.1407 31.7187 20.8958 31.7187 20.5938C31.7187 18.0916 30.1643 15.9564 27.0988 14.2474C24.7348 12.9295 22.327 12.3829 22.3029 12.3775C22.0082 12.3118 21.8225 12.0196 21.8882 11.7249C21.9538 11.4301 22.2457 11.2444 22.5405 11.3099C22.6441 11.3329 25.1077 11.8899 27.6093 13.2797C31.0132 15.1709 32.8124 17.7 32.8124 20.5938C32.8124 20.8958 32.5676 21.1407 32.2656 21.1407Z" fill="#75452E"/>
<path d="M25.7031 8.5625C26.184 7.28268 27.3438 3.09375 27.3438 3.09375C25.703 3.09375 25.703 4.1875 24.0622 4.1875C22.4215 4.1875 22.4215 2 20.7806 2C19.1401 2 19.1401 4.1875 17.4995 4.1875C15.8589 4.1875 15.8589 2 14.2183 2C12.5778 2 12.5778 4.1875 10.9373 4.1875C9.29674 4.1875 9.29674 3.09375 7.65625 3.09375C7.65625 3.09375 8.81597 7.28268 9.29688 8.5625C9.80807 9.92299 12.5781 11.8438 12.5781 11.8438H22.4219C22.4219 11.8438 25.1919 9.92299 25.7031 8.5625Z" fill="#AD6643"/>
<path d="M14.2188 12.3908C13.9898 12.3908 13.7764 12.2459 13.7001 12.0167L12.6063 8.73547C12.5108 8.44891 12.6657 8.13918 12.9522 8.04368C13.2387 7.94825 13.5485 8.10308 13.644 8.38958L14.7377 11.6708C14.8332 11.9574 14.6784 12.2671 14.3918 12.3626C14.3345 12.3817 14.2761 12.3908 14.2188 12.3908Z" fill="#8C5237"/>
<path d="M20.7815 12.3908C20.7242 12.3908 20.6659 12.3817 20.6085 12.3626C20.322 12.2671 20.1671 11.9574 20.2626 11.6708L21.3563 8.38957C21.4518 8.10314 21.7614 7.94824 22.0481 8.04367C22.3345 8.13917 22.4895 8.44891 22.394 8.73547L21.3002 12.0167C21.2238 12.2459 21.0105 12.3908 20.7815 12.3908Z" fill="#8C5237"/>
<path d="M17.5 12.3906C17.1979 12.3906 16.9531 12.1458 16.9531 11.8438V8.5625C16.9531 8.26049 17.1979 8.01562 17.5 8.01562C17.802 8.01562 18.0469 8.26049 18.0469 8.5625V11.8438C18.0469 12.1458 17.802 12.3906 17.5 12.3906Z" fill="#8C5237"/>
<path d="M25.1625 33.7188H9.83713C7.21302 33.7188 5.17899 31.425 5.49358 28.8198C5.86265 25.7642 6.31786 22.2148 6.56231 21.1406C7.40361 17.4438 12.5779 11.8438 12.5779 11.8438H22.4217C22.4217 11.8438 27.596 17.4438 28.4373 21.1406C28.6818 22.2148 29.137 25.7642 29.506 28.8198C29.8206 31.425 27.7866 33.7188 25.1625 33.7188Z" fill="#AD6643"/>
<path d="M24.2804 14.0312H10.7192C11.759 12.7304 12.5779 11.8438 12.5779 11.8438H22.4217C22.4217 11.8438 23.2406 12.7304 24.2804 14.0312Z" fill="#75452E"/>
<path d="M17.5 30.4375C21.1244 30.4375 24.0625 27.4994 24.0625 23.875C24.0625 20.2506 21.1244 17.3125 17.5 17.3125C13.8756 17.3125 10.9375 20.2506 10.9375 23.875C10.9375 27.4994 13.8756 30.4375 17.5 30.4375Z" fill="#8C5237"/>
<path d="M20.7812 27.1562L17.5 26.0625L14.2188 27.1562L14.7656 24.4219L13.125 22.2344L15.8594 21.6875L17.5 19.5L19.1406 21.6875L21.875 22.2344L20.2344 24.4219L20.7812 27.1562Z" fill="#FFD33A"/>
</svg>
