<svg width="30" height="30" viewBox="0 0 30 30" fill="none" xmlns="http://www.w3.org/2000/svg">
<g clip-path="url(#clip0_117_10546)">
<path d="M26.0335 29.7965L3.6866 29.8581C2.68646 29.8581 1.87573 29.0474 1.87573 28.0472L1.89885 1.96304C1.89885 1.29296 2.17483 0.555694 2.71585 0.242475C2.98235 0.0883099 3.29177 0 3.62177 0H26.3783C27.3784 0 28.1892 0.810724 28.1892 1.81087V28.1891C28.1892 28.5191 28.1009 28.8285 27.9466 29.095C27.6335 29.636 26.7036 29.7965 26.0335 29.7965Z" fill="#F8F7F7"/>
<path d="M27.9458 29.0945C27.6331 29.6359 27.0482 29.9999 26.3782 29.9999H3.62166C2.62145 29.9999 1.81079 29.1892 1.81079 28.189V1.81077C1.81079 1.14075 2.17477 0.55584 2.71622 0.243164V28.189C2.71622 28.6882 3.12246 29.0945 3.62166 29.0945H27.9458Z" fill="#E8E8E8"/>
<path d="M6.98462 24.392L7.03086 5.60015C7.03086 5.03764 7.26597 4.45774 7.78665 4.32367C7.88311 4.29886 7.98422 4.28564 8.08846 4.28564H21.9114C22.5782 4.28564 23.1186 4.82613 23.1186 5.49289V24.507C23.1186 24.6077 23.1063 24.7056 23.083 24.7991C22.9524 25.3247 22.3098 25.6095 21.7438 25.6095L8.1918 25.5993C7.5251 25.5993 6.98462 25.0587 6.98462 24.392Z" fill="#B6C4CF"/>
<path d="M23.0829 24.7992C22.9525 25.3249 22.4775 25.7143 21.9113 25.7143H8.08835C7.42134 25.7143 6.8811 25.174 6.8811 24.507V5.49295C6.8811 4.93037 7.26561 4.45773 7.78654 4.32373V24.3863C7.78654 24.6199 7.97547 24.8088 8.20907 24.8088H21.9113C22.4521 24.8088 22.83 24.8052 23.0829 24.7992Z" fill="#9FACBA"/>
<path d="M19.1349 15.0001V21.6097C19.1349 22.2767 18.5946 22.817 17.9276 22.817H12.0725C11.4055 22.817 10.8652 22.2767 10.8652 21.6097V15.0001L14.9822 14.6931L19.1349 15.0001Z" fill="#DC4955"/>
<path d="M19.1349 8.39035V15H10.8652V8.39035C10.8652 7.72335 11.4055 7.18311 12.0725 7.18311H17.9276C18.5946 7.18311 19.1349 7.72335 19.1349 8.39035Z" fill="#DF646E"/>
<path d="M15.0301 12.9174C14.78 12.9174 14.5774 12.7147 14.5774 12.4647V9.74837C14.5774 9.49835 14.78 9.29565 15.0301 9.29565C15.2802 9.29565 15.4828 9.49835 15.4828 9.74837V12.4647C15.4828 12.7147 15.2802 12.9174 15.0301 12.9174Z" fill="#F8F7F7"/>
<path d="M14.9999 20.8852C13.9181 20.8852 13.0381 20.0051 13.0381 18.9234C13.0381 17.8418 13.9181 16.9617 14.9999 16.9617C16.0816 16.9617 16.9616 17.8418 16.9616 18.9234C16.9616 20.0051 16.0816 20.8852 14.9999 20.8852ZM14.9999 17.8671C14.4174 17.8671 13.9435 18.341 13.9435 18.9234C13.9435 19.5059 14.4174 19.9798 14.9999 19.9798C15.5823 19.9798 16.0562 19.5059 16.0562 18.9234C16.0562 18.341 15.5823 17.8671 14.9999 17.8671Z" fill="#F8F7F7"/>
<path d="M16.4184 2.62565H13.5814C13.3313 2.62565 13.1287 2.42295 13.1287 2.17293C13.1287 1.92291 13.3313 1.72021 13.5814 1.72021H16.4184C16.6685 1.72021 16.8711 1.92291 16.8711 2.17293C16.8711 2.42295 16.6685 2.62565 16.4184 2.62565Z" fill="#E8E8E8"/>
<path d="M10.684 2.62565H7.847C7.59692 2.62565 7.39429 2.42295 7.39429 2.17293C7.39429 1.92291 7.59692 1.72021 7.847 1.72021H10.684C10.9341 1.72021 11.1367 1.92291 11.1367 2.17293C11.1367 2.42295 10.9341 2.62565 10.684 2.62565Z" fill="#E8E8E8"/>
<path d="M22.1528 2.62565H19.3158C19.0657 2.62565 18.863 2.42295 18.863 2.17293C18.863 1.92291 19.0657 1.72021 19.3158 1.72021H22.1528C22.4029 1.72021 22.6055 1.92291 22.6055 2.17293C22.6055 2.42295 22.4029 2.62565 22.1528 2.62565Z" fill="#E8E8E8"/>
<path d="M19.7986 28.2795H10.201C9.95093 28.2795 9.74829 28.0768 9.74829 27.8267C9.74829 27.5767 9.95093 27.374 10.201 27.374H19.7986C20.0487 27.374 20.2513 27.5767 20.2513 27.8267C20.2513 28.0768 20.0487 28.2795 19.7986 28.2795Z" fill="#E8E8E8"/>
</g>
<defs>
<clipPath id="clip0_117_10546">
<rect width="30" height="30" fill="white"/>
</clipPath>
</defs>
</svg>
