<svg width="30" height="30" viewBox="0 0 30 30" fill="none" xmlns="http://www.w3.org/2000/svg">
<path d="M25.6677 30H2.71037C2.10898 30 1.62158 29.5124 1.62158 28.9109V11.3513H26.7567V28.9109C26.7567 29.5124 26.2691 30 25.6677 30Z" fill="#FFC73B"/>
<path d="M1.62158 11.3513H26.7567V15.4054H1.62158V11.3513Z" fill="#EFB025"/>
<path d="M30 6.69304V11.9556C30 12.5176 29.5999 12.973 29.1069 12.973H0.89241C0.399399 12.973 0 12.5176 0 11.9556V6.69304C0 6.13099 0.399399 5.67566 0.89241 5.67566H29.1069C29.5999 5.67566 30 6.13099 30 6.69304Z" fill="#FFC73B"/>
<path d="M13.7838 7.73463C13.5924 7.96934 13.4046 8.20737 13.2213 8.448C12.5383 9.34303 11.9131 10.2809 11.3479 11.2544C11.174 11.5537 11.0063 11.8562 10.8434 12.1622H4.86487C5.21414 11.3275 5.59715 10.5083 6.01209 9.70754C6.76461 8.25474 7.62329 6.86068 8.58271 5.53861C8.81189 5.2229 9.04646 4.91098 9.28688 4.60379C9.43082 4.41858 9.57723 4.23597 9.72566 4.05408C10.2713 4.54908 10.8164 5.04361 11.3623 5.53861C11.4468 5.61488 11.5314 5.69209 11.6157 5.76859C12.2599 6.35265 12.904 6.93647 13.5479 7.52123C13.6268 7.59181 13.7051 7.66358 13.7838 7.73463Z" fill="#EFB025"/>
<path d="M22.7027 12.1622H16.7246C16.5625 11.8562 16.3941 11.5537 16.2203 11.2544C15.6552 10.2809 15.0294 9.34303 14.3471 8.448C14.1632 8.20737 13.9754 7.96934 13.7838 7.73463C13.8627 7.66358 13.941 7.59229 14.0199 7.52123C14.6644 6.93647 15.3084 6.35194 15.9522 5.76859C16.0368 5.69209 16.1213 5.61488 16.2059 5.53861C16.7514 5.04361 17.2971 4.54908 17.8422 4.05408C17.9906 4.2355 18.137 4.41858 18.2809 4.60332C18.5218 4.91098 18.7565 5.2229 18.985 5.53861C19.9443 6.86068 20.8028 8.25474 21.5557 9.70754C21.9706 10.5083 22.3535 11.3275 22.7027 12.1622Z" fill="#EFB025"/>
<path d="M15.405 8.47319C15.2112 8.70262 15.0214 8.93552 14.8361 9.17098C14.1457 10.0468 13.5133 10.9645 12.9419 11.9172C11.1278 14.9394 9.92282 18.3155 9.4146 21.8492C8.65079 20.8168 7.94588 19.6998 7.31169 18.5053C6.19611 19.2469 5.10577 20.0951 4.05591 21.0495C4.59505 17.3012 5.78294 13.6984 7.54727 10.4034C8.48957 8.64259 9.59697 6.9696 10.8581 5.40947C11.0036 5.22824 11.1516 5.0498 11.3017 4.87158C11.9389 5.43079 12.5756 5.99 13.2129 6.54921C13.864 7.1207 14.5152 7.69196 15.1665 8.26415C15.246 8.33321 15.3252 8.40343 15.405 8.47319Z" fill="#FF4440"/>
<path d="M26.7546 21.0495C25.7047 20.0951 24.6144 19.2469 23.4988 18.5053C22.8646 19.6998 22.1597 20.8168 21.3959 21.8492C20.8877 18.3155 19.6829 14.9394 17.8686 11.9172C17.2971 10.9645 16.6643 10.0468 15.9744 9.17098C15.7884 8.93552 15.5985 8.70262 15.405 8.47319C15.4846 8.40343 15.5637 8.33367 15.6436 8.26415C16.2953 7.69196 16.9465 7.12001 17.5978 6.54921C18.2349 5.98931 18.8723 5.43079 19.5088 4.87158C19.6588 5.0491 19.8069 5.22824 19.9524 5.40901C21.2137 6.96914 22.3211 8.64213 23.2639 10.4034C25.0278 13.6984 26.2154 17.3012 26.7546 21.0495Z" fill="#FF4440"/>
<path d="M13.0323 8.47314H17.7782V12.805H13.0323V8.47314Z" fill="#FF4440"/>
<path d="M22.7027 10.4648L17.1363 12.1622C16.5467 11.0939 15.8938 10.0649 15.182 9.08297L14.8407 8.06619L14.5946 7.3329L16.8569 6.14332L19.2862 4.86487C20.5875 6.61416 21.73 8.49 22.7027 10.4648Z" fill="#EA2F2F"/>
<path d="M15.4053 7.33256L15.1592 8.0659L14.8183 9.08275C14.1059 10.0648 13.4534 11.0939 12.8638 12.1622L7.29724 10.4647C8.26958 8.49026 9.41226 6.61429 10.7136 4.86487L13.1435 6.14289L15.4053 7.33256Z" fill="#EA2F2F"/>
<path d="M23.0356 0.191206L14.5946 3.98308L16.2161 8.10811L25.2257 5.76231C26.404 5.45551 27.0514 4.2593 26.6254 3.1757L25.8817 1.2843C25.456 0.200695 24.1397 -0.304734 23.0356 0.191206Z" fill="#FF4440"/>
<path d="M6.96429 0.191206L15.4054 3.98308L13.784 8.10811L4.77437 5.76231C3.59604 5.45551 2.94869 4.2593 3.37468 3.1757L4.11811 1.2843C4.5441 0.200695 5.86019 -0.304734 6.96429 0.191206Z" fill="#FF4440"/>
<path d="M17.4649 6.48653C17.3207 6.48653 17.1792 6.41195 17.096 6.2753C16.9658 6.06231 17.0252 5.77935 17.2287 5.64314C17.2888 5.603 18.7182 4.65103 20.3593 3.95635C22.7251 2.95481 24.305 3.00855 25.0545 4.11604C25.1943 4.32244 25.1476 4.60826 24.9503 4.75434C24.7531 4.90043 24.4802 4.85173 24.3406 4.64532C23.3246 3.14411 19.0999 5.47841 17.7 6.41458C17.6271 6.46328 17.5456 6.48653 17.4649 6.48653Z" fill="#EA2F2F"/>
<path d="M12.535 6.48653C12.4543 6.48653 12.3728 6.46328 12.2999 6.41458C10.9 5.47841 6.6754 3.14411 5.65932 4.64532C5.51952 4.85173 5.24664 4.90043 5.04942 4.75434C4.85241 4.60804 4.80567 4.32244 4.94546 4.11604C5.69495 3.00855 7.27461 2.95481 9.64064 3.95635C11.2817 4.65081 12.7111 5.603 12.7712 5.64314C12.9747 5.77935 13.0341 6.06231 12.9041 6.2753C12.8205 6.41195 12.6792 6.48653 12.535 6.48653Z" fill="#EA2F2F"/>
<path d="M16.6271 1.62158H14.1838C13.5151 1.62158 12.973 2.28406 12.973 3.10141V7.43906C12.973 8.2564 13.5151 8.91888 14.1838 8.91888H16.6271C17.2958 8.91888 17.8379 8.2564 17.8379 7.43906V3.10141C17.8379 2.28406 17.2958 1.62158 16.6271 1.62158Z" fill="#EA2F2F"/>
<path d="M12.1621 12.973H17.027V30H12.1621V12.973Z" fill="#FF4440"/>
<path d="M12.1621 12.973H17.027V14.5946H12.1621V12.973Z" fill="#EA2F2F"/>
</svg>
