<svg width="30" height="30" viewBox="0 0 30 30" fill="none" xmlns="http://www.w3.org/2000/svg">
<path d="M7.68758 20.4466V26.7089H5.0603V20.4456" fill="#C97523"/>
<path d="M6.23218 20.4466V26.7089H5.0603V20.4456" fill="#A85613"/>
<path d="M6.37393 21.8207C9.89416 21.8207 12.7479 17.3344 12.7479 11.8003C12.7479 6.26619 9.89416 1.77991 6.37393 1.77991C2.85371 1.77991 0 6.26619 0 11.8003C0 17.3344 2.85371 21.8207 6.37393 21.8207Z" fill="#8CC928"/>
<path d="M6.37393 21.8209C2.85339 21.8209 0 17.3344 0 11.8005C0 6.26672 2.85339 1.78015 6.37393 1.78015C4.81528 1.78015 3.55236 6.26672 3.55236 11.8005C3.55236 17.3344 4.81528 21.8209 6.37393 21.8209Z" fill="#82B20B"/>
<path d="M27.4627 15.4618V28.2199H10.725V15.4618L19.141 7.29773L27.4627 15.4618Z" fill="#E9EAEF"/>
<path d="M23.3673 10.9573V8.60071H27.5518V14.9424" fill="#9EB1B7"/>
<path d="M23.3673 10.9573V8.60071H24.3722V14.9424" fill="#879BA0"/>
<path d="M20.7541 25.5466H29.141C29.6154 25.5466 30 25.9312 30 26.4056V28.2201H19.8951V26.4056C19.8951 25.9312 20.2797 25.5466 20.7541 25.5466Z" fill="#85C10D"/>
<path d="M0.858983 25.5466H10.5871C11.0614 25.5466 11.446 25.9312 11.446 26.4056V28.2201H0V26.4056C0 25.9312 0.38455 25.5466 0.858983 25.5466Z" fill="#85C10D"/>
<path d="M27.4627 15.9627V18.3474L19.0938 10.3569L10.725 18.3474V15.9627L18.4292 8.62521L19.0938 8.00781L19.758 8.62521L27.4627 15.9627Z" fill="#D2D4D8"/>
<path d="M19.0936 9.02974L9.56515 18.127L8.23279 17.0085L18.4293 7.29777L19.0936 6.68066L19.758 7.29777L29.9545 17.0085L28.6221 18.127L19.0936 9.02974Z" fill="#EA4756"/>
<path d="M18.2921 18.6613H12.7723V28.2198H18.2921V18.6613Z" fill="#C97523"/>
<path d="M18.6897 28.22H17.8954V19.0583H13.1698V28.22H12.3755V18.6612C12.3755 18.4418 12.5533 18.264 12.7726 18.264H18.2926C18.5119 18.264 18.6897 18.4418 18.6897 18.6612L18.6897 28.22Z" fill="#8E480E"/>
<path d="M26.1814 18.6613H19.8954V24.181H26.1814V18.6613Z" fill="#A0D9F2"/>
<path d="M26.1814 18.6613H19.8954V20.3386H26.1814V18.6613Z" fill="#C97523"/>
<path d="M26.181 24.5783H19.8952C19.6758 24.5783 19.498 24.4006 19.498 24.1812V18.6613C19.498 18.4419 19.6758 18.2642 19.8952 18.2642H26.1811C26.4004 18.2642 26.5782 18.4419 26.5782 18.6613V24.1812C26.5782 24.4004 26.4004 24.5783 26.181 24.5783ZM20.2923 23.784H25.7839V19.0585H20.2923V23.784Z" fill="#8E480E"/>
<path d="M17.0521 23.8071H16.2509C16.0315 23.8071 15.8538 23.6293 15.8538 23.41C15.8538 23.1906 16.0315 23.0128 16.2509 23.0128H17.0521C17.2715 23.0128 17.4493 23.1906 17.4493 23.41C17.4493 23.6293 17.2714 23.8071 17.0521 23.8071Z" fill="#8E480E"/>
<path d="M19.0938 15.9314C19.9418 15.9314 20.6292 15.2439 20.6292 14.3959C20.6292 13.5479 19.9418 12.8605 19.0938 12.8605C18.2458 12.8605 17.5583 13.5479 17.5583 14.3959C17.5583 15.2439 18.2458 15.9314 19.0938 15.9314Z" fill="#413740"/>
<path d="M26.1814 19.9413H19.8954V20.7356H26.1814V19.9413Z" fill="#8E480E"/>
<path d="M19.0938 16.3288C18.0281 16.3288 17.161 15.4617 17.161 14.396C17.161 13.3302 18.028 12.4631 19.0938 12.4631C20.1597 12.4631 21.0267 13.3302 21.0267 14.396C21.0267 15.4617 20.1596 16.3288 19.0938 16.3288ZM19.0938 13.2574C18.4661 13.2574 17.9553 13.7682 17.9553 14.396C17.9553 15.0237 18.4661 15.5345 19.0938 15.5345C19.7216 15.5345 20.2324 15.0237 20.2324 14.396C20.2324 13.7682 19.7216 13.2574 19.0938 13.2574Z" fill="#EA4756"/>
<path d="M2.74952 26.3103C2.4964 26.3103 2.29126 26.1051 2.29126 25.852V24.6926C2.29126 24.4396 2.4964 24.2344 2.74952 24.2344C3.00265 24.2344 3.20778 24.4396 3.20778 24.6926V25.852C3.20778 26.1052 3.00259 26.3103 2.74952 26.3103Z" fill="#85C10D"/>
<path d="M1.27747 26.3103C1.02435 26.3103 0.819214 26.1051 0.819214 25.852V24.6926C0.819214 24.4396 1.02435 24.2344 1.27747 24.2344C1.5306 24.2344 1.73574 24.4396 1.73574 24.6926V25.852C1.73574 26.1052 1.5306 26.3103 1.27747 26.3103Z" fill="#85C10D"/>
<path d="M9.20619 26.3103C8.95306 26.3103 8.74792 26.1051 8.74792 25.852V24.6926C8.74792 24.4396 8.95306 24.2344 9.20619 24.2344C9.45931 24.2344 9.66445 24.4396 9.66445 24.6926V25.852C9.66445 26.1052 9.45937 26.3103 9.20619 26.3103Z" fill="#85C10D"/>
</svg>
