<svg width="85" height="168" viewBox="0 0 85 168" fill="none" xmlns="http://www.w3.org/2000/svg">
<path d="M28.617 153.222C29.2072 152.641 34.6744 153.868 34.6885 154.211C34.7325 155.261 34.5168 159.238 33.9247 159.693C33.3517 160.135 27.8301 159.432 27.8443 158.421C27.855 157.544 28.0493 153.785 28.617 153.222Z" fill="#FF505C"/>
<path d="M34.461 158.542C34.461 158.542 36.57 162.553 34.3885 165.23C34.3885 165.23 20.9937 164.214 17.0488 163.082C17.0488 163.082 17.5476 158.104 21.0447 158.111C24.5437 158.114 27.9792 158.664 27.9792 158.664C27.9792 158.664 31.6248 160.977 34.461 158.542Z" fill="#051C50"/>
<path d="M62.8034 154.474C63.141 153.711 68.6698 152.821 68.8097 153.136C69.2322 154.096 70.4767 157.875 70.0913 158.517C69.7201 159.143 64.3275 160.539 63.9722 159.592C63.6663 158.775 62.4799 155.208 62.8034 154.474Z" fill="#FF505C"/>
<path d="M70.1705 157.245C70.1705 157.245 73.589 160.198 72.5355 163.497C72.5355 163.497 59.707 167.525 55.6265 167.938C55.6265 167.938 54.281 163.125 57.5377 161.827C60.7911 160.535 64.1874 159.769 64.1874 159.769C64.1874 159.769 68.4166 160.563 70.1705 157.245Z" fill="#051C50"/>
<path d="M13.0305 61.269C13.8389 62.2797 17.8046 64.0974 18.8899 63.9336C26.1779 62.859 30.1175 56.5071 32.9836 53.5069C33.4767 52.9956 33.9188 52.4722 34.3095 51.9369C36.2669 49.3043 37.1013 46.5078 37.4423 44.1748C37.7821 41.7978 37.6193 40.136 37.6193 40.136C37.6193 40.136 41.6857 19.7579 37.4921 21.7115C33.2752 23.6889 28.0203 32.4617 24.1819 39.1652C24.0669 39.357 23.9681 39.5487 23.8532 39.7285C23.6126 40.1519 23.3862 40.5594 23.1582 40.9429C22.5643 41.9896 22.0088 42.9723 21.5051 43.8153C20.4178 45.6809 17.656 49.9514 17.656 49.9514C17.656 49.9514 9.67138 57.1223 13.0305 61.269Z" fill="#FF505C"/>
<path d="M15.4038 58.7524C16.2119 59.7631 17.1594 60.313 18.2467 60.1465C25.533 59.0738 30.1177 56.5064 32.9836 53.5053C32.9962 53.3891 32.9962 53.2652 32.9962 53.1336C32.9591 49.9698 29.865 47.2746 28.1852 44.897C27.3258 43.6733 25.6709 40.8891 23.8532 39.7273C23.6131 40.1494 23.3868 40.556 23.1585 40.9394C22.5645 41.9888 22.0092 42.9724 21.5055 43.8127C21.6947 45.0132 21.9846 46.1865 22.5024 47.2746C23.2734 48.9359 25.533 51.116 25.2925 53.06C24.8896 56.3167 21.2137 56.762 18.7526 57.5403C17.8913 57.8075 16.1993 58.0244 15.4038 58.7524Z" fill="#FC3C4C"/>
<path d="M52.3811 82.7509C51.969 83.6826 51.518 84.6673 51.0637 85.6748C47.9146 92.5792 44.0763 100.62 43.4769 104.881C36.2367 113.217 37.0091 130.245 36.4787 139.653C36.0633 147.368 35.5842 155.802 35.3774 156.492C35.365 156.514 27.4015 157.242 27.4015 157.242C25.5859 147.084 21.5015 114.546 21.5015 107.479C21.5015 100.165 27.9304 71.722 32.9093 62.4239C37.644 53.5803 53.3464 71.1539 55.1534 73.5058C55.8444 74.4072 54.4319 78.1037 52.3811 82.7509Z" fill="#2457C6"/>
<path d="M52.1863 82.5953C51.9937 82.4461 51.7795 82.4461 51.5851 82.508C50.033 80.124 46.5251 77.6672 44.3963 80.8628C43.2008 82.6572 44.3023 84.9247 44.3009 86.8573C44.3059 90.759 41.6609 94.1002 39.9547 97.4123C33.8781 109.216 37.4068 122.864 35.1776 135.457C34.021 142.052 29.9865 150.183 30.0959 156.997C33.4076 157.288 34.693 156.891 35.3773 156.491C37.4759 147.308 39.0832 119.621 43.4769 104.881C44.7055 100.761 47.9146 92.5788 51.0635 85.6744C51.5178 84.6663 51.9689 83.6836 52.3806 82.7518C52.3209 82.6936 52.2464 82.6499 52.1863 82.5953Z" fill="#0A2C76"/>
<path d="M37.6177 40.136C37.6177 40.136 37.7821 41.7979 37.4407 44.1748C37.0464 46.9353 35.9785 50.6546 33.1989 53.8145C30.3633 57.0424 20.6671 41.3145 23.4502 37.3635C27.688 31.3472 33.3439 23.653 37.4901 21.7115C41.6841 19.758 37.6177 40.136 37.6177 40.136Z" fill="#FFDEDB"/>
<path d="M36.9174 22.0133C36.9174 22.0133 34.136 23.3987 33.5049 27.7102C32.8722 32.0177 32.0304 43.8694 33.1159 48.3043C33.977 51.8275 34.1998 52.4884 34.2266 52.4884C34.2298 52.4884 34.2317 52.4884 34.2353 52.4884L36.7158 48.7621C36.7158 48.7621 39.3766 44.6218 38.9648 43.6425C38.5565 42.6591 36.9174 22.0133 36.9174 22.0133Z" fill="#FFB4B7"/>
<path d="M70.166 154.47C68.1823 156.759 62.7491 157.931 62.7491 157.931C57.9134 147.216 53.0865 126.312 52.3562 114.204C51.2248 95.3982 48.0333 77.0478 48.1729 72.1196C48.2013 71.328 48.2083 70.9062 48.2083 70.9062C53.023 65.5709 58.8875 62.6849 62.3264 62.4534C63.6845 62.3601 64.6549 62.6774 65.0474 63.4167C66.3135 65.836 67.2876 68.0612 68.0269 70.1445C68.1044 70.3536 68.1698 70.5627 68.2337 70.768C72.8094 83.8877 71.4107 90.9105 70.6401 107.864C70.2668 115.862 67.2876 150.001 70.166 154.47Z" fill="#2457C6"/>
<path d="M68.7618 137.183C68.8059 128.355 70.2664 115.86 70.6394 107.865C71.4105 90.9096 72.8087 83.8867 68.233 70.769C66.8628 70.6474 65.3687 70.9126 63.7741 71.6749C63.3214 71.8811 63.3975 72.3709 63.6998 72.6434C63.6183 72.765 63.5971 72.9307 63.6751 73.1259C66.2476 80.1156 67.738 87.5473 67.0132 95.0269C66.6522 98.8569 65.588 102.547 64.8242 106.318C64.0462 110.178 63.5673 114.077 63.2012 117.985C62.593 124.651 61.7177 131.589 62.6141 138.269C63.5352 145.171 63.631 150.452 65.1797 157.242C65.2715 157.673 69.6316 155.523 70.1655 154.473C69.7605 153.567 68.6875 151.829 68.7618 137.183Z" fill="#0A2C76"/>
<path d="M30.6396 65.5525C30.8288 66.1527 32.9627 67.2371 36.0938 68.3735C39.593 69.6259 44.3419 70.9264 49.1035 71.6666C55.5446 72.675 62.0229 72.651 65.4829 71.9868C66.8973 71.7187 67.8063 71.3385 68.022 70.8784C68.692 69.4219 69.5373 60.6748 69.8147 51.2515C69.8658 49.4229 69.903 47.5742 69.903 45.7576C69.9544 36.2823 69.2967 27.4112 67.1751 25.7626C66.6959 25.3785 66.1387 24.9824 65.5217 24.5622C64.5988 23.926 63.5256 23.2578 62.3146 22.6215C60.419 21.6132 58.1949 20.6809 55.7088 20.0406C51.8812 19.0323 47.4239 18.7002 42.5226 19.8366C42.5226 19.8366 42.5226 19.8486 42.5104 19.8486C41.3239 20.1167 40.111 20.4768 38.8735 20.949C38.5834 21.049 38.2917 21.165 37.9894 21.2811C33.8483 22.9657 34.4408 32.0848 35.1108 39.7315C35.4131 43.2807 35.7297 46.5139 35.6023 48.5306C35.5528 49.2068 35.4768 49.883 35.3498 50.5473C34.4143 56.1772 31.3342 61.4511 30.6396 65.5525Z" fill="#FFDEDB"/>
<path d="M46.159 15.1501V19.247C46.159 19.247 45.2025 21.023 46.159 21.2168C48.2648 21.6406 51.3024 19.247 51.3024 19.247V12.9946L46.159 15.1501Z" fill="#FF505C"/>
<path d="M51.3021 16.0788V13.3152C51.3021 13.3152 49.023 16.2442 46.498 16.3894C46.498 16.3894 49.2033 17.4949 51.3021 16.0788Z" fill="#FC3C4C"/>
<path d="M44.8973 4.64034C44.8973 4.64034 43.0017 8.52361 42.5299 12.1412C42.194 14.7123 46.8439 18.101 50.6328 14.4834C54.4216 10.8658 53.3697 5.33115 53.3697 5.33115L44.8973 4.64034Z" fill="#FF505C"/>
<path d="M65.2168 59.6025C65.7227 63.5115 64.232 68.107 65.4821 71.9882C66.8966 71.7223 67.8052 71.3373 68.0211 70.877C68.6911 69.4206 69.5365 60.674 69.814 51.2528C69.865 49.4234 69.9023 47.5741 69.9023 45.7605C69.197 44.1254 68.3111 42.542 67.2377 40.8713C64.2587 36.2202 61.58 31.4342 59.1932 26.4538C59.0041 26.0688 61.9709 24.3187 62.2236 24.2195C61.921 24.1044 59.7871 24.0648 58.2332 26.0688C53.6733 31.9303 52.3612 40.5379 56.5922 46.7169C59.4829 50.9195 64.5099 54.1498 65.2168 59.6025Z" fill="#FFB4B7"/>
<path d="M41.7678 3.19043C41.7376 6.44749 45.2953 6.72784 47.668 6.5753C47.8678 6.56293 47.9913 6.31556 48.1646 6.29907C48.4758 6.27845 48.614 6.46398 48.9532 6.52582C49.719 6.65775 50.2422 6.72372 51.0185 6.71135C51.3598 6.70723 51.6991 6.78556 52.0351 6.87214C51.8336 7.30092 51.7892 7.88224 51.708 8.28628C51.4585 9.51077 50.709 10.9744 51.0874 12.2401C51.3386 13.0853 52.1517 13.6089 53.0161 13.3533C54.0559 13.0441 53.9462 12.0628 54.3018 11.2589C54.5122 10.7765 54.6728 10.4384 54.5366 9.89831C54.4963 9.73752 54.4009 9.59322 54.3283 9.44892C54.3548 9.42419 54.376 9.27576 54.4396 9.11085C54.7152 8.39347 54.6198 7.60601 54.2663 6.94635C55.154 6.47635 55.4598 5.43327 55.101 4.49326C54.6537 3.33061 53.5678 2.95543 52.4612 2.89359C51.6567 1.62787 50.1345 1.64437 48.9145 2.27104C48.3714 1.67323 47.7051 1.40112 47.0225 1.45059C45.5852 -1.09733 41.7963 0.114787 41.7678 3.19043Z" fill="#051C50"/>
<path d="M81.9635 68.1313C76.5957 75.744 52.7729 68.588 52.7729 68.588L53.1088 64.3746C53.1088 64.3746 67.1206 65.5302 69.9087 60.8244C70.4146 59.9666 68.9347 50.1897 66.3323 47.6601C65.1706 46.5362 63.9452 45.4283 62.8844 44.4951C60.3083 42.2236 58.4518 39.1817 57.8701 35.7744C57.301 32.5062 57.7711 29.7462 58.5527 27.5899C59.6383 24.5877 63.3883 23.6306 65.8406 25.648C70.5489 29.5318 78.1428 39.4874 78.3321 39.7297C85.0631 48.629 87.3473 60.4908 81.9635 68.1313Z" fill="#FF505C"/>
<path d="M66.317 49.7562C65.2454 48.7184 58.4967 42.0343 57.4644 35.386C56.9941 32.3641 57.9206 25.0676 61.6424 24.1929C67.6057 22.7972 75.5727 31.5489 81.0697 38.1575C78.5465 43.9111 73.0146 47.9351 66.317 49.7562Z" fill="#FFDEDB"/>
<path d="M52.4097 11.6435C52.4678 11.5787 52.5348 11.5178 52.5934 11.453C53.1239 10.8164 52.123 9.99323 51.5928 10.6298C50.9596 11.3881 50.2454 11.972 49.2905 12.3045C48.0301 12.7424 47.4342 12.3693 46.5711 11.5503C46.3185 11.3151 45.8641 11.38 45.652 11.6314C44.888 12.5356 42.6992 11.2786 42.4269 12.6735C42.2128 13.7804 43.4311 15.7348 44.7677 16.1525C48.3236 17.2676 50.8641 14.8874 52.8159 12.6735C53.1805 12.2639 52.8532 11.7246 52.4097 11.6435Z" fill="#051C50"/>
<path d="M34.5864 67.1623L50.4104 68.129L35.2653 72.4258L34.5864 67.1623Z" fill="#EEF9FB"/>
<path d="M50.4108 68.1298L50.4938 69.646L35.2603 74.3538L35.2657 72.4233L50.4108 68.1298Z" fill="#99CBD3"/>
<path d="M2.5166 70.4201L35.2666 72.4243L35.2611 74.3547L2.52352 72.1406L2.5166 70.4201Z" fill="#B9DAE1"/>
<path d="M2.51532 70.4244L35.2654 72.4236L32.7423 54.4386C32.6608 53.8152 32.1552 53.3363 31.5346 53.2983L1.42108 51.4588C0.607639 51.4094 -0.0483015 52.1201 0.055822 52.9373L2.51532 70.4244Z" fill="#D3E7EC"/>
<path d="M40.8643 63.3973C41.8597 63.056 42.9542 62.9735 44.0505 63.0485C44.1867 63.0073 44.3139 63.011 44.4467 62.9848C44.3758 62.861 44.2872 62.7485 44.2289 62.621C43.8736 61.8297 43.8169 60.491 44.7879 60.0935C45.8115 59.6735 46.4639 60.9935 46.9905 61.6347C47.6043 62.381 48.3116 63.1123 49.1635 63.566C50.0318 63.9335 50.9794 63.9973 51.9044 64.1585C52.5638 64.2785 53.6546 64.3123 54.0614 64.9723C54.3848 65.501 54.3885 66.5923 54.2469 67.1885C54.0685 67.9348 53.4213 68.2873 52.7741 68.5873C52.3606 68.7785 51.7115 68.9923 51.038 69.101C49.9769 69.4123 48.8683 69.611 47.7846 69.296C47.5495 69.2285 47.3321 69.1348 47.1196 69.0298C46.1631 69.431 45.1432 69.5623 44.0876 69.3973C43.5855 69.3185 43.4334 68.8348 43.5695 68.4485C43.3555 68.3848 43.1612 68.2835 43.0054 68.1298C42.82 67.9348 42.7595 67.7023 42.7491 67.466C42.5388 67.3498 42.3497 67.211 42.215 67.0685C41.6387 66.461 41.5504 65.711 41.7678 65.1185C40.7812 65.5985 39.9271 66.371 39.1582 67.2185C38.7673 67.6498 38.1646 67.481 37.9399 66.9823C37.2133 65.3773 39.6267 63.8135 40.8643 63.3973Z" fill="#FF505C"/>
<path d="M12.1024 73.148C12.0476 73.1185 12.0195 73.0594 12.0071 72.9966C11.8073 73.2108 11.5633 73.4176 11.2751 73.4213C10.9054 73.425 10.695 73.1111 10.5361 72.8747C10.5274 72.8636 10.5256 72.8488 10.5201 72.8378C10.1508 73.3548 9.64308 73.7795 9.04039 73.6614C8.47094 73.5469 8.35077 73.0852 8.39826 72.5571C8.24813 72.7381 8.08376 72.9006 7.9088 73.0298C7.21553 73.5579 6.50838 72.9486 6.28374 72.3613C6.24685 72.2653 6.27498 72.1804 6.33159 72.125C6.33159 72.1028 6.32977 72.0807 6.33525 72.0585C6.49779 71.5045 6.71877 70.9653 7.02121 70.452C7.2316 70.0974 7.5019 69.5619 7.9088 69.3366C8.63166 68.934 8.95711 69.7392 9.07911 70.2968C9.27891 69.7429 9.63066 69.2664 10.3718 69.5471C10.881 69.7429 11.1337 70.1011 11.2239 70.511C11.3759 70.2599 11.5633 70.0383 11.8109 69.8869C12.4366 69.4991 12.8822 70.1787 12.9918 70.6366C13.0433 70.8582 13.0433 71.0761 13.0097 71.2903C13.0554 71.2645 13.1032 71.2423 13.1598 71.2349C13.6179 71.1463 13.9112 71.6892 13.9678 72.0031C14.1413 72.9301 13.0415 73.6687 12.1024 73.148Z" fill="#FF505C"/>
</svg>
