<svg width="34" height="34" viewBox="0 0 34 34" fill="none" xmlns="http://www.w3.org/2000/svg">
<g clip-path="url(#clip0_44_1848)">
<path d="M33.1399 14.9235L30.5066 12.2894C30.1243 11.9069 29.8695 11.3546 29.8695 10.8023V7.0635C29.8695 5.44902 28.5528 4.13195 26.9389 4.13195H23.2013C22.6491 4.13195 22.0969 3.91954 21.7146 3.49461L19.0812 0.860371C17.9344 -0.28679 16.0656 -0.28679 14.9188 0.860371L12.2855 3.49451C11.9032 3.87693 11.3511 4.13184 10.7989 4.13184H7.06128C5.4473 4.13184 4.13065 5.44891 4.13065 7.06339V10.8022C4.13065 11.3545 3.91831 11.9068 3.49351 12.2893L0.860101 14.9235C-0.2867 16.0707 -0.2867 17.9401 0.860101 19.0872L3.49341 21.7214C3.87571 22.1038 4.13054 22.6561 4.13054 23.2084V26.9472C4.13054 28.5617 5.4472 29.8788 7.06117 29.8788H10.7988C11.3509 29.8788 11.9031 30.0912 12.2854 30.5161L14.9187 33.1503C15.4709 33.7026 16.2354 34 16.9999 34C17.7644 34 18.4865 33.7026 19.081 33.1503L21.7143 30.5161C22.0966 30.1337 22.6488 29.8788 23.2009 29.8788H26.9385C28.5525 29.8788 29.8692 28.5617 29.8692 26.9472V23.2084C29.8692 22.6561 30.0815 22.1038 30.5063 21.7214L33.1396 19.0872C34.2867 17.9401 34.2867 16.0707 33.1399 14.9235Z" fill="#346AE5"/>
<path d="M31.7426 16.4206L29.0827 13.7597C28.2675 12.9442 27.8384 11.8713 27.8384 10.7554V6.97857C27.8384 6.50649 27.4522 6.16312 27.0233 6.16312H23.2478C22.0894 6.16312 21.0168 5.73398 20.2446 4.91842L17.5846 2.2575C17.3701 2.04294 17.1127 2 16.9839 2C16.8552 2 16.5978 2.04294 16.3833 2.2575L13.7233 4.91842C12.9082 5.73387 11.8356 6.16312 10.7201 6.16312H6.94463C6.47272 6.16312 6.12947 6.54943 6.12947 6.97857V10.7554C6.12947 11.9142 5.70049 12.9872 4.88522 13.7597L2.22525 16.4206C1.92492 16.721 1.92492 17.279 2.22525 17.5794L4.88522 20.2403C5.70038 21.0558 6.12947 22.1287 6.12947 23.2446V27.0214C6.12947 27.4935 6.51564 27.8369 6.94463 27.8369H10.7201C11.8785 27.8369 12.9511 28.266 13.7233 29.0816L16.3833 31.7425C16.5978 31.9571 16.8552 32 16.9839 32C17.1127 32 17.3701 31.9571 17.5846 31.7425L20.2446 29.0816C21.0597 28.2661 22.1323 27.8369 23.2478 27.8369H27.0233C27.4952 27.8369 27.8384 27.4506 27.8384 27.0214V23.2446C27.8384 22.0858 28.2674 21.0128 29.0827 20.2403L31.7426 17.5794C32.0858 17.279 32.0858 16.7639 31.7426 16.4206ZM28.4819 19.6824C27.4951 20.6695 26.9802 21.9571 26.9802 23.3305V27.0645H23.2476C21.8747 27.0645 20.5876 27.5795 19.6008 28.5667L16.9836 31.1848L14.3237 28.5239C13.3369 27.5367 12.0497 27.0217 10.6768 27.0217H6.94419V23.2877C6.94419 21.9143 6.42937 20.6268 5.44253 19.6396L2.82537 17.0215L5.48534 14.3605C6.47207 13.3735 6.987 12.0858 6.987 10.7124V6.97846H10.7197C12.0926 6.97846 13.3796 6.46345 14.3665 5.47626L16.9836 2.85817L19.6436 5.51908C20.6303 6.50617 21.9175 7.02129 23.2904 7.02129H27.023V10.7553C27.023 12.1287 27.5379 13.4162 28.5247 14.4034L31.1419 17.0215L28.4819 19.6824Z" fill="white"/>
<path d="M15.2182 10.9033C15.7697 11.5191 16.0667 12.217 16.0667 13.0792C16.0667 13.9414 15.7697 14.6393 15.1757 15.2551C14.5818 15.871 13.8606 16.1584 13.0121 16.1584C12.1636 16.1584 11.4425 15.871 10.8485 15.2551C10.297 14.6393 10 13.9414 10 13.0792C10 12.217 10.297 11.5191 10.8485 10.9033C11.4425 10.2874 12.1636 10 13.0121 10C13.9455 10.0001 14.6667 10.3286 15.2182 10.9033ZM23.3637 10.3286L13.1394 23.8768H10.5515L20.7758 10.3696H23.3637V10.3286ZM13.9031 14.1056C14.1152 13.8592 14.2425 13.5308 14.2425 13.1203C14.2425 12.7507 14.1152 12.4224 13.9031 12.135C13.691 11.8887 13.394 11.7245 13.0546 11.7245C12.7151 11.7245 12.4606 11.8477 12.2485 12.135C12.0364 12.3813 11.9091 12.7098 11.9091 13.1203C11.9091 13.4898 12.0364 13.8182 12.2485 14.1056C12.4606 14.3519 12.7576 14.5161 13.097 14.5161C13.394 14.5162 13.691 14.393 13.9031 14.1056ZM23.1515 18.7449C23.703 19.3607 24 20.0586 24 20.9208C24 21.783 23.703 22.522 23.1091 23.0967C22.5151 23.7126 21.7939 24 20.9454 24C20.0969 24 19.3758 23.7126 18.7818 23.0967C18.2303 22.4809 17.9333 21.783 17.9333 20.9208C17.9333 20.0586 18.2303 19.3607 18.8243 18.7449C19.4182 18.129 20.1394 17.8416 20.9879 17.8416C21.8788 17.8416 22.6 18.1701 23.1515 18.7449ZM21.8788 21.9882C22.0909 21.7419 22.2182 21.4134 22.2182 21.0029C22.2182 20.6334 22.0909 20.305 21.8788 20.0176C21.6667 19.7713 21.3697 19.6071 21.0303 19.6071C20.6909 19.6071 20.4364 19.7304 20.2243 20.0176C20.0122 20.305 19.8848 20.5924 19.8848 21.0029C19.8848 21.3725 20.0122 21.7008 20.2243 21.9882C20.4364 22.2346 20.7333 22.3987 21.0728 22.3987C21.4122 22.3987 21.6667 22.2346 21.8788 21.9882Z" fill="white"/>
</g>
<defs>
<clipPath id="clip0_44_1848">
<rect width="34" height="34" fill="white"/>
</clipPath>
</defs>
</svg>
