<svg width="34" height="35" viewBox="0 0 34 35" fill="none" xmlns="http://www.w3.org/2000/svg">
<g clip-path="url(#clip0_123_21674)">
<path d="M18.9441 0.118713H0.0974021V34.9456H25.6233V6.94569L18.9441 0.118713Z" fill="#E1E6E9"/>
<path d="M18.9441 0.118713H0.0974021V33.6791H25.6233V6.94569L18.9441 0.118713Z" fill="white"/>
<path d="M18.9441 6.94569H25.6233L18.9441 0.118713V6.94569Z" fill="#EBF0F3"/>
<path d="M18.9441 6.94568L25.6233 11.3739V6.94568H18.9441Z" fill="#E1E6E9"/>
<path d="M18.4625 6.31158H7.25567V7.35577H18.4625V6.31158Z" fill="#2457C6"/>
<path d="M22.6306 10.8517H3.09025V11.8959H22.6306V10.8517Z" fill="#E1E6E9"/>
<path d="M22.6306 14.1104H3.09025V15.1545H22.6306V14.1104Z" fill="#E1E6E9"/>
<path d="M22.6306 17.3682H3.09025V18.4124H22.6306V17.3682Z" fill="#E1E6E9"/>
<path d="M22.6306 20.6266H3.09025V21.6708H22.6306V20.6266Z" fill="#E1E6E9"/>
<path d="M22.6306 23.8834H3.09025V24.9275H22.6306V23.8834Z" fill="#E1E6E9"/>
<path d="M9.71275 27.1444H3.09025V28.1886H9.71275V27.1444Z" fill="#2457C6"/>
<path d="M30.7883 18.9621L29.4571 17.6014L17.4966 29.8266L18.8279 31.1873L30.7883 18.9621Z" fill="#44C4A1"/>
<path d="M29.4544 17.6062L28.1231 16.2454L16.1626 28.4707L17.4938 29.8315L29.4544 17.6062Z" fill="#3EA69B"/>
<path d="M28.1247 16.2442L26.7935 14.8834L14.8329 27.1087L16.1642 28.4695L28.1247 16.2442Z" fill="#31978C"/>
<path d="M31.2568 18.4824L27.2631 14.4003L26.7926 14.8812L30.7863 18.9633L31.2568 18.4824Z" fill="#E56353"/>
<path d="M33.7921 15.0374L32.8796 14.1046L29.9267 17.1229L31.2577 18.4836L33.792 15.8932C34.0234 15.6569 34.0234 15.2737 33.7921 15.0374Z" fill="#64798A"/>
<path d="M29.9288 17.1228L32.8817 14.1046L31.5504 12.7438L28.5975 15.7621L29.9288 17.1228Z" fill="#3A556A"/>
<path d="M31.5484 12.7439L30.6358 11.8112C30.4046 11.5748 30.0297 11.5748 29.7985 11.8112L27.2642 14.4015L28.5953 15.7621L31.5484 12.7439Z" fill="#2F4859"/>
<path d="M14.8331 27.108L13.8009 30.6633C14.1997 30.6556 14.6009 30.8049 14.9054 31.1161C15.2097 31.4271 15.3558 31.8372 15.3483 32.245L18.8266 31.1899L14.8331 27.108Z" fill="#FCD462"/>
<path d="M14.9054 31.1161C14.601 30.8049 14.1997 30.6556 13.8009 30.6633L13.3026 32.3795C13.2359 32.6088 13.4449 32.8224 13.6693 32.7544L15.3483 32.2451C15.3558 31.8372 15.2099 31.4272 14.9054 31.1161Z" fill="#64798A"/>
</g>
<defs>
<clipPath id="clip0_123_21674">
<rect width="34" height="35" fill="white"/>
</clipPath>
</defs>
</svg>
