<svg width="35" height="35" viewBox="0 0 35 35" fill="none" xmlns="http://www.w3.org/2000/svg">
<g clip-path="url(#clip0_123_21752)">
<path d="M17.5 0C7.85091 0 0 7.85091 0 17.5C0 27.1491 7.85091 35 17.5 35C27.1491 35 35 27.1491 35 17.5C35 7.85091 27.1491 0 17.5 0Z" fill="#FDD55B"/>
<path d="M17.5 1.45825C8.6544 1.45825 1.45824 8.65441 1.45824 17.5C1.45824 26.3456 8.6544 33.5418 17.5 33.5418C26.3456 33.5418 33.5417 26.3456 33.5417 17.5C33.5417 8.65441 26.3456 1.45825 17.5 1.45825Z" fill="#FEDF84"/>
<path d="M31.3542 17.5C31.3542 25.1515 25.1514 31.3543 17.5 31.3543C9.84855 31.3543 3.64574 25.1515 3.64574 17.5C3.64574 9.84856 9.84855 3.64575 17.5 3.64575C25.1514 3.64575 31.3542 9.84856 31.3542 17.5Z" fill="#F2F2F2"/>
<path d="M17.5 2.91675C9.45869 2.91675 2.91675 9.45869 2.91675 17.5C2.91675 25.5413 9.45869 32.0832 17.5 32.0832C23.1356 32.0832 28.3229 28.7838 30.7139 23.6774C30.7198 23.6644 30.7257 23.6513 30.7307 23.6374L31.3526 22.0689C31.8376 20.5989 32.0832 19.0618 32.0832 17.5C32.0832 9.45869 25.5413 2.91675 17.5 2.91675ZM29.3838 23.0782C28.834 24.2478 28.1189 25.3101 27.2775 26.2463L26.2647 25.2334L25.2334 26.2647L26.2412 27.2716C24.408 28.9048 22.1383 30.0132 19.6875 30.4317V29.1667H18.2292V30.5988C17.9871 30.6119 17.7443 30.625 17.5 30.625C17.2535 30.625 17.0137 30.6018 16.7707 30.5879V29.1667H15.3125V30.4274C12.8203 30.0066 10.5701 28.8845 8.76388 27.2671L9.76657 26.2647L8.73531 25.2334L7.73288 26.2361C5.80493 24.0828 4.58221 21.2974 4.41211 18.2292H5.83324V16.7707H4.41211C4.58221 13.7026 5.80493 10.9172 7.73288 8.76388L8.73531 9.76657L9.76657 8.73531L8.76388 7.73288C10.5701 6.11549 12.8203 4.99343 15.3125 4.57259V5.83324H16.7707V4.41211C17.0137 4.39822 17.2535 4.37499 17.5 4.37499C17.7465 4.37499 17.9863 4.39822 18.2292 4.41211V5.83324H19.6875V4.57259C22.1797 4.99343 24.4299 6.11549 26.2361 7.73288L25.2334 8.73531L26.2647 9.76657L27.2671 8.76388C29.1951 10.9172 30.4178 13.7026 30.5879 16.7707H29.1667V18.2292H30.5967C30.5339 19.3828 30.3313 20.5121 29.9833 21.5708L29.3838 23.0782Z" fill="#FA5419"/>
<path d="M17.5 16.469L12.1821 11.1511L11.1511 12.1821L16.469 17.5L15.5261 18.4429L16.5571 19.4739L17.5 18.531L18.4429 19.4739L19.4739 18.4429L18.531 17.5L25.3071 10.7239L24.2761 9.69287L17.5 16.469Z" fill="#FA5419"/>
</g>
<defs>
<clipPath id="clip0_123_21752">
<rect width="35" height="35" fill="white"/>
</clipPath>
</defs>
</svg>
