<svg width="41" height="35" viewBox="0 0 41 35" fill="none" xmlns="http://www.w3.org/2000/svg">
<g clip-path="url(#clip0_122_21094)">
<path d="M40.6782 5.76245H0.319978V34.6689H40.6782V5.76245Z" fill="white"/>
<path d="M29.6261 31.6705H11.3739L8.38094 33.9617H32.6191L29.6261 31.6705Z" fill="#E1E5EA"/>
<path d="M9.07437 31.6705H3.81389L0.820891 33.9617H6.09207L9.07437 31.6705Z" fill="#E1E5EA"/>
<path d="M37.1861 31.6705H31.9256L34.9079 33.9617H40.1791L37.1861 31.6705Z" fill="#E1E5EA"/>
<path d="M29.6261 8.82179H11.3739L8.38094 6.53064H32.6191L29.6261 8.82179Z" fill="#E1E5EA"/>
<path d="M9.07437 8.82179H3.81389L0.820891 6.53064H6.09207L9.07437 8.82179Z" fill="#E1E5EA"/>
<path d="M37.1861 8.82179H31.9256L34.9079 6.53064H40.1791L37.1861 8.82179Z" fill="#E1E5EA"/>
<path d="M40.3591 6.08556V34.3458H0.640848V6.08556H40.3591ZM41 5.44031H0V34.9902H41V5.44031Z" fill="white"/>
<path d="M0 6.53067V1.39195C0 0.682081 0.576674 0.10144 1.2817 0.10144H39.7156C40.4207 0.10144 40.9973 0.682081 40.9973 1.39195V6.53067H0Z" fill="black"/>
<path d="M37.7664 5.09029H13.7359L16.0346 1.54272H37.7664V5.09029Z" fill="white"/>
<path d="M4.31659 4.36517C4.91861 4.36517 5.40665 3.87378 5.40665 3.26761C5.40665 2.66144 4.91861 2.17004 4.31659 2.17004C3.71456 2.17004 3.22652 2.66144 3.22652 3.26761C3.22652 3.87378 3.71456 4.36517 4.31659 4.36517Z" fill="#DB2B42"/>
<path d="M7.20174 4.36517C7.80376 4.36517 8.2918 3.87378 8.2918 3.26761C8.2918 2.66144 7.80376 2.17004 7.20174 2.17004C6.59971 2.17004 6.11167 2.66144 6.11167 3.26761C6.11167 3.87378 6.59971 4.36517 7.20174 4.36517Z" fill="#8AD5DD"/>
<path d="M10.094 4.36517C10.696 4.36517 11.1841 3.87378 11.1841 3.26761C11.1841 2.66144 10.696 2.17004 10.094 2.17004C9.492 2.17004 9.00396 2.66144 9.00396 3.26761C9.00396 3.87378 9.492 4.36517 10.094 4.36517Z" fill="#939393"/>
<path d="M17.2663 2.65015L17.4197 3.32053C17.4526 3.47758 17.4865 3.63822 17.5132 3.79886H17.5195C17.5498 3.63822 17.5979 3.47399 17.6398 3.32322L17.8297 2.65015H18.1309L18.3145 3.30527C18.3591 3.47848 18.3983 3.63912 18.4322 3.79976H18.4384C18.4625 3.63912 18.4955 3.47848 18.5347 3.30527L18.6978 2.65015H19.0614L18.6006 4.12643H18.2575L18.0837 3.52604C18.0391 3.37168 18.0052 3.23168 17.9723 3.0531H17.966C17.9357 3.23527 17.8974 3.38066 17.8546 3.52604L17.6683 4.12643H17.3216L16.8884 2.65015H17.2663Z" fill="black"/>
<path d="M19.5695 2.65015L19.7228 3.32053C19.7558 3.47758 19.7896 3.63822 19.8164 3.79886H19.8226C19.8529 3.63822 19.901 3.47399 19.9429 3.32322L20.1328 2.65015H20.434L20.6177 3.30527C20.6622 3.47848 20.7014 3.63912 20.7353 3.79976H20.7415C20.7656 3.63912 20.7986 3.47848 20.8378 3.30527L21.0009 2.65015H21.3646L20.9038 4.12643H20.5606L20.3859 3.52604C20.3413 3.37168 20.3075 3.23168 20.2745 3.0531H20.2683C20.238 3.23527 20.1996 3.38066 20.1568 3.52604L19.9706 4.12643H19.6238L19.1898 2.65015H19.5695Z" fill="black"/>
<path d="M21.8735 2.65015L22.0268 3.32053C22.0598 3.47758 22.0937 3.63822 22.1204 3.79886H22.1266C22.1569 3.63822 22.2051 3.47399 22.247 3.32322L22.4368 2.65015H22.7381L22.9217 3.30527C22.9662 3.47848 23.0055 3.63912 23.0393 3.79976H23.0456C23.0696 3.63912 23.1026 3.47848 23.1418 3.30527L23.3049 2.65015H23.6686L23.2078 4.12643H22.8646L22.6908 3.52604C22.6463 3.37168 22.6124 3.23168 22.5794 3.0531H22.5732C22.5429 3.23527 22.5045 3.38066 22.4618 3.52604L22.2755 4.12643H21.9288L21.4947 2.65015H21.8735Z" fill="black"/>
<path d="M23.7274 3.92004C23.7274 3.78004 23.8237 3.68042 23.9565 3.68042C24.092 3.68042 24.1855 3.77734 24.1855 3.92004C24.1855 4.05645 24.0955 4.15965 23.9565 4.15965C23.8219 4.15875 23.7274 4.05555 23.7274 3.92004Z" fill="black"/>
<path d="M27.4415 34.3342H13.5585L15.4802 32.8633H25.5198L27.4415 34.3342Z" fill="black"/>
<path d="M41 33.9617H0V34.991H41V33.9617Z" fill="black"/>
<path d="M40.1791 33.9617H34.9079H32.6191H8.38093H6.09207H0.820891H0V34.991H41V33.9617H40.1791Z" fill="black"/>
<path d="M35.2627 4.36424L35.0336 4.13809L35.826 3.31962L34.9864 2.49488L35.2101 2.26514L36.2788 3.31244L35.2627 4.36424Z" fill="black"/>
<path d="M35.8777 3.15454H33.7626V3.47672H35.8777V3.15454Z" fill="black"/>
<path d="M35.1415 11.6901H22.8103V18.6506H35.1415V11.6901Z" fill="#2457C6"/>
<path d="M35.1415 21.2728H22.8103V28.2333H35.1415V21.2728Z" fill="#2457C6"/>
<path d="M20.1907 11.6901H5.85854V28.7413H20.1907V11.6901Z" fill="#59B78B"/>
</g>
<defs>
<clipPath id="clip0_122_21094">
<rect width="41" height="35" fill="white"/>
</clipPath>
</defs>
</svg>
