<svg width="177" height="234" viewBox="0 0 177 234" fill="none" xmlns="http://www.w3.org/2000/svg">
<g clip-path="url(#clip0_123_26022)">
<path d="M70.5844 55.8236C70.5844 55.8236 70.3559 58.1231 70.8301 61.4101C71.3059 64.6456 72.4669 68.5179 75.1928 72.1588C78.939 77.1963 85.6585 81.7765 97.5654 83.5253C105.322 84.6578 109.404 75.1988 110.793 62.6654C111.444 56.7074 111.497 50.0609 111.058 43.5196C110.917 41.3634 105.815 45.1649 105.815 45.1649C103.177 45.7121 98.8141 66.9795 96.229 65.5638C95.4028 65.1047 93.3795 61.5863 90.724 56.9371C90.2672 56.1602 89.7914 55.3298 89.2984 54.4804C83.953 45.1993 76.6356 33.0542 70.7612 30.3144C64.9213 27.609 70.5844 55.8236 70.5844 55.8236Z" fill="#FF4F5C"/>
<path d="M75.2318 72.0722C78.9741 77.1075 85.6868 81.6857 97.5816 83.4337C105.331 84.5658 109.408 75.1109 110.796 62.5829C110.621 62.6191 110.444 62.6898 110.25 62.7779C107.845 63.8374 106.175 68.9262 105.032 71.1888C102.414 76.331 99.7781 80.0067 93.1186 77.798C90.8175 77.0385 87.3205 75.9602 87.0049 73.0264C86.7935 71.0834 88.2351 68.0789 88.7962 66.2049C89.7108 63.0782 90.5191 60.0739 90.7472 56.8572C90.2908 56.0806 89.8156 55.2506 89.3231 54.4016C86.9687 55.6925 84.5973 57.1229 82.9639 59.3147C81.8742 60.7988 81.452 62.5656 80.486 64.1205C79.5714 65.6043 78.1318 66.6124 77.0593 67.972C75.9354 69.3871 75.3553 70.747 75.2318 72.0722Z" fill="#FF394B"/>
<path d="M70.5849 55.7417C70.5849 55.7417 70.3564 58.0402 70.8307 61.33C71.38 65.1535 72.8679 70.3051 76.7376 74.6829C80.6882 79.1522 94.1928 57.3737 90.3159 51.9008C84.4139 43.5667 76.5367 32.9131 70.76 30.2227C64.9217 27.5182 70.5849 55.7417 70.5849 55.7417Z" fill="#FF8989"/>
<path d="M104 54.9076C103.476 54.7899 103.194 54.0292 103.371 53.2085L108.659 29.0399C108.837 28.2192 109.404 27.6493 109.929 27.7652L113.762 28.6192C114.285 28.737 114.568 29.4974 114.391 30.3169L109.103 54.4849C108.925 55.3062 108.356 55.8778 107.831 55.7599L104 54.9076Z" fill="#2457C6"/>
<path d="M131.727 11.1673L100.868 4.396L98.4853 15.2744L129.342 22.0457C130.676 22.3389 132.292 20.1406 132.95 17.1367C133.608 14.1331 133.06 11.4605 131.727 11.1673Z" fill="#FF8989"/>
<path d="M102.037 10.5161C101.38 13.5361 99.767 15.7466 98.4358 15.4516C97.103 15.1571 96.5561 12.4699 97.2132 9.44989C97.87 6.4299 99.4832 4.21939 100.814 4.51416C102.147 4.80868 102.694 7.49613 102.037 10.5161Z" fill="#FF394B"/>
<path d="M112.912 28.4829L110.685 27.9924L111.259 25.3587C111.361 24.8919 111.067 24.4289 110.602 24.3271L92.4712 20.3349C91.4661 20.1137 90.8311 19.1165 91.0514 18.1092L93.0046 9.16272C93.2249 8.15341 94.2178 7.51572 95.2209 7.73696L99.8999 8.76682C100.291 9.53433 100.086 10.4708 99.4129 11.0047L95.985 10.2496C95.5204 10.1475 95.0594 10.4433 94.9577 10.9096L93.5535 17.3417C93.4521 17.8084 93.7461 18.2697 94.2109 18.3733L112.342 22.3654C113.347 22.5867 113.982 23.5838 113.762 24.5911L112.912 28.4829Z" fill="#C0BAEF"/>
<path d="M101.686 189.689L90.4421 191.962H88.0833C88.0833 191.962 87.9958 178.494 86.7269 167.484C85.4425 156.242 85.917 149.296 80.7592 138.071C78.3815 132.894 63.5576 129.024 53.3468 121.652C52.8724 121.334 52.3962 120.98 51.939 120.609C44.8261 115.006 46.0245 104.88 47.2727 103.447C49.9856 100.354 73.3129 77.4132 79.1569 90.0322C85.3015 103.305 90.829 111.224 99.4565 128.775C106.849 143.852 104.291 179.968 101.686 189.689Z" fill="#2457C6"/>
<path d="M90.8034 148.946C88.7449 141.867 84.6498 135.497 79.6208 130.205C76.6316 127.054 73.2919 124.329 69.7223 121.905C65.1863 118.826 59.7367 114.994 60.6139 108.313C60.9987 105.388 58.5365 103.537 58.1328 103.503C54.141 103.095 53.8626 113.428 53.3888 116.418C53.1075 118.224 53.0902 120.011 53.3356 121.745C63.5327 129.126 78.3366 133.001 80.7112 138.186C85.8621 149.425 85.3882 156.379 86.6706 167.636C87.9378 178.66 88.0254 192.146 88.0254 192.146H90.381C90.6439 189.934 90.4687 187.455 90.5922 185.758C90.9614 180.96 91.3477 176.147 91.7169 171.334C92.2973 163.795 92.9478 156.308 90.8034 148.946Z" fill="#0A2C76"/>
<path d="M23.1377 219.896L29.8902 218.863C34.7349 212.734 48.4416 176.393 50.3272 159.7C53.2501 133.776 59.3885 107.855 59.5471 101.028C59.5641 99.9318 54.2204 98.7796 54.2204 98.7796C47.8963 91.0516 39.9323 86.6307 35.1581 86.0643C33.2726 85.8345 31.8998 86.2059 31.2992 87.1972C29.3621 90.4508 27.8465 93.4573 26.6663 96.286C18.9672 114.642 25.4516 125.73 25.3106 149.603C25.2573 160.69 24.4831 172.556 21.7165 184.458C19.2151 195.262 23.1377 219.896 23.1377 219.896Z" fill="#2457C6"/>
<path d="M69.6788 29.2156C69.6788 29.2156 73.5757 31.137 74.4595 37.1086C75.3434 43.0801 75.7993 59.3654 75.0016 65.6461C74.6615 68.333 73.7895 70.5205 73.7895 70.5205L69.8687 63.6555C69.8687 63.6555 66.2379 60.5455 66.8129 59.1838C67.3879 57.8239 69.6788 29.2156 69.6788 29.2156Z" fill="#FF5675"/>
<path d="M24.5773 70.2104C24.9637 83.2555 26.1423 95.3635 27.0756 97.3797C28.113 99.5894 41.3373 100.118 53.9517 98.1548C66.5662 96.2109 78.5722 91.7764 79.153 90.0086C78.0791 83.6629 72.8182 75.2836 72.2377 66.4453C72.0626 63.6523 72.5022 59.1797 72.9249 54.2648C73.8562 43.6778 74.6843 31.0554 68.913 28.7231C68.4906 28.5645 68.0866 28.4039 67.6812 28.2623C65.958 27.6083 64.2674 27.1143 62.6147 26.7431C62.5974 26.7431 62.5974 26.7243 62.5974 26.7243C55.7712 25.1518 49.5603 25.6109 44.229 27.0074C40.7637 27.8911 37.6676 29.1825 35.0286 30.579C33.3397 31.4629 31.8431 32.3813 30.5598 33.2651C29.6973 33.8484 28.9224 34.3975 28.2541 34.9276C24.7354 37.6498 24.1031 54.6016 24.5773 70.2104Z" fill="#FF8989"/>
<path d="M57.496 20.2919V25.962C57.496 25.962 58.8282 28.4198 57.496 28.6873C54.5655 29.2774 50.3369 25.9655 50.3369 25.9655V17.3096L57.496 20.2919Z" fill="#FF4F5C"/>
<path d="M50.3369 19.9085V17.7676C50.3369 17.7676 52.778 21.304 56.2643 21.5007C56.2643 21.5007 53.2343 21.8327 50.3369 19.9085Z" fill="#FF394B"/>
<path d="M59.2124 5.76978C59.2124 5.76978 61.8682 11.1263 62.5323 16.1178C63.0028 19.6611 56.4821 24.3364 51.1701 19.3464C45.8584 14.3564 47.3333 6.72261 47.3333 6.72261L59.2124 5.76978Z" fill="#FF4F5C"/>
<path d="M24.5302 70.235C24.8654 81.6607 25.8165 92.3607 26.6778 96.1985C26.8018 96.7653 26.9256 97.1709 27.0306 97.4197C27.5069 98.4459 30.6811 97.9345 34.9595 98.6945C39.8191 99.5789 53.7426 100.444 54.1829 100.373C66.3869 98.1797 78.589 91.7597 79.153 90.0445C78.0782 83.6951 72.8128 75.3111 72.2317 66.4677C72.0564 63.6731 72.4965 59.198 72.9195 54.2803L72.689 53.6447C72.689 53.6447 71.0694 51.1507 70.4881 48.3388C69.9085 45.5439 69.9773 34.1184 67.6713 28.263C65.9467 27.6086 64.2545 27.1143 62.6004 26.7429C62.8289 27.308 64.3783 36.8769 64.079 47.5959C64.0618 48.2318 63.6045 48.7446 62.9872 48.8325C61.2263 49.0814 57.634 49.5409 55.151 49.4701C54.5887 49.4528 54.1294 49.0987 53.9542 48.5685C52.7745 44.8184 47.7739 29.5722 44.1988 27.0074C42.3674 27.4684 40.6428 28.0508 39.0401 28.7053C37.5958 29.2892 36.2406 29.9265 34.9905 30.581C34.9905 30.581 44.9554 43.563 43.406 52.6188C41.9634 61.1962 26.186 69.3849 24.5302 70.235Z" fill="#2457C6"/>
<path d="M23.788 221.087C23.5958 214.119 23.63 207.134 24.3854 200.203C25.3001 191.716 27.6547 183.759 30.5722 175.768C35.2471 162.895 38.3929 150.182 37.4953 136.337C37.0045 128.803 34.631 121.818 33.5944 114.428C32.927 109.653 33.9101 105.074 34.6669 100.441C35.0702 97.8077 35.4222 95.1554 35.3516 92.4324C35.2815 90.2029 35.1408 88.0636 35.1236 86.0122C35.036 80.6386 35.6675 75.7931 40.1847 71.3363C44.0856 67.4822 47.5488 64.2999 48.8137 58.7293C51.3965 47.5364 45.352 37.4762 38.9902 28.7578C37.5485 29.3415 36.1963 29.9787 34.9484 30.6332C34.9484 30.6332 44.8938 43.6115 43.3475 52.6651C41.9077 61.24 26.1615 69.4267 24.5089 70.2762C24.8435 81.6989 25.7924 92.3962 26.6523 96.233C18.9724 114.587 25.4406 125.674 25.3001 149.545C25.2467 160.631 22.9899 172.243 21.7149 184.396C19.5747 204.772 21.8246 218.799 21.8246 218.799L23.788 221.087Z" fill="#0A2C76"/>
<path d="M68.6942 54.3101C68.6942 54.3101 58.3052 57.801 51.7048 56.0332C51.7048 56.0332 53.2225 68.1153 62.5436 66.6409C71.8626 65.1682 68.6942 54.3101 68.6942 54.3101Z" fill="#0A2C76"/>
<path d="M78.6042 88.0132C78.6042 88.0132 81.3152 91.1475 80.5753 93.8873C80.5753 93.8873 65.9056 105.948 25.3508 99.0948C25.3508 99.0948 25.387 94.3802 26.4309 93.2777C26.4309 93.2777 53.3632 97.4164 78.6042 88.0132Z" fill="#051C50"/>
<path d="M56.9508 94.2503C59.1096 93.645 61.2874 93.2202 63.4993 92.9532C63.868 94.1792 64.132 95.4206 64.2726 96.7003C64.3943 97.9609 64.4835 98.2627 63.2542 98.6701C62.587 98.9025 61.8309 98.9545 61.1295 99.0967C60.514 99.2215 59.2861 99.7174 58.6706 99.5772C57.7756 99.3636 57.7584 98.4586 57.5819 97.6939C57.3365 96.5582 57.1256 95.4035 56.9508 94.2503ZM55.0885 93.7164C55.3166 95.2784 55.5806 96.8236 55.9321 98.3512C56.1072 99.0967 56.2134 100.252 56.6868 100.909C57.1256 101.476 57.6008 101.512 58.2677 101.458C59.6359 101.387 61.1295 100.909 62.4808 100.642C64.1492 100.304 66.0096 100.34 66.0988 98.2453C66.2033 95.9546 65.7112 93.9468 64.9929 91.7809C64.7817 91.1239 64.1148 91.0719 63.5696 91.1602C60.7419 91.5868 58.3552 91.9405 55.8087 92.7051C55.3355 92.8284 55.0184 93.201 55.0885 93.7164Z" fill="#051C50"/>
<path d="M56.9026 94.2633C57.0774 95.4229 57.2882 96.584 57.5335 97.7261C57.71 98.495 57.7272 99.4051 58.622 99.6198C59.2374 99.7608 60.465 99.2621 61.0804 99.1366C61.7815 98.9937 62.5375 98.9414 63.2045 98.7077C64.4336 98.298 64.3444 97.9945 64.2227 96.727C64.0821 95.4401 63.8182 94.1918 63.4495 92.959C61.2382 93.2274 59.0609 93.6546 56.9026 94.2633Z" fill="#0A2C76"/>
<path d="M28.1777 35.014C28.1777 35.014 34.5526 39.5812 36.7758 42.1293C37.7065 39.7762 36.0383 34.1358 31.3108 32.7876C30.4458 33.3738 28.848 34.4799 28.1777 35.014Z" fill="#FF5675"/>
<path d="M17.3344 231.242C16.924 231.237 16.4895 231.227 16.1392 231.01C15.2429 230.46 15.478 229.114 15.7357 228.087C16.9634 223.163 19.0738 217.638 18.0812 212.661C23.9059 214.548 29.5777 216.061 36.7761 215.192C35.9105 218.978 33.8173 220.388 33.2592 221.113C42.3447 222.151 44.2457 227.649 44.8655 230.717C44.8655 230.717 26.2842 231.338 17.3344 231.242Z" fill="#051C50"/>
<path d="M88.9908 206.423C88.5788 206.418 88.1444 206.408 87.7927 206.191C86.8928 205.644 87.1289 204.303 87.3859 203.28C88.6201 198.376 87.6271 193.218 86.6306 188.263C93.3178 189.104 100.186 188.487 106.616 186.467C105.747 190.238 104.091 193.825 101.786 196.928C104.885 197.165 108.037 197.611 110.824 198.995C113.61 200.379 116.01 202.844 116.632 205.899C116.632 205.899 97.9776 206.518 88.9908 206.423Z" fill="#051C50"/>
<path d="M46.0719 12.3867C46.0355 12.3522 46.0041 12.1459 45.9155 11.9191C45.4123 10.6415 45.7693 9.19181 46.6742 8.19101C47.0587 7.7648 47.6278 7.81632 47.995 8.07934C48.0107 8.07786 48.021 8.07071 48.0367 8.06899C49.5596 7.95535 49.5613 9.7817 49.7702 10.786C50.1217 12.4711 51.178 14.4911 50.6456 16.2347C50.2906 17.3989 49.1437 18.1229 47.9254 17.7687C46.4549 17.3405 46.6099 15.9906 46.1104 14.8799C45.8127 14.218 45.5847 13.7502 45.7778 13.0057C45.8354 12.7821 45.9694 12.5862 46.0719 12.3867Z" fill="#051C50"/>
<path d="M56.6982 16.125C57.3586 15.8775 57.7213 15.0423 58.4867 15.0202C58.569 15.0168 58.6338 15.0559 58.7056 15.0746C58.8475 15.0746 58.9912 15.0982 59.1383 15.1711C59.3538 15.2797 59.578 15.3642 59.8058 15.4405C60.079 15.4998 60.3522 15.5525 60.6184 15.6693C61.6816 16.142 61.1299 17.5571 60.0124 17.3027C59.571 17.2029 59.1647 17.0535 58.7652 16.8859C58.7197 16.8706 58.6742 16.8538 58.6285 16.8385C58.2398 17.1181 57.9367 17.5197 57.4445 17.7026C56.374 18.1041 55.6174 16.53 56.6982 16.125Z" fill="#0A2C76"/>
<path d="M37.1981 45.4263C37.1981 45.4263 37.8848 54.5154 32.1783 59.8913C26.4737 65.2674 24.3478 67.2779 24.3478 67.2779L24.4861 70.3374C24.4861 70.3374 32.9758 64.4617 35.1898 60.4238C37.4039 56.3839 38.4901 52.0261 37.1981 45.4263Z" fill="#FF5675"/>
<path d="M49.1636 138.801H49.1532V104.224H82.9813V138.801H82.971C82.9761 138.818 82.983 138.836 82.983 138.851C82.983 139.815 75.4103 142.506 66.0673 142.506C56.7262 142.506 49.1515 139.815 49.1515 138.851C49.1515 138.836 49.1601 138.818 49.1636 138.801Z" fill="#7099F4"/>
<path d="M49.1515 104.178C49.1515 104.265 49.2115 104.351 49.3265 104.432C49.3626 104.464 49.4124 104.489 49.4603 104.518C49.5635 104.575 49.6836 104.624 49.8278 104.68C49.9188 104.71 50.0219 104.749 50.13 104.779C50.1969 104.799 50.2639 104.816 50.336 104.836C50.523 104.892 50.7341 104.942 50.9642 104.984C51.1924 105.033 51.4466 105.084 51.7195 105.127C52.0938 105.188 52.5041 105.252 52.9505 105.306C53.3984 105.37 53.8807 105.419 54.3889 105.474C55.5717 105.592 56.9141 105.691 58.387 105.772C59.1184 105.809 59.8855 105.841 60.677 105.872C61.4736 105.902 62.2958 105.922 63.1352 105.934H63.2312C63.6776 105.939 64.1189 105.952 64.5789 105.959C65.0733 105.964 65.5625 105.964 66.0638 105.964C69.4454 105.964 72.5989 105.86 75.2393 105.68C77.8846 105.499 80.0235 105.239 81.3763 104.942C81.8945 104.823 82.293 104.705 82.5659 104.575C82.8371 104.451 82.983 104.314 82.983 104.178C82.983 103.688 81.0913 103.242 78.0288 102.912C74.9661 102.59 70.733 102.392 66.0638 102.392C61.3946 102.392 57.1664 102.59 54.1057 102.912C51.0484 103.242 49.1515 103.688 49.1515 104.178Z" fill="#1D0B44"/>
<path d="M50.7341 104.302C50.65 104.277 50.5658 104.259 50.4922 104.24C50.4201 104.215 50.348 104.196 50.288 104.178C50.8784 104.004 52.0215 103.757 54.1709 103.533C57.3416 103.198 61.5644 103.011 66.0638 103.011C70.5649 103.011 74.7912 103.198 77.9636 103.533C80.1197 103.762 81.2611 104.004 81.8534 104.178C81.6954 104.228 81.4963 104.277 81.2493 104.333C79.9258 104.631 77.8297 104.88 75.2031 105.06C72.4788 105.245 69.3202 105.345 66.0638 105.345C65.5694 105.345 65.0733 105.345 64.5909 105.338C64.2097 105.331 63.8356 105.326 63.4665 105.319C63.3582 105.314 63.2553 105.314 63.1471 105.314C61.5095 105.289 59.9217 105.232 58.4178 105.151C56.9742 105.077 55.6386 104.979 54.449 104.855C53.9408 104.804 53.4705 104.749 53.0293 104.693C52.5951 104.636 52.1849 104.575 51.8157 104.513C51.5564 104.469 51.3076 104.427 51.0843 104.376C50.9574 104.351 50.8422 104.326 50.7341 104.302ZM49.1515 104.178C49.1515 104.265 49.2115 104.351 49.3265 104.432C49.3626 104.457 49.4124 104.488 49.4603 104.513C49.5635 104.57 49.6836 104.624 49.8278 104.68C49.9188 104.711 50.0217 104.749 50.13 104.779C50.1969 104.799 50.2639 104.816 50.336 104.836C50.523 104.892 50.7341 104.942 50.9642 104.984C51.1924 105.033 51.4466 105.084 51.7195 105.127C52.0936 105.188 52.5041 105.252 52.9502 105.307C53.3984 105.37 53.8807 105.419 54.3889 105.474C55.5717 105.592 56.9141 105.691 58.387 105.772C59.1182 105.809 59.8855 105.841 60.677 105.872C61.4736 105.902 62.2956 105.922 63.1352 105.934H63.2312C63.6776 105.939 64.1189 105.952 64.5789 105.959C65.0733 105.964 65.5625 105.964 66.0638 105.964C69.4454 105.964 72.5989 105.86 75.2393 105.68C77.8846 105.499 80.0235 105.24 81.3763 104.942C81.8945 104.823 82.293 104.705 82.5659 104.575C82.8371 104.451 82.983 104.314 82.983 104.178C82.983 103.688 81.0913 103.242 78.0288 102.912C74.9661 102.59 70.733 102.392 66.0638 102.392C61.3944 102.392 57.1664 102.59 54.1057 102.912C51.0482 103.242 49.1515 103.688 49.1515 104.178Z" fill="#BDA9FF"/>
<path d="M50.1156 109.973C50.1156 110.284 50.3619 110.533 50.6632 110.533C50.9694 110.533 51.2177 110.284 51.2177 109.973V109.262C51.2177 108.902 51.5121 108.605 51.8681 108.605C52.2292 108.605 52.5234 108.902 52.5234 109.262V124.47C52.5234 124.793 52.6502 125.084 52.8605 125.298C53.0659 125.504 53.3554 125.639 53.6736 125.639C54.3119 125.639 54.8304 125.115 54.8304 124.47V123.813C54.8304 123.308 55.2325 122.9 55.7322 122.9C56.232 122.9 56.6358 123.308 56.6358 123.813V128.272C56.6358 128.637 56.7813 128.965 57.0227 129.202C57.257 129.446 57.5824 129.593 57.9435 129.593C58.6587 129.593 59.2441 129.002 59.2441 128.272V111.75C59.2441 111.3 59.6052 110.934 60.05 110.934C60.4899 110.934 60.8511 111.3 60.8511 111.75V115.132C60.8511 115.728 61.3268 116.209 61.9173 116.209C62.4956 116.209 62.9713 115.74 62.9765 115.156C62.9765 115.156 63.211 105.83 63.1938 105.813C59.8395 105.757 56.7318 105.593 54.3784 105.361C53.3603 105.259 52.4635 105.144 51.7175 105.021C51.175 104.929 50.5057 104.784 50.1328 104.682C49.9873 104.694 50.1156 109.973 50.1156 109.973Z" fill="#FF8989"/>
<path d="M50.0634 104.704L51.6111 105.205C53.887 105.94 56.2716 106.249 58.6527 106.118L63.213 105.866H63.2318L63.4683 105.247C63.3595 105.242 63.2561 105.242 63.1475 105.242C61.5013 105.217 59.9053 105.16 58.3937 105.079C56.9427 105.004 55.6003 104.905 54.4045 104.781C53.8937 104.729 53.421 104.674 52.9775 104.617C52.5412 104.561 52.1288 104.499 51.7578 104.437C51.4971 104.392 51.247 104.35 51.0226 104.298C50.895 104.274 50.7795 104.249 50.6706 104.224L50.0634 104.704Z" fill="#FF7373"/>
<path d="M82.5271 104.315H80.9152V100.199C80.9152 91.949 74.2338 85.2366 66.0234 85.2366C57.8092 85.2366 51.1281 91.949 51.1281 100.199V104.315H49.5162V100.199C49.5162 91.0566 56.9209 83.6172 66.0234 83.6172C75.1241 83.6172 82.5271 91.0566 82.5271 100.199V104.315Z" fill="#BDA9FF"/>
<mask id="mask0_123_26022" style="mask-type:luminance" maskUnits="userSpaceOnUse" x="0" y="35" width="56" height="64">
<path d="M0 35.5366H55.519V98.7686H0V35.5366Z" fill="#FF4F5C"/>
</mask>
<g mask="url(#mask0_123_26022)">
<path d="M9.87718 98.0197C23.1814 100.99 40.0118 94.4295 48.4872 90.487C51.8361 88.914 53.8788 87.7467 53.8788 87.7467C54.0389 87.1803 55.5189 80.8149 55.5189 80.8149C54.7788 80.6542 33.2969 83.7314 22.8476 83.1479C20.5742 83.0061 18.8122 82.6885 17.9137 82.1411C16.7315 81.416 21.6311 70.9991 25.2619 67.499C26.8833 65.9431 28.592 64.4045 30.072 63.1127C33.667 59.9661 36.2569 55.7577 37.0674 51.0349C37.8608 46.5087 37.2085 42.6887 36.1156 39.7013C34.6013 35.5447 29.3681 34.2182 25.9487 37.0125C19.3749 42.3882 16.0276 45.2359 7.79841 55.0499C7.76215 55.1032 7.71059 55.1378 7.67432 55.1913C-2.72147 67.5332 -3.09326 95.1205 9.87718 98.0197Z" fill="#FF4F5C"/>
</g>
<mask id="mask1_123_26022" style="mask-type:luminance" maskUnits="userSpaceOnUse" x="0" y="54" width="49" height="45">
<path d="M0 54.9819H48.4185V98.7686H0V54.9819Z" fill="#FF394B"/>
</mask>
<g mask="url(#mask1_123_26022)">
<path d="M9.86315 98.0188C23.1485 100.993 39.955 94.4245 48.4184 90.4775C48.2243 90.0351 47.7328 89.6805 46.8528 89.5216C44.3715 89.0427 40.4465 90.8493 37.9307 91.3629C34.2171 92.1409 30.4693 92.8324 26.7212 93.3095C22.5506 93.8594 18.0807 94.4954 13.8928 93.9648C7.80459 93.1868 5.78002 88.0885 5.64083 82.5992C5.41073 74.3681 7.27689 66.8962 10.6727 59.4793C11.0077 59.4255 11.3066 59.1784 11.3411 58.7169C11.5179 55.7085 9.82866 54.8408 7.78734 54.9999C7.75113 55.0532 7.69964 55.0879 7.66343 55.1415C-2.7176 67.4975 -3.08887 95.1163 9.86315 98.0188Z" fill="#FF394B"/>
</g>
<path d="M37.5959 50.5178C38.2499 46.3277 36.9608 36.2158 31.7806 35.008C23.4815 33.0725 12.3935 45.1991 4.74188 54.3537C8.25374 62.3265 15.9554 67.9026 25.2753 70.4289C26.767 68.9928 36.1574 59.7277 37.5959 50.5178Z" fill="#FF8989"/>
<path d="M51.1233 85.6608C51.4183 86.8854 52.4245 86.5978 53.3676 87.1316C54.5178 87.7809 56.7038 91.4715 58.2589 91.4009C60.335 91.3061 56.8203 88.6971 58.0291 88.2424C58.4612 88.0789 62.9462 92.6547 62.4593 89.5479C62.3529 88.8626 60.0059 86.3462 61.2471 86.5615C62.3925 87.4466 64.6947 89.7872 65.5847 88.6418C66.0047 88.1031 64.796 86.5857 64.0741 86.0225C60.5098 83.2343 62.6854 83.9179 64.9572 85.926C66.1333 86.9681 67.1361 86.4805 66.4196 84.9134C64.9331 81.6618 60.2903 80.3115 57.0931 80.3201C55.7421 80.3236 50.4632 82.9242 51.1233 85.6608Z" fill="#FF4F5C"/>
<path d="M59.7799 80.5536C60.3606 80.4163 61.0969 80.1938 61.5429 79.7686C62.2755 79.0698 61.4408 78.626 60.7323 78.583C59.4343 78.5044 56.7956 80.0189 55.7241 80.646C55.5824 80.7283 57.6545 81.124 58.1936 81.0417C58.7206 80.9631 59.2512 80.6769 59.7799 80.5536Z" fill="#FF4F5C"/>
<path d="M135.986 233.965C134.061 233.694 132.72 231.902 132.99 229.969L150.751 102.966C151.02 101.032 152.807 99.6761 154.727 99.956C156.653 100.227 157.994 102.017 157.724 103.952L139.963 230.954C139.716 232.721 138.208 234 136.482 234C136.318 234 136.153 233.99 135.986 233.965Z" fill="#ABDBE2"/>
<path d="M79.7222 233.965C77.7966 233.694 76.4555 231.902 76.7254 229.969L94.4864 102.966C94.7581 101.032 96.5375 99.6761 98.463 99.956C100.389 100.227 101.73 102.017 101.46 103.952L83.699 230.954C83.4515 232.721 81.9435 234 80.2174 234C80.0539 234 79.889 233.99 79.7222 233.965Z" fill="#ABDBE2"/>
<mask id="mask2_123_26022" style="mask-type:luminance" maskUnits="userSpaceOnUse" x="0" y="0" width="177" height="234">
<path d="M0 233.98H176.996V0H0V233.98Z" fill="#ABDBE2"/>
</mask>
<g mask="url(#mask2_123_26022)">
<path d="M83.1236 213.074H139.64V206H83.1236V213.074Z" fill="#ABDBE2"/>
</g>
<mask id="mask3_123_26022" style="mask-type:luminance" maskUnits="userSpaceOnUse" x="0" y="0" width="177" height="234">
<path d="M0 233.98H176.996V0H0V233.98Z" fill="#ABDBE2"/>
</mask>
<g mask="url(#mask3_123_26022)">
<path d="M86.7153 187.408H143.231V180.334H86.7153V187.408Z" fill="#ABDBE2"/>
</g>
<mask id="mask4_123_26022" style="mask-type:luminance" maskUnits="userSpaceOnUse" x="0" y="0" width="177" height="234">
<path d="M0 233.98H176.996V0H0V233.98Z" fill="#ABDBE2"/>
</mask>
<g mask="url(#mask4_123_26022)">
<path d="M90.3071 161.74H146.821V154.666H90.3071V161.74Z" fill="#ABDBE2"/>
</g>
<mask id="mask5_123_26022" style="mask-type:luminance" maskUnits="userSpaceOnUse" x="0" y="0" width="177" height="234">
<path d="M0 233.98H176.996V0H0V233.98Z" fill="#ABDBE2"/>
</mask>
<g mask="url(#mask5_123_26022)">
<path d="M93.8969 136.074H150.413V129H93.8969V136.074Z" fill="#ABDBE2"/>
</g>
<mask id="mask6_123_26022" style="mask-type:luminance" maskUnits="userSpaceOnUse" x="0" y="0" width="177" height="234">
<path d="M0 233.98H176.996V0H0V233.98Z" fill="#C0BAEF"/>
</mask>
<g mask="url(#mask6_123_26022)">
<path d="M97.4886 110.407H154.003V103.333H97.4886V110.407Z" fill="#C0BAEF"/>
</g>
<mask id="mask7_123_26022" style="mask-type:luminance" maskUnits="userSpaceOnUse" x="0" y="0" width="177" height="234">
<path d="M0 233.98H176.996V0H0V233.98Z" fill="#CBE8ED"/>
</mask>
<g mask="url(#mask7_123_26022)">
<path d="M117.206 233.98C115.48 233.98 113.972 232.702 113.724 230.935L95.9634 103.989C95.6935 102.055 97.0347 100.265 98.9604 99.9946C100.9 99.7148 102.667 101.07 102.937 103.003L120.698 229.951C120.968 231.883 119.627 233.675 117.701 233.946C117.534 233.97 117.369 233.98 117.206 233.98Z" fill="#CBE8ED"/>
</g>
<mask id="mask8_123_26022" style="mask-type:luminance" maskUnits="userSpaceOnUse" x="0" y="0" width="177" height="234">
<path d="M0 233.98H176.996V0H0V233.98Z" fill="#CBE8ED"/>
</mask>
<g mask="url(#mask8_123_26022)">
<path d="M173.469 233.98C171.743 233.98 170.235 232.702 169.988 230.935L152.227 103.989C151.957 102.055 153.298 100.265 155.224 99.9946C157.149 99.7148 158.931 101.07 159.2 103.003L176.961 229.951C177.231 231.883 175.89 233.675 173.964 233.946C173.798 233.97 173.633 233.98 173.469 233.98Z" fill="#CBE8ED"/>
</g>
<mask id="mask9_123_26022" style="mask-type:luminance" maskUnits="userSpaceOnUse" x="0" y="0" width="177" height="234">
<path d="M0 233.98H176.996V0H0V233.98Z" fill="#CBE8ED"/>
</mask>
<g mask="url(#mask9_123_26022)">
<path d="M114.034 213.074H170.55V206H114.034V213.074Z" fill="#CBE8ED"/>
</g>
<mask id="mask10_123_26022" style="mask-type:luminance" maskUnits="userSpaceOnUse" x="0" y="0" width="177" height="234">
<path d="M0 233.98H176.996V0H0V233.98Z" fill="#CBE8ED"/>
</mask>
<g mask="url(#mask10_123_26022)">
<path d="M110.442 187.408H166.958V180.334H110.442V187.408Z" fill="#CBE8ED"/>
</g>
<mask id="mask11_123_26022" style="mask-type:luminance" maskUnits="userSpaceOnUse" x="0" y="0" width="177" height="234">
<path d="M0 233.98H176.996V0H0V233.98Z" fill="#CBE8ED"/>
</mask>
<g mask="url(#mask11_123_26022)">
<path d="M106.852 161.74H163.368V154.666H106.852V161.74Z" fill="#CBE8ED"/>
</g>
<mask id="mask12_123_26022" style="mask-type:luminance" maskUnits="userSpaceOnUse" x="0" y="0" width="177" height="234">
<path d="M0 233.98H176.996V0H0V233.98Z" fill="#CBE8ED"/>
</mask>
<g mask="url(#mask12_123_26022)">
<path d="M103.26 136.074H159.777V129H103.26V136.074Z" fill="#CBE8ED"/>
</g>
<mask id="mask13_123_26022" style="mask-type:luminance" maskUnits="userSpaceOnUse" x="0" y="0" width="177" height="234">
<path d="M0 233.98H176.996V0H0V233.98Z" fill="#DBDBFF"/>
</mask>
<g mask="url(#mask13_123_26022)">
<path d="M99.6705 110.407H156.185V103.333H99.6705V110.407Z" fill="#DBDBFF"/>
</g>
<mask id="mask14_123_26022" style="mask-type:luminance" maskUnits="userSpaceOnUse" x="0" y="0" width="177" height="234">
<path d="M0 233.98H176.996V0H0V233.98Z" fill="#93D2D9"/>
</mask>
<g mask="url(#mask14_123_26022)">
<path d="M156.587 115.206H94.3783C91.0118 115.206 88.285 112.465 88.285 109.086V96.0204C88.285 92.6405 91.0118 89.8997 94.3783 89.8997H156.587C159.952 89.8997 162.68 92.6405 162.68 96.0204V109.086C162.68 112.465 159.952 115.206 156.587 115.206Z" fill="#93D2D9"/>
</g>
<mask id="mask15_123_26022" style="mask-type:luminance" maskUnits="userSpaceOnUse" x="0" y="0" width="177" height="234">
<path d="M0 233.98H176.996V0H0V233.98Z" fill="#ABDBE2"/>
</mask>
<g mask="url(#mask15_123_26022)">
<path d="M162.976 115.206H100.765C97.401 115.206 94.6724 112.465 94.6724 109.086V96.0204C94.6724 92.6405 97.401 89.8997 100.765 89.8997H162.976C166.341 89.8997 169.068 92.6405 169.068 96.0204V109.086C169.068 112.465 166.341 115.206 162.976 115.206Z" fill="#ABDBE2"/>
</g>
<mask id="mask16_123_26022" style="mask-type:luminance" maskUnits="userSpaceOnUse" x="0" y="0" width="177" height="234">
<path d="M0 233.98H176.996V0H0V233.98Z" fill="#FF4F5C"/>
</mask>
<g mask="url(#mask16_123_26022)">
<path d="M111.286 47.0997C110.889 46.9184 110.258 46.3398 110.528 45.7456C110.561 45.673 110.605 45.6144 110.655 45.5624C110.358 45.5366 110.064 45.4641 109.787 45.3205C109.206 45.0184 108.449 44.1895 109.173 43.4658C109.459 43.1791 109.818 42.9978 110.206 42.8735C109.687 42.6163 109.29 42.153 109.201 41.3986C109.07 40.2951 109.825 39.9769 110.635 39.8873C109.93 39.5367 108.958 38.8286 109.737 37.9771C110.176 37.4988 110.984 37.3089 111.527 37.1413C112.318 36.8979 113.109 36.7771 113.908 36.7407C113.937 36.7407 113.967 36.7473 113.996 36.7545C114.087 36.6991 114.212 36.6887 114.329 36.7699C115.038 37.269 115.622 38.4332 114.685 39.2C114.45 39.3934 114.178 39.5642 113.888 39.711C114.608 39.8182 115.186 40.1361 115.15 40.9495C115.11 41.8079 114.371 42.3553 113.556 42.6871C113.569 42.6992 113.587 42.7059 113.599 42.7198C113.862 43.0169 114.214 43.4053 114.085 43.908C113.984 44.2984 113.624 44.5609 113.27 44.7629C113.353 44.799 113.422 44.8577 113.444 44.9424C113.829 46.3916 112.474 47.6416 111.286 47.0997Z" fill="#FF4F5C"/>
</g>
<mask id="mask17_123_26022" style="mask-type:luminance" maskUnits="userSpaceOnUse" x="0" y="0" width="177" height="234">
<path d="M0 233.98H176.996V0H0V233.98Z" fill="#FF4F5C"/>
</mask>
<g mask="url(#mask17_123_26022)">
<path d="M109.158 38.7597C109.187 39.4262 108.697 39.9704 108.219 40.2155C107.191 40.7424 106.489 40.2776 105.808 42.0031C105.613 42.4971 104.99 45.7299 104.772 46.2152C104.125 47.6539 103.646 49.1669 103.178 50.3844C102.191 47.3674 102.702 40.9962 103.336 39.5143C103.647 38.7802 104.072 38.2293 104.748 37.9582C105.697 37.5784 106.984 37.6492 107.97 37.7371C108.54 37.7888 109.123 37.9651 109.158 38.7597Z" fill="#FF4F5C"/>
</g>
<mask id="mask18_123_26022" style="mask-type:luminance" maskUnits="userSpaceOnUse" x="0" y="0" width="177" height="234">
<path d="M0 233.98H176.996V0H0V233.98Z" fill="#051C50"/>
</mask>
<g mask="url(#mask18_123_26022)">
<path d="M48.854 8.24406C48.854 8.24406 46.8287 9.12301 45.7506 10.3699C45.7506 10.3699 44.1174 2.09387 51.2146 0.637781C58.3121 -0.818061 61.3931 4.46333 59.8491 7.10241C59.8491 7.10241 58.0971 4.38558 48.854 8.24406Z" fill="#051C50"/>
</g>
<mask id="mask19_123_26022" style="mask-type:luminance" maskUnits="userSpaceOnUse" x="0" y="0" width="177" height="234">
<path d="M0 233.98H176.996V0H0V233.98Z" fill="#2457C6"/>
</mask>
<g mask="url(#mask19_123_26022)">
<path d="M48.854 8.24428C48.854 8.24428 54.686 5.12858 56.5169 3.68115C61.0061 0.132167 63.4253 0.280723 64.094 3.03543C65.2754 7.89864 60.5385 8.73451 60.5385 8.73451C60.5385 8.73451 58.8656 5.04737 48.854 8.24428Z" fill="#2457C6"/>
</g>
<mask id="mask20_123_26022" style="mask-type:luminance" maskUnits="userSpaceOnUse" x="0" y="0" width="177" height="234">
<path d="M0 233.98H176.996V0H0V233.98Z" fill="#683EDA"/>
</mask>
<g mask="url(#mask20_123_26022)">
<path d="M50.2449 0.68469C50.2673 0.289286 50.5612 -0.0182239 50.9052 0.000840741C51.2491 0.0181722 51.5104 0.354897 51.4897 0.75055C51.4689 1.14769 51.1734 1.45495 50.8296 1.43588C50.4872 1.4188 50.2242 1.08183 50.2449 0.68469Z" fill="#683EDA"/>
</g>
</g>
<defs>
<clipPath id="clip0_123_26022">
<rect width="177" height="234" fill="white"/>
</clipPath>
</defs>
</svg>
