<svg width="27" height="27" viewBox="0 0 27 27" fill="none" xmlns="http://www.w3.org/2000/svg">
<g clip-path="url(#clip0_44_2265)">
<path d="M23.6824 10.125H23.5744C23.4161 10.1236 23.2619 10.0746 23.1318 9.98426C23.0018 9.89396 22.902 9.76659 22.8454 9.61875C22.7858 9.47599 22.77 9.31873 22.8001 9.16697C22.8301 9.01522 22.9046 8.87584 23.0141 8.76656L23.0909 8.68978C23.5537 8.22517 23.8136 7.59608 23.8136 6.94027C23.8136 6.28445 23.5537 5.65536 23.0909 5.19075L21.816 3.91669C21.3517 3.45349 20.7227 3.19335 20.0669 3.19335C19.4111 3.19335 18.7821 3.45349 18.3178 3.91669L18.241 3.99347C18.1279 4.10241 17.9854 4.17596 17.8311 4.20509C17.6768 4.23422 17.5173 4.21766 17.3723 4.15746C17.2272 4.09725 17.1029 3.99601 17.0146 3.86616C16.9262 3.73631 16.8777 3.58349 16.875 3.42647V3.31763C16.8743 2.66172 16.6135 2.03287 16.1497 1.56907C15.6859 1.10527 15.057 0.84442 14.4011 0.84375H12.5989C11.943 0.84442 11.3141 1.10527 10.8503 1.56907C10.3865 2.03287 10.1257 2.66172 10.125 3.31763V3.42647C10.1209 3.58237 10.0717 3.73373 9.98331 3.86224C9.89494 3.99074 9.77122 4.09087 9.62712 4.15051C9.48303 4.21015 9.32473 4.22674 9.17139 4.19827C9.01806 4.1698 8.87627 4.09749 8.76319 3.99009L8.69063 3.91331C8.22637 3.45011 7.59734 3.18998 6.94153 3.18998C6.28572 3.18998 5.65669 3.45011 5.19244 3.91331L3.91331 5.18737C3.45047 5.65199 3.1906 6.28108 3.1906 6.93689C3.1906 7.5927 3.45047 8.22179 3.91331 8.68641L3.99009 8.76319C4.10067 8.87632 4.17468 9.02008 4.20252 9.17581C4.23035 9.33154 4.21073 9.49204 4.14619 9.63647C4.08829 9.78033 3.9888 9.90365 3.86045 9.99068C3.73209 10.0777 3.5807 10.1245 3.42562 10.125H3.31763C2.66172 10.1257 2.03287 10.3865 1.56907 10.8503C1.10527 11.3141 0.84442 11.943 0.84375 12.5989V14.4011C0.84442 15.057 1.10527 15.6859 1.56907 16.1497C2.03287 16.6135 2.66172 16.8743 3.31763 16.875H3.42562C3.58393 16.8764 3.73814 16.9254 3.86817 17.0157C3.9982 17.106 4.09802 17.2334 4.15462 17.3813C4.21422 17.524 4.23 17.6813 4.19995 17.833C4.1699 17.9848 4.09538 18.1242 3.98587 18.2334L3.90909 18.3102C3.44625 18.7748 3.18638 19.4039 3.18638 20.0597C3.18638 20.7155 3.44625 21.3446 3.90909 21.8092L5.18316 23.0825C5.64734 23.5461 6.27659 23.8066 6.93267 23.8066C7.58876 23.8066 8.21801 23.5461 8.68219 23.0825L8.75897 23.0057C8.87216 22.8952 9.01592 22.8213 9.17162 22.7934C9.32732 22.7656 9.48779 22.7852 9.63225 22.8496C9.77611 22.9072 9.89947 23.0066 9.98651 23.1348C10.0736 23.263 10.1203 23.4143 10.1208 23.5693V23.6782C10.1206 24.0036 10.1845 24.326 10.309 24.6267C10.4334 24.9275 10.6159 25.2008 10.8461 25.4309C11.0763 25.6611 11.3495 25.8436 11.6503 25.9681C11.951 26.0925 12.2734 26.1565 12.5989 26.1562H14.4011C15.057 26.1556 15.6859 25.8947 16.1497 25.4309C16.6135 24.9671 16.8743 24.3383 16.875 23.6824V23.5735C16.8791 23.4176 16.9283 23.2663 17.0167 23.1378C17.1051 23.0093 17.2288 22.9091 17.3729 22.8495C17.517 22.7898 17.6753 22.7733 17.8286 22.8017C17.9819 22.8302 18.1237 22.9025 18.2368 23.0099L18.3136 23.0867C18.7778 23.5499 19.4069 23.81 20.0627 23.81C20.7185 23.81 21.3475 23.5499 21.8118 23.0867L23.0867 21.8135C23.5495 21.3489 23.8094 20.7198 23.8094 20.064C23.8094 19.4081 23.5495 18.7791 23.0867 18.3144L23.0099 18.2377C22.8993 18.1245 22.8253 17.9808 22.7975 17.825C22.7696 17.6693 22.7893 17.5088 22.8538 17.3644C22.9116 17.2204 23.011 17.0969 23.1394 17.0097C23.2677 16.9225 23.4192 16.8756 23.5744 16.875H23.6824C24.3383 16.8743 24.9671 16.6135 25.4309 16.1497C25.8947 15.6859 26.1556 15.057 26.1562 14.4011V12.5989C26.1556 11.943 25.8947 11.3141 25.4309 10.8503C24.9671 10.3865 24.3383 10.1257 23.6824 10.125ZM24.4688 14.4011C24.4685 14.6096 24.3856 14.8095 24.2382 14.9569C24.0908 15.1044 23.8909 15.1873 23.6824 15.1875H23.5744C23.0847 15.1917 22.6072 15.3399 22.2012 15.6136C21.7952 15.8874 21.4788 16.2746 21.2914 16.7269C21.104 17.1793 21.0539 17.6768 21.1473 18.1575C21.2407 18.6381 21.4736 19.0807 21.8168 19.4299L21.8928 19.5067C22.0401 19.6544 22.1228 19.8545 22.1228 20.0631C22.1228 20.2717 22.0401 20.4718 21.8928 20.6196L20.6179 21.8928C20.4704 22.0402 20.2704 22.1231 20.0618 22.1231C19.8533 22.1231 19.6533 22.0402 19.5058 21.8928L19.4299 21.816C19.0805 21.4732 18.638 21.2407 18.1575 21.1474C17.677 21.0542 17.1797 21.1044 16.7274 21.2918C16.2752 21.4791 15.8881 21.7953 15.6143 22.201C15.3405 22.6068 15.1921 23.0841 15.1875 23.5735V23.6824C15.1873 23.8909 15.1044 24.0908 14.9569 24.2382C14.8095 24.3856 14.6096 24.4685 14.4011 24.4688H12.5989C12.3904 24.4685 12.1905 24.3856 12.0431 24.2382C11.8956 24.0908 11.8127 23.8909 11.8125 23.6824V23.5735C11.8101 23.0831 11.663 22.6043 11.3895 22.1971C11.116 21.79 10.7284 21.4727 10.2752 21.2851C9.82207 21.0974 9.3236 21.0478 8.84236 21.1424C8.36111 21.237 7.91852 21.4716 7.57013 21.8168L7.49334 21.8936C7.34565 22.0407 7.14573 22.1232 6.93731 22.1232C6.7289 22.1232 6.52897 22.0407 6.38128 21.8936L5.10722 20.6204C4.95991 20.4727 4.87719 20.2726 4.87719 20.064C4.87719 19.8553 4.95991 19.6552 5.10722 19.5075L5.184 19.4307C5.52757 19.0815 5.76069 18.6388 5.85426 18.158C5.94784 17.6771 5.89773 17.1793 5.71018 16.7267C5.52264 16.2742 5.20597 15.8868 4.79968 15.6131C4.3934 15.3394 3.9155 15.1913 3.42562 15.1875H3.31763C3.10913 15.1873 2.90925 15.1044 2.76182 14.9569C2.6144 14.8095 2.53147 14.6096 2.53125 14.4011V12.5989C2.53147 12.3904 2.6144 12.1905 2.76182 12.0431C2.90925 11.8956 3.10913 11.8127 3.31763 11.8125H3.42562C3.91526 11.8083 4.39284 11.6601 4.79882 11.3864C5.20479 11.1126 5.52121 10.7254 5.70862 10.2731C5.89603 9.82069 5.94613 9.32316 5.85269 8.84251C5.75925 8.36185 5.52639 7.91933 5.18316 7.57013L5.10722 7.49334C4.95996 7.34576 4.87726 7.14579 4.87726 6.93731C4.87726 6.72883 4.95996 6.52886 5.10722 6.38128L6.38128 5.10638C6.52875 4.95891 6.72876 4.87607 6.93731 4.87607C7.14586 4.87607 7.34587 4.95891 7.49334 5.10638L7.56928 5.18316C7.91855 5.52623 8.36103 5.75897 8.84162 5.85237C9.32221 5.94578 9.81965 5.89573 10.272 5.70846C10.7243 5.52119 11.1116 5.20498 11.3855 4.7992C11.6595 4.39343 11.8079 3.91603 11.8125 3.42647V3.31763C11.8127 3.10913 11.8956 2.90925 12.0431 2.76182C12.1905 2.6144 12.3904 2.53147 12.5989 2.53125H14.4011C14.6096 2.53147 14.8095 2.6144 14.9569 2.76182C15.1044 2.90925 15.1873 3.10913 15.1875 3.31763V3.42647C15.1918 3.91603 15.3401 4.39349 15.614 4.79935C15.8878 5.2052 16.275 5.52148 16.7273 5.70879C17.1797 5.89609 17.6771 5.94613 18.1577 5.85266C18.6383 5.75919 19.0807 5.52635 19.4299 5.18316L19.5067 5.10638C19.6541 4.95891 19.8541 4.87607 20.0627 4.87607C20.2712 4.87607 20.4712 4.95891 20.6187 5.10638L21.8928 6.38128C22.04 6.52886 22.1227 6.72883 22.1227 6.93731C22.1227 7.14579 22.04 7.34576 21.8928 7.49334L21.816 7.57013C21.4727 7.91939 21.2398 8.36198 21.1464 8.84271C21.053 9.32344 21.1032 9.82104 21.2907 10.2734C21.4782 10.7258 21.7948 11.113 22.2009 11.3867C22.607 11.6604 23.0847 11.8085 23.5744 11.8125H23.6824C23.8909 11.8127 24.0908 11.8956 24.2382 12.0431C24.3856 12.1905 24.4685 12.3904 24.4688 12.5989V14.4011Z" fill="black"/>
<path d="M13.5 7.59375C12.3319 7.59375 11.1899 7.94015 10.2187 8.58913C9.24739 9.23812 8.49037 10.1605 8.04334 11.2398C7.59631 12.319 7.47935 13.5066 7.70724 14.6523C7.93513 15.798 8.49765 16.8503 9.32365 17.6763C10.1497 18.5024 11.202 19.0649 12.3478 19.2928C13.4935 19.5207 14.681 19.4037 15.7602 18.9567C16.8395 18.5096 17.7619 17.7526 18.4109 16.7813C19.0599 15.8101 19.4063 14.6681 19.4063 13.5C19.4045 11.9341 18.7816 10.4329 17.6744 9.32562C16.5671 8.21837 15.0659 7.59554 13.5 7.59375ZM13.5 17.7188C12.6656 17.7188 11.85 17.4713 11.1562 17.0078C10.4624 16.5442 9.92169 15.8853 9.60239 15.1144C9.28308 14.3436 9.19953 13.4953 9.36231 12.677C9.5251 11.8586 9.92689 11.1069 10.5169 10.5169C11.1069 9.92689 11.8586 9.52509 12.677 9.36231C13.4953 9.19953 14.3436 9.28308 15.1144 9.60238C15.8853 9.92169 16.5442 10.4624 17.0078 11.1562C17.4713 11.85 17.7188 12.6656 17.7188 13.5C17.7174 14.6185 17.2725 15.6907 16.4816 16.4816C15.6908 17.2725 14.6185 17.7174 13.5 17.7188Z" fill="black"/>
</g>
<defs>
<clipPath id="clip0_44_2265">
<rect width="27" height="27" fill="white"/>
</clipPath>
</defs>
</svg>
