<svg width="87" height="68" viewBox="0 0 87 68" fill="none" xmlns="http://www.w3.org/2000/svg">
<g clip-path="url(#clip0_131_38983)">
<mask id="mask0_131_38983" style="mask-type:luminance" maskUnits="userSpaceOnUse" x="69" y="22" width="18" height="18">
<path d="M86.8984 30.7943C86.8984 35.4904 83.0844 39.2973 78.3806 39.2973C73.6755 39.2973 69.8628 35.4904 69.8628 30.7943C69.8628 26.0982 73.6755 22.2913 78.3806 22.2913C83.0844 22.2913 86.8984 26.0982 86.8984 30.7943Z" fill="url(#paint0_linear_131_38983)"/>
</mask>
<g mask="url(#mask0_131_38983)">
<path fill-rule="evenodd" clip-rule="evenodd" d="M86.8984 30.7943C86.8984 35.4904 83.0844 39.2973 78.3806 39.2973C73.6755 39.2973 69.8628 35.4904 69.8628 30.7943C69.8628 26.0982 73.6755 22.2913 78.3806 22.2913C83.0844 22.2913 86.8984 26.0982 86.8984 30.7943Z" fill="url(#paint1_linear_131_38983)"/>
</g>
<mask id="mask1_131_38983" style="mask-type:luminance" maskUnits="userSpaceOnUse" x="26" y="38" width="14" height="30">
<path d="M39.6136 67.0247C35.3376 67.0247 31.0615 67.0247 26.7854 67.0247C25.7055 57.507 25.8296 47.8761 27.159 38.3585C30.4687 38.3585 33.7771 38.3585 37.0868 38.3585C36.6802 47.8761 37.5225 57.507 39.6136 67.0247Z" fill="url(#paint2_linear_131_38983)"/>
</mask>
<g mask="url(#mask1_131_38983)">
<path fill-rule="evenodd" clip-rule="evenodd" d="M39.6136 67.0247C35.3376 67.0247 31.0615 67.0247 26.7854 67.0247C25.7055 57.507 25.8296 47.8761 27.159 38.3585C30.4687 38.3585 33.7771 38.3585 37.0868 38.3585C36.6802 47.8761 37.5225 57.507 39.6136 67.0247Z" fill="url(#paint3_linear_131_38983)"/>
</g>
<mask id="mask2_131_38983" style="mask-type:luminance" maskUnits="userSpaceOnUse" x="40" y="1" width="41" height="59">
<path d="M78.7083 59.8584C66.3303 51.4333 53.4281 44.3807 40.2104 38.7396C40.4864 33.5716 40.493 28.392 40.2303 23.2236C53.4558 17.4935 66.3553 10.3152 78.7083 1.73004C81.6523 20.9862 81.6523 40.6023 78.7083 59.8584Z" fill="url(#paint4_linear_131_38983)"/>
</mask>
<g mask="url(#mask2_131_38983)">
<path fill-rule="evenodd" clip-rule="evenodd" d="M78.7083 59.8584C66.3303 51.4333 53.4281 44.3807 40.2104 38.7396C40.4864 33.5716 40.493 28.392 40.2303 23.2236C53.4558 17.4935 66.3553 10.3152 78.7083 1.73004C81.6523 20.9862 81.6523 40.6023 78.7083 59.8584Z" fill="url(#paint5_linear_131_38983)"/>
</g>
<mask id="mask3_131_38983" style="mask-type:luminance" maskUnits="userSpaceOnUse" x="74" y="1" width="7" height="59">
<path d="M78.7079 1.73004C77.228 2.75848 75.7402 3.76609 74.2444 4.75406C76.6088 22.0468 76.6062 39.5984 74.2378 56.8906C75.7349 57.8604 77.2254 58.8493 78.7079 59.8584C81.6519 40.6023 81.6519 20.9862 78.7079 1.73004Z" fill="url(#paint6_linear_131_38983)"/>
</mask>
<g mask="url(#mask3_131_38983)">
<path fill-rule="evenodd" clip-rule="evenodd" d="M78.7079 1.73004C77.228 2.75848 75.7402 3.76609 74.2444 4.75406C76.6088 22.0468 76.6062 39.5984 74.2378 56.8906C75.7349 57.8604 77.2254 58.8493 78.7079 59.8584C81.6519 40.6023 81.6519 20.9862 78.7079 1.73004Z" fill="url(#paint7_linear_131_38983)"/>
</g>
<mask id="mask4_131_38983" style="mask-type:luminance" maskUnits="userSpaceOnUse" x="17" y="24" width="10" height="14">
<path d="M23.0559 24.3469H20.4987C18.8537 24.3469 17.519 25.6785 17.519 27.3211V34.2674C17.519 35.9101 18.8537 37.2416 20.4987 37.2416H23.0559C24.7022 37.2416 26.0355 35.9101 26.0355 34.2674V27.3211C26.0355 25.6785 24.7022 24.3469 23.0559 24.3469Z" fill="url(#paint8_linear_131_38983)"/>
</mask>
<g mask="url(#mask4_131_38983)">
<path fill-rule="evenodd" clip-rule="evenodd" d="M23.0559 24.3469H20.4987C18.8537 24.3469 17.519 25.6785 17.519 27.3211V34.2674C17.519 35.9101 18.8537 37.2416 20.4987 37.2416H23.0559C24.7022 37.2416 26.0355 35.9101 26.0355 34.2674V27.3211C26.0355 25.6785 24.7022 24.3469 23.0559 24.3469Z" fill="url(#paint9_linear_131_38983)"/>
</g>
<mask id="mask5_131_38983" style="mask-type:luminance" maskUnits="userSpaceOnUse" x="21" y="20" width="24" height="22">
<path d="M42.2063 20.5206H23.6049C22.4854 20.5206 21.5771 21.4272 21.5771 22.5455V39.0431C21.5771 40.1614 22.4854 41.0681 23.6049 41.0681H42.2063C43.3271 41.0681 44.2341 40.1614 44.2341 39.0431V22.5455C44.2341 21.4272 43.3271 20.5206 42.2063 20.5206Z" fill="url(#paint10_linear_131_38983)"/>
</mask>
<g mask="url(#mask5_131_38983)">
<path fill-rule="evenodd" clip-rule="evenodd" d="M42.2063 20.5206H23.6049C22.4854 20.5206 21.5771 21.4272 21.5771 22.5455V39.0431C21.5771 40.1614 22.4854 41.0681 23.6049 41.0681H42.2063C43.3271 41.0681 44.2341 40.1614 44.2341 39.0431V22.5455C44.2341 21.4272 43.3271 20.5206 42.2063 20.5206Z" fill="url(#paint11_linear_131_38983)"/>
</g>
<path fill-rule="evenodd" clip-rule="evenodd" d="M26.7498 8.59121L25.1484 8.15158L25.9907 5.09448L26.969 5.36306L26.7498 8.59121Z" fill="#EFBC90"/>
<path fill-rule="evenodd" clip-rule="evenodd" d="M29.1997 4.31105C29.1245 5.64021 28.5766 6.85077 27.7409 6.91679C26.9594 6.97886 25.9112 5.95873 25.6881 4.56288C25.4517 3.0935 26.0115 2.19698 27.1667 2.12292C28.3918 2.04425 29.2829 2.85405 29.1997 4.31105Z" fill="#F4CAAB"/>
<path fill-rule="evenodd" clip-rule="evenodd" d="M27.0425 4.2624C27.3 3.77744 27.8109 3.65106 28.1964 3.60757C28.5832 3.56421 29.209 3.73619 29.2855 3.45826C29.3634 3.18033 29.205 2.14966 27.6247 1.88095C26.1937 1.63768 25.2999 2.43839 24.9421 3.46155C24.6306 4.35676 25.1573 5.38545 25.8715 5.24682C26.5858 5.10831 26.731 4.84949 27.0425 4.2624Z" fill="#03053E"/>
<path fill-rule="evenodd" clip-rule="evenodd" d="M26.9687 4.69017C27.003 4.92646 26.871 5.14113 26.6743 5.16973C26.4762 5.19833 26.2888 5.02991 26.2545 4.79362C26.2201 4.5572 26.3521 4.34253 26.5489 4.31393C26.7469 4.28547 26.9343 4.45375 26.9687 4.69017Z" fill="#F4CAAB"/>
<path fill-rule="evenodd" clip-rule="evenodd" d="M27.5617 0.521221C27.798 1.13006 27.4666 2.09366 26.7102 2.38753C25.9537 2.68128 25.0573 2.19394 24.8197 1.58524C24.5834 0.976532 25.1392 0.592911 25.8969 0.299035C26.6534 0.0052912 27.3241 -0.087484 27.5617 0.521221Z" fill="#03053E"/>
<path fill-rule="evenodd" clip-rule="evenodd" d="M34.4227 15.944C34.4081 16.2346 33.9553 16.5685 33.3361 16.6136C32.7645 16.6553 32.3883 16.3313 32.3843 16.0375C32.3777 15.3814 34.4451 15.4948 34.4227 15.944Z" fill="#EFBC90"/>
<path fill-rule="evenodd" clip-rule="evenodd" d="M35.0891 19.156L34.9743 19.1346L26.7231 17.6109L25.2709 17.3429L24.9092 20.4629L26.3838 20.5326L33.5419 20.8706L30.6454 27.8185L30.5068 28.1494L31.1114 28.4451L31.2883 28.1335L35.6819 20.4291C35.7281 20.3483 35.7624 20.2558 35.7809 20.1596C35.8667 19.6918 35.5578 19.2424 35.0891 19.156Z" fill="#EFBC90"/>
<path fill-rule="evenodd" clip-rule="evenodd" d="M35.8895 19.5867L35.7839 19.5674L26.6297 17.8851L25.1788 17.6182L24.8013 20.7166L26.2746 20.8046L34.8162 21.3151L35.2848 30.1167L35.3033 30.4744L35.9806 30.4767L36.0017 30.119L36.5799 20.4667C36.605 20.0471 36.3133 19.6647 35.8895 19.5867Z" fill="#EFBC90"/>
<mask id="mask6_131_38983" style="mask-type:luminance" maskUnits="userSpaceOnUse" x="23" y="16" width="14" height="12">
<path d="M27.8073 16.8835C28.8542 18.5672 35.0736 17.9847 35.9687 19.2207C37.1647 20.8695 32.2524 27.2419 32.2524 27.2419L30.618 26.3307C30.618 26.3307 33.1224 21.8232 33.0207 21.4999C32.8926 21.089 26.0673 22.0622 24.2204 20.5065C22.7866 19.2983 23.4956 16.8835 23.4956 16.8835H27.8073Z" fill="url(#paint12_linear_131_38983)"/>
</mask>
<g mask="url(#mask6_131_38983)">
<path fill-rule="evenodd" clip-rule="evenodd" d="M27.8073 16.8835C28.8542 18.5672 35.0736 17.9847 35.9687 19.2207C37.1647 20.8695 32.2524 27.2419 32.2524 27.2419L30.618 26.3307C30.618 26.3307 33.1224 21.8232 33.0207 21.4999C32.8926 21.089 26.0673 22.0622 24.2204 20.5065C22.7866 19.2983 23.4956 16.8835 23.4956 16.8835H27.8073Z" fill="url(#paint13_linear_131_38983)"/>
</g>
<mask id="mask7_131_38983" style="mask-type:luminance" maskUnits="userSpaceOnUse" x="23" y="16" width="15" height="13">
<path d="M27.3199 16.8835C28.2335 18.9517 35.6516 18.1877 36.7037 19.9907C37.5526 21.4452 36.68 28.8297 36.68 28.8297L34.7182 28.7764C34.7182 28.7764 34.7288 22.4895 34.3446 22.0627C34.0621 21.749 26.1859 22.4735 24.2201 21.0699C22.5382 19.8682 23.4953 16.8835 23.4953 16.8835H27.3199Z" fill="url(#paint14_linear_131_38983)"/>
</mask>
<g mask="url(#mask7_131_38983)">
<path fill-rule="evenodd" clip-rule="evenodd" d="M27.3199 16.8835C28.2335 18.9517 35.6516 18.1877 36.7037 19.9907C37.5526 21.4452 36.68 28.8297 36.68 28.8297L34.7182 28.7764C34.7182 28.7764 34.7288 22.4895 34.3446 22.0627C34.0621 21.749 26.1859 22.4735 24.2201 21.0699C22.5382 19.8682 23.4953 16.8835 23.4953 16.8835H27.3199Z" fill="url(#paint15_linear_131_38983)"/>
</g>
<path fill-rule="evenodd" clip-rule="evenodd" d="M26.9703 9.26109L28.0859 15.607L27.5551 15.1527L32.2101 15.4977L32.6326 15.5289L32.5969 16.3484L32.1731 16.3428L27.505 16.2814C27.2489 16.278 27.035 16.0969 26.9822 15.8566L25.4204 8.84465L26.8475 8.56158L26.9703 9.26109Z" fill="#EFBC90"/>
<mask id="mask8_131_38983" style="mask-type:luminance" maskUnits="userSpaceOnUse" x="24" y="8" width="8" height="9">
<path d="M24.7731 9.40878C24.6623 10.9277 25.6458 14.8734 27.1983 16.2305C28.1198 17.0364 31.1879 16.4951 31.1879 16.4951L31.3371 15.2996C31.3371 15.2996 29.0426 15.6446 28.5172 14.3129C27.9931 12.9813 27.6617 9.34526 26.8868 8.79071C26.2029 8.30219 24.822 8.72653 24.7731 9.40878Z" fill="url(#paint16_linear_131_38983)"/>
</mask>
<g mask="url(#mask8_131_38983)">
<path fill-rule="evenodd" clip-rule="evenodd" d="M24.7731 9.40878C24.6623 10.9277 25.6458 14.8734 27.1983 16.2305C28.1198 17.0364 31.1879 16.4951 31.1879 16.4951L31.3371 15.2996C31.3371 15.2996 29.0426 15.6446 28.5172 14.3129C27.9931 12.9813 27.6617 9.34526 26.8868 8.79071C26.2029 8.30219 24.822 8.72653 24.7731 9.40878Z" fill="url(#paint17_linear_131_38983)"/>
</g>
<path fill-rule="evenodd" clip-rule="evenodd" d="M25.514 8.00385C25.514 8.00385 26.3602 8.79415 27.2474 8.31446C27.2474 8.31446 27.4415 11.4989 27.7887 12.8068C28.1359 14.1148 29.1696 17.5553 29.1696 17.5553L22.8406 17.3494C22.7667 14.4455 23.9707 11.1889 25.514 8.00385Z" fill="#DBC6AF"/>
<mask id="mask9_131_38983" style="mask-type:luminance" maskUnits="userSpaceOnUse" x="22" y="7" width="8" height="11">
<path d="M25.2209 7.73358C25.2209 7.73358 22.0485 12.1512 22.5079 16.9882C22.5079 16.9882 22.2174 17.9259 25.6539 17.9087C29.0903 17.8913 29.3015 17.4246 29.3015 17.4246C28.2995 14.8041 27.551 11.8509 27.2473 8.31448C27.2473 8.31448 25.9628 8.31988 25.2209 7.73358Z" fill="url(#paint18_linear_131_38983)"/>
</mask>
<g mask="url(#mask9_131_38983)">
<path fill-rule="evenodd" clip-rule="evenodd" d="M25.2209 7.73358C25.2209 7.73358 22.0485 12.1512 22.5079 16.9882C22.5079 16.9882 22.2174 17.9259 25.6539 17.9087C29.0903 17.8913 29.3015 17.4246 29.3015 17.4246C28.2995 14.8041 27.551 11.8509 27.2473 8.31448C27.2473 8.31448 25.9628 8.31988 25.2209 7.73358Z" fill="url(#paint19_linear_131_38983)"/>
</g>
<path fill-rule="evenodd" clip-rule="evenodd" d="M26.2411 10.2501C25.7791 10.9736 25.3262 11.7299 24.9091 12.4866C24.7005 12.8661 24.4998 13.2486 24.315 13.6334C24.1302 14.0174 23.9599 14.4067 23.8331 14.7848C23.8028 14.8798 23.7763 14.97 23.7513 15.0628L23.68 15.3697C23.6351 15.5784 23.5928 15.7883 23.5546 16.0014C23.4767 16.427 23.4093 16.8582 23.346 17.2911C23.2232 18.1569 23.1176 19.0328 23.0278 19.9031L22.9856 20.324L22.1631 20.2672L22.1829 19.8446C22.2225 18.9524 22.2793 18.068 22.3545 17.1778C22.3928 16.7329 22.4377 16.2875 22.4918 15.8395C22.5195 15.6156 22.5525 15.3902 22.5869 15.164L22.6463 14.8215C22.6714 14.6988 22.7004 14.5754 22.7321 14.4583C22.8628 13.9904 23.0278 13.5604 23.2034 13.1375C23.3803 12.7156 23.5704 12.3049 23.7671 11.8987C24.1618 11.0857 24.5777 10.3003 25.0279 9.50988L25.379 8.89221L26.6253 9.65168L26.2411 10.2501Z" fill="#F4CAAB"/>
<mask id="mask10_131_38983" style="mask-type:luminance" maskUnits="userSpaceOnUse" x="22" y="8" width="5" height="12">
<path d="M24.8142 8.7412C23.6762 9.7558 22.9422 12.1413 22.389 14.1256C21.8372 16.11 22.0801 19.1705 22.0801 19.1705L23.3277 19.2805C23.3277 19.2805 23.5363 16.1856 24.0868 14.8649C24.6386 13.5442 26.9344 10.7016 26.7628 9.76449C26.6123 8.93887 25.3251 8.28523 24.8142 8.7412Z" fill="url(#paint20_linear_131_38983)"/>
</mask>
<g mask="url(#mask10_131_38983)">
<path fill-rule="evenodd" clip-rule="evenodd" d="M24.8142 8.7412C23.6762 9.7558 22.9422 12.1413 22.389 14.1256C21.8372 16.11 22.0801 19.1705 22.0801 19.1705L23.3277 19.2805C23.3277 19.2805 23.5363 16.1856 24.0868 14.8649C24.6386 13.5442 26.9344 10.7016 26.7628 9.76449C26.6123 8.93887 25.3251 8.28523 24.8142 8.7412Z" fill="url(#paint21_linear_131_38983)"/>
</g>
<path fill-rule="evenodd" clip-rule="evenodd" d="M22.1424 22.7649C21.8599 22.695 21.6526 22.0176 21.7754 21.1624C21.8876 20.374 22.31 19.9141 22.6005 19.961C23.25 20.0659 22.5807 22.8728 22.1424 22.7649Z" fill="#F4CAAB"/>
<path fill-rule="evenodd" clip-rule="evenodd" d="M22.9779 21.676C23.1047 21.6566 23.2182 21.325 23.1931 20.8849C23.1694 20.479 23.0004 20.2221 22.871 20.2295C22.5819 20.2459 22.7825 21.7059 22.9779 21.676Z" fill="#F4CAAB"/>
<path fill-rule="evenodd" clip-rule="evenodd" d="M38.5826 30.8451L38.069 30.7539V30.7542L36.1904 30.0283V30.0435C36.1904 30.0435 36.168 30.3648 35.7785 30.4253C35.4907 30.4698 35.3046 30.3934 35.2254 30.35C35.2069 30.3329 35.1924 30.3233 35.1831 30.3233C35.0577 30.3233 34.9561 30.5279 34.9561 30.7805C34.9561 30.8636 34.9679 30.9411 34.9864 31.0081V31.3589H38.7278V31.0036C38.7278 30.9211 38.6644 30.8525 38.5826 30.8451Z" fill="white"/>
<path fill-rule="evenodd" clip-rule="evenodd" d="M32.8095 30.3458L32.461 29.9584V29.9586L31.4286 28.2325L31.4193 28.2445C31.4193 28.2445 31.2028 28.4837 30.8583 28.2917C30.6035 28.1503 30.5044 27.9756 30.4688 27.8932C30.4648 27.8683 30.4596 27.8512 30.453 27.846C30.3539 27.7689 30.1467 27.8678 29.9909 28.0669C29.9407 28.1323 29.9011 28.2003 29.8747 28.2648L29.6582 28.5413L32.6075 30.84L32.8266 30.56C32.8768 30.4951 32.8702 30.4022 32.8095 30.3458Z" fill="white"/>
<path fill-rule="evenodd" clip-rule="evenodd" d="M33.9038 15.4242C33.8682 15.3015 33.5236 15.2343 33.0893 15.3194C32.6906 15.3978 32.4582 15.601 32.4833 15.7279C32.5387 16.0114 33.9606 15.6138 33.9038 15.4242Z" fill="#EFBC90"/>
<path fill-rule="evenodd" clip-rule="evenodd" d="M39.4154 55.2949L36.581 55.0246C35.8232 53.3508 35.5869 52.082 35.8325 50.8012C36.0939 49.4275 37.8418 48.9492 39.0827 50.0289C40.2709 51.0634 39.9026 54.5753 39.4154 55.2949Z" fill="#03053E"/>
<path fill-rule="evenodd" clip-rule="evenodd" d="M37.978 55.9932L36.3872 55.8417L36.6776 52.8054L37.6493 52.8981L37.978 55.9932Z" fill="#EFBC90"/>
<path fill-rule="evenodd" clip-rule="evenodd" d="M39.5886 51.5321C39.7391 52.804 39.4196 54.0418 38.6394 54.2425C37.908 54.4307 36.7462 53.6375 36.3026 52.3518C35.8353 50.9984 36.2168 50.0564 37.2981 49.7952C38.4479 49.5178 39.4249 50.1379 39.5886 51.5321Z" fill="#F4CAAB"/>
<path fill-rule="evenodd" clip-rule="evenodd" d="M37.6926 49.4902C37.3309 49.4557 37.0801 49.4645 36.7566 49.5943C36.2378 49.8032 35.5262 50.3525 35.2635 51.7263C35.0193 53.0071 35.4774 53.6891 34.2549 54.8026L37.088 55.0729C37.5329 54.4166 37.0246 52.8009 36.9322 52.5223C37.0365 52.2694 37.1659 51.9933 37.6002 51.9186C38.531 51.7581 39.364 50.9726 39.3904 50.6967C39.4168 50.4207 38.6603 49.5824 37.6926 49.4902Z" fill="#03053E"/>
<path fill-rule="evenodd" clip-rule="evenodd" d="M37.4113 52.1064C37.4852 52.3239 37.3981 52.5501 37.2159 52.6115C37.035 52.6728 36.8278 52.546 36.7539 52.3285C36.6799 52.1108 36.7671 51.8847 36.9492 51.8234C37.1301 51.7621 37.3374 51.8888 37.4113 52.1064Z" fill="#F4CAAB"/>
<path fill-rule="evenodd" clip-rule="evenodd" d="M48.9234 57.467L48.8284 57.5366L42.0163 62.5174L40.8188 63.3938L42.8585 65.8108L43.9266 64.7807L49.1136 59.781L52.212 66.693L52.3599 67.0222L52.9936 66.7847L52.8879 66.4398L50.2661 57.912C50.2383 57.8229 50.1948 57.7335 50.1367 57.654C49.8542 57.2679 49.3103 57.184 48.9234 57.467Z" fill="#EFBC90"/>
<path fill-rule="evenodd" clip-rule="evenodd" d="M49.5583 58.2868L49.4646 58.34L41.3442 62.9976L40.0557 63.736L41.7864 66.3584L49.862 60.3101L55.9612 66.7591L56.2094 67.0214L56.7296 66.5836L56.5131 66.2952L50.662 58.5133C50.4085 58.1747 49.9346 58.0707 49.5583 58.2868Z" fill="#EFBC90"/>
<mask id="mask11_131_38983" style="mask-type:luminance" maskUnits="userSpaceOnUse" x="39" y="56" width="14" height="11">
<path d="M42.2315 61.2223C44.1894 61.6192 48.0536 56.6708 49.5784 56.8684C51.6128 57.132 52.8986 65.1204 52.8986 65.1204L51.1019 65.6868C51.1019 65.6868 49.5229 60.7458 49.2153 60.5963C48.8259 60.4066 44.831 66.0677 42.4151 66.3443C40.5391 66.5591 39.2559 64.3751 39.2559 64.3751L42.2315 61.2223Z" fill="url(#paint22_linear_131_38983)"/>
</mask>
<g mask="url(#mask11_131_38983)">
<path fill-rule="evenodd" clip-rule="evenodd" d="M42.2315 61.2223C44.1894 61.6192 48.0536 56.6708 49.5784 56.8684C51.6128 57.132 52.8986 65.1204 52.8986 65.1204L51.1019 65.6868C51.1019 65.6868 49.5229 60.7458 49.2153 60.5963C48.8259 60.4066 44.831 66.0677 42.4151 66.3443C40.5391 66.5591 39.2559 64.3751 39.2559 64.3751L42.2315 61.2223Z" fill="url(#paint23_linear_131_38983)"/>
</g>
<mask id="mask12_131_38983" style="mask-type:luminance" maskUnits="userSpaceOnUse" x="38" y="58" width="19" height="10">
<path d="M41.2212 61.7801C43.2702 62.774 48.4638 57.3674 50.4467 58.0673C52.0467 58.632 56.1934 64.8645 56.1934 64.8645L54.6528 66.0988C54.6528 66.0988 50.5615 61.2679 49.9873 61.1901C49.5661 61.1329 43.9949 66.8065 41.5724 67.0065C39.4971 67.1777 38.2852 64.2659 38.2852 64.2659L41.2212 61.7801Z" fill="url(#paint24_linear_131_38983)"/>
</mask>
<g mask="url(#mask12_131_38983)">
<path fill-rule="evenodd" clip-rule="evenodd" d="M41.2212 61.7801C43.2702 62.774 48.4638 57.3674 50.4467 58.0673C52.0467 58.632 56.1934 64.8645 56.1934 64.8645L54.6528 66.0988C54.6528 66.0988 50.5615 61.2679 49.9873 61.1901C49.5661 61.1329 43.9949 66.8065 41.5724 67.0065C39.4971 67.1777 38.2852 64.2659 38.2852 64.2659L41.2212 61.7801Z" fill="url(#paint25_linear_131_38983)"/>
</g>
<path fill-rule="evenodd" clip-rule="evenodd" d="M38.2126 56.2179L42.1798 61.2148L41.492 61.0671L45.706 59.177L46.0954 59.0026L46.4572 59.7441L46.0796 59.9422L41.991 62.089C41.7613 62.2094 41.4867 62.1514 41.323 61.9645L41.3032 61.9412L36.6416 56.5917L37.7677 55.6578L38.2126 56.2179Z" fill="#EFBC90"/>
<mask id="mask13_131_38983" style="mask-type:luminance" maskUnits="userSpaceOnUse" x="36" y="55" width="10" height="8">
<path d="M36.3619 57.3887C36.9838 58.7618 39.7865 61.6824 41.7787 62.1321C42.9615 62.3991 45.2917 60.5323 45.2917 60.5323L44.8573 59.4218C44.8573 59.4218 43.0223 60.803 41.9371 59.8913C40.8519 58.9796 38.8452 55.9725 37.9079 55.8556C37.0828 55.7525 36.0821 56.7717 36.3619 57.3887Z" fill="url(#paint26_linear_131_38983)"/>
</mask>
<g mask="url(#mask13_131_38983)">
<path fill-rule="evenodd" clip-rule="evenodd" d="M36.3619 57.3887C36.9838 58.7618 39.7865 61.6824 41.7787 62.1321C42.9615 62.3991 45.2917 60.5323 45.2917 60.5323L44.8573 59.4218C44.8573 59.4218 43.0223 60.803 41.9371 59.8913C40.8519 58.9796 38.8452 55.9725 37.9079 55.8556C37.0828 55.7525 36.0821 56.7717 36.3619 57.3887Z" fill="url(#paint27_linear_131_38983)"/>
</g>
<path fill-rule="evenodd" clip-rule="evenodd" d="M36.5044 55.9478C36.5044 55.9478 37.6437 56.1974 38.1639 55.3274C38.1639 55.3274 39.9712 57.9823 40.9455 58.9356C41.9198 59.8889 44.5865 62.3343 44.5865 62.3343L39.0048 65.4036C37.4457 62.93 36.8107 59.4948 36.5044 55.9478Z" fill="#76D3F4"/>
<mask id="mask14_131_38983" style="mask-type:luminance" maskUnits="userSpaceOnUse" x="36" y="55" width="9" height="11">
<path d="M36.1597 55.804C36.1597 55.804 35.6897 61.2531 38.577 65.202C38.577 65.202 38.808 66.1623 41.7718 64.384C44.7356 62.6056 44.6788 62.0932 44.6788 62.0932C42.4622 60.3408 40.2945 58.1701 38.2099 55.2672C38.2099 55.2672 37.1023 55.9309 36.1597 55.804Z" fill="url(#paint28_linear_131_38983)"/>
</mask>
<g mask="url(#mask14_131_38983)">
<path fill-rule="evenodd" clip-rule="evenodd" d="M36.1597 55.804C36.1597 55.804 35.6897 61.2531 38.577 65.202C38.577 65.202 38.808 66.1623 41.7718 64.384C44.7356 62.6056 44.6788 62.0932 44.6788 62.0932C42.4622 60.3408 40.2945 58.1701 38.2099 55.2672C38.2099 55.2672 37.1023 55.9309 36.1597 55.804Z" fill="url(#paint29_linear_131_38983)"/>
</g>
<path fill-rule="evenodd" clip-rule="evenodd" d="M38.6589 57.025L42.333 62.3703L41.6583 62.1753L46.0638 60.5516L46.4638 60.4042L46.774 61.1693L46.3833 61.3408L42.0848 63.2293C41.8471 63.3335 41.5765 63.2565 41.4273 63.0588L41.4088 63.0344L37.4971 57.8597L37.0654 57.2894L38.2536 56.4357L38.6589 57.025Z" fill="#F4CAAB"/>
<mask id="mask15_131_38983" style="mask-type:luminance" maskUnits="userSpaceOnUse" x="36" y="56" width="10" height="8">
<path d="M36.7091 58.0757C37.2438 59.5121 39.7706 62.7006 41.7588 63.2966C42.939 63.6503 45.5464 61.8906 45.5464 61.8906L45.1833 60.7336C45.1833 60.7336 43.2255 62.0061 42.1892 61.0052C41.1515 60.0043 39.1963 56.62 38.2537 56.4357C37.4233 56.2733 36.4688 57.4304 36.7091 58.0757Z" fill="url(#paint30_linear_131_38983)"/>
</mask>
<g mask="url(#mask15_131_38983)">
<path fill-rule="evenodd" clip-rule="evenodd" d="M36.7091 58.0757C37.2438 59.5121 39.7706 62.7006 41.7588 63.2966C42.939 63.6503 45.5464 61.8906 45.5464 61.8906L45.1833 60.7336C45.1833 60.7336 43.2255 62.0061 42.1892 61.0052C41.1515 60.0043 39.1963 56.62 38.2537 56.4357C37.4233 56.2733 36.4688 57.4304 36.7091 58.0757Z" fill="url(#paint31_linear_131_38983)"/>
</g>
<path fill-rule="evenodd" clip-rule="evenodd" d="M47.8103 58.3906C47.9449 58.6505 47.7192 59.1696 47.203 59.5215C46.7277 59.8459 46.2353 59.7545 46.0835 59.5003C45.7455 58.9328 47.6017 57.9886 47.8103 58.3906Z" fill="#EFBC90"/>
<path fill-rule="evenodd" clip-rule="evenodd" d="M47.1453 58.1146C47.0476 58.031 46.7202 58.1626 46.4007 58.4713C46.1063 58.7561 46.0231 59.0542 46.1129 59.1478C46.3162 59.3566 47.2971 58.2439 47.1453 58.1146Z" fill="#EFBC90"/>
<path fill-rule="evenodd" clip-rule="evenodd" d="M55.9153 66.7693L55.283 66.6641V66.6644L52.9674 65.798V65.8166C52.9674 65.8166 52.9436 66.2116 52.4657 66.291C52.1132 66.3497 51.8822 66.2582 51.7858 66.206C51.7634 66.1852 51.7435 66.1735 51.733 66.1736C51.5798 66.1753 51.4571 66.4281 51.461 66.7384C51.461 66.8403 51.4769 66.9353 51.5006 67.0174L51.5059 67.4484L56.1002 67.3985L56.0962 66.9621C56.0949 66.8609 56.017 66.7772 55.9153 66.7693Z" fill="#F2F2F2"/>
<path fill-rule="evenodd" clip-rule="evenodd" d="M59.671 67.0016L59.0386 66.8963V66.8967L56.7217 66.0304V66.0488C56.7217 66.0488 56.6979 66.4438 56.22 66.5233C55.8675 66.5819 55.6378 66.4904 55.5415 66.4383C55.5177 66.4176 55.4992 66.4057 55.4887 66.4058C55.3342 66.4076 55.2127 66.6605 55.2154 66.9707C55.2167 67.0725 55.2312 67.1677 55.2563 67.2498L55.2603 67.6807L59.8558 67.6308L59.8505 67.1943C59.8505 67.0932 59.7713 67.0095 59.671 67.0016Z" fill="white"/>
<mask id="mask16_131_38983" style="mask-type:luminance" maskUnits="userSpaceOnUse" x="45" y="55" width="6" height="6">
<path d="M50.8718 56.6424L48.5206 55.7786L48.5061 55.7772L48.2962 55.8083L48.2737 55.8264L47.3918 58.3438L47.376 58.3602L45.2413 59.2054L45.2373 59.206L45.2597 59.3569L45.2756 59.378L47.6902 60.4361L47.7113 60.4365L49.85 59.5903L49.9688 59.5439L49.986 59.5215L50.0045 59.3614L50.0058 59.356L50.8877 56.677C50.893 56.6629 50.885 56.6476 50.8718 56.6424Z" fill="url(#paint32_linear_131_38983)"/>
</mask>
<g mask="url(#mask16_131_38983)">
<path fill-rule="evenodd" clip-rule="evenodd" d="M50.8718 56.6424L48.5206 55.7786L48.5061 55.7772L48.2962 55.8083L48.2737 55.8264L47.3918 58.3438L47.376 58.3602L45.2413 59.2054L45.2373 59.206L45.2597 59.3569L45.2756 59.378L47.6902 60.4361L47.7113 60.4365L49.85 59.5903L49.9688 59.5439L49.986 59.5215L50.0045 59.3614L50.0058 59.356L50.8877 56.677C50.893 56.6629 50.885 56.6476 50.8718 56.6424Z" fill="url(#paint33_linear_131_38983)"/>
</g>
<path fill-rule="evenodd" clip-rule="evenodd" d="M50.5289 56.7137L48.4166 55.9515C48.3651 55.9291 48.3057 55.9556 48.2885 56.0084L47.4727 58.3157L49.8186 59.3451L50.6187 56.9139C50.6451 56.8342 50.6054 56.7474 50.5289 56.7137Z" fill="white"/>
<mask id="mask17_131_38983" style="mask-type:luminance" maskUnits="userSpaceOnUse" x="45" y="58" width="5" height="3">
<path d="M49.8568 59.439L47.388 58.3556L45.2388 59.2062L47.7075 60.2896L49.8568 59.439Z" fill="url(#paint34_linear_131_38983)"/>
</mask>
<g mask="url(#mask17_131_38983)">
<path fill-rule="evenodd" clip-rule="evenodd" d="M49.8568 59.439L47.388 58.3556L45.2388 59.2062L47.7075 60.2896L49.8568 59.439Z" fill="url(#paint35_linear_131_38983)"/>
</g>
<mask id="mask18_131_38983" style="mask-type:luminance" maskUnits="userSpaceOnUse" x="46" y="58" width="4" height="2">
<path d="M49.4121 59.4L47.4398 58.5264L46.4312 58.9098L48.4022 59.7834L49.4121 59.4Z" fill="url(#paint36_linear_131_38983)"/>
</mask>
<g mask="url(#mask18_131_38983)">
<path fill-rule="evenodd" clip-rule="evenodd" d="M49.4121 59.4L47.4398 58.5264L46.4312 58.9098L48.4022 59.7834L49.4121 59.4Z" fill="url(#paint37_linear_131_38983)"/>
</g>
<mask id="mask19_131_38983" style="mask-type:luminance" maskUnits="userSpaceOnUse" x="46" y="59" width="2" height="1">
<path d="M47.6377 59.5638L46.7981 59.1918L46.3677 59.3551L47.2073 59.7272L47.6377 59.5638Z" fill="url(#paint38_linear_131_38983)"/>
</mask>
<g mask="url(#mask19_131_38983)">
<path fill-rule="evenodd" clip-rule="evenodd" d="M47.6377 59.5638L46.7981 59.1918L46.3677 59.3551L47.2073 59.7272L47.6377 59.5638Z" fill="url(#paint39_linear_131_38983)"/>
</g>
<path fill-rule="evenodd" clip-rule="evenodd" d="M48.2341 60.005C48.3437 60.2765 48.0717 60.7721 47.5238 61.0742C47.0195 61.3528 46.539 61.2156 46.4109 60.9485C46.1284 60.3518 48.0638 59.5852 48.2341 60.005Z" fill="#F4CAAB"/>
<path fill-rule="evenodd" clip-rule="evenodd" d="M47.5978 59.668C47.508 59.5756 47.1701 59.6759 46.8229 59.9536C46.5034 60.2095 46.3925 60.4985 46.473 60.6001C46.6552 60.8269 47.7377 59.8109 47.5978 59.668Z" fill="#F4CAAB"/>
<mask id="mask20_131_38983" style="mask-type:luminance" maskUnits="userSpaceOnUse" x="32" y="12" width="6" height="4">
<path d="M37.075 12.3662C36.9482 12.3261 36.8123 12.3965 36.7713 12.5236L35.8261 15.5122H32.9877C32.8543 15.5122 32.7461 15.6203 32.7461 15.7536C32.7461 15.8869 32.8543 15.9949 32.9877 15.9949H36.0069C36.1284 15.9949 36.2287 15.9044 36.2459 15.7867L37.2334 12.669C37.273 12.542 37.203 12.4064 37.075 12.3662Z" fill="url(#paint40_linear_131_38983)"/>
</mask>
<g mask="url(#mask20_131_38983)">
<path fill-rule="evenodd" clip-rule="evenodd" d="M37.075 12.3662C36.9482 12.3261 36.8123 12.3965 36.7713 12.5236L35.8261 15.5122H32.9877C32.8543 15.5122 32.7461 15.6203 32.7461 15.7536C32.7461 15.8869 32.8543 15.9949 32.9877 15.9949H36.0069C36.1284 15.9949 36.2287 15.9044 36.2459 15.7867L37.2334 12.669C37.273 12.542 37.203 12.4064 37.075 12.3662Z" fill="url(#paint41_linear_131_38983)"/>
</g>
<path fill-rule="evenodd" clip-rule="evenodd" d="M35.8257 15.5122H35.9749L36.895 12.5735H36.7551L35.8257 15.5122Z" fill="white"/>
<path fill-rule="evenodd" clip-rule="evenodd" d="M10.7743 38.1247H9.02246V34.7784H10.0931L10.7743 38.1247Z" fill="#EFBC90"/>
<path fill-rule="evenodd" clip-rule="evenodd" d="M12.0693 33.0845C12.365 34.4581 12.1458 35.8431 11.3154 36.1436C10.5365 36.4253 9.18334 35.6801 8.56549 34.3221C7.91332 32.8925 8.23148 31.824 9.38532 31.4262C10.6118 31.0035 11.7445 31.5788 12.0693 33.0845Z" fill="#F4CAAB"/>
<path fill-rule="evenodd" clip-rule="evenodd" d="M9.62422 30.9404C8.35025 31.04 7.64527 32.193 7.72712 33.3333C7.80369 34.3981 8.94433 34.9668 8.94433 34.9668C8.94433 34.9668 9.31926 33.8859 9.9371 33.7136C10.7965 33.4734 10.4243 32.706 10.8269 32.6231C11.2454 32.5367 12.1563 32.2049 12.1405 31.5964C11.5517 31.617 11.0553 30.8288 9.62422 30.9404Z" fill="#03053E"/>
<path fill-rule="evenodd" clip-rule="evenodd" d="M9.75087 33.9383C9.85385 34.1683 9.78256 34.4243 9.58981 34.5104C9.39839 34.5962 9.15943 34.4794 9.05514 34.2495C8.95216 34.0195 9.02477 33.7635 9.2162 33.6775C9.40763 33.5916 9.6479 33.7084 9.75087 33.9383Z" fill="#F4CAAB"/>
<path fill-rule="evenodd" clip-rule="evenodd" d="M9.62402 33.6926C9.62402 33.6926 9.7204 35.1772 10.0042 35.7413C10.2511 36.2324 11.331 36.7395 11.9198 35.5742C11.9198 35.5742 11.3244 35.6983 11.3917 35.4466C11.471 35.1505 12.0835 35.1472 12.0835 35.1472C12.0835 35.1472 12.2037 35.1414 12.2248 35.0315C12.2565 34.8683 12.1773 34.6036 12.1773 34.6036C12.1773 34.6036 11.3667 34.8921 11.0168 34.8921C10.6208 34.8921 10.2617 34.6132 9.92635 33.6926H9.62402Z" fill="#03053E"/>
<path fill-rule="evenodd" clip-rule="evenodd" d="M14.7426 66.4244L13.1319 57.4306L12.0375 52.9989L10.5615 47.0486L7.40234 48.0545L9.63873 53.7173C10.1919 55.1246 10.7543 56.5312 11.3022 57.9439L14.0072 66.6035L14.1208 66.9647L14.8099 66.7968L14.7426 66.4244Z" fill="#EFBC90"/>
<path fill-rule="evenodd" clip-rule="evenodd" d="M8.92185 47.0857L8.08354 57.4175L1.43114 60.5299L1.08789 60.6907L1.33873 61.3447L1.70178 61.2352L9.32979 58.9335C9.61099 58.8478 9.8407 58.616 9.90539 58.3083L9.93311 58.1818L12.1972 47.5641L8.92185 47.0857Z" fill="#EFBC90"/>
<mask id="mask21_131_38983" style="mask-type:luminance" maskUnits="userSpaceOnUse" x="6" y="46" width="9" height="20">
<path d="M6.93896 46.1271L12.8455 47.272L14.6911 64.8914L12.7108 65.1625L6.93896 46.1271Z" fill="url(#paint42_linear_131_38983)"/>
</mask>
<g mask="url(#mask21_131_38983)">
<path fill-rule="evenodd" clip-rule="evenodd" d="M6.93896 46.1271L12.8455 47.272L14.6911 64.8914L12.7108 65.1625L6.93896 46.1271Z" fill="url(#paint43_linear_131_38983)"/>
</g>
<mask id="mask22_131_38983" style="mask-type:luminance" maskUnits="userSpaceOnUse" x="2" y="46" width="11" height="16">
<path d="M6.64987 47.3024L12.6079 46.4717C12.6079 46.4717 11.6943 57.5024 9.91204 58.9092C8.92058 59.6917 3.41014 61.0091 3.41014 61.0091L2.81738 59.32C2.81738 59.32 6.96539 57.644 7.3126 57.1255C7.69017 56.562 6.64987 47.3024 6.64987 47.3024Z" fill="url(#paint44_linear_131_38983)"/>
</mask>
<g mask="url(#mask22_131_38983)">
<path fill-rule="evenodd" clip-rule="evenodd" d="M6.64987 47.3024L12.6079 46.4717C12.6079 46.4717 11.6943 57.5024 9.91204 58.9092C8.92058 59.6917 3.41014 61.0091 3.41014 61.0091L2.81738 59.32C2.81738 59.32 6.96539 57.644 7.3126 57.1255C7.69017 56.562 6.64987 47.3024 6.64987 47.3024Z" fill="url(#paint45_linear_131_38983)"/>
</g>
<path fill-rule="evenodd" clip-rule="evenodd" d="M10.8967 38.7388L14.8018 44.3099L14.0916 44.112L18.6964 42.3667L19.1149 42.2081L19.4476 43.0076L19.0396 43.1914L14.5484 45.2133C14.3015 45.3248 14.0163 45.2466 13.8579 45.0407L13.8381 45.0154L9.68613 39.6256L9.22803 39.0314L10.4664 38.1247L10.8967 38.7388Z" fill="#EFBC90"/>
<mask id="mask23_131_38983" style="mask-type:luminance" maskUnits="userSpaceOnUse" x="8" y="38" width="11" height="8">
<path d="M8.86099 39.8596C9.43527 41.361 12.1416 44.6956 14.2328 45.3015C15.4738 45.6612 18.1656 43.7759 18.1656 43.7759L17.7749 42.566C17.7749 42.566 15.7339 43.9193 14.6368 42.8795C13.5397 41.8398 11.5964 38.5107 10.6063 38.3263C9.73363 38.164 8.60355 39.1851 8.86099 39.8596Z" fill="url(#paint46_linear_131_38983)"/>
</mask>
<g mask="url(#mask23_131_38983)">
<path fill-rule="evenodd" clip-rule="evenodd" d="M8.86099 39.8596C9.43527 41.361 12.1416 44.6956 14.2328 45.3015C15.4738 45.6612 18.1656 43.7759 18.1656 43.7759L17.7749 42.566C17.7749 42.566 15.7339 43.9193 14.6368 42.8795C13.5397 41.8398 11.5964 38.5107 10.6063 38.3263C9.73363 38.164 8.60355 39.1851 8.86099 39.8596Z" fill="url(#paint47_linear_131_38983)"/>
</g>
<path fill-rule="evenodd" clip-rule="evenodd" d="M9.14213 37.4178C9.14213 37.4178 10.061 38.2223 10.9798 37.686C10.9798 37.686 11.2953 41.0383 11.7059 42.406C12.1178 43.7737 13.3271 47.3674 13.3271 47.3674H6.64434C6.4648 44.3067 7.62392 40.8304 9.14213 37.4178Z" fill="#DBC6AF"/>
<mask id="mask24_131_38983" style="mask-type:luminance" maskUnits="userSpaceOnUse" x="6" y="37" width="8" height="11">
<path d="M8.82433 37.1428C8.82433 37.1428 5.62949 41.9113 6.28034 46.9978C6.28034 46.9978 6.00574 47.9969 9.63096 47.8607C13.2549 47.7244 13.4621 47.2249 13.4621 47.2249C12.3149 44.4952 11.4238 41.4057 10.9802 37.686C10.9802 37.686 9.62568 37.7357 8.82433 37.1428Z" fill="url(#paint48_linear_131_38983)"/>
</mask>
<g mask="url(#mask24_131_38983)">
<path fill-rule="evenodd" clip-rule="evenodd" d="M8.82433 37.1428C8.82433 37.1428 5.62949 41.9113 6.28034 46.9978C6.28034 46.9978 6.00574 47.9969 9.63096 47.8607C13.2549 47.7244 13.4621 47.2249 13.4621 47.2249C12.3149 44.4952 11.4238 41.4057 10.9802 37.686C10.9802 37.686 9.62568 37.7357 8.82433 37.1428Z" fill="url(#paint49_linear_131_38983)"/>
</g>
<path fill-rule="evenodd" clip-rule="evenodd" d="M9.86457 39.5056C9.40911 40.2899 8.96817 41.1083 8.56287 41.9256C8.36088 42.3354 8.16682 42.748 7.98991 43.1622C7.81433 43.5756 7.65195 43.994 7.53577 44.3986C7.50805 44.5001 7.48428 44.5966 7.46316 44.6955L7.40111 45.0225C7.36415 45.2445 7.3285 45.4678 7.29814 45.6943C7.23741 46.1466 7.18592 46.6044 7.13971 47.0637C7.04994 47.9823 6.97865 48.9107 6.92585 49.8324L6.89944 50.2782L6.03076 50.2565V49.81C6.03208 48.8674 6.05056 47.9325 6.08753 46.9903C6.10865 46.5194 6.13374 46.0477 6.1707 45.5728C6.18918 45.3356 6.21295 45.0964 6.23935 44.8563L6.28688 44.4924C6.30668 44.3618 6.33176 44.2302 6.36081 44.1055C6.47566 43.6061 6.63012 43.145 6.79515 42.691C6.96281 42.238 7.14367 41.796 7.33114 41.3586C7.71003 40.4832 8.11269 39.6358 8.54967 38.7815L8.8916 38.114L10.2408 38.857L9.86457 39.5056Z" fill="#F4CAAB"/>
<mask id="mask25_131_38983" style="mask-type:luminance" maskUnits="userSpaceOnUse" x="5" y="37" width="6" height="13">
<path d="M8.28842 37.9809C7.1359 39.1036 6.47317 41.6528 5.98339 43.7707C5.49228 45.8883 5.89097 49.1039 5.89097 49.1039L7.21248 49.162C7.21248 49.162 7.28773 45.8893 7.80788 44.4712C8.32803 43.0532 10.6146 39.9496 10.3915 38.9695C10.1934 38.106 8.80593 37.4766 8.28842 37.9809Z" fill="url(#paint50_linear_131_38983)"/>
</mask>
<g mask="url(#mask25_131_38983)">
<path fill-rule="evenodd" clip-rule="evenodd" d="M8.28842 37.9809C7.1359 39.1036 6.47317 41.6528 5.98339 43.7707C5.49228 45.8883 5.89097 49.1039 5.89097 49.1039L7.21248 49.162C7.21248 49.162 7.28773 45.8893 7.80788 44.4712C8.32803 43.0532 10.6146 39.9496 10.3915 38.9695C10.1934 38.106 8.80593 37.4766 8.28842 37.9809Z" fill="url(#paint51_linear_131_38983)"/>
</g>
<path fill-rule="evenodd" clip-rule="evenodd" d="M21.1189 41.8849C21.2219 42.1747 20.8707 42.6965 20.2265 43.0087C19.6324 43.2964 19.0991 43.1435 18.9776 42.8581C18.707 42.2205 20.9618 41.4368 21.1189 41.8849Z" fill="#EFBC90"/>
<path fill-rule="evenodd" clip-rule="evenodd" d="M7.13453 51.6029C7.26258 51.5608 7.32331 51.1961 7.22034 50.7421C7.12661 50.3237 6.90482 50.0857 6.77148 50.1158C6.47312 50.1827 6.93518 51.6679 7.13453 51.6029Z" fill="#F4CAAB"/>
<path fill-rule="evenodd" clip-rule="evenodd" d="M17.3814 67.4111C17.3814 67.4111 16.926 67.2909 16.7992 67.2456C16.2962 67.0648 14.9919 66.5314 14.9919 66.5314C14.9919 66.5314 14.8308 66.7901 14.4282 66.8402C14.1311 66.8771 13.9133 66.7704 13.9041 66.7701C13.776 66.7663 13.6651 66.9736 13.6572 67.233C13.6545 67.3183 13.6638 67.3983 13.6809 67.4678L13.6704 67.8282L17.5148 67.9435L17.5253 67.5783C17.528 67.4937 17.4659 67.4211 17.3814 67.4111Z" fill="#03053E"/>
<path fill-rule="evenodd" clip-rule="evenodd" d="M1.58169 64.0245C1.58169 64.0245 1.5632 63.5546 1.5698 63.4208C1.59621 62.8872 1.72691 61.4866 1.72691 61.4866C1.72691 61.4866 1.43251 61.4084 1.26748 61.0386C1.14603 60.7661 1.18431 60.5265 1.18167 60.5182C1.14867 60.3939 0.917634 60.3484 0.665479 60.4167C0.583628 60.4391 0.509698 60.4711 0.447649 60.5082L0.0991211 60.6029L1.11038 64.3071L1.46287 64.2111C1.54472 64.1889 1.59621 64.1079 1.58169 64.0245Z" fill="#03053E"/>
<path fill-rule="evenodd" clip-rule="evenodd" d="M19.7184 43.4506L19.4609 43.3438L20.6306 40.5356L20.8867 40.6424L19.7184 43.4506Z" fill="#03053E"/>
<path fill-rule="evenodd" clip-rule="evenodd" d="M20.2849 41.5411C20.1951 41.4402 19.8347 41.5294 19.4585 41.8039C19.1112 42.0572 18.9805 42.3546 19.0611 42.4649C19.2419 42.7112 20.4235 41.6973 20.2849 41.5411Z" fill="#EFBC90"/>
<path fill-rule="evenodd" clip-rule="evenodd" d="M6.45311 52.8879C6.14551 52.8642 5.81282 52.1933 5.7917 51.2796C5.77322 50.4374 6.13231 49.8844 6.44255 49.883C7.13697 49.8798 6.92706 52.9247 6.45311 52.8879Z" fill="#F4CAAB"/>
</g>
<defs>
<linearGradient id="paint0_linear_131_38983" x1="79.7086" y1="13.6592" x2="77.5635" y2="41.4303" gradientUnits="userSpaceOnUse">
<stop stop-color="#FFE1E3"/>
<stop offset="1" stop-color="#A3B8EA"/>
</linearGradient>
<linearGradient id="paint1_linear_131_38983" x1="79.7086" y1="13.6592" x2="77.5635" y2="41.4303" gradientUnits="userSpaceOnUse">
<stop stop-color="#FFE1E3"/>
<stop offset="1" stop-color="#A3B8EA"/>
</linearGradient>
<linearGradient id="paint2_linear_131_38983" x1="37.9925" y1="52.6916" x2="24.9505" y2="52.6916" gradientUnits="userSpaceOnUse">
<stop stop-color="#798FD7"/>
<stop offset="1" stop-color="#435AC2"/>
</linearGradient>
<linearGradient id="paint3_linear_131_38983" x1="37.9925" y1="52.6916" x2="24.9505" y2="52.6916" gradientUnits="userSpaceOnUse">
<stop stop-color="#798FD7"/>
<stop offset="1" stop-color="#435AC2"/>
</linearGradient>
<linearGradient id="paint4_linear_131_38983" x1="40.2105" y1="30.7942" x2="80.9162" y2="30.7942" gradientUnits="userSpaceOnUse">
<stop stop-color="white"/>
<stop offset="1" stop-color="#E7EBF8"/>
</linearGradient>
<linearGradient id="paint5_linear_131_38983" x1="40.2105" y1="30.7942" x2="80.9162" y2="30.7942" gradientUnits="userSpaceOnUse">
<stop stop-color="white"/>
<stop offset="1" stop-color="#E7EBF8"/>
</linearGradient>
<linearGradient id="paint6_linear_131_38983" x1="77.5765" y1="3.41265" x2="77.5765" y2="59.8416" gradientUnits="userSpaceOnUse">
<stop stop-color="#FD948F"/>
<stop offset="1" stop-color="#F77B77"/>
</linearGradient>
<linearGradient id="paint7_linear_131_38983" x1="77.5765" y1="3.41265" x2="77.5765" y2="59.8416" gradientUnits="userSpaceOnUse">
<stop stop-color="#FD948F"/>
<stop offset="1" stop-color="#F77B77"/>
</linearGradient>
<linearGradient id="paint8_linear_131_38983" x1="21.778" y1="21.5211" x2="21.778" y2="38.6534" gradientUnits="userSpaceOnUse">
<stop stop-color="white"/>
<stop offset="1" stop-color="#E7EBF8"/>
</linearGradient>
<linearGradient id="paint9_linear_131_38983" x1="21.778" y1="21.5211" x2="21.778" y2="38.6534" gradientUnits="userSpaceOnUse">
<stop stop-color="white"/>
<stop offset="1" stop-color="#E7EBF8"/>
</linearGradient>
<linearGradient id="paint10_linear_131_38983" x1="32.9056" y1="20.7772" x2="32.9056" y2="41.1417" gradientUnits="userSpaceOnUse">
<stop stop-color="#FD948F"/>
<stop offset="1" stop-color="#F77B77"/>
</linearGradient>
<linearGradient id="paint11_linear_131_38983" x1="32.9056" y1="20.7772" x2="32.9056" y2="41.1417" gradientUnits="userSpaceOnUse">
<stop stop-color="#FD948F"/>
<stop offset="1" stop-color="#F77B77"/>
</linearGradient>
<linearGradient id="paint12_linear_131_38983" x1="34.4927" y1="22.8721" x2="32.0629" y2="21.9069" gradientUnits="userSpaceOnUse">
<stop stop-color="#435AC2"/>
<stop offset="1" stop-color="#0F23A3"/>
</linearGradient>
<linearGradient id="paint13_linear_131_38983" x1="34.4927" y1="22.8721" x2="32.0629" y2="21.9069" gradientUnits="userSpaceOnUse">
<stop stop-color="#435AC2"/>
<stop offset="1" stop-color="#0F23A3"/>
</linearGradient>
<linearGradient id="paint14_linear_131_38983" x1="33.5868" y1="19.6474" x2="31.653" y2="22.0317" gradientUnits="userSpaceOnUse">
<stop stop-color="#435AC2"/>
<stop offset="1" stop-color="#0F23A3"/>
</linearGradient>
<linearGradient id="paint15_linear_131_38983" x1="33.5868" y1="19.6474" x2="31.653" y2="22.0317" gradientUnits="userSpaceOnUse">
<stop stop-color="#435AC2"/>
<stop offset="1" stop-color="#0F23A3"/>
</linearGradient>
<linearGradient id="paint16_linear_131_38983" x1="25.3668" y1="11.2145" x2="31.0575" y2="13.6539" gradientUnits="userSpaceOnUse">
<stop stop-color="#798FD7"/>
<stop offset="1" stop-color="#435AC2"/>
</linearGradient>
<linearGradient id="paint17_linear_131_38983" x1="25.3668" y1="11.2145" x2="31.0575" y2="13.6539" gradientUnits="userSpaceOnUse">
<stop stop-color="#798FD7"/>
<stop offset="1" stop-color="#435AC2"/>
</linearGradient>
<linearGradient id="paint18_linear_131_38983" x1="22.4617" y1="12.8212" x2="29.3012" y2="12.8212" gradientUnits="userSpaceOnUse">
<stop stop-color="#798FD7"/>
<stop offset="1" stop-color="#435AC2"/>
</linearGradient>
<linearGradient id="paint19_linear_131_38983" x1="22.4617" y1="12.8212" x2="29.3012" y2="12.8212" gradientUnits="userSpaceOnUse">
<stop stop-color="#798FD7"/>
<stop offset="1" stop-color="#435AC2"/>
</linearGradient>
<linearGradient id="paint20_linear_131_38983" x1="22.0273" y1="13.9358" x2="26.7726" y2="13.9358" gradientUnits="userSpaceOnUse">
<stop stop-color="#798FD7"/>
<stop offset="1" stop-color="#435AC2"/>
</linearGradient>
<linearGradient id="paint21_linear_131_38983" x1="22.0273" y1="13.9358" x2="26.7726" y2="13.9358" gradientUnits="userSpaceOnUse">
<stop stop-color="#798FD7"/>
<stop offset="1" stop-color="#435AC2"/>
</linearGradient>
<linearGradient id="paint22_linear_131_38983" x1="39.2268" y1="61.6457" x2="52.8587" y2="61.4972" gradientUnits="userSpaceOnUse">
<stop stop-color="#435AC2"/>
<stop offset="1" stop-color="#0F23A3"/>
</linearGradient>
<linearGradient id="paint23_linear_131_38983" x1="39.2268" y1="61.6457" x2="52.8587" y2="61.4972" gradientUnits="userSpaceOnUse">
<stop stop-color="#435AC2"/>
<stop offset="1" stop-color="#0F23A3"/>
</linearGradient>
<linearGradient id="paint24_linear_131_38983" x1="50.6223" y1="61.6017" x2="48.9327" y2="64.4222" gradientUnits="userSpaceOnUse">
<stop stop-color="#435AC2"/>
<stop offset="1" stop-color="#0F23A3"/>
</linearGradient>
<linearGradient id="paint25_linear_131_38983" x1="50.6223" y1="61.6017" x2="48.9327" y2="64.4222" gradientUnits="userSpaceOnUse">
<stop stop-color="#435AC2"/>
<stop offset="1" stop-color="#0F23A3"/>
</linearGradient>
<linearGradient id="paint26_linear_131_38983" x1="36.3342" y1="59.0225" x2="45.274" y2="58.9251" gradientUnits="userSpaceOnUse">
<stop stop-color="#FFC1C2"/>
<stop offset="1" stop-color="#FD948F"/>
</linearGradient>
<linearGradient id="paint27_linear_131_38983" x1="36.3342" y1="59.0225" x2="45.274" y2="58.9251" gradientUnits="userSpaceOnUse">
<stop stop-color="#FFC1C2"/>
<stop offset="1" stop-color="#FD948F"/>
</linearGradient>
<linearGradient id="paint28_linear_131_38983" x1="37.4382" y1="60.3911" x2="43.3861" y2="60.3263" gradientUnits="userSpaceOnUse">
<stop stop-color="#FD948F"/>
<stop offset="1" stop-color="#F77B77"/>
</linearGradient>
<linearGradient id="paint29_linear_131_38983" x1="37.4382" y1="60.3911" x2="43.3861" y2="60.3263" gradientUnits="userSpaceOnUse">
<stop stop-color="#FD948F"/>
<stop offset="1" stop-color="#F77B77"/>
</linearGradient>
<linearGradient id="paint30_linear_131_38983" x1="36.6932" y1="59.9045" x2="45.5224" y2="59.8083" gradientUnits="userSpaceOnUse">
<stop stop-color="#FFC1C2"/>
<stop offset="1" stop-color="#FD948F"/>
</linearGradient>
<linearGradient id="paint31_linear_131_38983" x1="36.6932" y1="59.9045" x2="45.5224" y2="59.8083" gradientUnits="userSpaceOnUse">
<stop stop-color="#FFC1C2"/>
<stop offset="1" stop-color="#FD948F"/>
</linearGradient>
<linearGradient id="paint32_linear_131_38983" x1="45.2254" y1="58.1287" x2="50.9041" y2="58.0669" gradientUnits="userSpaceOnUse">
<stop stop-color="#FFC1C2"/>
<stop offset="1" stop-color="#FD948F"/>
</linearGradient>
<linearGradient id="paint33_linear_131_38983" x1="45.2254" y1="58.1287" x2="50.9041" y2="58.0669" gradientUnits="userSpaceOnUse">
<stop stop-color="#FFC1C2"/>
<stop offset="1" stop-color="#FD948F"/>
</linearGradient>
<linearGradient id="paint34_linear_131_38983" x1="45.652" y1="59.1566" x2="48.8205" y2="60.738" gradientUnits="userSpaceOnUse">
<stop stop-color="#FFE1E3"/>
<stop offset="1" stop-color="#FFC1C2"/>
</linearGradient>
<linearGradient id="paint35_linear_131_38983" x1="45.652" y1="59.1566" x2="48.8205" y2="60.738" gradientUnits="userSpaceOnUse">
<stop stop-color="#FFE1E3"/>
<stop offset="1" stop-color="#FFC1C2"/>
</linearGradient>
<linearGradient id="paint36_linear_131_38983" x1="46.6292" y1="59.0402" x2="48.7903" y2="60.1188" gradientUnits="userSpaceOnUse">
<stop stop-color="#FFC1C2"/>
<stop offset="1" stop-color="#FD948F"/>
</linearGradient>
<linearGradient id="paint37_linear_131_38983" x1="46.6292" y1="59.0402" x2="48.7903" y2="60.1188" gradientUnits="userSpaceOnUse">
<stop stop-color="#FFC1C2"/>
<stop offset="1" stop-color="#FD948F"/>
</linearGradient>
<linearGradient id="paint38_linear_131_38983" x1="46.4522" y1="59.4106" x2="47.3728" y2="59.8701" gradientUnits="userSpaceOnUse">
<stop stop-color="#FFC1C2"/>
<stop offset="1" stop-color="#FD948F"/>
</linearGradient>
<linearGradient id="paint39_linear_131_38983" x1="46.4522" y1="59.4106" x2="47.3728" y2="59.8701" gradientUnits="userSpaceOnUse">
<stop stop-color="#FFC1C2"/>
<stop offset="1" stop-color="#FD948F"/>
</linearGradient>
<linearGradient id="paint40_linear_131_38983" x1="32.7461" y1="14.1749" x2="37.2441" y2="14.1749" gradientUnits="userSpaceOnUse">
<stop stop-color="#798FD7"/>
<stop offset="1" stop-color="#435AC2"/>
</linearGradient>
<linearGradient id="paint41_linear_131_38983" x1="32.7461" y1="14.1749" x2="37.2441" y2="14.1749" gradientUnits="userSpaceOnUse">
<stop stop-color="#798FD7"/>
<stop offset="1" stop-color="#435AC2"/>
</linearGradient>
<linearGradient id="paint42_linear_131_38983" x1="11.3648" y1="56.0942" x2="10.638" y2="56.0183" gradientUnits="userSpaceOnUse">
<stop stop-color="#435AC2"/>
<stop offset="1" stop-color="#0F23A3"/>
</linearGradient>
<linearGradient id="paint43_linear_131_38983" x1="11.3648" y1="56.0942" x2="10.638" y2="56.0183" gradientUnits="userSpaceOnUse">
<stop stop-color="#435AC2"/>
<stop offset="1" stop-color="#0F23A3"/>
</linearGradient>
<linearGradient id="paint44_linear_131_38983" x1="9.18277" y1="54.1143" x2="6.67195" y2="53.7955" gradientUnits="userSpaceOnUse">
<stop stop-color="#435AC2"/>
<stop offset="1" stop-color="#0F23A3"/>
</linearGradient>
<linearGradient id="paint45_linear_131_38983" x1="9.18277" y1="54.1143" x2="6.67195" y2="53.7955" gradientUnits="userSpaceOnUse">
<stop stop-color="#435AC2"/>
<stop offset="1" stop-color="#0F23A3"/>
</linearGradient>
<linearGradient id="paint46_linear_131_38983" x1="14.1826" y1="41.288" x2="12.2635" y2="43.0082" gradientUnits="userSpaceOnUse">
<stop stop-color="#798FD7"/>
<stop offset="1" stop-color="#435AC2"/>
</linearGradient>
<linearGradient id="paint47_linear_131_38983" x1="14.1826" y1="41.288" x2="12.2635" y2="43.0082" gradientUnits="userSpaceOnUse">
<stop stop-color="#798FD7"/>
<stop offset="1" stop-color="#435AC2"/>
</linearGradient>
<linearGradient id="paint48_linear_131_38983" x1="10.7893" y1="42.4795" x2="8.78662" y2="42.4987" gradientUnits="userSpaceOnUse">
<stop stop-color="#798FD7"/>
<stop offset="1" stop-color="#435AC2"/>
</linearGradient>
<linearGradient id="paint49_linear_131_38983" x1="10.7893" y1="42.4795" x2="8.78662" y2="42.4987" gradientUnits="userSpaceOnUse">
<stop stop-color="#798FD7"/>
<stop offset="1" stop-color="#435AC2"/>
</linearGradient>
<linearGradient id="paint50_linear_131_38983" x1="8.15705" y1="43.8559" x2="7.42684" y2="43.5899" gradientUnits="userSpaceOnUse">
<stop stop-color="#798FD7"/>
<stop offset="1" stop-color="#435AC2"/>
</linearGradient>
<linearGradient id="paint51_linear_131_38983" x1="8.15705" y1="43.8559" x2="7.42684" y2="43.5899" gradientUnits="userSpaceOnUse">
<stop stop-color="#798FD7"/>
<stop offset="1" stop-color="#435AC2"/>
</linearGradient>
<clipPath id="clip0_131_38983">
<rect width="87" height="68" fill="white"/>
</clipPath>
</defs>
</svg>
