<svg width="25" height="25" viewBox="0 0 25 25" fill="none" xmlns="http://www.w3.org/2000/svg">
<g clip-path="url(#clip0_121_14719)">
<path d="M19.8242 16.2109C18.3771 16.2109 17.0914 16.9142 16.2901 17.9966L9.39219 14.4715C9.50791 14.0783 9.57031 13.6625 9.57031 13.2324C9.57031 12.6499 9.4561 12.0936 9.24932 11.5843L16.4788 7.24067C17.2854 8.18745 18.4858 8.78906 19.8242 8.78906C22.2474 8.78906 24.2188 6.81768 24.2188 4.39453C24.2188 1.97139 22.2474 0 19.8242 0C17.4011 0 15.4297 1.97139 15.4297 4.39453C15.4297 4.95459 15.5352 5.49038 15.7271 5.9834L8.47949 10.3379C7.67344 9.41904 6.49126 8.83789 5.17578 8.83789C2.75264 8.83789 0.78125 10.8093 0.78125 13.2324C0.78125 15.6556 2.75264 17.627 5.17578 17.627C6.64658 17.627 7.95078 16.9006 8.74888 15.7878L15.6268 19.3027C15.4987 19.7145 15.4297 20.1521 15.4297 20.6055C15.4297 23.0286 17.4011 25 19.8242 25C22.2474 25 24.2188 23.0286 24.2188 20.6055C24.2188 18.1823 22.2474 16.2109 19.8242 16.2109ZM19.8242 1.46484C21.4396 1.46484 22.7539 2.7791 22.7539 4.39453C22.7539 6.00996 21.4396 7.32422 19.8242 7.32422C18.2088 7.32422 16.8945 6.00996 16.8945 4.39453C16.8945 2.7791 18.2088 1.46484 19.8242 1.46484ZM5.17578 16.1621C3.56035 16.1621 2.24609 14.8479 2.24609 13.2324C2.24609 11.617 3.56035 10.3027 5.17578 10.3027C6.79121 10.3027 8.10547 11.617 8.10547 13.2324C8.10547 14.8479 6.79121 16.1621 5.17578 16.1621ZM19.8242 23.5352C18.2088 23.5352 16.8945 22.2209 16.8945 20.6055C16.8945 18.99 18.2088 17.6758 19.8242 17.6758C21.4396 17.6758 22.7539 18.99 22.7539 20.6055C22.7539 22.2209 21.4396 23.5352 19.8242 23.5352Z" fill="#777777"/>
</g>
<defs>
<clipPath id="clip0_121_14719">
<rect width="25" height="25" fill="white"/>
</clipPath>
</defs>
</svg>
