<svg width="70" height="70" viewBox="0 0 70 70" fill="none" xmlns="http://www.w3.org/2000/svg">
<path d="M37.2357 12.0965C37.185 11.9599 37.076 11.8976 36.9361 11.8699C37.0738 11.7057 37.1638 11.531 37.1185 11.3667C37.0532 11.1298 36.8723 11.097 36.6244 11.1108C36.5819 11.1143 36.5371 11.1212 36.492 11.1316C36.4875 11.116 36.4893 11.1022 36.4834 11.0866C36.4621 11.0261 36.3934 10.9811 36.322 10.9707C35.9248 10.9137 35.5212 11.0745 35.1784 11.2198C34.1607 11.6555 33.9396 11.7005 33.5527 11.5915C33.811 11.3425 33.8523 11.2699 34.1063 11.2301C34.231 11.2111 34.3793 11.1333 34.4175 11.0036C34.4632 10.848 34.0033 10.7079 33.8768 10.6647C33.6595 10.5903 32.9841 10.8186 32.8842 10.9586C31.8923 12.3455 31.6254 12.9058 31.3195 13.779C31.2357 14.0194 32.2131 15.2714 32.4538 14.7733C32.5264 14.6246 33.1083 13.9519 33.3953 13.4124C34.4686 13.5421 36.0343 13.4747 36.0986 12.9818C36.778 12.8435 37.4138 12.5807 37.2357 12.0965Z" fill="#FF505C"/>
<path d="M69.9415 3.50626V33.2602C69.9415 33.7912 69.5424 34.2221 69.0497 34.2221L34.7753 34.2221C34.2828 34.2221 33.8833 33.7912 33.8833 33.2602L33.8833 3.50626C33.8833 2.12951 34.9184 1.0138 36.1961 1.0138L67.6282 1.0138C68.9059 1.0138 69.9415 2.12951 69.9415 3.50626Z" fill="#D3E7EC"/>
<path d="M69.9415 3.50624V6.17035L33.8833 6.17035V3.50624C33.8833 2.12949 34.9184 1.01379 36.1961 1.01379L67.6282 1.01379C68.9059 1.01379 69.9415 2.12949 69.9415 3.50624Z" fill="#B1A6FF"/>
<path d="M37.5194 3.59299C37.5194 3.25379 37.2447 2.97852 36.906 2.97852C36.5665 2.97852 36.292 3.25379 36.292 3.59299C36.292 3.93219 36.5665 4.20569 36.906 4.20569C37.2447 4.20569 37.5194 3.93219 37.5194 3.59299Z" fill="white"/>
<path d="M40.3587 3.59299C40.3587 3.25379 40.0842 2.97852 39.7453 2.97852C39.4059 2.97852 39.1313 3.25379 39.1313 3.59299C39.1313 3.93219 39.4059 4.20569 39.7453 4.20569C40.0842 4.20569 40.3587 3.93219 40.3587 3.59299Z" fill="white"/>
<path d="M43.1983 3.59299C43.1983 3.25379 42.9238 2.97852 42.5849 2.97852C42.2455 2.97852 41.9709 3.25379 41.9709 3.59299C41.9709 3.93219 42.2455 4.20569 42.5849 4.20569C42.9238 4.20569 43.1983 3.93219 43.1983 3.59299Z" fill="white"/>
<path d="M68.6858 3.59937C68.6858 2.63485 67.904 1.85218 66.9403 1.85218C65.9757 1.85218 65.1938 2.63485 65.1938 3.59937C65.1938 4.56567 65.9757 5.34656 66.9403 5.34656C67.904 5.34656 68.6858 4.56567 68.6858 3.59937Z" fill="white"/>
<path d="M67.708 4.50049C67.6737 4.50049 67.6402 4.48627 67.6144 4.46138L66.096 2.94151C66.0445 2.88996 66.0445 2.80641 66.096 2.75486C66.1475 2.70331 66.2312 2.70331 66.2827 2.75486L67.8009 4.27473C67.8526 4.32628 67.8526 4.40983 67.8009 4.46138C67.7752 4.48627 67.7416 4.50049 67.708 4.50049Z" fill="#5180D6"/>
<path d="M66.1898 4.50049C66.1553 4.50049 66.1218 4.48627 66.096 4.46138C66.0445 4.40983 66.0445 4.32628 66.096 4.27473L67.6144 2.75486C67.6659 2.70331 67.7494 2.70331 67.8009 2.75486C67.8526 2.80641 67.8526 2.88996 67.8009 2.94151L66.2827 4.46138C66.2569 4.48627 66.2234 4.50049 66.1898 4.50049Z" fill="#5180D6"/>
<path d="M67.2469 31.9078L37.2522 31.9078C36.7216 31.9078 36.2917 31.4784 36.2917 30.9466V24.1962C36.2917 23.6644 36.7216 23.235 37.2522 23.235L67.2469 23.235C67.7763 23.235 68.2067 23.6644 68.2067 24.1962V30.9466C68.2067 31.4784 67.7763 31.9078 67.2469 31.9078Z" fill="white"/>
<path d="M39.4104 30.6502C39.1309 30.6502 38.9043 30.4239 38.9043 30.1452V25.6834C38.9043 25.403 39.1309 25.1767 39.4104 25.1767C39.6894 25.1767 39.916 25.403 39.916 25.6834V30.1452C39.916 30.4239 39.6894 30.6502 39.4104 30.6502Z" fill="#FF8888"/>
<path d="M41.1015 30.651C40.8221 30.651 40.5959 30.423 40.5959 30.1445V27.4963C40.5959 27.2162 40.8221 26.9898 41.1015 26.9898C41.3811 26.9898 41.6071 27.2162 41.6071 27.4963V30.1445C41.6071 30.423 41.3811 30.651 41.1015 30.651Z" fill="#5F40D5"/>
<path d="M42.7931 30.6499C42.5137 30.6499 42.2871 30.423 42.2871 30.1442V28.7926C42.2871 28.5138 42.5137 28.2869 42.7931 28.2869C43.0722 28.2869 43.2987 28.5138 43.2987 28.7926V30.1442C43.2987 30.423 43.0722 30.6499 42.7931 30.6499Z" fill="#FF8888"/>
<path d="M44.4841 30.651C44.2047 30.651 43.9785 30.4237 43.9785 30.1456V26.3642C43.9785 26.0845 44.2047 25.8571 44.4841 25.8571C44.7636 25.8571 44.9898 26.0845 44.9898 26.3642V30.1456C44.9898 30.4237 44.7636 30.651 44.4841 30.651Z" fill="#5F40D5"/>
<path d="M55.7844 25.1751C55.7844 24.9945 55.9316 24.8467 56.1123 24.8467H60.2466C60.4269 24.8467 60.5746 24.9945 60.5746 25.1751C60.5746 25.3573 60.4269 25.5034 60.2466 25.5034H56.1123C55.9316 25.5034 55.7844 25.3573 55.7844 25.1751Z" fill="#D3E7EC"/>
<path d="M55.7847 26.1655C55.7847 25.984 55.9318 25.8368 56.1125 25.8368H58.8847C59.0658 25.8368 59.2127 25.984 59.2127 26.1655C59.2127 26.3471 59.0658 26.4927 58.8847 26.4927H56.1125C55.9318 26.4927 55.7847 26.3471 55.7847 26.1655Z" fill="#D3E7EC"/>
<path d="M59.7554 26.1655C59.7554 25.984 59.9015 25.8368 60.0827 25.8368H61.6267C61.8087 25.8368 61.9549 25.984 61.9549 26.1655C61.9549 26.3471 61.8087 26.4927 61.6267 26.4927H60.0827C59.9015 26.4927 59.7554 26.3471 59.7554 26.1655Z" fill="#D3E7EC"/>
<path d="M55.7847 28.7381C55.7847 28.5567 55.9316 28.4092 56.1126 28.4092H59.4556C59.6367 28.4092 59.7835 28.5567 59.7835 28.7381C59.7835 28.9195 59.6367 29.0653 59.4556 29.0653H56.1126C55.9316 29.0653 55.7847 28.9195 55.7847 28.7381Z" fill="#D3E7EC"/>
<path d="M55.7844 29.7282C55.7844 29.5474 55.9315 29.4005 56.1122 29.4005H58.8844C59.0655 29.4005 59.2124 29.5474 59.2124 29.7282C59.2124 29.9105 59.0655 30.0574 58.8844 30.0574H56.1122C55.9315 30.0574 55.7844 29.9105 55.7844 29.7282Z" fill="#D3E7EC"/>
<path d="M61.0784 28.7381C61.0784 28.5567 61.2252 28.4092 61.4065 28.4092H64.1774C64.3595 28.4092 64.5055 28.5567 64.5055 28.7381C64.5055 28.9195 64.3595 29.0653 64.1774 29.0653H61.4065C61.2252 29.0653 61.0784 28.9195 61.0784 28.7381Z" fill="#D3E7EC"/>
<path d="M46.1753 30.651C45.8964 30.651 45.6697 30.423 45.6697 30.1445V27.4963C45.6697 27.2162 45.8964 26.9898 46.1753 26.9898C46.4547 26.9898 46.6813 27.2162 46.6813 27.4963V30.1445C46.6813 30.423 46.4547 30.651 46.1753 30.651Z" fill="#FF8888"/>
<path d="M47.8671 30.6504C47.5876 30.6504 47.3616 30.4229 47.3616 30.1446V26.1756C47.3616 25.8957 47.5876 25.6698 47.8671 25.6698C48.1465 25.6698 48.3727 25.8957 48.3727 26.1756V30.1446C48.3727 30.4229 48.1465 30.6504 47.8671 30.6504Z" fill="#5F40D5"/>
<path d="M49.5584 30.6501C49.279 30.6501 49.0522 30.4237 49.0522 30.1455V29.3271C49.0522 29.0472 49.279 28.8208 49.5584 28.8208C49.8373 28.8208 50.064 29.0472 50.064 29.3271V30.1455C50.064 30.4237 49.8373 30.6501 49.5584 30.6501Z" fill="#FF8888"/>
<path d="M54.9402 25.6702C54.9402 24.9416 54.3502 24.3511 53.6222 24.3511C52.8944 24.3511 52.3044 24.9416 52.3044 25.6702C52.3044 26.3989 52.8944 26.9894 53.6222 26.9894C54.3502 26.9894 54.9402 26.3989 54.9402 25.6702Z" fill="#FF8888"/>
<path d="M54.9402 29.2331C54.9402 28.5044 54.3503 27.9136 53.6223 27.9136C52.8944 27.9136 52.3044 28.5044 52.3044 29.2331C52.3044 29.9602 52.8944 30.5509 53.6223 30.5509C54.3503 30.5509 54.9402 29.9602 54.9402 29.2331Z" fill="#5F40D5"/>
<path d="M67.2472 21.5887L37.2815 21.5887C36.7513 21.5887 36.321 21.158 36.321 20.6278V9.15075C36.321 8.62059 36.7513 8.18983 37.2815 8.18983L67.2472 8.18983C67.7768 8.18983 68.2072 8.62059 68.2072 9.15075V20.6278C68.2072 21.158 67.7768 21.5887 67.2472 21.5887Z" fill="white"/>
<path d="M38.2336 19.0146L65.8888 19.0146C65.8888 19.0146 65.9162 10.7304 64.2212 10.9257C62.5257 11.1193 62.6115 16.3183 61.3923 16.8057C60.174 17.2931 58.8876 12.6472 57.2565 12.7768C56.2443 12.8581 54.634 16.0971 53.4647 16.123C52.0225 16.1558 51.0273 13.8813 49.7072 14.0835C48.97 14.1941 47.5606 16.6847 43.0566 16.2077C41.6942 16.0625 40.3218 16.5205 39.3874 17.4694C38.5861 18.2835 38.2336 19.0146 38.2336 19.0146Z" fill="#FFDEDB"/>
<path d="M53.7428 10.3888L38.5529 10.3888C38.2707 10.3888 38.042 10.1595 38.042 9.87642C38.042 9.59507 38.2707 9.36582 38.5529 9.36582L53.7428 9.36582C54.0249 9.36582 54.2542 9.59507 54.2542 9.87642C54.2542 10.1595 54.0249 10.3888 53.7428 10.3888Z" fill="#FF8888"/>
<path d="M48.9317 11.9458L38.553 11.9458C38.2708 11.9458 38.042 11.7161 38.042 11.4329C38.042 11.1513 38.2708 10.9216 38.553 10.9216L48.9317 10.9216C49.2139 10.9216 49.4432 11.1513 49.4432 11.4329C49.4432 11.7161 49.2139 11.9458 48.9317 11.9458Z" fill="#5F40D5"/>
<path d="M5.45053 64.2007C5.43531 63.8354 3.30848 62.5717 3.2011 62.6761C2.87248 62.9977 1.75249 64.3304 1.80632 64.6548C1.85818 64.9679 2.97282 66.7647 3.27085 66.4375C3.52915 66.1554 5.46533 64.5519 5.45053 64.2007Z" fill="#FF505C"/>
<path d="M1.97857 64.1236C1.97857 64.1236 0.0994103 64.7638 -0.000244141 66.2767C-0.000244141 66.2767 3.85423 69.1301 5.46311 69.9636C5.46311 69.9636 7.30406 69.3389 6.17679 68.2812C5.0491 67.2222 4.02806 66.1254 4.02806 66.1254C4.02806 66.1254 2.16318 65.7584 1.97857 64.1236Z" fill="#1F0D52"/>
<path d="M25.6879 64.1562C25.4182 63.9108 23.0248 64.5376 23.0237 64.6862C23.0211 65.1461 23.1812 66.8805 23.4497 67.0698C23.7096 67.2535 26.1362 66.8553 26.1139 66.4136C26.0943 66.0322 25.9482 64.3932 25.6879 64.1562Z" fill="#FF505C"/>
<path d="M23.1936 66.574C23.1936 66.574 22.3286 68.3626 23.3342 69.4969C23.3342 69.4969 28.0708 68.7564 29.7939 68.1976C29.7939 68.1976 30.6433 66.4464 29.0988 66.506C27.5549 66.5657 26.0571 66.5213 26.0571 66.5213C26.0571 66.5213 24.4859 67.5917 23.1936 66.574Z" fill="#1F0D52"/>
<path d="M26.4604 64.7981L24.759 64.9707L22.5164 65.1996L22.5105 65.1946C22.5105 65.178 22.4997 65.1614 22.4881 65.1382C22.4881 65.1382 22.4881 65.1332 22.4773 65.1282C22.2818 64.6854 22.4952 61.0113 22.5176 57.9576C22.5345 54.1558 20.8816 48.8014 20.608 45.066C20.5802 44.7541 20.558 44.4622 20.5356 44.1952C20.3853 42.3191 18.9066 38.7064 17.7015 35.6079C17.5288 35.1551 17.3562 34.7139 17.1997 34.2959C16.4186 32.2125 15.8944 30.5604 16.2235 30.1856C17.0827 29.2086 21.9249 22.0844 24.8428 25.3736C28.1787 29.1422 28.7311 38.9801 28.7311 44.2847C28.7311 49.5877 27.3065 59.4935 26.4604 64.7981Z" fill="#FFDEDB"/>
<path d="M23.3811 57.7627C22.7338 52.2071 24.6527 46.3449 22.2876 41.0287C21.6236 39.5377 20.547 38.0083 20.6526 36.3049C20.7034 35.4619 21.2498 34.5025 20.7699 33.6867C19.9167 32.2355 18.304 33.2126 17.5565 34.2119C17.4726 34.1784 17.3779 34.1736 17.289 34.2343C17.2608 34.2566 17.2275 34.2726 17.1997 34.2949C17.356 34.7148 17.5288 35.1554 17.7015 35.6072C18.9066 38.7059 20.3851 42.3187 20.5356 44.1945C20.5579 44.4627 20.5802 44.7533 20.608 45.0662C20.9316 48.8018 21.4596 53.7524 21.8672 57.5392C22.3776 62.287 22.243 64.7312 22.4773 65.1271C22.4881 65.1335 22.4881 65.1383 22.4881 65.1383C22.4996 65.1606 22.5105 65.1782 22.5105 65.1941L22.5165 65.2005L24.7589 64.9706C24.9877 62.0013 23.7156 60.6714 23.3811 57.7627Z" fill="#FFB4B7"/>
<path d="M17.1939 47.9134C16.5974 53.1847 8.78053 62.8638 4.74729 65.1993C4.74729 65.1993 2.18729 63.6402 2.28754 63.3655C2.93485 61.6073 4.64261 59.5284 5.68875 56.1435C7.55575 50.1009 9.25562 48.2259 9.27255 44.7243C9.31116 37.68 7.52042 34.1619 9.28339 28.9959C9.40648 28.634 9.546 28.2706 9.70179 27.8906C10.0755 26.9976 11.6657 25.5403 12.2792 24.514C12.3686 24.3677 17.5737 25.1604 19.4647 27.1867C19.6658 27.4005 18.1201 39.7276 17.1939 47.9134Z" fill="#FFDEDB"/>
<path d="M10.2818 32.2681C10.1925 31.5488 9.98595 29.7385 9.28311 28.9966C7.52022 34.1608 9.31089 37.6795 9.27229 44.725C9.25534 48.226 2.93453 61.6074 2.28725 63.366C2.18713 63.6408 2.79564 64.0141 3.3759 64.3148C3.89495 63.8913 6.25409 55.7968 7.82739 52.7322C9.38938 49.6887 10.5885 46.7971 10.5276 43.3188C10.5161 42.96 10.4937 42.6044 10.4659 42.2472C10.7395 38.9192 10.7001 35.5799 10.2818 32.2681Z" fill="#FFB4B7"/>
<path d="M8.60775 7.43592C9.0489 9.41802 12.0257 10.8646 13.7919 9.64265C14.8935 8.88251 15.3817 7.45569 15.4095 6.16903C15.4242 5.4646 15.2418 4.73322 15.3813 4.03598C15.6524 2.68283 16.4778 2.65767 17.1883 1.82386C17.2073 1.8005 17.2145 1.77893 17.2249 1.75557C17.3066 1.68369 17.3485 1.57048 17.2858 1.44289C16.6636 0.177795 14.4534 -0.456549 13.287 0.388045C12.5509 0.921758 12.1968 1.84183 12.0187 2.699C11.8738 3.39444 11.8677 4.10786 11.8082 4.81229C11.7664 5.30826 11.7386 6.04324 11.5262 6.46194C10.9595 7.58148 9.62149 7.22567 9.03651 7.15379C8.83811 7.05316 8.55047 7.17895 8.60775 7.43592Z" fill="#32187C"/>
<path d="M27.5492 21.6789C30.623 19.8694 33.2555 14.0587 33.2555 14.0587L31.4424 12.9428C31.3302 13.0071 26.458 18.2234 25.7831 17.5142C25.4866 17.2048 25.1613 10.4224 20.518 9.36037C19.5237 9.13266 19.746 9.32213 19.4159 10.2868C18.7474 12.244 19.228 16.845 20.7714 19.5183C22.5894 22.6661 24.6433 23.3892 27.5492 21.6789Z" fill="#B1A6FF"/>
<path d="M8.94482 27.0469C9.85943 27.5603 10.8914 27.906 11.9739 28.1296C18.2445 29.3868 26.4395 26.3484 26.4395 26.3484C26.4395 26.3484 24.6379 23.6243 23.126 20.7605C22.9805 20.4969 22.847 20.2349 22.713 19.966C22.049 18.6494 22.1943 17.7832 22.596 17.0131C23.1429 15.9532 24.1748 15.0818 24.2418 13.4683C24.3535 10.6814 18.4227 8.35366 18.4227 8.35366C9.53054 7.82281 11.6335 13.0423 12.4818 17.2698C12.5596 17.6558 12.6266 18.0294 12.6713 18.3927C12.6826 18.4712 12.6882 18.5533 12.6936 18.6319C12.7044 18.7384 12.7105 18.8397 12.7159 18.9445C12.8777 23.104 8.94482 27.0469 8.94482 27.0469Z" fill="#B1A6FF"/>
<path d="M12.716 18.9442C12.7122 18.8713 12.7061 18.8019 12.7007 18.729C12.6926 18.6162 12.687 18.5034 12.673 18.3889C12.6283 18.0262 11.713 13.9985 11.672 12.9972C11.9118 12.546 12.6931 15.6071 13.3066 15.038C14.9246 13.5074 14.7204 9.59771 14.7204 9.59771C15.0886 11.4736 15.3844 15.1629 14.7595 16.3134C14.6238 16.5598 14.1499 17.5091 14.1217 17.5542C13.6644 18.9667 13.9989 20.3845 13.9264 21.8318C13.8595 23.1038 13.4132 24.2821 12.9556 25.4603C12.7105 26.0799 12.4424 27.4317 11.9739 28.1293C10.8914 27.9054 9.85944 27.5601 8.94482 27.0464C8.94482 27.0464 12.8778 23.1038 12.716 18.9442Z" fill="#796CED"/>
<path d="M19.3486 7.14642V8.71994C19.3486 8.71994 19.7713 9.49615 19.3486 9.58045C18.4186 9.76836 17.0767 8.31602 17.0767 8.31602V6.20337L19.3486 7.14642Z" fill="#FF505C"/>
<path d="M17.0767 7.54596V6.34359C17.0767 6.34359 18.2328 7.44766 19.3484 7.51085C19.3484 7.51085 18.0039 8.16558 17.0767 7.54596Z" fill="#FC3C4C"/>
<path d="M19.9064 2.55043C19.9064 2.55043 20.7432 4.24896 20.9523 5.8301C21.1006 6.95415 19.0461 8.43569 17.3724 6.85455C15.6988 5.27163 16.1635 2.85278 16.1635 2.85278L19.9064 2.55043Z" fill="#FF505C"/>
<path d="M20.7138 2.49106C20.5999 2.41958 20.4507 2.41601 20.3417 2.34632C20 2.12652 20.1418 2.02287 19.9439 1.80486C19.7734 1.61723 19.6127 1.49393 19.3758 1.40637C18.7655 1.17942 18.0617 1.26698 17.446 1.41709C17.2532 1.46355 17.2275 1.64225 17.3005 1.78163C16.692 1.90315 16.0302 2.48213 15.7702 2.87705C15.2544 3.66153 15.1888 4.97496 15.7136 5.77731C16.125 6.40632 16.8997 6.91918 17.3148 6.08645C17.6325 5.45029 17.58 4.85701 17.5294 4.17439C17.5109 3.92421 17.5034 3.71335 17.53 3.52215C17.8596 3.07183 18.3079 2.75553 18.8119 2.75375C18.9389 2.88062 19.0462 3.07183 19.1649 3.1987C19.3431 3.38812 19.5572 3.54002 19.7979 3.64009C20.1707 3.79555 20.6876 3.8295 20.9459 3.45245C21.1779 3.11472 21.0424 2.69656 20.7138 2.49106Z" fill="#32187C"/>
<path d="M17.6925 4.34672C17.6925 4.34672 17.019 4.03353 16.885 4.57499C16.751 5.11467 17.2425 5.43495 17.5022 5.33586C17.7621 5.23677 17.8493 4.57499 17.6925 4.34672Z" fill="#FF505C"/>
<path d="M15.7751 2.49169C16.0285 1.81608 16.6495 1.47112 17.2956 1.24056C17.6306 1.12081 17.8667 1.62662 17.5277 1.74816C17.0336 1.92511 16.498 2.1521 16.3003 2.68115C16.1739 3.01717 15.6487 2.8295 15.7751 2.49169Z" fill="#5F40D4"/>
<path d="M19.1203 18.3989C19.2597 18.9346 20.3646 19.2185 20.7884 19.3909C21.6645 19.7491 22.3227 20.3085 23.1262 20.7596C22.9807 20.4977 22.8473 20.2358 22.7132 19.9671C22.0492 18.649 22.1945 17.7838 22.5962 17.0133C21.6645 17.4493 20.6211 17.309 19.6727 17.6723C19.3659 17.7889 19.0146 18.0069 19.1203 18.3989Z" fill="#796CED"/>
<path d="M26.4397 13.1283C26.2631 12.6572 24.7622 12.2429 24.7579 12.2377C24.4265 13.1454 23.8166 14.1185 24.0078 14.6222C24.0976 14.8594 25.5441 14.8646 25.5599 14.8027C25.5963 14.66 26.4489 13.1523 26.4397 13.1283Z" fill="#FF505C"/>
<path d="M20.6925 23.4313C16.8986 22.8973 13.7555 18.3744 12.7754 16.6522C11.3863 14.2116 11.151 9.7861 13.025 9.14941C13.7458 8.90587 14.801 9.91656 15.1257 10.2262C17.7855 12.7538 20.7579 17.6872 21.3975 18.0473C22.181 18.4857 23.0744 13.4566 23.9211 13.3922C23.9211 13.3922 26.4141 13.6027 26.4643 14.1559C26.4643 14.1559 27.823 24.4281 20.6925 23.4313Z" fill="#9E8AFF"/>
<path d="M25.0842 11.8847C25.4139 11.0614 26.2715 10.5362 27.0972 10.2728C27.4183 10.1688 28.1766 9.94175 28.4648 10.0735C28.7105 10.1879 28.6336 10.4842 28.3254 10.5293C27.9733 10.5796 27.2995 10.8049 27.0456 11.0163C27.562 10.8101 27.6531 11.4982 27.3899 11.7426C27.5952 11.7599 27.5658 12.1776 27.2085 12.3943C27.3964 12.344 27.4416 12.9281 26.747 13.1933C26.2845 13.4013 26.1123 13.4446 25.7892 13.3839C25.4172 13.3163 25.1621 13.0165 25.026 12.6785C24.9785 12.6456 24.9463 12.5901 24.9475 12.5104C24.9475 12.4809 24.9567 12.4549 24.959 12.4255C24.9273 12.2175 24.9737 12.0372 25.0842 11.8847Z" fill="#FF505C"/>
<path d="M25.1974 10.681C25.4476 10.5495 25.6415 10.9162 25.4431 11.0874C25.3681 11.1531 25.2852 11.2292 25.2192 11.3157C25.3794 11.4886 25.5124 11.6979 25.4884 11.9435C25.4682 12.1528 25.3826 12.6405 25.1806 12.7045C25.0668 12.7408 24.7383 12.9258 24.6945 12.7927C24.6064 12.5246 24.6669 11.2897 24.6783 11.2396C24.7415 10.9577 24.9539 10.8072 25.1974 10.681Z" fill="#FF505C"/>
<path d="M33.9358 10.648C33.1573 10.5546 32.5897 11.0388 32.3609 11.741C32.3412 11.7721 32.3134 11.7946 32.2969 11.8292C32.1438 12.1492 32.1744 12.4899 32.5378 12.623C32.9273 12.7666 33.3871 12.6351 33.603 12.2771C33.7533 12.0281 33.7163 11.613 34.077 11.5594C34.43 11.5058 34.8827 11.8361 35.1563 12.0194C35.3469 12.1492 35.5582 11.9727 35.5757 11.779C35.6569 10.8901 34.5962 10.7275 33.9358 10.648Z" fill="#FF505C"/>
</svg>
