<svg width="50" height="70" viewBox="0 0 50 70" fill="none" xmlns="http://www.w3.org/2000/svg">
<path d="M16.1483 23.281C15.4715 22.6453 14.2233 22.0128 13.2729 22.4131C12.815 22.6062 12.9332 22.91 13.3856 22.9208C14.2595 22.9403 14.8545 23.2267 13.5542 23.115C13.291 23.0933 12.7386 23.1779 12.7229 23.3765C12.6881 23.7984 13.633 23.754 14.0491 23.793C14.3541 23.9915 13.3658 24.0642 13.2091 24.1901C12.4998 24.7574 14.3446 24.6696 14.4037 24.79C14.5723 25.1274 13.3171 24.9874 13.7386 25.4203C14.0554 25.7435 15.239 25.3877 15.6102 25.4778C15.9143 25.5504 16.0719 25.8119 16.373 25.6079C17.0476 25.1545 16.4345 23.55 16.1483 23.281Z" fill="#FF505C"/>
<path fill-rule="evenodd" clip-rule="evenodd" d="M16.8122 33.5101L8.51279 37.4803C7.6656 37.8852 6.65377 37.5182 6.25353 36.6604L0.188841 23.6711C-0.211394 22.8122 0.151044 21.7892 0.997467 21.3832L9.29762 17.413C10.1447 17.008 11.1558 17.375 11.5569 18.2318L17.6215 31.2222C18.0209 32.08 17.6593 33.1041 16.8122 33.5101Z" fill="#312C2C"/>
<path fill-rule="evenodd" clip-rule="evenodd" d="M5.72988 20.6429C5.05058 20.9676 4.23902 20.6742 3.91827 19.9857C3.59675 19.2984 3.88752 18.4761 4.56682 18.1514C5.24601 17.8267 6.05769 18.1213 6.37843 18.8086C6.69995 19.497 6.40918 20.3171 5.72988 20.6429ZM4.24839 17.4696C3.19643 17.9729 2.7465 19.2426 3.24448 20.3082C3.74092 21.3727 4.99625 21.8279 6.04832 21.3247C7.09951 20.8215 7.54943 19.5506 7.05222 18.4861C6.55578 17.4217 5.29969 16.9664 4.24839 17.4696Z" fill="#312C2C"/>
<path fill-rule="evenodd" clip-rule="evenodd" d="M15.6649 32.8063L8.70356 36.136C7.99274 36.4751 7.14477 36.1681 6.80917 35.449L1.37809 23.8156C1.04238 23.0965 1.34657 22.2377 2.05739 21.8976L9.01792 18.5679C9.72874 18.2277 10.5775 18.5357 10.9132 19.2549L16.3442 30.8872C16.6791 31.6074 16.3757 32.4662 15.6649 32.8063Z" fill="white"/>
<path fill-rule="evenodd" clip-rule="evenodd" d="M7.69286 20.8467L4.63928 22.3076C4.31699 22.4609 3.93326 22.322 3.7811 21.9967L3.37842 21.1323L7.5968 19.1145L8.00024 19.9778C8.15153 20.3042 8.0144 20.6923 7.69286 20.8467Z" fill="#312C2C"/>
<path d="M10.9193 21.0068C10.8727 21.1066 10.7939 21.192 10.6884 21.2424L3.21707 24.8165C2.97592 24.9327 2.68671 24.8275 2.57404 24.5832C2.45985 24.3388 2.56224 24.0485 2.80339 23.9323L10.2746 20.3593C10.5158 20.2432 10.8042 20.3472 10.9177 20.5905C10.9815 20.7285 10.9775 20.8797 10.9193 21.0068Z" fill="#CDDEE7"/>
<path d="M11.5281 22.3133C11.4816 22.4122 11.4028 22.4971 11.2972 22.5471L3.82594 26.1223C3.58408 26.2376 3.29645 26.1332 3.18298 25.8895C3.06866 25.6448 3.17117 25.3533 3.41227 25.238L10.8835 21.6639C11.1246 21.5486 11.4122 21.652 11.5265 21.8967C11.5904 22.0337 11.5864 22.1849 11.5281 22.3133Z" fill="#CDDEE7"/>
<path d="M12.7452 24.9226C12.7003 25.0223 12.6206 25.108 12.5144 25.1584L5.04309 28.7324C4.80193 28.8481 4.5143 28.7442 4.40007 28.4998C4.28585 28.2555 4.38907 27.9651 4.63022 27.8483L12.1014 24.2743C12.3425 24.1596 12.6302 24.2636 12.7444 24.5079C12.8082 24.6451 12.8043 24.7962 12.7452 24.9226Z" fill="#CDDEE7"/>
<path d="M13.3543 26.2286C13.3086 26.3285 13.2298 26.4126 13.1235 26.4636L5.65305 30.0375C5.41191 30.1524 5.12348 30.0492 5.00927 29.8046C4.89579 29.5599 4.9974 29.2685 5.23938 29.1536L12.7106 25.5808C12.9517 25.4638 13.2393 25.5691 13.3536 25.8127C13.4174 25.9499 13.4135 26.1009 13.3543 26.2286Z" fill="#CDDEE7"/>
<path d="M13.9641 27.5333C13.9183 27.6315 13.8395 27.717 13.7331 27.7677L6.26262 31.3411C6.02152 31.4572 5.73234 31.3527 5.61888 31.1088C5.50543 30.865 5.607 30.5726 5.84893 30.4575L13.3202 26.8841C13.5613 26.768 13.8498 26.8725 13.9632 27.1163C14.027 27.2525 14.0231 27.4056 13.9641 27.5333Z" fill="#CDDEE7"/>
<path d="M15.7923 31.4476C15.7464 31.5466 15.6669 31.6312 15.561 31.6828L8.09008 35.2564C7.84897 35.3719 7.56056 35.2677 7.44714 35.0243C7.3328 34.7798 7.43532 34.4878 7.67715 34.3723L15.1472 30.7987C15.3887 30.6831 15.6771 30.7873 15.7913 31.0308C15.8555 31.168 15.8504 31.3207 15.7923 31.4476Z" fill="#CDDEE7"/>
<path d="M30.6336 21.2534C29.8472 22.9171 28.7657 24.9858 27.4368 26.6264C26.5253 27.7547 25.4954 28.6777 24.3638 29.1219C24.3189 29.1392 24.2739 29.1565 24.2235 29.1681V29.1727H24.218C20.6663 30.3933 16.1187 25.6065 16.1187 25.6065C16.1573 25.4415 16.1187 23.4674 16.1187 23.4674C16.4 23.479 20.7333 25.5442 21.9776 25.1738C22.3882 25.0596 26.4819 16.1585 28.1924 14.0783C28.271 13.9826 28.3679 13.8741 28.4693 13.7599C28.8454 13.333 28.4727 12.0178 29.0244 11.629C29.7732 11.0879 30.5892 10.781 31.2365 11.2471C33.2345 12.695 32.6714 16.9396 30.6336 21.2534Z" fill="#FF505C"/>
<path d="M30.2326 8.74954C30.5211 9.35398 31.8677 9.29074 32.339 9.32844C33.3828 9.41357 34.4496 9.34912 35.4119 8.89913C37.3258 8.00767 37.9469 5.89151 37.3065 3.93833C36.9978 2.99457 36.3899 1.90244 35.6546 1.22989C34.9698 0.602342 34.3787 0.885712 33.5354 0.936791C33.5137 0.939223 33.4993 0.947738 33.4813 0.952602C33.3527 0.916117 33.1987 0.953818 33.1317 1.11314C32.4493 2.72579 31.785 4.34696 31.1467 5.97786C30.9253 6.5446 29.9474 8.14996 30.2326 8.74954Z" fill="#241368"/>
<path d="M32.3707 12.1314C32.5149 13.6058 32.5634 14.8664 32.5634 14.8664C32.5634 14.8664 34.1399 15.5568 34.2253 16.5043C34.2703 16.9693 34.0464 17.5009 33.7083 18.0675C33.2466 18.8584 32.575 19.7206 32.1191 20.5851C29.0285 20.098 27.1061 17.3817 26.8232 15.1339C27.9044 12.3978 29.8629 9.03664 31.9264 8.62657C33.0239 8.40927 32.1468 9.83691 32.3707 12.1314Z" fill="#FF8888"/>
<path d="M32.5646 14.8661C32.5646 14.8661 30.4412 19.402 30.5276 20.3496C30.5703 20.8141 28.8319 19.2468 27.6306 17.5396C29.195 14.9326 28.358 14.0586 28.7247 12.5579C29.6146 8.90646 31.9271 8.62639 31.9271 8.62639C31.9271 8.62639 31.1363 10.4748 32.3709 12.1307C32.5162 13.6058 32.5646 14.8661 32.5646 14.8661Z" fill="#E55773"/>
<path d="M48.5673 65.1224L46.6541 66.1315C46.6541 66.1315 45.3203 64.1536 44.1503 62.4967C42.9793 60.8379 35.5604 52.792 35.5604 52.792C33.1683 49.1745 36.472 42.638 36.472 42.638L41.955 44.4616C41.955 44.4616 40.6761 47.9718 40.784 48.1252C40.9582 48.3772 41.1494 48.6436 41.3586 48.9349C42.1954 50.1146 43.232 51.6584 43.9808 54.0235C44.4257 55.413 46.2263 59.6812 47.437 62.4967C48.0902 64.0233 48.5673 65.1224 48.5673 65.1224Z" fill="#FF505C"/>
<path d="M32.1662 43.1339C32.1662 43.1339 31.6489 49.2417 31.2992 50.7169C31.2544 50.9003 31.2272 51.1054 31.2096 51.3272C31.2096 51.3499 31.2048 51.3775 31.1989 51.4071C31.0411 52.7226 29.6676 56.6324 27.3093 65.5328C27.2869 65.6176 27.2645 65.7034 27.247 65.7833C26.8135 67.4872 26.6791 68.7238 26.6791 68.7238L24.613 67.7939C24.613 67.7939 24.8663 65.8286 25.0631 63.8003C25.2598 61.7719 24.9111 50.775 24.9111 50.775C25.4683 46.4609 29.2225 38.1078 29.2225 38.1078L32.1662 43.1339Z" fill="#FF505C"/>
<path d="M47.9573 63.5406C47.9573 63.5406 49.8912 64.207 49.9945 65.7822C49.9945 65.7822 46.0277 68.7514 44.3717 69.6193C44.3717 69.6193 42.4765 68.969 43.6378 67.8674C44.7975 66.7666 46.01 65.1821 46.01 65.1821C46.01 65.1821 47.7676 65.2416 47.9573 63.5406Z" fill="#1F0D52"/>
<path d="M26.9449 67.1137C26.9449 67.1137 27.5046 68.9447 26.3562 69.9662C26.3562 69.9662 21.7056 68.6211 20.0498 67.8385C20.0498 67.8385 19.4169 65.9586 20.9558 66.2129C22.494 66.4681 24.744 66.7183 24.744 66.7183C24.744 66.7183 25.5243 67.9819 26.9449 67.1137Z" fill="#1F0D52"/>
<path d="M43.9813 54.022C43.2326 51.6579 42.1967 50.1134 41.3589 48.9342C41.0881 48.9001 40.7955 48.9342 40.4802 49.0593C40.3057 48.9857 40.0749 49.1108 40.0858 49.3159C40.0576 49.4134 40.0967 49.521 40.1757 49.5946C40.9927 51.6855 42.1576 53.5437 43.4016 55.4018C44.87 57.6067 45.9514 59.9543 46.97 62.4039C47.06 62.6265 47.3072 62.6265 47.4371 62.4959C46.2267 59.6801 44.4266 55.4128 43.9813 54.022Z" fill="#FC3C4C"/>
<path d="M28.3789 50.5467C28.1538 50.4893 28.0188 50.728 28.0638 50.9221C28.1313 51.1681 28.1763 51.4124 28.2213 51.6575C27.8559 51.2702 27.4391 50.8939 26.9656 50.5294C26.6847 50.307 26.3193 50.7453 26.6055 50.9677C27.2365 51.4579 27.8667 51.97 28.3446 52.597C28.6885 56.7112 26.7126 60.78 27.0394 64.9453C27.0511 65.1102 27.1348 65.7143 27.2473 65.7827C27.2644 65.7034 27.287 65.6177 27.3095 65.5321C29.6679 56.632 31.0415 52.7227 31.1991 51.4069C30.3997 50.8711 29.2007 50.7453 28.3789 50.5467Z" fill="#FC3C4C"/>
<path d="M43.5874 48.8596C43.5874 48.8596 42.4442 49.4756 40.5982 50.1654C36.0672 51.8683 27.303 54.057 20.791 48.8596C20.791 48.8596 25.3499 48.4778 24.4713 42.6373C23.3517 35.1687 26.4759 25.0765 30.8044 23.5668C35.1383 22.0505 40.7846 23.5668 40.7846 23.5668C40.7846 23.5668 42.0114 24.3195 43.0249 26.0451C43.7396 27.2642 44.3524 28.9735 44.3524 31.2414C44.3524 35.7436 40.3057 39.0765 43.5874 48.8596Z" fill="#5F40D4"/>
<path d="M44.353 31.2416C44.353 28.973 43.7393 27.2641 43.0252 26.045C42.3099 26.204 41.601 26.5009 40.9653 26.8083C40.8805 26.8486 40.8355 26.9101 40.8124 26.9843C40.6438 27.0362 40.5255 27.2239 40.6669 27.3945C43.9079 31.3667 40.7454 36.3184 39.5013 40.404C38.9379 42.2496 38.7023 44.1249 39.1296 46.033C39.3777 47.1281 39.7767 48.1766 40.205 49.207C40.3234 49.4921 40.4407 49.8451 40.5988 50.1653C42.445 49.4752 43.5875 48.8593 43.5875 48.8593C40.3066 39.0757 44.353 35.7427 44.353 31.2416Z" fill="#32187C"/>
<path d="M26.0649 27.8751C34.5311 31.6133 43.695 26.7463 43.7333 26.7298C43.5754 26.4217 41.8864 23.3515 41.3695 22.172C41.1163 21.5959 40.9699 20.9009 40.9014 20.1942C40.7782 19.0665 40.8351 17.9094 40.9141 17.151C40.9467 16.7817 40.9862 16.5019 41.0036 16.3713C41.0094 16.3537 41.014 16.3361 41.014 16.3255C41.6959 12.8954 43.1758 8.8268 39.2414 7.57329C38.7582 7.41337 38.1832 7.30519 37.5188 7.24169H37.513C36.7997 7.17348 35.9715 7.16878 35.0202 7.22522C35.0202 7.22522 33.8272 7.64619 32.453 8.3482C31.9861 8.58691 31.4901 8.8609 31.0173 9.1631C29.599 10.0627 29.29 11.8688 29.3411 13.1C29.3748 13.9549 30.6038 16.3137 30.505 16.7664C29.7872 20.0707 26.7182 26.7016 26.0649 27.8751Z" fill="#FF8888"/>
<path d="M32.5377 16.69C33.7815 17.648 35.5478 17.6596 36.9891 18.2177C38.2558 18.7129 39.5673 19.8987 40.9018 20.1952C40.7778 19.0663 40.8341 17.9096 40.9133 17.1527C40.9018 17.1353 40.8846 17.1179 40.8731 17.1062C40.9133 16.8667 40.9512 16.6214 41.0029 16.3726C41.0029 16.354 41.0029 16.3424 41.0086 16.3261C40.7652 15.8634 40.3839 15.317 39.7637 14.7369C38.1318 13.1744 38.2719 9.34023 38.2719 9.34023C37.9009 11.255 38.0813 14.1835 38.7117 15.3577C39 15.8762 39.472 16.6214 39.9785 17.2376C39.9785 17.2609 39.9613 17.2771 39.9613 17.3062C40.0003 17.9328 36.1783 16.6505 35.7235 16.5308C34.7037 16.2517 33.7023 16.1087 32.6434 16.1715C32.3861 16.189 32.3563 16.554 32.5377 16.69Z" fill="#E55773"/>
<path d="M33.4089 6.02925V7.63649C33.4089 7.63649 32.9827 8.42822 33.4089 8.515C34.3472 8.70402 35.7012 7.22398 35.7012 7.22398V5.06752L33.4089 6.02925Z" fill="#FF505C"/>
<path d="M35.7007 6.43636V5.20924C35.7007 5.20924 34.5343 6.33657 33.4089 6.40072C33.4089 6.40072 34.7655 7.06833 35.7007 6.43636Z" fill="#FC3C4C"/>
<path d="M32.9637 1.34609C32.9637 1.34609 32.1193 3.07992 31.9089 4.69379C31.7583 5.83998 33.8314 7.3533 35.5202 5.73821C37.209 4.12433 36.7399 1.65506 36.7399 1.65506L32.9637 1.34609Z" fill="#FF505C"/>
<path d="M32.5325 21.2903C32.5325 21.2903 32.9606 23.1426 33.005 23.3017C33.005 23.3017 33.5914 23.644 34.5592 24.0993C36.997 25.245 42.6195 26.4587 46.4464 25.5989C50.1845 24.7552 49.2952 17.4382 46.2995 13.8558C46.295 13.8374 46.2779 13.827 46.2665 13.8086C43.897 10.9604 41.235 16.5611 41.7018 17.0118C41.8703 17.1766 42.0513 17.4048 42.2358 17.6664C43.1991 19.0231 44.2341 21.3595 43.9528 21.5358C43.6944 21.6949 42.591 21.9289 41.9386 21.9692C40.7613 22.0372 39.1069 21.9416 37.5082 21.7986C35.009 21.5877 32.6623 21.2627 32.5325 21.2903Z" fill="#FF505C"/>
<path d="M37.5931 22.1506C39.3494 23.2797 42.6648 23.7178 44.5718 22.7436C46.7057 21.6501 44.606 19.0797 43.6943 17.6374C43.7956 17.4557 43.6778 17.1537 43.4124 17.2105C43.3904 17.2172 43.3628 17.2228 43.3397 17.2283C43.2439 17.2105 43.1437 17.2395 43.0689 17.2963C42.7771 17.3822 42.4842 17.5014 42.2364 17.6664C43.1988 19.0229 44.2349 21.3592 43.953 21.5353C43.6943 21.6947 42.591 21.9288 41.938 21.9689C40.7621 22.0369 39.1071 21.941 37.5084 21.7984C37.4401 21.9109 37.4522 22.0536 37.5931 22.1506Z" fill="#FC3C4C"/>
<path d="M41.9141 18.2652C41.4825 17.8495 38.6903 14.9959 38.2762 12.3231C38.0871 11.1077 37.8609 8.33749 39.3562 7.98872C41.7505 7.42622 44.9499 10.9457 47.1586 13.602C46.1447 15.9142 44.603 17.5336 41.9141 18.2652Z" fill="#FF8888"/>
<path d="M33.838 23.5769C33.6136 23.9144 33.3472 23.7167 33.0084 23.7724C32.5952 23.8434 31.538 24.7181 31.085 24.5248C30.4808 24.266 31.8121 23.8652 31.5046 23.5933C31.3935 23.4972 29.5563 24.385 30.0461 23.4983C30.154 23.3017 31.1281 22.8005 30.7365 22.7273C30.2996 22.8693 29.3557 23.3225 29.2197 22.878C29.155 22.6672 29.6815 22.3418 29.9587 22.2512C31.3244 21.8012 30.6038 21.7674 29.7074 22.1245C29.2424 22.309 28.9997 22.0502 29.387 21.6549C30.1874 20.8348 31.7139 20.9407 32.66 21.2978C33.0602 21.4485 34.3375 22.8212 33.838 23.5769Z" fill="#FF505C"/>
<path d="M32.2535 21.4038C32.1063 21.3217 31.983 21.176 31.8412 21.0807C31.6844 20.9756 31.4939 20.8266 31.4106 20.6481C31.2721 20.3546 31.5675 20.3107 31.7807 20.3765C32.1723 20.4948 32.7782 21.2461 33.0238 21.5539C33.0552 21.5955 32.4028 21.4882 32.2535 21.4038Z" fill="#FF505C"/>
<path d="M16.5302 25.1567C16.2582 25.0974 15.947 25.0112 15.7484 24.7977C15.6791 24.7223 15.6334 24.6285 15.5916 24.5315C15.8265 24.7331 16.2385 24.4701 16.0297 24.2006C15.6988 23.7727 15.33 23.3157 14.7657 23.2273C14.2536 23.1454 13.6846 23.4019 13.3395 23.7727C13.1393 23.9883 13.3504 24.3008 13.6176 24.2459C13.9281 24.1812 14.2953 24.0228 14.5893 24.1456C14.9478 24.2965 14.988 24.6986 15.1826 24.9939C15.4569 25.4121 16.5624 26.1419 17.0274 26.2443C17.3804 26.3219 16.8856 25.2354 16.5302 25.1567Z" fill="#FF505C"/>
<path d="M31.9153 2.26659C32.1761 2.65096 32.697 2.61679 33.0736 2.45817C33.3164 2.35567 33.5323 2.20192 33.7116 2.00669C33.8322 1.87735 33.9407 1.68334 34.0684 1.55278C34.5759 1.55644 35.0291 1.87857 35.3618 2.33737C35.3883 2.5326 35.3811 2.74857 35.3618 3.0036C35.3112 3.69911 35.2593 4.30555 35.5788 4.9547C35.821 5.44766 36.1863 5.47084 36.5322 5.28415C36.3393 6.26886 36.0151 7.22915 35.7825 7.90759C35.2834 9.36939 33.8756 9.97949 33.2353 11.3327C33.1493 11.5157 33.3173 11.6804 33.4764 11.7122C36.0826 12.2503 41.4537 13.1069 41.2126 8.79101C41.103 6.81917 40.1917 4.77899 39.0044 3.2513C38.0654 2.04208 37.2458 0.354537 35.58 0.277664C35.551 0.238618 35.5113 0.204453 35.4462 0.18859C34.8254 0.0372849 34.1142 -0.05301 33.4993 0.178828C33.2605 0.267902 33.0981 0.394804 32.9264 0.585155C32.7261 0.807232 32.8696 0.91339 32.5245 1.13791C32.4149 1.20868 32.2644 1.21356 32.1494 1.28555C31.8175 1.49421 31.6812 1.92128 31.9153 2.26659Z" fill="#32187C"/>
</svg>
