<svg width="40" height="70" viewBox="0 0 40 70" fill="none" xmlns="http://www.w3.org/2000/svg">
<path d="M22.3134 65.0967C22.0944 64.8213 19.727 65.0515 19.703 65.195C19.6306 65.6334 19.518 67.316 19.7443 67.5391C19.9634 67.7544 22.328 67.7466 22.3742 67.3207C22.414 66.9533 22.5251 65.3635 22.3134 65.0967Z" fill="#FF505C"/>
<path d="M19.5768 67.025C19.5768 67.025 18.4827 68.6025 19.2651 69.8413C19.2651 69.8413 24.966 70.1119 26.6878 69.8413C26.6878 69.8413 26.7323 67.7233 25.2568 67.5432C23.7812 67.363 22.3041 67.4159 22.3041 67.4159C22.3041 67.4159 20.649 68.197 19.5768 67.025Z" fill="#1F0D52"/>
<path d="M9.70458 65.0967C9.48551 64.8213 7.11821 65.0515 7.09406 65.195C7.02176 65.6334 6.90905 67.316 7.13547 67.5391C7.35447 67.7544 9.71921 67.7466 9.76535 67.3207C9.80514 66.9533 9.91622 65.3635 9.70458 65.0967Z" fill="#FF505C"/>
<path d="M6.96798 67.025C6.96798 67.025 5.87388 68.6025 6.65617 69.8413C6.65617 69.8413 12.3571 70.1119 14.0789 69.8413C14.0789 69.8413 14.1234 67.7233 12.6479 67.5432C11.1724 67.363 9.69528 67.4159 9.69528 67.4159C9.69528 67.4159 8.0401 68.197 6.96798 67.025Z" fill="#1F0D52"/>
<path d="M25.8501 45.7243C25.8501 50.8605 23.923 61.6645 22.6281 66.322H19.2747C19.259 66.295 19.2359 60.963 19.2411 58.8979C19.2411 55.1616 18.2368 49.0172 17.9685 45.6373C17.8233 43.8209 17.8768 39.295 16.7183 36.2943C16.5034 35.7379 16.2996 35.2022 16.1119 34.6945C15.4303 32.8335 14.9959 31.3902 15.2961 31.0441C16.1224 30.0981 23.2318 23.0803 25.0133 26.941C26.8859 31.0006 25.8501 40.5881 25.8501 45.7243Z" fill="#5F40D4"/>
<path d="M20.42 54.7921C20.3828 52.8827 20.6401 50.9851 20.5867 49.0767C20.5436 47.4383 20.2215 45.8321 19.8887 44.2375C19.5024 42.3721 19.1111 40.5066 19.1058 38.5982C19.1002 37.2405 19.6744 35.646 19.3951 34.3263C19.2453 33.6177 18.7517 33.1041 18.0003 33.1206C17.0665 33.143 16.5085 33.9267 16.1118 34.6947C16.2995 35.2025 17.3867 45.0387 18.9833 57.9519C19.5973 62.9198 19.2746 66.3174 19.2746 66.3223C19.6104 66.3223 20.0899 66.371 20.9912 66.3223C21.7478 62.9704 20.4898 58.1274 20.42 54.7921Z" fill="#32187C"/>
<path d="M17.4155 29.5856C17.4155 29.5856 17.4102 29.7631 17.4045 30.0979C17.3888 30.753 17.2059 31.9583 16.9324 33.5534C16.8146 34.2402 16.7218 37.2364 16.5824 38.059C15.9976 41.3839 15.1996 43.4372 14.7112 47.801C14.1369 52.9046 11.4275 61.0607 10.0861 66.5011H6.76611C6.76611 66.5011 7.47725 58.5369 7.90634 57.0398C8.42718 55.2069 7.14032 52.8066 7.15652 50.5849C7.17272 49.0062 7.12462 47.4438 7.10315 46.0701C7.09738 45.6109 7.09211 45.1619 7.09211 44.7139C7.13505 37.5283 6.69492 34.5269 8.9218 29.0824C8.9538 28.9957 8.98621 28.9089 9.02348 28.8222C9.3835 27.9578 9.84449 27.0383 10.435 26.0433C10.6174 25.7402 11.0356 25.6269 11.6099 25.6973C12.9942 25.8596 15.2582 27.0975 17.1362 29.2549C17.2331 29.3631 17.3244 29.4713 17.4155 29.5856Z" fill="#5F40D4"/>
<path d="M10.7944 29.5635C10.1341 29.2067 9.50642 29.0608 8.92164 29.0827C6.69481 34.5268 7.13488 37.5282 7.09193 44.7143C7.09193 45.1621 7.09719 45.6108 7.10294 46.0706C7.13488 47.5358 7.2046 49.055 7.1564 50.5852C7.11345 52.2133 7.13597 56.8958 7.00138 58.5599C6.76602 61.4613 6.63391 65.6181 6.76602 66.5016H8.41552C9.19885 63.7821 9.31361 60.5288 9.83392 57.7493C10.3595 54.9438 10.1394 51.9914 10.0267 49.1579C9.957 47.4978 9.83907 45.8377 9.59241 44.1886C9.3508 42.5775 8.98085 40.9943 8.91123 39.3662C8.76612 36.1869 9.55988 33.0776 10.8048 30.1802C10.8425 30.0982 10.8372 30.0292 10.8048 29.9743C10.939 29.8663 10.9819 29.6604 10.7944 29.5635Z" fill="#32187C"/>
<path d="M21.7687 16.1394C21.7687 16.1394 21.6989 16.8433 21.8442 17.8482C22.1821 20.2111 23.6895 24.2286 29.9999 24.6122C36.9158 25.023 36.3095 17.778 35.6603 14.426C35.4728 13.4211 35.2741 12.7602 35.2741 12.7602C35.1772 12.1118 32.4573 12.1763 32.4573 12.1763C31.6525 12.3449 30.9923 18.6109 30.2037 18.1786C29.4203 17.7463 24.7417 9.70016 21.8227 8.33763C20.041 7.51037 21.7687 16.1394 21.7687 16.1394Z" fill="#5F40D4"/>
<path d="M35.6604 14.426C35.4566 17.0158 35.2097 20.2978 33.16 22.1246C30.8367 24.2015 27.6174 23.0121 25.7075 21.0003C25.3281 20.603 24.9786 20.2025 24.6255 19.8187C23.0399 16.6713 24.3205 12.6655 22.8701 9.39128C22.7297 9.07485 22.2235 9.25551 22.3646 9.57305C22.7758 10.5021 22.9702 11.4839 23.0724 12.486C22.9843 12.5286 22.9163 12.6161 22.9189 12.7452C22.933 13.4622 22.9193 14.2128 22.9189 14.9714C22.8513 16.099 22.7554 17.275 22.91 18.3331C22.5877 18.139 22.2398 17.9707 21.8442 17.8484C22.1822 20.2114 23.6901 24.2285 29.9999 24.6122C36.9158 25.0229 36.3096 17.7788 35.6604 14.426Z" fill="#32187C"/>
<path d="M26.1345 29.082C26.0538 29.3359 19.4543 30.8719 17.4318 31.1848C15.2583 31.526 12.694 31.6393 10.8213 31.5521C9.38352 31.4829 8.34748 31.2981 8.20822 31.0068C7.92362 30.3901 8.50317 24.9728 8.38528 20.9815C8.36379 20.3388 8.35277 19.6892 8.34748 19.0465C8.31036 14.8942 8.57865 10.9086 9.50659 10.1899C9.71053 10.0278 9.94676 9.86115 10.2098 9.68205C10.6012 9.41226 11.0575 9.13 11.5721 8.86021C12.377 8.43285 13.3217 8.03837 14.3785 7.76744C16.0045 7.34122 17.8987 7.20066 19.9804 7.68129C19.9804 7.68129 19.9804 7.68696 19.9856 7.68696C20.4897 7.80032 21.0048 7.95108 21.5308 8.15173C21.6545 8.1948 21.7776 8.24355 21.9065 8.29229C23.6667 9.00644 23.414 12.8663 23.13 16.106C23.0012 17.6091 22.867 18.9762 22.9204 19.8309C22.942 20.1177 22.9739 20.4034 23.0279 20.6856C23.425 23.0695 25.8395 27.3465 26.1345 29.082Z" fill="#FFDEDB"/>
<path d="M10.9181 11.6044C9.79158 13.0647 9.60875 16.8518 8.66977 18.4413C8.55139 18.6406 8.4445 18.8411 8.34745 19.0461C8.35276 19.6899 8.36381 20.3393 8.38525 20.982C8.50319 24.9729 7.92367 30.3907 8.20818 31.0066C8.34745 31.2985 9.38348 31.4823 10.8213 31.5524C11.0784 31.088 10.9716 30.5578 10.9286 30.0498C10.8479 29.0652 10.7568 28.0817 10.6709 27.097C10.4885 24.9785 10.2795 22.929 10.7138 20.8249C11.1592 18.6629 12.1391 16.9743 12.5823 14.8146C13.1189 12.2026 11.7166 10.7278 11.69 10.6788C11.8455 10.4148 11.1225 11.3393 10.9181 11.6044Z" fill="#FFB4B7"/>
<path d="M39.0852 20.7232C38.8111 20.6464 38.4507 20.557 38.164 20.597C37.9607 20.6254 37.8151 20.7358 37.6919 20.8967C37.4426 21.2227 37.2523 21.6129 37.0407 21.9641C37.0259 21.9883 37.0244 22.0062 37.0291 22.0199C37.0171 22.044 37.0133 22.0693 37.027 22.0914C37.2927 22.5131 37.8067 22.2954 38.0571 21.982C38.142 21.8758 38.1939 21.7496 38.2724 21.6413C38.5465 21.2585 38.7232 21.411 39.0385 21.3405C39.1847 21.3069 39.3488 21.2017 39.3724 21.0387C39.4 20.842 39.244 20.7663 39.0852 20.7232Z" fill="#FF505C"/>
<path fill-rule="evenodd" clip-rule="evenodd" d="M20.6443 11.0689C20.6653 15.4089 20.3147 27.3881 16.1118 34.7459C16.1118 34.7459 31.8124 32.2695 36.3626 34.0468C36.3742 34.0502 36.3857 34.0445 36.3857 34.032C36.3999 33.3545 36.7405 17.9239 39.0439 11.7442C39.5698 10.3323 38.7383 8.79109 37.2723 8.48693C33.5886 7.72311 27.521 6.9786 22.2943 8.75704C21.3077 9.09184 20.6396 10.0202 20.6443 11.0689Z" fill="#EEF9FB"/>
<path d="M38.2473 24.1823C38.242 24.1552 38.2206 24.1332 38.1943 24.1176C38.317 24.0789 38.4427 24.0215 38.4862 23.9107C38.5417 23.7676 38.4343 23.6297 38.3552 23.5253C38.3515 23.5201 38.3463 23.5169 38.3416 23.5138C38.6199 23.4636 38.8792 23.3446 38.9137 23.0897C38.9467 22.8484 38.7633 22.7178 38.5271 22.6426C38.6266 22.6165 38.7215 22.582 38.8048 22.5381C39.1348 22.3658 38.9844 21.9772 38.7241 21.8174C38.5511 21.7108 38.0775 21.7046 37.8098 21.7296C37.6252 21.7474 37.3518 21.7536 37.1952 21.8706C36.9154 22.0785 37.2192 22.3491 37.444 22.4974C37.1737 22.4744 36.9149 22.5235 36.9305 22.863C36.941 23.0939 37.061 23.2568 37.2266 23.3655C37.0945 23.379 36.9708 23.4114 36.8692 23.4793C36.6104 23.6527 36.8403 23.9462 37.0254 24.0726C37.1134 24.1322 37.2087 24.1719 37.3072 24.198C37.2894 24.2105 37.2732 24.2251 37.2606 24.245C37.1558 24.4059 37.3502 24.6179 37.4775 24.6963C37.8574 24.9302 38.3379 24.6388 38.2473 24.1823Z" fill="#FF505C"/>
<path d="M16.2476 7.42757L15.9919 7.46043L16.8309 9.46802L18.4327 8.26029L19.9144 9.17232L18.8958 7.48309C18.8958 7.48309 18.2261 7.30181 17.939 7.42757C17.6524 7.55333 17.8033 8.05976 17.8033 8.05976L16.2476 7.42757Z" fill="#FFB4B7"/>
<path d="M18.4325 5.6917V7.42582C18.4325 7.42582 18.8391 8.17804 18.4325 8.26073C17.5381 8.44103 16.2476 7.42812 16.2476 7.42812V4.77985L18.4325 5.6917Z" fill="#FF505C"/>
<path d="M16.2473 6.53114V5.65096C16.2473 5.65096 17.19 6.43512 18.2631 6.49684C18.2631 6.49684 17.2199 7.24327 16.2473 6.53114Z" fill="#FC3C4C"/>
<path d="M19.4072 1.98579C19.4072 1.98579 19.8054 3.77561 19.6435 5.31174C19.5282 6.40247 17.2725 7.3307 16.0658 5.45905C14.8585 3.58856 15.8405 1.41764 15.8405 1.41764L19.4072 1.98579Z" fill="#FF505C"/>
<path d="M19.2012 0.018486C18.8951 0.0396919 18.6844 0.164572 18.4047 0.27178C17.9336 0.456744 17.5359 0.454388 17.0476 0.462635C16.445 0.473238 15.8712 0.518005 15.4117 0.953907C14.6854 1.64192 14.4602 3.28068 14.9034 4.26676C14.9218 4.45643 14.9779 4.62844 15.1937 4.7545C15.5249 4.94771 15.9126 4.8134 16.0997 4.4906C16.3805 4.00875 16.2166 3.33016 16.2344 2.80236C16.2386 2.68338 16.2595 2.5314 16.2595 2.38414C17.6444 2.62683 19.5029 2.87187 20.4251 1.87755C21.372 0.853768 20.3434 -0.0592694 19.2012 0.018486Z" fill="#32187C"/>
<path d="M15.9917 7.46121L16.2474 7.09827C16.2474 7.09827 16.5586 7.57236 16.9296 7.87066C17.3001 8.17122 17.3236 8.51715 17.3236 8.51715L15.9917 7.46121Z" fill="#FFB4B7"/>
<path d="M18.4327 8.26053L17.7368 8.78462L18.3399 9.46875L18.9603 9.4293L19.2039 8.73503L18.4327 8.26053Z" fill="#32187C"/>
<path d="M18.9602 9.42902C18.9602 9.42902 20.6138 13.3319 20.1308 17.6245L18.9602 18.8743L18.072 17.8272C18.072 17.8272 18.9434 12.2612 18.3397 9.46821L18.9602 9.42902Z" fill="#32187C"/>
<path d="M19.0587 26.1302C19.2541 26.4181 19.4852 26.2437 19.7797 26.2891C20.1392 26.3428 21.0614 27.0808 21.4549 26.9094C21.9799 26.6793 20.8214 26.3531 21.0876 26.1168C21.183 26.0321 22.7832 26.7701 22.3556 26.0166C22.2614 25.8505 21.4125 25.4314 21.7525 25.3654C22.1334 25.481 22.954 25.8587 23.072 25.4748C23.1275 25.2942 22.6684 25.0217 22.4284 24.9474C21.239 24.5789 21.8657 24.5407 22.6459 24.8349C23.0503 24.9876 23.2605 24.7626 22.9235 24.4292C22.2246 23.7367 20.8979 23.8461 20.0758 24.163C19.7283 24.2971 18.6223 25.4882 19.0587 26.1302Z" fill="#FF505C"/>
<path d="M20.431 24.2484C20.5572 24.176 20.6651 24.0508 20.7877 23.9669C20.923 23.8748 21.0891 23.7445 21.1614 23.5913C21.2803 23.3378 21.0236 23.3036 20.8381 23.3616C20.4991 23.4682 19.9735 24.1201 19.7613 24.3881C19.733 24.4222 20.301 24.3229 20.431 24.2484Z" fill="#FF505C"/>
<path d="M1.38236 29.0798C3.86654 33.0922 19.7797 26.2893 19.7797 26.2893L19.4769 24.687C19.3108 24.649 7.12719 26.2658 7.10576 24.9678C7.09477 24.4006 11.5286 17.2385 12.1622 14.524C12.4838 13.1556 12.2104 11.9718 11.8777 11.0577C11.416 9.7877 9.96202 9.59189 8.7815 10.2364C6.39003 11.541 3.46415 14.6851 1.75278 18.081C-0.128819 21.8137 -0.763938 25.6191 1.38236 29.0798Z" fill="#FFDEDB"/>
<path fill-rule="evenodd" clip-rule="evenodd" d="M20.8669 10.0465C20.8669 10.0465 23.8692 9.69453 23.361 11.8289C23.361 11.8289 37.0829 10.6338 39.6236 12.767C39.6236 12.767 40.593 10.395 39.2018 9.25119C37.3684 7.74408 22.4289 5.72622 20.8669 10.0465Z" fill="#D3E7EC"/>
</svg>
