<svg width="407px" height="512px" viewBox="0 0 407 512" version="1.1" xmlns="http://www.w3.org/2000/svg" xmlns:xlink="http://www.w3.org/1999/xlink"> <g id="Page-1" stroke="none" stroke-width="1" fill="none" fill-rule="evenodd"> <g id="window" fill-rule="nonzero"> <path d="M406.070312,476.691406 L0,476.691406 L21.1875,448.441406 C24.53125,444.011719 29.757812,441.398438 35.308594,441.378906 L370.757812,441.378906 C376.3125,441.398438 381.535156,444.011719 384.882812,448.441406 L406.070312,476.691406 Z" id="Path" fill="#CBB292"></path> <path d="M406.070312,476.691406 L406.070312,503.171875 C406.070312,508.046875 402.117188,512 397.242188,512 L8.828125,512 C3.953125,512 0,508.046875 0,503.171875 L0,476.691406 L406.070312,476.691406 Z" id="Path" fill="#7F6E5D"></path> <path d="M61.792969,476.691406 C61.792969,481.566406 57.839844,485.515625 52.964844,485.515625 L0,485.515625 L0,476.691406 L6.621094,467.863281 L52.964844,467.863281 C57.839844,467.863281 61.792969,471.8125 61.792969,476.691406 L61.792969,476.691406 Z" id="Path" fill="#FDD7AD"></path> <path d="M406.070312,476.691406 L406.070312,485.515625 L88.277344,485.515625 C83.402344,485.515625 79.449219,481.566406 79.449219,476.691406 C79.449219,471.8125 83.402344,467.863281 88.277344,467.863281 L399.449219,467.863281 L406.070312,476.691406 Z" id="Path" fill="#FDD7AD"></path> <path d="M203.035156,0 C110.402344,0 35.308594,75.09375 35.308594,167.722656 L35.308594,441.378906 L370.757812,441.378906 L370.757812,167.722656 C370.757812,75.09375 295.664062,2.84217094e-14 203.035156,0 Z" id="Path" fill="#7F6E5D" opacity="0.19640532"></path> <path d="M182.90625,138.769531 C173.390625,145.335938 167.714844,156.164062 167.722656,167.722656 L70.621094,167.722656 C70.632812,130.441406 86.371094,94.894531 113.964844,69.828125 L182.90625,138.769531 Z" id="Path" fill="#90BAE1" opacity="0.19640532"></path> <path d="M203.035156,35.3085013 L203.035156,132.414062 C195.835938,132.4375 188.8125,134.652344 182.90625,138.769531 L113.964844,69.828125 C138.289062,47.582031 170.070312,35.269531 203.035156,35.3085013 Z" id="Path" fill="#B0D3F0" opacity="0.19640532"></path> <path d="M292.105469,69.828125 L223.160156,138.769531 C217.253906,134.652344 210.234375,132.4375 203.035156,132.414062 L203.035156,35.3085013 C235.996094,35.269531 267.777344,47.582031 292.105469,69.828125 Z" id="Path" fill="#90BAE1" opacity="0.19640532"></path> <path d="M335.449219,167.722656 L238.34375,167.722656 C238.355469,156.164062 232.675781,145.335938 223.160156,138.769531 L292.105469,69.828125 C319.699219,94.894531 335.4375,130.441406 335.449219,167.722656 Z" id="Path" fill="#B0D3F0" opacity="0.19640532"></path> <path d="M75.035156,203.035156 L180.964844,203.035156 C183.402344,203.035156 185.378906,205.011719 185.378906,207.449219 L185.378906,401.65625 C185.378906,404.09375 183.402344,406.070312 180.964844,406.070312 L75.035156,406.070312 C72.597656,406.070312 70.621094,404.09375 70.621094,401.65625 L70.621094,207.449219 C70.621094,205.011719 72.597656,203.035156 75.035156,203.035156 Z" id="Path" fill="#90BAE1" opacity="0.19640532"></path> <path d="M238.34375,167.722656 L167.722656,167.722656 C167.722656,148.222656 183.53125,132.414062 203.035156,132.414062 C222.535156,132.414062 238.34375,148.222656 238.34375,167.722656 Z" id="Path" fill="#FFFFFF" opacity="0.19640532"></path> <path d="M185.378906,207.449219 L185.378906,273.65625 C133.234375,299.34375 92.382812,343.339844 70.621094,397.242188 L70.621094,207.449219 C70.621094,205.011719 72.597656,203.035156 75.035156,203.035156 L180.964844,203.035156 C183.402344,203.035156 185.378906,205.011719 185.378906,207.449219 Z" id="Path" fill="#B0D3F0" opacity="0.19640532"></path> <path d="M105.929688,247.171875 C104.777344,247.160156 103.636719,246.917969 102.578125,246.464844 C101.496094,246.039062 100.507812,245.410156 99.664062,244.613281 C96.25,241.132812 96.25,235.558594 99.664062,232.078125 C100.507812,231.277344 101.496094,230.648438 102.578125,230.222656 C105.863281,228.839844 109.660156,229.574219 112.199219,232.078125 C112.976562,232.9375 113.605469,233.921875 114.050781,234.992188 C114.546875,236.039062 114.789062,237.1875 114.757812,238.34375 C114.722656,240.683594 113.808594,242.917969 112.199219,244.613281 C110.515625,246.238281 108.269531,247.15625 105.929688,247.171875 Z" id="Path" fill="#FFFFFF" opacity="0.19640532"></path> <path d="M105.929688,291.308594 C102.359375,291.308594 99.144531,289.160156 97.777344,285.859375 C96.410156,282.5625 97.167969,278.765625 99.691406,276.242188 L143.828125,232.105469 C147.292969,228.757812 152.796875,228.804688 156.203125,232.210938 C159.609375,235.617188 159.65625,241.121094 156.308594,244.585938 L112.171875,288.722656 C110.515625,290.378906 108.273438,291.308594 105.929688,291.308594 Z" id="Path" fill="#FFFFFF" opacity="0.19640532"></path> <path d="M225.101562,203.035156 L331.035156,203.035156 C333.472656,203.035156 335.449219,205.011719 335.449219,207.449219 L335.449219,401.65625 C335.449219,404.09375 333.472656,406.070312 331.035156,406.070312 L225.101562,406.070312 C222.664062,406.070312 220.691406,404.09375 220.691406,401.65625 L220.691406,207.449219 C220.691406,205.011719 222.664062,203.035156 225.101562,203.035156 L225.101562,203.035156 Z" id="Path" fill="#90BAE1" opacity="0.19640532"></path> <path d="M335.449219,207.449219 L335.449219,273.65625 C283.304688,299.34375 242.449219,343.339844 220.691406,397.242188 L220.691406,207.449219 C220.691406,205.011719 222.664062,203.035156 225.101562,203.035156 L331.035156,203.035156 C333.472656,203.035156 335.449219,205.011719 335.449219,207.449219 Z" id="Path" fill="#B0D3F0" opacity="0.19640532"></path> <g id="Group" opacity="0.19640532" transform="translate(247.000000, 229.000000)" fill="#FFFFFF"> <path d="M9,18.171875 C7.847656,18.160156 6.707031,17.917969 5.644531,17.464844 C4.566406,17.039062 3.578125,16.410156 2.730469,15.613281 C-0.679688,12.132812 -0.679688,6.558594 2.730469,3.078125 C3.578125,2.277344 4.566406,1.648438 5.644531,1.222656 C8.933594,-0.160156 12.730469,0.574219 15.269531,3.078125 C16.046875,3.9375 16.671875,4.921875 17.121094,5.992188 C17.617188,7.039062 17.859375,8.1875 17.828125,9.34375 C17.792969,11.683594 16.878906,13.917969 15.269531,15.613281 C13.585938,17.238281 11.339844,18.15625 9,18.171875 L9,18.171875 Z" id="Path"></path> <path d="M9,62.308594 C5.429688,62.308594 2.210938,60.160156 0.847656,56.859375 C-0.519531,53.5625 0.234375,49.765625 2.757812,47.242188 L46.898438,3.105469 C50.359375,-0.242188 55.867188,-0.195312 59.273438,3.210938 C62.675781,6.617188 62.722656,12.121094 59.378906,15.585938 L15.242188,59.722656 C13.585938,61.378906 11.339844,62.308594 9,62.308594 L9,62.308594 Z" id="Path"></path> </g> </g> </g></svg>
                                