
<svg width="267px" height="512px" viewBox="0 0 267 512" version="1.1" xmlns="http://www.w3.org/2000/svg" xmlns:xlink="http://www.w3.org/1999/xlink">
    <g id="Page-1" stroke="none" stroke-width="1" fill="none" fill-rule="evenodd">
        <g id="mattress-(1)" transform="translate(0.113000, 0.000000)">
            <path d="M242.773846,504.5 L25.7727986,504.5 C17.2120732,504.5 10.273,493.733 10.273,480.452 L10.273,31.548 C10.273,18.267 17.2127177,7.5 25.7727986,7.5 L242.773201,7.5 C251.333927,7.5 258.273,18.267 258.273,31.548 L258.273,480.451 C258.273,493.733 251.333927,504.5 242.773846,504.5 Z" id="Path" fill="#EDEBED" fill-rule="nonzero"></path>
            <rect id="Rectangle" stroke="#000000" stroke-width="16" x="8" y="8" width="250" height="496" rx="30"></rect>
            <path d="M130.101,71.113 C134.244,71.113 137.601,67.756 137.601,63.613 C137.601,59.47 134.244,56.113 130.101,56.113 L130.016,56.113 C125.873,56.113 122.559,59.47 122.559,63.613 C122.559,67.756 125.959,71.113 130.101,71.113 Z" id="Path" fill="#000000" fill-rule="nonzero"></path>
            <path d="M65.972,71.113 C70.115,71.113 73.472,67.756 73.472,63.613 C73.472,59.47 70.115,56.113 65.972,56.113 L65.887,56.113 C61.745,56.113 58.429,59.47 58.429,63.613 C58.429,67.756 61.83,71.113 65.972,71.113 Z" id="Path" fill="#000000" fill-rule="nonzero"></path>
            <path d="M194.145,71.113 C198.288,71.113 201.645,67.756 201.645,63.613 C201.645,59.47 198.288,56.113 194.145,56.113 L194.06,56.113 C189.917,56.113 186.602,59.47 186.602,63.613 C186.602,67.756 190.002,71.113 194.145,71.113 Z" id="Path" fill="#000000" fill-rule="nonzero"></path>
            <path d="M130.101,135.242 C134.244,135.242 137.601,131.885 137.601,127.742 C137.601,123.599 134.244,120.242 130.101,120.242 L130.016,120.242 C125.873,120.242 122.559,123.599 122.559,127.742 C122.559,131.885 125.959,135.242 130.101,135.242 Z" id="Path" fill="#000000" fill-rule="nonzero"></path>
            <path d="M65.972,135.242 C70.115,135.242 73.472,131.885 73.472,127.742 C73.472,123.599 70.115,120.242 65.972,120.242 L65.887,120.242 C61.745,120.242 58.429,123.599 58.429,127.742 C58.429,131.885 61.83,135.242 65.972,135.242 Z" id="Path" fill="#000000" fill-rule="nonzero"></path>
            <path d="M194.145,135.242 C198.288,135.242 201.645,131.885 201.645,127.742 C201.645,123.599 198.288,120.242 194.145,120.242 L194.06,120.242 C189.917,120.242 186.602,123.599 186.602,127.742 C186.602,131.885 190.002,135.242 194.145,135.242 Z" id="Path" fill="#000000" fill-rule="nonzero"></path>
            <path d="M130.101,199.371 C134.244,199.371 137.601,196.014 137.601,191.871 C137.601,187.728 134.244,184.371 130.101,184.371 L130.016,184.371 C125.873,184.371 122.559,187.728 122.559,191.871 C122.559,196.014 125.959,199.371 130.101,199.371 Z" id="Path" fill="#000000" fill-rule="nonzero"></path>
            <path d="M65.972,199.371 C70.115,199.371 73.472,196.014 73.472,191.871 C73.472,187.728 70.115,184.371 65.972,184.371 L65.887,184.371 C61.745,184.371 58.429,187.728 58.429,191.871 C58.429,196.014 61.83,199.371 65.972,199.371 Z" id="Path" fill="#000000" fill-rule="nonzero"></path>
            <path d="M194.145,199.371 C198.288,199.371 201.645,196.014 201.645,191.871 C201.645,187.728 198.288,184.371 194.145,184.371 L194.06,184.371 C189.917,184.371 186.602,187.728 186.602,191.871 C186.602,196.014 190.002,199.371 194.145,199.371 Z" id="Path" fill="#000000" fill-rule="nonzero"></path>
            <path d="M130.101,263.5 C134.244,263.5 137.601,260.143 137.601,256 C137.601,251.857 134.244,248.5 130.101,248.5 L130.016,248.5 C125.873,248.5 122.559,251.857 122.559,256 C122.559,260.143 125.959,263.5 130.101,263.5 Z" id="Path" fill="#000000" fill-rule="nonzero"></path>
            <path d="M65.972,263.5 C70.115,263.5 73.472,260.143 73.472,256 C73.472,251.857 70.115,248.5 65.972,248.5 L65.887,248.5 C61.745,248.5 58.429,251.857 58.429,256 C58.429,260.143 61.83,263.5 65.972,263.5 Z" id="Path" fill="#000000" fill-rule="nonzero"></path>
            <path d="M194.145,263.5 C198.288,263.5 201.645,260.143 201.645,256 C201.645,251.857 198.288,248.5 194.145,248.5 L194.06,248.5 C189.917,248.5 186.602,251.857 186.602,256 C186.602,260.143 190.002,263.5 194.145,263.5 Z" id="Path" fill="#000000" fill-rule="nonzero"></path>
            <path d="M130.101,327.629 C134.244,327.629 137.601,324.272 137.601,320.129 C137.601,315.986 134.244,312.629 130.101,312.629 L130.016,312.629 C125.873,312.629 122.559,315.986 122.559,320.129 C122.559,324.272 125.959,327.629 130.101,327.629 Z" id="Path" fill="#000000" fill-rule="nonzero"></path>
            <path d="M65.972,327.629 C70.115,327.629 73.472,324.272 73.472,320.129 C73.472,315.986 70.115,312.629 65.972,312.629 L65.887,312.629 C61.745,312.629 58.429,315.986 58.429,320.129 C58.429,324.272 61.83,327.629 65.972,327.629 Z" id="Path" fill="#000000" fill-rule="nonzero"></path>
            <path d="M194.145,327.629 C198.288,327.629 201.645,324.272 201.645,320.129 C201.645,315.986 198.288,312.629 194.145,312.629 L194.06,312.629 C189.917,312.629 186.602,315.986 186.602,320.129 C186.602,324.272 190.002,327.629 194.145,327.629 Z" id="Path" fill="#000000" fill-rule="nonzero"></path>
            <path d="M130.101,391.758 C134.244,391.758 137.601,388.401 137.601,384.258 C137.601,380.115 134.244,376.758 130.101,376.758 L130.016,376.758 C125.873,376.758 122.559,380.115 122.559,384.258 C122.559,388.401 125.959,391.758 130.101,391.758 Z" id="Path" fill="#000000" fill-rule="nonzero"></path>
            <path d="M65.972,391.758 C70.115,391.758 73.472,388.401 73.472,384.258 C73.472,380.115 70.115,376.758 65.972,376.758 L65.887,376.758 C61.745,376.758 58.429,380.115 58.429,384.258 C58.429,388.401 61.83,391.758 65.972,391.758 Z" id="Path" fill="#000000" fill-rule="nonzero"></path>
            <path d="M194.145,391.758 C198.288,391.758 201.645,388.401 201.645,384.258 C201.645,380.115 198.288,376.758 194.145,376.758 L194.06,376.758 C189.917,376.758 186.602,380.115 186.602,384.258 C186.602,388.401 190.002,391.758 194.145,391.758 Z" id="Path" fill="#000000" fill-rule="nonzero"></path>
            <path d="M130.101,455.887 C134.244,455.887 137.601,452.53 137.601,448.387 C137.601,444.244 134.244,440.887 130.101,440.887 L130.016,440.887 C125.873,440.887 122.559,444.244 122.559,448.387 C122.559,452.53 125.959,455.887 130.101,455.887 Z" id="Path" fill="#000000" fill-rule="nonzero"></path>
            <path d="M65.972,455.887 C70.115,455.887 73.472,452.53 73.472,448.387 C73.472,444.244 70.115,440.887 65.972,440.887 L65.887,440.887 C61.745,440.887 58.429,444.244 58.429,448.387 C58.429,452.53 61.83,455.887 65.972,455.887 Z" id="Path" fill="#000000" fill-rule="nonzero"></path>
            <path d="M194.145,455.887 C198.288,455.887 201.645,452.53 201.645,448.387 C201.645,444.244 198.288,440.887 194.145,440.887 L194.06,440.887 C189.917,440.887 186.602,444.244 186.602,448.387 C186.602,452.53 190.002,455.887 194.145,455.887 Z" id="Path" fill="#000000" fill-rule="nonzero"></path>
        </g>
    </g>
</svg>