<svg width="30" height="30" viewBox="0 0 30 30" fill="none" xmlns="http://www.w3.org/2000/svg">
<path d="M25.2551 10.0384L19.7344 6.85122C19.2641 6.57954 18.5525 6.55001 18.1448 6.7853L0.289994 17.0939C0.0972749 17.2052 0.00846862 17.3558 0.0167084 17.5123L0 17.5196V22.9462L0.0135041 22.9508C-0.0391388 23.1378 0.0757599 23.3493 0.350876 23.5081L5.32792 26.3815C10.4993 29.3673 18.322 29.6916 22.8005 27.1059C22.8005 27.1059 23.338 26.8525 24.1136 26.346C24.5714 26.0739 24.9751 25.7811 25.3242 25.4717C27.2113 23.9689 29.7201 20.5162 29.965 16.9255C29.965 16.9252 29.965 16.9252 29.965 16.925C30.2619 14.5664 28.6585 12.0034 25.2551 10.0384Z" fill="#B6C5CE"/>
<path d="M25.3049 22.0023L26.6464 21.2278C31.6138 18.3596 30.9908 13.3501 25.255 10.0384L19.7344 6.85122C19.2641 6.57954 18.5525 6.55001 18.1448 6.7853L0.289966 17.0939C-0.117444 17.3292 -0.0664028 17.7401 0.40395 18.0115L5.92458 21.1989C11.6606 24.5104 20.3375 24.8702 25.3049 22.0023Z" fill="#D6E5E5"/>
<path d="M23.1526 20.6228L24.2572 19.9849C27.8436 17.9145 27.3938 14.2977 23.2526 11.907L22.295 11.354C20.2179 10.1549 17.076 10.0247 15.2773 11.0631L7.69943 15.438C5.90064 16.4766 6.12632 18.2907 8.20342 19.4899L9.16107 20.0428C13.302 22.4337 19.5663 22.6933 23.1526 20.6228Z" fill="#B6C5CE"/>
<path d="M13.3337 16.4192L8.11108 19.4343C8.14175 19.4528 8.17174 19.4716 8.20332 19.4899L9.16097 20.0429C13.176 22.361 19.1871 22.6755 22.8181 20.8051C22.7621 19.5196 21.7987 18.1768 19.9701 17.1212L19.1734 16.6611C17.4451 15.6632 14.8306 15.555 13.3337 16.4192Z" fill="#8E9DAF"/>
<path d="M14.4969 19.8036C13.8799 20.1599 12.9465 20.1986 12.4121 19.8901C11.8776 19.5816 11.9447 19.0425 12.5617 18.6864C13.1788 18.33 14.1124 18.2914 14.6466 18.5999C15.1811 18.9084 15.114 19.4474 14.4969 19.8036Z" fill="#0B4784"/>
<path d="M12.2204 11.6591C12.2133 11.4531 12.0846 11.2572 11.8292 11.1098C11.249 10.7747 10.2353 10.8166 9.56509 11.2037C9.20369 11.4122 9.01761 11.6786 9.01257 11.9322L9.01074 11.9324V12.4403L9.01257 12.4401C9.00822 12.6568 9.13525 12.8642 9.40259 13.0185C9.9828 13.3535 10.9965 13.3114 11.6667 12.9246C12.0281 12.7161 12.2139 12.4499 12.2192 12.1963L12.221 12.1961V11.6589L12.2204 11.6591Z" fill="#8E9DAF"/>
<path d="M11.6665 12.4171C10.9966 12.8039 9.98289 12.846 9.40244 12.511C8.82223 12.1759 8.89501 11.5906 9.56495 11.2038C10.2351 10.817 11.2488 10.7749 11.829 11.11C12.4095 11.4451 12.3367 12.0303 11.6665 12.4171Z" fill="#B6C5CE"/>
<path d="M12.4303 8.81956C12.2367 8.70787 12.0607 8.70306 11.9261 8.78408L10.6258 9.53573C10.6018 9.54672 10.5782 9.55976 10.5565 9.57579L10.5551 9.5767C10.4164 9.68061 10.3306 9.88569 10.3306 10.167C10.3306 10.728 10.6716 11.3796 11.0923 11.6224C11.2939 11.739 11.4768 11.7394 11.6132 11.6474L12.8979 10.9058C13.0767 10.823 13.192 10.6007 13.192 10.275C13.192 9.71426 12.851 9.0624 12.4303 8.81956Z" fill="#8E9DAF"/>
<path d="M11.8542 11.0468C11.8542 11.6078 11.513 11.8655 11.0923 11.6227C10.6716 11.3798 10.3306 10.7282 10.3306 10.1672C10.3306 9.60622 10.6716 9.34827 11.0923 9.59112C11.513 9.83419 11.8542 10.4858 11.8542 11.0468Z" fill="#B6C5CE"/>
<path d="M11.4732 10.8265C11.4732 11.1069 11.3026 11.2357 11.0923 11.1144C10.882 10.9931 10.7117 10.6674 10.7117 10.387C10.7117 10.1067 10.882 9.97779 11.0923 10.0991C11.3026 10.2206 11.4732 10.5463 11.4732 10.8265Z" fill="#8E9DAF"/>
<path d="M11.3125 9.01238C10.9793 8.82011 10.3972 8.84415 10.0127 9.06639C9.78887 9.19548 9.68199 9.36302 9.69641 9.51866V11.8535H9.69686C9.68244 11.9874 9.75477 12.1176 9.91934 12.2126C10.2526 12.4049 10.8344 12.3808 11.2192 12.1586C11.4311 12.0364 11.5348 11.8798 11.5334 11.7313L11.5368 11.731V9.33556C11.5355 9.21448 11.4622 9.09889 11.3125 9.01238Z" fill="#8E9DAF"/>
<path d="M11.2191 9.76311C10.8344 9.98512 10.2523 10.0094 9.91928 9.8169C9.58603 9.62464 9.62791 9.28841 10.0127 9.06639C10.3972 8.84415 10.9792 8.82011 11.3125 9.01238C11.6457 9.20487 11.6039 9.54086 11.2191 9.76311Z" fill="#B6C5CE"/>
<path d="M10.6158 9.73896C10.2707 9.73896 9.99097 9.45904 9.99097 9.11389V5.68569C9.99097 4.45797 10.4426 3.27877 11.2624 2.36484L11.6085 1.97918C12.3187 1.18793 13.5022 0.999333 14.423 1.53103C15.8341 2.34585 16.8442 3.661 17.2669 5.23434L17.4431 5.89008C17.5329 6.22334 17.3351 6.5662 17.0019 6.65569C16.6684 6.74564 16.3257 6.54766 16.2362 6.21441L16.06 5.55866C15.7235 4.30736 14.9204 3.26137 13.7982 2.61341C13.386 2.37583 12.8566 2.46006 12.5387 2.81391L12.1928 3.19958C11.579 3.88393 11.2409 4.76673 11.2409 5.68592V9.11412C11.2409 9.45904 10.961 9.73896 10.6158 9.73896Z" fill="#D6E5E5"/>
</svg>
