<svg height="512" viewBox="0 0 64 64" width="512" xmlns="http://www.w3.org/2000/svg"><g id="flat"><path d="m3 23h58v10h-58z" fill="#50b4f8"/><path d="m54 41h-44l-4-8h52z" fill="#3d9ad3"/><path d="m15 41h34v4h-34z" fill="#50b4f8"/><path d="m23 45h18v16h-18z" fill="#3d9ad3"/><path d="m8 30h-2v-4h6v2h-4z" fill="#f4f4e6"/><path d="m30 3h4a2 2 0 0 1 2 2v10a0 0 0 0 1 0 0h-8a0 0 0 0 1 0 0v-10a2 2 0 0 1 2-2z" fill="#50b4f8"/><path d="m30 15h4v8h-4z" fill="#3d9ad3"/><path d="m18 19h8v4h-8z" fill="#394d5c"/><path d="m36 48h2v10h-2z" fill="#f4f4e6"/><path d="m11 11v6l9-2v4h4v-8z" fill="#f9bb4b"/><path d="m38 19h8v4h-8z" fill="#394d5c" transform="matrix(-1 0 0 -1 84 42)"/><path d="m53 11v6l-9-2v4h-4v-8z" fill="#f9bb4b"/></g></svg>
