<svg width="30" height="30" viewBox="0 0 30 30" fill="none" xmlns="http://www.w3.org/2000/svg">
<path d="M7.03125 5.15625H13.5938V8.90625H7.03125V5.15625Z" fill="#BEE8C6"/>
<path d="M3.75 0V2.66654C3.75 4.29785 5.07715 5.625 6.70846 5.625H13.9166C15.5479 5.625 16.875 4.29785 16.875 2.66654V0H3.75Z" fill="#CBEDD1"/>
<path d="M5.625 24.8438V25.3125C5.625 27.8972 7.72781 30 10.3125 30C12.8972 30 15 27.8972 15 25.3125V24.8438H5.625Z" fill="#CBEDD1"/>
<path d="M5.625 11.25H15V23.9062H5.625V11.25Z" fill="#CBEDD1"/>
<path d="M14.5312 14.0625C13.5598 14.0625 13.125 15.7105 13.125 17.3438C13.125 18.977 13.5598 20.625 14.5312 20.625H23.4375V14.0625H14.5312Z" fill="#BEE8C6"/>
<path d="M25.2628 12.6562H23.4872C22.9429 12.6562 22.5 13.0992 22.5 13.6435V21.044C22.5 21.5883 22.9429 22.0312 23.4872 22.0312H25.2628C25.8071 22.0312 26.25 21.5883 26.25 21.044V13.6435C26.25 13.0992 25.8071 12.6562 25.2628 12.6562Z" fill="#FC837E"/>
<path d="M15.9375 9.59062V11.0344C15.9375 11.6701 15.4201 12.1875 14.7844 12.1875H5.84063C5.20488 12.1875 4.6875 11.6701 4.6875 11.0344V9.59062C4.6875 8.95488 5.20488 8.4375 5.84063 8.4375H14.7844C15.4201 8.4375 15.9375 8.95488 15.9375 9.59062Z" fill="#FC837E"/>
<path d="M14.7844 22.9688H5.84057C5.20477 22.9688 4.6875 23.486 4.6875 24.1219V24.6282C4.6875 25.264 5.20477 25.7812 5.84057 25.7812H14.7844C15.4202 25.7812 15.9375 25.264 15.9375 24.6281V24.1218C15.9375 23.486 15.4202 22.9688 14.7844 22.9688Z" fill="#FC837E"/>
<path d="M22.5 19.2188H26.25V20.1562H22.5V19.2188Z" fill="#C5C9CF"/>
<path d="M22.5 16.875H26.25V17.8125H22.5V16.875Z" fill="#C5C9CF"/>
<path d="M22.5 14.5312H26.25V15.4688H22.5V14.5312Z" fill="#C5C9CF"/>
<path d="M12.658 8.4375C12.6568 8.45332 12.6562 8.46973 12.6562 8.48613V12.1389C12.6562 12.1553 12.6568 12.1717 12.658 12.1875H13.592C13.5932 12.1717 13.5938 12.1553 13.5938 12.1389V8.48613C13.5938 8.46973 13.5932 8.45332 13.592 8.4375H12.658Z" fill="#C5C9CF"/>
<path d="M9.84551 8.4375C9.84434 8.45332 9.84375 8.46973 9.84375 8.48613V12.1389C9.84375 12.1553 9.84434 12.1717 9.84551 12.1875H10.7795C10.7807 12.1717 10.7812 12.1553 10.7812 12.1389V8.48613C10.7812 8.46973 10.7807 8.45332 10.7795 8.4375H9.84551Z" fill="#C5C9CF"/>
<path d="M7.03301 8.4375C7.03184 8.45332 7.03125 8.46973 7.03125 8.48613V12.1389C7.03125 12.1553 7.03184 12.1717 7.03301 12.1875H7.96699C7.96816 12.1717 7.96875 12.1553 7.96875 12.1389V8.48613C7.96875 8.46973 7.96816 8.45332 7.96699 8.4375H7.03301Z" fill="#C5C9CF"/>
<path d="M7.5 13.125C7.24113 13.125 7.03125 13.3349 7.03125 13.5938V16.875C7.03125 17.1339 7.24113 17.3438 7.5 17.3438C7.75887 17.3438 7.96875 17.1339 7.96875 16.875V13.5938C7.96875 13.3349 7.75887 13.125 7.5 13.125Z" fill="#D8F1DD"/>
<path d="M7.5 17.8125C7.24113 17.8125 7.03125 18.0224 7.03125 18.2812V18.75C7.03125 19.0089 7.24113 19.2188 7.5 19.2188C7.75887 19.2188 7.96875 19.0089 7.96875 18.75V18.2812C7.96875 18.0224 7.75887 17.8125 7.5 17.8125Z" fill="#D8F1DD"/>
<path d="M21.0938 15.4688H18.2812C18.0224 15.4688 17.8125 15.6786 17.8125 15.9375C17.8125 16.1964 18.0224 16.4062 18.2812 16.4062H21.0938C21.3526 16.4062 21.5625 16.1964 21.5625 15.9375C21.5625 15.6786 21.3526 15.4688 21.0938 15.4688Z" fill="#D8F1DD"/>
<path d="M16.875 15.4688H16.4062C16.1474 15.4688 15.9375 15.6786 15.9375 15.9375C15.9375 16.1964 16.1474 16.4062 16.4062 16.4062H16.875C17.1339 16.4062 17.3438 16.1964 17.3438 15.9375C17.3438 15.6786 17.1339 15.4688 16.875 15.4688Z" fill="#D8F1DD"/>
</svg>
