<?xml version="1.0" encoding="iso-8859-1"?>
<!-- Generator: Adobe Illustrator 19.0.0, SVG Export Plug-In . SVG Version: 6.00 Build 0)  -->
<svg version="1.1" id="Capa_1" xmlns="http://www.w3.org/2000/svg" xmlns:xlink="http://www.w3.org/1999/xlink" x="0px" y="0px"
	 viewBox="0 0 512 512" style="enable-background:new 0 0 512 512;" xml:space="preserve">
<path style="fill:#FFD164;" d="M503.742,90.839H8.258C3.697,90.839,0,94.536,0,99.097v148.645C0,252.303,3.697,256,8.258,256h16.516
	c4.561,0,8.258-3.697,8.258-8.258v156.903c0,9.122,7.395,16.516,16.516,16.516h115.613c9.122,0,16.516-7.395,16.516-16.516V256
	c0,9.121,7.395,16.516,16.516,16.516h115.613c9.121,0,16.516-7.395,16.516-16.516c0,9.121,7.395,16.516,16.516,16.516h115.613
	c9.121,0,16.515-7.394,16.516-16.515l0.001-8.26c0,4.561,3.697,8.259,8.258,8.259h16.515c4.561,0,8.258-3.697,8.258-8.258V99.097
	C512,94.536,508.303,90.839,503.742,90.839z"/>
<g>
	<path style="fill:#FFE17D;" d="M330.323,173.419H222.968c-13.682,0-24.774,11.092-24.774,24.774v74.323h115.613
		c9.122,0,16.516-7.395,16.516-16.516V173.419z"/>
	<path style="fill:#FFE17D;" d="M181.677,173.419H74.323c-13.682,0-24.774,11.092-24.774,24.774v222.968h115.613
		c9.122,0,16.516-7.395,16.516-16.516L181.677,173.419L181.677,173.419z"/>
	<path style="fill:#FFE17D;" d="M346.839,198.194v74.323h115.613c9.122,0,16.516-7.395,16.516-16.516V173.42H371.613
		C357.93,173.419,346.839,184.511,346.839,198.194z"/>
</g>
<g>
	<path style="fill:#FFD164;" d="M66.065,214.71H49.548c-9.122,0-16.516-7.395-16.516-16.516V173.42
		c0-9.122,7.395-16.516,16.516-16.516h16.516c9.122,0,16.516,7.395,16.516,16.516v24.774
		C82.581,207.315,75.186,214.71,66.065,214.71z"/>
	<path style="fill:#FFD164;" d="M462.452,214.71h-16.516c-9.122,0-16.516-7.395-16.516-16.516V173.42
		c0-9.122,7.395-16.516,16.516-16.516h16.516c9.122,0,16.516,7.395,16.516,16.516v24.774
		C478.968,207.315,471.573,214.71,462.452,214.71z"/>
</g>
<rect y="107.36" style="fill:#FFC350;" width="512" height="16.516"/>
<g>
	<path style="fill:#FFE17D;" d="M24.774,256h-8.258v-99.097c0-9.122,7.395-16.516,16.516-16.516l0,0v107.355
		C33.032,252.303,29.335,256,24.774,256z"/>
	<path style="fill:#FFE17D;" d="M503.742,256h-8.258v-99.097c0-9.122,7.395-16.516,16.516-16.516l0,0v107.355
		C512,252.303,508.303,256,503.742,256z"/>
	<path style="fill:#FFE17D;" d="M313.806,156.903H198.194l0,0c0-9.122,7.395-16.516,16.516-16.516h115.613l0,0
		C330.323,149.509,322.928,156.903,313.806,156.903z"/>
	<path style="fill:#FFE17D;" d="M165.161,156.903H49.548l0,0c0-9.122,7.395-16.516,16.516-16.516h115.613l0,0
		C181.677,149.509,174.283,156.903,165.161,156.903z"/>
	<path style="fill:#FFE17D;" d="M462.452,156.903H346.839l0,0c0-9.122,7.395-16.516,16.516-16.516h115.613l0,0
		C478.968,149.509,471.573,156.903,462.452,156.903z"/>
</g>
<g>
	<path style="fill:#FFC350;" d="M74.323,173.419h8.258c0-9.122-7.395-16.516-16.516-16.516H49.548
		c-9.122,0-16.516,7.395-16.516,16.516v24.774c0,9.121,7.395,16.516,16.516,16.516v-16.516
		C49.548,184.511,60.64,173.419,74.323,173.419z"/>
	<path style="fill:#FFC350;" d="M470.71,173.419h8.258c0-9.122-7.395-16.516-16.516-16.516h-16.516
		c-9.122,0-16.516,7.395-16.516,16.516v24.774c0,9.121,7.395,16.516,16.516,16.516v-16.516
		C445.935,184.511,457.027,173.419,470.71,173.419z"/>
</g>
<g>
</g>
<g>
</g>
<g>
</g>
<g>
</g>
<g>
</g>
<g>
</g>
<g>
</g>
<g>
</g>
<g>
</g>
<g>
</g>
<g>
</g>
<g>
</g>
<g>
</g>
<g>
</g>
<g>
</g>
</svg>
