<svg width="40" height="22" viewBox="0 0 40 22" fill="none" xmlns="http://www.w3.org/2000/svg">
<path d="M4.89795 13.8519V2.77037C4.89795 1.24034 6.1273 0 7.64377 0H32.3562C33.8727 0 35.102 1.24034 35.102 2.77037V13.8519H4.89795Z" fill="#DE9400"/>
<path d="M34.5236 17.9259C35.7302 17.9259 36.7968 17.1385 37.1567 15.9819L39.8917 7.19263C39.9635 6.96186 40 6.72148 40 6.4797V6.4643C40 5.14423 38.9344 4.0741 37.6199 4.0741C36.5751 4.0741 35.6524 4.75847 35.3451 5.76138L33.1035 13.0778H6.89655L4.65489 5.76138C4.34761 4.75847 3.42493 4.0741 2.38007 4.0741C1.74884 4.0741 1.14346 4.32592 0.697107 4.77417C0.250757 5.22242 0 5.83038 0 6.4643V6.4797C0 6.72148 0.0365294 6.96186 0.108341 7.19263L2.84334 15.9819C3.20323 17.1385 4.26981 17.9259 5.47639 17.9259H34.5236Z" fill="#FAC623"/>
<path d="M8.59294 9.77783H17.5296C18.6685 9.77783 19.5919 10.6534 19.5919 11.7334V13.0371H6.53064V11.7334C6.53064 10.6534 7.45396 9.77783 8.59294 9.77783Z" fill="#F6BB00"/>
<path d="M21.6542 9.77783H30.5908C31.7298 9.77783 32.6531 10.6534 32.6531 11.7334V13.0371H19.5919V11.7334C19.5919 10.6534 20.5152 9.77783 21.6542 9.77783Z" fill="#EDA600"/>
<path d="M9.7959 4.0741H11.2109V4.88891H9.7959V4.0741Z" fill="#CF8300"/>
<path d="M14.7483 4.0741H16.1633V4.88891H14.7483V4.0741Z" fill="#CF8300"/>
<path d="M19.7007 4.0741H21.1156V4.88891H19.7007V4.0741Z" fill="#CF8300"/>
<path d="M24.653 4.0741H26.068V4.88891H24.653V4.0741Z" fill="#CF8300"/>
<path d="M29.6054 4.0741H31.0204V4.88891H29.6054V4.0741Z" fill="#CF8300"/>
<path d="M6.39457 17.9259L5.71429 22H7.07484L9.79593 17.9259H6.39457Z" fill="#B1712C"/>
<path d="M33.6055 17.9259L34.2857 22H32.9252L30.2041 17.9259H33.6055Z" fill="#B1712C"/>
</svg>
