<svg width="20" height="20" viewBox="0 0 20 20" fill="none" xmlns="http://www.w3.org/2000/svg">
<g clip-path="url(#clip0_128_32732)">
<path d="M10.9658 1.03708L13.2215 5.6078C13.3784 5.92569 13.6817 6.14597 14.0325 6.19687L19.0768 6.92987C19.9604 7.05836 20.3129 8.14388 19.6737 8.76675L16.0238 12.3245C15.7701 12.5719 15.6541 12.9286 15.7142 13.2778L16.5757 18.3016C16.7267 19.1814 15.8031 19.8523 15.0129 19.4372L10.5015 17.0655C10.1877 16.9007 9.81267 16.9007 9.49895 17.0655L4.98747 19.4372C4.19732 19.8527 3.27367 19.1814 3.42469 18.3016L4.28618 13.2778C4.34626 12.9286 4.23028 12.5719 3.97663 12.3245L0.326648 8.76675C-0.312484 8.14347 0.0400399 7.05794 0.923644 6.92987L5.96787 6.19687C6.31872 6.14597 6.62202 5.92569 6.77888 5.6078L9.03462 1.03708C9.42928 0.236499 10.5707 0.236499 10.9658 1.03708Z" fill="#FFC73B"/>
</g>
<defs>
<clipPath id="clip0_128_32732">
<rect width="20" height="20" fill="white"/>
</clipPath>
</defs>
</svg>
