<svg id="Capa_1" enable-background="new 0 0 512 512" height="512" viewBox="0 0 512 512" width="512" xmlns="http://www.w3.org/2000/svg"><g><path d="m511.941 264.258-5.548-16.516c-3.232-4.833-7.737-8.796-13.216-11.341-46.699-21.691-121.564-21.691-121.564-21.691l-64.464-41.023c-17.225-10.961-37.219-16.784-57.636-16.784h-191.223c-10.668 0-20.68 5.152-26.88 13.833l-14.894 20.851-11.016 36.354v63.559l77.081 24.5h412.902l16.517-10.452v-39.293c0-.669-.02-1.335-.059-1.997z" fill="#b3e59f"/><path d="m298.281 187.621c-14.575-9.275-31.493-14.202-48.769-14.202h-15.842l-6.504 5.747-10.185-5.747h-68.337l-8.312 4.58-8.204-4.58h-49.401c-5.927 0-11.399 3.176-14.34 8.322l-4.683 8.194 245.231 24.774h15.151c4.883 0 6.741-6.378 2.621-8.999z" fill="#8bb3ea"/><path d="m292.322 204.137c-14.575-9.275-31.493-14.202-48.769-14.202h-179.848l-7.096 12.419c-3.146 5.505.829 12.355 7.17 12.355h68.351l7.704-6.376 8.811 6.376h74.236l7.286-4.376 9.403 4.376h69.365z" fill="#739ad6"/><path d="m495.483 322.064c9.121 0 16.516-7.395 16.517-16.516h-20.85c-6.824 0-13.17-4.117-15.39-10.57-7.803-22.675-29.274-38.978-54.6-38.978s-46.796 16.303-54.599 38.979c-2.22 6.453-8.566 10.57-15.39 10.57h-182.086c-6.824 0-13.17-4.117-15.39-10.57-7.802-22.676-29.273-38.979-54.598-38.979-22.141 0-41.351 12.458-51.053 30.74-3.34 6.294-10.584 9.457-17.572 8.06-8.115-1.623-13.956-8.749-13.956-17.024v-86.188l-8.825 12.356c-5.002 7.001-7.691 15.392-7.691 23.998v3.284l7.167 12.941-7.167 11.833v29.238c0 11.81 8.336 21.977 19.916 24.293l62.665 12.533z" fill="#95d6a4"/><path d="m346.838 289.032h-173.419c-4.564 0-8.258-3.698-8.258-8.258s3.694-8.258 8.258-8.258h173.419c4.565 0 8.258 3.698 8.258 8.258 0 4.561-3.693 8.258-8.258 8.258z" fill="#ccf49f"/><circle cx="99.097" cy="313.806" fill="#5d5360" r="41.29"/><circle cx="99.097" cy="313.806" fill="#dad8db" r="24.774"/><circle cx="99.097" cy="313.806" fill="#eceaec" r="8.258"/><circle cx="421.16" cy="313.806" fill="#5d5360" r="41.29"/><circle cx="421.16" cy="313.806" fill="#dad8db" r="24.774"/><circle cx="421.16" cy="313.806" fill="#eceaec" r="8.258"/><path d="m506.392 247.742h-15.724c-4.565 0-8.258 3.698-8.258 8.258s3.694 8.258 8.258 8.258h21.269c-.36-5.994-2.299-11.679-5.545-16.516z" fill="#fff0af"/><path d="m16.516 256h-16.516v-24.774h16.516c4.561 0 8.258 3.697 8.258 8.258v8.258c0 4.561-3.697 8.258-8.258 8.258z" fill="#ff8086"/><g fill="#5a82c3"><path d="m222.881 214.71h16.689l-5.899-41.29h-16.689z"/><path d="m132.129 173.42h16.516v41.29h-16.516z"/></g></g></svg>