<svg width="30" height="30" viewBox="0 0 30 30" fill="none" xmlns="http://www.w3.org/2000/svg">
<g clip-path="url(#clip0_117_10491)">
<path d="M23.0334 0H8.17969C6.539 0 5.20898 1.33002 5.20898 2.9707V7.35809H11.7434V4.28543C11.7434 3.1793 12.6401 2.28258 13.7462 2.28258H23.0335C23.6638 2.28258 24.1748 1.77164 24.1748 1.14129C24.1747 0.510938 23.6638 0 23.0334 0Z" fill="#DBEDFF"/>
<path d="M11.5901 0H8.17969C6.539 0 5.20898 1.33002 5.20898 2.97064V7.35803H8.61943V2.9707C8.61943 1.33002 9.94945 0 11.5901 0Z" fill="#B5DCFF"/>
<path d="M12.3428 7.1167H4.6017C4.10325 7.1167 3.69543 7.52451 3.69543 8.02297V9.55877C3.85118 9.51295 4.01577 9.48793 4.18633 9.48793H13.2491V8.02297C13.2491 7.52451 12.8413 7.1167 12.3428 7.1167Z" fill="#B5DCFF"/>
<path d="M7.10588 8.02297C7.10588 7.52451 7.5137 7.1167 8.01215 7.1167H4.6017C4.10325 7.1167 3.69543 7.52451 3.69543 8.02297V9.55877C3.85118 9.51295 4.01583 9.48793 4.18633 9.48793H7.10588V8.02297Z" fill="#8BCAFF"/>
<path d="M28.3461 12.091L23.9733 13.056V15.4575C23.9733 15.956 24.3811 16.3638 24.8795 16.3638H27.6235C28.122 16.3638 28.5298 15.956 28.5298 15.4575V12.0371C28.47 12.0583 28.409 12.0771 28.3461 12.091Z" fill="#B5DCFF"/>
<path d="M26.2515 15.5179V12.5532L23.9733 13.056V15.4575C23.9733 15.956 24.3811 16.3638 24.8795 16.3638H26.8362C26.4955 16.2333 26.2515 15.9031 26.2515 15.5179Z" fill="#8BCAFF"/>
<path d="M28.8022 23.7475L26.5458 18.3322C26.4368 18.0706 26.0662 18.0706 25.9572 18.3322L23.7008 23.7475C22.9424 25.5676 24.2797 27.5735 26.2514 27.5735C28.2232 27.5735 29.5606 25.5676 28.8022 23.7475Z" fill="#9BE8FD"/>
<path d="M26.1802 23.7475L27.4912 20.6011L26.5459 18.3322C26.4369 18.0706 26.0663 18.0706 25.9572 18.3322L23.7009 23.7475C22.9425 25.5676 24.2798 27.5735 26.2516 27.5735C26.7044 27.5735 27.1231 27.4667 27.4912 27.2817C26.2561 26.661 25.596 25.1496 26.1802 23.7475Z" fill="#62DDFC"/>
<path d="M28.0583 9.30664H4.18623C3.22688 9.30664 2.44922 10.0844 2.44922 11.0437V21.9755C2.44922 22.4239 2.81268 22.7874 3.26109 22.7874H10.1714C10.6198 22.7874 10.9833 22.4239 10.9833 21.9755V17.7588C10.9833 16.7921 11.6555 15.9553 12.5996 15.747L28.346 12.272C29.0279 12.1215 29.5403 11.5322 29.5544 10.8341C29.5714 9.99348 28.895 9.30664 28.0583 9.30664Z" fill="#DBEDFF"/>
<path d="M5.85967 21.9756V11.0437C5.85967 10.0843 6.63738 9.30664 7.59668 9.30664H4.18623C3.22693 9.30664 2.44922 10.0843 2.44922 11.0437V21.9755C2.44922 22.4239 2.81273 22.7874 3.26109 22.7874H6.67154C6.22318 22.7875 5.85967 22.424 5.85967 21.9756Z" fill="#B5DCFF"/>
<path d="M11.2873 30.0001H2.0448C1.65808 30.0001 1.34167 29.6837 1.34167 29.2969V23.4304C1.34167 23.0437 1.65808 22.7273 2.0448 22.7273H11.2873C11.674 22.7273 11.9904 23.0437 11.9904 23.4304V29.2969C11.9904 29.6837 11.674 30.0001 11.2873 30.0001Z" fill="#B5DCFF"/>
<path d="M4.75212 29.2757V23.4516C4.75212 23.0533 5.07808 22.7273 5.47646 22.7273H2.06601C1.66763 22.7273 1.34167 23.0533 1.34167 23.4516V29.2757C1.34167 29.6741 1.66763 30.0001 2.06601 30.0001H5.47646C5.07808 30.0001 4.75212 29.6741 4.75212 29.2757Z" fill="#8BCAFF"/>
<path d="M12.4787 25.2921H0.898008C0.647988 25.2921 0.445312 25.0894 0.445312 24.8394C0.445312 24.5894 0.647988 24.3867 0.898008 24.3867H12.4786C12.7286 24.3867 12.9313 24.5894 12.9313 24.8394C12.9313 25.0894 12.7287 25.2921 12.4787 25.2921Z" fill="#8BCAFF"/>
</g>
<defs>
<clipPath id="clip0_117_10491">
<rect width="30" height="30" fill="white"/>
</clipPath>
</defs>
</svg>
