<svg width="37" height="35" viewBox="0 0 37 35" fill="none" xmlns="http://www.w3.org/2000/svg">
<g clip-path="url(#clip0_122_21407)">
<path d="M14.7639 22.0258V34.6462C13.8341 34.4607 12.9307 34.2053 12.058 33.884C11.5523 33.6985 11.0571 33.491 10.5732 33.2627C10.4085 33.1849 10.2444 33.1043 10.0817 33.0205C9.66384 32.808 9.25552 32.5794 8.85701 32.3358C6.8605 31.1189 5.11352 29.5293 3.7096 27.6631C2.86692 26.5426 2.14858 25.3226 1.57475 24.0225V22.0258C1.57475 19.7095 3.13745 17.7602 5.25971 17.1893C5.33756 17.1682 5.41542 17.1485 5.49495 17.1321C5.70527 17.0853 5.92175 17.0535 6.14216 17.0354C6.2763 17.025 6.41185 17.0188 6.5488 17.0188H9.78875C10.1506 17.0188 10.5034 17.0574 10.8437 17.1321C10.863 17.1358 10.8826 17.1403 10.902 17.1448C10.9591 17.1578 11.0168 17.1719 11.0728 17.1871C11.0745 17.1879 11.0759 17.1879 11.0773 17.1885C11.6377 17.3393 12.1583 17.586 12.6221 17.9101C13.9165 18.8142 14.7639 20.3201 14.7639 22.0258Z" fill="#2BA1CF"/>
<path d="M14.7639 22.0258V34.6462C13.8341 34.4607 12.9307 34.2053 12.058 33.884C11.5523 33.6985 11.0571 33.491 10.5732 33.2627C10.4085 33.1849 10.2444 33.1043 10.0817 33.0205C9.66384 32.808 9.25552 32.5794 8.85701 32.3358C6.8605 31.1189 5.11352 29.5293 3.7096 27.6631V22.0258C3.7096 19.7095 5.27231 17.7602 7.39456 17.1893C7.4727 17.1682 7.55055 17.1485 7.62981 17.1321C7.84041 17.0853 8.05689 17.0535 8.27701 17.0354C8.41116 17.025 8.54671 17.0188 8.68393 17.0188H9.78875C10.1506 17.0188 10.5034 17.0574 10.8437 17.1321C10.863 17.1358 10.8826 17.1403 10.902 17.1448C10.9591 17.1578 11.0168 17.1719 11.0728 17.1871C11.0745 17.1879 11.0759 17.1879 11.0773 17.1885C11.6377 17.3393 12.1583 17.586 12.6221 17.9101C13.9165 18.8142 14.7639 20.3201 14.7639 22.0258Z" fill="#66BAED"/>
<path d="M11.0896 17.1318L11.0778 17.1885L9.58963 24.1555C9.4468 24.825 8.86149 25.3104 8.18152 25.311C8.17731 25.311 8.17339 25.311 8.16947 25.311C8.16499 25.311 8.16079 25.311 8.15631 25.311C7.47606 25.3104 6.89102 24.825 6.7482 24.1555L5.25999 17.1891L5.24822 17.1318H11.0896Z" fill="#F2F0EC"/>
<path d="M8.16891 19.0688L5.92932 20.3216L5.24822 17.132L6.63981 16.3071" fill="#D8D5D0"/>
<path d="M8.16891 19.0688L10.4085 20.3216L11.0896 17.132L9.69801 16.3071" fill="#D8D5D0"/>
<path d="M1.48233 15.812V8.26065C1.48233 7.49334 1.60947 6.74152 1.8604 6.02607C2.79943 3.3368 5.33476 1.5293 8.16919 1.5293C8.52038 1.5293 8.87073 1.55664 9.21128 1.61076C10.7684 1.85573 12.1972 2.65575 13.2331 3.86366C14.28 5.08455 14.8566 6.64596 14.8566 8.26065V15.812" fill="#CC7A3B"/>
<path d="M4.23303 8.55556C4.23303 11.2265 5.78705 14.3166 6.64037 15.8121H1.48205V8.2607C1.48205 7.49366 1.60947 6.74185 1.86012 6.02612C2.79354 3.35235 5.30563 1.5502 8.12046 1.52991C6.06458 1.58149 4.23303 4.90165 4.23303 8.55556Z" fill="#A35418"/>
<path d="M9.94418 15.0901V17.2827C9.94418 18.0852 9.41852 18.7637 8.6943 18.989C8.5285 19.0408 8.35179 19.0687 8.16919 19.0687C7.189 19.0687 6.39477 18.2693 6.39477 17.2827V15.0901H9.94418Z" fill="#EAB599"/>
<path d="M9.94418 17.1437V17.2827C9.94418 18.0852 9.41852 18.7637 8.6943 18.989C8.04093 18.7868 7.54971 18.2149 7.45897 17.5152C7.57744 17.5225 7.69674 17.5262 7.81632 17.5262C8.15211 17.5262 8.48145 17.4994 8.80184 17.4464C9.19699 17.3824 9.57899 17.2801 9.94418 17.1437Z" fill="#F6CAAE"/>
<path d="M3.301 11.4971C3.301 12.3242 2.70085 13.0101 1.91473 13.1372C1.82904 13.1513 1.74054 13.1586 1.65036 13.1586C0.738784 13.1586 0 12.415 0 11.4971C0 10.5796 0.738784 9.83594 1.65036 9.83594C1.74054 9.83594 1.82904 9.84327 1.91473 9.85736C2.70085 9.9845 3.301 10.6701 3.301 11.4971Z" fill="#F6CAAE"/>
<path d="M3.301 11.4971C3.301 12.3242 2.70085 13.01 1.91473 13.1371C1.77219 12.6148 1.69573 12.0648 1.69573 11.4971C1.69573 10.9296 1.77219 10.3796 1.91473 9.8573C2.70085 9.98443 3.301 10.67 3.301 11.4971Z" fill="#EAB599"/>
<path d="M2.24044 11.4971C2.24044 11.8252 1.97635 12.0911 1.65036 12.0911C1.32466 12.0911 1.06057 11.8252 1.06057 11.4971C1.06057 11.1693 1.32466 10.9034 1.65036 10.9034C1.97635 10.9034 2.24044 11.1693 2.24044 11.4971Z" fill="#EAB599"/>
<path d="M12.4073 9.37588V15.0865C11.5304 15.9291 10.406 16.5126 9.15498 16.7156C9.14518 16.7173 9.13454 16.7189 9.12474 16.7206C8.81388 16.7705 8.4949 16.7953 8.16919 16.7953C4.77801 16.7953 2.02872 14.028 2.02872 10.6145V8.26071C2.02872 7.95936 2.05 7.66281 2.09145 7.37302C3.55249 8.43069 5.6473 8.32611 6.98204 7.05645C7.42397 6.63615 7.73119 6.13579 7.90482 5.60498C8.00144 6.53439 8.42376 7.43898 9.17235 8.15133C10.0635 8.99814 11.2408 9.40661 12.4073 9.37588Z" fill="#EAB599"/>
<path d="M12.4073 9.37588V15.0865C11.5304 15.9291 10.406 16.5126 9.15498 16.7156C9.14518 16.7173 9.13454 16.7189 9.12474 16.7206C6.18753 16.2586 3.94093 13.7001 3.94093 10.6145V8.26071C3.94093 8.19813 3.94205 8.13583 3.94429 8.07381C5.02698 8.18544 6.15168 7.8466 6.98204 7.05617C7.42397 6.63615 7.73119 6.13551 7.90482 5.60498C8.00144 6.53439 8.42376 7.43898 9.17235 8.15133C10.0635 8.99814 11.2408 9.40661 12.4073 9.37588Z" fill="#F6CAAE"/>
<path d="M11.4674 10.0925C11.4674 9.52528 11.0106 9.0658 10.4474 9.0658C9.88425 9.0658 9.42748 9.52528 9.42748 10.0925" fill="#EAB599"/>
<path d="M6.91203 10.0925C6.91203 9.52528 6.45526 9.0658 5.89207 9.0658C5.32888 9.0658 4.87239 9.52528 4.87239 10.0925" fill="#EAB599"/>
<path d="M6.58884 10.5293C6.58884 10.9166 6.27686 11.2307 5.89207 11.2307C5.50727 11.2307 5.19557 10.9166 5.19557 10.5293C5.19557 10.142 5.50727 9.82825 5.89207 9.82825C6.27686 9.82825 6.58884 10.142 6.58884 10.5293Z" fill="#3D4159"/>
<path d="M11.1439 10.5293C11.1439 10.9166 10.8322 11.2307 10.4474 11.2307C10.0626 11.2307 9.75094 10.9166 9.75094 10.5293C9.75094 10.142 10.0626 9.82825 10.4474 9.82825C10.8322 9.82825 11.1439 10.142 11.1439 10.5293Z" fill="#3D4159"/>
<path d="M8.86653 12.2949H7.47326C7.30718 12.2949 7.17276 12.1593 7.17276 11.9924C7.17276 11.8255 7.30718 11.6899 7.47326 11.6899H8.86653C9.03232 11.6899 9.16675 11.8255 9.16675 11.9924C9.16675 12.1593 9.03232 12.2949 8.86653 12.2949Z" fill="#EAB599"/>
<path d="M8.16975 14.2086C7.65557 14.2086 7.14139 14.079 6.67258 13.8193C6.54039 13.7463 6.49223 13.5792 6.56476 13.4461C6.63757 13.313 6.80365 13.2646 6.93583 13.3376C7.7085 13.7652 8.631 13.7652 9.40367 13.3376C9.53586 13.2643 9.70193 13.313 9.77475 13.4461C9.84728 13.5792 9.79911 13.7463 9.66692 13.8193C9.19811 14.079 8.68393 14.2086 8.16975 14.2086Z" fill="#EAB599"/>
<path d="M6.44686 10.4056C6.44686 10.5716 6.31299 10.7061 6.14832 10.7061C5.98337 10.7061 5.84978 10.5716 5.84978 10.4056C5.84978 10.2396 5.98337 10.1051 6.14832 10.1051C6.31299 10.1051 6.44686 10.2396 6.44686 10.4056Z" fill="white"/>
<path d="M11.0361 10.4056C11.0361 10.5716 10.9025 10.7061 10.7379 10.7061C10.5729 10.7061 10.4393 10.5716 10.4393 10.4056C10.4393 10.2396 10.5729 10.1051 10.7379 10.1051C10.9025 10.1051 11.0361 10.2396 11.0361 10.4056Z" fill="white"/>
<path d="M12.3493 12.2373C12.3493 12.6624 12.0068 13.0072 11.5842 13.0072C11.1619 13.0072 10.8193 12.6624 10.8193 12.2373C10.8193 11.8119 11.1619 11.4672 11.5842 11.4672C12.0068 11.4672 12.3493 11.8119 12.3493 12.2373Z" fill="#EAB599"/>
<path d="M5.5196 12.2373C5.5196 12.6624 5.17737 13.0072 4.75477 13.0072C4.33244 13.0072 3.98994 12.6624 3.98994 12.2373C3.98994 11.8119 4.33244 11.4672 4.75477 11.4672C5.17737 11.4672 5.5196 11.8119 5.5196 12.2373Z" fill="#EAB599"/>
<path d="M35.06 21.8736V24.1862C33.2517 28.1759 30.0745 31.4039 26.1333 33.2635C25.4194 33.5998 24.6801 33.8916 23.9189 34.1343C23.0628 34.4097 22.1795 34.6214 21.2729 34.7669C21.2693 34.7677 21.2648 34.7686 21.2609 34.7686V21.8736C21.2609 19.1251 23.3638 16.8702 26.0398 16.6532C26.1806 16.6411 26.3221 16.636 26.4652 16.636H29.8544C30.2551 16.636 30.6453 16.6802 31.02 16.7671C33.3332 17.2993 35.06 19.3845 35.06 21.8736Z" fill="#BFD5DE"/>
<path d="M35.06 21.8736V24.1862C33.2517 28.1759 30.0745 31.4039 26.1333 33.2635C25.4194 33.5998 24.6801 33.8916 23.9189 34.1343V21.8736C23.9189 18.9811 26.2495 16.636 29.124 16.636H29.8549C32.7303 16.636 35.06 18.9811 35.06 21.8736Z" fill="#DDE8ED"/>
<path d="M23.0664 10.8583C23.0664 11.7237 22.4385 12.4411 21.6163 12.5742C21.5264 12.5888 21.434 12.5964 21.3396 12.5964C20.3857 12.5964 19.6128 11.8184 19.6128 10.8583C19.6128 9.89815 20.3857 9.12012 21.3396 9.12012C21.434 9.12012 21.5264 9.12773 21.6163 9.14239C22.4385 9.27572 23.0664 9.99314 23.0664 10.8583Z" fill="#D3A489"/>
<path d="M29.5575 18.5256L28.1603 20.7814L26.7631 18.5256" fill="#F74F4F"/>
<path d="M30.0401 27.1532L28.1603 29.5408L26.2803 27.1532L28.1606 20.1943L30.0401 27.1532Z" fill="#F74F4F"/>
<path d="M23.0664 10.8583C23.0664 11.7238 22.4385 12.4412 21.6163 12.5742C21.467 12.0276 21.3872 11.4523 21.3872 10.8583C21.3872 10.2647 21.467 9.68933 21.6163 9.14246C22.4385 9.27579 23.0664 9.99321 23.0664 10.8583Z" fill="#BF8E75"/>
<path d="M21.9568 10.8583C21.9568 11.2014 21.6804 11.4796 21.3396 11.4796C20.9988 11.4796 20.7226 11.2014 20.7226 10.8583C20.7226 10.5153 20.9988 10.2373 21.3396 10.2373C21.6804 10.2373 21.9568 10.5153 21.9568 10.8583Z" fill="#BF8E75"/>
<path d="M28.1598 18.7801L25.8168 20.0909L25.1041 16.7535L26.5598 15.8904" fill="#BFD5DE"/>
<path d="M28.1598 18.7801L30.503 20.0909L31.2157 16.7535L29.7597 15.8904" fill="#BFD5DE"/>
<path d="M33.2537 10.8583C33.2537 11.7237 33.8816 12.4411 34.7038 12.5742C34.7937 12.5888 34.8861 12.5964 34.9805 12.5964C35.9344 12.5964 36.7073 11.8184 36.7073 10.8583C36.7073 9.89815 35.9344 9.12012 34.9805 9.12012C34.8861 9.12012 34.7937 9.12773 34.7038 9.14239C33.8816 9.27572 33.2537 9.99314 33.2537 10.8583Z" fill="#D3A489"/>
<path d="M33.2537 10.8583C33.2537 11.7238 33.8816 12.4412 34.7038 12.5742C34.8534 12.0276 34.9329 11.4523 34.9329 10.8583C34.9329 10.2647 34.8534 9.68933 34.7038 9.14246C33.8816 9.27579 33.2537 9.99321 33.2537 10.8583Z" fill="#BF8E75"/>
<path d="M35.5977 10.8583C35.5977 11.2014 35.3213 11.4796 34.9805 11.4796C34.6397 11.4796 34.3633 11.2014 34.3633 10.8583C34.3633 10.5153 34.6397 10.2373 34.9805 10.2373C35.3213 10.2373 35.5977 10.5153 35.5977 10.8583Z" fill="#BF8E75"/>
<path d="M34.5851 9.93458C34.5851 13.1527 32.2494 15.8225 29.1912 16.3181C28.856 16.3736 28.5115 16.4015 28.16 16.4015C24.6115 16.4015 21.7353 13.5065 21.7353 9.93458C21.7353 8.24462 22.3184 5.70757 23.3728 4.55547C24.5468 3.27257 26.2904 3.46736 28.16 3.46736C28.5115 3.46736 28.8557 3.49555 29.1912 3.55108C32.2494 4.04665 34.5851 6.71619 34.5851 9.93458Z" fill="#BF8E75"/>
<path d="M30.0171 14.6177V16.9115C30.0171 17.7512 29.4671 18.461 28.7092 18.6967C28.5359 18.7508 28.351 18.7801 28.1598 18.7801C27.1345 18.7801 26.3033 17.9435 26.3033 16.9115V14.6177H30.0171Z" fill="#BF8E75"/>
<path d="M30.0171 16.766V16.9114C30.0171 17.7512 29.4671 18.461 28.7092 18.6967C28.0256 18.4853 27.5117 17.8868 27.4168 17.1547C27.5409 17.1623 27.6655 17.1663 27.7909 17.1663C28.1421 17.1663 28.4866 17.1381 28.8221 17.0828C29.2355 17.0157 29.6348 16.9089 30.0171 16.766Z" fill="#D3A489"/>
<path d="M34.5851 9.93456C34.5851 13.1527 32.2494 15.8225 29.1912 16.3181C26.1333 15.8225 23.7976 13.1527 23.7976 9.93456C23.7976 7.95284 24.6832 6.17916 26.0781 4.99267C26.948 4.25242 28.0164 3.74134 29.1912 3.55078C32.0422 4.01281 34.2661 6.36521 34.5534 9.28959C34.5744 9.50185 34.5851 9.71722 34.5851 9.93456Z" fill="#D3A489"/>
<path d="M28.1603 13.1197C27.6221 13.1197 27.0844 12.9841 26.594 12.7126C26.4554 12.6362 26.4049 12.4612 26.4811 12.3219C26.557 12.1827 26.7309 12.1319 26.8693 12.2086C27.6775 12.6557 28.6429 12.6557 29.4514 12.2086C29.5894 12.1319 29.7634 12.1827 29.8393 12.3219C29.9154 12.4612 29.865 12.6362 29.7267 12.7126C29.2363 12.9841 28.698 13.1197 28.1603 13.1197Z" fill="#BF8E75"/>
<path d="M26.792 9.55823C26.792 9.96332 26.4657 10.2917 26.063 10.2917C25.6606 10.2917 25.3343 9.96332 25.3343 9.55823C25.3343 9.15287 25.6606 8.82446 26.063 8.82446C26.4657 8.82446 26.792 9.15287 26.792 9.55823Z" fill="#3D4159"/>
<path d="M30.9861 9.55823C30.9861 9.96332 30.6598 10.2917 30.2574 10.2917C29.8547 10.2917 29.5284 9.96332 29.5284 9.55823C29.5284 9.15287 29.8547 8.82446 30.2574 8.82446C30.6598 8.82446 30.9861 9.15287 30.9861 9.55823Z" fill="#3D4159"/>
<path d="M26.6433 9.42857C26.6433 9.60222 26.5035 9.74316 26.331 9.74316C26.1585 9.74316 26.0188 9.60222 26.0188 9.42857C26.0188 9.2552 26.1585 9.11426 26.331 9.11426C26.5035 9.11426 26.6433 9.2552 26.6433 9.42857Z" fill="white"/>
<path d="M30.8732 9.42857C30.8732 9.60222 30.7335 9.74316 30.561 9.74316C30.3884 9.74316 30.2487 9.60222 30.2487 9.42857C30.2487 9.2552 30.3884 9.11426 30.561 9.11426C30.7335 9.11426 30.8732 9.2552 30.8732 9.42857Z" fill="white"/>
<path d="M28.889 11.4052H27.4313C27.2577 11.4052 27.1168 11.2634 27.1168 11.0886C27.1168 10.9138 27.2577 10.7723 27.4313 10.7723H28.889C29.0627 10.7723 29.2035 10.9138 29.2035 11.0886C29.2033 11.2634 29.0627 11.4052 28.889 11.4052Z" fill="#BF8E75"/>
<path d="M30.2756 21.7019H33.0764V22.5648H30.2756V21.7019Z" fill="#BFD5DE"/>
<path d="M27.7842 1.62004C29.7306 1.75986 31.2933 3.34241 31.3922 5.33456L31.4106 5.70864H32.5303L33.1333 9.7448L34.5937 9.28982L34.3977 5.33484C34.2941 3.24206 32.5746 1.602 30.4937 1.60989L27.7842 1.62004Z" fill="#2A2F4F"/>
<path d="M34.2739 0.05896C35.8237 1.61896 35.8237 4.1484 34.2739 5.7084C32.7241 7.26841 30.2112 7.26841 28.6613 5.7084L34.2739 0.05896Z" fill="#3D4159"/>
<path d="M28.6613 5.70839H23.7906L23.1874 9.74484L21.7269 9.28986L21.9227 5.3346C22.0263 3.24238 23.7458 1.60175 25.8269 1.60965L32.8616 1.63643L33.7917 3.32131" fill="#3D4159"/>
<path d="M28.5362 1.62004C26.5898 1.75986 25.0271 3.34241 24.9282 5.33456L24.9097 5.70864H23.7904L23.1871 9.7448L21.7266 9.28982L21.9227 5.33484C22.0263 3.24206 23.7458 1.602 25.8266 1.60989L28.5362 1.62004Z" fill="#2A2F4F"/>
<path d="M26.1333 31.8783V33.2636C23.7713 34.3773 21.1352 35 18.3537 35C15.5722 35 12.9352 34.3773 10.5732 33.2627V31.8783C10.5732 29.1448 12.4168 26.8457 14.921 26.1717C15.0126 26.1468 15.1047 26.124 15.1983 26.1037C15.447 26.0493 15.7024 26.0118 15.9617 25.9907C16.1205 25.9777 16.2801 25.9709 16.442 25.9709H20.2639C20.6916 25.9709 21.1074 26.0163 21.509 26.1037C21.5323 26.1082 21.5555 26.1136 21.5779 26.1189C21.6454 26.1347 21.7126 26.1514 21.7793 26.1694C21.7818 26.17 21.7824 26.17 21.7846 26.1708C22.4455 26.3487 23.0605 26.6399 23.6066 27.0221C25.1341 28.0885 26.1333 29.8656 26.1333 31.8783Z" fill="#3D4159"/>
<path d="M21.7989 26.1038L21.7846 26.1709L19.9127 34.9338C19.8158 34.942 19.7186 34.9496 19.6212 34.9564C19.484 34.9654 19.3462 34.9736 19.2075 34.9798C18.9244 34.9933 18.6399 35.0001 18.3537 35.0001C18.0599 35.0001 17.7686 34.9933 17.4788 34.9789C17.3477 34.973 17.2164 34.9654 17.0853 34.9555C16.9873 34.9488 16.8898 34.942 16.7924 34.9338L14.921 26.1717L14.907 26.1038H21.7989Z" fill="#66BAED"/>
<path d="M19.9287 28.1027L18.3531 30.6459L16.7778 28.1027" fill="#3D4159"/>
<path d="M19.6212 34.9563C19.484 34.9654 19.3462 34.9735 19.2075 34.9797C18.9244 34.9933 18.6399 35 18.3537 35C18.0599 35 17.7686 34.9933 17.4788 34.9789C17.3477 34.973 17.2164 34.9654 17.0853 34.9555L18.3537 29.984L19.6212 34.9563Z" fill="#3D4159"/>
<path d="M18.3528 28.3894L15.7105 29.8674L14.9067 26.1044L16.5484 25.131" fill="#2BA1CF"/>
<path d="M18.3528 28.3894L20.9949 29.8674L21.7986 26.1044L20.1569 25.131" fill="#2BA1CF"/>
<path d="M21.8986 31.1824H22.7368L21.2729 34.7669C20.5958 34.8763 19.9066 34.9479 19.2075 34.9798L21.7793 26.1694L21.7989 26.1038L23.6066 26.698L21.8986 31.1824Z" fill="#2A2F4F"/>
<path d="M17.4788 34.9789C16.7789 34.9465 16.0891 34.8735 15.412 34.7633L13.9495 31.1824H14.7877L13.0791 26.698L14.8874 26.1038L14.907 26.1694L17.4788 34.9789Z" fill="#2A2F4F"/>
<path d="M20.4471 23.6956V26.2819C20.4471 27.2291 19.8267 28.0294 18.9723 28.2952C18.7765 28.3564 18.5682 28.3894 18.3525 28.3894C17.1962 28.3894 16.2591 27.4459 16.2591 26.2819V23.6956H20.4471Z" fill="#EAB599"/>
<path d="M20.4471 26.1182V26.2822C20.4471 27.2291 19.8267 28.0294 18.9723 28.2955C18.2013 28.0568 17.6216 27.3822 17.5146 26.5565C17.6546 26.5652 17.7952 26.5695 17.9364 26.5695C18.3327 26.5695 18.7211 26.5379 19.0992 26.4756C19.5655 26.4001 20.0158 26.2791 20.4471 26.1182Z" fill="#F6CAAE"/>
<path d="M12.6092 19.4564C12.6092 20.432 11.9009 21.2411 10.9737 21.3913C10.8723 21.4077 10.7681 21.4164 10.662 21.4164C9.58627 21.4164 8.71446 20.5391 8.71446 19.4564C8.71446 18.3736 9.58599 17.4961 10.662 17.4961C10.7681 17.4961 10.8723 17.5048 10.9737 17.5215C11.9009 17.6717 12.6092 18.4808 12.6092 19.4564Z" fill="#F6CAAE"/>
<path d="M12.6092 19.4564C12.6092 20.432 11.9009 21.2411 10.9737 21.3913C10.8053 20.7748 10.7154 20.1259 10.7154 19.4564C10.7154 18.7866 10.8053 18.138 10.9737 17.5215C11.9009 17.6717 12.6092 18.4808 12.6092 19.4564Z" fill="#EAB599"/>
<path d="M11.3579 19.4564C11.3579 19.8431 11.0462 20.1569 10.662 20.1569C10.2774 20.1569 9.96602 19.8431 9.96602 19.4564C9.96602 19.0693 10.2774 18.7559 10.662 18.7559C11.0462 18.7559 11.3579 19.0693 11.3579 19.4564Z" fill="#EAB599"/>
<path d="M24.0967 19.4564C24.0967 20.432 24.805 21.2411 25.7323 21.3913C25.8334 21.4077 25.9378 21.4164 26.044 21.4164C27.1196 21.4164 27.9915 20.5391 27.9915 19.4564C27.9915 18.3736 27.1199 17.4961 26.044 17.4961C25.9378 17.4961 25.8334 17.5048 25.7323 17.5215C24.805 17.6717 24.0967 18.4808 24.0967 19.4564Z" fill="#F6CAAE"/>
<path d="M24.0967 19.4564C24.0967 20.432 24.805 21.2411 25.7323 21.3913C25.9006 20.7748 25.9905 20.1259 25.9905 19.4564C25.9905 18.7866 25.9006 18.138 25.7323 17.5215C24.805 17.6717 24.0967 18.4808 24.0967 19.4564Z" fill="#EAB599"/>
<path d="M25.5981 15.6379V18.4148C25.5981 22.0439 22.9642 25.0543 19.5156 25.613C19.5041 25.6149 19.4918 25.6169 19.4803 25.6189C19.1134 25.6781 18.7371 25.7071 18.3528 25.7071C14.3517 25.7071 11.1084 22.4422 11.1084 18.4151V15.6379C11.1084 14.7899 11.252 13.975 11.5175 13.2178C12.5084 10.3797 15.1949 8.34497 18.3528 8.34497H18.3534C18.7371 8.34497 19.114 8.37485 19.4814 8.4332C22.9468 8.97811 25.5981 11.9966 25.5981 15.6379Z" fill="#EAB599"/>
<path d="M26.7399 19.4564C26.7399 19.8431 26.4285 20.1569 26.044 20.1569C25.6597 20.1569 25.348 19.8431 25.348 19.4564C25.348 19.0693 25.6597 18.7559 26.044 18.7559C26.4285 18.7559 26.7399 19.0693 26.7399 19.4564Z" fill="#EAB599"/>
<path d="M25.5978 15.6379V18.4148C25.5978 22.0437 22.9642 25.0543 19.5156 25.613C19.5038 25.615 19.4918 25.6169 19.48 25.6189C16.0149 25.0737 13.3642 22.0555 13.3642 18.4148V15.6379C13.3642 11.9967 16.0155 8.97813 19.4814 8.43323C22.9468 8.97813 25.5978 11.9967 25.5978 15.6379Z" fill="#F6CAAE"/>
<path d="M16.81 17.9899C16.81 18.4469 16.442 18.8173 15.9883 18.8173C15.5343 18.8173 15.1664 18.4469 15.1664 17.9899C15.1664 17.5333 15.5343 17.1628 15.9883 17.1628C16.442 17.1628 16.81 17.5333 16.81 17.9899Z" fill="#3D4159"/>
<path d="M21.5398 17.9899C21.5398 18.4469 21.1718 18.8173 20.7179 18.8173C20.2639 18.8173 19.8959 18.4469 19.8959 17.9899C19.8959 17.5333 20.2639 17.1628 20.7179 17.1628C21.1718 17.1628 21.5398 17.5333 21.5398 17.9899Z" fill="#3D4159"/>
<path d="M16.6425 17.8442C16.6425 18.0399 16.4849 18.1986 16.2902 18.1986C16.0959 18.1986 15.9382 18.0399 15.9382 17.8442C15.9382 17.6483 16.0959 17.4896 16.2902 17.4896C16.4849 17.4896 16.6425 17.6483 16.6425 17.8442Z" fill="white"/>
<path d="M21.4124 17.8442C21.4124 18.0399 21.2547 18.1986 21.0604 18.1986C20.8657 18.1986 20.7081 18.0399 20.7081 17.8442C20.7081 17.6483 20.8657 17.4896 21.0604 17.4896C21.2547 17.4896 21.4124 17.6483 21.4124 17.8442Z" fill="white"/>
<path d="M19.1751 19.7487H17.5311C17.3354 19.7487 17.1766 19.5888 17.1766 19.3918C17.1766 19.1945 17.3354 19.0349 17.5311 19.0349H19.1751C19.3708 19.0349 19.5296 19.1945 19.5296 19.3918C19.5293 19.5888 19.3705 19.7487 19.1751 19.7487Z" fill="#EAB599"/>
<path d="M18.3531 22.0064C17.7465 22.0064 17.1396 21.8534 16.5868 21.5472C16.4308 21.461 16.3737 21.2636 16.4597 21.1069C16.5453 20.9499 16.7414 20.8927 16.8974 20.9786C17.809 21.4832 18.8972 21.4832 19.8088 20.9786C19.9648 20.8924 20.1609 20.9496 20.2465 21.1069C20.3325 21.2636 20.2754 21.461 20.1194 21.5472C19.5663 21.8534 18.9597 22.0064 18.3531 22.0064Z" fill="#EAB599"/>
<path d="M25.5981 13.1177V15.9623H24.2496V13.7345L14.5161 11.914L12.4565 11.5286V15.9623H11.1081V13.1174C11.1081 9.87448 13.7193 7.24609 16.9405 7.24609H19.7657C19.8424 7.24609 19.9192 7.2475 19.9959 7.25145C23.1098 7.3721 25.5981 9.952 25.5981 13.1177Z" fill="#2A2F4F"/>
<path d="M25.5981 13.1177V15.9623H24.2496V13.7345L14.5161 11.914C15.0524 9.32113 17.2872 7.35661 19.9959 7.25146C23.1098 7.37212 25.5981 9.95201 25.5981 13.1177Z" fill="#3D4159"/>
</g>
<defs>
<clipPath id="clip0_122_21407">
<rect width="36.7073" height="35" fill="white"/>
</clipPath>
</defs>
</svg>
