<svg width="24" height="24" viewBox="0 0 24 24" fill="none" xmlns="http://www.w3.org/2000/svg">
<path d="M0 2.99098C0 3.38738 0.324324 3.71171 0.720721 3.71171H23.2793C23.6757 3.71171 24 3.38738 24 2.99098C24 2.59459 23.6757 2.27026 23.2793 2.27026H0.720721C0.324324 2.27026 0 2.59459 0 2.99098Z" fill="black"/>
<path d="M0.720721 9.6937H16.5766C16.973 9.6937 17.2973 9.36938 17.2973 8.97298C17.2973 8.57658 16.973 8.25226 16.5766 8.25226H0.720721C0.324324 8.25226 0 8.57658 0 8.97298C0 9.36938 0.324324 9.6937 0.720721 9.6937Z" fill="black"/>
<path d="M0.720721 15.7477H23.2793C23.6757 15.7477 24 15.4234 24 15.027C24 14.6306 23.6757 14.3063 23.2793 14.3063H0.720721C0.324324 14.3063 0 14.6306 0 15.027C0 15.4234 0.324324 15.7477 0.720721 15.7477Z" fill="black"/>
<path d="M0.720721 21.7297H10.8829C11.2793 21.7297 11.6036 21.4054 11.6036 21.009C11.6036 20.6126 11.2793 20.2883 10.8829 20.2883H0.720721C0.324324 20.2883 0 20.6126 0 21.009C0 21.4054 0.324324 21.7297 0.720721 21.7297Z" fill="black"/>
</svg>
