<svg width="35" height="35" viewBox="0 0 35 35" fill="none" xmlns="http://www.w3.org/2000/svg">
<g clip-path="url(#clip0_123_23910)">
<path d="M17.5 35C27.165 35 35 27.165 35 17.5C35 7.83502 27.165 0 17.5 0C7.83502 0 0 7.83502 0 17.5C0 27.165 7.83502 35 17.5 35Z" fill="#E7ECED"/>
<path d="M17.5 2.41379C25.8185 2.41379 32.5862 9.18147 32.5862 17.5C32.5862 25.8185 25.8185 32.5862 17.5 32.5862C9.18147 32.5862 2.41379 25.8185 2.41379 17.5C2.41379 9.18147 9.18147 2.41379 17.5 2.41379ZM17.5 0C7.83517 0 0 7.83517 0 17.5C0 27.1648 7.83517 35 17.5 35C27.1648 35 35 27.1648 35 17.5C35 7.83517 27.1648 0 17.5 0Z" fill="#424A60"/>
<path d="M17.5 3.54767C17.1669 3.54767 16.8965 3.81741 16.8965 4.15112V4.75457C16.8965 5.08827 17.1669 5.35801 17.5 5.35801C17.8331 5.35801 18.1034 5.08827 18.1034 4.75457V4.15112C18.1034 3.81741 17.8331 3.54767 17.5 3.54767Z" fill="#7383BF"/>
<path d="M17.5 29.496C17.1669 29.496 16.8965 29.7657 16.8965 30.0994V30.7029C16.8965 31.0366 17.1669 31.3063 17.5 31.3063C17.8331 31.3063 18.1034 31.0366 18.1034 30.7029V30.0994C18.1034 29.7657 17.8331 29.496 17.5 29.496Z" fill="#7383BF"/>
<path d="M30.7759 16.8235H30.1724C29.8393 16.8235 29.569 17.0933 29.569 17.427C29.569 17.7607 29.8393 18.0304 30.1724 18.0304H30.7759C31.109 18.0304 31.3793 17.7607 31.3793 17.427C31.3793 17.0933 31.109 16.8235 30.7759 16.8235Z" fill="#7383BF"/>
<path d="M4.82756 16.8235H4.22411C3.89101 16.8235 3.62067 17.0933 3.62067 17.427C3.62067 17.7607 3.89101 18.0304 4.22411 18.0304H4.82756C5.16067 18.0304 5.43101 17.7607 5.43101 17.427C5.43101 17.0933 5.16067 16.8235 4.82756 16.8235Z" fill="#7383BF"/>
<path d="M26.4606 7.61251L26.034 8.03915C25.798 8.27509 25.798 8.65647 26.034 8.89242C26.1516 9.01009 26.3061 9.06923 26.4606 9.06923C26.6151 9.06923 26.7696 9.01009 26.8872 8.89242L27.3139 8.46578C27.5498 8.22984 27.5498 7.84846 27.3139 7.61251C27.0779 7.37656 26.6965 7.37656 26.4606 7.61251Z" fill="#7383BF"/>
<path d="M8.11275 25.9609L7.68612 26.3876C7.45017 26.6235 7.45017 27.0049 7.68612 27.2408C7.80379 27.3585 7.95827 27.4176 8.11275 27.4176C8.26724 27.4176 8.42172 27.3585 8.53939 27.2408L8.96603 26.8142C9.20198 26.5782 9.20198 26.1969 8.96603 25.9609C8.73008 25.725 8.3481 25.7256 8.11275 25.9609Z" fill="#7383BF"/>
<path d="M26.8872 25.961C26.6513 25.725 26.2699 25.725 26.034 25.961C25.798 26.1969 25.798 26.5783 26.034 26.8142L26.4606 27.2409C26.5783 27.3585 26.7327 27.4177 26.8872 27.4177C27.0417 27.4177 27.1962 27.3585 27.3139 27.2409C27.5498 27.0049 27.5498 26.6235 27.3139 26.3876L26.8872 25.961Z" fill="#7383BF"/>
<path d="M8.53939 7.61251C8.30344 7.37656 7.92206 7.37656 7.68612 7.61251C7.45017 7.84846 7.45017 8.22984 7.68612 8.46578L8.11275 8.89242C8.23043 9.01009 8.38491 9.06923 8.53939 9.06923C8.69387 9.06923 8.84836 9.01009 8.96603 8.89242C9.20198 8.65647 9.20198 8.27509 8.96603 8.03915L8.53939 7.61251Z" fill="#7383BF"/>
<path d="M15.6896 17.427H10.8621" stroke="#424A60" stroke-width="2" stroke-miterlimit="10" stroke-linecap="round" stroke-linejoin="round"/>
<path d="M17.5 15.6166V8.9787" stroke="#424A60" stroke-width="2" stroke-miterlimit="10" stroke-linecap="round" stroke-linejoin="round"/>
<path d="M17.5 19.2373C18.4998 19.2373 19.3103 18.4268 19.3103 17.427C19.3103 16.4272 18.4998 15.6166 17.5 15.6166C16.5002 15.6166 15.6896 16.4272 15.6896 17.427C15.6896 18.4268 16.5002 19.2373 17.5 19.2373Z" stroke="#424A60" stroke-width="2" stroke-miterlimit="10" stroke-linecap="round" stroke-linejoin="round"/>
</g>
<defs>
<clipPath id="clip0_123_23910">
<rect width="35" height="35" fill="white"/>
</clipPath>
</defs>
</svg>
