<svg width="30" height="30" viewBox="0 0 30 30" fill="none" xmlns="http://www.w3.org/2000/svg">
<g clip-path="url(#clip0_117_11740)">
<path d="M11.8347 11.25H18.0634C18.4074 11.25 18.6863 11.5298 18.6863 11.875V14.375C18.6863 14.7202 18.4074 15.0001 18.0634 15.0001H11.8347C11.4907 15.0001 11.2118 14.7202 11.2118 14.375V11.875C11.2118 11.5298 11.4907 11.25 11.8347 11.25Z" fill="#90A4AE"/>
<path d="M19.5271 27.6712L18.6688 24.2237C18.5995 23.9449 18.3497 23.7495 18.0633 23.75H11.8346C11.5487 23.7501 11.2996 23.9454 11.2304 24.2237L10.3721 27.67C10.1216 28.6746 10.7302 29.6926 11.7314 29.9439C11.8796 29.9812 12.0318 30 12.1847 30H17.7133C18.7453 30.0004 19.5822 29.1613 19.5827 28.1257C19.5827 27.9725 19.5641 27.8199 19.5271 27.6712Z" fill="#B0BEC5"/>
<path d="M23.1922 0.62502C22.838 0.227637 22.332 0.000351566 21.8007 3.06734e-09H8.0975C7.06549 -5.85907e-05 6.22882 0.839355 6.22876 1.87488C6.22876 1.94385 6.23256 2.01275 6.24009 2.08125L7.20926 10.8312C7.31402 11.7812 8.11414 12.5 9.06667 12.5H20.8303C21.7824 12.5001 22.5824 11.782 22.6877 10.8325L23.6569 2.08248C23.7156 1.55244 23.5466 1.0224 23.1922 0.62502Z" fill="#CFD8DC"/>
<path d="M11.8347 6.25C12.8667 6.25 13.7033 5.41053 13.7033 4.375C13.7033 3.33947 12.8667 2.5 11.8347 2.5C10.8027 2.5 9.96606 3.33947 9.96606 4.375C9.96606 5.41053 10.8027 6.25 11.8347 6.25Z" fill="#4DB6AC"/>
<path d="M15.5719 3.75004H11.8347C11.4907 3.75004 11.2118 3.4702 11.2118 3.12502C11.2118 2.77984 11.4907 2.5 11.8347 2.5H15.5719C15.9159 2.5 16.1948 2.77984 16.1948 3.12502C16.1948 3.4702 15.9159 3.75004 15.5719 3.75004Z" fill="#009688"/>
<path d="M23.0464 16.25H6.85165C6.50765 16.25 6.22876 16.5298 6.22876 16.875C6.22876 21.5075 9.97844 25 14.949 25C19.9195 25 23.6693 21.5075 23.6693 16.875C23.6693 16.5298 23.3904 16.25 23.0464 16.25Z" fill="#CFD8DC"/>
<path d="M14.9491 19.375C19.4211 19.375 23.0465 18.2557 23.0465 16.875C23.0465 15.4943 19.4211 14.375 14.9491 14.375C10.477 14.375 6.85168 15.4943 6.85168 16.875C6.85168 18.2557 10.477 19.375 14.9491 19.375Z" fill="#607D8B"/>
<path d="M14.949 19.9999C10.615 19.9999 6.22876 18.9274 6.22876 16.8749C6.22876 12.7712 23.6693 12.7712 23.6693 16.8749C23.6692 18.9274 19.283 19.9999 14.949 19.9999ZM14.949 14.9999C10.3123 14.9999 7.47449 16.2137 7.47449 16.8749C7.47449 17.5361 10.3123 18.7499 14.949 18.7499C19.5857 18.7499 22.4235 17.5361 22.4235 16.8749C22.4235 16.2137 19.5857 14.9999 14.949 14.9999Z" fill="#CFD8DC"/>
</g>
<defs>
<clipPath id="clip0_117_11740">
<rect width="29.898" height="30" fill="white"/>
</clipPath>
</defs>
</svg>
