<svg width="346px" height="476px" viewBox="0 0 346 476" version="1.1" xmlns="http://www.w3.org/2000/svg" xmlns:xlink="http://www.w3.org/1999/xlink"> <g id="Page-1" stroke="none" stroke-width="1" fill="none" fill-rule="evenodd"> <g id="garbage" transform="translate(-347.000000, 0.000000)" fill-rule="nonzero"> <path d="M623.468,31.453 L623.468,10.792 C623.468,5.126 618.832,0.49 613.166,0.49 L432.347,0.49 C426.682,0.49 422.046,5.126 422.046,10.792 L422.046,31.452 L623.468,31.453 Z" id="Path" fill="#4398D1"></path> <path d="M450.393,31.452 L450.393,10.792 C450.393,5.126 455.029,0.49 460.695,0.49 L432.347,0.49 C426.682,0.49 422.046,5.126 422.046,10.792 L422.046,31.452 L450.393,31.452 Z" id="Path" fill="#231F20" opacity="0.1"></path> <path d="M678.023,68 L678.023,36.363 C678.023,30.697 673.386,26.061 667.72,26.061 L377.79,26.06 C372.124,26.06 367.488,30.696 367.488,36.362 L367.488,68 L678.023,68 Z" id="Path" fill="#FFBB4A"></path> <path d="M405.298,26.061 L377.79,26.061 C372.124,26.061 367.488,30.697 367.488,36.363 L367.488,68 L395,68 L395,36.361 C395,30.696 399.634,26.062 405.298,26.061 Z" id="Path" fill="#231F20" opacity="0.1"></path> <path d="M560.942,415.361 C560.942,384.35 586.082,359.212 617.093,359.212 C626.453,359.212 635.271,361.515 643.031,365.566 L669.923,100.223 C670.208,97.404 668.124,95.098 665.291,95.098 L374.851,95.098 C372.018,95.098 369.864,97.41 370.065,100.236 L395.648,460.879 C395.849,463.705 398.331,466.018 401.164,466.018 L592.849,466.018 C573.976,456.969 560.942,437.688 560.942,415.361 Z" id="Path" fill="#FFBB4A"></path> <path d="M426.425,460.879 L400.842,100.236 C400.642,97.41 402.796,95.098 405.629,95.098 L374.852,95.098 C372.019,95.098 369.865,97.41 370.066,100.236 L395.649,460.879 C395.85,463.705 398.332,466.018 401.165,466.018 L431.942,466.018 C429.107,466.018 426.626,463.705 426.425,460.879 Z" id="Path" fill="#231F20" opacity="0.1"></path> <path d="M693,99.973 C693,102.806 690.682,105.124 687.85,105.124 L352.293,105.124 C349.46,105.124 347.142,102.806 347.142,99.973 L347.142,67.669 C347.142,64.836 349.46,62.518 352.293,62.518 L687.85,62.518 C690.682,62.518 693,64.836 693,67.669 L693,99.973 Z" id="Path" fill="#FF9F3D"></path> <path d="M377.533,99.973 L377.533,67.669 C377.533,64.836 379.851,62.518 382.684,62.518 L352.293,62.518 C349.46,62.518 347.142,64.836 347.142,67.669 L347.142,99.973 C347.142,102.806 349.46,105.124 352.293,105.124 L382.684,105.124 C379.851,105.124 377.533,102.806 377.533,99.973 Z" id="Path" fill="#231F20" opacity="0.1"></path> <path d="M677.241,415.361 C677.241,448.579 650.31,475.509 617.094,475.509 C583.873,475.509 556.943,448.578 556.943,415.361 C556.943,382.141 583.874,355.212 617.094,355.212 C650.31,355.212 677.241,382.142 677.241,415.361 Z" id="Path" fill="#4398D1"></path> <g id="Group" transform="translate(82.000000, 155.000000)" fill="#2D72A0"> <circle id="Oval" cx="535.09" cy="260.36" r="22.555"></circle> </g> </g> </g></svg>
