<svg width="18" height="18" viewBox="0 0 18 18" fill="none" xmlns="http://www.w3.org/2000/svg">
<g clip-path="url(#clip0_100_1384)">
<path d="M8.4707 8.47058H9.52953V14.2941H8.4707V8.47058Z" fill="#2B2B2B"/>
<path d="M6.35303 8.47058H7.41185V14.2941H6.35303V8.47058Z" fill="#2B2B2B"/>
<path d="M10.5884 8.47058H11.6472V14.2941H10.5884V8.47058Z" fill="#2B2B2B"/>
<path d="M15.8824 2.11765H11.6471V1.58824C11.6471 0.712482 10.9346 0 10.0589 0H7.94121C7.06542 0 6.35297 0.712482 6.35297 1.58824V2.11765H2.11768V5.29412H3.22055L4.1941 16.4909C4.23614 17.3382 4.93044 18 5.78036 18H12.2197C13.0696 18 13.7639 17.3382 13.8059 16.4909L14.7795 5.29412H15.8824V2.11765ZM7.41179 1.58824C7.41179 1.29632 7.64929 1.05882 7.94121 1.05882H10.0589C10.3508 1.05882 10.5883 1.29632 10.5883 1.58824V2.11765H7.41179V1.58824ZM3.1765 3.17647H14.8236V4.23529H3.1765V3.17647ZM12.7487 16.4338C12.7368 16.7183 12.5045 16.9412 12.2197 16.9412H5.78036C5.49561 16.9412 5.26326 16.7183 5.25141 16.4338C4.21559 4.51472 4.28643 5.32969 4.28332 5.29412H13.7167C13.7139 5.32606 13.7798 4.56815 12.7487 16.4338Z" fill="#2B2B2B"/>
</g>
<defs>
<clipPath id="clip0_100_1384">
<rect width="18" height="18" fill="white"/>
</clipPath>
</defs>
</svg>
