<svg width="50" height="50" viewBox="0 0 50 50" fill="none" xmlns="http://www.w3.org/2000/svg">
<g clip-path="url(#clip0_44_1435)">
<path d="M42.2222 7.97156C41.8411 9.7 41.9499 11.2373 42.0513 12.6819C42.2173 15.036 42.3603 17.0681 40.2878 20.1176C39.3994 21.4245 40.3603 23.2632 41.9499 23.2513C42.5995 23.2464 43.2385 22.9343 43.6157 22.3789C46.4729 18.1766 46.2464 14.9734 46.0655 12.3993C45.9828 11.2209 45.9076 10.1547 46.1228 9.02899L45.0451 6.50977L42.2222 7.97156Z" fill="#59636F"/>
<path d="M31.3591 18.2728C43.2594 14.3066 48.7926 24.1711 44.8692 31.2107L37.2738 34.0752L25 30.051V22.6063L31.3591 18.2728Z" fill="#8895A2"/>
<path d="M5.02167 21.7559C5.02167 21.7559 2.01684 18.7904 3.12348 13.089C3.19863 12.7018 3.49999 12.3985 3.8868 12.3214C9.54133 11.1965 11.8271 13.9389 11.8271 13.9389L5.02167 21.7559Z" fill="#59636F"/>
<path d="M7.00225 20.1248C7.00225 20.1248 7.02361 20.1439 7.06023 20.1836C7.05298 20.176 7.03391 20.155 7.0053 20.1207L7.00225 20.1248ZM6.19544 14.5409H6.18857C5.79032 14.5413 5.46836 14.8724 5.4737 15.271C5.51413 18.1706 6.72454 19.7846 7.0053 20.1207L10.0204 15.6475C9.9636 15.5915 8.86268 14.5409 6.19544 14.5409Z" fill="#D3D2D8"/>
<path d="M29.5586 21.7559C29.5586 21.7559 32.5634 18.7904 31.4568 13.089C31.3816 12.7018 31.0803 12.3985 30.6935 12.3214C25.0389 11.1965 22.7532 13.9389 22.7532 13.9389L29.5586 21.7559Z" fill="#59636F"/>
<path d="M27.5749 20.1207C27.5463 20.155 27.5272 20.176 27.52 20.1836C27.5566 20.1439 27.5779 20.1248 27.5779 20.1248L27.5749 20.1207ZM24.5598 15.6475L27.5749 20.1207C27.8557 19.7846 29.0661 18.1706 29.1065 15.271C29.1118 14.8724 28.7899 14.5413 28.3916 14.5409H28.3848C25.7175 14.5409 24.6166 15.5915 24.5598 15.6475Z" fill="#D3D2D8"/>
<path d="M3.66327 26.4256C3.66327 33.9516 9.76411 40.0524 17.2901 40.0524C24.8161 40.0524 30.917 33.9516 30.917 26.4256C30.917 18.8996 24.8161 12.7987 17.2901 12.7987C9.76411 12.7987 3.66327 18.8996 3.66327 26.4256Z" fill="#A6ADB9"/>
<path d="M6.68146 26.4256C6.68146 19.41 11.9835 13.6334 18.7992 12.8822C18.3037 12.8277 17.8002 12.7987 17.2901 12.7987C9.76411 12.7987 3.66327 18.8996 3.66327 26.4256C3.66327 33.9516 9.76411 40.052 17.2901 40.052C17.8002 40.052 18.3037 40.0231 18.7992 39.9685C11.9835 39.2178 6.68146 33.4412 6.68146 26.4256Z" fill="#8895A2"/>
<path d="M10.8444 24.4442C10.4274 24.4442 10.0898 24.1066 10.0898 23.6896V22.5231C10.0898 22.1065 10.4274 21.7686 10.8444 21.7686C11.261 21.7686 11.5989 22.1065 11.5989 22.5231V23.6896C11.5989 24.1066 11.261 24.4442 10.8444 24.4442Z" fill="#59636F"/>
<path d="M23.7358 24.4442C23.3192 24.4442 22.9813 24.1066 22.9813 23.6896V22.5231C22.9813 22.1065 23.3192 21.7686 23.7358 21.7686C24.1528 21.7686 24.4904 22.1065 24.4904 22.5231V23.6896C24.4904 24.1066 24.1528 24.4442 23.7358 24.4442Z" fill="#59636F"/>
<path d="M18.8205 23.0594H15.7596C15.1519 23.0594 14.9814 23.8926 15.5399 24.1329C16.0721 24.3622 16.6649 24.49 17.2901 24.49C17.9153 24.49 18.5081 24.3622 19.0403 24.1329C19.5987 23.8922 19.4286 23.0594 18.8205 23.0594Z" fill="#59636F"/>
<path d="M20.6394 25.3105C20.3255 25.0362 19.849 25.0682 19.5747 25.3822C19.3672 25.6191 19.0544 25.7553 18.7164 25.7553C18.3784 25.7553 18.0652 25.6191 17.8581 25.3822C17.725 25.2296 17.5293 25.1354 17.3271 25.1255C17.0997 25.1144 16.872 25.2105 16.7221 25.3822C16.5146 25.6191 16.2021 25.7553 15.8638 25.7553C15.5258 25.7553 15.213 25.6191 15.0055 25.3822C14.7312 25.0682 14.2544 25.0366 13.9408 25.3105C13.6272 25.5851 13.5952 26.0616 13.8695 26.3751C14.3635 26.9401 15.0905 27.2644 15.8638 27.2644C16.3784 27.2644 16.8716 27.1202 17.2901 26.8577C17.7086 27.1202 18.2018 27.2644 18.7164 27.2644C19.4897 27.2644 20.2167 26.9401 20.7107 26.3751C20.985 26.0616 20.953 25.5851 20.6394 25.3105Z" fill="#59636F"/>
<path d="M7.35355 24.7219C7.28984 24.7219 7.22499 24.7139 7.16014 24.6967L3.8795 23.83C3.47667 23.7236 3.23635 23.3105 3.34278 22.9076C3.44959 22.5048 3.86158 22.2641 4.26517 22.3709L7.54581 23.238C7.94864 23.3444 8.18897 23.7572 8.08254 24.16C7.99289 24.4984 7.68772 24.7219 7.35355 24.7219Z" fill="#59636F"/>
<path d="M4.07176 30.2784C3.7376 30.2784 3.43242 30.0545 3.34278 29.7162C3.23635 29.3133 3.47667 28.9006 3.8795 28.7941L7.16014 27.9274C7.56298 27.8206 7.97573 28.0613 8.08254 28.4642C8.18897 28.867 7.94864 29.2797 7.54581 29.3862L4.26517 30.2529C4.2007 30.27 4.13547 30.2784 4.07176 30.2784Z" fill="#59636F"/>
<path d="M7.35281 27.0663H3.66324C3.24667 27.0663 2.90869 26.7287 2.90869 26.3118C2.90869 25.8952 3.24667 25.5573 3.66324 25.5573H7.35281C7.76976 25.5573 8.10736 25.8952 8.10736 26.3118C8.10736 26.7287 7.76976 27.0663 7.35281 27.0663Z" fill="#59636F"/>
<path d="M27.2266 24.7219C26.8924 24.7219 26.5873 24.4984 26.4976 24.16C26.3912 23.7572 26.6315 23.3444 27.0344 23.238L30.315 22.3709C30.7178 22.2641 31.1306 22.5048 31.2374 22.9076C31.3438 23.3105 31.1035 23.7236 30.7007 23.83L27.42 24.6967C27.3555 24.7139 27.2903 24.7219 27.2266 24.7219Z" fill="#59636F"/>
<path d="M30.5084 30.2784C30.4447 30.2784 30.3798 30.27 30.315 30.2529L27.0344 29.3862C26.6315 29.2797 26.3912 28.867 26.4976 28.4642C26.6044 28.0613 27.0164 27.8206 27.42 27.9274L30.7007 28.7941C31.1035 28.9006 31.3438 29.3133 31.2374 29.7162C31.1477 30.0545 30.8426 30.2784 30.5084 30.2784Z" fill="#59636F"/>
<path d="M30.917 27.0663H27.227C26.8105 27.0663 26.4725 26.7287 26.4725 26.3118C26.4725 25.8952 26.8105 25.5573 27.227 25.5573H30.917C31.3335 25.5573 31.6711 25.8952 31.6711 26.3118C31.6711 26.7287 31.3335 27.0663 30.917 27.0663Z" fill="#59636F"/>
<path d="M33.4507 31.9653C33.0338 31.9653 32.6962 31.6273 32.6962 31.2107C32.6962 26.9016 35.0361 24.6689 36.4308 23.7213C36.7756 23.4871 37.2448 23.5767 37.479 23.9216C37.7133 24.2661 37.6236 24.7356 37.2791 24.9695C35.8769 25.922 34.2053 27.7779 34.2053 31.2107C34.2053 31.6273 33.8673 31.9653 33.4507 31.9653Z" fill="#59636F"/>
<path d="M48.7385 4.32353C47.0856 6.18701 46.3864 7.65147 46.1228 9.02896C45.1065 8.54106 43.8038 8.11038 42.2222 7.97152C42.6289 6.1233 43.5955 4.05688 45.7283 1.65362C46.4657 0.821637 47.7375 0.746106 48.5695 1.48349C49.4003 2.22087 49.4759 3.49269 48.7385 4.32353Z" fill="#D3D2D8"/>
<path d="M25 34.0752L2.86444 36.94L3.93065 45.5033C4.18547 47.5476 5.92268 49.0818 7.98262 49.0818H42.0177C44.0777 49.0818 45.8149 47.5476 46.0693 45.5033L47.1355 36.94L25 34.0752Z" fill="#E1738C"/>
<path d="M2.86444 36.94L3.24019 39.9578H46.7598L47.1355 36.94L25 34.0752L2.86444 36.94Z" fill="#D74A6C"/>
<path d="M47.1355 31.2107H2.86446C1.2825 31.2107 0 32.4932 0 34.0751C0 35.6575 1.2825 36.94 2.86446 36.94H47.1355C48.7175 36.94 50 35.6575 50 34.0751C50 32.4932 48.7175 31.2107 47.1355 31.2107Z" fill="#E1738C"/>
</g>
<defs>
<clipPath id="clip0_44_1435">
<rect width="50" height="50" fill="white"/>
</clipPath>
</defs>
</svg>
