<svg width="30" height="30" viewBox="0 0 30 30" fill="none" xmlns="http://www.w3.org/2000/svg">
<g clip-path="url(#clip0_117_11784)">
<path d="M17.0688 26.9534V28.4482C17.0688 29.3052 16.3741 30 15.5171 30H14.4826C13.6256 30 12.9309 29.3052 12.9309 28.4482V26.9482C13.6119 27.0862 14.305 27.1555 14.9999 27.1551H15.0206C15.7082 27.1544 16.3942 27.0868 17.0688 26.9534Z" fill="#95A5A5"/>
<path d="M16.5517 1.55172V3.53793C15.5305 3.30344 14.4694 3.30344 13.4482 3.53793V1.55172C13.4482 0.694731 14.143 0 15 0C15.857 0 16.5517 0.694731 16.5517 1.55172Z" fill="#95A5A5"/>
<path d="M24.6155 20.5139C23.8448 24.1242 20.5707 26.5242 17.0689 27.2121C16.3943 27.3456 15.7083 27.4131 15.0207 27.4139H15C14.3051 27.4142 13.612 27.3449 12.931 27.207C9.43963 26.519 6.17583 24.1139 5.40514 20.5139C4.981 18.5225 5.26549 16.4328 5.62756 14.457C6.40859 10.2208 8.7879 4.36042 13.4482 3.27938C14.4694 3.04489 15.5305 3.04489 16.5517 3.27938C21.212 4.36042 23.612 10.2208 24.3931 14.457C24.7551 16.4328 25.0396 18.5225 24.6155 20.5139Z" fill="#9FC9D3"/>
<path d="M12.5209 25.5C12.4717 25.5 12.4227 25.4928 12.3755 25.4788C10.2651 24.9348 8.4735 23.5426 7.42502 21.632C7.30045 21.3766 7.40525 21.0685 7.65973 20.9421C7.91422 20.8156 8.22306 20.9182 8.3514 21.1717C9.27172 22.8237 10.8328 24.0229 12.6662 24.4862C12.9134 24.5583 13.07 24.8012 13.0334 25.0561C12.9969 25.311 12.7784 25.5002 12.5209 25.5Z" fill="white"/>
<path d="M21.5793 18.3061C20.9845 20.7708 17.7776 22.2413 15 22.2413C12.2431 22.2413 9.03621 20.7708 8.44138 18.3061C8.15172 17.1009 8.32759 15.7173 8.67931 14.013C9.28448 11.1133 11.2966 6.20679 15 6.20679C18.7034 6.20679 20.7362 11.1133 21.3414 14.0089C21.6931 15.7173 21.869 17.1009 21.5793 18.3061Z" fill="#2980BA"/>
<path d="M14.4828 25.8621C14.7685 25.8621 15.0001 25.6305 15.0001 25.3449C15.0001 25.0592 14.7685 24.8276 14.4828 24.8276C14.1972 24.8276 13.9656 25.0592 13.9656 25.3449C13.9656 25.6305 14.1972 25.8621 14.4828 25.8621Z" fill="white"/>
<path d="M17.0688 21.2069V21.9828C15.7111 22.3276 14.2887 22.3276 12.9309 21.9828V21.2069C12.9309 20.0642 13.8572 19.1379 14.9999 19.1379C16.1425 19.1379 17.0688 20.0642 17.0688 21.2069Z" fill="#ECF0F1"/>
</g>
<defs>
<clipPath id="clip0_117_11784">
<rect width="30" height="30" fill="white"/>
</clipPath>
</defs>
</svg>
