<svg width="25" height="25" viewBox="0 0 25 25" fill="none" xmlns="http://www.w3.org/2000/svg">
<path d="M12.6782 12.0426C11.0238 12.0426 9.59135 11.4492 8.42062 10.2785C7.25027 9.10795 6.65671 7.67573 6.65671 6.02111C6.65671 4.36706 7.25008 2.93464 8.42081 1.76372C9.59155 0.593375 11.024 0 12.6782 0C14.3328 0 15.7651 0.593375 16.9356 1.76391C18.1061 2.93445 18.6997 4.36687 18.6997 6.02111C18.6997 7.67573 18.1061 9.10814 16.9356 10.2787C15.7647 11.449 14.3323 12.0426 12.6782 12.0426ZM15.8995 2.79979C15.0014 1.90162 13.9477 1.46503 12.6782 1.46503C11.4089 1.46503 10.3551 1.90162 9.4567 2.79979C8.55853 3.69815 8.12174 4.75196 8.12174 6.02111C8.12174 7.29064 8.55853 8.34425 9.4567 9.24261C10.3551 10.141 11.4089 10.5776 12.6782 10.5776C13.9474 10.5776 15.001 10.1408 15.8995 9.24261C16.7979 8.34444 17.2347 7.29064 17.2347 6.02111C17.2347 4.75196 16.7979 3.69815 15.8995 2.79979Z" fill="#777777"/>
<path d="M2.14214 19.2237C2.1759 18.7366 2.24419 18.2052 2.3447 17.644C2.44617 17.0787 2.57683 16.5443 2.73323 16.0558C2.89497 15.5509 3.11451 15.0523 3.38631 14.5745C3.66802 14.0786 3.99914 13.6468 4.37069 13.2915C4.75922 12.9197 5.23491 12.6209 5.78499 12.4028C6.33316 12.186 6.94065 12.0761 7.59048 12.0761C7.84569 12.0761 8.0925 12.1808 8.56915 12.4912C8.8625 12.6825 9.20563 12.9037 9.58862 13.1484C9.91611 13.3571 10.3598 13.5526 10.9077 13.7296C11.4424 13.9026 11.9852 13.9903 12.5212 13.9903C13.0568 13.9903 13.5996 13.9026 14.1346 13.7296C14.682 13.5528 15.1258 13.3573 15.4528 13.1486C15.8321 12.9062 16.1755 12.6849 16.4732 12.491C16.9495 12.1806 17.1963 12.0759 17.4515 12.0759C18.1015 12.0759 18.7088 12.186 19.2568 12.403C19.8065 12.6207 20.2824 12.9195 20.6713 13.2917C21.0428 13.6472 21.3739 14.0788 21.6555 14.5745C21.9269 15.0523 22.1466 15.5507 22.3083 16.056C22.4646 16.5445 22.5952 17.0787 22.6967 17.644C22.7974 18.2044 22.8655 18.736 22.8992 19.2243C22.9324 19.7017 22.9492 20.1985 22.9492 20.7006C22.9492 22.0056 22.5344 23.062 21.7163 23.8412C20.9084 24.61 19.8395 24.9999 18.5392 24.9999H6.50158C5.20172 24.9999 4.13284 24.61 3.3247 23.8412C2.50645 23.0626 2.0916 22.0058 2.0916 20.7004C2.09179 20.1966 2.10876 19.6998 2.14214 19.2237ZM4.33483 22.7798C4.8687 23.2879 5.57747 23.5349 6.50177 23.5349H18.5392C19.4637 23.5349 20.1725 23.2879 20.7062 22.7799C21.2297 22.2816 21.4842 21.6012 21.4842 20.7006C21.4842 20.2321 21.4687 19.7696 21.4378 19.3256C21.4077 18.8899 21.3461 18.4114 21.2547 17.9029C21.1645 17.4007 21.0497 16.9294 20.9131 16.5027C20.7821 16.0936 20.6034 15.6884 20.3817 15.2982C20.1702 14.9263 19.9268 14.6072 19.6583 14.3501C19.4071 14.1095 19.0905 13.9127 18.7174 13.7651C18.3723 13.6285 17.9846 13.5537 17.5636 13.5425C17.5123 13.5698 17.421 13.6218 17.2729 13.7183C16.9718 13.9146 16.6246 14.1385 16.2409 14.3836C15.8083 14.6594 15.251 14.9085 14.5851 15.1235C13.9044 15.3436 13.2101 15.4554 12.521 15.4554C11.8319 15.4554 11.1374 15.3436 10.457 15.1237C9.79061 14.9083 9.23347 14.6594 8.80032 14.3832C8.40759 14.1322 8.07018 13.9148 7.76901 13.7183C7.621 13.622 7.52964 13.5698 7.47833 13.5425C7.05719 13.5537 6.66943 13.6285 6.3242 13.7651C5.95131 13.9127 5.63469 14.1097 5.38349 14.3501C5.11494 14.607 4.87156 14.9261 4.66003 15.2984C4.43821 15.6884 4.2593 16.0938 4.12846 16.5025C3.9917 16.9297 3.87669 17.4009 3.78666 17.9027C3.69549 18.4121 3.63369 18.8909 3.60355 19.3257V19.3261C3.57246 19.7684 3.55682 20.2308 3.55663 20.7006C3.55682 21.6014 3.81126 22.2816 4.33483 22.7798Z" fill="#777777"/>
</svg>
