<svg width="786px" height="1127px" viewBox="0 0 786 1127" version="1.1" xmlns="http://www.w3.org/2000/svg" xmlns:xlink="http://www.w3.org/1999/xlink"> <title>vacuum</title> <g id="Page-1" stroke="none" stroke-width="1" fill="none" fill-rule="evenodd"> <g id="vacuum"> <path d="M671.241,0 C644.229,11.573 620.694,22.952 599.614,34.304 L632.488,67.178 C644.14,78.83 644.14,97.721 632.488,109.374 L532.366,209.496 C521.146,220.716 503.103,221.193 491.3,210.582 L438.273,162.851 C426.983,175.73 416.451,189.254 406.732,203.352 C398.319,215.472 390.269,228.069 382.633,241.046 C311.076,362.575 274,512 274,512 L371.103,512 L518.621,377.035 L550.895,347.516 L786,132.414 L671.241,0 Z" id="Path" fill="#2357C6" fill-rule="nonzero"></path> <path d="M733.343,71.662 C622.451,264.678 404.083,376.32 302.248,419.928 C283.534,473.6 274,512 274,512 L371.103,512 L518.621,377.035 L550.895,347.516 L786,132.414 L733.343,71.662 Z" id="Path" fill="#1948AC" fill-rule="nonzero"></path> <path d="M632.1,66.79 L599.614,34.304 C539.736,65.721 486.197,107.961 441.724,158.897 C440.559,160.177 439.429,161.545 438.272,162.852 L475.445,196.309 C521.57,146.255 574.27,102.682 632.1,66.79 Z" id="Path" fill="#5C90FF" fill-rule="nonzero"></path> <line x1="328.5" y1="499.5" x2="86.5" y2="1087.5" id="Line" stroke="#1948AC" stroke-width="30" stroke-linecap="square"></line> <rect id="Rectangle" fill="#1948AC" x="0" y="1088" width="174" height="39"></rect> <g id="Group" transform="translate(382.000000, 203.000000)" fill-rule="nonzero"> <rect id="Rectangle" fill="#386EE0" transform="translate(165.634752, 44.157485) rotate(-45.000000) translate(-165.634752, -44.157485) " x="140.666491" y="35.3300696" width="49.9365211" height="17.6548307"></rect> <rect id="Rectangle" fill="#337AB5" transform="translate(192.129324, 70.644328) rotate(-45.000000) translate(-192.129324, -70.644328) " x="167.161063" y="61.8169128" width="49.9365211" height="17.6548307"></rect> <path d="M24.732,0.352 C16.319,12.472 8.269,25.069 0.633,38.046 L136.622,173.991 L168.896,144.472 L24.732,0.352 Z" id="Path" fill="#386EE0"></path> </g> </g> </g></svg>