<svg width="12" height="7" viewBox="0 0 12 7" fill="none" xmlns="http://www.w3.org/2000/svg">
<path d="M0.744249 0.304999C0.676344 0.372732 0.622469 0.453197 0.58571 0.541783C0.548951 0.63037 0.530029 0.725338 0.530029 0.821249C0.530029 0.91716 0.548951 1.01213 0.58571 1.10072C0.622469 1.1893 0.676344 1.26977 0.744249 1.3375L5.59175 6.185C5.64572 6.23908 5.70982 6.28198 5.78039 6.31125C5.85095 6.34052 5.9266 6.35559 6.003 6.35559C6.0794 6.35559 6.15505 6.34052 6.22561 6.31125C6.29618 6.28198 6.36028 6.23908 6.41425 6.185L11.2618 1.3375C11.5476 1.05166 11.5476 0.590831 11.2618 0.304998C10.9759 0.0191651 10.5151 0.0191651 10.2293 0.304998L6.00008 4.52833L1.77092 0.299166C1.49092 0.0191664 1.02425 0.0191655 0.744249 0.304999Z" fill="#777777"/>
</svg>
