<svg width="15" height="16" viewBox="0 0 15 16" fill="none" xmlns="http://www.w3.org/2000/svg">
<path d="M12.4999 6.5938C12.5175 4.39393 10.7596 2.37723 8.58131 2.09836C8.53798 2.09288 8.49079 2.08455 8.44083 2.07573C8.33299 2.05669 8.22147 2.03711 8.10895 2.03711C7.6625 2.03711 7.54316 2.37137 7.51174 2.57072C7.48119 2.76455 7.51033 2.92732 7.59821 3.05472C7.74606 3.26899 8.0062 3.30703 8.21515 3.33751C8.27639 3.34653 8.33417 3.35491 8.38254 3.36649C10.3396 3.8326 10.9986 4.56542 11.3207 6.63368C11.3286 6.68423 11.3321 6.74649 11.3359 6.81254C11.3499 7.05977 11.3792 7.57415 11.898 7.57415H11.8981C11.9413 7.57415 11.9877 7.57017 12.036 7.56232C12.5191 7.48406 12.504 7.01388 12.4967 6.78797C12.4947 6.72435 12.4927 6.66416 12.4978 6.62414C12.4991 6.61406 12.4998 6.60393 12.4999 6.5938Z" fill="white"/>
<path d="M7.8289 1.53962C7.88967 1.54394 7.9472 1.54807 7.99511 1.5553C11.3646 2.06578 12.9142 3.63848 13.3437 6.98383C13.351 7.0407 13.3521 7.11005 13.3533 7.1835C13.3576 7.44486 13.3664 7.98858 13.9592 7.99985L13.9776 8.00004C14.1635 8.00004 14.3113 7.94482 14.4171 7.83578C14.6016 7.64565 14.5887 7.3632 14.5783 7.13621C14.5758 7.08052 14.5734 7.02807 14.574 6.98214C14.6169 3.56072 11.6105 0.458187 8.14049 0.342812C8.1261 0.342343 8.11237 0.343094 8.0985 0.345019C8.09168 0.346006 8.07905 0.347227 8.05741 0.347227C8.0228 0.347227 7.98024 0.344268 7.9351 0.341263C7.88052 0.3376 7.81865 0.333374 7.75592 0.333374C7.20331 0.333374 7.09826 0.720304 7.08481 0.95096C7.05383 1.48402 7.57731 1.52154 7.8289 1.53962Z" fill="white"/>
<path d="M13.2355 11.4876C13.1655 11.4333 13.0931 11.3771 13.0254 11.3216C12.6659 11.0276 12.2834 10.7567 11.9135 10.4946C11.8367 10.4403 11.76 10.3859 11.6835 10.3314C11.2096 9.99321 10.7837 9.82888 10.3812 9.82888C9.83914 9.82888 9.36653 10.1332 8.97647 10.7333C8.80365 10.9993 8.59399 11.1287 8.33561 11.1287C8.18282 11.1287 8.00921 11.0844 7.81968 10.997C6.29029 10.2923 5.1982 9.21186 4.57369 7.7857C4.2718 7.0964 4.36966 6.64583 4.90097 6.27912C5.20267 6.07106 5.76425 5.68373 5.72447 4.94199C5.67943 4.09968 3.85029 1.56526 3.07961 1.27741C2.75331 1.15549 2.41047 1.15435 2.05879 1.27457C1.17282 1.57719 0.537037 2.10864 0.220008 2.81138C-0.0863547 3.49041 -0.0725202 4.28771 0.260021 5.1171C1.22136 7.51507 2.57295 9.60577 4.27739 11.3311C5.94573 13.0199 7.99626 14.4034 10.372 15.4427C10.5861 15.5364 10.8107 15.5874 10.9747 15.6247C11.0306 15.6375 11.0789 15.6483 11.1141 15.6581C11.1334 15.6635 11.1533 15.6664 11.1733 15.6666L11.1921 15.6667C11.1921 15.6667 11.1921 15.6667 11.1922 15.6667C12.3096 15.6667 13.6512 14.6292 14.0633 13.4465C14.4243 12.4108 13.7652 11.8989 13.2355 11.4876Z" fill="white"/>
<path d="M8.66124 4.59304C8.47691 4.59768 8.0933 4.60713 7.9587 4.9952C7.89573 5.17655 7.90327 5.334 7.98114 5.46319C8.09541 5.65275 8.31434 5.71083 8.51349 5.74271C9.23569 5.85781 9.60659 6.25448 9.68078 6.99094C9.71525 7.33434 9.94806 7.57413 10.247 7.57413H10.247C10.2691 7.57413 10.2917 7.57284 10.3142 7.57012C10.6737 7.52764 10.8479 7.26528 10.8322 6.79042C10.8379 6.29483 10.5768 5.73219 10.1327 5.28403C9.68707 4.83449 9.14987 4.58132 8.66124 4.59304Z" fill="white"/>
</svg>
