<svg width="50" height="50" viewBox="0 0 50 50" fill="none" xmlns="http://www.w3.org/2000/svg">
<g clip-path="url(#clip0_44_1504)">
<path d="M45.3125 50H46.0938C46.5252 50 46.875 49.6502 46.875 49.2188V46.875H44.5312V49.2188C44.5312 49.6502 44.8811 50 45.3125 50Z" fill="#827189"/>
<path d="M3.90625 50H4.6875C5.11894 50 5.46875 49.6502 5.46875 49.2188V46.875H3.125V49.2188C3.125 49.6502 3.47481 50 3.90625 50Z" fill="#827189"/>
<path d="M46.0938 0H3.90625C3.47481 0 3.125 0.349808 3.125 0.78125V46.875C3.125 47.3064 3.47481 47.6562 3.90625 47.6562H46.0938C46.5252 47.6562 46.875 47.3064 46.875 46.875V0.78125C46.875 0.349808 46.5252 0 46.0938 0Z" fill="#D0CAD3"/>
<path d="M43.75 2.34375H25C24.5686 2.34375 24.2188 2.69356 24.2188 3.125V44.5312C24.2188 44.9627 24.5686 45.3125 25 45.3125H43.75C44.1814 45.3125 44.5312 44.9627 44.5312 44.5312V3.125C44.5312 2.69356 44.1814 2.34375 43.75 2.34375Z" fill="#827189"/>
<path d="M43.75 37.5H25C24.5686 37.5 24.2188 37.8498 24.2188 38.2812V44.5312C24.2188 44.9627 24.5686 45.3125 25 45.3125H43.75C44.1814 45.3125 44.5312 44.9627 44.5312 44.5312V38.2812C44.5312 37.8498 44.1814 37.5 43.75 37.5Z" fill="#9689D0"/>
<path d="M28.9062 43.75C28.4748 43.75 28.125 43.4002 28.125 42.9688V37.5H25C24.5686 37.5 24.2188 37.8498 24.2188 38.2812V44.5312C24.2188 44.9627 24.5686 45.3125 25 45.3125H43.75C44.1814 45.3125 44.5312 44.9627 44.5312 44.5312V43.75H28.9062Z" fill="#7C6CC4"/>
<path d="M35.9375 40.625H32.8125C32.3811 40.625 32.0312 40.2752 32.0312 39.8438C32.0312 39.4123 32.3811 39.0625 32.8125 39.0625H35.9375C36.3689 39.0625 36.7188 39.4123 36.7188 39.8438C36.7188 40.2752 36.3689 40.625 35.9375 40.625Z" fill="#CBC4E8"/>
<path d="M43.75 29.6875H25C24.5686 29.6875 24.2188 30.0373 24.2188 30.4688V36.7188C24.2188 37.1502 24.5686 37.5 25 37.5H43.75C44.1814 37.5 44.5312 37.1502 44.5312 36.7188V30.4688C44.5312 30.0373 44.1814 29.6875 43.75 29.6875Z" fill="#9689D0"/>
<path d="M28.125 35.1562V29.6875H25C24.5686 29.6875 24.2188 30.0373 24.2188 30.4688V36.7188C24.2188 37.1502 24.5686 37.5 25 37.5H43.75C44.1814 37.5 44.5312 37.1502 44.5312 36.7188V35.9375H28.9062C28.4748 35.9375 28.125 35.5877 28.125 35.1562Z" fill="#7C6CC4"/>
<path d="M35.9375 32.8125H32.8125C32.3811 32.8125 32.0312 32.4627 32.0312 32.0312C32.0312 31.5998 32.3811 31.25 32.8125 31.25H35.9375C36.3689 31.25 36.7188 31.5998 36.7188 32.0312C36.7188 32.4627 36.3689 32.8125 35.9375 32.8125Z" fill="#CBC4E8"/>
<path d="M33.5938 7.8125H30.4688V6.25H32.8125V2.34375H34.375V7.03125C34.375 7.46269 34.0252 7.8125 33.5938 7.8125Z" fill="#FFCC58"/>
<path d="M32.8125 6.25H36.7188V7.8125H32.8125V6.25Z" fill="#FFCC58"/>
<path d="M35.9375 6.25C35.9375 7.54433 34.8881 8.59375 33.5938 8.59375C32.2994 8.59375 31.25 7.54433 31.25 6.25H27.3438V24.2188H39.0625C39.4939 24.2188 39.8438 23.8689 39.8438 23.4375V6.25H35.9375Z" fill="#EFEDF0"/>
<path d="M39.8438 6.25L43.2549 11.7077C43.5127 12.1204 43.3346 12.6663 42.8825 12.8471L39.8438 14.0625V6.25Z" fill="#D0CAD3"/>
<path d="M28.9062 7.8125H25.7812V6.25H28.125V2.34375H29.6875V7.03125C29.6875 7.46269 29.3377 7.8125 28.9062 7.8125Z" fill="#FFD982"/>
<path d="M31.25 7.8125H28.9062C28.4748 7.8125 28.125 7.46269 28.125 7.03125C28.125 6.59981 28.4748 6.25 28.9062 6.25H31.25C31.6814 6.25 32.0312 6.59981 32.0312 7.03125C32.0312 7.46269 31.6814 7.8125 31.25 7.8125Z" fill="#FFD982"/>
<path d="M31.25 6.25C31.25 7.54433 30.2006 8.59375 28.9062 8.59375C27.6119 8.59375 26.5625 7.54433 26.5625 6.25H22.6562V24.2188H34.375C34.8064 24.2188 35.1562 23.8689 35.1562 23.4375V6.25H31.25Z" fill="#F4B7D3"/>
<path d="M26.5625 6.25H22.6562V24.2188H27.3438V7.99637C26.8642 7.56721 26.5625 6.94389 26.5625 6.25Z" fill="#EE93BD"/>
<path d="M35.1562 6.25L38.5674 11.7077C38.8252 12.1204 38.6471 12.6663 38.195 12.8471L35.1562 14.0625V6.25Z" fill="#E96FA7"/>
<path d="M25 0H3.90625C3.47481 0 3.125 0.349808 3.125 0.78125V46.875C3.125 47.3064 3.47481 47.6562 3.90625 47.6562H25C25.4314 47.6562 25.7812 47.3064 25.7812 46.875V0.78125C25.7812 0.349808 25.4314 0 25 0Z" fill="#EFEDF0"/>
<path d="M6.25 3.125H20.3125V44.5312H6.25V3.125Z" fill="#93D5DF"/>
<path d="M9.375 42.1875V3.125H6.25V44.5312H20.3125V42.1875H9.375Z" fill="#6FC7D4"/>
<path d="M20.3125 45.3125H6.25C5.81856 45.3125 5.46875 44.9627 5.46875 44.5312V3.125C5.46875 2.69356 5.81856 2.34375 6.25 2.34375H20.3125C20.7439 2.34375 21.0938 2.69356 21.0938 3.125V44.5312C21.0938 44.9627 20.7439 45.3125 20.3125 45.3125ZM7.03125 43.75H19.5312V3.90625H7.03125V43.75Z" fill="#C1B8C4"/>
<path d="M23.4375 27.3438C23.0061 27.3438 22.6562 26.9939 22.6562 26.5625V21.875C22.6562 21.4436 23.0061 21.0938 23.4375 21.0938C23.8689 21.0938 24.2188 21.4436 24.2188 21.875V26.5625C24.2188 26.9939 23.8689 27.3438 23.4375 27.3438Z" fill="#928398"/>
</g>
<defs>
<clipPath id="clip0_44_1504">
<rect width="50" height="50" fill="white"/>
</clipPath>
</defs>
</svg>
