<svg width="30" height="30" viewBox="0 0 30 30" fill="none" xmlns="http://www.w3.org/2000/svg">
<path d="M6.12481 29.1851C6.12481 29.6351 6.48968 30 6.93974 30C7.38985 30 7.75466 29.6351 7.75466 29.1851C7.75466 28.9686 7.75466 28.3483 7.75466 28.1287H6.12476C6.12481 28.3613 6.12481 28.9523 6.12481 29.1851Z" fill="#606C7C"/>
<path d="M22.2476 28.1287V28.3701V28.9436V29.185C22.2476 29.6351 22.6124 30 23.0625 30C23.5126 30 23.8774 29.6351 23.8774 29.185V28.9436C23.8774 28.8806 23.8774 28.334 23.8774 28.1287H22.2476Z" fill="#606C7C"/>
<path d="M23.7568 0H6.26719C5.26061 0 4.43701 0.823594 4.43701 1.83018V3.04852C4.43701 4.14229 4.43701 28.6485 4.43701 27.6458C4.43701 28.0442 4.76297 28.3702 5.16141 28.3702H24.8407C25.2391 28.3702 25.5651 28.0442 25.5651 27.6458C25.5651 26.2834 25.5651 4.45342 25.5651 3.11895V1.80826C25.5651 0.81375 24.7513 0 23.7568 0Z" fill="#E6E6E6"/>
<path d="M6.09439 27.6457C6.09439 26.2809 6.09439 4.38545 6.09439 3.04846V1.83012C6.09439 0.823594 6.91799 0 7.92457 0H6.26719C5.26061 0 4.43701 0.823594 4.43701 1.83012V3.04846C4.43701 4.38562 4.43701 26.2809 4.43701 27.6457C4.43701 28.0441 4.76297 28.3701 5.16141 28.3701H6.81879C6.42041 28.3701 6.09439 28.0441 6.09439 27.6457Z" fill="#CCCCCC"/>
<path d="M15.0009 22.5674C18.3256 22.5674 21.0208 19.8722 21.0208 16.5475C21.0208 13.2228 18.3256 10.5276 15.0009 10.5276C11.6762 10.5276 8.98096 13.2228 8.98096 16.5475C8.98096 19.8722 11.6762 22.5674 15.0009 22.5674Z" fill="#A5E4F2"/>
<path d="M12.6108 17.9277C11.2309 15.5376 11.6764 12.5947 13.5144 10.7129C12.9927 10.8461 12.4803 11.0519 11.9911 11.3343C9.1119 12.9966 8.12542 16.6783 9.78772 19.5576C11.45 22.4368 15.1317 23.4233 18.0109 21.761C18.5001 21.4786 18.9345 21.1377 19.3107 20.7525C16.762 21.4033 13.9906 20.3177 12.6108 17.9277Z" fill="#7DDBF4"/>
<path d="M4.43701 26.6819C4.43701 26.9317 4.43701 27.4053 4.43701 27.6459C4.43701 28.0443 4.76297 28.3703 5.16141 28.3703H24.8407C25.2391 28.3703 25.5651 28.0443 25.5651 27.6459C25.5651 27.403 25.5651 26.9286 25.5651 26.6819H4.43701Z" fill="#51C6E5"/>
<path d="M6.81877 28.37C6.42039 28.37 6.09443 28.044 6.09443 27.6456C6.09443 27.4028 6.09443 26.9283 6.09443 26.6816H4.43705V27.1042C4.47812 27.4302 4.29572 27.9334 4.75715 28.2459C4.83162 28.2963 4.89824 28.323 4.96457 28.342C5.02732 28.3598 5.10426 28.3603 6.81877 28.37Z" fill="#34B3D1"/>
<path d="M25.5653 5.1521H4.43701V6.84048H25.5653V5.1521Z" fill="#606C7C"/>
<path d="M6.09463 5.1521H4.43701V6.84048H6.09463V5.1521Z" fill="#4E5B68"/>
<path d="M18.8061 5.1521H10.8262V6.84048H18.8061V5.1521Z" fill="#4E5B68"/>
<path d="M20.9969 18.9021C20.8497 18.9021 20.7127 18.8574 20.5981 18.7812C19.7101 21.003 17.536 22.5769 15.0011 22.5769C11.6792 22.5769 8.97658 19.8743 8.97658 16.5523C8.97658 13.2304 11.6792 10.5278 15.0011 10.5278C17.536 10.5278 19.7101 12.1017 20.5981 14.3234C20.7127 14.2473 20.8497 14.2027 20.9969 14.2027H22.2861C21.2921 11.128 18.4024 8.89795 15.0011 8.89795C10.7804 8.89795 7.34668 12.3317 7.34668 16.5524C7.34668 20.7731 10.7804 24.2069 15.0011 24.2069C18.4024 24.2069 21.2921 21.9767 22.2861 18.9021L20.9969 18.9021Z" fill="#606C7C"/>
<path d="M16.3933 23.3917C12.1726 23.3917 8.73881 19.9579 8.73881 15.7372C8.73881 13.2099 9.97039 10.965 11.8646 9.57031C9.20352 10.7705 7.34668 13.4485 7.34668 16.5522C7.34668 20.7729 10.7805 24.2066 15.0011 24.2066C16.6969 24.2066 18.2654 23.652 19.5353 22.7151C18.576 23.1488 17.5127 23.3917 16.3933 23.3917Z" fill="#4E5B68"/>
<path d="M18.437 14.6553C18.2927 14.6553 18.1508 14.5864 18.0631 14.4584C17.37 13.447 16.2253 12.8433 15.0011 12.8433C14.7511 12.8433 14.5483 12.6406 14.5483 12.3905C14.5483 12.1404 14.751 11.9377 15.0011 11.9377C16.5241 11.9377 17.948 12.6887 18.81 13.9465C18.9514 14.1528 18.8988 14.4346 18.6925 14.5759C18.6143 14.6296 18.5252 14.6553 18.437 14.6553Z" fill="#CDF3F9"/>
<path d="M15.001 22.5768C17.5359 22.5768 19.71 21.003 20.5979 18.7812C20.6132 18.7913 20.6288 18.8007 20.6448 18.8097C20.4232 18.6855 20.2723 18.4484 20.2723 18.1776V17.0838C18.9621 17.0901 18.9584 18.2908 17.6413 18.2908C16.3208 18.2908 16.3208 17.0835 15.0002 17.0835C13.6798 17.0835 13.6798 18.2908 12.3593 18.2908C11.0388 18.2908 11.0388 17.0835 9.71843 17.0835C9.43015 17.0835 9.20479 17.1411 9.01489 17.2311C9.35333 20.2346 11.9086 22.5768 15.001 22.5768Z" fill="#5FBBE0"/>
<path d="M15.001 22.5768C17.5359 22.5768 19.71 21.003 20.5979 18.7812C20.6132 18.7913 20.6288 18.8007 20.6448 18.8097C20.4232 18.6855 20.2723 18.4484 20.2723 18.1776V17.0838C18.9621 17.0901 18.9584 18.2908 17.6413 18.2908C16.3208 18.2908 16.3208 17.0835 15.0002 17.0835C13.6798 17.0835 13.6798 18.2908 12.3593 18.2908C11.0388 18.2908 11.0388 17.0835 9.71843 17.0835C9.43015 17.0835 9.20479 17.1411 9.01489 17.2311C9.35333 20.2346 11.9086 22.5768 15.001 22.5768Z" fill="#51C6E5"/>
<path d="M12.8038 18.2373C12.6733 18.2713 12.5272 18.2908 12.3595 18.2908C11.0391 18.2908 11.0391 17.0835 9.71865 17.0835C9.43225 17.0835 9.20812 17.1404 9.01904 17.2293C9.10951 18.0264 9.36123 18.8183 9.78791 19.5574C11.4502 22.4366 15.1319 23.4231 18.0111 21.7608C18.5003 21.4784 18.9347 21.1375 19.3109 20.7523C16.8753 21.3743 14.2375 20.4096 12.8038 18.2373Z" fill="#34B3D1"/>
<path d="M23.0625 9.35058H21.1578C20.9078 9.35058 20.7051 9.1479 20.7051 8.89782C20.7051 8.64774 20.9078 8.44507 21.1578 8.44507H23.0625C23.3126 8.44507 23.5153 8.64774 23.5153 8.89782C23.5153 9.1479 23.3126 9.35058 23.0625 9.35058Z" fill="#F7AB31"/>
<path d="M7.34685 3.40951C7.81306 3.40951 8.19101 3.03157 8.19101 2.56535C8.19101 2.09913 7.81306 1.72119 7.34685 1.72119C6.88063 1.72119 6.50269 2.09913 6.50269 2.56535C6.50269 3.03157 6.88063 3.40951 7.34685 3.40951Z" fill="#CCCCCC"/>
<path d="M7.34678 2.5652C7.19062 2.29473 7.20187 1.97416 7.34713 1.72168C7.20351 1.72145 7.05797 1.75719 6.92467 1.83412C6.5209 2.06721 6.38256 2.58354 6.6157 2.98731C6.84879 3.39108 7.36512 3.52942 7.76889 3.29627C7.90219 3.21928 8.0059 3.11111 8.0775 2.9866C7.78611 2.98619 7.50287 2.83561 7.34678 2.5652Z" fill="#B7B7B7"/>
<path d="M25.5651 2.11255H16.4039C16.1539 2.11255 15.9512 2.31522 15.9512 2.5653C15.9512 2.81538 16.1539 3.01806 16.4039 3.01806H25.5651V2.11255Z" fill="#CCCCCC"/>
<path d="M22.5262 18.9021H20.9969C20.5984 18.9021 20.2725 18.5761 20.2725 18.1777V14.927C20.2725 14.5286 20.5984 14.2026 20.9969 14.2026H22.5262C22.9246 14.2026 23.2505 14.5286 23.2505 14.927V18.1777C23.2505 18.5761 22.9245 18.9021 22.5262 18.9021Z" fill="#CCCCCC"/>
<path d="M22.5262 18.9021H20.9969C20.5984 18.9021 20.2725 18.5761 20.2725 18.1777V14.927C20.2725 14.5286 20.5984 14.2026 20.9969 14.2026H22.5262C22.9246 14.2026 23.2505 14.5286 23.2505 14.927V18.1777C23.2505 18.5761 22.9245 18.9021 22.5262 18.9021Z" fill="#CCCCCC"/>
<path d="M22.5262 16.854H20.9969C20.5984 16.854 20.2725 16.5281 20.2725 16.1296V18.1775C20.2725 18.5759 20.5984 18.9019 20.9969 18.9019H22.5262C22.9246 18.9019 23.2505 18.576 23.2505 18.1775V16.1296C23.2505 16.528 22.9245 16.854 22.5262 16.854Z" fill="#B7B7B7"/>
<path d="M21.7621 16.2505C21.5121 16.2505 21.3091 16.0478 21.3091 15.7977C21.3091 15.5476 21.5115 15.345 21.7615 15.345H21.7621C22.0122 15.345 22.2149 15.5476 22.2149 15.7977C22.2149 16.0478 22.0122 16.2505 21.7621 16.2505Z" fill="#E6E6E6"/>
<path d="M21.7621 17.7598C21.5121 17.7598 21.3091 17.5571 21.3091 17.307C21.3091 17.0569 21.5115 16.8542 21.7615 16.8542H21.7621C22.0122 16.8542 22.2149 17.0569 22.2149 17.307C22.2149 17.5571 22.0122 17.7598 21.7621 17.7598Z" fill="#E6E6E6"/>
<path d="M10.58 3.40951C11.0462 3.40951 11.4242 3.03157 11.4242 2.56535C11.4242 2.09913 11.0462 1.72119 10.58 1.72119C10.1138 1.72119 9.73584 2.09913 9.73584 2.56535C9.73584 3.03157 10.1138 3.40951 10.58 3.40951Z" fill="#CCCCCC"/>
<path d="M10.5799 2.5652C10.4238 2.29473 10.435 1.97416 10.5803 1.72168C10.4367 1.72145 10.2911 1.75719 10.1578 1.83412C9.75405 2.06721 9.61571 2.58354 9.84886 2.98731C10.0819 3.39108 10.5983 3.52942 11.002 3.29627C11.1353 3.21928 11.2391 3.11111 11.3107 2.9866C11.0193 2.98619 10.7361 2.83561 10.5799 2.5652Z" fill="#B7B7B7"/>
<path d="M13.8134 3.40951C14.2796 3.40951 14.6576 3.03157 14.6576 2.56535C14.6576 2.09913 14.2796 1.72119 13.8134 1.72119C13.3472 1.72119 12.9692 2.09913 12.9692 2.56535C12.9692 3.03157 13.3472 3.40951 13.8134 3.40951Z" fill="#CCCCCC"/>
<path d="M13.8131 2.5652C13.6569 2.29473 13.6682 1.97416 13.8134 1.72168C13.6698 1.72145 13.5243 1.75719 13.391 1.83412C12.9872 2.06721 12.8489 2.58354 13.082 2.98731C13.3151 3.39108 13.8314 3.52942 14.2352 3.29627C14.3685 3.21928 14.4722 3.11111 14.5438 2.9866C14.2525 2.98619 13.9692 2.83561 13.8131 2.5652Z" fill="#B7B7B7"/>
</svg>
