<svg width="15" height="16" viewBox="0 0 15 16" fill="none" xmlns="http://www.w3.org/2000/svg">
<g clip-path="url(#clip0_142_68479)">
<path d="M7.5 0C3.38058 0 0 3.45571 0 7.66667C0 9.05644 0.366554 10.4094 1.06167 11.593L0 15.3333L3.65902 14.2481C4.81693 14.9586 6.14044 15.3333 7.5 15.3333C11.6194 15.3333 15 11.8776 15 7.66667C15 3.45571 11.6194 0 7.5 0ZM12.1891 10.9061L11.8402 11.2628C11.3465 11.7674 10.2111 11.7274 9.48154 11.5834C7.05574 11.1045 4.22756 8.30224 3.68214 5.87552C3.41206 4.6734 3.56117 3.62826 3.95119 3.22946L4.30012 2.87278C4.49272 2.67601 4.8056 2.67624 4.99798 2.87278L6.39393 4.29987C6.48708 4.39509 6.53812 4.52132 6.53812 4.65643C6.53812 4.79155 6.48708 4.91789 6.39393 5.01277L6.04511 5.3698C5.66059 5.7638 5.66059 6.40382 6.04511 6.79689L8.3503 9.1223C8.73596 9.51653 9.36012 9.517 9.74636 9.1223L10.0953 8.76573C10.2754 8.58055 10.6119 8.57996 10.7935 8.76573L12.1891 10.1924C12.3786 10.3853 12.3858 10.7049 12.1891 10.9061Z" fill="#404040"/>
</g>
<defs>
<clipPath id="clip0_142_68479">
<rect width="15" height="15.3333" fill="white"/>
</clipPath>
</defs>
</svg>
