<svg width="31" height="30" viewBox="0 0 31 30" fill="none" xmlns="http://www.w3.org/2000/svg">
<g clip-path="url(#clip0_92_672)">
<path d="M24.5455 20H7.27277V22.7273H24.5455V20Z" fill="#BCB7B3"/>
<path d="M14.5455 3.63635H7.27277V19.0909H14.5455V3.63635Z" fill="#7FABDA"/>
<path d="M23.6364 3.63635H16.3636V19.0909H23.6364V3.63635Z" fill="#7FABDA"/>
<path d="M25.4546 3.32541V1.81824H6.36365V3.32541H14.9043V19.402H7.36843V20.9091H24.4498V19.402H16.9139V3.32541H25.4546Z" fill="#EDE7E9"/>
<path d="M2.7273 2.72729H0.909119V29.0909H2.7273V2.72729Z" fill="#DD352E" stroke="#B02721" stroke-width="2" stroke-linecap="round"/>
<path d="M5.4546 2.72729H3.63641V29.0909H5.4546V2.72729Z" fill="#DD352E" stroke="#B02721" stroke-width="2" stroke-linecap="round"/>
<path d="M6.36365 2.72729H4.54547V29.0909H6.36365V2.72729Z" fill="#DD352E" stroke="#B02721" stroke-width="2" stroke-linecap="round"/>
<path d="M26.3637 2.72729H24.5455V29.0909H26.3637V2.72729Z" fill="#DD352E" stroke="#B02721" stroke-width="2" stroke-linecap="round"/>
<path d="M27.2728 2.72729H25.4546V29.0909H27.2728V2.72729Z" fill="#DD352E" stroke="#B02721" stroke-width="2" stroke-linecap="round"/>
<path d="M30 2.72729H28.1818V29.0909H30V2.72729Z" fill="#DD352E" stroke="#B02721" stroke-width="2" stroke-linecap="round"/>
<path d="M0.909119 1.36365H30" stroke="#38454F" stroke-width="2" stroke-linecap="round"/>
<path d="M2.32148 0C2.04369 0 1.81824 0.203182 1.81824 0.454545V2.27273C1.81824 2.52409 2.04369 2.72727 2.32148 2.72727C2.59928 2.72727 2.82473 2.52409 2.82473 2.27273V0.454545C2.82473 0.203182 2.59928 0 2.32148 0Z" fill="#7383BF"/>
<path d="M4.33448 0C4.05669 0 3.83124 0.203182 3.83124 0.454545V2.27273C3.83124 2.52409 4.05669 2.72727 4.33448 2.72727C4.61228 2.72727 4.83773 2.52409 4.83773 2.27273V0.454545C4.83773 0.203182 4.61228 0 4.33448 0Z" fill="#7383BF"/>
<path d="M6.34749 0C6.06969 0 5.84424 0.203182 5.84424 0.454545V2.27273C5.84424 2.52409 6.06969 2.72727 6.34749 2.72727C6.62528 2.72727 6.85073 2.52409 6.85073 2.27273V0.454545C6.85073 0.203182 6.62528 0 6.34749 0Z" fill="#7383BF"/>
<path d="M25.4708 0C25.193 0 24.9676 0.203182 24.9676 0.454545V2.27273C24.9676 2.52409 25.193 2.72727 25.4708 2.72727C25.7486 2.72727 25.9741 2.52409 25.9741 2.27273V0.454545C25.9741 0.203182 25.7486 0 25.4708 0Z" fill="#7383BF"/>
<path d="M27.4838 0C27.206 0 26.9806 0.203182 26.9806 0.454545V2.27273C26.9806 2.52409 27.206 2.72727 27.4838 2.72727C27.7616 2.72727 27.9871 2.52409 27.9871 2.27273V0.454545C27.9871 0.203182 27.7616 0 27.4838 0Z" fill="#7383BF"/>
<path d="M29.4968 0C29.219 0 28.9936 0.203182 28.9936 0.454545V2.27273C28.9936 2.52409 29.219 2.72727 29.4968 2.72727C29.7746 2.72727 30.0001 2.52409 30.0001 2.27273V0.454545C30.0001 0.203182 29.7746 0 29.4968 0Z" fill="#7383BF"/>
<path d="M11.9481 3.63635H14.5455V6.0287L7.27277 12.7273V7.94257L11.9481 3.63635Z" fill="#A4C9EA"/>
<path d="M21.039 3.63635H23.6364V6.0287L16.3636 12.7273V7.94257L21.039 3.63635Z" fill="#A4C9EA"/>
<path d="M16.3636 10.4546H18.1818" stroke="#556080" stroke-width="2" stroke-linecap="round"/>
</g>
<defs>
<clipPath id="clip0_92_672">
<rect width="30.9091" height="30" fill="white"/>
</clipPath>
</defs>
</svg>
