<svg width="50" height="50" viewBox="0 0 50 50" fill="none" xmlns="http://www.w3.org/2000/svg">
<g clip-path="url(#clip0_44_1342)">
<path d="M39.2046 35.2273H10.7955V38.6364H39.2046V35.2273Z" fill="#BCB7B3"/>
<path d="M23.2955 5.68182H11.3636V32.3864H23.2955V5.68182Z" fill="#346AE5"/>
<path d="M38.6363 5.68182H26.7045V32.3864H38.6363V5.68182Z" fill="#346AE5"/>
<path d="M40.9091 5.92108V3.40912H9.09088V5.92108H23.3253V32.7153H10.7655V35.2273H39.2344V32.7153H26.6746V5.92108H40.9091Z" fill="#EDE7E9"/>
<path d="M3.97727 5.11365H0.568176V49.4318H3.97727V5.11365Z" fill="#DD352E" stroke="#B02721" stroke-width="2" stroke-linecap="round"/>
<path d="M7.38639 5.11365H3.97729V49.4318H7.38639V5.11365Z" fill="#DD352E" stroke="#B02721" stroke-width="2" stroke-linecap="round"/>
<path d="M10.7954 5.11365H7.38635V49.4318H10.7954V5.11365Z" fill="#DD352E" stroke="#B02721" stroke-width="2" stroke-linecap="round"/>
<path d="M42.6136 5.11365H39.2045V49.4318H42.6136V5.11365Z" fill="#DD352E" stroke="#B02721" stroke-width="2" stroke-linecap="round"/>
<path d="M46.0227 5.11365H42.6136V49.4318H46.0227V5.11365Z" fill="#DD352E" stroke="#B02721" stroke-width="2" stroke-linecap="round"/>
<path d="M49.4318 5.11365H46.0227V49.4318H49.4318V5.11365Z" fill="#DD352E" stroke="#B02721" stroke-width="2" stroke-linecap="round"/>
<path d="M0.568176 2.55682H49.4318" stroke="#38454F" stroke-width="2" stroke-linecap="round"/>
<path d="M2.54666 0C2.0818 0 1.70453 0.380966 1.70453 0.852273V4.26136C1.70453 4.73267 2.0818 5.11364 2.54666 5.11364C3.01151 5.11364 3.38878 4.73267 3.38878 4.26136V0.852273C3.38878 0.380966 3.01151 0 2.54666 0Z" fill="#7383BF"/>
<path d="M5.91519 0C5.45033 0 5.07306 0.380966 5.07306 0.852273V4.26136C5.07306 4.73267 5.45033 5.11364 5.91519 5.11364C6.38004 5.11364 6.75731 4.73267 6.75731 4.26136V0.852273C6.75731 0.380966 6.38004 0 5.91519 0Z" fill="#7383BF"/>
<path d="M9.28366 0C8.8188 0 8.44153 0.380966 8.44153 0.852273V4.26136C8.44153 4.73267 8.8188 5.11364 9.28366 5.11364C9.74851 5.11364 10.1258 4.73267 10.1258 4.26136V0.852273C10.1258 0.380966 9.74851 0 9.28366 0Z" fill="#7383BF"/>
<path d="M41.2845 0C40.8197 0 40.4424 0.380966 40.4424 0.852273V4.26136C40.4424 4.73267 40.8197 5.11364 41.2845 5.11364C41.7494 5.11364 42.1266 4.73267 42.1266 4.26136V0.852273C42.1266 0.380966 41.7494 0 41.2845 0Z" fill="#7383BF"/>
<path d="M44.653 0C44.1881 0 43.8109 0.380966 43.8109 0.852273V4.26136C43.8109 4.73267 44.1881 5.11364 44.653 5.11364C45.1178 5.11364 45.4951 4.73267 45.4951 4.26136V0.852273C45.4951 0.380966 45.1178 0 44.653 0Z" fill="#7383BF"/>
<path d="M48.0215 0C47.5567 0 47.1794 0.380966 47.1794 0.852273V4.26136C47.1794 4.73267 47.5567 5.11364 48.0215 5.11364C48.4864 5.11364 48.8636 4.73267 48.8636 4.26136V0.852273C48.8636 0.380966 48.4864 0 48.0215 0Z" fill="#7383BF"/>
<path d="M25.5682 18.4659H28.9773" stroke="#556080" stroke-width="2" stroke-linecap="round"/>
</g>
<defs>
<clipPath id="clip0_44_1342">
<rect width="50" height="50" fill="white"/>
</clipPath>
</defs>
</svg>
