<svg width="178" height="190" viewBox="0 0 178 190" fill="none" xmlns="http://www.w3.org/2000/svg">
<g clip-path="url(#clip0_123_26362)">
<path fill-rule="evenodd" clip-rule="evenodd" d="M4.73083 89.6139H121.658V0H4.73083V89.6139Z" fill="#B3EFF9"/>
<path fill-rule="evenodd" clip-rule="evenodd" d="M67.9361 87.5486H56.2284L21.863 0.25293H33.5707L67.9361 87.5486Z" fill="white"/>
<path fill-rule="evenodd" clip-rule="evenodd" d="M111.619 87.5486H99.9114L65.546 0.25293H77.2537L111.619 87.5486Z" fill="white"/>
<path fill-rule="evenodd" clip-rule="evenodd" d="M95.5534 87.5486H89.6987L55.3335 0.25293H61.1879L95.5534 87.5486Z" fill="white"/>
<path fill-rule="evenodd" clip-rule="evenodd" d="M60.004 89.3623H66.386V0.25293H60.004V89.3623Z" fill="#B7A8FF"/>
<path fill-rule="evenodd" clip-rule="evenodd" d="M4.73102 37.2475H60.004V32.0283H4.73102V37.2475Z" fill="#B7A8FF"/>
<path fill-rule="evenodd" clip-rule="evenodd" d="M4.73083 5.21922H121.658V0H4.73083V5.21922Z" fill="#B7A8FF"/>
<path fill-rule="evenodd" clip-rule="evenodd" d="M4.73083 86.9414H9.22838V0H4.73083V86.9414Z" fill="#B7A8FF"/>
<path fill-rule="evenodd" clip-rule="evenodd" d="M117.161 86.9414H121.658V0H117.161V86.9414Z" fill="#B7A8FF"/>
<path fill-rule="evenodd" clip-rule="evenodd" d="M4.94471 84.689L0 94.5394H126.388L121.446 84.689H4.94471Z" fill="#7761E3"/>
<path fill-rule="evenodd" clip-rule="evenodd" d="M6.10352e-05 99.4138H126.389V94.5391H6.10352e-05V99.4138Z" fill="#4841BD"/>
<path fill-rule="evenodd" clip-rule="evenodd" d="M134.011 177.968C134.515 177.287 139.968 177.856 140.023 178.21C140.192 179.295 140.45 183.453 139.929 184.003C139.424 184.536 134.715 185.695 134.609 184.643C134.517 183.733 133.524 178.626 134.011 177.968Z" fill="#FF4F5C"/>
<path fill-rule="evenodd" clip-rule="evenodd" d="M140.314 182.735C140.314 182.735 142.834 186.632 141.032 189.693C141.032 189.693 127.903 190.36 123.938 189.693C123.938 189.693 123.834 184.46 127.233 184.015C130.631 183.569 134.461 183.632 134.461 183.632C134.461 183.632 137.846 185.629 140.314 182.735Z" fill="#1D0B53"/>
<path fill-rule="evenodd" clip-rule="evenodd" d="M163.829 177.991C164.334 177.309 169.01 177.856 169.064 178.21C169.232 179.295 169.491 183.453 168.969 184.002C168.464 184.536 164.363 186.266 164.255 185.213C164.164 184.303 163.343 178.648 163.829 177.991Z" fill="#FF4F5C"/>
<path fill-rule="evenodd" clip-rule="evenodd" d="M140.169 127.507C139.552 135.857 140.118 152.691 140.736 161.041C140.773 161.602 140.774 180.998 140.774 180.998L133.515 181.749C129.563 169.001 122.016 140.412 122.016 127.72C122.016 115.029 123.028 93.8815 127.343 83.8477C131.444 74.3091 147.627 87.4846 149.529 89.8221C150.406 90.9038 148.745 100.561 146.447 106.96C143.777 114.374 140.503 123.018 140.169 127.507Z" fill="#7873E9"/>
<path fill-rule="evenodd" clip-rule="evenodd" d="M141.251 160.985C140.828 152.621 139.552 135.857 140.169 127.507C140.503 123.018 145.536 110.075 148.205 102.661C147.501 100.376 148.38 95.4703 146.638 94.2011C145.193 93.159 139.539 100.066 138.909 102.111C138.402 103.726 139.328 105.771 139.439 107.387C139.638 110.353 138.971 113.265 137.636 115.858C135.634 119.692 133.175 122.71 132.05 127.053C129.875 135.496 131.617 144.3 133.446 152.609C134.608 157.846 135.843 163.123 136.141 168.52C136.301 171.619 136.704 178.415 136.296 181.46L140.774 180.998C140.774 180.998 141.672 169.312 141.251 160.985Z" fill="#4841BD"/>
<path fill-rule="evenodd" clip-rule="evenodd" d="M169.622 180.998L163.177 181.749C159.814 169.725 150.824 149.183 149.503 136.571C147.451 116.986 144.973 96.0135 144.862 90.857C144.85 90.0282 144.838 89.5878 144.838 89.5878C149.274 83.749 156.794 81.3692 160.142 80.9423C161.464 80.7686 162.427 81.049 162.848 81.7972C164.207 84.2551 165.27 86.5268 166.099 88.6647C171.498 102.531 166.951 110.908 167.05 128.943C167.05 129.985 167.062 131.053 167.087 132.109C167.26 139.563 165.4 148.745 167.382 156.532C171.271 171.806 169.622 180.998 169.622 180.998Z" fill="#7873E9"/>
<path fill-rule="evenodd" clip-rule="evenodd" d="M168.618 156.031C167.497 148.044 167.247 139.564 167.087 132.109C167.062 131.054 167.05 129.986 167.05 128.943C166.951 110.908 171.496 102.096 166.096 88.2287C166.096 85.4561 160.03 84.1089 159.981 85.7926C159.932 87.8497 160.178 89.8534 160.463 91.8436C160.995 95.3436 161.686 98.804 161.217 102.411C160.488 107.995 158.819 113.273 158.474 118.963C157.843 129.423 160.055 139.029 163.343 148.755C165.394 154.794 167.05 160.805 167.693 167.218C168.1 171.279 168.19 177.063 168.153 181.151L169.622 180.998C169.622 180.998 171.312 175.236 168.618 156.031Z" fill="#4841BD"/>
<path fill-rule="evenodd" clip-rule="evenodd" d="M169.355 182.735C169.355 182.735 171.875 186.632 170.073 189.693C170.073 189.693 156.943 190.36 152.978 189.693C152.978 189.693 152.875 184.46 156.274 184.015C159.672 183.569 164.031 183.369 164.031 183.369C164.031 183.369 166.886 185.629 169.355 182.735Z" fill="#1D0B53"/>
<path fill-rule="evenodd" clip-rule="evenodd" d="M137.828 62.2181C137.828 62.2181 137.839 63.8593 137.282 66.153C136.73 68.411 135.646 71.0728 133.463 73.4677C130.46 76.783 125.37 79.5746 116.771 80.0218C111.17 80.3077 106.17 56.3765 106.917 51.7781C107.16 50.2614 110.542 53.2895 110.542 53.2895C112.385 53.8516 116.976 68.2334 118.913 67.4046C119.532 67.135 121.206 64.7812 123.407 61.6681C123.784 61.1485 124.177 60.5918 124.584 60.0242C129.007 53.8148 135.025 45.7081 139.392 44.1599C143.732 42.6348 137.828 62.2181 137.828 62.2181Z" fill="#FF4F5C"/>
<path fill-rule="evenodd" clip-rule="evenodd" d="M132.431 70.4452C131.757 69.4099 130.796 68.6015 130.242 67.4909C129.657 66.3256 129.473 65.0468 128.794 63.9238C127.774 62.2648 126.178 61.094 124.584 60.0244C124.177 60.5921 123.783 61.1487 123.406 61.6683C123.356 63.9593 123.733 66.1395 124.178 68.4142C124.455 69.7764 125.283 71.9989 125.004 73.3599C124.584 75.4142 122.018 75.9448 120.327 76.3307C115.432 77.4509 113.795 74.6742 112.269 70.8611C111.604 69.184 110.752 65.4707 109.104 64.5597C108.973 64.4846 108.852 64.423 108.729 64.3874C108.889 73.3462 112.64 80.2054 118.241 79.9195C126.839 79.4736 130.46 76.7832 133.463 73.4679C133.463 72.5215 133.139 71.5201 132.431 70.4452Z" fill="#FF394B"/>
<path fill-rule="evenodd" clip-rule="evenodd" d="M132.131 72.9385C132.636 73.0916 133.085 73.0218 133.464 72.6718C136.509 69.8283 136.635 68.8202 137.281 66.1449C137.829 63.8622 137.829 62.21 137.829 62.21C137.829 62.21 138.165 61.1171 138.601 59.4498C139.681 55.4861 141.421 48.3165 140.874 45.3894C140.691 44.3665 140.229 43.8618 139.386 44.1557C137.8 44.7167 136.102 45.6822 134.362 46.9571L134.348 46.972C131.387 49.1426 128.285 52.1953 125.296 55.6543C122.56 58.8343 128.524 71.7896 132.131 72.9385Z" fill="#37146F"/>
<path fill-rule="evenodd" clip-rule="evenodd" d="M151.084 30.9474C151.076 31.0076 151.06 31.065 151.068 31.1335C151.387 33.9221 153.247 36.3541 153.865 39.136C154.461 41.8237 154.558 44.6247 155.397 47.2603C156.496 50.7125 158.626 52.8886 162.322 53.08C165.499 53.2456 170.957 53.2688 173.128 50.4827C174.526 48.6884 174.997 44.3403 172.171 43.6839C171.727 43.5798 171.074 43.8984 171.243 44.4605C172.295 47.9388 167.886 45.2307 166.936 44.0052C165.996 42.7921 165.607 41.2205 165.348 39.7419C165.001 37.7574 165.077 35.7111 164.878 33.7088C164.609 31.0268 164.297 27.3682 162.034 25.5135C158.082 22.2733 152.54 26.6486 151.073 30.4468C151.001 30.637 151.018 30.8052 151.084 30.9474Z" fill="#36117F"/>
<path fill-rule="evenodd" clip-rule="evenodd" d="M131.64 67.1816C131.809 69.1006 131.892 71.0332 132.131 72.9385C132.636 73.0916 133.085 73.0218 133.464 72.6718C136.509 69.8283 136.635 68.82 137.281 66.1449C137.829 63.8622 137.829 62.21 137.829 62.21C137.829 62.21 138.165 61.1171 138.601 59.4498C138.797 54.6463 138.979 49.8565 140.874 45.3894C140.691 44.3665 140.229 43.8618 139.386 44.1557C137.8 44.7167 136.102 45.6822 134.362 46.9569L134.348 46.972C132.538 49.2957 128.404 51.2612 128.054 54.3975C127.632 58.3049 131.303 63.274 131.64 67.1816Z" fill="#1D0B53"/>
<path fill-rule="evenodd" clip-rule="evenodd" d="M126.242 89.1035L126.271 89.117C126.593 89.2157 129.035 89.9719 132.712 90.7694C137.062 91.7076 143.138 92.717 149.481 92.7868C153.214 92.8429 157.032 92.5625 160.653 91.7637C160.988 91.6939 161.312 91.6106 161.634 91.5259C161.831 91.4847 162.014 91.4286 162.209 91.3725C162.547 91.2878 162.87 91.1892 163.192 91.0921C163.655 90.9514 164.118 90.8118 164.582 90.6435C164.609 90.6298 164.652 90.6163 164.694 90.6012C165.171 90.4343 165.662 90.2372 166.139 90.028C166.237 89.9857 166.35 89.9433 166.448 89.9008C166.055 89.1459 165.564 88.291 165.016 87.3665C164.876 87.1284 164.721 86.8769 164.582 86.6239C164.216 86.0082 163.838 85.3778 163.459 84.7049C163.305 84.4259 163.136 84.1455 162.981 83.8651L162.686 83.3194C162.49 82.9541 162.294 82.5767 162.097 82.1978C161.775 81.5686 161.467 80.9094 161.171 80.2378C161.031 79.9302 160.554 78.6965 160.554 78.6965C160.554 78.6965 159.038 69.6912 159.081 68.5286C159.094 68.0663 159.137 67.6041 159.193 67.1418C159.304 66.2321 159.473 65.2939 159.67 64.327C161.368 55.8963 165.059 45.8955 155.249 42.8153C154.042 42.4227 152.611 42.1559 150.955 42.0027H150.942C149.159 41.8347 147.096 41.8196 144.724 41.9604C144.724 41.9604 141.749 42.997 138.325 44.7192C137.595 45.0829 136.837 45.4892 136.094 45.9241C135.645 46.1757 135.181 46.4425 134.746 46.7216C131.21 48.9345 129.132 52.801 129.26 55.8251C129.343 57.9261 130.242 59.5235 131.365 60.9376C132.249 62.0729 133.16 62.9688 133.848 63.8784C135.069 65.4759 135.645 67.1143 134.381 70.1112C134.325 70.2657 134.255 70.4339 134.171 70.5884C134.102 70.7553 134.016 70.9235 133.933 71.0918C133.259 72.4225 132.6 73.8094 131.954 75.2102C131.646 75.8816 131.351 76.5545 131.055 77.2261C130.074 79.4678 129.161 81.6384 128.417 83.5014C128.305 83.7816 128.194 84.0471 128.08 84.3137C128.052 84.397 128.025 84.4669 127.996 84.5367C127.87 84.8594 127.744 85.1821 127.632 85.4763C127.378 86.1055 127.155 86.6661 126.972 87.1421C126.523 88.3608 126.242 89.1035 126.242 89.1035Z" fill="#37146F"/>
<path fill-rule="evenodd" clip-rule="evenodd" d="M152.104 63.4275C152.981 66.4037 157.684 71.1182 159.578 72.5475C159.593 72.0851 159.134 67.6004 159.19 67.138C159.303 66.2286 159.471 65.2902 159.667 64.3233C159.064 63.1894 158.11 61.8451 156.566 60.4157C152.497 56.5779 154.673 44.0728 154.673 44.0728C148.114 47.3798 151.176 60.2777 152.104 63.4275Z" fill="#1D0B53"/>
<path fill-rule="evenodd" clip-rule="evenodd" d="M142.4 38.9338V42.8838C142.4 42.8838 141.336 44.8315 142.4 45.0448C144.739 45.5113 148.114 41.8703 148.114 41.8703V36.5703L142.4 38.9338Z" fill="#FF4F5C"/>
<path fill-rule="evenodd" clip-rule="evenodd" d="M148.114 39.9349V36.9204C148.114 36.9204 145.206 39.6916 142.4 39.8502C142.4 39.8502 145.782 41.4886 148.114 39.9349Z" fill="#FF394B"/>
<path fill-rule="evenodd" clip-rule="evenodd" d="M140.996 27.4082C140.996 27.4082 138.891 31.6688 138.365 35.6364C137.991 38.4539 143.16 42.1729 147.37 38.2051C151.58 34.2358 150.41 28.1672 150.41 28.1672L140.996 27.4082Z" fill="#FF4F5C"/>
<path fill-rule="evenodd" clip-rule="evenodd" d="M142.33 24.5384C145.79 22.413 151.027 22.6469 153.333 27.4081C154.361 29.5294 152.862 33.4902 151.543 35.5008C150.507 37.0779 148.56 38.3677 147.515 36.2777C146.716 34.6802 146.847 33.1922 146.975 31.4837C147.022 30.8561 147.041 30.3239 146.974 29.8439C146.145 28.7155 145.017 27.9237 143.75 27.9155C143.43 28.2353 140.236 31.689 138.657 29.3571C134.646 23.432 141.788 24.8708 142.33 24.5384Z" fill="#36117F"/>
<path fill-rule="evenodd" clip-rule="evenodd" d="M146.566 31.916C146.566 31.916 148.26 31.1281 148.597 32.4848C148.934 33.8416 147.698 34.6446 147.044 34.3969C146.39 34.1481 146.171 32.4848 146.566 31.916Z" fill="#FF4F5C"/>
<path fill-rule="evenodd" clip-rule="evenodd" d="M170.839 91.3401C161.337 93.4505 149.318 88.7907 143.264 85.9896C140.873 84.8707 139.413 84.0419 139.413 84.0419C139.3 83.6397 138.243 79.118 138.243 79.118C138.771 79.0058 154.113 81.1915 161.576 80.777C163.199 80.6758 164.457 80.4501 165.1 80.0603C165.943 79.5462 162.444 72.1482 159.852 69.6601C158.694 68.555 151.319 52.0384 152.1 49.9156C153.181 46.9641 156.92 46.0215 159.36 48.0062C164.056 51.8248 166.447 53.8478 172.323 60.8178C172.348 60.856 172.386 60.8807 172.411 60.919C179.838 69.6862 180.102 89.2803 170.839 91.3401Z" fill="#FF4F5C"/>
<path fill-rule="evenodd" clip-rule="evenodd" d="M147.555 101.967C148.864 102.299 150.133 101.302 150.114 99.9537L100.368 36.9751L97.8093 38.9884L147.555 101.967Z" fill="#FF8989"/>
<path fill-rule="evenodd" clip-rule="evenodd" d="M100.827 42.2492L102.84 40.6652C103.697 39.9909 103.843 38.7505 103.168 37.8956L98.1079 31.4905C97.4325 30.6345 96.1894 30.488 95.3328 31.1623L93.3196 32.7447C92.4632 33.4192 92.3165 34.6596 92.9921 35.5145L98.0517 41.9209C98.7274 42.777 99.9705 42.9235 100.827 42.2492Z" fill="#FF5675"/>
<path fill-rule="evenodd" clip-rule="evenodd" d="M138.617 79.0332C136.475 78.2154 133.022 77.9348 131.203 79.7212C130.326 80.5828 130.873 81.1614 131.926 80.7675C133.956 80.0071 135.588 80.1056 132.492 81.0559C131.866 81.2475 130.673 81.9506 130.817 82.4169C131.124 83.4044 133.26 82.432 134.251 82.1338C135.138 82.305 132.927 83.384 132.682 83.8134C131.568 85.7569 135.734 83.8516 135.982 84.0705C136.675 84.6807 133.66 85.5244 135.027 86.114C136.052 86.5571 138.451 84.6559 139.386 84.5152C140.153 84.3989 140.755 84.8473 141.264 84.1061C142.4 82.4524 139.522 79.3793 138.617 79.0332Z" fill="#FF4F5C"/>
<path fill-rule="evenodd" clip-rule="evenodd" d="M139.435 79.6129C138.882 78.9223 137.514 77.2438 136.631 76.9691C136.149 76.8187 135.48 76.9062 135.79 77.5585C135.978 77.9552 136.411 78.2903 136.763 78.5282C137.082 78.7431 137.362 79.0685 137.692 79.2544C138.031 79.446 139.508 79.7031 139.435 79.6129Z" fill="#FF4F5C"/>
<path fill-rule="evenodd" clip-rule="evenodd" d="M112.869 50.5926C112.755 50.4299 112.42 50.3944 112.24 50.5024C111.854 50.7334 111.418 51.1028 111.005 51.2969C110.453 51.8414 110.335 51.8536 110.655 51.3353C110.859 51.1 111.064 50.8661 111.27 50.6308C111.615 50.2575 112.54 49.6132 112.591 49.0895C112.663 48.3316 111.865 48.1306 111.078 48.4165C110.487 48.6326 110.125 49.1497 109.809 49.5667C109.718 49.683 109.247 50.2028 109.224 50.4585C109.116 49.9771 110.264 48.6381 110.553 48.303C110.95 47.842 112.474 46.4648 111.272 45.982C110.236 45.5661 108.803 47.1787 108.4 47.715C108.066 48.1608 107.826 48.6271 107.611 49.1153C107.405 49.5763 107.383 50.3861 107.331 49.3206C107.29 48.5053 107.66 47.7477 108.11 47.0283C108.304 46.7163 108.749 46.3499 108.774 46.001C108.82 45.3924 108.318 45.1052 107.569 45.3104C106.192 45.6852 105.356 47.4563 105.044 48.7981C104.534 50.9893 104.812 53.4334 107.186 54.2553C108.651 54.7628 110.197 53.9285 111.227 53.1761C111.97 52.6359 113.488 51.472 112.869 50.5926Z" fill="#FF4F5C"/>
<path fill-rule="evenodd" clip-rule="evenodd" d="M105.1 46.6162C105.099 46.6148 105.099 46.6121 105.097 46.6093C104.727 45.8954 103.954 45.1076 103.066 45.2662C102.206 45.4193 102.026 46.385 102.548 46.9952C102.898 47.404 103.414 47.6515 103.788 48.0468C104.12 48.3956 104.366 48.7854 104.528 49.2121C104.605 49.6458 104.672 50.0807 104.755 50.5032C104.858 51.0354 105.743 51.3801 105.954 50.7099C106.351 49.4501 105.978 47.7487 105.1 46.6162Z" fill="#FF4F5C"/>
<path fill-rule="evenodd" clip-rule="evenodd" d="M172.411 60.919C172.386 60.8807 172.348 60.856 172.323 60.8178C170.864 60.7056 169.655 61.3211 169.781 63.456C169.806 63.7829 170.021 63.9582 170.259 63.9964C172.688 69.258 174.023 74.5594 173.86 80.3998C173.758 84.2935 172.311 87.9111 167.957 88.4639C164.961 88.8398 161.765 88.3886 158.782 87.9988C156.101 87.6596 153.421 87.17 150.765 86.6174C148.966 86.2521 146.159 84.9719 144.384 85.3111C143.755 85.4233 143.403 85.6751 143.264 85.9896C149.318 88.7907 161.337 93.4505 170.839 91.3402C180.102 89.2803 179.838 69.6862 172.411 60.919Z" fill="#FF394B"/>
<path fill-rule="evenodd" clip-rule="evenodd" d="M158.622 69.4151C157.721 68.2361 151.527 60.2636 151.528 53.615C151.53 50.5897 152.445 43.7428 156.262 43.4706C162.374 43.0344 168.906 52.8163 173.325 60.1201C169.943 65.3448 165.526 68.6765 158.622 69.4151Z" fill="#37146F"/>
<path fill-rule="evenodd" clip-rule="evenodd" d="M77.4429 40.8475L104.561 18.6328L105.826 20.1714C106.982 21.5761 106.778 23.6483 105.37 24.8012L83.3468 42.8416C81.9395 43.9946 79.863 43.7909 78.7078 42.3861L77.4429 40.8475Z" fill="#FF8989"/>
<path fill-rule="evenodd" clip-rule="evenodd" d="M76.5699 37.0272L100.978 17.0337L103.206 19.7431L78.7985 39.7366L76.5699 37.0272Z" fill="#00B3DA"/>
</g>
<defs>
<clipPath id="clip0_123_26362">
<rect width="178" height="190" fill="white"/>
</clipPath>
</defs>
</svg>
