<svg version="1.1" id="Capa_1" xmlns="http://www.w3.org/2000/svg" xmlns:xlink="http://www.w3.org/1999/xlink" x="0px" y="0px" viewBox="0 0 512 512" style="enable-background:new 0 0 512 512;" xml:space="preserve"><g><path style="fill:#4398D1;" d="M97.103,326.621l15.713-291.31c1.077-18.397-12.968-34.18-31.373-35.257C80.781,0.018,80.119,0,79.448,0l0,0C61.016-0.035,46.054,14.883,46.027,33.315c-0.009,0.662,0.018,1.333,0.053,1.995l15.713,291.31l-50.67,36.193C4.158,367.775,0.009,375.799,0,384.353V512h158.897V384.353c-0.009-8.554-4.158-16.578-11.123-21.539L97.103,326.621z"/><path style="fill:#4398D1;" d="M476.69,317.793L492.403,35.31c1.077-18.397-12.968-34.18-31.373-35.257C460.367,0.018,459.705,0,459.035,0l0,0c-18.432-0.035-33.395,14.883-33.421,33.315c0,0.671,0.018,1.333,0.053,1.995l15.713,282.483l-27.542,27.542c-4.97,4.961-7.759,11.697-7.768,18.714V512h17.655l26.483-123.586h17.655L494.345,512H512V364.05c-0.009-7.018-2.798-13.753-7.768-18.714L476.69,317.793z"/><path style="fill:#4398D1;" d="M300.138,335.448L315.939,35.31c0.971-18.503-13.233-34.286-31.735-35.266C283.63,0.018,283.057,0,282.483,0l0,0c-18.529,0.026-33.527,15.06-33.501,33.589c0,0.574,0.018,1.148,0.044,1.721l15.801,300.138c-48.914,11.361-79.351,60.222-67.99,109.135c0.556,2.401,1.209,4.776,1.96,7.124c15.519,46.221,65.563,71.106,111.784,55.587c35.911-12.058,60.134-45.683,60.178-83.571C370.335,381.555,341.186,345.115,300.138,335.448z"/></g><g><path style="fill:#3570AB;" d="M282.483,485.517c-34.127,0-61.793-27.666-61.793-61.793s27.666-61.793,61.793-61.793v17.655c-24.373,0-44.138,19.765-44.138,44.138c0,24.373,19.765,44.138,44.138,44.138V485.517z"/><rect x="70.621" y="397.241" style="fill:#3570AB;" width="17.655" height="88.276"/><rect x="26.483" y="397.241" style="fill:#3570AB;" width="17.655" height="88.276"/><rect x="114.759" y="397.241" style="fill:#3570AB;" width="17.655" height="88.276"/><rect x="70.621" y="26.483" style="fill:#3570AB;" width="17.655" height="17.655"/><rect x="273.655" y="26.483" style="fill:#3570AB;" width="17.655" height="17.655"/><rect x="450.207" y="26.483" style="fill:#3570AB;" width="17.655" height="17.655"/></g><g></g><g></g><g></g><g></g><g></g><g></g><g></g><g></g><g></g><g></g><g></g><g></g><g></g><g></g><g></g></svg>
